<?xml version="1.0" encoding="utf-8"?>
<!-- Generator: Adobe Illustrator 21.0.0, SVG Export Plug-In . SVG Version: 6.00 Build 0)  -->
<svg version="1.1" id="Layer_1" xmlns="http://www.w3.org/2000/svg" xmlns:xlink="http://www.w3.org/1999/xlink" x="0px" y="0px"
	 viewBox="0 0 705.5 121" style="enable-background:new 0 0 705.5 121;" xml:space="preserve">
<style type="text/css">
	.st0{fill:none;stroke:#CECECE;stroke-miterlimit:10;}
	.st1{clip-path:url(#SVGID_2_);}
	.st2{fill:#CECECE;}
</style>
<g>
	<line class="st0" x1="-1.5" y1="120.5" x2="706.8" y2="120.5"/>
	<g>
		<g>
			<defs>
				<rect id="SVGID_1_" x="-91.5" y="-40.5" width="835" height="161"/>
			</defs>
			<clipPath id="SVGID_2_">
				<use xlink:href="#SVGID_1_"  style="overflow:visible;"/>
			</clipPath>
			<g class="st1">
				<g>
					<path class="st2" d="M-6.8,121.4h21.1l37.3-88.9h-0.2h-37v-1.3H51L38.3,0.8l1.1-0.4l12.9,30.8L64,3l-0.9-2.2l1.1-0.4l0.4,1.1
						L65,0.4l1.1,0.4L65.3,3l11.6,28.3l13-30.9L91,0.8L78.2,31.2h34.1v1.3H77.8h-0.2l37.3,88.9h20.3v1.3h-19.8l8.6,20.7h19.4v1.3
						h-19l9.1,21.6H146v0.9h-12.1l13.4,31.9l-1.1,0.4l-13.4-32.4h-23.7l13.4,31.9l-1.1,0.4L108,167.1H21.3L7.9,199.5L6.8,199
						l13.4-31.9H-3.5l-13.4,32.4L-18,199l13.4-31.9h-13.8v-0.9h14.2l9.1-21.6h-18.3v-1.3H5.3l8.6-20.7H-6.8V121.4z M28.6,147
						l-31.3,18.1l-0.4,1.1h1.5l29.3-17L28.6,147z M29.7,144.7h-1.3l-29.5,16.8l-0.9,2.2l31.3-18.1L29.7,144.7z M23.7,144.7L0.4,158
						l-0.9,2.2l27-15.5H23.7z M27.1,150.7L0.4,166.2h2.8l23.1-13.6L27.1,150.7z M18.9,144.7l-17,9.9L1,156.5l20.7-11.9L18.9,144.7
						L18.9,144.7z M14.4,144.7l-11,6.3l-0.9,2.2l14.5-8.4h-2.6V144.7z M9.6,144.7l-4.7,2.8L4,149.4l8.4-4.7H9.6z M25.6,154.2
						l-20.5,12h2.6l17-9.9L25.6,154.2z M6,144.7L5.5,146l2.2-1.3H6z M38.8,122.7h-0.4L7.9,140.4l-1.1,1.9l31.3-18.1L38.8,122.7z
						 M37.5,125.7L6.8,143.4h2.8l27-15.5L37.5,125.7z M33.8,122.7l-24.6,14l-0.9,2.2l28-16.2H33.8z M24.1,157.8l-14.5,8.4h2.8
						l10.8-6.5C23.4,159.1,23.9,158.5,24.1,157.8z M29,122.7l-18.3,10.6l-0.9,1.9l22-12.5H29z M24.3,122.7l-12.1,6.9l-0.9,2.2
						l15.7-9.1C27,122.7,24.3,122.7,24.3,122.7z M35.9,129.4l-24.4,14h2.6L35,131.3L35.9,129.4z M19.8,122.7l-6,3.5l-0.9,1.9
						l9.5-5.4C22.4,122.7,19.8,122.7,19.8,122.7z M15.2,122.7l-0.9,1.9l3.5-1.9H15.2z M22.6,161.3l-8.2,5H17l4.7-2.8L22.6,161.3z
						 M47.8,100.9l-31,18.1l-0.9,1.9L47,102.8L47.8,100.9z M34.4,132.8l-18.3,10.6h2.8l14.7-8.4L34.4,132.8z M46.5,104.3l-29.5,17
						h2.6l26.1-14.9L46.5,104.3z M49.3,97.2l-31.1,18.1l-0.9,2.2l31.1-18.1L49.3,97.2z M50.8,93.8l-31.1,18.1l-0.9,1.9L50,95.7
						L50.8,93.8z M18.9,166.2h1.7l0.4-1.3L18.9,166.2z M52.3,90.1l-31.1,18.1l-0.9,2.2l31.1-18.1L52.3,90.1z M33.1,136.5l-12.3,6.9
						h2.8l8.6-5L33.1,136.5z M45,108l-23.5,13.4h2.8L44.1,110L45,108z M53.8,86.6l-31.3,18.1l-0.9,1.9L53,88.8L53.8,86.6z
						 M107.6,166.2l-9.1-21.6H30.8l-9.1,21.6H107.6z M55.4,83l-31.3,18.1l-0.9,2.2l31.3-18.1L55.4,83z M56.9,79.5L25.6,97.6
						l-0.9,1.9L56,81.7L56.9,79.5z M31.6,139.9l-6,3.5h2.6l2.6-1.3L31.6,139.9z M58.4,75.9L27.1,94l-0.9,2.2L57.5,78L58.4,75.9z
						 M43.5,111.5l-17.3,9.9H29l13.6-7.8L43.5,111.5z M59.9,72.4L28.6,90.5l-0.9,1.9L59,74.6L59.9,72.4z M61.4,68.7L30.1,86.9
						L29.3,89l31.1-18.1L61.4,68.7z M62.7,65.3L31.6,83.4l-0.9,1.9l31.1-17.9L62.7,65.3z M42,115.1l-11,6.3h2.6l7.5-4.3L42,115.1z
						 M68.9,122.7h-2.6l-34.7,20.1l-0.4,0.6h1.7L68.9,122.7z M64,62.3v-0.4L33.1,79.7l-0.9,2.2l31.1-18.1L64,62.3z M61.6,122.7
						l-28.5,16.4l-0.9,2.2l32.1-18.5L61.6,122.7L61.6,122.7z M62.9,59.7L34.7,76.3l-0.9,1.9L63.6,61L62.9,59.7z M57.1,122.7
						l-22.4,12.9l-0.9,1.9l25.9-14.9h-2.6V122.7z M73.7,122.7h-2.8l-36,20.7h2.6L73.7,122.7z M62,57.5L36.2,72.6l-1.1,2.2l27.6-16
						L62,57.5z M52.3,122.7L36.1,132l-0.9,2.2L55,122.8L52.3,122.7L52.3,122.7z M40.5,118.6l-5,2.8h2.8l1.3-0.6L40.5,118.6z
						 M61.2,55.4L37.5,69.2l-0.9,1.9l25.2-14.5L61.2,55.4z M47.6,122.7l-10.1,5.8l-0.9,1.9l13.8-7.8h-2.8V122.7z M60.3,53.2L39,65.5
						l-0.9,2.2l22.6-13.2L60.3,53.2z M43.1,122.7l-4.1,2.2l-0.9,2.2l7.5-4.3L43.1,122.7L43.1,122.7z M78.2,122.7h-2.6l-36.2,20.7
						h2.8L78.2,122.7z M59.5,51.1l-19,11L39.6,64l20.3-11.6L59.5,51.1z M40,122.7l-0.4,0.6l1.5-0.6H40z M88.8,121.4L64.6,63.6
						l-24.2,57.8C40.4,121.4,88.8,121.4,88.8,121.4z M58.4,48.9L42,58.4l-0.9,2.2L59,50.2L58.4,48.9z M57.5,46.7l-14,8.2
						c-0.2,0.6-0.6,1.3-0.9,1.9L58.2,48L57.5,46.7z M56.7,44.6L45,51.3l-0.9,2.2L57,46L56.7,44.6z M83,122.7h-2.8l-36,20.7H47
						L83,122.7z M55.8,42.4l-9.3,5.4l-0.9,1.9l10.6-6L55.8,42.4z M54.9,40.3L48,44.2l-0.9,2.2l8.2-4.7L54.9,40.3z M53.8,38.1
						l-4.3,2.6l-0.9,1.9l5.8-3.2L53.8,38.1z M87.7,122.7h-2.8l-36,20.7h2.6L87.7,122.7z M53,36l-2.2,1L50,39.2l3.7-2.2L53,36z
						 M52.3,34l-0.9,1.5l1.1-0.6L52.3,34z M57.1,32.5h-2.8L53,33.2l0.6,1.3L57.1,32.5z M75.8,31.2l-11.2-27l-11.2,27H75.8z
						 M89.9,124l-0.6-1.3l-35.8,20.7h2.8L89.9,124z M61.8,32.5H59l-5,2.8l0.4,1.3L61.8,32.5z M66.4,32.5h-2.6l-8.8,5l0.4,1.3
						L66.4,32.5z M71.1,32.5h-2.8l-12.5,7.1l0.4,1.3L71.1,32.5z M75.6,32.5H73l-16.4,9.3l0.6,1.3L75.6,32.5z M75.2,35.3l0.9-2.2
						L57.5,43.9l0.6,1.3L75.2,35.3z M90.7,126.1l-0.4-1.3l-32.1,18.5h2.6L90.7,126.1z M73.9,39l0.9-2.2l-16.2,9.3l0.4,1.3L73.9,39z
						 M72.4,42.4l0.9-2.2l-13.8,8l0.4,1.3L72.4,42.4z M70.9,46.1l0.9-2.2l-11.4,6.7l0.4,1.1L70.9,46.1z M69.4,49.6
						c0.2-0.6,0.6-1.5,0.9-2.2l-9.1,5.4l0.6,1.1L69.4,49.6z M67.9,53.2l0.9-2.2L62,54.9l0.6,1.3L67.9,53.2z M91.6,128.3l-0.4-1.3
						l-28.5,16.4h2.8L91.6,128.3z M66.4,56.7l0.9-2.2l-4.1,2.6l0.4,1.3L66.4,56.7z M64.8,60.3l0.9-2.2L64,59.3l0.4,1.3L64.8,60.3z
						 M84.5,51.7l-0.6-1.3L65.7,60.8l-0.4,1.5v0.4L84.5,51.7z M85.3,53.9l-0.6-1.3l-19,11l0.6,1.3L85.3,53.9z M83,48.3l-15.7,9.1
						l-0.9,1.9l17.3-9.7L83,48.3z M86.2,56l-0.4-1.3l-19.2,11l0.6,1.3L86.2,56z M92.7,130.4l-0.6-1.3l-24.6,14.2H70L92.7,130.4z
						 M87.1,58.2l-0.4-1.3l-19,11l0.4,1.3L87.1,58.2z M82.1,46.1l-13.4,7.5l-0.9,2.2l14.7-8.4L82.1,46.1z M88.1,60.3L87.5,59l-19,11
						l0.4,1.3L88.1,60.3z M81.2,43.9l-11,6.3l-0.9,1.9L81.7,45L81.2,43.9z M89,62.5l-0.6-1.3l-19,11l0.6,1.3L89,62.5z M89.9,64.6
						l-0.6-1.3l-19,11l0.6,1.3L89.9,64.6z M80.2,41.8l-8.4,4.7l-0.9,2.2l9.9-5.8L80.2,41.8z M90.7,66.8l-0.4-1.3l-19.2,11l0.6,1.3
						L90.7,66.8z M93.5,132.6l-0.6-1.3L72,143.4h2.8L93.5,132.6z M91.6,69l-0.4-1.3l-19,11l0.4,1.3L91.6,69z M79.3,39.4l-6,3.7
						L72.4,45l7.5-4.3L79.3,39.4z M92.7,71.1L92,69.8l-19,11l0.4,1.3L92.7,71.1z M78.4,37.3l-3.7,2.2l-0.9,2.2l5-3L78.4,37.3z
						 M93.5,73.3L92.9,72l-19,11l0.6,1.3L93.5,73.3z M94.4,75.4L94,74.1L74.8,85.4l0.6,1.1L94.4,75.4z M77.6,35.1L76.3,36l-0.9,1.9
						l2.6-1.5L77.6,35.1z M95.3,77.6l-0.4-1.1l-19,11l0.4,1.1L95.3,77.6z M96.1,79.7l-0.4-1.1l-19,11l0.4,1.3L96.1,79.7z
						 M94.4,134.7l-0.6-1.3l-17,9.9h2.8L94.4,134.7z M76.9,34v0.4l0.2-0.2L76.9,34z M97.2,82.1l-0.6-1.3l-19,11l0.4,1.3L97.2,82.1z
						 M98.1,84.3L97.4,83l-19,11l0.6,1.3L98.1,84.3z M98.9,86.4l-0.4-1.3l-19.2,11l0.6,1.3L98.9,86.4z M99.8,88.6l-0.4-1.3l-19,11
						l0.4,1.3L99.8,88.6z M100.7,90.7l-0.4-1.3l-19,11l0.4,1.3L100.7,90.7z M95.3,136.9l-0.4-1.1l-13.4,7.5H84L95.3,136.9z
						 M101.7,92.9l-0.6-1.3l-19,11l0.4,1.3L101.7,92.9z M102.6,95.1l-0.6-1.3l-19,11l0.6,1.3L102.6,95.1z M103.5,97.2l-0.4-1.3
						l-19.2,11l0.6,1.3L103.5,97.2z M104.3,99.4l-0.4-1.3l-19,11l0.4,1.3L104.3,99.4z M105.2,101.5l-0.4-1.3l-19,11l0.4,1.3
						L105.2,101.5z M96.1,139.1c-0.2-0.4-0.2-0.6-0.4-1.1l-9.7,5.4h2.8L96.1,139.1z M106.3,103.7l-0.6-1.3l-19,11l0.4,1.3
						L106.3,103.7z M107.1,105.8l-0.6-1.3l-19,11l0.6,1.3L107.1,105.8z M108,108l-0.4-1.3l-19.2,11.2L89,119L108,108z M108.8,110.2
						l-0.4-1.3l-19,11.2l0.4,1.1L108.8,110.2z M90.5,122.7l0.2,0.9l1.5-0.9H90.5z M97.2,141.4l-0.6-1.3l-5.8,3.2h2.6L97.2,141.4z
						 M94.2,122.7l-3,1.7l0.4,1.3l5.4-3H94.2z M109.9,112.3l-0.6-1.1l-17.9,10.1h2.8L109.9,112.3z M98.9,122.7l-6.9,3.9l0.6,1.3
						l8.8-5.2C101.4,122.7,98.9,122.7,98.9,122.7z M103.5,122.7l-10.6,6l0.6,1.3l12.7-7.3H103.5z M108.2,122.7L94,130.9l0.4,1.3
						l16.6-9.5H108.2z M114,122.7h-1.1L94.8,133l0.4,1.3l19.2-11L114,122.7z M98.1,143.4l-0.6-1.1l-2.2,1.1H98.1z M114.7,124.2
						l-19,11l0.6,1.3l19-11L114.7,124.2z M110.8,114.5l-0.6-1.1l-14,8h2.6L110.8,114.5z M115.5,126.3l-19,11l0.6,1.3l19-11
						L115.5,126.3z M116.6,128.5l-19.2,11l0.6,1.3l19-11L116.6,128.5z M117.5,130.6l-19,11l0.4,1.3l19-11L117.5,130.6z M99.6,144.7
						l0.2,0.4l1.1-0.4H99.6z M119,134.1l-0.6-1.3L100,143.4h2.8L119,134.1z M102.8,144.7l-2.6,1.3l0.6,1.3l4.7-2.6H102.8z
						 M111.7,116.8l-0.6-1.3l-10.4,5.8h2.8L111.7,116.8z M107.3,144.7l-6.3,3.5l0.6,1.3l8.4-4.7h-2.7V144.7z M112.1,144.7l-9.9,5.6
						l0.4,1.3l12.3-6.9L112.1,144.7L112.1,144.7z M116.8,144.7l-13.8,8l0.4,1.1l16-9.1H116.8z M123.3,144.7h-1.9l-17.5,10.1l0.4,1.1
						l19.2-11L123.3,144.7z M119.8,136.3l-0.6-1.3l-14.5,8.4h2.6L119.8,136.3z M123.7,146l-19,11l0.6,1.3l19-11.2L123.7,146z
						 M112.5,119l-0.4-1.3l-6.7,3.7h2.8L112.5,119z M124.8,148.1l-19.2,11l0.6,1.3l19-11L124.8,148.1z M125.7,150.3l-19,11l0.4,1.3
						l19-11L125.7,150.3z M126.5,152.4l-19,11l0.4,1.3l19-11L126.5,152.4z M128,155.9l-0.6-1.3l-19,11l0.2,0.6h1.5L128,155.9z
						 M120.7,138.4l-0.4-1.3l-11,6.3h2.8L120.7,138.4z M113.4,121.2l-0.4-1.3l-2.8,1.5h2.6L113.4,121.2z M128.9,158l-0.6-1.3
						l-16.2,9.5h2.8L128.9,158z M121.6,140.6l-0.4-1.3l-7.1,4.1h2.6L121.6,140.6z M129.8,160.2l-0.4-1.3l-12.5,7.3h2.6L129.8,160.2z
						 M122.4,142.7l-0.4-1.3l-3.5,1.9h2.8L122.4,142.7z M130.6,162.4l-0.4-1.3l-8.8,5.2h2.8L130.6,162.4z M131.5,164.5l-0.4-1.3
						l-5,3h2.6L131.5,164.5z M132.4,166.2l-0.4-0.9l-1.3,0.9H132.4z"/>
					<path class="st2" d="M238.9,88.6h-1.7v21.6h9.5v0.9h-9.5v13.4c0,1.1,0.2,1.9,0.2,3c0,1.1-0.2,1.7-0.2,2.8v13.2h16.4v1.3h-16.4
						v21.6h16.4v0.9h-16.4v32.1h-0.9v-32.1h-21.6v32.1h-1.3v-32.1h-16h-5.6v32.1H191v-32.1h-32.4v32.1h-1.3v-32.1h-21.6v32.1h-0.9
						v-32.1h-18.5v-0.9h18.5v-21.6h-18.5v-1.3h18.5V111h-14.2v-0.9h14.2V88.6h-16.6v-1.3h16.6v-16V54.9h-16.6V54h16.6V32.5h-16.6
						v-1.3h16.6V1.9h0.9v29.3h21.6V1.9h1.3v29.3h16H191V1.9h0.9v29.3h21.6V1.9h1.3v29.3h21.6V1.9h0.9v29.3H249v1.3h-11.9v21.6H249
						V55h-11.9v32.4h1.7L238.9,88.6L238.9,88.6z M157.4,32.5h-1.1l-20.5,11.6v1.5l21.6-12.5V32.5z M151.6,32.5l-15.7,9.1v1.5
						l18.5-10.6H151.6z M147,32.5c-3.7,2.2-7.5,4.1-11.2,6.3v1.5l13.8-7.8H147z M142.3,32.5l-6.5,3.7v1.5l9.3-5.2H142.3z
						 M137.5,32.5l-1.7,0.9v1.5l4.5-2.4H137.5z M157.4,35.3v-0.9L135.8,47v1.5l12.7-7.3C151.1,38.8,154.1,36.8,157.4,35.3z
						 M145.7,43.9l-9.9,5.6V51l7.1-4.1C143.8,45.9,144.9,45,145.7,43.9z M141.6,48.9l-5.8,3.5v1.5l4.3-2.4
						C140.6,50.6,141,49.8,141.6,48.9z M135.8,54.9v1.5c0.9-0.4,1.5-0.9,2.4-1.3v-0.2H135.8z M136.9,58.6l0.6-1.9l-1.7,1.1v1.5
						L136.9,58.6z M157.4,60.1v-1.5l-21.6,12.5v0.2c0,0.4,0.2,0.9,0.2,1.3L157.4,60.1z M136,61.8c0.2-0.6,0.2-1.1,0.4-1.7l-0.6,0.2
						v1.5H136z M135.8,80.4v0.4h0.2C136,80.6,135.8,80.6,135.8,80.4z M136.2,81.7l-0.4,0.2v1.5l0.9-0.4
						C136.5,82.6,136.5,82.1,136.2,81.7z M136.9,84.1l-1.1,0.6v1.5l1.5-0.9C137.1,84.9,137.1,84.5,136.9,84.1z M135.8,87.3h2.4
						c-0.2-0.4-0.2-0.6-0.4-1.1L135.8,87.3z M139.3,89.7c-0.2-0.4-0.2-0.6-0.4-1.1h-0.2l-2.8,1.5v1.5L139.3,89.7z M135.8,88.6v0.2
						l0.9-0.2H135.8z M140.6,91.6c-0.2-0.4-0.6-0.6-0.9-1.1l-3.9,2.2v1.5L140.6,91.6z M141.6,93.6c-0.2-0.4-0.4-0.6-0.6-1.1l-5.2,3
						V97L141.6,93.6z M143.1,95.5c-0.2-0.4-0.6-0.6-0.9-1.1l-6.5,3.7v1.5L143.1,95.5z M144.7,97.4c-0.2-0.4-0.6-0.6-0.9-1.1l-8,4.5
						v1.5L144.7,97.4z M146.2,99.2c-0.4-0.4-0.6-0.6-0.9-1.1l-9.5,5.4v1.5L146.2,99.2z M147.9,100.9c-0.4-0.2-0.4-0.6-0.9-1.1
						l-11.2,6.5v1.5L147.9,100.9z M149.8,102.4c-0.4-0.2-0.6-0.6-1.1-0.9l-12.9,7.3v1.3h0.9L149.8,102.4z M157.4,111h-2.2
						l-19.4,11.4v1.5l21.6-12.5L157.4,111L157.4,111z M150.7,111l-14.9,8.6v1.5l17.5-10.1H150.7z M145.9,111l-10.1,6v1.5l12.9-7.5
						H145.9z M141.4,111l-5.6,3.2v1.5l8.2-4.7H141.4z M136.7,111l-0.9,0.6v1.5l3.7-2.2L136.7,111L136.7,111z M157.4,112.5L135.8,125
						v1.5l21.6-12.5L157.4,112.5L157.4,112.5z M157.4,115.3l-21.6,12.5v1.5l21.6-12.5V115.3z M157.4,117.9l-21.6,12.5v1.5l21.6-12.5
						V117.9z M157.4,120.7l-21.6,12.5v1.5l21.6-12.5V120.7z M157.4,123.3l-21.6,12.5v1.5l21.6-12.5V123.3z M157.4,126.1l-21.6,12.5
						v1.5l21.6-12.5V126.1z M157.4,128.7l-21.6,12.5v1.5l21.6-12.5V128.7z M156.1,144.7h-2.6l-17.7,10.1v1.5L156.1,144.7z
						 M151.6,144.7h-2.8l-12.9,7.3v1.5L151.6,144.7z M146.8,144.7h-2.6l-8.4,4.7v1.5L146.8,144.7z M142.3,144.7h-2.8l-3.7,1.9v1.5
						L142.3,144.7z M137.5,144.7h-1.7v0.9L137.5,144.7z M157.4,146.4v-1.5l-21.6,12.5v1.5L157.4,146.4z M157.4,149.2v-1.5
						l-21.6,12.5v1.5L157.4,149.2z M157.4,151.8v-1.5l-21.6,12.5v1.5L157.4,151.8z M157.4,154.6v-1.5l-21.6,12.5v0.6h1.7
						L157.4,154.6z M157.2,54.9h-2.8l-18.1,10.6c0,0.6-0.2,1.1-0.2,1.7L157.2,54.9z M157.4,57.5V56L136,68.3V70L157.4,57.5z
						 M157.4,62.9v-1.5L136,73.7v1.5L157.4,62.9z M157.4,65.5V64l-21.1,12.3c0,0.4,0.2,1.1,0.2,1.5L157.4,65.5z M152.4,54.9h-2.6
						l-12.9,7.5c-0.2,0.6-0.2,1.1-0.4,1.7L152.4,54.9z M157.4,68.3v-1.5l-20.7,12.1c0,0.4,0,0.9,0.2,1.3L157.4,68.3z M157.4,133
						v-1.5l-20.7,11.9h2.8L157.4,133z M157.4,70.9v-1.5l-20.3,11.9c0.2,0.4,0.2,0.9,0.4,1.3L157.4,70.9z M147.9,54.9h-2.8l-7.3,4.3
						c-0.2,0.6-0.2,1.3-0.4,1.9L147.9,54.9z M137.5,54.1h1.3c0.2-0.2,0.2-0.9,0.4-1.1L137.5,54.1z M157.4,73.7v-1.5L138,83.4
						c0.2,0.4,0.2,0.9,0.4,1.3L157.4,73.7z M143.1,54.9h-2.8l-1.3,0.9c-0.2,0.6-0.6,1.5-0.9,2.2L143.1,54.9z M157.4,76.3v-1.5
						l-18.8,11c0.2,0.4,0.4,0.6,0.6,1.1L157.4,76.3z M151.8,103.9c-0.4-0.2-0.6-0.6-1.1-0.9l-12.1,7.1h2.6L151.8,103.9z
						 M157.4,157.2v-1.5l-17.9,10.6h2.8L157.4,157.2z M157.4,43.9v-1.5L141,51.9c-0.4,0.6-0.6,1.5-1.1,2.2h0.4L157.4,43.9z
						 M141.2,88.6h-1.3c0,0.2,0.4,0.2,0.4,0.4L141.2,88.6z M157.4,79.1v-1.5l-17,9.7h2.8L157.4,79.1z M145.9,88.6h-2.8l-2.4,1.3
						l0.6,1.3L145.9,88.6z M157.4,135.6v-1.5l-16,9.3h2.6L157.4,135.6z M150.7,88.6h-2.8l-6,3.5c0.2,0.4,0.6,0.6,0.9,1.1L150.7,88.6
						z M157.4,39.8L144,47.6l-1.9,2.6l15.3-8.8L157.4,39.8L157.4,39.8z M157.4,46.7v-1.5L142.3,54h2.8L157.4,46.7z M155.2,88.6h-2.8
						l-9.3,5.4c0.2,0.4,0.6,0.6,0.9,1.1L155.2,88.6z M154.1,105.4c-0.4-0.2-0.9-0.6-1.3-0.9l-9.7,5.6h2.8L154.1,105.4z M157.4,160
						v-1.5l-13.2,7.8h2.6L157.4,160z M157.4,89.9v-1.3h-0.2l-12.5,7.1c0.2,0.4,0.6,0.6,0.9,1.1L157.4,89.9z M157.4,81.7v-1.5
						l-12.3,7.1h2.8L157.4,81.7z M157.4,37l-7.8,4.5c-1.5,1.3-2.6,2.6-3.9,3.9l11.6-6.9L157.4,37L157.4,37z M157.4,138.4v-1.5
						l-11.4,6.5h2.8L157.4,138.4z M157.4,92.5V91l-11.2,6.5c0.2,0.4,0.6,0.6,1.1,1.1L157.4,92.5z M157.4,49.3v-1.5L147,54.1h2.6
						L157.4,49.3z M157.4,95.3v-1.5l-9.5,5.4c0.4,0.4,0.6,0.9,1.1,1.1L157.4,95.3z M156.5,106.7c-0.4-0.2-1.1-0.6-1.5-0.9l-7.1,4.3
						h2.8L156.5,106.7z M157.4,162.6v-1.5l-8.6,5.2h2.8L157.4,162.6z M157.4,97.9v-1.5l-7.8,4.5c0.4,0.2,0.9,0.6,1.3,0.9L157.4,97.9
						z M157.4,84.5V83l-7.5,4.3h2.6L157.4,84.5z M157.4,141v-1.5l-6.7,3.9h2.6L157.4,141z M157.4,52.1v-1.5l-5.8,3.5h2.8L157.4,52.1
						z M157.4,100.7v-1.5l-5.6,3.2c0.4,0.2,0.6,0.6,1.1,0.9L157.4,100.7z M157.4,108.6v-1.5l-4.7,3h2.6L157.4,108.6z M157.4,165.4
						v-1.5l-3.9,2.4h2.6L157.4,165.4z M157.4,103.3v-1.5l-3.7,2.2c0.4,0.2,1.1,0.6,1.5,0.9L157.4,103.3z M157.4,87.1v-1.5l-3,1.7
						h2.8L157.4,87.1z M157.4,143.4v-1.1l-2.2,1.1H157.4z M157.4,106.1v-1.5l-1.3,0.6C156.5,105.4,156.9,105.8,157.4,106.1z
						 M157.4,54.1v-0.9l-1.1,0.9H157.4z M157.4,110.2V110l-0.2,0.2H157.4z M177.4,32.5h-2.6l-16.2,9.3v1.7L177.4,32.5z M169.7,32.7
						l-11,6.5v1.5l14.2-8.2C171.8,32.5,170.8,32.5,169.7,32.7z M160.8,32.5l-2.2,1.3v0.9c1.1-0.4,1.9-0.6,3-1.1l1.9-1.1
						C163.5,32.5,160.8,32.5,160.8,32.5z M158.7,32.5v0.2l0.2-0.2H158.7z M181.3,32.9c-0.6-0.2-1.5-0.2-2.2-0.2l-20.5,11.9v1.5
						L181.3,32.9z M184.8,33.6c-0.6-0.2-1.3-0.2-1.9-0.4l-24.2,14v1.7L184.8,33.6z M161.7,34.7l-3,1.7v1.7l8.2-5
						C165.1,33.6,163.4,34,161.7,34.7z M187.8,34.7c-0.6-0.2-1.1-0.4-1.7-0.6l-27.4,16v1.5L187.8,34.7z M190.4,35.7
						c-0.4-0.2-1.1-0.4-1.5-0.6l-30.2,17.5v1.5h0.2L190.4,35.7z M158.7,71.1c0,8.8,7.1,16.2,16,16.2c4.5,0,8.6-1.9,11.6-5
						c0.6-0.6,1.3-1.5,1.7-2.2s1.1-1.5,1.5-2.4l0.4-0.9c0.6-1.7,1.1-3.9,1.1-5.8c0-8-6-14.7-13.6-16c-0.4,0-0.6-0.2-1.1-0.2h-3.5
						C164.9,55.8,158.7,62.9,158.7,71.1z M158.7,54.9V65c1.7-4.5,5.2-8.4,9.7-10.1H158.7z M167.3,87.3h1.1h0.6
						c-4.7-1.7-8.6-5.4-10.4-10.1v10.1h0.4h2.6h0.2h4.5H167.3z M180.5,88.6l-21.8,12.5v1.7l24.6-14.2H180.5z M175.7,88.6l-17,9.9
						v1.5l19.8-11.4H175.7z M171.2,88.6l-12.5,7.1v1.7l15.1-8.8C173.8,88.6,171.2,88.6,171.2,88.6z M166.4,88.6l-7.8,4.5v1.5l10.6-6
						H166.4z M161.9,88.6l-3.2,1.7V92l5.8-3.5L161.9,88.6L161.9,88.6z M158.7,88.6v0.6l1.3-0.6H158.7z M175.1,94.2l-16.4,9.7v1.5
						l10.4-6C171,97.4,172.9,95.7,175.1,94.2z M166.9,101.7l-8.2,4.7c0.4,0.2,1.1,0.4,1.5,0.6l4.5-2.6
						C165.4,103.5,166,102.6,166.9,101.7z M158.7,107.8v0.4l0.2-0.4H158.7z M160.2,108.4l-1.5,0.9v0.9h1.3l1.7-1.3
						C161,108.6,160.8,108.6,160.2,108.4z M185.8,111.2l0.2-0.2h-2.8v0.2h-1.9V111h-2.8v0.2h-1.9V111h-1.7h-0.2H174v0.2h-2V111h-2.8
						h-1.9h-5.2c-2.2,5-3.5,10.6-3.5,16.4c0,5.8,1.3,11,3.5,16h0.6h1.9h2.6h0.2h4.5h0.2h4.3h0.2h4.5h0.2h4.5h0.2h4.3h0.4v-0.6
						c-6-2.6-10.4-8.6-10.4-15.5s4.3-12.9,10.4-15.5v-0.4h-0.4V111H188l-0.2,0.2H185.8z M158.7,111v7.5c0.6-2.6,1.3-5.2,2.4-7.5
						H158.7z M158.7,136v7.3h1.3h1.1C160,141,159.3,138.6,158.7,136z M158.7,144.7v1.3l2.2-1.3H158.7z M162.3,146.4l-0.6-1.3l-3,1.9
						v1.5L162.3,146.4z M163.6,148.3c-0.2-0.4-0.4-0.6-0.6-1.1l-4.3,2.4v1.7L163.6,148.3z M164.9,150.3c-0.2-0.4-0.6-0.6-0.9-1.1
						l-5.4,3.2v1.5L164.9,150.3z M166.2,152.2c-0.2-0.4-0.6-0.6-0.9-1.1l-6.7,3.9v1.7L166.2,152.2z M167.7,153.9
						c-0.2-0.4-0.6-0.6-0.9-1.1l-8.2,5v1.5L167.7,153.9z M169.5,155.7c-0.4-0.4-0.6-0.4-0.9-0.9l-9.9,5.6v1.7L169.5,155.7z
						 M171.2,157.4c-0.4-0.2-0.4-0.6-0.9-1.1l-11.6,6.9v1.5L171.2,157.4z M173.1,158.9c-0.4-0.2-0.6-0.6-1.1-0.9l-13.4,7.8v0.4h2.2
						L173.1,158.9z M191,38.1v-1.5l-30.2,17.5h2.8L191,38.1z M161.3,107.6c0.4,0.2,0.9,0.2,1.3,0.4c0.2-0.6,0.4-1.1,0.9-1.7
						L161.3,107.6z M163,109.3c-0.2,0.2,0,0.6-0.2,0.9h1.7l0.4-0.2L163,109.3z M165.6,144.7h-2.8c0.2,0.4,0.4,0.6,0.6,1.1
						L165.6,144.7z M175.3,160.4c-0.4-0.2-0.9-0.6-1.3-0.9l-11.2,6.7h2.8L175.3,160.4z M170.1,144.7h-2.6l-3.7,1.9l0.6,1.3
						L170.1,144.7z M191,90.5l-25.5,14.7c-0.6,0.9-1.1,1.7-1.5,2.6L191,92V90.5z M191,93.1l-26.7,15.5c0.6,0.2,1.3,0.2,1.9,0.4
						L191,94.8V93.1z M174.8,144.7H172l-6.9,3.9l0.6,1.3L174.8,144.7z M191,40.9v-1.7l-25.5,14.9h2.8L191,40.9z M179.4,144.7h-2.6
						l-10.4,5.8c0.2,0.4,0.6,0.6,0.9,1.1L179.4,144.7z M191,89c-1.1,0.2-2.4,0.4-3.5,0.6L169.9,100c-1.1,1.1-1.9,2.2-2.8,3.2
						L191,89.5V89z M191,95.9l-23.5,13.4c0.6,0.2,1.5,0.4,2.2,0.4L191,97.4V95.9z M177.4,161.9c-0.4-0.2-0.9-0.6-1.3-0.9l-8.6,5.2
						h2.6L177.4,161.9z M184.1,144.7h-2.8l-13.4,7.8c0.2,0.4,0.6,0.6,0.9,1.1L184.1,144.7z M188.7,144.7h-2.6l-16.6,9.5l1.1,1.1
						L188.7,144.7z M191,43.5V42l-20.7,12.1h2.6v-0.2L191,43.5z M191,146v-1.3h-0.4l-19.4,11.2c0.4,0.4,0.6,0.6,1.1,0.9L191,146z
						 M191,98.5l-19.6,11.4h2.6l17-9.7V98.5z M180,163.2c-0.4-0.2-1.1-0.6-1.5-0.9l-6.5,3.9h2.8L180,163.2z M191,148.8V147
						l-17.9,10.4c0.4,0.2,0.6,0.9,1.1,1.1L191,148.8z M173.6,96.8l9.5-5.6C179.6,92.5,176.4,94.6,173.6,96.8z M191,46.3v-1.7
						l-16,9.3c0.6,0,1.1,0.2,1.5,0.2h1.1L191,46.3z M191,151.4v-1.5l-16,9.1c0.4,0.2,0.9,0.6,1.3,0.9L191,151.4z M191,102.8v-1.5
						l-15.1,8.6c1.1,0,1.9-0.2,3-0.2L191,102.8z M182.6,164.3c-0.4-0.2-1.1-0.4-1.5-0.6l-4.3,2.6h2.6L182.6,164.3z M191,154.2v-1.7
						l-13.8,8c0.4,0.2,0.9,0.6,1.3,0.9L191,154.2z M191,48.9v-1.5l-11.4,6.7h2.6L191,48.9z M191,156.7v-1.5l-11.4,6.5
						c0.4,0.2,1.1,0.6,1.5,0.9L191,156.7z M180,91.4c2.4-1.1,5.2-2.8,5.2-2.8L180,91.4z M185.4,165.4c-0.6-0.2-1.1-0.4-1.7-0.6
						l-2.4,1.5h2.8L185.4,165.4z M191,105.6v-1.7l-9.5,5.6c1.5-0.2,3-0.6,4.5-1.1L191,105.6z M185,54.9h-2.6c-0.2,0-0.4,0.4-0.6,0.4
						c0.4,0.2,1.1,0.4,1.5,0.6L185,54.9z M191,112.7c-5.4,2.6-9.3,8-9.3,14.5s3.9,11.9,9.3,14.5V112.7z M191,159.5v-1.7l-8.8,5.2
						c0.4,0.2,1.1,0.4,1.5,0.6L191,159.5z M191,84.1v-1.7l-8.6,5h2.6L191,84.1z M191,34.7v-2.2h-7.1C186.3,33.2,188.9,33.6,191,34.7
						z M191,51.7V50c-2.2,1.3-4.7,2.8-6.9,4.1h2.8L191,51.7z M189.7,54.9h-2.8l-2.8,1.7c0.4,0.2,0.9,0.6,1.3,0.9
						C186.9,56.7,188.2,55.8,189.7,54.9z M191,162.1v-1.5l-6,3.5c0.6,0.2,1.1,0.2,1.7,0.4L191,162.1z M191,108.2v-0.4
						c-1.5,0.6-3.2,1.3-5,1.7l-0.9,0.6h2.6L191,108.2z M191,79.7l-1.9,1.1c-0.9,1.3-1.9,2.4-3,3.2l5-2.8v-1.5H191z M188.2,166.2
						c-0.4-0.2-1.1-0.2-1.5-0.4l-0.6,0.4H188.2z M191,57.1v-1.7l-4.7,2.8c0.4,0.2,0.4,0.6,0.9,1.1L191,57.1z M191,86.6v-1.5
						l-4.1,2.2h2.8L191,86.6z M191,59.7v-1.5l-3.2,1.7c0.2,0.4,0.6,0.6,0.9,1.1L191,59.7z M191,164.9v-1.7l-3,1.7
						c0.6,0.2,1.3,0.2,1.9,0.4L191,164.9z M191,54.1v-1.3l-2.2,1.3H191z M191,62.5v-1.7l-1.7,1.1c0.2,0.4,0.4,0.6,0.6,1.1L191,62.5z
						 M191,110.2v-0.9l-1.3,0.9H191z M191,77.2c-0.2,0.6-0.6,1.3-1.1,1.9l1.1-0.4V77.2z M191,65.1v-1.5l-0.6,0.2L191,65.1z
						 M213.5,54.1V32.5h-21.6v2.8c8.2,3.9,14.9,10.6,18.8,18.8H213.5z M191.9,36.4v1.1L193,37C192.5,36.8,192.3,36.6,191.9,36.4z
						 M194,37.5l-2.2,1.3v1.5l3.5-1.9C194.9,38.1,194.5,37.7,194,37.5z M196.2,39l-4.3,2.4v1.5l5.6-3
						C197.1,39.6,196.6,39.2,196.2,39z M198.4,40.5l-6.5,3.7v1.5l7.5-4.3C199,41.1,198.8,40.7,198.4,40.5z M200.3,42l-8.4,4.7v1.5
						l9.5-5.4C200.9,42.4,200.7,42.2,200.3,42z M202,43.7c-3.5,1.9-6.7,3.9-10.1,5.8V51l11.2-6.5C202.9,44.2,202.5,44.2,202,43.7z
						 M203.8,45.5l-11.9,6.7v1.5l12.7-7.3C204.4,45.9,204,45.9,203.8,45.5z M205.7,54.9l-13.8,8v1.5l16.4-9.5H205.7z M200.9,54.9
						l-9.1,5.4v1.5l11.9-6.9H200.9z M196.2,54.9c-1.5,0.9-2.8,1.7-4.3,2.6V59l7.1-4.1H196.2z M191.9,54.9v1.5
						c0.9-0.4,1.5-1.1,2.4-1.5H191.9z M210.7,56.5l-0.6-1.3L192,65.8v1.5L210.7,56.5z M211.5,58.6c-0.2-0.4-0.2-0.9-0.4-1.3
						l-19.2,11v1.5L211.5,58.6z M212.2,61c-0.2-0.4-0.2-1.1-0.4-1.5L192,71.1v1.5L212.2,61z M212.8,63.4c0-0.4-0.2-1.1-0.4-1.5
						l-20.5,11.9v1.5L212.8,63.4z M213.2,65.7c0-0.4-0.2-1.1-0.2-1.5l-21.1,12.3V78L213.2,65.7z M213.5,68.3c0-0.4-0.2-1.1-0.2-1.5
						l-21.4,12.3v1.5L213.5,68.3z M213.5,70.9v-1.5l-21.6,12.5v1.5L213.5,70.9z M213.5,73.7V72l-21.6,12.5V86L213.5,73.7z
						 M213.2,76.5c0-0.6,0.2-1.1,0.2-1.7l-21.6,12.5h2.4L213.2,76.5z M201.4,88.6H199l-7.1,4.1v1.5L201.4,88.6z M194.3,88.6
						l-2.4,1.3v1.5l5.2-2.8H194.3z M205,89.2c-0.6-0.2-1.3-0.4-1.9-0.4l-11.2,6.5v1.5L205,89.2z M208.5,90.1l-1.9-0.6l-14.7,8.6v1.5
						L208.5,90.1z M206.1,94c0.6-0.9,1.1-1.7,1.7-2.6l-16,9.3v1.5L206.1,94z M213.5,95.1v-1.5l-11.2,6.5c-3,2.8-6.5,5.4-10.4,7.1
						v0.4L213.5,95.1z M201.2,99.6c1.1-1.1,2.4-2.2,3.5-3.5l-12.7,7.3v1.5L201.2,99.6z M213.5,97.9v-1.5l-21.6,12.5v1.3h0.6
						L213.5,97.9z M197.7,143.2c8.2,0,14.9-6,15.7-14v-3.9c-0.9-8-7.5-14-15.7-14c-1.9,0-4.1,0.4-5.8,1.1v29.8
						C193.6,142.7,195.8,143.2,197.7,143.2z M209.4,144.7l-17.5,9.9v1.5l20.1-11.4H209.4z M204.6,144.7l-12.7,7.3v1.5l15.5-8.8
						H204.6z M200.1,144.7l-8.2,4.5v1.5l10.8-6H200.1z M195.3,144.7l-3.5,1.9v1.5l6.3-3.5h-2.8V144.7z M191.9,144.7v0.6l1.5-0.6
						H191.9z M213.5,144.9l-21.6,12.5v1.5l21.6-12.5V144.9z M213.5,147.5L191.9,160v1.5l21.6-12.5V147.5z M213.5,150.3l-21.6,12.5
						v1.5l21.6-12.5V150.3z M213.5,152.9l-21.6,12.5v0.4c0.6,0,1.3,0.2,1.9,0.2l19.6-11.6v-1.5H213.5z M195.6,104.1l-2.8,1.5
						C193.6,105.2,194.7,104.8,195.6,104.1z M205.3,47.2l-11.9,6.9h2.8l9.9-5.8C205.9,47.8,205.5,47.6,205.3,47.2z M213.5,100.5V99
						l-19,11.2h2.6L213.5,100.5z M213.5,157.2v-1.5L195.3,166c0.6,0,1.5,0.2,2.2,0.2c0.2,0,0.4-0.2,0.6-0.2L213.5,157.2z
						 M212.6,79.5c0.2-0.6,0.4-1.1,0.4-1.7l-16.8,9.5h1.3h1.5L212.6,79.5z M206.6,49.1l-8.4,5h2.8l6.5-3.9
						C207.2,49.8,206.8,49.6,206.6,49.1z M213.5,103.3v-1.5l-14.5,8.4h2.8L213.5,103.3z M213.5,159.8v-1.5l-13.4,7.8
						c1.1,0,2.4-0.2,3.5-0.4L213.5,159.8z M211.9,82.6c0.2-0.6,0.2-1.1,0.4-1.7l-11.4,6.5h2.8L211.9,82.6z M213.5,138.2v-1.5l-3,1.7
						c-1.9,2.4-4.7,4.1-7.8,5h1.9L213.5,138.2z M207.8,51.1l-5,3h2.6l3-1.9C208.3,51.7,208.1,51.5,207.8,51.1z M204.6,111h-1.3
						c0.2,0,0.6,0.4,0.9,0.4L204.6,111z M213.5,105.8v-1.5l-9.7,5.8h2.8L213.5,105.8z M213.5,92.5V92c-0.4-0.2-0.4-0.4-0.9-0.6
						l-5.6,3.2c-0.6,1.1-1.5,2.2-2.4,3L213.5,92.5z M209.1,111h-2.6l-1.3,0.9c0.4,0.2,0.9,0.6,1.3,0.9L209.1,111z M210.7,86l0.6-1.9
						l-5.6,3.2h2.6L210.7,86z M213.5,141v-1.5l-6.9,3.9h2.6L213.5,141z M213.5,162.6v-1.5l-6.9,4.1c2.2-0.4,4.3-1.3,6.3-2.2
						L213.5,162.6z M213.5,166.2v-2.4c-2.2,0.9-4.3,1.7-6.7,2.4H213.5z M207.4,54.1h2.2c-0.2-0.2-0.2-0.9-0.4-1.1L207.4,54.1z
						 M213.5,111.2V111h-2.4l-3.7,2.2c0.4,0.2,0.9,0.9,1.3,1.1L213.5,111.2z M207.8,88.8c0.4,0.2,0.9,0.2,1.3,0.4
						c0.2-0.2,0.2-0.4,0.4-0.6h-1.3L207.8,88.8z M211.3,91c-0.6-0.2-0.9-0.2-1.5-0.4c-0.4,0.9-1.1,1.5-1.5,2.4L211.3,91z
						 M213.5,108.6v-1.5l-5.2,3h2.8L213.5,108.6z M213.5,114v-1.5l-4.1,2.4c0.4,0.2,0.9,0.4,1.1,0.9L213.5,114z M210.2,89.5l3.2,1.3
						v-2.2h-2.8L210.2,89.5z M213.5,116.6v-1.5l-2.4,1.5c0.2,0.4,0.6,0.6,0.9,1.1L213.5,116.6z M213.5,143.4v-1.3l-2.4,1.3H213.5z
						 M213.5,62.1V55h-2.2C212.4,57.1,212.8,59.7,213.5,62.1z M213.5,87.3v-6.9c-0.6,2.4-1.1,4.7-2.2,6.9H213.5z M213.5,134.1h-0.2
						c-0.4,0.9-0.9,1.7-1.3,2.4l1.5-0.9V134.1z M213.5,119.4v-1.5l-1.1,0.6c0.2,0.4,0.4,0.6,0.6,1.1L213.5,119.4z M213.5,110.2v-0.4
						l-0.4,0.4H213.5z M236.3,32.5h-21.6v21.6h21.6V32.5z M214.8,54.9v16.4v16h21.6V54.9H214.8z M236.3,110.2V88.6h-21.6v2.6
						c8.2,3.9,14.9,10.8,18.8,19H236.3z M215.2,92.7l-0.4,0.2v1.7l1.7-1.1C216,93.3,215.6,92.9,215.2,92.7z M217.6,94l-2.8,1.7v1.5
						l4.1-2.4C218.4,94.6,218,94.2,217.6,94z M219.7,95.5l-5,2.8v1.5l6-3.5C220.4,96.1,220.1,95.7,219.7,95.5z M221.7,97l-6.9,4.1
						v1.5l8-4.7C222.3,97.6,222.1,97.2,221.7,97z M223.6,98.5l-8.8,5.2v1.7l9.9-5.8C224.2,99.2,224,98.7,223.6,98.5z M225.3,100.2
						l-10.6,6.3v1.5l11.4-6.7C226,100.9,225.8,100.7,225.3,100.2z M226.8,102l-12.1,7.1v1.1h1.1l12.1-7.1
						C227.7,102.6,227,102.4,226.8,102z M229.8,111l-15.1,8.8v1.7l17.7-10.6L229.8,111L229.8,111z M225.1,111l-10.4,6.3v1.5
						l13.2-7.8H225.1z M220.6,111l-5.8,3.5v1.7l8.4-5.2H220.6z M215.8,111c-0.4,0.2-0.6,0.6-1.1,0.9v1.5l3.9-2.4H215.8z
						 M233.7,113.2l-0.6-1.3l-18.3,10.8v1.5L233.7,113.2z M234.4,115.3c-0.2-0.4-0.2-0.9-0.4-1.3l-19.2,11.2v1.5L234.4,115.3z
						 M235,117.7c-0.2-0.4,0-0.9-0.2-1.3l-20.1,11.4v1.3v0.4L235,117.7z M235.7,120.1c0-0.4-0.2-0.9-0.2-1.3l-20.7,11.9v1.7
						L235.7,120.1z M236.1,122.7c0-0.4-0.2-1.1-0.2-1.5l-21.1,12.3v1.5L236.1,122.7z M236.3,125.3v-0.9c0-0.2-0.2-0.6-0.2-0.9
						L214.8,136v1.7L236.3,125.3z M236.3,127.8v-1.5l-21.6,12.5v1.5L236.3,127.8z M236.1,130.6c0-0.2,0.2-0.2,0.2-0.4v-1.3
						l-21.6,12.5v1.7L236.1,130.6z M214.8,163.4v2.8h21.6v-21.6h-2.8C229.6,152.9,222.9,159.5,214.8,163.4z M227.9,144.7l-13.2,7.5
						v1.5l16-9.1h-2.8V144.7z M223.4,144.7l-8.6,5v1.5l11.2-6.5H223.4z M218.6,144.7l-3.9,2.2v1.7l6.7-3.9H218.6z M214.8,144.7v1.1
						l1.9-1.1H214.8z M230.9,147c0.4-0.6,0.9-1.3,1.3-2.2L214.8,155v1.5L230.9,147z M227.7,151.6c0.6-0.9,1.5-1.7,2.2-2.6l-15.1,8.6
						v1.7L227.7,151.6z M220.8,158.5c1.7-1.3,3.5-2.8,5-4.5l-11,6.5v1.5L220.8,158.5z M235.9,133.5c0-0.6,0.2-1.1,0.2-1.7
						l-20.3,11.6h2.8L235.9,133.5z M228.3,103.9l-10.6,6.3h2.6c3-1.7,5.8-3.5,8.8-5.2C229,104.6,228.6,104.3,228.3,103.9z
						 M235.2,136.5c0.2-0.6,0.2-1.1,0.4-1.7l-15.1,8.6h2.6L235.2,136.5z M229.8,105.8l-7.5,4.3h2.8l5.4-3.2
						C230.3,106.5,230.1,106.3,229.8,105.8z M234.4,139.7c0.2-0.6,0.2-1.3,0.4-1.9l-9.7,5.6h2.8L234.4,139.7z M230.9,107.8l-3.9,2.4
						h2.6l2.2-1.3C231.6,108.4,231.1,108.2,230.9,107.8z M232.9,143.2c0.2-0.6,0.6-1.3,0.9-1.9l-3.9,2.2h2.6L232.9,143.2z
						 M231.6,110.2h0.6v-0.4L231.6,110.2z M236.3,117.7V111h-2.4C234.8,113.2,235.7,115.6,236.3,117.7z M236.3,143.4v-6.5
						c-0.6,2.2-1.5,4.3-2.4,6.5H236.3z"/>
					<path class="st2" d="M407.8,32.5h-16v21.6h16V55h-16v44.4v44h16.4v1.3h-16.4v21.6h20.7v0.9h-20.7v1.5l5.6,5.6l-0.9,0.9l-4.7-5
						v29.1h-1.3V169l-1.7-1.9h-22v1.3h3.9v0.9h-3.9v30h-0.9v-30h-44.4h-44v30h-1.3v-30h-1.5v-0.9h1.5v-1.3h-21.8l-1.9,1.9v30.2h-0.9
						v-29.1l-9.7,9.7l-0.9-0.9l10.6-10.4V167h-12.1v-0.9h12.1v-21.6h-12.1v-1.3h12.1v-44V54.9h-14.5V54h14.5V32.5h-14.5v-1.3h14.5
						v-1.3l-9.9-9.7l0.9-0.9l9.1,9.1V1.2h0.9v28.3l1.9,1.7h21.8v-0.9h-1.5V29h1.5V1.2h1.3V29h44H366V1.2h0.9V29h3.9v1.3h-3.9v0.9h22
						l1.7-1.7V1.2h1.3v27.2l8.8-9.1l0.9,0.9l-9.7,9.7v1.3h16L407.8,32.5L407.8,32.5z M252.9,31.2l-0.4-0.2v0.2H252.9z M268.2,54.1
						c1.1-1.3,2.2-2.6,3.5-3.9L254,32.5h-1.5v21.6H268.2z M252.5,86.9C254.7,75,259.8,64,267.2,55h-14.7L252.5,86.9L252.5,86.9z
						 M276.2,87.1v-1.5l-23.7,13.8c0,0.4,0.2,1.1,0.2,1.5L276.2,87.1z M267.2,143.4c-7.3-9.1-12.5-19.8-14.7-31.7v31.7H267.2z
						 M254,166.2l17.7-17.9c-1.3-1.3-2.4-2.4-3.5-3.7h-15.7v21.6L254,166.2L254,166.2z M252.5,167.5l0.4-0.4h-0.4V167.5z
						 M276.2,81.7v-1.5l-23.5,13.6v1.7L276.2,81.7z M276.2,84.5V83l-23.5,13.6v1.7L276.2,84.5z M276.2,89.9v-1.5L252.7,102v1.5
						L276.2,89.9z M276.2,92.5V91l-23.5,13.6c0,0.4,0.2,1.1,0.2,1.5L276.2,92.5z M276.2,79.1v-1.5L253.1,91c0,0.6-0.2,1.1-0.2,1.7
						L276.2,79.1z M276.2,95.3v-1.5l-23.1,13.4v1.5L276.2,95.3z M276.2,76.3v-1.5L253.6,88c0,0.6-0.2,1.1-0.2,1.7L276.2,76.3z
						 M276.2,97.9v-1.5l-22.9,13.4c0,0.4,0.2,0.9,0.2,1.3L276.2,97.9z M276.2,73.7v-1.5L254,84.9c-0.2,0.6,0,1.3-0.2,1.9L276.2,73.7
						z M276.2,100.7v-1.3v-0.2l-22.4,12.9c0,0.4,0.2,1.1,0.2,1.5L276.2,100.7z M276.2,103.3v-1.5l-22,12.7c0,0.4,0.2,1.1,0.4,1.5
						L276.2,103.3z M276.2,70.9v-1.5l-21.4,12.5c-0.2,0.6-0.2,1.1-0.4,1.7L276.2,70.9z M276.2,106.1v-1.5l-21.4,12.3
						c0.2,0.4,0.2,1.1,0.4,1.5L276.2,106.1z M276.2,68.3v-1.5l-20.5,11.9l-0.6,1.9L276.2,68.3z M255.5,32.5l16.8,16.8
						c1.3-1.3,2.6-2.4,3.9-3.5V32.5H255.5z M276.2,108.6v-1.5l-20.7,12.1c0.2,0.4,0.2,0.9,0.4,1.3L276.2,108.6z M276.2,152.6
						c-1.3-1.1-2.6-2.2-3.9-3.5l-16.8,17h20.7V152.6z M276.2,65.5V64l-19.4,11.2c-0.2,0.6-0.4,1.5-0.6,2.2L276.2,65.5z M276.2,111.5
						V110l-20.1,11.6l0.6,1.3L276.2,111.5z M276.2,114v-1.5L257,123.7l0.6,1.3L276.2,114z M276.2,62.9v-1.5l-17.9,10.4
						c-0.2,0.6-0.6,1.5-0.9,2.2L276.2,62.9z M276.2,116.8v-1.5l-18.3,10.6l0.6,1.3L276.2,116.8z M276.2,60.1v-1.5L260,68.1
						c-0.4,0.6-0.6,1.5-1.1,2.2L276.2,60.1z M276.2,119.4v-1.5L259,128.1c0.2,0.4,0.2,0.9,0.4,1.3L276.2,119.4z M276.2,122.2v-1.5
						l-16.4,9.5c0.2,0.4,0.4,0.6,0.6,1.1L276.2,122.2z M276.2,57.5V56l-14,8.2c-0.4,0.9-0.9,1.3-1.3,2.2L276.2,57.5z M276.2,124.8
						v-1.5l-15.3,8.8l0.6,1.3L276.2,124.8z M276.2,127.6v-1.5l-14,8.2c0.2,0.4,0.4,0.6,0.6,1.1L276.2,127.6z M273.2,54.9l-8.2,5
						c-0.6,0.9-1.1,1.5-1.7,2.4L276,55h-2.8V54.9z M276.2,130.2v-1.5l-12.9,7.5c0.2,0.4,0.6,0.6,0.9,1.1L276.2,130.2z M276.2,133
						v-1.5l-11.6,6.7c0.2,0.4,0.6,0.6,0.9,1.1L276.2,133z M276.2,135.6v-1.5l-10.1,6c0.2,0.4,0.4,0.6,0.6,1.1L276.2,135.6z
						 M268.7,54.9c-0.9,0.9-1.7,2.2-2.4,3l5-3H268.7z M276.2,138.4v-1.5l-8.8,5.2c0.2,0.4,0.6,0.6,0.9,1.1L276.2,138.4z M276.2,141
						v-1.5l-6.7,3.9h2.6L276.2,141z M269.5,144.7l0.2,0.2l0.6-0.2H269.5z M274.7,53l-1.1-0.9l-3.2,1.9h2.8L274.7,53z M272.3,144.7
						l-1.9,0.9c0.2,0.4,0.9,0.6,1.1,1.1l3.5-1.9h-2.7V144.7z M272.3,50.8c-0.6,0.6-1.1,1.3-1.7,1.9l2.4-1.5L272.3,50.8z
						 M272.3,147.7l1.3-1.3l-1.5,0.9C272.1,147.5,272.3,147.5,272.3,147.7z M276.2,49.3v-1.5l-1.9,1.3l-1.1,1.1l0.6,0.6L276.2,49.3z
						 M276.2,146.4v-1.1l-2.6,2.8L276.2,146.4z M276.2,149.2v-1.5l-2.4,1.3c0.4,0.4,0.6,0.9,1.1,1.1L276.2,149.2z M276.2,143.4v-1.1
						l-2.2,1.1H276.2z M276.2,52.1v-1.5l-1.5,0.9l0.9,1.1L276.2,52.1z M275.6,54.1l-0.2-0.2l-0.2,0.2H275.6z M276.2,151.4v-1.1
						l-0.6,0.4L276.2,151.4z M304.3,31.2c1.7-0.4,3.2-0.6,5-0.9h-31.7v0.9H304.3z M277.5,44.8c6.7-5.6,14.5-9.7,23.1-12.3h-23.1
						V44.8z M315,32.5h-2.8l-34.7,20.1v1.5h0.2L315,32.5z M307.7,32.5L277.5,50v1.5l32.8-19H307.7z M304.5,32.5
						c-0.9,0.2-1.9,0.4-2.8,0.6l-24.2,14v1.7l28.3-16.4L304.5,32.5L304.5,32.5z M278.2,56.5l-0.6-0.6V57L278.2,56.5z M279.9,58.2
						l-1.1-0.9l-1.3,0.6v1.7L279.9,58.2z M281.6,59.9l-1.1-1.1l-3,1.9v1.5L281.6,59.9z M283.1,61.6l-0.9-1.1l-4.7,2.8V65L283.1,61.6
						z M284.8,63.4l-0.9-1.1l-6.5,3.9v1.5L284.8,63.4z M286.6,65.1l-0.9-1.1l-8.2,4.7v1.7L286.6,65.1z M288.3,66.8
						c-0.4-0.4-0.4-0.6-0.9-1.1l-9.9,5.8V73L288.3,66.8z M286.8,70.3c0.9-0.9,1.5-1.7,2.4-2.6l-0.2-0.2l-11.4,6.7v1.7L286.8,70.3z
						 M290,68.3c-7.8,8-12.5,19-12.5,31.1s4.7,22.9,12.5,30.8l30.8-30.8L290,68.3z M283.3,75c0.6-0.9,1.1-1.7,1.7-2.6l-7.5,4.5v1.5
						L283.3,75z M281.2,79.1c0.4-0.9,0.6-1.7,1.1-2.4l-4.7,2.8v1.7L281.2,79.1z M279.5,82.8c0.2-0.6,0.6-1.5,0.9-2.2l-2.8,1.7v1.5
						L279.5,82.8z M278.4,86l0.6-1.9l-1.5,0.9v1.7L278.4,86z M277.9,87.3l-0.4,0.4v1.5C277.7,88.6,277.7,87.9,277.9,87.3z
						 M277.5,109.3v1.5l0.2-0.2C277.5,110.2,277.5,109.7,277.5,109.3z M277.9,111.7l-0.4,0.2v1.7l0.9-0.6
						C278.2,112.5,278.2,112.1,277.9,111.7z M278.8,113.8l-1.3,0.9v1.5l1.7-1.1C279,114.7,279,114.3,278.8,113.8z M279.5,116
						l-1.9,1.3v1.7l2.6-1.7L279.5,116z M280.5,118.1l-3,1.9v1.5l3.7-2.2L280.5,118.1z M281.6,120.3l-4.1,2.4v1.7l4.7-2.8
						L281.6,120.3z M282.7,122.5l-5.2,3v1.5l5.8-3.5C283.1,123.1,282.9,122.9,282.7,122.5z M284,124.4l-6.5,3.7v1.7l7.1-4.3
						C284.4,125,284.2,124.8,284,124.4z M285.3,126.3l-7.8,4.5v1.5l8.6-5C285.9,127,285.5,126.8,285.3,126.3z M286.8,128.1l-9.3,5.4
						v1.7l10.1-6C287.4,128.7,287,128.5,286.8,128.1z M289.2,130.9c-0.2-0.4-0.6-0.4-0.9-0.9l-10.8,6.3v1.5l11.6-6.7L289.2,130.9
						L289.2,130.9z M286.6,133.7l-9.1,5.2v1.7l5.2-3.2L286.6,133.7z M277.5,141.6v1.1l2.6-2.6L277.5,141.6z M293.7,144.7h-2.8
						l-13.4,7.8c0.4,0.2,0.6,0.6,1.1,0.9L293.7,144.7z M288.9,144.7h-2.6l-8.8,5v1.7L288.9,144.7z M284.4,144.7h-2.8l-4.1,2.4v1.5
						L284.4,144.7z M279.7,144.7h-2.2v1.3L279.7,144.7z M300.6,166.2c-8.6-2.6-16.4-6.9-23.1-12.5v12.5H300.6z M277.5,168.4h31.7
						c-1.7-0.2-3.2-0.9-5-1.3h-26.7V168.4z M278.2,45.7L297,34.9C290,37.5,283.8,41.1,278.2,45.7z M280.5,54.9h-2.4L279,56
						L280.5,54.9z M294.8,135.8c-0.4-0.2-0.6-0.6-1.1-0.9l-14.9,8.4h2.8L294.8,135.8z M298.2,144.7h-2.6l-16.2,9.3
						c0.4,0.2,0.6,0.6,1.1,0.9L298.2,144.7z M319.8,32.5H317l-37.3,21.6h2.8L319.8,32.5z M285.3,54.9h-2.8l-2.8,1.7l1.1,1.1
						L285.3,54.9z M291.8,133.2l-8,4.7l-3.9,3.7l12.9-7.3C292.4,134.1,292.2,133.5,291.8,133.2z M289.8,54.9h-2.6
						c-1.9,1.1-3.9,2.4-5.8,3.5l1.1,0.9L289.8,54.9z M303,144.7h-2.8l-18.8,10.8c0.4,0.2,0.9,0.6,1.3,0.9L303,144.7z M294.6,54.9
						h-2.8l-8.6,5.2l1.1,0.9L294.6,54.9z M296.9,137.3c-0.4-0.2-0.9-0.6-1.3-0.9l-12.1,6.9h2.6L296.9,137.3z M307.5,144.7h-2.6
						L283.6,157l1.3,0.6L307.5,144.7z M324.3,32.5h-2.6l-37.3,21.6h2.8L324.3,32.5z M299.3,54.9h-2.8l-11.6,6.9l1.1,0.9L299.3,54.9z
						 M312.2,144.7h-2.8l-23.5,13.6c0.4,0.2,0.9,0.6,1.3,0.9L312.2,144.7z M290,131.7l-3.7,3.7l4.5-2.8
						C290.5,132.4,290.5,131.9,290,131.7z M303.8,54.9h-2.6l-14.7,8.6l1.1,0.9L303.8,54.9z M299.3,138.6c-0.4-0.2-1.1-0.6-1.5-0.9
						l-9.7,5.6h2.8L299.3,138.6z M317,144.7h-2.8l-26.1,14.9c0.4,0.2,1.1,0.6,1.5,0.9L317,144.7z M293.5,63.8
						c3.5-2.8,7.3-5,11.4-6.7l3.7-2.2h-2.8l-17.5,10.4l1.1,0.9L293.5,63.8z M329.1,32.5h-2.8l-37.1,21.6h2.6L329.1,32.5z
						 M352.6,67.7c-8-7.8-19-12.7-31.1-12.7s-22.9,5-30.8,12.7l30.8,30.8L352.6,67.7z M290.7,130.9c8,7.8,18.8,12.5,30.8,12.5
						s23.1-4.7,31.1-12.5L321.5,100L290.7,130.9z M321.5,144.7h-2.6l-28.3,16.2c0.4,0.2,0.9,0.6,1.3,0.9L321.5,144.7z M301.7,139.9
						c-0.4-0.2-1.1-0.4-1.5-0.6l-7.3,4.1h2.6L301.7,139.9z M326.3,144.7h-2.8L293,162.1c0.4,0.2,1.3,0.4,1.7,0.6L326.3,144.7z
						 M333.6,32.5H331l-37.3,21.6h2.8L333.6,32.5z M330.8,144.7h-2.6l-32.4,18.5c0.4,0.2,0.9,0.4,1.5,0.6L330.8,144.7z M304.3,141
						c-0.4-0.2-1.1-0.4-1.5-0.6l-5.4,3h2.8L304.3,141z M338.3,32.5h-2.8l-37.1,21.6h2.6L338.3,32.5z M335.5,144.7h-2.8l-34.1,19.6
						c0.6,0.2,1.1,0.4,1.7,0.6L335.5,144.7z M340.3,144.7h-2.8l-35.8,20.7c0.6,0.2,1.1,0.2,1.7,0.4L340.3,144.7z M307.1,142.1
						c-0.6-0.2-1.1-0.2-1.7-0.4l-3.2,1.7h2.8L307.1,142.1z M341.6,33.2c-0.6-0.2-1.1-0.2-1.7-0.4L303,54.1h2.8L341.6,33.2z
						 M344.8,144.7h-2.6l-37.3,21.6h2.6L344.8,144.7z M310.1,143.2c-0.6-0.2-1.1-0.4-1.7-0.6l-1.5,0.9h2.6L310.1,143.2z M344.6,34.2
						c-0.6-0.2-1.1-0.4-1.7-0.6l-35.2,20.5h2.6L344.6,34.2z M311.8,54.9h-1.3l-1.1,0.6C310.1,55.4,310.9,55.2,311.8,54.9z
						 M349.6,144.7h-2.8l-37.3,21.6h2.8L349.6,144.7z M309.4,167.1c0.2,0,0.4,0.2,0.6,0.2l0.2-0.2H309.4z M312.2,167.1l-0.6,0.4
						c0.6,0,1.7,0.4,2.4,0.4l1.1-0.9h-2.9V167.1z M312.2,31.2l1.1-0.4C312,31,312.2,31.2,312.2,31.2z M347.4,35.3
						c-0.4-0.2-0.9-0.4-1.5-0.6l-33.6,19.4h2.8L347.4,35.3z M315.7,30.6l-1.5,0.6h2.8l1.7-0.9C317.6,30.4,316.8,30.6,315.7,30.6z
						 M354.1,144.7h-2.6l-37.3,21.6h2.8L354.1,144.7z M317,167.1l-1.5,0.9c0.9,0,1.7,0.2,2.6,0.2l1.7-1.1L317,167.1L317,167.1z
						 M350,36.4c-0.4-0.2-1.1-0.4-1.5-0.6L317,54.1h2.8L350,36.4z M321.5,30.4h-0.9l-1.7,0.9h2.6l1.9-0.9H321.5z M358.8,144.7H356
						l-37.1,21.6h2.6L358.8,144.7z M321.7,167.1l-1.9,1.1c0.6,0,1.1,0.2,1.7,0.2c0.2,0,0.9-0.2,1.1-0.2l1.7-1.1H321.7z M352.6,37.7
						c-0.4-0.2-1.1-0.6-1.5-0.9l-29.3,17.3h2.6L352.6,37.7z M353.2,130.2c7.8-8,12.7-18.8,12.7-30.8s-5-23.1-12.7-31.1l-30.8,31.1
						L353.2,130.2z M325.2,30.4l-1.7,0.9h2.8l1.3-0.6C326.7,30.6,326,30.4,325.2,30.4z M363.6,144.7h-2.8l-37.3,21.6h2.8
						L363.6,144.7z M326.3,167.1l-1.7,1.1c1.1,0,1.9-0.2,3-0.2l1.5-0.9L326.3,167.1L326.3,167.1z M355.2,39
						c-0.4-0.2-1.1-0.6-1.5-0.9l-27.4,16h2.8L355.2,39z M329.3,30.6l-1.1,0.6h2.6l0.6-0.2C330.8,31,329.9,30.6,329.3,30.6z
						 M365.9,146v-1.3h-0.6l-37.1,21.6h2.6L365.9,146z M331,167.1l-1.1,0.6c1.3-0.2,2.4-0.2,3.7-0.4v-0.2L331,167.1L331,167.1z
						 M357.3,40.3c-0.4-0.2-0.9-0.6-1.3-0.9l-25,14.7h2.6L357.3,40.3z M331.4,54.9l0.2,0.2l0.2-0.2H331.4z M331.4,143.4h1.3l0.9-0.4
						C332.9,143.2,332.1,143.2,331.4,143.4z M365.9,148.5V147l-33.2,19.2h2.8L365.9,148.5z M333.8,54.9l-0.6,0.4
						c0.6,0.2,1.1,0.4,1.7,0.6l1.5-1.1L333.8,54.9L333.8,54.9z M365.9,30.4H334c1.7,0.2,3.2,0.4,5,0.9h27v-0.9H365.9z M339,167.1
						c-1.7,0.4-3.2,1.1-5,1.3h31.9v-1.3H339z M353.9,132.4l-4.1,2.4c-3.5,2.8-7.3,5-11.4,6.7l-3.7,1.9h2.8l17.5-10.1L353.9,132.4z
						 M359.7,41.6l-1.3-0.6l-22.9,13.2h2.8L359.7,41.6z M338.3,54.9l-2.2,1.5c0.6,0.2,1.1,0.2,1.7,0.4l3.2-1.9H338.3z M365.9,151.4
						v-1.7l-28.5,16.6h1.3c0.9-0.2,1.9-0.6,2.8-0.9L365.9,151.4z M343.1,54.9c-1.3,0.9-2.8,1.5-4.1,2.4c0.4,0.2,1.1,0.6,1.5,0.9
						l5.2-3.2h-2.6V54.9z M355.6,134.1l-16.2,9.3h2.6l14.7-8.4L355.6,134.1z M361.8,43.1c-0.4-0.2-0.9-0.6-1.3-0.9l-20.3,11.9h2.8
						L361.8,43.1z M347.6,54.9l-6,3.7c0.4,0.2,1.1,0.4,1.5,0.6c2.4-1.5,5-2.8,7.3-4.3H347.6z M342.7,32.5
						c8.6,2.6,16.6,6.7,23.3,12.3V32.5H342.7z M365.9,153.7c-6.7,5.6-14.7,9.9-23.3,12.5h23.3V153.7z M352.4,54.9l-8.4,5
						c0.4,0.2,1.1,0.6,1.5,0.9l9.7-5.8h-2.8V54.9z M357.3,135.8l-13.4,7.5h2.8l11.6-6.7L357.3,135.8z M363.8,44.6
						c-0.4-0.2-0.9-0.6-1.3-0.9L345,54.1h2.6L363.8,44.6z M365.3,152.6l-19.2,11.2C353,161.3,359.7,157.4,365.3,152.6z M357.1,54.9
						l-10.8,6.3c0.4,0.2,0.9,0.6,1.3,0.9l12.1-7.1h-2.6V54.9z M361.6,54.9l-13.2,7.8c0.4,0.2,0.6,0.6,1.1,0.9l14.9-8.6L361.6,54.9
						L361.6,54.9z M359,137.5l-10.4,5.8h2.6l8.8-5L359,137.5z M365.7,46.1c-0.4-0.2-0.6-0.6-1.1-0.9L349.5,54h2.8L365.7,46.1z
						 M359.7,60.6l3.7-3.7l-12.9,7.3c0.4,0.2,0.6,0.9,1.1,1.1L359.7,60.6z M353.2,66.8l3.7-3.7l-4.7,2.8
						C352.6,66.2,352.8,66.4,353.2,66.8z M360.8,139.1l-7.5,4.3h2.8l5.8-3.2L360.8,139.1z M365.9,62.3v-1.5L354,67.5v0.2
						c0.2,0.2,0.6,0.4,0.9,0.9L365.9,62.3z M365.9,122.7l-9.5,5.4c-0.9,0.9-1.5,1.9-2.4,2.8v0.2l11.9-6.7V122.7z M365.9,48.9v-1.7
						l-11.6,6.9h2.6L365.9,48.9z M365.9,125.5l-11,6.3l0.9,1.1l10.1-5.8V125.5z M365.9,65.1v-1.7l-10.4,6c0.2,0.4,0.6,0.6,0.9,1.1
						L365.9,65.1z M365.9,128.1l-9.3,5.4l0.9,1.1l8.4-4.7V128.1z M365.9,59.7V58l-5.4,3.2l-3.7,3.7L365.9,59.7z M365.9,67.7v-1.5
						l-8.8,5c0.2,0.4,0.6,0.6,0.9,1.1L365.9,67.7z M362.5,140.8l-4.5,2.6h2.8l2.6-1.5L362.5,140.8z M365.9,120.1l-6,3.5
						c-0.6,0.9-1.1,1.7-1.7,2.6l7.8-4.5L365.9,120.1L365.9,120.1z M365.9,130.9l-7.5,4.3l0.9,1.1l6.7-3.9v-1.5H365.9z M365.9,70.5
						v-1.7l-7.3,4.3c0.2,0.4,0.4,0.6,0.6,1.1L365.9,70.5z M365.9,51.5V50l-7.1,4.1h2.8L365.9,51.5z M365.9,73.1v-1.5l-6,3.5
						c0.2,0.4,0.4,0.6,0.6,1.1L365.9,73.1z M365.9,133.5l-5.8,3.5l0.9,1.1l5-2.8v-1.8H365.9z M365.9,75.9v-1.7l-5,2.8l0.6,1.3
						L365.9,75.9z M365.9,117.3l-3.9,2.2c-0.4,0.9-0.6,1.7-1.1,2.4l5-2.8V117.3z M365.9,136.3l-4.3,2.4l1.1,1.1l3.2-1.9L365.9,136.3
						L365.9,136.3z M365.9,78.5V77l-3.9,2.2c0.2,0.4,0.4,0.6,0.6,1.1L365.9,78.5z M362.7,143.4h2.4l-0.9-0.9L362.7,143.4z
						 M365.9,114.7l-2.2,1.1c-0.2,0.6-0.6,1.5-0.9,2.2l3-1.7v-1.6H365.9z M365.9,56.9v-1.1l-2.8,2.6L365.9,56.9z M365.9,81.3v-1.7
						l-2.8,1.7c0.2,0.4,0.2,0.6,0.4,1.1L365.9,81.3z M365.9,138.8l-2.6,1.5l1.1,0.9l1.5-0.6V138.8z M365.9,54.1v-1.5l-2.4,1.5H365.9
						z M365.9,83.8v-1.5l-1.9,1.1c0.2,0.4,0.2,0.9,0.4,1.3L365.9,83.8z M365.9,111.9l-1.1,0.6l-0.6,1.9l1.7-0.9V111.9z M365.9,86.6
						v-1.7l-1.1,0.6c0.2,0.4,0.2,0.9,0.4,1.3L365.9,86.6z M365.1,142.1l0.9,0.6v-1.1L365.1,142.1z M365.9,109.3h-0.2
						c-0.2,0.6-0.2,1.1-0.4,1.7l0.6-0.2V109.3z M365.9,89.2v-1.5l-0.4,0.2c0.2,0.4,0.2,0.9,0.2,1.3H365.9z M366.8,32.5v13.4
						c1.3,1.1,2.6,2.2,3.9,3.5l17-16.8h-20.9V32.5z M366.8,47.2v1.1l0.9-0.4C367.5,47.6,367,47.4,366.8,47.2z M368.3,48.5l-1.5,0.9
						v1.5l2.6-1.3C369,49.1,368.8,48.7,368.3,48.5z M366.8,51.9v1.3l3-2.8L366.8,51.9z M370.9,54.9l-4.1,2.4V59l6.9-4.1H370.9z
						 M366.8,54.9v1.3c0.6-0.4,1.5-0.9,2.2-1.3H366.8z M375,55.4l-8.2,4.7v1.5l9.1-5.2C375.7,56,375.2,55.8,375,55.4z M376.5,57.3
						l-9.7,5.4v1.7l10.4-6C376.9,58,376.7,57.7,376.5,57.3z M377.8,59.3l-11,6.3V67l11.9-6.7C378.5,59.9,378,59.7,377.8,59.3z
						 M379.1,61.2l-12.3,6.9v1.7l13.2-7.5C379.8,61.8,379.3,61.6,379.1,61.2z M380.4,63.1l-13.6,7.8v1.5l14.2-8.2
						C380.8,63.8,380.6,63.6,380.4,63.1z M381.7,65.1l-14.9,8.4v1.7l15.5-8.8L381.7,65.1z M382.8,67.2l-16,9.1v1.5l16.6-9.5
						C383.2,67.9,383,67.7,382.8,67.2z M383.8,69.2l-17,9.7v1.7l17.5-10.1C384.1,70,384.1,69.6,383.8,69.2z M384.7,71.3l-17.9,10.4
						v1.5l18.5-10.6L384.7,71.3z M385.6,73.5l-18.8,10.8V86l19.4-11.2L385.6,73.5z M386.4,75.6L366.8,87v1.5l20.3-11.6L386.4,75.6z
						 M387.3,78l-20.5,11.6v1.7l20.9-12.1C387.5,78.9,387.5,78.5,387.3,78z M387.9,80.2l-21.1,12.3V94l21.6-12.3
						C388.2,81.3,388.2,80.6,387.9,80.2z M388.6,82.6l-21.8,12.5v1.7L389,84.1C389,83.6,388.8,83,388.6,82.6z M389.2,84.9
						l-22.4,12.9v1.5l22.6-12.9C389.5,86,389.2,85.4,389.2,84.9z M389.7,87.3l-22.9,13.2v1.7l23.1-13.4
						C389.9,88.4,389.7,87.7,389.7,87.3z M390.1,89.9l-23.3,13.4v1.5l23.3-13.4V89.9z M390.3,92.5l-23.5,13.4v1.7L390.5,94
						C390.5,93.6,390.3,92.9,390.3,92.5z M390.5,95.1l-23.7,13.6v1.5l23.7-13.6V95.1z M390.5,97.6l-23.7,13.6v1.7l23.7-13.8V97.6z
						 M390.5,100.2L366.8,114v1.5l23.7-13.6V100.2z M390.5,103l-23.7,13.6v1.7l23.7-13.6V103z M390.3,105.8l-23.5,13.6v1.5
						l23.3-13.4C390.1,106.9,390.3,106.5,390.3,105.8z M389.9,108.6L366.8,122v1.7l22.9-13.4C389.7,109.7,389.9,109.3,389.9,108.6z
						 M389.5,111.7l-22.6,13.2v1.5l22.4-12.9C389.5,112.7,389.2,112.3,389.5,111.7z M388.8,114.7l-22,12.7v1.7l21.6-12.5
						C388.6,116,388.6,115.3,388.8,114.7z M388.2,117.9l-21.4,12.3v1.5l20.7-11.9L388.2,117.9z M387.1,121.2l-20.3,11.6v1.7
						l19.6-11.2C386.7,122.7,386.9,121.8,387.1,121.2z M385.8,124.6l-19,11v1.5l18.1-10.4C385.1,126.1,385.6,125.3,385.8,124.6z
						 M384.3,128.3l-17.5,9.9v1.7l16.4-9.5C383.6,129.8,383.8,128.9,384.3,128.3z M382.3,131.9l-15.5,9.1v1.5l14.2-8.2
						C381.5,133.5,381.9,132.8,382.3,131.9z M367.7,146l-0.9,0.4v1.5l1.7-0.9L367.7,146z M370,148.3l-0.6-0.6l-2.6,1.3v1.7l2.2-1.3
						L370,148.3z M387.7,166.2l-17-17c-1.3,1.3-2.6,2.4-3.9,3.5v13.6h20.9V166.2z M378.2,138.6c0.6-0.9,1.1-1.7,1.7-2.6l-12.7,7.3
						h2.8L378.2,138.6z M372.8,53c-0.2-0.4-0.9-0.6-1.1-1.1l-3.7,2.2h2.8L372.8,53z M370,144.7l-1.5,0.9l1.1,0.9l3.2-1.7L370,144.7
						L370,144.7z M370.7,50.8l-1.1,1.1l1.5-0.9L370.7,50.8z M370.7,147.7l1.9-1.9l-2.4,1.3L370.7,147.7z M371.6,50.2
						c1.3,1.3,2.4,2.6,3.5,3.9h15.5V32.5h-1.3L371.6,50.2z M375,144.7c-1.1,1.3-2.2,2.4-3.5,3.7l17.7,17.9h1.3v-21.6L375,144.7
						L375,144.7z M374.6,143.4c0.9-0.9,1.7-1.7,2.4-2.8l-5,2.8H374.6z M373.7,54.1l-0.2-0.4l-0.6,0.4H373.7z M376.1,54.9
						c7.3,9.1,12.3,20.1,14.5,31.9V54.9H376.1z M390.5,111.7c-2.2,11.9-7.1,22.6-14.5,31.7h14.5V111.7z M390.5,31.2V31l-0.2,0.2
						H390.5z M390.3,167.1l0.2,0.4v-0.4H390.3z"/>
					<path class="st2" d="M565.9,32.5h-16v66.9v44h16.4v1.3h-16.4v21.6h20.7v0.9h-20.7v32.1h-1.3v-32.1h-23.7v1.3h3.9v0.9h-3.9v30
						H524v-30h-44.4h-44v30h-1.3v-30h-1.5v-0.9h1.5v-1.3h-23.7v32.1h-0.9v-32.1h-12.1v-0.9h12.1v-21.6h-12.1v-1.3h12.1v-44V32.5
						h-14.5v-1.3h14.5V1.9h0.9v29.3h23.7V1.9h1.3v29.3h26.7c5.6-1.5,11.2-2.2,17.3-2.2s11.9,0.6,17.5,2.2h27V1.9h0.9v29.3h23.7V1.9
						h1.3v29.3h16L565.9,32.5L565.9,32.5z M434.3,33.2v-0.6h-1.1l-22.6,12.9V47L434.3,33.2z M431.3,32.5h-2.8l-17.9,10.1v1.7
						L431.3,32.5z M426.6,32.5H424L410.6,40v1.5L426.6,32.5z M422,32.5h-2.8l-8.6,4.7V39L422,32.5z M417.3,32.5h-2.8
						c-1.3,0.6-2.6,1.5-3.9,2.2v1.5L417.3,32.5z M412.5,32.5h-1.9v1.1L412.5,32.5z M434.3,36v-1.5L410.6,48v1.7L434.3,36z
						 M434.3,38.6V37l-23.7,13.8v1.5L434.3,38.6z M434.3,41.4v-1.5l-23.7,13.6v1.7L434.3,41.4z M434.3,43.9v-1.5l-23.7,13.8v1.5
						L434.3,43.9z M431.5,48.5c1.1-0.9,1.7-1.7,2.8-2.6v-0.6l-23.7,13.6v1.7L431.5,48.5z M425.9,54.3c0.9-1.1,1.7-2.2,2.8-3.2
						l-18.1,10.6v1.5L425.9,54.3z M422.2,59.3c0.6-0.9,1.3-1.9,1.9-2.8l-13.6,7.8V66L422.2,59.3z M419.4,63.6
						c0.4-0.9,1.1-1.7,1.5-2.6l-10.4,6v1.5L419.4,63.6z M417.3,67.5c0.4-0.9,0.6-1.5,1.1-2.2l-7.8,4.3v1.7L417.3,67.5z M415.6,71.1
						c0.2-0.6,0.4-1.5,0.9-2.2l-5.8,3.5v1.5L415.6,71.1z M414,74.8c0.2-0.6,0.6-1.5,0.9-2.2l-4.3,2.4v1.7L414,74.8z M413,78l0.6-1.9
						l-3,1.7v1.5L413,78z M411.9,81.3c0.2-0.6,0.4-1.1,0.6-1.7l-1.9,0.9v1.7L411.9,81.3z M411.2,84.5c0.2-0.6,0.2-1.3,0.4-1.9
						l-1.1,0.6v1.5L411.2,84.5z M434.3,85.6l-23.7,13.8c0,0.4,0.2,1.1,0.2,1.5l23.5-13.8V85.6z M410.6,86.9c0-0.4,0.4-0.6,0.4-1.1
						h-0.4V86.9z M425.3,143.4c-7.3-9.1-12.5-19.8-14.7-31.7v31.7H425.3z M434.3,152.6c-3-2.6-5.4-5-8-8h-15.7v21.6h23.7V152.6z
						 M434.3,80.2l-23.5,13.6v1.7l23.5-13.8V80.2z M434.3,83l-23.5,13.6v1.7l23.5-13.8V83z M434.3,88.4L410.8,102v1.5l23.5-13.6
						V88.4z M434.3,91l-23.5,13.6c0,0.4,0.2,1.1,0.2,1.5l23.3-13.6V91z M434.3,77.6L411.2,91c0,0.6-0.2,1.1-0.2,1.7l23.3-13.6V77.6z
						 M434.3,93.8l-23.1,13.4v1.5l23.1-13.4V93.8z M434.3,74.8L411.7,88c0,0.6-0.2,1.1-0.2,1.7l22.9-13.4L434.3,74.8L434.3,74.8z
						 M434.3,96.4l-22.9,13.4c0,0.4,0.2,0.9,0.2,1.3l22.6-13.2L434.3,96.4L434.3,96.4z M434.3,72.2l-22.2,12.7
						c-0.2,0.6,0,1.3-0.2,1.9l22.4-13.2L434.3,72.2L434.3,72.2z M434.3,99.4v-0.2l-22.4,12.9c0,0.4,0.2,1.1,0.2,1.5l22.2-12.9
						L434.3,99.4L434.3,99.4z M434.3,101.7l-22,12.7c0,0.4,0.2,1.1,0.4,1.5l21.6-12.7V101.7z M434.3,69.4L413,81.9
						c-0.2,0.6-0.2,1.1-0.4,1.7l21.8-12.7v-1.5H434.3z M434.3,104.6L413,116.8c0.2,0.4,0.2,1.1,0.4,1.5l20.9-12.3V104.6z
						 M434.3,66.8l-20.5,11.9l-0.6,1.9l21.1-12.3V66.8z M434.3,107.1l-20.7,12.1c0.2,0.4,0.2,0.9,0.4,1.3l20.3-11.9L434.3,107.1
						L434.3,107.1z M434.3,64l-19.4,11.2c-0.2,0.6-0.4,1.5-0.6,2.2l20.1-11.9V64H434.3z M434.3,109.9l-20.1,11.6l0.6,1.3l19.4-11.4
						v-1.5H434.3z M434.3,112.5l-19.2,11.2l0.6,1.3l18.5-11v-1.5H434.3z M434.3,61.4l-17.9,10.4c-0.2,0.6-0.6,1.5-0.9,2.2l18.8-11
						V61.4z M434.3,115.3L416,125.9l0.6,1.3l17.7-10.4L434.3,115.3L434.3,115.3z M434.3,58.6l-16.2,9.5c-0.4,0.6-0.6,1.5-1.1,2.2
						l17.3-10.1L434.3,58.6L434.3,58.6z M434.3,117.9L417,128c0.2,0.4,0.2,0.9,0.4,1.3l16.8-9.9v-1.5H434.3z M434.3,120.7l-16.4,9.5
						c0.2,0.4,0.4,0.6,0.6,1.1l15.7-9.1L434.3,120.7L434.3,120.7z M434.3,56l-14,8.2c-0.4,0.9-0.9,1.3-1.3,2.2l15.3-8.8V56z
						 M434.3,123.3l-15.3,8.8l0.6,1.3l14.7-8.6L434.3,123.3L434.3,123.3z M434.3,126.1l-14,8.2c0.2,0.4,0.4,0.6,0.6,1.1l13.4-7.8
						V126.1z M434.3,53.2l-11.2,6.7c-0.6,0.9-1.1,1.5-1.7,2.4l12.9-7.5L434.3,53.2L434.3,53.2z M434.3,128.7l-12.9,7.5
						c0.2,0.4,0.6,0.6,0.9,1.1l12.1-7.1v-1.5H434.3z M434.3,131.5l-11.6,6.7c0.2,0.4,0.6,0.6,0.9,1.1l10.8-6.3L434.3,131.5
						L434.3,131.5z M434.3,134.1l-10.1,6c0.2,0.4,0.4,0.6,0.6,1.1l9.5-5.6V134.1z M434.3,50.6l-7.5,4.3c-0.9,0.9-1.7,1.9-2.4,3
						l9.9-5.8V50.6z M434.3,136.9l-8.8,5.2c0.2,0.4,0.6,0.6,0.9,1.1l8-4.7v-1.6H434.3z M434.3,139.5l-6.7,3.9h2.6l4.1-2.4V139.5z
						 M427.6,144.7l0.2,0.2l0.6-0.2H427.6z M430.4,144.7l-1.9,0.9c0.2,0.4,0.9,0.6,1.1,1.1l3.5-1.9h-2.7V144.7z M434.3,47.8
						l-1.9,1.3c-1.3,1.1-2.6,2.4-3.7,3.7l5.6-3.5V47.8z M434.3,146.4v-1.5l-4.1,2.4l1.1,1.1L434.3,146.4z M434.3,149.2v-1.5L432,149
						c0.4,0.4,0.6,0.9,1.1,1.1L434.3,149.2z M432.2,143.4h2.2v-1.1L432.2,143.4z M434.3,151.4v-1.1l-0.6,0.4L434.3,151.4z
						 M496.9,32.5h-34.3c-10.1,2.6-19.2,7.3-27,13.8v43.1c4.5-20.3,22.4-35.4,44-35.4s39.9,15.1,44.4,35.4V46.3
						C516.3,39.8,507,35.1,496.9,32.5z M435.6,44.8c6.7-5.6,14.5-9.7,23.1-12.3h-23.1V44.8z M479.6,54.9c-24.4,0-44,20.1-44,44.4
						s19.6,44,44,44s44.4-19.6,44.4-44S504,54.9,479.6,54.9z M435.6,109.3v1.5l0.2-0.2C435.6,110.2,435.6,109.7,435.6,109.3z
						 M436,111.7l-0.4,0.2v1.7l0.9-0.6C436.3,112.5,436.3,112.1,436,111.7z M436.9,113.8l-1.3,0.9v1.5l1.7-1.1
						C437.1,114.7,437.1,114.3,436.9,113.8z M437.6,116l-1.9,1.3v1.7l2.6-1.7L437.6,116z M438.6,118.1l-3,1.9v1.5l3.7-2.2
						L438.6,118.1z M439.7,120.3l-4.1,2.4v1.7l4.7-2.8L439.7,120.3z M440.8,122.5l-5.2,3v1.5l5.8-3.5
						C441.2,123.1,441,122.9,440.8,122.5z M442.1,124.4l-6.5,3.7v1.7l7.1-4.3C442.5,125,442.3,124.8,442.1,124.4z M443.4,126.3
						l-7.8,4.5v1.5l8.6-5C444,127,443.6,126.8,443.4,126.3z M444.9,128.1l-9.3,5.4v1.7l10.1-6C445.5,128.7,445.1,128.5,444.9,128.1z
						 M446.4,130l-10.8,6.3v1.5l11.6-6.9C446.8,130.4,446.6,130.4,446.4,130z M448.1,131.7l-12.5,7.1v1.7l13.4-8
						C448.6,132.4,448.6,132.2,448.1,131.7z M449.9,133.2l-14.2,8.4v1.5l15.3-8.8C450.5,134.1,450.3,133.5,449.9,133.2z
						 M451.8,144.7H449l-13.4,7.8c0.4,0.2,0.6,0.6,1.1,0.9L451.8,144.7z M447,144.7h-2.6l-8.8,5v1.7L447,144.7z M442.5,144.7h-2.8
						l-4.1,2.4v1.5L442.5,144.7z M437.8,144.7h-2.2v1.3L437.8,144.7z M458.7,166.2c-8.6-2.6-16.4-6.9-23.1-12.5v12.5H458.7z
						 M435.6,168.4h31.7c-1.7-0.2-3.2-0.9-5-1.3h-26.7V168.4z M452.9,135.8c-0.4-0.2-0.6-0.6-1.1-0.9l-14.9,8.4h2.8L452.9,135.8z
						 M456.3,144.7h-2.6l-16.2,9.3c0.4,0.2,0.6,0.6,1.1,0.9L456.3,144.7z M461.1,144.7h-2.8l-18.8,10.8c0.4,0.2,0.9,0.6,1.3,0.9
						L461.1,144.7z M455,137.3c-0.4-0.2-0.9-0.6-1.3-0.9l-12.1,6.9h2.6L455,137.3z M465.6,144.7H463L441.7,157l1.3,0.6L465.6,144.7z
						 M470.3,144.7h-2.8L444,158.3c0.4,0.2,0.9,0.6,1.3,0.9L470.3,144.7z M457.4,138.6c-0.4-0.2-1.1-0.6-1.5-0.9l-9.7,5.6h2.8
						L457.4,138.6z M475.1,144.7h-2.8l-26.1,14.9c0.4,0.2,1.1,0.6,1.5,0.9L475.1,144.7z M479.6,144.7H477l-28.3,16.2
						c0.4,0.2,0.9,0.6,1.3,0.9L479.6,144.7z M459.8,139.9c-0.4-0.2-1.1-0.4-1.5-0.6l-7.3,4.1h2.6L459.8,139.9z M484.4,144.7h-2.8
						l-30.4,17.5c0.4,0.2,1.3,0.4,1.7,0.6L484.4,144.7z M488.9,144.7h-2.6L454,163.2c0.4,0.2,0.9,0.4,1.5,0.6L488.9,144.7z
						 M462.4,141c-0.4-0.2-1.1-0.4-1.5-0.6l-5.4,3h2.8L462.4,141z M493.6,144.7h-2.8l-34.1,19.6c0.6,0.2,1.1,0.4,1.7,0.6
						L493.6,144.7z M498.4,144.7h-2.8l-35.8,20.7c0.6,0.2,1.1,0.2,1.7,0.4L498.4,144.7z M465.2,142.1c-0.6-0.2-1.1-0.2-1.7-0.4
						l-3.2,1.7h2.8L465.2,142.1z M502.9,144.7h-2.6L463,166.2h2.6L502.9,144.7z M468.2,143.2c-0.6-0.2-1.1-0.4-1.7-0.6l-1.5,0.9h2.6
						L468.2,143.2z M479.6,30.4c-4.1,0-8.2,0.2-12.1,0.9h24.4C488,30.6,483.7,30.4,479.6,30.4z M507.7,144.7h-2.8l-37.3,21.6h2.8
						L507.7,144.7z M467.5,167.1c0.2,0,0.4,0.2,0.6,0.2l0.2-0.2H467.5z M470.3,167.1l-0.6,0.4c0.6,0,1.7,0.4,2.4,0.4l1.1-0.9h-2.9
						V167.1z M512.2,144.7h-2.6l-37.3,21.6h2.8L512.2,144.7z M475.1,167.1l-1.5,0.9c0.9,0,1.7,0.2,2.6,0.2l1.7-1.1L475.1,167.1
						L475.1,167.1z M516.9,144.7h-2.8L477,166.2h2.6L516.9,144.7z M479.8,167.1l-1.9,1.1c0.6,0,1.1,0.2,1.7,0.2
						c0.2,0,0.9-0.2,1.1-0.2l1.7-1.1H479.8z M521.7,144.7h-2.8l-37.3,21.6h2.8L521.7,144.7z M484.4,167.1l-1.7,1.1
						c1.1,0,1.9-0.2,3-0.2l1.5-0.9L484.4,167.1L484.4,167.1z M524,146v-1.3h-0.6l-37.1,21.6h2.6L524,146z M489.1,167.1l-1.1,0.6
						c1.3-0.2,2.4-0.2,3.7-0.4v-0.2L489.1,167.1L489.1,167.1z M489.5,143.4h1.3l0.9-0.4C491,143.2,490.2,143.2,489.5,143.4z
						 M524,148.5V147l-33.2,19.2h2.8L524,148.5z M497.1,167.1c-1.7,0.4-3.2,1.1-5,1.3H524v-1.3H497.1z M524,125.5l-16.2,9.3
						c-3.5,2.8-7.3,5-11.4,6.7l-3.7,1.9h2.8L524,127V125.5z M524,151.4v-1.7l-28.5,16.6h1.3c0.9-0.2,1.9-0.6,2.8-0.9L524,151.4z
						 M524,128.1l-26.5,15.3h2.6l23.9-13.6V128.1z M500.8,32.5c8.6,2.6,16.6,6.7,23.3,12.3V32.5H500.8z M524,153.7
						c-6.7,5.6-14.7,9.9-23.3,12.5H524V153.7z M524,130.9l-22,12.5h2.8l19.2-11V130.9z M523.4,152.6l-19.2,11.2
						C511.1,161.3,517.8,157.4,523.4,152.6z M524,133.5l-17.3,9.9h2.6l14.7-8.2V133.5z M524,136.3l-12.7,7.1h2.8l9.9-5.6V136.3z
						 M524,122.7l-9.5,5.4c-0.9,1.1-1.9,2.4-3,3.5l12.5-7.1V122.7z M524,138.8l-8,4.5h2.8l5.2-2.8V138.8z M524,120.1l-6,3.5
						c-0.6,0.9-1.1,1.7-1.7,2.6l7.8-4.5L524,120.1L524,120.1z M524,117.3l-3.9,2.2c-0.4,0.9-0.6,1.7-1.1,2.4l5-2.8V117.3z
						 M524,141.6l-3.2,1.7h2.6l0.6-0.2L524,141.6L524,141.6z M524,114.7l-2.2,1.1c-0.2,0.6-0.6,1.5-0.9,2.2l3-1.7v-1.6H524z
						 M524,111.9l-1.1,0.6l-0.6,1.9l1.7-0.9L524,111.9L524,111.9z M524,109.3h-0.2c-0.2,0.6-0.2,1.1-0.4,1.7l0.6-0.2L524,109.3
						L524,109.3z M545,32.5l-20.1,11.4v1.5l22.6-12.9H545z M540.2,32.5l-15.3,8.6v1.7L543,32.5H540.2z M535.7,32.5l-10.8,6V40
						l13.4-7.5H535.7z M530.9,32.5l-6,3.2v1.7l8.8-5L530.9,32.5L530.9,32.5z M526.2,32.5l-1.3,0.6v1.5l4.1-2.2h-2.8V32.5z
						 M524.9,47.2v1.1l0.9-0.4C525.6,47.6,525.1,47.4,524.9,47.2z M526.4,48.5l-1.5,0.9v1.5l2.6-1.3
						C527.1,49.1,526.9,48.7,526.4,48.5z M528.1,50.2l-3.2,1.7v1.7l4.3-2.6C528.8,50.6,528.6,50.6,528.1,50.2z M529.9,51.9l-5,2.8
						v1.5l6-3.2C530.7,52.6,530.1,52.4,529.9,51.9z M531.6,53.6l-6.7,3.7V59l7.5-4.3C532.2,54.3,531.8,54.1,531.6,53.6z M533.1,55.4
						l-8.2,4.7v1.5l9.1-5.2C533.8,56,533.3,55.8,533.1,55.4z M534.6,57.3c-3.2,1.7-6.5,3.7-9.7,5.4v1.7l10.4-6
						C535,58,534.8,57.7,534.6,57.3z M535.9,59.3l-11,6.3V67l11.9-6.7C536.6,59.9,536.1,59.7,535.9,59.3z M537.2,61.2l-12.3,6.9v1.7
						l13.2-7.5C537.9,61.8,537.4,61.6,537.2,61.2z M538.5,63.1l-13.6,7.8v1.5l14.2-8.2C538.9,63.8,538.7,63.6,538.5,63.1z
						 M539.8,65.1l-14.9,8.4v1.7l15.5-8.8L539.8,65.1z M540.9,67.2l-16,9.1v1.5l16.6-9.5C541.3,67.9,541.1,67.7,540.9,67.2z
						 M541.9,69.2l-17,9.7v1.7l17.5-10.1C542.2,70,542.2,69.6,541.9,69.2z M542.8,71.3l-17.9,10.4v1.5l18.5-10.6L542.8,71.3z
						 M543.7,73.5l-18.8,10.8V86l19.4-11.2L543.7,73.5z M544.5,75.6L524.9,87v1.5l20.3-11.6L544.5,75.6z M545.4,78l-20.5,11.6v1.7
						l20.9-12.1C545.6,78.9,545.6,78.5,545.4,78z M546,80.2l-21.1,12.3V94l21.6-12.3C546.3,81.3,546.3,80.6,546,80.2z M546.7,82.6
						l-21.8,12.5v1.7l22.2-12.7C547.1,83.6,546.9,83,546.7,82.6z M547.3,84.9l-22.4,12.9v1.5l22.6-12.9
						C547.6,86,547.3,85.4,547.3,84.9z M547.8,87.3l-22.9,13.2v1.7L548,88.8C548,88.4,547.8,87.7,547.8,87.3z M548.2,89.9
						l-23.3,13.4v1.5l23.3-13.4V89.9z M548.4,92.5l-23.5,13.4v1.7L548.6,94C548.6,93.6,548.4,92.9,548.4,92.5z M548.6,95.1
						l-23.7,13.6v1.5l23.7-13.6V95.1z M548.6,97.6l-23.7,13.6v1.7l23.7-13.8V97.6z M548.6,100.2L524.9,114v1.5l23.7-13.6
						L548.6,100.2L548.6,100.2z M548.6,103l-23.7,13.6v1.7l23.7-13.6V103z M548.4,105.8l-23.5,13.6v1.5l23.3-13.4
						C548.2,106.9,548.4,106.5,548.4,105.8z M548,108.6L524.9,122v1.7l22.9-13.4C547.8,109.7,548,109.3,548,108.6z M547.6,111.7
						L525,124.9v1.5l22.4-12.9C547.6,112.7,547.3,112.3,547.6,111.7z M546.9,114.7l-22,12.7v1.7l21.6-12.5
						C546.7,116,546.7,115.3,546.9,114.7z M546.3,117.9l-21.4,12.3v1.5l20.7-11.9L546.3,117.9z M545.2,121.2l-20.3,11.6v1.7
						l19.6-11.2C544.8,122.7,545,121.8,545.2,121.2z M543.9,124.6l-19,11v1.5l18.1-10.4C543.2,126.1,543.7,125.3,543.9,124.6z
						 M542.4,128.3l-17.5,9.9v1.7l16.4-9.5C541.7,129.8,541.9,128.9,542.4,128.3z M540.4,131.9l-15.5,9.1v1.5l14.2-8.2
						C539.6,133.5,540,132.8,540.4,131.9z M533.1,144.7c-2.6,3-5.2,5.4-8.2,8v13.6h23.7v-21.6H533.1z M530.9,144.7h-2.8l-3.2,1.7
						v1.5L530.9,144.7z M526.2,144.7h-1.3v0.6L526.2,144.7z M527.1,149.4c1.3-1.1,2.6-2.4,3.7-3.7l-5.8,3.2v1.7L527.1,149.4z
						 M536.3,138.6c0.6-0.9,1.1-1.7,1.7-2.6l-12.7,7.3h2.8L536.3,138.6z M548.6,34.5V33l-23.1,13.4c0.4,0.2,0.6,0.6,1.1,0.9
						L548.6,34.5z M548.6,37.3v-1.7l-21.1,12.3c0.4,0.2,0.4,0.6,0.9,1.1L548.6,37.3z M548.6,39.8v-1.5l-19.4,11.2
						c0.4,0.4,0.4,0.6,0.9,1.1L548.6,39.8z M532.7,143.4c0.9-0.9,1.7-1.7,2.4-2.8l-5,2.8H532.7z M548.6,42.6v-1.7l-17.7,10.4
						c0.2,0.4,0.6,0.6,0.9,1.1L548.6,42.6z M548.6,45.2v-1.5L532.5,53c0.2,0.4,0.6,0.6,0.9,1.1L548.6,45.2z M548.6,48v-1.7L534,54.9
						c0.2,0.4,0.6,0.6,0.9,1.1L548.6,48z M548.6,111.7c-2.2,11.9-7.1,22.6-14.5,31.7h14.5V111.7z M548.6,50.6v-1.5l-13.2,7.5
						c0.2,0.4,0.6,0.9,0.9,1.3L548.6,50.6z M548.6,53.4v-1.7l-11.9,6.9c0.2,0.4,0.6,0.6,0.9,1.1L548.6,53.4z M548.6,56v-1.5l-10.6,6
						c0.2,0.4,0.6,0.6,0.9,1.1L548.6,56z M548.6,58.8v-1.7l-9.3,5.4c0.2,0.4,0.6,0.9,0.9,1.3L548.6,58.8z M548.6,61.4v-1.5l-8,4.7
						c0.2,0.4,0.4,0.6,0.6,1.1L548.6,61.4z M548.6,64.2v-1.7l-6.9,4.1l0.6,1.3L548.6,64.2z M548.6,66.8v-1.5l-5.8,3.5
						c0.2,0.4,0.4,0.6,0.6,1.1L548.6,66.8z M548.6,69.6v-1.7l-4.7,3c0.2,0.4,0.2,0.6,0.4,1.1L548.6,69.6z M548.6,72.2v-1.5l-3.9,2.4
						c0.2,0.4,0.2,0.6,0.4,1.1L548.6,72.2z M548.6,75v-1.7l-3,1.9c0.2,0.4,0.2,0.9,0.4,1.3L548.6,75z M548.6,77.6v-1.5l-2.4,1.3
						c0.2,0.4,0.2,0.9,0.4,1.3L548.6,77.6z M548.6,80.4v-1.7l-1.5,1.1c0.2,0.4,0,0.9,0.2,1.3L548.6,80.4z M548.6,83v-1.5l-0.9,0.6
						c0.2,0.4,0.2,0.9,0.2,1.3L548.6,83z M548.6,84.1l-0.4,0.4c0,0.4,0.4,0.9,0.4,1.3V84.1z"/>
					<path class="st2" d="M698.1,32.5h-11.6v21.6h11.6V55h-11.6v19.4h-1.3V54.9h-45.3v111.3h39.3v0.9h-39.3v32.1H639v-32.1h-21.6
						v32.1h-1.3v-32.1H578v-0.9h38.2V54.9h-45.3v19.4H570V54.9h-16.6V54H570V32.5h-16.6v-1.3H570V1.5h0.9v29.8h45.3V1.5h1.3v29.8
						H639V1.5h0.9v29.8h45.3V1.5h1.3v29.8h11.6V32.5z M605.4,32.5l-34.5,19.8v1.5L608,32.5H605.4z M600.6,32.5l-29.8,17V51
						l32.6-18.5H600.6z M595.9,32.5l-25,14.5v1.5l27.8-16H595.9z M591.3,32.5l-20.5,11.6v1.5l23.1-13.2h-2.6V32.5z M586.6,32.5
						l-15.7,9.1v1.5l18.5-10.6H586.6z M582.1,32.5l-11.2,6.3v1.5l13.8-7.8H582.1z M577.3,32.5l-6.5,3.7v1.5l9.3-5.2H577.3z
						 M572.6,32.5l-1.7,0.9v1.5l4.5-2.4H572.6z M612.7,32.5h-2.8l-37.3,21.6h2.8L612.7,32.5z M616.1,32.9v-0.4h-1.5l-37.3,21.6h2.8
						L616.1,32.9z M616.1,35.7V34L582,54.1h2.6L616.1,35.7z M616.1,38.3v-1.5l-29.5,17.3h2.8L616.1,38.3z M616.1,41.1v-1.7
						l-24.8,14.7h2.6L616.1,41.1z M616.1,43.7v-1.5l-20.3,11.9h2.8L616.1,43.7z M616.1,46.5v-1.7l-15.5,9.3h2.8L616.1,46.5z
						 M616.1,49.1v-1.5l-10.8,6.5h2.6L616.1,49.1z M616.1,51.9v-1.7l-6.3,3.9h2.8L616.1,51.9z M616.1,54.1V53l-1.5,1.1H616.1z
						 M639,32.5h-1.1l-20.5,11.9v1.5L639,33.4V32.5z M633.2,32.5l-15.7,9.1v1.5L636,32.5H633.2z M628.4,32.5l-11,6.5v1.5l13.8-8
						H628.4z M623.9,32.5l-6.5,3.7v1.5l9.1-5.2H623.9z M619.2,32.5l-1.7,1.1v1.5l4.5-2.6H619.2z M639,34.5L617.4,47v1.5L639,36V34.5
						z M639,37.3l-21.6,12.5v1.5L639,38.8V37.3z M639,39.8l-21.6,12.5v1.5L639,41.4V39.8z M638.8,54.9H636l-18.5,11v1.5L638.8,54.9z
						 M634,54.9h-2.8l-13.8,8.2v1.5L634,54.9z M629.3,54.9h-2.6l-9.3,5.6V62L629.3,54.9z M624.8,54.9H622l-4.5,2.8v1.5L624.8,54.9z
						 M620,54.9h-2.6v0.2v1.5C618.3,56.2,619.2,55.4,620,54.9z M639,57.5V56l-21.6,12.5V70L639,57.5z M639,60.3v-1.5l-21.6,12.5v1.5
						L639,60.3z M639,62.9v-1.5l-21.6,12.5v1.5L639,62.9z M639,65.7v-1.5l-21.6,12.5v1.5L639,65.7z M639,68.3v-1.5l-21.6,12.5v1.5
						L639,68.3z M639,71.1v-1.5l-21.6,12.5v1.5L639,71.1z M639,73.7v-1.5l-21.6,12.5v1.5L639,73.7z M639,76.5V75l-21.6,12.5V89
						L639,76.5z M639,79.1v-1.5l-21.6,12.5v1.5L639,79.1z M639,81.9v-1.5l-21.6,12.5v1.5L639,81.9z M639,84.5V83l-21.6,12.5V97
						L639,84.5z M639,87.3v-1.5l-21.6,12.5v1.5L639,87.3z M639,89.9v-1.5l-21.6,12.5v1.5L639,89.9z M639,92.7v-1.5l-21.6,12.5v1.5
						L639,92.7z M639,95.3v-1.5l-21.6,12.5v1.5L639,95.3z M639,98.1v-1.5l-21.6,12.5v1.5L639,98.1z M639,100.7v-1.5l-21.6,12.5v1.5
						L639,100.7z M639,103.5V102l-21.6,12.5v1.5L639,103.5z M639,106.1v-1.5l-21.6,12.5v1.5L639,106.1z M639,108.9v-1.5l-21.6,12.5
						v1.5L639,108.9z M639,111.5V110l-21.6,12.5v1.5L639,111.5z M639,114.3v-1.5l-21.6,12.5v1.5L639,114.3z M639,116.8v-1.5
						l-21.6,12.5v1.5L639,116.8z M639,119.6v-1.5l-21.6,12.5v1.5L639,119.6z M639,122.2v-1.5l-21.6,12.5v1.5L639,122.2z M639,125
						v-1.5L617.4,136v1.5L639,125z M639,127.6v-1.5l-21.6,12.5v1.5L639,127.6z M639,130.4v-1.5l-21.6,12.5v1.5L639,130.4z M639,133
						v-1.5L617.4,144v1.5L639,133z M639,135.8v-1.5l-21.6,12.5v1.5L639,135.8z M639,138.4v-1.5l-21.6,12.5v1.5L639,138.4z
						 M639,141.2v-1.5l-21.6,12.5v1.5L639,141.2z M639,143.8v-1.5l-21.6,12.5v1.5L639,143.8z M639,146.6v-1.5l-21.6,12.5v1.5
						L639,146.6z M639,149.2v-1.5l-21.6,12.5v1.5L639,149.2z M639,152v-1.5L617.4,163v1.5L639,152z M639,154.6v-1.5l-21.6,12.5v0.6
						h1.7L639,154.6z M639,44.2v-1.5l-19.8,11.4h2.8L639,44.2z M639,157.4v-1.5l-17.9,10.4h2.6L639,157.4z M639,46.7v-1.5L623.9,54
						h2.6L639,46.7z M639,160v-1.5l-13.4,7.8h2.8L639,160z M639,49.6V48l-10.6,6h2.8L639,49.6z M639,162.8v-1.5l-8.6,5h2.8
						L639,162.8z M639,52.1v-1.5l-5.8,3.5h2.8L639,52.1z M639,165.4v-1.5l-3.9,2.4h2.6L639,165.4z M639,54.1v-0.6l-1.1,0.6H639z
						 M675,32.5l-35.2,20.3v1.3h0.6l37.3-21.6H675z M670.5,32.5L639.9,50v1.7l33.2-19.2H670.5z M665.8,32.5l-25.9,14.9v1.5
						l28.7-16.4H665.8z M661.2,32.5l-21.4,12.1v1.7l23.9-13.8H661.2z M656.5,32.5L639.9,42v1.5l19.4-11H656.5z M651.7,32.5
						l-11.9,6.7v1.7l14.7-8.4H651.7z M647.2,32.5l-7.3,4.1v1.5l9.9-5.6H647.2z M642.5,32.5l-2.6,1.3v1.7l5.4-3H642.5z M639.9,32.5
						v0.2l0.6-0.2H639.9z M679.8,32.5l-37.3,21.6h2.8l37.1-21.6H679.8z M685.2,32.5h-0.9l-37.1,21.6h2.6l35.4-20.7V32.5z
						 M685.2,34.7l-33.4,19.4h2.8l30.6-17.9L685.2,34.7L685.2,34.7z M685.2,37.3l-28.7,16.8h2.8l25.9-15.3V37.3z M685.2,40.1
						l-23.9,14h2.6l21.4-12.5L685.2,40.1L685.2,40.1z M685.2,42.6L665.8,54h2.8l16.6-9.9L685.2,42.6L685.2,42.6z M685.2,45.5
						l-14.7,8.6h2.6l12.1-7.1L685.2,45.5L685.2,45.5z M685.2,48l-10.1,6h2.8l7.3-4.5V48z M685.2,50.8l-5.4,3.2h2.6l2.8-1.7
						L685.2,50.8L685.2,50.8z M684.3,54.1h0.9v-0.6L684.3,54.1z"/>
				</g>
			</g>
		</g>
	</g>
</g>
</svg>
