<?xml version="1.0" encoding="utf-8"?>
<!-- Generator: Adobe Illustrator 21.0.0, SVG Export Plug-In . SVG Version: 6.00 Build 0)  -->
<svg version="1.1" id="Layer_1" xmlns="http://www.w3.org/2000/svg" xmlns:xlink="http://www.w3.org/1999/xlink" x="0px" y="0px"
	 viewBox="0 0 744 232" style="enable-background:new 0 0 744 232;" xml:space="preserve">
<style type="text/css">
	.st0{clip-path:url(#SVGID_2_);}
	.st1{fill:#CECECE;}
</style>
<g>
	<g>
		<defs>
			<rect id="SVGID_1_" y="-1" width="743.5" height="232.5"/>
		</defs>
		<clipPath id="SVGID_2_">
			<use xlink:href="#SVGID_1_"  style="overflow:visible;"/>
		</clipPath>
		<g class="st0">
			<g>
				<path class="st1" d="M142.7,103.4h-2v25.2h11.1v1h-11.1v15.7c0,1.3,0.3,2.3,0.3,3.5c0,1.3-0.3,2-0.3,3.3v15.4h19.2v1.5h-19.2
					v25.2h19.2v1h-19.2v37.6h-1v-37.6h-25.2v37.6H113v-37.6H94.3h-6.6v37.6h-1v-37.6H48.8v37.6h-1.5v-37.6H22.1v37.6h-1v-37.6H-0.6
					v-1h21.7V169H-0.6v-1.5h21.7v-37.9H4.4v-1h16.7v-25.2H1.6v-1.5H21V83.2V64H1.6v-1H21V37.7H1.6v-1.5H21V1.9h1v34.3h25.2V1.9h1.5
					v34.3h18.7h19.2V1.9h1v34.3H113V1.9h1.5v34.3h25.2V1.9h1v34.3h13.9v1.5h-13.9V63h13.9v1h-13.9v37.9h2V103.4z M47.3,37.7H46
					L22,51.3v1.8l25.2-14.6L47.3,37.7L47.3,37.7z M40.5,37.7L22.1,48.3v1.8l21.7-12.4C43.8,37.7,40.5,37.7,40.5,37.7z M35.2,37.7
					c-4.3,2.5-8.8,4.8-13.1,7.3v1.8l16.2-9.1C38.3,37.7,35.2,37.7,35.2,37.7z M29.7,37.7L22.1,42v1.8L33,37.7H29.7z M24.1,37.7l-2,1
					v1.8l5.3-2.8H24.1z M47.3,41v-1L22.1,54.7v1.8L37,47.8C40,45.1,43.5,42.8,47.3,41z M33.7,51.1l-11.6,6.6v1.8l8.3-4.8
					C31.4,53.4,32.7,52.4,33.7,51.1z M28.9,56.9l-6.8,4v1.8l5-2.8C27.6,58.9,28.1,57.9,28.9,56.9z M22.1,64v1.8c1-0.5,1.8-1,2.8-1.5
					V64H22.1z M23.4,68.3l0.8-2.3l-2,1.3V69L23.4,68.3z M47.3,70.1v-1.8L22.1,82.9v0.3c0,0.5,0.3,1,0.3,1.5L47.3,70.1z M22.3,72.1
					c0.3-0.8,0.3-1.3,0.5-2L22,70.4v1.8h0.3V72.1z M22.1,93.8v0.5h0.3C22.3,94,22.1,94,22.1,93.8z M22.6,95.3l-0.5,0.3v1.8l1-0.5
					C22.8,96.3,22.8,95.8,22.6,95.3z M23.4,98.1l-1.3,0.8v1.8l1.8-1C23.6,99.1,23.6,98.6,23.4,98.1z M22.1,101.9h2.8
					c-0.3-0.5-0.3-0.8-0.5-1.3L22.1,101.9z M26.1,104.6c-0.3-0.5-0.3-0.8-0.5-1.3h-0.3l-3.3,1.8v1.8L26.1,104.6z M22.1,103.4v0.3
					l1-0.3H22.1z M27.6,106.9c-0.3-0.5-0.8-0.8-1-1.3l-4.5,2.5v1.8L27.6,106.9z M28.9,109.2c-0.3-0.5-0.5-0.8-0.8-1.3l-6.1,3.5v1.8
					L28.9,109.2z M30.7,111.4c-0.3-0.5-0.8-0.8-1-1.3l-7.6,4.3v1.8L30.7,111.4z M32.4,113.7c-0.3-0.5-0.8-0.8-1-1.3l-9.3,5.3v1.8
					L32.4,113.7z M34.2,115.7c-0.5-0.5-0.8-0.8-1-1.3l-11.1,6.3v1.8L34.2,115.7z M36.2,117.8c-0.5-0.3-0.5-0.8-1-1.3l-13.1,7.6v1.8
					L36.2,117.8z M38.5,119.5c-0.5-0.3-0.8-0.8-1.3-1l-15.1,8.6v1.5h1L38.5,119.5z M47.3,129.6h-2.5L22.1,143v1.8l25.2-14.6
					C47.3,130.2,47.3,129.6,47.3,129.6z M39.5,129.6l-17.4,10.1v1.8l20.4-11.9L39.5,129.6L39.5,129.6z M34,129.6l-11.9,7.1v1.8
					l15.1-8.8H34V129.6z M28.7,129.6l-6.6,3.8v1.8l9.6-5.6H28.7z M23.1,129.6l-1,0.8v1.8l4.3-2.5h-3.3V129.6z M47.3,131.4L22.1,146
					v1.8l25.2-14.6C47.3,133.2,47.3,131.4,47.3,131.4z M47.3,134.7l-25.2,14.6v1.8l25.2-14.6V134.7z M47.3,137.7l-25.2,14.6v1.8
					l25.2-14.6V137.7z M47.3,141l-25.2,14.6v1.8l25.2-14.6V141z M47.3,144l-25.2,14.6v1.8l25.2-14.6V144z M47.3,147.3l-25.2,14.6
					v1.8l25.2-14.6V147.3z M47.3,150.3L22.1,165v1.8l25.2-14.6C47.3,152.2,47.3,150.3,47.3,150.3z M45.8,169h-3l-20.7,11.9v1.8
					L45.8,169z M40.5,169h-3.3l-15.1,8.6v1.8L40.5,169z M35,169h-3l-9.8,5.6v1.8L35,169z M29.7,169h-3.3l-4.3,2.3v1.8L29.7,169z
					 M24.1,169h-2v1L24.1,169z M47.3,171v-1.8l-25.2,14.6v1.8L47.3,171z M47.3,174.3v-1.8l-25.2,14.6v1.8L47.3,174.3z M47.3,177.3
					v-1.8l-25.2,14.6v1.8L47.3,177.3z M47.3,180.6v-1.8l-25.2,14.6v0.8h2L47.3,180.6z M47.1,64h-3.3L22.6,76.4c0,0.8-0.3,1.3-0.3,2
					L47.1,64z M47.3,67v-1.8l-25,14.4v2L47.3,67z M47.3,73.3v-1.8L22.3,86v1.8L47.3,73.3z M47.3,76.4v-1.8L22.6,89
					c0,0.5,0.3,1.3,0.3,1.8L47.3,76.4z M41.5,64h-3l-15.1,8.8c-0.3,0.8-0.3,1.3-0.5,2L41.5,64z M47.3,79.6v-1.8L23.1,92
					c0,0.5,0,1,0.3,1.5L47.3,79.6z M47.3,155.4v-1.8l-24.2,13.9h3.3L47.3,155.4z M47.3,82.7v-1.8L23.6,94.8c0.3,0.5,0.3,1,0.5,1.5
					L47.3,82.7z M36.2,64h-3.3l-8.6,5c-0.3,0.8-0.3,1.5-0.5,2.3L36.2,64z M24.1,63h1.5c0.3-0.3,0.3-1,0.5-1.3L24.1,63z M47.3,86
					v-1.8L24.6,97.3c0.3,0.5,0.3,1,0.5,1.5L47.3,86z M30.7,64h-3.3l-1.5,1c-0.3,0.8-0.8,1.8-1,2.5L30.7,64z M47.3,89v-1.8l-22,12.9
					c0.3,0.5,0.5,0.8,0.8,1.3L47.3,89z M40.8,121.3c-0.5-0.3-0.8-0.8-1.3-1l-14.1,8.3h3L40.8,121.3z M47.3,183.6v-1.8l-21,12.4h3.3
					L47.3,183.6z M47.3,51.1v-1.8L28.1,60.5c-0.5,0.8-0.8,1.8-1.3,2.5h0.5L47.3,51.1z M28.4,103.4h-1.5c0,0.3,0.5,0.3,0.5,0.5
					L28.4,103.4z M47.3,92.3v-1.8l-19.9,11.4h3.3L47.3,92.3z M34,103.4h-3.3l-2.8,1.5l0.8,1.5L34,103.4z M47.3,158.4v-1.8
					l-18.7,10.9h3L47.3,158.4z M39.5,103.4h-3.3l-7.1,4c0.3,0.5,0.8,0.8,1,1.3L39.5,103.4z M47.3,46.3l-15.7,9.1l-2.3,3l17.9-10.3
					v-1.8H47.3z M47.3,54.4v-1.8L29.7,63H33L47.3,54.4z M44.8,103.4h-3.3l-10.9,6.3c0.3,0.5,0.8,0.8,1,1.3L44.8,103.4z M43.5,123.1
					c-0.5-0.3-1-0.8-1.5-1l-11.4,6.6H34L43.5,123.1z M47.3,186.9v-1.8l-15.4,9.1h3L47.3,186.9z M47.3,104.9v-1.5H47l-14.6,8.3
					c0.3,0.5,0.8,0.8,1,1.3L47.3,104.9z M47.3,95.3v-1.8l-14.4,8.3h3.3L47.3,95.3z M47.3,43l-9.1,5.3c-1.8,1.5-3,3-4.5,4.5l13.6-8.1
					C47.3,44.7,47.3,43,47.3,43z M47.3,161.7v-1.8L34,167.5h3.3L47.3,161.7z M47.3,107.9v-1.8l-13.1,7.6c0.3,0.5,0.8,0.8,1.3,1.3
					L47.3,107.9z M47.3,57.4v-1.8L35.2,63h3L47.3,57.4z M47.3,111.2v-1.8l-11.1,6.3c0.5,0.5,0.8,1,1.3,1.3L47.3,111.2z M46.3,124.6
					c-0.5-0.3-1.3-0.8-1.8-1l-8.3,5h3.3L46.3,124.6z M47.3,190v-1.8l-10.1,6.1h3.3L47.3,190z M47.3,114.2v-1.8l-9.1,5.3
					c0.5,0.3,1,0.8,1.5,1L47.3,114.2z M47.3,98.6v-1.8l-8.8,5h3L47.3,98.6z M47.3,164.7v-1.8l-7.8,4.5h3L47.3,164.7z M47.3,60.7
					v-1.8l-6.8,4h3.3L47.3,60.7z M47.3,117.5v-1.8l-6.6,3.8c0.5,0.3,0.8,0.8,1.3,1L47.3,117.5z M47.3,126.8V125l-5.6,3.5h3
					L47.3,126.8z M47.3,193.2v-1.8l-4.5,2.8h3L47.3,193.2z M47.3,120.5v-1.8l-4.3,2.5c0.5,0.3,1.3,0.8,1.8,1L47.3,120.5z
					 M47.3,101.6v-1.8l-3.5,2h3.3L47.3,101.6z M47.3,167.5v-1.3l-2.5,1.3H47.3z M47.3,123.8V122l-1.5,0.8
					C46.3,123.1,46.8,123.6,47.3,123.8z M47.3,63v-1L46,63H47.3z M47.3,128.6v-0.3l-0.3,0.3H47.3z M70.8,37.7h-3l-19,10.9v2
					L70.8,37.7z M61.7,38l-12.9,7.6v1.8l16.7-9.6C64.2,37.7,63,37.7,61.7,38z M51.4,37.7l-2.5,1.5v1c1.3-0.5,2.3-0.8,3.5-1.3
					l2.3-1.3L51.4,37.7L51.4,37.7z M48.8,37.7V38l0.3-0.3H48.8z M75.4,38.2C74.6,38,73.6,38,72.8,38l-24,13.9v1.8L75.4,38.2z
					 M79.4,39c-0.8-0.3-1.5-0.3-2.3-0.5L48.8,54.9v2L79.4,39z M52.4,40.3l-3.5,2v2l9.6-5.8C56.4,39,54.4,39.5,52.4,40.3z M82.9,40.3
					c-0.8-0.3-1.3-0.5-2-0.8L48.8,58.2V60L82.9,40.3z M86,41.5c-0.5-0.3-1.3-0.5-1.8-0.8L48.8,61.2V63h0.3L86,41.5z M48.8,82.9
					c0,10.3,8.3,18.9,18.7,18.9c5.3,0,10.1-2.3,13.6-5.8c0.8-0.8,1.5-1.8,2-2.5s1.3-1.8,1.8-2.8l0.5-1c0.8-2,1.3-4.5,1.3-6.8
					c0-9.3-7.1-17.2-15.9-18.7c-0.5,0-0.8-0.3-1.3-0.3h-4C56.2,65,48.8,73.3,48.8,82.9z M48.8,64v11.9c2-5.3,6.1-9.8,11.4-11.9H48.8
					z M58.9,101.9h1.3H61c-5.6-2-10.1-6.3-12.1-11.9v11.9h0.5h3h0.3H58H58.9z M74.3,103.4L48.8,118v2l28.8-16.7L74.3,103.4
					L74.3,103.4z M68.8,103.4l-20,11.6v1.8L72,103.4H68.8z M63.5,103.4l-14.6,8.3v2l17.7-10.3H63.5z M57.9,103.4l-9.1,5.3v1.8
					l12.4-7.1C61.2,103.4,57.9,103.4,57.9,103.4z M52.6,103.4l-3.8,2v2l6.8-4H52.6z M48.8,103.4v0.8l1.5-0.8H48.8z M68,109.9
					l-19.2,11.4v1.8L61,116C63.2,113.7,65.5,111.7,68,109.9z M58.4,118.8l-9.6,5.6c0.5,0.3,1.3,0.5,1.8,0.8l5.3-3
					C56.7,120.8,57.4,119.8,58.4,118.8z M48.8,125.8v0.5l0.3-0.5H48.8z M50.6,126.6l-1.8,1v1h1.5l2-1.5
					C51.6,126.8,51.4,126.8,50.6,126.6z M80.7,129.9l0.3-0.3h-3.3v0.3h-2.3v-0.3h-3.3v0.3h-2.3v-0.3h-2h-0.3h-0.8v0.3h-2.3v-0.3
					h-3.3h-2.3h-6.1c-2.5,5.8-4,12.4-4,19.2s1.5,12.9,4,18.7h0.8h2.3h3h0.3h5.3h0.3h5H70h5.3h0.3h5.3h0.3h5h0.5v-0.8
					c-7.1-3-12.1-10.1-12.1-18.2c0-8.1,5-15.1,12.1-18.2v-0.5h-0.5v-0.3h-3l-0.3,0.3h-2.2V129.9z M48.8,129.6v8.8
					c0.8-3,1.5-6.1,2.8-8.8H48.8z M48.8,158.9v8.6h1.5h1.3C50.4,164.7,49.6,161.9,48.8,158.9z M48.8,169v1.5l2.5-1.5H48.8z
					 M53.1,171l-0.8-1.5l-3.5,2.3v1.8L53.1,171z M54.7,173.3c-0.3-0.5-0.5-0.8-0.8-1.3l-5,2.8v2L54.7,173.3z M56.2,175.6
					c-0.3-0.5-0.8-0.8-1-1.3l-6.3,3.8v1.8L56.2,175.6z M57.7,177.8c-0.3-0.5-0.8-0.8-1-1.3l-7.8,4.5v2L57.7,177.8z M59.4,179.9
					c-0.3-0.5-0.8-0.8-1-1.3l-9.6,5.8v1.8L59.4,179.9z M61.5,181.9c-0.5-0.5-0.8-0.5-1-1l-11.6,6.6v2L61.5,181.9z M63.5,183.9
					c-0.5-0.3-0.5-0.8-1-1.3l-13.6,8.1v1.8L63.5,183.9z M65.8,185.7c-0.5-0.3-0.8-0.8-1.3-1l-15.7,9.1v0.5h2.5L65.8,185.7z
					 M86.7,44.3v-1.8L51.4,63h3.3L86.7,44.3z M51.9,125.6c0.5,0.3,1,0.3,1.5,0.5c0.3-0.8,0.5-1.3,1-2L51.9,125.6z M53.9,127.6
					c-0.3,0.3,0,0.8-0.3,1h2l0.5-0.3L53.9,127.6z M56.9,169h-3.3c0.3,0.5,0.5,0.8,0.8,1.3L56.9,169z M68.3,187.4
					c-0.5-0.3-1-0.8-1.5-1l-13.1,7.8H57L68.3,187.4z M62.2,169h-3l-4.3,2.3l0.8,1.5L62.2,169z M86.7,105.6l-29.8,17.2
					c-0.8,1-1.3,2-1.8,3l31.6-18.4V105.6z M86.7,108.7l-31.3,18.2c0.8,0.3,1.5,0.3,2.3,0.5l29-16.7V108.7z M67.8,169h-3.3l-8.1,4.5
					l0.8,1.5L67.8,169z M86.7,47.6v-2L56.9,63h3.3L86.7,47.6z M73.1,169h-3L58,175.8c0.3,0.5,0.8,0.8,1,1.3L73.1,169z M86.7,103.9
					c-1.3,0.3-2.8,0.5-4,0.8L62,116.8c-1.3,1.3-2.3,2.5-3.3,3.8l28-16.2V103.9z M86.7,112l-27.5,15.7c0.8,0.3,1.8,0.5,2.5,0.5
					l25-14.4V112z M70.8,189.2c-0.5-0.3-1-0.8-1.5-1l-10.1,6.1h3L70.8,189.2z M78.6,169h-3.3l-15.7,9.1c0.3,0.5,0.8,0.8,1,1.3
					L78.6,169z M83.9,169h-3l-19.4,11.1l1.3,1.3L83.9,169z M86.7,50.6v-1.8L62.5,63h3v-0.3L86.7,50.6z M86.7,170.5V169h-0.5
					l-22.7,13.1c0.5,0.5,0.8,0.8,1.3,1L86.7,170.5z M86.7,115l-23,13.4h3l20-11.4V115z M73.8,190.7c-0.5-0.3-1.3-0.8-1.8-1l-7.6,4.5
					h3.3L73.8,190.7z M86.7,173.8v-2l-21,12.1c0.5,0.3,0.8,1,1.3,1.3L86.7,173.8z M66.3,113l11.1-6.6
					C73.3,107.9,69.5,110.4,66.3,113z M86.7,53.9v-2L68,62.7c0.8,0,1.3,0.3,1.8,0.3h1.3L86.7,53.9z M86.7,176.8V175L68,185.7
					c0.5,0.3,1,0.8,1.5,1L86.7,176.8z M86.7,120v-1.8L69,128.4c1.3,0,2.3-0.3,3.5-0.3L86.7,120z M76.9,192c-0.5-0.3-1.3-0.5-1.8-0.8
					l-5,3h3L76.9,192z M86.7,180.1v-2l-16.2,9.3c0.5,0.3,1,0.8,1.5,1L86.7,180.1z M86.7,56.9v-1.8L73.3,63h3L86.7,56.9z M86.7,183.1
					v-1.8l-13.4,7.6c0.5,0.3,1.3,0.8,1.8,1L86.7,183.1z M73.8,106.7c2.8-1.3,6.1-3.3,6.1-3.3L73.8,106.7z M80.1,193.2
					c-0.8-0.3-1.3-0.5-2-0.8l-2.8,1.8h3.3L80.1,193.2z M86.7,123.3v-2l-11.1,6.6c1.8-0.3,3.5-0.8,5.3-1.3L86.7,123.3z M79.6,64h-3
					c-0.3,0-0.5,0.5-0.8,0.5c0.5,0.3,1.3,0.5,1.8,0.8L79.6,64z M86.7,131.6c-6.3,3-10.9,9.3-10.9,16.9c0,7.6,4.5,13.9,10.9,16.9
					V131.6z M86.7,186.4v-2l-10.3,6.1c0.5,0.3,1.3,0.5,1.8,0.8L86.7,186.4z M86.7,98.1v-2l-10.1,5.8h3L86.7,98.1z M86.7,40.3v-2.5
					h-8.3C81.2,38.5,84.2,39,86.7,40.3z M86.7,60.2v-2c-2.5,1.5-5.6,3.3-8.1,4.8h3.3L86.7,60.2z M85.2,64h-3.3l-3.3,2
					c0.5,0.3,1,0.8,1.5,1C81.9,66,83.4,65,85.2,64z M86.7,189.4v-1.8l-7.1,4c0.8,0.3,1.3,0.3,2,0.5L86.7,189.4z M86.7,126.3v-0.5
					c-1.8,0.8-3.8,1.5-5.8,2l-1,0.8h3L86.7,126.3z M86.7,93l-2.3,1.3c-1,1.5-2.3,2.8-3.5,3.8l5.8-3.3V93z M83.4,194.2
					c-0.5-0.3-1.3-0.3-1.8-0.5l-0.8,0.5H83.4z M86.7,66.5v-2l-5.6,3.3c0.5,0.3,0.5,0.8,1,1.3L86.7,66.5z M86.7,101.1v-1.8l-4.8,2.5
					h3.3L86.7,101.1z M86.7,69.5v-1.8l-3.8,2c0.3,0.5,0.8,0.8,1,1.3L86.7,69.5z M86.7,192.7v-2l-3.5,2c0.8,0.3,1.5,0.3,2.3,0.5
					L86.7,192.7z M86.7,63v-1.5L84.2,63H86.7z M86.7,72.8v-2l-2,1.3c0.3,0.5,0.5,0.8,0.8,1.3L86.7,72.8z M86.7,128.6v-1l-1.5,1H86.7
					z M86.7,90c-0.3,0.8-0.8,1.5-1.3,2.3l1.3-0.5V90z M86.7,75.9v-1.8L86,74.3L86.7,75.9z M113,63V37.7H87.7V41
					c9.6,4.5,17.4,12.4,22,22H113z M87.7,42.3v1.3L89,43C88.5,42.8,88.2,42.5,87.7,42.3z M90.2,43.5L87.7,45v1.8l4-2.3
					C91.3,44.3,90.7,43.8,90.2,43.5z M92.8,45.3l-5,2.8v1.8l6.6-3.5C93.8,46.1,93.3,45.6,92.8,45.3z M95.3,47.1l-7.6,4.3v1.8l8.8-5
					C96,47.8,95.8,47.3,95.3,47.1z M97.6,48.8l-9.8,5.6v1.8l11.1-6.3C98.3,49.4,98.1,49.1,97.6,48.8z M99.6,50.9
					c-4,2.3-7.8,4.5-11.9,6.8v1.8l13.1-7.6C100.6,51.4,100.1,51.4,99.6,50.9z M101.6,52.9l-13.9,7.8v1.8l14.9-8.6
					C102.4,53.4,101.9,53.4,101.6,52.9z M103.9,64l-16.2,9.3v1.8L106.9,64H103.9z M98.3,64l-10.6,6.3v1.8l13.9-8.1
					C101.6,64,98.3,64,98.3,64z M92.8,64c-1.8,1-3.3,2-5,3v1.8L96,64H92.8z M87.7,64v1.8c1-0.5,1.8-1.3,2.8-1.8H87.7z M109.7,65.8
					l-0.8-1.5L87.7,76.6v1.8L109.7,65.8z M110.7,68.3c-0.3-0.5-0.3-1-0.5-1.5L87.7,79.6v1.8L110.7,68.3z M111.4,71.1
					c-0.3-0.5-0.3-1.3-0.5-1.8L87.7,82.9v1.8L111.4,71.1z M112.2,73.8c0-0.5-0.3-1.3-0.5-1.8l-24,14v1.8L112.2,73.8z M112.7,76.6
					c0-0.5-0.3-1.3-0.3-1.8L87.7,89.2V91L112.7,76.6z M113,79.6c0-0.5-0.3-1.3-0.3-1.8l-25,14.4V94L113,79.6z M113,82.7v-1.8
					L87.7,95.5v1.8L113,82.7z M113,86v-2L87.7,98.6v1.8L113,86z M112.7,89.2c0-0.8,0.3-1.3,0.3-2l-25.2,14.6h2.8L112.7,89.2z
					 M98.8,103.4H96l-8.3,4.8v1.8L98.8,103.4z M90.5,103.4l-2.8,1.5v1.8l6.1-3.3H90.5z M103.1,104.1c-0.8-0.3-1.5-0.5-2.3-0.5
					l-13.1,7.6v1.8L103.1,104.1z M107.2,105.1l-2.3-0.8l-17.2,10.1v1.8L107.2,105.1z M104.4,109.7c0.8-1,1.3-2,2-3l-18.7,10.9v1.8
					L104.4,109.7z M113,110.9v-1.8l-13.1,7.6c-3.5,3.3-7.6,6.3-12.1,8.3v0.5L113,110.9z M98.6,116.2c1.3-1.3,2.8-2.5,4-4l-14.9,8.6
					v1.8L98.6,116.2z M113,114.2v-1.8L87.8,127v1.5h0.8L113,114.2z M94.5,167.2c9.6,0,17.4-7.1,18.4-16.4v-4.5
					c-1-9.3-8.8-16.4-18.4-16.4c-2.3,0-4.8,0.5-6.8,1.3V166C89.7,166.7,92.3,167.2,94.5,167.2z M108.2,169l-20.4,11.6v1.8l23.5-13.4
					L108.2,169L108.2,169z M102.6,169l-14.9,8.6v1.8l18.2-10.3h-3.3V169z M97.3,169l-9.6,5.3v1.8l12.6-7.1H97.3z M91.8,169l-4,2.3
					v1.8l7.3-4h-3.3V169z M87.7,169v0.8l1.8-0.8H87.7z M113,169.3l-25.2,14.6v1.8L113,171V169.3z M113,172.3l-25.2,14.6v1.8
					l25.2-14.6V172.3z M113,175.6l-25.2,14.6v1.8l25.2-14.6V175.6z M113,178.6l-25.2,14.6v0.5c0.8,0,1.5,0.3,2.3,0.3l23-13.6v-1.8
					H113z M92,121.5l-3.3,1.8C89.7,122.8,91,122.3,92,121.5z M103.4,54.9L89.5,63h3.3l11.6-6.8C104.1,55.7,103.6,55.4,103.4,54.9z
					 M113,117.3v-1.8l-22.2,13.1h3L113,117.3z M113,183.6v-1.8L91.8,194c0.8,0,1.8,0.3,2.5,0.3c0.3,0,0.5-0.3,0.8-0.3L113,183.6z
					 M112,92.8c0.3-0.8,0.5-1.3,0.5-2l-19.7,11.1h1.5H96L112,92.8z M104.9,57.2L95,63h3.3l7.6-4.5C105.6,57.9,105.1,57.7,104.9,57.2
					z M113,120.5v-1.8l-17,9.9h3.3L113,120.5z M113,186.7v-1.8L97.3,194c1.3,0,2.8-0.3,4-0.5L113,186.7z M111.2,96.3
					c0.3-0.8,0.3-1.3,0.5-2l-13.4,7.6h3.3L111.2,96.3z M113,161.4v-1.8l-3.5,2c-2.3,2.8-5.6,4.8-9.1,5.8h2.3L113,161.4z M106.4,59.5
					l-5.8,3.5h3l3.5-2.3C106.9,60.2,106.7,60,106.4,59.5z M102.6,129.6h-1.5c0.3,0,0.8,0.5,1,0.5L102.6,129.6z M113,123.6v-1.8
					l-11.4,6.8h3.3L113,123.6z M113,107.9v-0.5c-0.5-0.3-0.5-0.5-1-0.8l-6.6,3.8c-0.8,1.3-1.8,2.5-2.8,3.5L113,107.9z M107.9,129.6
					h-3l-1.5,1c0.5,0.3,1,0.8,1.5,1L107.9,129.6z M109.7,100.3l0.8-2.3l-6.6,3.8h3L109.7,100.3z M113,164.7v-1.8l-8.1,4.5h3
					L113,164.7z M113,190v-1.8l-8.1,4.8c2.5-0.5,5-1.5,7.3-2.5L113,190z M113,194.2v-2.8c-2.5,1-5,2-7.8,2.8H113z M105.9,63h2.5
					c-0.3-0.3-0.3-1-0.5-1.3L105.9,63z M113,129.9v-0.3h-2.8l-4.3,2.5c0.5,0.3,1,1,1.5,1.3L113,129.9z M106.4,103.6
					c0.5,0.3,1,0.3,1.5,0.5c0.3-0.3,0.3-0.5,0.5-0.8h-1.5L106.4,103.6z M110.4,106.1c-0.8-0.3-1-0.3-1.8-0.5c-0.5,1-1.3,1.8-1.8,2.8
					L110.4,106.1z M113,126.8V125l-6.1,3.5h3.3L113,126.8z M113,133.2v-1.8l-4.8,2.8c0.5,0.3,1,0.5,1.3,1L113,133.2z M109.2,104.4
					l3.8,1.5v-2.5h-3.3L109.2,104.4z M113,136.2v-1.8l-2.8,1.8c0.3,0.5,0.8,0.8,1,1.3L113,136.2z M113,167.5V166l-2.8,1.5H113z
					 M113,72.3V64h-2.5C111.7,66.5,112.2,69.5,113,72.3z M113,101.9v-8.1c-0.8,2.8-1.3,5.6-2.5,8.1H113z M113,156.6h-0.3
					c-0.5,1-1,2-1.5,2.8l1.8-1V156.6z M113,139.5v-1.8l-1.3,0.8c0.3,0.5,0.5,0.8,0.8,1.3L113,139.5z M113,128.6v-0.5l-0.5,0.5H113z
					 M139.7,37.7h-25.2V63h25.2V37.7z M114.5,64v19.2v18.7h25.2V64H114.5z M139.7,128.6v-25.2h-25.2v3c9.6,4.5,17.4,12.6,22,22.2
					H139.7z M115,108.2l-0.5,0.3v2l2-1.3C116,108.9,115.5,108.4,115,108.2z M117.8,109.7l-3.3,2v1.8l4.8-2.8
					C118.8,110.4,118.3,109.9,117.8,109.7z M120.3,111.4l-5.8,3.3v1.8l7.1-4C121,112.2,120.8,111.7,120.3,111.4z M122.6,113.2
					l-8.1,4.8v1.8l9.3-5.6C123.3,114,123.1,113.5,122.6,113.2z M124.8,115l-10.3,6.1v2l11.6-6.8C125.6,115.7,125.3,115.2,124.8,115z
					 M126.8,117l-12.4,7.3v1.8l13.4-7.8C127.6,117.8,127.4,117.5,126.8,117z M128.6,119l-14.1,8.3v1.3h1.3l14.1-8.3
					C129.6,119.8,128.9,119.5,128.6,119z M132.1,129.6L114.5,140v2l20.7-12.4H132.1z M126.6,129.6l-12.1,7.3v1.8l15.4-9.1H126.6z
					 M121.3,129.6l-6.8,4v2l9.8-6.1h-3V129.6z M115.7,129.6c-0.5,0.3-0.8,0.8-1.3,1v1.8l4.5-2.8H115.7z M136.7,132.1l-0.8-1.5
					l-21.5,12.6v1.8L136.7,132.1z M137.4,134.7c-0.3-0.5-0.3-1-0.5-1.5l-22.5,13.1v1.8L137.4,134.7z M138.2,137.4
					c-0.3-0.5,0-1-0.3-1.5l-23.5,13.4v1.5v0.5L138.2,137.4z M139,140.2c0-0.5-0.3-1-0.3-1.5l-24.2,13.9v2L139,140.2z M139.5,143.3
					c0-0.5-0.3-1.3-0.3-1.8l-24.7,14.4v1.8L139.5,143.3z M139.7,146.3v-1c0-0.3-0.3-0.8-0.3-1l-25,14.6v2L139.7,146.3z M139.7,149.3
					v-1.8l-25.2,14.6v1.8L139.7,149.3z M139.5,152.6c0-0.3,0.3-0.3,0.3-0.5v-1.5l-25.2,14.6v2L139.5,152.6z M114.5,191v3.3h25.2V169
					h-3.3C131.9,178.6,124.1,186.4,114.5,191z M129.9,169l-15.4,8.8v1.8l18.7-10.6H129.9z M124.6,169l-10.1,5.8v1.8l13.1-7.6H124.6z
					 M119,169l-4.5,2.5v2l7.8-4.5H119z M114.5,169v1.3l2.3-1.3H114.5z M133.4,171.8c0.5-0.8,1-1.5,1.5-2.5l-20.4,11.9v1.8
					L133.4,171.8z M129.6,177.1c0.8-1,1.8-2,2.5-3l-17.7,10.1v2L129.6,177.1z M121.5,185.2c2-1.5,4-3.3,5.8-5.3l-12.9,7.6v1.8
					L121.5,185.2z M139.2,155.9c0-0.8,0.3-1.3,0.3-2l-23.7,13.6h3.3L139.2,155.9z M130.4,121.3l-12.4,7.3h3c3.5-2,6.8-4,10.3-6.1
					C131.1,122.1,130.6,121.8,130.4,121.3z M138.5,159.4c0.3-0.8,0.3-1.3,0.5-2l-17.7,10.1h3L138.5,159.4z M132.1,123.6l-8.8,5h3.3
					l6.3-3.8C132.7,124.3,132.4,124.1,132.1,123.6z M137.4,163.2c0.3-0.8,0.3-1.5,0.5-2.3l-11.4,6.6h3.3L137.4,163.2z M133.4,125.8
					l-4.5,2.8h3l2.5-1.5C134.2,126.6,133.7,126.3,133.4,125.8z M135.7,167.2c0.3-0.8,0.8-1.5,1-2.3l-4.5,2.5h3L135.7,167.2z
					 M134.2,128.6h0.8v-0.5L134.2,128.6z M139.7,137.4v-7.8h-2.8C138,132.1,139,134.9,139.7,137.4z M139.7,167.5v-7.6
					c-0.8,2.5-1.8,5-2.8,7.6H139.7z"/>
				<path class="st1" d="M160.2,37.7h-19.4v-1.5h19.4V1.9h1.3v34.3h25V1.9h1.3v34.3H252V1.9h1.3v34.3h25.5V1.9h1v34.3h13.9v1.5
					h-13.9V63h13.9v1h-13.9v103.5H299v1.5h-19.2v25.2H299v1h-19.2v37.6h-1v-37.6h-25.5v37.6H252v-37.6h-64.4v37.6h-1.3v-37.6h-25
					v37.6H160v-37.6h-19v-1h19.2V169H141v-1.5h19.2v-37.9h-16.7v-1h16.7v-25.2h-19.4v-1.5h19.4V64h-19.4v-1h19.4V37.7z M161.4,51.4
					v1.8l25-14.6v-0.8h-1.5L161.4,51.4z M161.4,48.3v1.5l21-12.1h-3L161.4,48.3z M161.4,45.1v1.8l15.4-9.1H174L161.4,45.1z
					 M161.4,42v1.5l10.1-5.8h-3L161.4,42z M161.4,38.8v1.8l4.5-2.8h-2.8L161.4,38.8z M161.4,54.7v1.5l25-14.4V40L161.4,54.7z
					 M161.4,57.7v1.8l25-14.6V43L161.4,57.7z M161.4,61v1.5l25-14.4v-1.8L161.4,61z M161.4,78.4L186.2,64h-3l-21.7,12.6v1.8H161.4z
					 M161.4,75.1L180.6,64h-2.8l-16.4,9.6L161.4,75.1L161.4,75.1z M161.4,72.1l13.9-8.1h-3l-10.9,6.3V72.1z M161.4,68.8l8.3-4.8H167
					l-5.6,3.3V68.8z M161.4,65.8l3-1.8h-3V65.8z M161.4,81.4l25-14.4v-1.8l-25,14.6V81.4z M161.4,84.7l25-14.6v-1.5l-25,14.4V84.7z
					 M161.4,87.7l25-14.4v-1.8l-25,14.6V87.7z M161.4,91l25-14.6v-1.5l-25,14.4V91z M161.4,94l25-14.4v-1.8l-25,14.6V94z
					 M161.4,97.3l25-14.6v-1.5l-25,14.4V97.3z M161.4,100.3l25-14.4v-1.8l-25,14.6V100.3z M164.5,101.9l22-12.9v-1.5l-25,14.4H164.5
					z M161.4,119.3l25-14.4v-1.5h-0.5l-24.5,14.4V119.3z M161.4,116.2l22.2-12.9h-2.8l-19.4,11.1V116.2z M161.4,113l16.9-9.6h-3
					l-13.9,8.1V113z M161.4,109.9l11.4-6.6h-3l-8.3,4.8L161.4,109.9L161.4,109.9z M161.4,106.7l5.8-3.3h-2.8l-3,1.8V106.7z
					 M161.9,103.4h-0.5v0.3L161.9,103.4z M161.4,122.6l25-14.6v-1.8l-25,14.6V122.6z M161.4,125.6l25-14.4v-1.8l-25,14.6V125.6z
					 M161.4,128.6h0.5l24.5-14.4v-1.8l-25,14.6V128.6z M161.4,143v1.5l25-14.4v-0.5h-2L161.4,143z M161.4,139.7v1.8l20.4-11.9h-3
					L161.4,139.7z M161.4,136.7v1.5l14.9-8.6h-2.8L161.4,136.7z M161.4,133.4v1.8l9.6-5.6h-3L161.4,133.4z M161.4,130.4v1.5l4-2.3
					h-2.8L161.4,130.4z M161.4,147.8l25-14.6v-1.5l-25,14.4V147.8z M161.4,150.8l25-14.4v-1.8l-25,14.6V150.8z M161.4,154.1l25-14.6
					V138l-25,14.4V154.1z M161.4,157.1l25-14.4V141l-25,14.6V157.1z M161.4,160.4l25-14.6v-1.5l-25,14.4V160.4z M161.4,163.4
					l25-14.4v-1.8l-25,14.6V163.4z M161.4,166.7l25-14.6v-1.5l-25,14.4V166.7z M161.4,180.9v1.5l23.5-13.4h-3L161.4,180.9z
					 M161.4,177.6v1.8l17.9-10.3h-2.8L161.4,177.6z M161.4,174.6v1.5l12.4-7.1H171L161.4,174.6z M161.4,171.3v1.8l7.1-4h-3
					L161.4,171.3z M161.4,169v0.8l1.3-0.8H161.4z M161.4,183.9v1.8l25-14.6v-1.5L161.4,183.9z M161.4,187.2v1.5l25-14.4v-1.8
					L161.4,187.2z M161.4,190.2v1.8l25-14.6v-1.5L161.4,190.2z M161.4,193.5v0.8h1.3l23.7-13.6v-1.8L161.4,193.5z M165.5,167.5
					l21-12.1v-1.8l-23.7,13.9L165.5,167.5L165.5,167.5z M166.2,63l20.2-11.9v-1.8L163.2,63H166.2z M167.2,128.6l19.2-11.1v-1.8
					l-22,12.9H167.2z M165.2,194.2h3l18.2-10.6v-1.8L165.2,194.2z M169.8,101.9l16.7-9.6v-1.8l-19.2,11.4H169.8z M171,167.5
					l15.4-9.1v-1.5L168,167.5H171z M171.5,63l14.9-8.6v-1.8L168.7,63H171.5z M172.8,128.6l13.6-8.1v-1.8l-16.7,9.8h3.1V128.6z
					 M170.5,194.2h3l12.9-7.6v-1.8L170.5,194.2z M175.3,101.9l11.1-6.6v-1.5l-13.9,8.1H175.3z M176.6,167.5l9.8-5.8v-1.8l-12.9,7.6
					H176.6z M177.1,63l9.3-5.6v-1.8L174,63H177.1z M178.1,128.6l8.3-4.8V122l-11.1,6.6H178.1z M176.1,194.2h3l7.3-4.3v-1.8
					L176.1,194.2z M180.9,101.9l5.6-3.3v-1.8l-8.6,5h3V101.9z M181.9,167.5l4.5-2.8v-1.5l-7.3,4.3H181.9z M182.4,63l4-2.3v-1.8
					l-6.8,4L182.4,63L182.4,63z M183.6,128.6l2.8-1.8V125l-5.8,3.5h3V128.6z M181.6,194.2h2.8l2-1.3v-1.5L181.6,194.2z M186.2,101.9
					l0.3-0.3v-1.5l-2.8,1.8H186.2z M186.4,167.5v-1.3l-2,1.3H186.4z M186.4,63v-0.8l-1.5,0.8H186.4z M186.4,128.6v-0.3l-0.3,0.3
					H186.4z M187.7,61.5V63h0.3l43.4-25.2h-2.8L187.7,61.5z M187.7,58.2V60L226,37.7h-3L187.7,58.2z M187.7,55.2V57l32.8-19.2h-3
					L187.7,55.2z M187.7,51.9v1.8L215,37.8h-2.8L187.7,51.9z M187.7,48.8v1.8l22-12.9h-3L187.7,48.8z M187.7,45.6v1.8l16.4-9.6h-2.8
					L187.7,45.6z M187.7,42.3v1.8l11.1-6.3h-3L187.7,42.3z M187.7,39.3V41l5.6-3.3h-3L187.7,39.3z M187.7,101.9H252V64h-64.4
					L187.7,101.9L187.7,101.9z M187.7,128.6h1.3l43.4-25.2h-2.8l-41.9,24.5L187.7,128.6L187.7,128.6z M187.7,126.3l39.4-23h-3
					l-36.3,21.2v1.8H187.7z M187.7,123.1l33.8-19.7h-2.8l-31,17.9V123.1z M187.7,120l28.5-16.7h-3l-25.5,14.9V120z M187.7,116.8
					l23-13.4h-2.8L187.7,115V116.8z M187.7,113.7l17.7-10.3h-3l-14.6,8.6L187.7,113.7L187.7,113.7z M187.7,110.4l12.1-7.1h-3
					l-9.1,5.3V110.4z M187.7,107.2l6.6-3.8h-2.8l-3.8,2.3V107.2z M188.9,103.4h-1.3v0.8L188.9,103.4z M187.7,167.5H252v-37.9h-64.4
					L187.7,167.5L187.7,167.5z M187.7,193.7v0.5h2.3l43.7-25.2h-3L187.7,193.7z M187.7,190.7v1.5l40.4-23.2h-2.8L187.7,190.7z
					 M187.7,187.4v1.8l35.1-20.2h-3L187.7,187.4z M187.7,184.4v1.8l29.5-17.2h-3L187.7,184.4z M187.7,181.1v1.8l24-13.9h-2.8
					L187.7,181.1z M187.7,178.1v1.8l18.7-10.9h-3L187.7,178.1z M187.7,175.1v1.5l13.1-7.6H198L187.7,175.1z M187.7,171.8v1.8
					l7.8-4.5h-3L187.7,171.8z M187.7,169v1.3l2.3-1.3H187.7z M236.9,37.7h-3L190.2,63h3L236.9,37.7z M237.9,103.4h-3l-43.4,25.2h2.8
					L237.9,103.4z M195.3,194.2L239,169h-2.8l-43.7,25.2H195.3z M198.5,63l43.7-25.2h-2.8L195.8,63H198.5z M199.8,128.6l43.7-25.2
					h-3l-43.7,25.2H199.8z M200.8,194.2l43.7-25.2h-3l-43.7,25.2H200.8z M204.1,63l43.7-25.2h-3L201.1,63H204.1z M205.1,128.6
					l43.7-25.2H246l-43.7,25.2H205.1z M206.4,194.2L250,169h-3l-43.7,25.2H206.4z M209.6,63L252,38.5v-0.8h-1.8L206.6,63H209.6z
					 M210.7,128.6l41.4-24v-1.3h-0.8l-43.7,25.2h3.1V128.6z M211.7,194.2l40.4-23.5v-1.5l-43.2,25H211.7z M214.9,63L252,41.5v-1.8
					L212.2,63H214.9z M216,128.6l36.1-20.7v-1.8l-38.9,22.5H216z M217.2,194.2L252,174v-1.8l-37.9,22H217.2z M220.5,63L252,44.8V43
					l-34.5,20H220.5z M221.5,128.6l30.5-17.7v-1.8l-33.6,19.4h3.1V128.6z M222.5,194.2L252,177v-1.5l-32.3,18.7H222.5z M225.8,63
					L252,47.8V46l-29,17H225.8z M227.1,128.6l25-14.4v-1.8l-28,16.2H227.1z M228.1,194.2l24-13.9v-1.8l-27,15.7H228.1z M231.3,63
					L252,50.9v-1.5L228.3,63H231.3z M232.4,128.6l19.7-11.4v-1.8l-22.5,13.1h2.8V128.6z M233.6,194.2l18.4-10.9v-1.5l-21.5,12.4
					H233.6z M236.7,63l15.4-8.8v-1.8L233.9,63H236.7z M237.9,128.6l14.1-8.1v-1.8l-17.2,9.8h3.1V128.6z M252,186.7v-1.5l-15.9,9.1
					h2.8L252,186.7z M242.2,63l9.8-5.8v-1.5L239.2,63H242.2z M243.2,128.6l8.8-5v-1.8l-11.6,6.8H243.2z M244.5,194.2l7.6-4.3v-1.8
					l-10.6,6.1H244.5z M247.8,63l4.3-2.5v-1.8l-7.3,4.3H247.8z M248.8,128.6l3.3-1.8V125l-6.3,3.5h3V128.6z M249.8,194.2l2.3-1.3
					v-1.8l-5,3h2.7V194.2z M252,63v-1l-1.8,1H252z M252,128.6v-0.5l-0.8,0.5H252z M253.3,51.9v1.5l25.5-14.9v-0.8h-1.3L253.3,51.9z
					 M253.3,48.6v1.8L275,37.7h-3L253.3,48.6z M253.3,45.3v1.8l16.2-9.3h-2.8L253.3,45.3z M253.3,42.3v1.8l10.9-6.3h-3L253.3,42.3z
					 M253.3,39v1.8l5.3-3h-3L253.3,39z M253.3,54.9v1.8l25.5-14.9V40L253.3,54.9z M253.3,57.9v1.8l25.5-14.9v-1.5L253.3,57.9z
					 M253.3,61.2v1.5l25.5-14.6v-1.8L253.3,61.2z M253.3,128.6h16.2v1h-16.2v37.9h25.5V64h-25.5v37.9h15.9v1.5h-15.9L253.3,128.6
					L253.3,128.6z M253.3,181.1v1.8L277,169h-2.8L253.3,181.1z M253.3,177.8v1.8l18.4-10.6h-3L253.3,177.8z M253.3,174.8v1.5
					l12.9-7.3h-2.8L253.3,174.8z M253.3,171.5v1.8l7.6-4.3h-3L253.3,171.5z M253.3,169v1l2-1H253.3z M278.8,171v-1.5l-25.5,14.9v1.5
					L278.8,171z M253.3,189.2l25.5-14.9v-1.8l-25.5,14.9L253.3,189.2L253.3,189.2z M253.3,192.2l25.5-14.9v-1.5l-25.5,14.9
					L253.3,192.2L253.3,192.2z M253.3,194.2h2l23.5-13.6v-1.8l-25.5,14.9L253.3,194.2L253.3,194.2z M255.6,63h3l20.2-11.9v-1.5
					L255.6,63z M260.6,194.2l18.2-10.6v-1.5l-21,12.1H260.6z M261.1,63h2.8l14.9-8.6v-1.8L261.1,63z M266.2,194.2l12.6-7.3v-1.8
					l-15.7,9.1H266.2z M266.4,63h3l9.3-5.6v-1.5L266.4,63z M271.7,194.2l7.1-4.3v-1.5l-10.1,5.8H271.7z M272,63h3l3.8-2.3v-1.8
					L272,63z M277,194.2l1.8-1v-1.8l-4.5,2.8H277z M277.5,63h1.3v-0.8L277.5,63z"/>
				<path class="st1" d="M479.2,37.7h-18.7V63h18.7v1h-18.7v51.5h17.2v1.3h-17.2V142h7.1v1.3h-7.1v24.2h19.2v1.5h-19.2v25.2h24.2v1
					h-24.2v37.6H459v-37.6h-27.8v1.5h4.5v1h-4.5v35.1h-1v-35.1h-27.8v35.1H401v-35.1h-22.7h-51.5v35.1h-1.5v-35.1h-1.8v-1h1.8v-1.5
					h-25.5l-2.3,2.3v35.3h-1v-34.1l-11.4,11.4l-1-1l12.4-12.1v-1.8h-14.1v-1h14.1V169h-14.1v-1.5h14.1v-24.2h-16.2V142h16.2v-26V64
					h-16.9v-1h16.9V37.7h-16.9v-1.5h16.9V2.4h1v33.8h27.8v-1.8h-1.8v-1.5h1.8V2.4h1.5v30.5h109v1.5h-44.2c2,0.3,5,1.3,7.1,1.8H457
					l2-2V2.4h1.5v30.5l10.3-10.6l1,1l-11.4,11.4v1.5h18.7v1.5H479.2z M315.9,63c3-3.5,5.8-6.6,9.3-9.6V37.7h-27.8V63H315.9z
					 M297.5,101.4c2.5-13.9,8.6-26.8,17.2-37.4h-17.2V101.4z M325.3,101.6v-1.8L297.5,116c0,0.5,0.3,1.3,0.3,1.8L325.3,101.6z
					 M300.5,142c-1.3-3.8-2.3-7.6-3-11.6V142H300.5z M297.5,167.5h17.2c-5.8-7.3-10.3-15.4-13.6-24.2h-3.5v24.2H297.5z M315.9,169
					h-18.4v25.2h1.8l20.7-21C318.4,171.8,317.2,170.5,315.9,169z M298,195.3h-0.5v0.5L298,195.3z M325.3,95.3v-1.8l-27.5,15.9v2
					L325.3,95.3z M325.3,98.6v-1.8l-27.5,15.9v2L325.3,98.6z M325.3,104.9v-1.8L297.7,119v1.8L325.3,104.9z M312.1,115.7v-0.3h0.5
					l12.6-7.6V106l-27.5,15.9c0,0.5,0.3,1.3,0.3,1.8L312.1,115.7z M325.3,92.3v-1.8l-27,15.7c0,0.8-0.3,1.3-0.3,2L325.3,92.3z
					 M315.7,116.8h-3l-14.4,8.3v1.8L315.7,116.8z M325.3,89v-1.8l-26.5,15.4c0,0.8-0.3,1.3-0.3,2L325.3,89z M321.2,116.8h-3.3
					l-19.4,11.4c0,0.5,0.3,1,0.3,1.5L321.2,116.8z M325.3,86v-1.8l-26,14.9c-0.3,0.8,0,1.5-0.3,2.3L325.3,86z M325.3,117.5v-0.8
					h-1.8L299,130.9c0,0.5,0.3,1.3,0.3,1.8L325.3,117.5z M325.3,120.5v-1.8l-25.7,14.9c0,0.5,0.3,1.3,0.5,1.8L325.3,120.5z
					 M325.3,82.7v-1.8l-25,14.6c-0.3,0.8-0.3,1.3-0.5,2L325.3,82.7z M325.3,123.8V122l-25,14.4c0.3,0.5,0.3,1.3,0.5,1.8L325.3,123.8
					z M325.3,79.6v-1.8l-24,13.9l-0.8,2.3L325.3,79.6z M325.3,126.8V125L301,139.2c0.3,0.5,0.3,1,0.5,1.5L325.3,126.8z M301,194.2
					h24.2v-15.9c-1.5-1.3-3-2.5-4.5-4L301,194.2z M325.3,76.4v-1.8l-22.7,13.1c-0.3,0.8-0.5,1.8-0.8,2.5L325.3,76.4z M325.3,130.1
					v-1.8L301.8,142h0.3h2.8L325.3,130.1z M302.3,143.3l0.3,0.3l0.3-0.3H302.3z M305.1,143.3l-2.3,1.3l0.8,1.5l4.5-2.8H305.1z
					 M325.3,73.3v-1.8l-21,12.1c-0.3,0.8-0.8,1.8-1,2.5L325.3,73.3z M310.4,143.3l-6.6,3.8l0.8,1.5l9.1-5.3H310.4z M325.3,70.1v-1.8
					l-18.9,11.1c-0.5,0.8-0.8,1.8-1.3,2.5L325.3,70.1z M315.9,143.3l-10.9,6.3c0.3,0.5,0.3,1,0.5,1.5l13.4-7.8H315.9z M321.2,143.3
					l-15.1,8.8c0.3,0.5,0.5,0.8,0.8,1.3l17.7-10.1H321.2z M325.3,133.2v-1.8L307.1,142h3.3L325.3,133.2z M325.3,67v-1.8l-16.4,9.6
					c-0.5,1-1,1.5-1.5,2.5L325.3,67z M325.3,145.8V144l-17.9,10.3l0.8,1.5L325.3,145.8z M325.3,149.1v-1.8l-16.4,9.6
					c0.3,0.5,0.5,0.8,0.8,1.3L325.3,149.1z M321.7,64l-9.6,5.8c-0.8,1-1.3,1.8-2,2.8L325,64H321.7z M325.3,152.1v-1.8l-15.1,8.8
					c0.3,0.5,0.8,0.8,1,1.3L325.3,152.1z M325.3,155.4v-1.8l-13.6,7.8c0.3,0.5,0.8,0.8,1,1.3L325.3,155.4z M325.3,136.4v-1.8
					l-12.6,7.3h3L325.3,136.4z M325.3,158.4v-1.8l-11.9,7.1c0.3,0.5,0.5,0.8,0.8,1.3L325.3,158.4z M316.4,64c-1,1-2,2.5-2.8,3.5
					l5.8-3.5H316.4z M325.3,111.2v-1.8l-10.6,6.1h3.3L325.3,111.2z M325.3,161.7v-1.8L315,166c0.3,0.5,0.8,0.8,1,1.3L325.3,161.7z
					 M325.3,164.7v-1.8l-7.8,4.5h3L325.3,164.7z M317.4,169l0.3,0.3l0.8-0.3H317.4z M325.3,139.5v-1.8L318,142h3.3L325.3,139.5z
					 M325.3,58.9l-6.8,4h3.3l3.5-2.3V58.9z M320.7,169l-2.3,1c0.3,0.5,1,0.8,1.3,1.3l4-2.3H320.7z M325.3,55.7l-2.3,1.5
					c-1.5,1.3-3,2.8-4.3,4.3l6.6-4L325.3,55.7L325.3,55.7z M325.3,114.2v-1.8l-5,3h3.3L325.3,114.2z M320.5,172
					c0,0.3,0.3,0.3,0.3,0.5l1.5-1.5L320.5,172z M325.3,171v-1.3l-3,3.3L325.3,171z M325.3,174.3v-1.8l-2.8,1.5
					c0.5,0.5,0.8,1,1.3,1.3L325.3,174.3z M325.3,167.5v-1.3l-2.5,1.3H325.3z M325.3,142v-1l-1.8,1H325.3z M324,63h1.3v-1L324,63z
					 M325.3,176.8v-1.3l-0.8,0.5L325.3,176.8z M358.1,36.2c2-0.5,3.8-1.5,5.8-1.8h-37.1v1.8H358.1z M326.8,52.1
					c7.8-6.6,16.9-11.4,27-14.4h-27V52.1z M370.7,37.7h-3.3l-40.6,23.5V63h0.3L370.7,37.7z M362.1,37.7l-35.3,20.4V60l38.4-22.2
					L362.1,37.7L362.1,37.7z M358.3,37.7c-1,0.3-2.3,0.5-3.3,0.8l-28.3,16.4v2l33.1-19.2H358.3z M414.6,78.9
					c-9.3-9.1-22.2-14.9-36.3-14.9c-28.5,0-51.2,23.2-51.5,51.5h51L414.6,78.9z M345.4,74.3c4-3,8.6-5.8,13.4-7.8
					c1.5-0.8,2.8-1.8,4.3-2.5h-3.3l-33.1,19.4v1.8L345.4,74.3z M357.6,64h-3l-27.8,16.2v2L357.6,64z M352.3,64H349l-22.2,13.1v1.8
					L352.3,64z M346.7,64h-3.3l-16.7,9.8v2L346.7,64z M341.2,64h-3l-11.4,6.8v1.8L341.2,64z M335.9,64h-3.3l-5.8,3.5v2L335.9,64z
					 M330.3,64h-3l-0.5,0.5v1.8C328,65.5,329,64.8,330.3,64z M337.6,81.9c1.3-1.3,2.3-2.5,3.5-3.8l-14.4,8.3v2L337.6,81.9z
					 M333.6,87.5c0.8-1,1.3-2,2-3l-8.8,5.3v1.8L333.6,87.5z M331.1,92.3c0.5-1,0.8-2,1.3-2.8l-5.6,3.3v2L331.1,92.3z M329,96.6
					c0.3-0.8,0.8-1.8,1-2.5l-3.3,2v1.8L329,96.6z M327.8,100.3l0.8-2.3l-1.8,1v2L327.8,100.3z M327.3,101.9l-0.5,0.5v1.8
					C327,103.4,327,102.6,327.3,101.9z M326.8,116.8c0.3,9.1,2.8,17.9,7.1,25.2h17.4l25.2-25.2H326.8z M326.8,127.6v1.8l0.3-0.3
					C326.8,128.6,326.8,128.1,326.8,127.6z M327.3,130.4l-0.5,0.3v2l1-0.8C327.5,131.4,327.5,130.9,327.3,130.4z M328.3,132.9
					l-1.5,1v1.8l2-1.3C328.5,133.9,328.5,133.4,328.3,132.9z M329,135.4l-2.3,1.5v2l3-2L329,135.4z M331.1,139.5l-0.8-1.5l-3.5,2.3
					v1.8L331.1,139.5z M333.6,144.3c-0.3-0.3-0.3-0.8-0.5-1h-0.8l-5.6,3.3v1.8L333.6,144.3z M330,143.3h-3.3v2L330,143.3z
					 M335.1,146.5c-0.3-0.5-0.5-0.8-0.8-1.3l-7.6,4.3v2L335.1,146.5z M336.9,148.8c-0.3-0.5-0.8-0.8-1-1.3l-9.1,5.3v1.8L336.9,148.8
					z M338.6,150.8c-0.3-0.5-0.8-0.8-1-1.3l-10.9,6.3v2L338.6,150.8z M340.4,153.1v-0.3c-0.3-0.5-0.8-0.5-1-1l-12.6,7.3v1.8
					L340.4,153.1z M332.8,160.4l4.5-4.3l-10.6,6.1v2L332.8,160.4z M326.8,166.7l3-3l-3,1.8V166.7z M342.4,169l-15.7,9.1
					c0.5,0.3,0.8,0.8,1.3,1l17.7-10.1H342.4z M337.1,169l-10.3,5.8v2l13.4-7.8H337.1z M331.6,169l-4.8,2.8v1.8l8.1-4.5h-3.3V169z
					 M326.8,169v1.5l2.5-1.5H326.8z M326.8,194.2h27c-10.1-3-19.2-8.1-27-14.6V194.2z M358.1,195.3h-31.3v1.5h37.1
					C361.9,196.5,360.1,195.8,358.1,195.3z M327.5,53.1l22-12.6C341.4,43.5,334.1,47.8,327.5,53.1z M347,158.7
					c-0.5-0.3-0.8-0.8-1.3-1l-17.4,9.8h3.3L347,158.7z M332.3,142l-0.8-1.5L329,142h3H332.3z M348,169l-19,10.9
					c0.5,0.3,0.8,0.8,1.3,1L351,169H348z M376.2,37.7H373L329.3,63h3.3L376.2,37.7z M344.7,156.9c-0.5-0.3-0.8-1-1.3-1.3l-9.3,5.6
					l-4.5,4.3L344.7,156.9z M353.3,169l-22,12.6c0.5,0.3,1,0.8,1.5,1l23.7-13.6H353.3z M349.5,160.4c-0.5-0.3-1-0.8-1.5-1l-14.1,8.1
					h3L349.5,160.4z M358.8,169l-25,14.4l1.5,0.8l26.5-15.1L358.8,169L358.8,169z M334.6,143.3c2,3.3,4.3,6.1,6.8,8.8l8.6-8.8H334.6
					z M381.5,37.7h-3L334.8,63h3.3L381.5,37.7z M364.1,169l-27.5,15.9c0.5,0.3,1,0.8,1.5,1l29.3-16.9H364.1z M342.4,154.9
					c-0.5-0.3-0.5-0.8-1-1l-4.3,4.3L342.4,154.9z M352.3,161.9c-0.5-0.3-1.3-0.8-1.8-1l-11.4,6.6h3.3L352.3,161.9z M369.7,169
					l-30.5,17.4c0.5,0.3,1.3,0.8,1.8,1l32-18.4H369.7z M387.1,37.7h-3.3L340.4,63h3L387.1,37.7z M342.2,152.8
					c9.3,9.1,22,14.6,36.1,14.6c8.1,0,15.9-1.8,22.7-5v-19.2h-49L342.2,152.8z M375.2,169l-33.1,18.9c0.5,0.3,1,0.8,1.5,1l34.6-19.9
					H375.2z M355,163.4c-0.5-0.3-1.3-0.5-1.8-0.8l-8.6,4.8h3L355,163.4z M380.5,169l-35.6,20.4c0.5,0.3,1.5,0.5,2,0.8l36.9-21.2
					H380.5z M392.4,37.7h-3L345.7,63h3.3L392.4,37.7z M386.1,169l-37.9,21.7c0.5,0.3,1,0.5,1.8,0.8l39.1-22.5H386.1z M358.1,164.7
					c-0.5-0.3-1.3-0.5-1.8-0.8l-6.3,3.5h3.3L358.1,164.7z M398,37.7h-3.3L351.3,63h3L398,37.7z M391.4,169l-39.9,23
					c0.8,0.3,1.3,0.5,2,0.8l41.1-23.7h-3.2V169z M353.3,142H401v-0.8l-0.5,0.3v-1.3l0.5-0.3v-2l-0.5,0.5v-1.3l0.5-0.5v-1.8l-0.5,0.3
					v-1.3l0.5-0.3v-2l-0.5,0.5v-1.3l0.5-0.5v-1.8l-0.5,0.3v-1.3l0.5-0.3v-2l-0.5,0.5v-1.3l0.5-0.5V122l-0.5,0.3V121l0.5-0.3v-2
					l-0.5,0.5v-1.3l0.5-0.5v-1h-22.5L353.3,142z M396.9,169L355,193.2c0.8,0.3,1.3,0.3,2,0.5l43.2-24.7H396.9z M361.4,166
					c-0.8-0.3-1.3-0.3-2-0.5l-3.8,2h3.3L361.4,166z M401.7,38.5c-0.8-0.3-1.3-0.3-2-0.5l-43.2,25h3.3L401.7,38.5z M401,169.5
					l-42.2,24.7h3l39.1-22.7v-2H401z M364.9,167.2c-0.8-0.3-1.3-0.5-2-0.8l-1.8,1h3L364.9,167.2z M405.3,39.8
					c-0.8-0.3-1.3-0.5-2-0.8l-41.1,24h3L405.3,39.8z M366.9,64h-1.5l-1.3,0.8C364.9,64.5,365.9,64.2,366.9,64z M401,172.8
					l-36.9,21.5h3.3l33.6-19.7V172.8z M364.1,195.3c0.3,0,0.5,0.3,0.8,0.3l0.3-0.3H364.1z M367.4,195.3l-0.8,0.5
					c0.8,0,2,0.5,2.8,0.5l1.3-1H367.4z M367.4,36.2l2.5-1.3C368.4,35.2,367.4,36.2,367.4,36.2z M408.6,41c-0.5-0.3-1-0.5-1.8-0.8
					L367.4,63h3.3L408.6,41z M372.7,34.7l-3,1.5h3.3l3.3-1.8C375,34.5,374,34.7,372.7,34.7z M401,175.8l-31.3,18.4h3.3l28-16.4
					V175.8z M373,195.3l-1.8,1c1,0,2,0.3,3,0.3l2-1.3H373z M411.6,42.3c-0.5-0.3-1.3-0.5-1.8-0.8L373,63h3.3L411.6,42.3z
					 M379.5,34.5h-1l-3.3,1.8h3l3.5-1.8H379.5z M401,179.1l-25.7,15.1h3l22.7-13.4V179.1z M381.5,195.3h-3l-2.3,1.3
					c0.8,0,1.3,0.3,2,0.3c0.3,0,1-0.3,1.3-0.3L381.5,195.3z M414.6,43.8c-0.5-0.3-1.3-0.8-1.8-1L378.5,63h3L414.6,43.8z M402.5,96.8
					v18.7h27.8c0-13.9-5.8-26.5-14.9-35.8l-35.6,35.8H401V96.8H402.5z M383.8,34.5l-3.3,1.8h3.3l3-1.8H383.8z M401,182.1l-20.4,12.1
					h3.3l17.2-10.1v-2H401z M387.1,195.3h-3.3l-2,1.3c1.3,0,2.3-0.3,3.5-0.3L387.1,195.3z M417.6,45.3c-0.5-0.3-1.3-0.8-1.8-1
					l-32,18.7h3.3L417.6,45.3z M388.6,34.7l-2.5,1.5h3l1.5-1C389.9,35.2,389.4,34.7,388.6,34.7z M401,185.4l-14.9,8.8h3l11.9-7.1
					V185.4z M392.4,195.3h-3l-1.3,0.8c1.5-0.3,2.8-0.3,4.3-0.5V195.3z M420.2,46.8c-0.5-0.3-1-0.8-1.5-1L389.4,63h3L420.2,46.8z
					 M389.9,64l0.3,0.3l0.3-0.3H389.9z M389.9,167.5h1.5l1-0.5C391.6,167.2,390.6,167.2,389.9,167.5z M391.4,36.2h2.3l-1.5-0.5
					L391.4,36.2z M401,188.4l-9.6,5.8h3.3l6.3-3.8L401,188.4L401,188.4z M392.7,64l-0.8,0.5c0.8,0.3,1.3,0.5,2,0.8l1.8-1.3H392.7z
					 M401,196.8v-1.5h-2.3c-2,0.5-3.8,1.3-5.8,1.5H401z M401,165.2v-1.5l-3,1.5l-4.3,2.3h3.3L401,165.2z M422.9,48.3l-1.5-0.8
					L394.7,63h3.3L422.9,48.3z M398,64l-2.5,1.8c0.8,0.3,1.3,0.3,2,0.5l3.8-2.3H398z M396.9,194.2h1.5c0.8-0.3,1.8-0.5,2.5-0.8v-1.8
					L396.9,194.2z M403.5,64l-4.8,2.8c0.5,0.3,1.3,0.8,1.8,1l6.1-3.8H403.5z M401,167.5v-1l-1.8,1H401z M425.2,50.1
					c-0.5-0.3-0.8-0.8-1.3-1L400.2,63h3.3L425.2,50.1z M408.8,64l-7.1,4.3c0.5,0.3,1.3,0.5,1.8,0.8l8.6-5h-3.3V64z M430,116.8h-3
					l-24.5,14.4v1.8L430,116.8z M424.7,116.8h-3l-19.2,11.1v1.8L424.7,116.8z M419.4,116.8h-3.3l-13.6,8.1v1.8L419.4,116.8z
					 M413.9,116.8h-3.3l-8.1,4.8v1.8L413.9,116.8z M408.3,116.8h-3c-1,0.5-1.8,1.3-2.8,1.8v1.8L408.3,116.8z M403,116.8h-0.5v0.3
					L403,116.8z M430,120v-2l-27.5,16.2v1.8L430,120z M429.5,123.3c0-0.8,0.3-1,0.3-1.8l-27.3,15.9v1.8L429.5,123.3z M429,126.8
					c0.3-0.8,0.3-1.3,0.3-2l-26.8,15.7v1.5h0.5L429,126.8z M402.5,161.7c8.1-4.3,14.9-10.6,19.7-18.4h-19.7V161.7z M430.3,148.3
					v-1.8l-18.9,10.9c-2.8,2.3-5.6,4.3-8.8,5.8v1.3L430.3,148.3z M430.3,151.6v-2l-27.8,16.2v1.8L430.3,151.6z M430.3,169h-0.8
					l-27,15.7v1.8l27.8-15.9V169z M424.2,169l-21.7,12.6v1.8l25-14.4L424.2,169L424.2,169z M418.7,169l-16.2,9.3v1.8l19.4-11.1
					H418.7z M413.4,169l-10.9,6.3v1.8l13.9-8.1H413.4z M407.8,169l-5.3,3v1.8l8.6-4.8H407.8z M402.5,169v1.8l3-1.8H402.5z
					 M430.3,171.8L402.5,188v1.8l27.8-16.2V171.8z M430.3,174.8L402.5,191v1.8l27.8-15.9V174.8z M430.3,196.8v-1.5h-27.8v1.5H430.3z
					 M403,37.7c12.6,4,23.7,10.6,32.8,19.7l19.9-19.7H403z M403,194.2h27.3v-14.6C422.4,186.2,413.1,191.2,403,194.2z M414.4,64
					l-9.8,5.8c0.5,0.3,1.3,0.8,1.8,1l11.4-6.8H414.4z M430.3,154.6v-1.8l-25.7,14.6h3.3L430.3,154.6z M428,130.6
					c0.3-0.8,0.3-1.5,0.5-2.3L405.3,142h3L428,130.6z M427.7,51.9c-0.5-0.3-1-0.8-1.5-1L405.8,63h3L427.7,51.9z M429.5,178.3
					L407,191.5C415.1,188.4,422.9,183.9,429.5,178.3z M419.9,64l-12.6,7.3c0.5,0.3,1,0.8,1.5,1l14.1-8.3H419.9z M425.2,64l-15.4,9.1
					c0.5,0.3,0.8,0.8,1.3,1L428.5,64H425.2z M430.3,157.9v-2l-20.2,11.6h3L430.3,157.9z M426.7,134.7c0.3-0.8,0.5-1.8,0.8-2.5
					l-16.9,9.8h3.3L426.7,134.7z M430,53.6c-0.5-0.3-0.8-0.8-1.3-1L411.1,63h3.3L430,53.6z M422.9,70.6l4.3-4.3l-15.1,8.6
					c0.5,0.3,0.8,1,1.3,1.3L422.9,70.6z M415.4,77.9l4.3-4.3l-5.6,3.3C414.6,77.1,414.9,77.4,415.4,77.9z M430.3,160.9v-1.8
					l-14.9,8.3h3.3L430.3,160.9z M430.3,145.3v-2l-11.1,6.3c-1,1.3-2.3,2.8-3.5,4L430.3,145.3z M424.7,138.7c0.5-0.8,1-1.8,1.3-2.5
					l-9.8,5.8h3.3L424.7,138.7z M431.3,96.8v18.7H459c0-19.4-7.1-37.6-18.7-51.5H431l-14.6,14.9c6.8,6.8,11.6,15.7,13.9,25.5v-7.6
					H431.3z M432.3,55.7c-0.5-0.3-0.8-0.8-1.3-1L416.6,63h3L432.3,55.7z M430.3,164.2v-2l-9.3,5.3h3.3L430.3,164.2z M424.7,143.3
					l-1.5,1c-0.8,1-1.3,2-2,3l6.8-4H424.7z M422.9,142c0.3-0.5,0.5-0.8,0.8-1.3l-2,1.3H422.9z M434.3,57.7c-0.5-0.5-0.8-1-1.3-1.3
					L421.9,63h3.3L434.3,57.7z M430.3,136.9l-4.5,2.5c-0.5,0.8-0.8,1.8-1.3,2.5h0.3l5.6-3v-2H430.3z M430.3,167.2v-1.8l-3.8,2h3
					L430.3,167.2z M430.3,133.9l-2.5,1.3c-0.3,0.8-0.8,1.8-1,2.5l3.5-2V133.9z M427,142h3.3v-1.8L427,142z M430.5,63l4.3-4.3
					l-7.3,4.3H430.5z M430.3,130.6l-1.3,0.8l-0.8,2.3l2-1L430.3,130.6L430.3,130.6z M430.3,127.6H430c-0.3,0.8-0.3,1.3-0.5,2
					l0.8-0.3V127.6z M457.5,116.8h-3.3l-23,13.1v2L457.5,116.8z M452,116.8h-3.3l-17.4,10.1v1.8L452,116.8z M446.4,116.8h-3
					l-12.1,6.8v2L446.4,116.8z M441.1,116.8h-3.3l-6.6,3.8v1.8L441.1,116.8z M435.6,116.8h-3l-1.3,0.5v2L435.6,116.8z M459,119v-2
					l-27.8,16.2v1.8L459,119z M459,122.3v-2l-27.8,15.9v2L459,122.3z M458.5,125.6c0-0.8,0.3-1.3,0.3-2l-27.5,15.9v1.8L458.5,125.6z
					 M454.2,144c0-0.3,0.3-0.5,0.3-0.8H452l-20.7,11.9v2L454.2,144z M449.7,143.3h-3l-15.4,8.8v1.8L449.7,143.3z M444.4,143.3h-3.3
					l-9.8,5.6v2L444.4,143.3z M438.8,143.3h-3l-4.5,2.5v1.8L438.8,143.3z M433.5,143.3h-2.3v1.3L433.5,143.3z M452.5,148.1
					c0.3-0.8,0.8-1.8,1-2.5l-22.2,12.9v1.8L452.5,148.1z M450.5,152.3c0.5-0.8,0.8-1.8,1.3-2.5l-20.4,11.6v2L450.5,152.3z
					 M447.9,156.9c0.5-1,1-1.8,1.5-2.8l-18.2,10.6v1.8L447.9,156.9z M431.3,194.2H459V169h-18.2c-3,3.5-6.1,6.3-9.6,9.3v15.9H431.3z
					 M435.1,169l-3.8,2v1.8l7.1-3.8H435.1z M431.3,169v0.8l1.5-0.8H431.3z M438.1,170.3l-6.8,3.8v2l2.5-1.5
					C435.3,173.3,436.8,171.8,438.1,170.3z M444.7,161.9c0.8-1,1.3-2,2-3l-14.9,8.6h3.3L444.7,161.9z M439.4,63
					c-1-1.3-2.3-2.5-3.5-3.8l-3.5,3.8H439.4z M458,128.9c0-0.8,0.3-1.3,0.3-2L432.5,142h3L458,128.9z M436.8,58.4
					c1.5,1.5,2.8,3,4,4.5H459V37.7h-1.5L436.8,58.4z M440.4,167.5c1-1,2-2,2.8-3.3l-5.8,3.3H440.4z M457.5,132.4
					c0.3-0.8,0-1.3,0.3-2l-20,11.6h3.3L457.5,132.4z M459,101.4V64h-16.9C450.7,74.6,456.5,87.5,459,101.4z M442.1,167.5H459v-24.2
					h-3.3C452.5,152.1,447.9,160.2,442.1,167.5z M456.5,136.2c0.3-0.8,0.3-1.5,0.5-2.3l-13.6,8.1h3L456.5,136.2z M455.5,140l0.8-2.3
					l-7.6,4.3h3.3L455.5,140z M454.7,142c0-0.3,0.3-0.3,0.3-0.5l-0.8,0.5H454.7z M459,142v-11.6c-0.8,4-1.5,7.8-2.8,11.6H459z
					 M459,36.2V36l-0.3,0.3L459,36.2L459,36.2z"/>
				<path class="st1" d="M447.4,141.7h24.7l43.7-104h-0.3h-43.4v-1.5H515L500.2,0.6l1.3-0.5l15.1,36.1l13.6-33.1l-1-2.5l1.3-0.5
					l0.5,1.3l0.5-1.3l1.3,0.5l-1,2.5l13.6,33.1l15.1-36.1l1.3,0.5l-14.9,35.6h39.9v1.5h-40.4h-0.3l43.7,104h23.7v1.5h-23.2
					l10.1,24.2h22.7v1.5h-22.2l10.6,25.2h14.6v1H612l15.7,37.4l-1.3,0.5l-15.7-37.9H583l15.7,37.4l-1.3,0.5l-15.7-37.9H480.2
					L464.5,233l-1.3-0.5l15.7-37.4h-27.8L435.4,233l-1.3-0.5l15.7-37.4h-16.2v-1h16.7l10.6-25.2h-21.5v-1.5h22l10.1-24.2h-24.2
					L447.4,141.7L447.4,141.7z M488.8,171.8L452.2,193l-0.5,1.3h1.8l34.3-19.9L488.8,171.8z M490.1,169h-1.5L454,188.7l-1,2.5
					l36.6-21.2L490.1,169z M483,169l-27.3,15.7l-1,2.5l31.6-18.2H483z M487.1,176.1l-31.3,18.2h3.3l27-15.9L487.1,176.1z M477.5,169
					l-19.9,11.6l-1,2.3l24.2-13.9L477.5,169L477.5,169z M472.2,169l-12.9,7.3l-1,2.5l16.9-9.8H472.2z M466.6,169l-5.6,3.3l-1,2.3
					l9.8-5.6H466.6z M485.3,180.1l-24,14.1h3l19.9-11.6L485.3,180.1z M462.3,169l-0.5,1.5l2.5-1.5H462.3z M500.7,143.3h-0.5
					L464.6,164l-1.3,2.3l36.6-21.2L500.7,143.3z M499.2,146.8l-35.8,20.7h3.3l31.6-18.2L499.2,146.8z M494.9,143.3l-28.8,16.4
					l-1,2.5l32.8-18.9H494.9z M483.5,184.4l-16.9,9.8h3.3l12.6-7.6C482.8,185.9,483.3,185.2,483.5,184.4z M489.3,143.3l-21.5,12.4
					l-1,2.3l25.7-14.6L489.3,143.3L489.3,143.3z M483.8,143.3l-14.1,8.1l-1,2.5l18.4-10.6H483.8z M497.4,151.1l-28.5,16.4h3
					l24.5-14.1L497.4,151.1z M478.5,143.3l-7.1,4l-1,2.3l11.1-6.3H478.5z M473.2,143.3l-1,2.3l4-2.3H473.2z M481.8,188.4l-9.6,5.8h3
					l5.6-3.3L481.8,188.4z M511.3,117.8L474.9,139l-1,2.3l36.3-21.2L511.3,117.8z M495.6,155.1l-21.5,12.4h3.3l17.2-9.8L495.6,155.1
					z M509.8,121.8l-34.6,19.9h3l30.5-17.4L509.8,121.8z M513.1,113.5l-36.3,21.2l-1,2.5L512,116L513.1,113.5z M514.8,109.4
					l-36.3,21.2l-1,2.3l36.3-21.2L514.8,109.4z M477.5,194.2h2l0.5-1.5L477.5,194.2z M516.6,105.1l-36.3,21.2l-1,2.5l36.3-21.2
					L516.6,105.1z M494.1,159.4l-14.4,8.1h3.3l10.1-5.8L494.1,159.4z M508,126.1l-27.5,15.7h3.3l23.2-13.4L508,126.1z M518.4,101.1
					l-36.6,21.2l-1,2.3l36.6-21L518.4,101.1z M581.2,194.2L570.6,169h-79.3l-10.6,25.2H581.2z M520.1,96.8L483.5,118l-1,2.5
					l36.6-21.2L520.1,96.8z M521.9,92.8L485.3,114l-1,2.3l36.6-21L521.9,92.8z M492.4,163.4l-7.1,4h3l3-1.5L492.4,163.4z
					 M523.7,88.5l-36.6,21.2l-1,2.5L522.7,91L523.7,88.5z M506.2,130.1L486,141.7h3.3l15.9-9.1L506.2,130.1z M525.4,84.4l-36.6,21.2
					l-1,2.3l36.6-21L525.4,84.4z M527.2,80.1l-36.6,21.2l-1,2.5l36.3-21.2L527.2,80.1z M528.7,76.1l-36.3,21.2l-1,2.3l36.3-21
					L528.7,76.1z M504.5,134.4l-12.9,7.3h3l8.8-5L504.5,134.4z M536,143.3h-3l-40.6,23.5l-0.5,0.8h2L536,143.3z M530.2,72.6v-0.5
					l-36.1,21l-1,2.5l36.3-21.2L530.2,72.6z M527.4,143.3l-33.3,19.2l-1,2.5l37.6-21.7H527.4z M529,69.5L495.9,89l-1,2.3l34.8-20.2
					L529,69.5z M522.1,143.3l-26.3,15.1l-1,2.3l30.3-17.4L522.1,143.3L522.1,143.3z M541.6,143.3h-3.3l-42.2,24.2h3L541.6,143.3z
					 M528,67l-30.3,17.7l-1.3,2.5l32.3-18.7L528,67z M516.6,143.3l-18.9,10.9l-1,2.5l23.2-13.4H516.6z M502.7,138.5l-5.8,3.3h3.3
					l1.5-0.8L502.7,138.5z M526.9,64.5l-27.8,16.2l-1,2.3l29.6-17L526.9,64.5z M511,143.3l-11.9,6.8l-1,2.3l16.2-9.1H511z M525.9,62
					l-25,14.4l-1,2.5l26.5-15.4L525.9,62z M505.7,143.3l-4.8,2.5l-1,2.5l8.8-5H505.7z M546.9,143.3h-3l-42.4,24.2h3.3L546.9,143.3z
					 M524.9,59.5l-22.2,12.9l-1,2.3L525.4,61L524.9,59.5z M502.2,143.3l-0.5,0.8l1.8-0.8H502.2z M559.3,141.7L531,74.1l-28.3,67.7
					L559.3,141.7L559.3,141.7z M523.7,56.9L504.5,68l-1,2.5l21-12.1L523.7,56.9z M522.7,54.4L506.2,64c-0.3,0.8-0.8,1.5-1,2.3
					L523.4,56L522.7,54.4z M521.6,51.9L508,59.7l-1,2.5l15.1-8.8L521.6,51.9z M552.4,143.3h-3.3L507,167.5h3.3L552.4,143.3z
					 M520.6,49.4l-10.9,6.3l-1,2.3l12.4-7.1L520.6,49.4z M519.6,46.8l-8.1,4.5l-1,2.5l9.6-5.6L519.6,46.8z M518.4,44.3l-5,3l-1,2.3
					l6.8-3.8L518.4,44.3z M558,143.3h-3.3l-42.2,24.2h3L558,143.3z M517.4,41.8l-2.5,1.3l-1,2.5l4.3-2.5L517.4,41.8z M516.6,39.5
					l-1,1.8l1.3-0.8L516.6,39.5z M522.1,37.7h-3.3l-1.5,0.8l0.8,1.5L522.1,37.7z M544.1,36.2L531,4.7l-13.1,31.6L544.1,36.2
					L544.1,36.2z M560.5,144.8l-0.8-1.5l-41.9,24.2h3.3L560.5,144.8z M527.7,37.7h-3.3l-5.8,3.3l0.5,1.5L527.7,37.7z M533,37.7h-3
					l-10.3,5.8l0.5,1.5L533,37.7z M538.6,37.7h-3.3L520.7,46l0.5,1.5L538.6,37.7z M543.9,37.7h-3l-19.2,10.9l0.8,1.5L543.9,37.7z
					 M543.4,41l1-2.5l-21.7,12.6l0.8,1.5L543.4,41z M561.5,147.3l-0.5-1.5l-37.6,21.7h3L561.5,147.3z M541.8,45.3l1-2.5l-18.9,10.9
					l0.5,1.5L541.8,45.3z M540.1,49.4l1-2.5l-16.2,9.3l0.5,1.5L540.1,49.4z M538.3,53.6l1-2.5l-13.4,7.8l0.5,1.3L538.3,53.6z
					 M536.5,57.7c0.3-0.8,0.8-1.8,1-2.5l-10.6,6.3l0.8,1.3L536.5,57.7z M534.8,62l1-2.5L528,64l0.8,1.5L534.8,62z M562.5,149.8
					l-0.5-1.5l-33.3,19.2h3.3L562.5,149.8z M533,66l1-2.5l-4.8,3l0.5,1.5L533,66z M531.2,70.3l1-2.5l-2,1.3l0.5,1.5L531.2,70.3z
					 M554.2,60.2l-0.8-1.5l-21.2,12.1l-0.5,1.8v0.5L554.2,60.2z M555.2,62.7l-0.8-1.5l-22.2,12.9l0.8,1.5L555.2,62.7z M552.4,56.2
					L534,66.8l-1,2.3l20.2-11.4L552.4,56.2z M556.2,65.3l-0.5-1.5l-22.5,12.9l0.8,1.5L556.2,65.3z M563.8,152.3l-0.8-1.5l-28.8,16.7
					h3L563.8,152.3z M557.2,67.8l-0.5-1.5l-22.2,12.9l0.5,1.5L557.2,67.8z M551.4,53.6l-15.7,8.8l-1,2.5l17.2-9.8L551.4,53.6z
					 M558.5,70.3l-0.8-1.5l-22.2,12.9l0.5,1.5L558.5,70.3z M550.4,51.1l-12.9,7.3l-1,2.3l14.4-8.3L550.4,51.1z M559.5,72.8l-0.8-1.5
					l-22.2,12.9l0.8,1.5L559.5,72.8z M560.5,75.4l-0.8-1.5l-22.2,12.9l0.8,1.5L560.5,75.4z M549.2,48.6l-9.8,5.6l-1,2.5l11.6-6.8
					L549.2,48.6z M561.5,77.9l-0.5-1.5l-22.5,12.9l0.8,1.5L561.5,77.9z M564.8,154.9l-0.8-1.5l-24.5,14.1h3.3L564.8,154.9z
					 M562.5,80.4l-0.5-1.5l-22.2,12.9l0.5,1.5L562.5,80.4z M548.1,45.8l-7.1,4.3l-1,2.3l8.8-5L548.1,45.8z M563.8,82.9l-0.8-1.5
					l-22.2,12.9l0.5,1.5L563.8,82.9z M547.1,43.3l-4.3,2.5l-1,2.5l5.8-3.5L547.1,43.3z M564.8,85.5L564,84l-22.2,12.9l0.8,1.5
					L564.8,85.5z M565.8,88l-0.5-1.5l-22.5,13.1l0.8,1.3L565.8,88z M546.1,40.8l-1.5,1l-1,2.3l3-1.8L546.1,40.8z M566.8,90.5
					l-0.5-1.3l-22.2,12.9l0.5,1.3L566.8,90.5z M567.8,93l-0.5-1.3l-22.2,12.9l0.5,1.5L567.8,93z M565.8,157.4l-0.8-1.5l-19.9,11.6
					h3.3L565.8,157.4z M545.4,39.5V40l0.3-0.3L545.4,39.5z M569.1,95.8l-0.8-1.5l-22.2,12.9l0.5,1.5L569.1,95.8z M570.1,98.3
					l-0.8-1.5l-22.2,12.9l0.8,1.5L570.1,98.3z M571.1,100.8l-0.5-1.5l-22.5,12.9l0.8,1.5L571.1,100.8z M572.1,103.4l-0.5-1.5
					l-22.2,12.9l0.5,1.5L572.1,103.4z M573.1,105.9l-0.5-1.5l-22.2,12.9l0.5,1.5L573.1,105.9z M566.8,159.9l-0.5-1.3l-15.7,8.8h3
					L566.8,159.9z M574.4,108.4l-0.8-1.5l-22.2,12.9l0.5,1.5L574.4,108.4z M575.4,110.9l-0.8-1.5l-22.2,12.9l0.8,1.5L575.4,110.9z
					 M576.4,113.5l-0.5-1.5l-22.5,12.9l0.8,1.5L576.4,113.5z M577.4,116l-0.5-1.5l-22.2,12.9l0.5,1.5L577.4,116z M578.4,118.5
					l-0.5-1.5l-22.2,12.9l0.5,1.5L578.4,118.5z M567.8,162.4c-0.3-0.5-0.3-0.8-0.5-1.3l-11.4,6.3h3.3L567.8,162.4z M579.7,121
					l-0.8-1.5l-22.2,12.9l0.5,1.5L579.7,121z M580.7,123.6l-0.8-1.5L557.7,135l0.8,1.5L580.7,123.6z M581.7,126.1l-0.5-1.5
					l-22.5,13.1l0.8,1.3L581.7,126.1z M582.7,128.6l-0.5-1.5L560,140.2l0.5,1.3L582.7,128.6z M561.3,143.3l0.3,1l1.8-1H561.3z
					 M569.1,165.2l-0.8-1.5l-6.8,3.8h3L569.1,165.2z M565.6,143.3l-3.5,2l0.5,1.5l6.3-3.5H565.6z M584,131.1l-0.8-1.3l-21,11.9h3.3
					L584,131.1z M571.1,143.3l-8.1,4.5l0.8,1.5l10.3-6.1h-3V143.3z M576.4,143.3l-12.4,7.1l0.8,1.5l14.9-8.6H576.4z M582,143.3
					l-16.7,9.6l0.5,1.5l19.4-11.1H582z M588.8,143.3h-1.3l-21.2,12.1l0.5,1.5l22.5-12.9L588.8,143.3z M570.1,167.5l-0.8-1.3
					l-2.5,1.3H570.1z M589.5,145l-22.2,12.9l0.8,1.5l22.2-12.9L589.5,145z M585,133.7l-0.8-1.3l-16.4,9.3h3L585,133.7z M590.6,147.5
					l-22.2,12.9l0.8,1.5l22.2-12.9L590.6,147.5z M591.8,150.1L569.3,163l0.8,1.5l22.2-12.9L591.8,150.1z M592.8,152.6l-22.2,12.9
					l0.5,1.5l22.2-12.9L592.8,152.6z M571.9,169l0.3,0.5l1.3-0.5H571.9z M594.6,156.6l-0.8-1.5l-21.5,12.4h3.3L594.6,156.6z
					 M575.7,169l-3,1.5l0.8,1.5l5.6-3H575.7z M586,136.4l-0.8-1.5l-12.1,6.8h3.3L586,136.4z M581,169l-7.3,4l0.8,1.5l9.8-5.6H581
					V169z M586.5,169l-11.6,6.6l0.5,1.5l14.4-8.1H586.5z M592.1,169l-16.2,9.3l0.5,1.3l18.7-10.6H592.1z M599.6,169h-2.3l-20.4,11.9
					l0.5,1.3l22.5-12.9L599.6,169z M595.6,159.2l-0.8-1.5l-16.9,9.8h3L595.6,159.2z M600.1,170.5l-22.2,12.9l0.8,1.5l22.2-13.1
					L600.1,170.5z M587,139l-0.5-1.5l-7.8,4.3h3.3L587,139z M601.4,173l-22.5,12.9l0.8,1.5l22.2-12.9L601.4,173z M602.4,175.6
					l-22.2,12.9l0.5,1.5l22.2-12.9L602.4,175.6z M603.4,178.1L581.2,191l0.5,1.5l22.2-12.9L603.4,178.1z M605.2,182.1l-0.8-1.5
					l-22.2,12.9l0.3,0.8h1.8L605.2,182.1z M596.6,161.7l-0.5-1.5l-12.9,7.3h3.3L596.6,161.7z M588,141.5l-0.5-1.5l-3.3,1.8h3
					L588,141.5z M606.2,184.7l-0.8-1.5l-18.9,11.1h3.3L606.2,184.7z M597.6,164.2l-0.5-1.5l-8.3,4.8h3L597.6,164.2z M607.2,187.2
					l-0.5-1.5l-14.6,8.6h3L607.2,187.2z M598.6,166.7l-0.5-1.5l-4,2.3h3.3L598.6,166.7z M608.2,189.7l-0.5-1.5l-10.3,6.1h3.3
					L608.2,189.7z M609.2,192.2l-0.5-1.5l-5.8,3.5h3L609.2,192.2z M610.2,194.2l-0.5-1l-1.5,1H610.2z"/>
				<path class="st1" d="M785.9,37.7h-13.6v156.5h14.1v1h-13.9l10.3,14.1l-1.3,0.5l-9.3-12.9v35.8h-1.5v-37.6h-24.5l19.9,27.5
					l-1,0.8l-19.7-26.8v36.1h-1v-37.6h-88.3v37.6h-1.5v-37.6h-25.2v37.6h-1v-37.6h-16.7v-1h16.7V37.7H609v-1.5h19.4l-7.6-10.1l1-0.8
					l6.6,8.8V1.9h1V36l0.5,0.3h1.5h2.3h3.3h17.7L632.2,5.4l1-0.8l21.5,29.5V1.9h1.5V36l0.3,0.3h88.1V1.9h1v34.3h25.2V1.9h1.5v34.3
					h13.6L785.9,37.7L785.9,37.7z M629.9,38.5l-0.5,0.3v1.8l1.5-0.8L629.9,38.5z M631.7,40.8l-2.3,1.3v1.8l3-1.8L631.7,40.8z
					 M633.2,43l-3.8,2v1.8l4.8-2.5L633.2,43z M634.7,45.3l-5.3,3v1.8l6.3-3.5L634.7,45.3z M636.5,47.3l-7.1,4v1.8l8.1-4.5
					L636.5,47.3z M638,49.6l-8.6,5v1.8l9.6-5.6L638,49.6z M639.8,51.9l-10.3,5.8v1.8l11.1-6.3L639.8,51.9z M641.3,54.1L629.4,61v1.8
					l12.9-7.3L641.3,54.1z M642.8,56.2c-4.5,2.5-8.8,5.3-13.4,7.8v1.8l14.4-8.1L642.8,56.2z M644.6,58.4l-15.1,8.8V69l16.2-9.3
					L644.6,58.4z M646.1,60.7l-16.7,9.6v1.8L647.1,62L646.1,60.7z M647.9,63l-18.4,10.6v1.8l19.2-11.1L647.9,63z M649.4,65.3
					l-19.9,11.4v1.8l21-11.9L649.4,65.3z M651.1,67.3l-21.7,12.6v1.8l22.5-13.1L651.1,67.3z M652.7,69.5l-23.2,13.4v1.8l24.2-13.9
					L652.7,69.5z M654.7,72.6l-0.5-0.8l-24.7,14.4V88l25.2-14.6V72.6z M654.7,74.6l-25.2,14.6V91l25.2-14.6V74.6z M654.7,77.9
					l-25.2,14.6v1.8l25.2-14.6V77.9z M654.7,80.9l-25.2,14.6v1.8l25.2-14.6V80.9z M654.7,84.2l-25.2,14.6v1.8L654.7,86V84.2z
					 M654.7,87.2l-25.2,14.6v1.8L654.7,89V87.2z M654.7,90.5l-25.2,14.6v1.8l25.2-14.6V90.5z M654.7,93.5l-25.2,14.6v1.8l25.2-14.6
					V93.5z M654.7,96.8l-25.2,14.6v1.8l25.2-14.6V96.8z M654.7,99.8l-25.2,14.6v1.8l25.2-14.6V99.8z M654.7,103.1l-25.2,14.6v1.8
					l25.2-14.6V103.1z M654.7,106.1l-25.2,14.6v1.8l25.2-14.6V106.1z M654.7,109.4L629.5,124v1.8l25.2-14.6V109.4z M654.7,112.5
					l-25.2,14.6v1.8l25.2-14.6V112.5z M654.7,115.7l-25.2,14.6v1.8l25.2-14.6V115.7z M654.7,118.8l-25.2,14.6v1.8l25.2-14.6V118.8z
					 M654.7,122.1l-25.2,14.6v1.8l25.2-14.6V122.1z M654.7,125.1l-25.2,14.6v1.8l25.2-14.6V125.1z M654.7,128.4L629.4,143v1.8
					l25.2-14.6L654.7,128.4L654.7,128.4z M654.7,131.4L629.4,146v1.8l25.2-14.6L654.7,131.4L654.7,131.4z M654.7,134.7l-25.2,14.6
					v1.8l25.2-14.6V134.7z M654.7,137.7l-25.2,14.6v1.8l25.2-14.6V137.7z M654.7,141l-25.2,14.6v1.8l25.2-14.6V141z M654.7,144
					l-25.2,14.6v1.8l25.2-14.6V144z M654.7,147.3l-25.2,14.6v1.8l25.2-14.6V147.3z M654.7,150.3L629.4,165v1.8l25.2-14.6
					L654.7,150.3L654.7,150.3z M654.7,153.6l-25.2,14.6v1.8l25.2-14.6V153.6z M654.7,156.6l-25.2,14.6v1.8l25.2-14.6V156.6z
					 M654.7,159.9l-25.2,14.6v1.8l25.2-14.6V159.9z M654.7,162.9l-25.2,14.6v1.8l25.2-14.6V162.9z M654.7,166.2l-25.2,14.6v1.8
					l25.2-14.6V166.2z M654.7,169.3l-25.2,14.6v1.8l25.2-14.6V169.3z M654.7,172.5l-25.2,14.6v1.8l25.2-14.6V172.5z M654.7,175.6
					l-25.2,14.6v1.8l25.2-14.6V175.6z M654.7,180.6v-1.8l-25.2,14.6v0.8h2L654.7,180.6z M631.4,37.7l-0.5,0.3l1,1.3l2.8-1.5
					L631.4,37.7L631.4,37.7z M637,37.7l-4.3,2.3l1,1.5l6.6-3.8H637z M654.7,183.6v-1.8l-21,12.4h3.3L654.7,183.6z M642.6,37.7
					l-8.3,4.5l1,1.3l10.3-5.8H642.6z M647.9,37.7L636,44.6c0.3,0.5,0.5,0.8,0.8,1.3l14.4-8.1L647.9,37.7L647.9,37.7z M654.7,38.5
					v-0.8h-1.3l-15.9,9.1l1,1.3L654.7,38.5z M654.7,41.8V40l-15.4,9.1l0.8,1.3L654.7,41.8z M654.7,186.9v-1.8l-15.4,9.1h3
					L654.7,186.9z M654.7,44.8V43l-13.9,8.1l1,1.3L654.7,44.8z M654.7,48.1v-1.8l-12.4,7.1l1,1.3L654.7,48.1z M654.7,51.1v-1.8
					l-10.6,6.3l1,1.3L654.7,51.1z M654.7,190v-1.8l-10.1,6.1h3.3L654.7,190z M654.7,54.4v-1.8l-9.1,5.3l1,1.3L654.7,54.4z
					 M654.7,57.4v-1.8l-7.3,4.3l0.8,1.5L654.7,57.4z M654.7,60.7v-1.8l-5.8,3.3l1,1.3L654.7,60.7z M654.7,193.2v-1.8l-4.5,2.8h3
					L654.7,193.2z M654.7,63.7V62l-4.3,2.5l1,1.3L654.7,63.7z M654.7,67v-1.8l-2.5,1.5l1,1.3L654.7,67z M654.7,70.1v-1.8l-1,0.8
					l1,1.3V70.1z M656.7,38.8l-0.5,0.5V41l1.5-0.8L656.7,38.8z M658.2,41l-2,1.3v2l3-2L658.2,41z M660,43.3l-3.8,2.3v1.8l4.5-2.8
					L660,43.3z M661.5,45.6l-5.3,3v2l6.3-3.8L661.5,45.6z M663,47.8l-6.8,4v1.8l7.8-4.5L663,47.8z M664.8,49.9l-8.6,5v2l9.6-5.8
					L664.8,49.9z M666.3,52.1l-10.1,6.1V60l11.1-6.6L666.3,52.1z M668.1,54.4l-11.9,6.8v2l12.9-7.6L668.1,54.4z M669.6,56.7
					l-13.4,7.8v1.8l14.4-8.3L669.6,56.7z M671.3,58.7l-15.1,8.8v2l15.9-9.3L671.3,58.7z M673.9,62.2l-1-1.3l-16.7,9.8V72l0.3,0.3
					L673.9,62.2z M743.8,194.2l-0.3-0.5h-0.3l-0.8-1h0.3l-1-1.3l-0.8-0.8v-0.3l-0.8-1.3l-0.3,0.3l-0.5-1l-1-1.3l-0.8-1h0.3l-1-1.3
					l-0.8-1l-1-1.3l-0.8-0.8l0.3-0.3l-1-1.3l-0.8-0.8l-0.8-1.5l-0.3,0.3l-0.5-1l-1-1.3l-0.8-1h0.3l-1-1.3h-0.3l-0.5-1l-1-1.3
					l-0.8-0.8l0.3-0.3l-1-1.3l-0.8-0.8l-0.8-1.5l-0.3,0.3l-0.5-1l-1-1.3l-0.8-1l-0.8-1.3H720l-0.5-1l-1-1.3l-0.8-0.8l0.3-0.3l-1-1.3
					l-0.8-0.8l-1-1.3l-0.5-1l-1-1.3l-0.8-1l-0.8-1.3h-0.3l-0.5-1l-1-1.3l-0.8-0.8l-0.8-1.3l-0.8-1l-1-1.3l-0.8-1h0.3l-1-1.3l-0.8-1
					l-1-1.3l-0.5-0.8v-0.3l-1-1.3l-0.8-0.8l-0.8-1.3h-0.3l-0.5-1l-1-1.3l-0.8-1h0.3l-1-1.3l-0.8-1l-1-1.3l-0.5-0.8l-1-1.5l-0.8-0.8
					l-0.8-1.3h0.7l-0.5-1l-1-1.3l-0.8-1l-0.8-1.3l-0.8-1l-1-1.3l-0.5-0.8l-1-1.3l-0.8-1l-1-1.3l-0.5-1l-1-1.3l-0.5-0.8L656,72.6
					v119.9h87.8V194.2z M675.4,64.5l-1-1.3L657,73.3l1,1.3L675.4,64.5z M657.2,37.7l87.3,119.1V37.7H657.2z M677.1,66.8l-1-1.3
					l-17.4,10.1l0.8,1.3L677.1,66.8z M678.7,69l-1-1.3l-17.4,10.1l1,1.3L678.7,69z M680.2,71.3l-0.8-1.5l-17.7,10.1l1,1.5
					L680.2,71.3z M681.9,73.3l-1-1.3l-17.4,10.1l1,1.3L681.9,73.3z M683.4,75.6l-0.8-1.3L665,84.4l1,1.3L683.4,75.6z M685.2,77.9
					l-1-1.3l-17.4,10.1l0.8,1.3L685.2,77.9z M686.7,80.1l-1-1.3L668.3,89l1,1.3L686.7,80.1z M688.5,82.2l-1-1.3L670.1,91l0.8,1.5
					L688.5,82.2z M690,84.4l-1-1.3l-17.4,10.1l1,1.3L690,84.4z M691.5,86.7l-0.8-1.3L673,95.5l1,1.3L691.5,86.7z M693.3,89l-1-1.3
					l-17.4,10.1l1,1.3L693.3,89z M694.8,91.3l-1-1.5l-17.4,10.3l1,1.3L694.8,91.3z M696.6,93.3l-1-1.3l-17.4,10.1l0.8,1.3
					L696.6,93.3z M698.1,95.5l-1-1.3l-17.4,10.1l1,1.3L698.1,95.5z M699.6,97.8l-0.8-1.3l-17.4,10.1l0.8,1.3L699.6,97.8z
					 M701.4,100.1l-1-1.3L683,108.9l1,1.3L701.4,100.1z M702.9,102.1l-0.8-1.3l-17.7,10.1l1,1.5L702.9,102.1z M704.7,104.4l-1-1.3
					l-17.4,10.1l1,1.3L704.7,104.4z M706.2,106.7l-1-1.3l-17.4,10.1l1,1.3L706.2,106.7z M707.9,108.9l-1-1.3l-17.4,10.1l0.8,1.3
					L707.9,108.9z M709.4,111.2l-1-1.5L691,120l1,1.3L709.4,111.2z M711,113.2l-0.8-1.3L692.5,122l1,1.3L711,113.2z M712.7,115.5
					l-1-1.3l-17.4,10.1l1,1.3L712.7,115.5z M714.2,117.8l-0.8-1.3l-17.7,10.1l1,1.3L714.2,117.8z M716,120l-1-1.3l-17.4,10.1
					l0.8,1.3L716,120z M717.5,122.1l-1-1.3l-17.4,10.1l1,1.5L717.5,122.1z M719.3,124.3l-1-1.3l-17.4,10.1l0.8,1.3L719.3,124.3z
					 M720.8,126.6l-1-1.3l-17.4,10.1l1,1.3L720.8,126.6z M722.3,128.9l-0.8-1.3l-17.7,10.1l1,1.3L722.3,128.9z M724.1,131.1l-1-1.5
					L705.7,140l1,1.3L724.1,131.1z M725.6,133.2l-1-1.3L707.2,142l1,1.3L725.6,133.2z M727.4,135.4l-1-1.3L709,144.2l0.8,1.3
					L727.4,135.4z M728.9,137.7l-1-1.3l-17.4,10.1l1,1.3L728.9,137.7z M730.4,140l-0.8-1.3l-17.4,10.1l0.8,1.3L730.4,140z
					 M732.2,142.2l-1-1.5l-17.4,10.1l1,1.5L732.2,142.2z M733.7,144.3l-0.8-1.3l-17.7,10.1l1,1.3L733.7,144.3z M735.4,146.5l-1-1.3
					L717,155.4l1,1.3L735.4,146.5z M737,148.8l-1-1.3l-17.4,10.1l1,1.3L737,148.8z M738.7,151.1l-1-1.3l-17.4,10.1l0.8,1.3
					L738.7,151.1z M740.2,153.1l-1-1.3l-17.4,10.1l1,1.5L740.2,153.1z M741.8,155.4l-0.8-1.3l-17.7,10.1c0.3,0.5,0.8,0.8,1,1.3
					L741.8,155.4z M743.5,157.6l-1-1.3l-17.4,10.1l1,1.3L743.5,157.6z M744.5,160.2v-1.3l-0.5-0.3l-17.4,10.1l1,1.3L744.5,160.2z
					 M744.5,163.4v-1.8l-16.2,9.3l0.8,1.3L744.5,163.4z M744.5,166.5v-1.8l-14.6,8.3l1,1.3L744.5,166.5z M744.5,169.8V168l-12.9,7.3
					l0.8,1.3L744.5,169.8z M744.5,172.8V171l-11.4,6.6l1,1.3L744.5,172.8z M744.5,176.1v-1.8l-9.8,5.6l1,1.3L744.5,176.1z
					 M744.5,179.1v-1.8l-8.1,4.5l1,1.5C739.7,182.1,742.3,180.4,744.5,179.1z M744.5,182.4v-1.8l-6.6,3.5l1,1.3L744.5,182.4z
					 M744.5,185.4v-1.8l-4.8,2.8l0.8,1.3L744.5,185.4z M744.5,188.7v-1.8l-3.3,1.8l1,1.3L744.5,188.7z M744.5,191.7V190l-1.5,1
					l0.8,1.3L744.5,191.7z M770.8,37.7h-3l-22.2,12.6v1.8L770.8,37.7z M762.2,37.7l-16.7,9.6v1.8l19.9-11.4
					C765.4,37.7,762.2,37.7,762.2,37.7z M756.9,37.7L745.5,44v1.8l14.4-8.1C759.9,37.7,756.9,37.7,756.9,37.7z M751.4,37.7l-5.8,3.3
					v1.8l9.1-5L751.4,37.7L751.4,37.7z M746.1,37.7h-0.5v1.8l3.5-1.8H746.1z M770.8,40.8V39l-25.2,14.6v1.8L770.8,40.8z M770.8,44.1
					v-2l-25.2,14.6v1.8L770.8,44.1z M770.8,47.1v-1.8L745.5,60v1.8L770.8,47.1z M770.8,50.4v-2L745.5,63v1.8L770.8,50.4z
					 M770.8,53.4v-1.8l-25.2,14.6V68L770.8,53.4z M770.8,56.7v-2l-25.2,14.6v1.8L770.8,56.7z M770.8,59.7v-1.8l-25.2,14.6v1.8
					L770.8,59.7z M770.8,63v-2l-25.2,14.6v1.8L770.8,63z M770.8,66v-1.8l-25.2,14.6v1.8L770.8,66z M770.8,69.3v-2l-25.2,14.6v1.8
					L770.8,69.3z M770.8,72.3v-1.8l-25.2,14.6V87L770.8,72.3z M770.8,75.6v-2l-25.2,14.6V90L770.8,75.6z M770.8,78.6v-1.8
					l-25.2,14.6v1.8L770.8,78.6z M770.8,81.9v-2l-25.2,14.6v1.8L770.8,81.9z M770.8,84.9v-1.8l-25.2,14.6v1.8L770.8,84.9z
					 M770.8,88.2v-2l-25.2,14.6v1.8L770.8,88.2z M770.8,91.3v-1.8l-25.2,14.6v1.8L770.8,91.3z M770.8,94.5v-2l-25.2,14.6v1.8
					L770.8,94.5z M770.8,97.6v-1.8l-25.2,14.6v1.8L770.8,97.6z M770.8,100.8v-2l-25.2,14.6v1.8L770.8,100.8z M770.8,103.9v-1.8
					l-25.2,14.6v1.8L770.8,103.9z M770.8,107.2v-2l-25.2,14.6v1.8L770.8,107.2z M770.8,110.2v-1.8L745.6,123v1.8L770.8,110.2z
					 M770.8,113.5v-2l-25.2,14.6v1.8L770.8,113.5z M770.8,116.5v-1.8l-25.2,14.6v1.8L770.8,116.5z M770.8,119.8v-2l-25.2,14.6v1.8
					L770.8,119.8z M770.8,122.8V121l-25.2,14.6v1.8L770.8,122.8z M770.8,126.1v-2l-25.2,14.6v1.8L770.8,126.1z M770.8,129.1v-1.8
					L745.5,142v1.8L770.8,129.1z M770.8,132.4v-2L745.5,145v1.8L770.8,132.4z M770.8,135.4v-1.8l-25.2,14.6v1.8L770.8,135.4z
					 M770.8,138.7v-2l-25.2,14.6v1.8L770.8,138.7z M770.8,141.7V140l-25.2,14.6v1.8L770.8,141.7z M770.8,145v-2l-25.2,14.6v0.8
					l0.8,0.8L770.8,145z M745.8,160.7l-0.3,0.3v1.8l1.3-0.5L745.8,160.7z M747.3,162.9l-1.8,1v1.8l2.8-1.5L747.3,162.9z
					 M749.1,165.2l-3.5,2v1.8l4.5-2.5L749.1,165.2z M750.6,167.5l-5,2.8v1.8l6.1-3.3L750.6,167.5z M752.4,169.8l-6.8,3.8v1.8
					l7.6-4.3L752.4,169.8z M753.9,171.8l-8.3,4.8v1.8l9.3-5.3L753.9,171.8z M755.4,174.1l-9.8,5.8v1.8l10.9-6.3L755.4,174.1z
					 M757.2,176.3l-11.6,6.6v1.8l12.6-7.1L757.2,176.3z M758.7,178.6l-13.1,7.6v1.8l14.1-8.1L758.7,178.6z M760.4,180.6l-14.9,8.6
					v1.8l15.7-8.8L760.4,180.6z M763,184.1l-1-1.3l-16.4,9.6v1.8h0.3L763,184.1z M770.8,148.1v-1.8l-24,13.9l1,1.3L770.8,148.1z
					 M764.5,186.4l-0.8-1.3l-15.7,9.1h3.3L764.5,186.4z M770.8,151.3v-2l-22.2,13.1l0.8,1.3L770.8,151.3z M770.8,154.4v-1.8
					l-20.7,11.9l1,1.5L770.8,154.4z M770.8,157.6v-2l-18.9,11.1l0.8,1.3L770.8,157.6z M770.8,160.7v-1.8L753.4,169l1,1.3
					L770.8,160.7z M766.2,188.7l-1-1.3l-11.6,6.8h3L766.2,188.7z M770.8,164v-2l-15.9,9.3l1,1.3L770.8,164z M770.8,167v-1.8
					l-14.1,8.3l1,1.3L770.8,167z M770.8,170.3v-2l-12.6,7.3l1,1.5L770.8,170.3z M767.8,191l-1-1.3l-7.8,4.5h3.3L767.8,191z
					 M770.8,173.3v-1.8l-10.9,6.3l0.8,1.3L770.8,173.3z M770.8,176.6v-2l-9.3,5.6l1,1.3C765.2,179.6,768,178.3,770.8,176.6z
					 M770.8,179.6v-1.8l-7.8,4.5l1,1.3L770.8,179.6z M769.5,193.2l-1-1.5l-4,2.5h3.3L769.5,193.2z M770.8,182.9v-2l-6.1,3.8l1,1.3
					L770.8,182.9z M770.8,185.9v-1.8l-4.5,2.5l1,1.3C768.5,187.2,769.5,186.7,770.8,185.9z M770.8,189.2v-2c-1,0.5-1.8,1.3-2.8,1.8
					l0.8,1.3L770.8,189.2z M770.8,192.2v-1.8l-1.3,0.8l1,1.3L770.8,192.2z"/>
			</g>
		</g>
	</g>
</g>
</svg>
