<?xml version="1.0" encoding="utf-8"?>
<!-- Generator: Adobe Illustrator 21.0.0, SVG Export Plug-In . SVG Version: 6.00 Build 0)  -->
<svg version="1.1" id="Layer_1" xmlns="http://www.w3.org/2000/svg" xmlns:xlink="http://www.w3.org/1999/xlink" x="0px" y="0px"
	 viewBox="0 0 673.7 121" style="enable-background:new 0 0 673.7 121;" xml:space="preserve">
<style type="text/css">
	.st0{fill:none;stroke:#CECECE;stroke-miterlimit:10;}
	.st1{clip-path:url(#SVGID_2_);}
	.st2{fill:#CECECE;}
</style>
<g>
	<line class="st0" x1="-0.5" y1="120.1" x2="673.8" y2="120.1"/>
	<g>
		<g>
			<defs>
				<rect id="SVGID_1_" x="-85.5" y="-40.9" width="835" height="161"/>
			</defs>
			<clipPath id="SVGID_2_">
				<use xlink:href="#SVGID_1_"  style="overflow:visible;"/>
			</clipPath>
			<g class="st1">
				<g>
					<path class="st2" d="M125.6,88.2h-1.7v21.6h9.5v0.9h-9.5V124c0,1.1,0.2,1.9,0.2,3c0,1.1-0.2,1.7-0.2,2.8V143h16.4v1.3h-16.4
						v21.6h16.4v0.9h-16.4v32.1H123v-32.1h-21.6v32.1h-1.3v-32.1h-16h-5.6v32.1h-0.9v-32.1H45.4v32.1h-1.3v-32.1H22.5v32.1h-0.9
						v-32.1H3.1v-0.9h18.5v-21.6H3.1V143h18.5v-32.4H7.4v-0.9h14.2V88.2H5.1v-1.3h16.6v-16V54.5H5.1v-0.9h16.6V32.1H5.1v-1.3h16.6
						V1.5h0.9v29.3h21.6V1.5h1.3v29.3h16h16.4V1.5h0.9v29.3h21.6V1.5h1.3v29.3H123V1.5h0.9v29.3h11.9v1.3h-11.9v21.6h11.9v0.9h-11.9
						V87h1.7V88.2z M44.1,32.1H43L22.5,43.7v1.5l21.6-12.5V32.1z M38.3,32.1l-15.7,9.1v1.5l18.5-10.6H38.3z M33.7,32.1
						c-3.7,2.2-7.5,4.1-11.2,6.3v1.5l13.8-7.8H33.7z M29,32.1l-6.5,3.7v1.5l9.3-5.2H29z M24.3,32.1L22.6,33v1.5l4.5-2.4H24.3z
						 M44.1,34.9V34L22.5,46.5V48l12.7-7.3C37.8,38.3,40.9,36.4,44.1,34.9z M32.5,43.5l-9.9,5.6v1.5l7.1-4.1
						C30.5,45.5,31.6,44.6,32.5,43.5z M28.4,48.5L22.6,52v1.5l4.3-2.4C27.3,50.2,27.7,49.3,28.4,48.5z M22.5,54.5V56
						c0.9-0.4,1.5-0.9,2.4-1.3v-0.2H22.5z M23.6,58.2l0.6-1.9l-1.7,1.1v1.5L23.6,58.2z M44.1,59.7v-1.5L22.5,70.7v0.2
						c0,0.4,0.2,0.9,0.2,1.3L44.1,59.7z M22.7,61.4c0.2-0.6,0.2-1.1,0.4-1.7l-0.6,0.2v1.5H22.7z M22.5,80v0.4h0.2
						C22.7,80.2,22.5,80.2,22.5,80z M23,81.3l-0.4,0.2V83l0.9-0.4C23.2,82.1,23.2,81.7,23,81.3z M23.6,83.6l-1.1,0.6v1.5l1.5-0.9
						C23.8,84.5,23.8,84.1,23.6,83.6z M22.5,86.9h2.4c-0.2-0.4-0.2-0.6-0.4-1.1L22.5,86.9z M26,89.2c-0.2-0.4-0.2-0.6-0.4-1.1h-0.2
						l-2.8,1.5v1.5L26,89.2z M22.5,88.2v0.2l0.9-0.2H22.5z M27.3,91.2c-0.2-0.4-0.6-0.6-0.9-1.1l-3.9,2.2v1.5L27.3,91.2z M28.4,93.1
						c-0.2-0.4-0.4-0.6-0.6-1.1l-5.2,3v1.5L28.4,93.1z M29.9,95.1c-0.2-0.4-0.6-0.6-0.9-1.1l-6.5,3.7v1.5L29.9,95.1z M31.4,97
						c-0.2-0.4-0.6-0.6-0.9-1.1l-8,4.5v1.5L31.4,97z M32.9,98.7c-0.4-0.4-0.6-0.6-0.9-1.1l-9.5,5.4v1.5L32.9,98.7z M34.6,100.5
						c-0.4-0.2-0.4-0.6-0.9-1.1l-11.2,6.5v1.5L34.6,100.5z M36.6,102c-0.4-0.2-0.6-0.6-1.1-0.9l-12.9,7.3v1.3h0.9L36.6,102z
						 M44.1,110.6h-2.2L22.5,122v1.5L44.1,111V110.6z M37.4,110.6l-14.9,8.6v1.5L40,110.6H37.4z M32.7,110.6l-10.1,6v1.5l12.9-7.5
						H32.7z M28.1,110.6l-5.6,3.2v1.5l8.2-4.7H28.1z M23.4,110.6l-0.9,0.6v1.5l3.7-2.2L23.4,110.6L23.4,110.6z M44.1,112.1
						l-21.6,12.5v1.5l21.6-12.5V112.1z M44.1,114.9l-21.6,12.5v1.5l21.6-12.5V114.9z M44.1,117.5L22.5,130v1.5L44.1,119V117.5z
						 M44.1,120.3l-21.6,12.5v1.5l21.6-12.5V120.3z M44.1,122.9l-21.6,12.5v1.5l21.6-12.5V122.9z M44.1,125.7l-21.6,12.5v1.5
						l21.6-12.5V125.7z M44.1,128.3l-21.6,12.5v1.5l21.6-12.5V128.3z M42.8,144.2h-2.6l-17.7,10.1v1.5L42.8,144.2z M38.3,144.2h-2.8
						l-12.9,7.3v1.5L38.3,144.2z M33.5,144.2h-2.6l-8.4,4.7v1.5L33.5,144.2z M29,144.2h-2.8l-3.7,1.9v1.5L29,144.2z M24.3,144.2
						h-1.7v0.9L24.3,144.2z M44.1,146v-1.5L22.5,157v1.5L44.1,146z M44.1,148.8v-1.5l-21.6,12.5v1.5L44.1,148.8z M44.1,151.4v-1.5
						l-21.6,12.5v1.5L44.1,151.4z M44.1,154.2v-1.5l-21.6,12.5v0.6h1.7L44.1,154.2z M43.9,54.5h-2.8L23,65.1c0,0.6-0.2,1.1-0.2,1.7
						L43.9,54.5z M44.1,57.1v-1.5L22.7,67.9v1.7L44.1,57.1z M44.1,62.5V61L22.7,73.3v1.5L44.1,62.5z M44.1,65.1v-1.5L23,75.9
						c0,0.4,0.2,1.1,0.2,1.5L44.1,65.1z M39.1,54.5h-2.6L23.6,62c-0.2,0.6-0.2,1.1-0.4,1.7L39.1,54.5z M44.1,67.9v-1.5L23.4,78.5
						c0,0.4,0,0.9,0.2,1.3L44.1,67.9z M44.1,132.6v-1.5L23.4,143h2.8L44.1,132.6z M44.1,70.5V69L23.8,80.8c0.2,0.4,0.2,0.9,0.4,1.3
						L44.1,70.5z M34.6,54.5h-2.8l-7.3,4.3c-0.2,0.6-0.2,1.3-0.4,1.9L34.6,54.5z M24.3,53.6h1.3c0.2-0.2,0.2-0.9,0.4-1.1L24.3,53.6z
						 M44.1,73.3v-1.5L24.7,83c0.2,0.4,0.2,0.9,0.4,1.3L44.1,73.3z M29.9,54.5h-2.8l-1.3,0.9c-0.2,0.6-0.6,1.5-0.9,2.2L29.9,54.5z
						 M44.1,75.9v-1.5l-18.8,11c0.2,0.4,0.4,0.6,0.6,1.1L44.1,75.9z M38.5,103.5c-0.4-0.2-0.6-0.6-1.1-0.9l-12.1,7.1h2.6L38.5,103.5
						z M44.1,156.7v-1.5l-17.9,10.6H29L44.1,156.7z M44.1,43.5V42l-16.4,9.5c-0.4,0.6-0.6,1.5-1.1,2.2H27L44.1,43.5z M27.9,88.2
						h-1.3c0,0.2,0.4,0.2,0.4,0.4L27.9,88.2z M44.1,78.7v-1.5l-17,9.7h2.8L44.1,78.7z M32.7,88.2h-2.8l-2.4,1.3l0.6,1.3L32.7,88.2z
						 M44.1,135.2v-1.5l-16,9.3h2.6L44.1,135.2z M37.4,88.2h-2.8l-6,3.5c0.2,0.4,0.6,0.6,0.9,1.1L37.4,88.2z M44.1,39.4l-13.4,7.8
						l-1.9,2.6L44.1,41V39.4z M44.1,46.3v-1.5L29,53.6h2.8L44.1,46.3z M41.9,88.2h-2.8l-9.3,5.4c0.2,0.4,0.6,0.6,0.9,1.1L41.9,88.2z
						 M40.9,105c-0.4-0.2-0.9-0.6-1.3-0.9l-9.7,5.6h2.8L40.9,105z M44.1,159.5V158l-13.2,7.8h2.6L44.1,159.5z M44.1,89.5v-1.3h-0.2
						l-12.5,7.1c0.2,0.4,0.6,0.6,0.9,1.1L44.1,89.5z M44.1,81.3v-1.5l-12.3,7.1h2.8L44.1,81.3z M44.1,36.6l-7.8,4.5
						c-1.5,1.3-2.6,2.6-3.9,3.9L44,38.1L44.1,36.6L44.1,36.6z M44.1,138v-1.5L32.7,143h2.8L44.1,138z M44.1,92v-1.5L32.9,97
						c0.2,0.4,0.6,0.6,1.1,1.1L44.1,92z M44.1,48.9v-1.5l-10.4,6.3h2.6L44.1,48.9z M44.1,94.8v-1.5l-9.5,5.4
						c0.4,0.4,0.6,0.9,1.1,1.1L44.1,94.8z M43.2,106.3c-0.4-0.2-1.1-0.6-1.5-0.9l-7.1,4.3h2.8L43.2,106.3z M44.1,162.1v-1.5
						l-8.6,5.2h2.8L44.1,162.1z M44.1,97.4v-1.5l-7.8,4.5c0.4,0.2,0.9,0.6,1.3,0.9L44.1,97.4z M44.1,84.1v-1.5l-7.5,4.3h2.6
						L44.1,84.1z M44.1,140.6v-1.5l-6.7,3.9H40L44.1,140.6z M44.1,51.7v-1.5l-5.8,3.5h2.8L44.1,51.7z M44.1,100.2v-1.5l-5.6,3.2
						c0.4,0.2,0.6,0.6,1.1,0.9L44.1,100.2z M44.1,108.2v-1.5l-4.7,3H42L44.1,108.2z M44.1,164.9v-1.5l-3.9,2.4h2.6L44.1,164.9z
						 M44.1,102.8v-1.5l-3.7,2.2c0.4,0.2,1.1,0.6,1.5,0.9L44.1,102.8z M44.1,86.6v-1.5l-3,1.7h2.8L44.1,86.6z M44.1,142.9v-1.1
						l-2.2,1.1H44.1z M44.1,105.6v-1.5l-1.3,0.6C43.2,105,43.7,105.4,44.1,105.6z M44.1,53.6v-0.9L43,53.6H44.1z M44.1,109.7v-0.2
						l-0.2,0.2H44.1z M64.2,32.1h-2.6l-16.2,9.3v1.7L64.2,32.1z M56.4,32.3l-11,6.5v1.5l14.2-8.2C58.6,32.1,57.5,32.1,56.4,32.3z
						 M47.6,32.1l-2.2,1.3v0.9c1.1-0.4,1.9-0.6,3-1.1l1.9-1.1C50.3,32.1,47.6,32.1,47.6,32.1z M45.4,32.1v0.2l0.2-0.2H45.4z
						 M68,32.5c-0.6-0.2-1.5-0.2-2.2-0.2L45.4,44.2v1.5L68,32.5z M71.5,33.2c-0.6-0.2-1.3-0.2-1.9-0.4l-24.2,14v1.7L71.5,33.2z
						 M48.4,34.2l-3,1.7v1.7l8.2-5C51.9,33.2,50.1,33.6,48.4,34.2z M74.5,34.2c-0.6-0.2-1.1-0.4-1.7-0.6l-27.4,16v1.5L74.5,34.2z
						 M77.1,35.3c-0.4-0.2-1.1-0.4-1.5-0.6L45.4,52.1v1.5h0.2L77.1,35.3z M45.4,70.7c0,8.8,7.1,16.2,16,16.2c4.5,0,8.6-1.9,11.6-5
						c0.6-0.6,1.3-1.5,1.7-2.2s1.1-1.5,1.5-2.4l0.4-0.9c0.6-1.7,1.1-3.9,1.1-5.8c0-8-6-14.7-13.6-16c-0.4,0-0.6-0.2-1.1-0.2h-3.5
						C51.6,55.4,45.4,62.5,45.4,70.7z M45.4,54.5v10.1c1.7-4.5,5.2-8.4,9.7-10.1H45.4z M54,86.9h1.1h0.6c-4.7-1.7-8.6-5.4-10.4-10.1
						v10.1h0.4h2.6h0.2H53H54z M67.2,88.2l-21.8,12.5v1.7L70,88.2H67.2z M62.4,88.2l-17,9.9v1.5l19.8-11.4H62.4z M57.9,88.2
						l-12.5,7.1V97l15.1-8.8H57.9z M53.2,88.2l-7.8,4.5v1.5l10.6-6H53.2z M48.6,88.2l-3.2,1.7v1.7l5.8-3.5h-2.6V88.2z M45.4,88.2
						v0.6l1.3-0.6H45.4z M61.8,93.8l-16.4,9.7v1.5l10.4-6C57.7,97,59.6,95.3,61.8,93.8z M53.6,101.3l-8.2,4.7
						c0.4,0.2,1.1,0.4,1.5,0.6l4.5-2.6C52.1,103,52.7,102.2,53.6,101.3z M45.4,107.4v0.4l0.2-0.4H45.4z M46.9,108l-1.5,0.9v0.9h1.3
						l1.7-1.3C47.8,108.2,47.6,108.2,46.9,108z M72.6,110.8l0.2-0.2H70v0.2h-2v-0.2h-2.8v0.2h-1.9v-0.2h-1.7h-0.2h-0.6v0.2h-1.9
						v-0.2H56h-2h-5.2c-2.2,5-3.5,10.6-3.5,16.4c0,5.8,1.3,11,3.5,16h0.6h1.9H54h0.2h4.5H59h4.3h0.2H68h0.2h4.5H73h4.3h0.4v-0.6
						c-6-2.6-10.4-8.6-10.4-15.5c0-6.9,4.3-12.9,10.4-15.5V111h-0.4v-0.2h-2.6l-0.2,0.2h-1.9V110.8z M45.4,110.6v7.5
						c0.6-2.6,1.3-5.2,2.4-7.5H45.4z M45.4,135.6v7.3h1.3h1.1C46.7,140.6,46,138.2,45.4,135.6z M45.4,144.2v1.3l2.2-1.3H45.4z
						 M49.1,146l-0.6-1.3l-3,1.9v1.5L49.1,146z M50.4,147.9c-0.2-0.4-0.4-0.6-0.6-1.1l-4.3,2.4v1.7L50.4,147.9z M51.6,149.8
						c-0.2-0.4-0.6-0.6-0.9-1.1l-5.4,3.2v1.5L51.6,149.8z M52.9,151.8c-0.2-0.4-0.6-0.6-0.9-1.1l-6.7,3.9v1.7L52.9,151.8z
						 M54.5,153.5c-0.2-0.4-0.6-0.6-0.9-1.1l-8.2,5v1.5L54.5,153.5z M56.2,155.2c-0.4-0.4-0.6-0.4-0.9-0.9l-9.9,5.6v1.7L56.2,155.2z
						 M57.9,157c-0.4-0.2-0.4-0.6-0.9-1.1l-11.6,6.9v1.5L57.9,157z M59.8,158.5c-0.4-0.2-0.6-0.6-1.1-0.9l-13.4,7.8v0.4h2.2
						L59.8,158.5z M77.7,37.7v-1.5L47.6,53.6h2.8L77.7,37.7z M48,107.1c0.4,0.2,0.9,0.2,1.3,0.4c0.2-0.6,0.4-1.1,0.9-1.7L48,107.1z
						 M49.7,108.9c-0.2,0.2,0,0.6-0.2,0.9h1.7l0.4-0.2L49.7,108.9z M52.3,144.2h-2.8c0.2,0.4,0.4,0.6,0.6,1.1L52.3,144.2z M62,160
						c-0.4-0.2-0.9-0.6-1.3-0.9l-11.2,6.7h2.8L62,160z M56.8,144.2h-2.6l-3.7,1.9l0.6,1.3L56.8,144.2z M77.7,90.1l-25.5,14.7
						c-0.6,0.9-1.1,1.7-1.5,2.6l27-15.7V90.1z M77.7,92.7L51,108.2c0.6,0.2,1.3,0.2,1.9,0.4l24.8-14.2V92.7z M61.6,144.2h-2.8
						l-6.9,3.9l0.6,1.3L61.6,144.2z M77.7,40.5v-1.7L52.3,53.6h2.8L77.7,40.5z M66.1,144.2h-2.6L53.1,150c0.2,0.4,0.6,0.6,0.9,1.1
						L66.1,144.2z M77.7,88.6c-1.1,0.2-2.4,0.4-3.5,0.6L56.6,99.6c-1.1,1.1-1.9,2.2-2.8,3.2L77.7,89V88.6z M77.7,95.5l-23.5,13.4
						c0.6,0.2,1.5,0.4,2.2,0.4L77.7,97V95.5z M64.2,161.5c-0.4-0.2-0.9-0.6-1.3-0.9l-8.6,5.2h2.6L64.2,161.5z M70.8,144.2H68
						L54.7,152c0.2,0.4,0.6,0.6,0.9,1.1L70.8,144.2z M75.4,144.2h-2.6l-16.6,9.5l1.1,1.1L75.4,144.2z M77.7,43.1v-1.5L57,53.6h2.6
						v-0.2L77.7,43.1z M77.7,145.5v-1.3h-0.4l-19.4,11.2c0.4,0.4,0.6,0.6,1.1,0.9L77.7,145.5z M77.7,98.1l-19.6,11.4h2.6l17-9.7
						V98.1z M66.7,162.8c-0.4-0.2-1.1-0.6-1.5-0.9l-6.5,3.9h2.8L66.7,162.8z M77.7,148.3v-1.7L59.8,157c0.4,0.2,0.6,0.9,1.1,1.1
						L77.7,148.3z M60.3,96.4l9.5-5.6C66.3,92,63.1,94.2,60.3,96.4z M77.7,45.9v-1.7l-16,9.3c0.6,0,1.1,0.2,1.5,0.2h1.1L77.7,45.9z
						 M77.7,150.9v-1.5l-16,9.1c0.4,0.2,0.9,0.6,1.3,0.9L77.7,150.9z M77.7,102.4v-1.5l-15.1,8.6c1.1,0,1.9-0.2,3-0.2L77.7,102.4z
						 M69.3,163.9c-0.4-0.2-1.1-0.4-1.5-0.6l-4.3,2.6h2.6L69.3,163.9z M77.7,153.7V152l-13.8,8c0.4,0.2,0.9,0.6,1.3,0.9L77.7,153.7z
						 M77.7,48.5V47l-11.4,6.7h2.6L77.7,48.5z M77.7,156.3v-1.5l-11.4,6.5c0.4,0.2,1.1,0.6,1.5,0.9L77.7,156.3z M66.7,91
						c2.4-1.1,5.2-2.8,5.2-2.8L66.7,91z M72.1,164.9c-0.6-0.2-1.1-0.4-1.7-0.6l-2.4,1.5h2.8L72.1,164.9z M77.7,105.2v-1.7l-9.5,5.6
						c1.5-0.2,3-0.6,4.5-1.1L77.7,105.2z M71.7,54.5h-2.6c-0.2,0-0.4,0.4-0.6,0.4c0.4,0.2,1.1,0.4,1.5,0.6L71.7,54.5z M77.7,112.3
						c-5.4,2.6-9.3,8-9.3,14.5s3.9,11.9,9.3,14.5V112.3z M77.7,159.1v-1.7l-8.8,5.2c0.4,0.2,1.1,0.4,1.5,0.6L77.7,159.1z M77.7,83.6
						v-1.7l-8.6,5h2.6L77.7,83.6z M77.7,34.2V32h-7.1C73,32.7,75.6,33.2,77.7,34.2z M77.7,51.3v-1.7c-2.2,1.3-4.7,2.8-6.9,4.1h2.8
						L77.7,51.3z M76.5,54.5h-2.8l-2.8,1.7c0.4,0.2,0.9,0.6,1.3,0.9C73.6,56.2,74.9,55.4,76.5,54.5z M77.7,161.7v-1.5l-6,3.5
						c0.6,0.2,1.1,0.2,1.7,0.4L77.7,161.7z M77.7,107.8v-0.4c-1.5,0.6-3.2,1.3-5,1.7l-0.9,0.6h2.6L77.7,107.8z M77.7,79.3l-1.9,1.1
						c-0.9,1.3-1.9,2.4-3,3.2l5-2.8L77.7,79.3L77.7,79.3z M74.9,165.8c-0.4-0.2-1.1-0.2-1.5-0.4l-0.6,0.4H74.9z M77.7,56.7V55
						L73,57.7c0.4,0.2,0.4,0.6,0.9,1.1L77.7,56.7z M77.7,86.2v-1.5l-4.1,2.2h2.8L77.7,86.2z M77.7,59.3v-1.5l-3.2,1.7
						c0.2,0.4,0.6,0.6,0.9,1.1L77.7,59.3z M77.7,164.5v-1.7l-3,1.7c0.6,0.2,1.3,0.2,1.9,0.4L77.7,164.5z M77.7,53.6v-1.3l-2.2,1.3
						H77.7z M77.7,62.1v-1.7l-1.7,1c0.2,0.4,0.4,0.6,0.6,1.1L77.7,62.1z M77.7,109.7v-0.9l-1.3,0.9H77.7z M77.7,76.7
						c-0.2,0.6-0.6,1.3-1.1,1.9l1.1-0.4V76.7z M77.7,64.6v-1.5l-0.6,0.2L77.7,64.6z M100.2,53.6V32.1H78.6v2.8
						c8.2,3.9,14.9,10.6,18.8,18.8L100.2,53.6L100.2,53.6z M78.6,36v1l1.1-0.4C79.3,36.4,79,36.2,78.6,36z M80.8,37l-2.2,1.3v1.5
						l3.5-1.9C81.6,37.7,81.2,37.3,80.8,37z M82.9,38.6L78.6,41v1.5l5.6-3C83.8,39.2,83.4,38.8,82.9,38.6z M85.1,40.1l-6.5,3.7v1.5
						l7.5-4.3C85.7,40.7,85.5,40.3,85.1,40.1z M87,41.6l-8.4,4.7v1.5l9.5-5.4C87.7,42,87.5,41.8,87,41.6z M88.7,43.3
						c-3.5,1.9-6.7,3.9-10.1,5.8v1.5l11.2-6.5C89.6,43.7,89.2,43.7,88.7,43.3z M90.5,45l-11.9,6.7v1.5l12.7-7.3
						C91.1,45.5,90.7,45.5,90.5,45z M92.4,54.5l-13.8,8V64L95,54.5H92.4z M87.7,54.5l-9.1,5.4v1.5l11.9-6.9H87.7z M82.9,54.5
						c-1.5,0.9-2.8,1.7-4.3,2.6v1.5l7.1-4.1H82.9z M78.6,54.5V56c0.9-0.4,1.5-1.1,2.4-1.5H78.6z M97.4,56l-0.6-1.3L78.6,65.3v1.5
						L97.4,56z M98.2,58.2c-0.2-0.4-0.2-0.9-0.4-1.3l-19.2,11v1.5L98.2,58.2z M98.9,60.6c-0.2-0.4-0.2-1.1-0.4-1.5L78.6,70.7v1.5
						L98.9,60.6z M99.5,62.9c0-0.4-0.2-1.1-0.4-1.5L78.6,73.3v1.5L99.5,62.9z M100,65.3c0-0.4-0.2-1.1-0.2-1.5L78.6,76.1v1.5
						L100,65.3z M100.2,67.9c0-0.4-0.2-1.1-0.2-1.5L78.6,78.7v1.5L100.2,67.9z M100.2,70.5V69L78.6,81.5V83L100.2,70.5z M100.2,73.3
						v-1.7L78.6,84.1v1.5L100.2,73.3z M100,76.1c0-0.6,0.2-1.1,0.2-1.7L78.6,86.9H81L100,76.1z M88.1,88.2h-2.4l-7.1,4.1v1.5
						L88.1,88.2z M81,88.2l-2.4,1.3V91l5.2-2.8H81z M91.8,88.8c-0.6-0.2-1.3-0.4-1.9-0.4l-11.2,6.5v1.5L91.8,88.8z M95.2,89.7
						L93.3,89l-14.7,8.6v1.5L95.2,89.7z M92.8,93.6c0.6-0.9,1.1-1.7,1.7-2.6l-16,9.3v1.5L92.8,93.6z M100.2,94.6v-1.5L89,99.6
						c-3,2.8-6.5,5.4-10.4,7.1v0.4L100.2,94.6z M87.9,99.2c1.1-1.1,2.4-2.2,3.5-3.5L78.6,103v1.5L87.9,99.2z M100.2,97.4v-1.5
						l-21.6,12.5v1.3h0.6L100.2,97.4z M84.4,142.7c8.2,0,14.9-6,15.7-14v-3.9c-0.9-8-7.5-14-15.7-14c-1.9,0-4.1,0.4-5.8,1.1v29.8
						C80.3,142.3,82.5,142.7,84.4,142.7z M96.1,144.2l-17.5,9.9v1.5l20.1-11.4H96.1z M91.3,144.2l-12.7,7.3v1.5l15.5-8.8H91.3z
						 M86.8,144.2l-8.2,4.5v1.5l10.8-6H86.8z M82.1,144.2l-3.5,1.9v1.5l6.3-3.5h-2.8V144.2z M78.6,144.2v0.6l1.5-0.6H78.6z
						 M100.2,144.5L78.6,157v1.5l21.6-12.5V144.5z M100.2,147l-21.6,12.5v1.5l21.6-12.5V147z M100.2,149.8l-21.6,12.5v1.5l21.6-12.5
						V149.8z M100.2,152.4l-21.6,12.5v0.4c0.6,0,1.3,0.2,1.9,0.2l19.6-11.6L100.2,152.4L100.2,152.4z M82.3,103.7l-2.8,1.5
						C80.3,104.8,81.4,104.3,82.3,103.7z M92,46.7l-11.9,6.9h2.8l9.9-5.8C92.6,47.4,92.2,47.2,92,46.7z M100.2,100v-1.5l-19,11.2
						h2.6L100.2,100z M100.2,156.7v-1.5l-18.1,10.4c0.6,0,1.5,0.2,2.2,0.2c0.2,0,0.4-0.2,0.6-0.2L100.2,156.7z M99.3,79.1
						c0.2-0.6,0.4-1.1,0.4-1.7l-16.8,9.5h1.3h1.5L99.3,79.1z M93.3,48.7l-8.4,5h2.8l6.5-3.9C93.9,49.3,93.5,49.1,93.3,48.7z
						 M100.2,102.8v-1.5l-14.5,8.4h2.8L100.2,102.8z M100.2,159.3v-1.5l-13.4,7.8c1.1,0,2.4-0.2,3.5-0.4L100.2,159.3z M98.7,82.1
						c0.2-0.6,0.2-1.1,0.4-1.7l-11.4,6.5h2.8L98.7,82.1z M100.2,137.8v-1.5l-3,1.7c-1.9,2.4-4.7,4.1-7.8,5h1.9L100.2,137.8z
						 M94.6,50.6l-5,3h2.6l3-1.9C95,51.3,94.8,51.1,94.6,50.6z M91.3,110.6H90c0.2,0,0.6,0.4,0.9,0.4L91.3,110.6z M100.2,105.4v-1.5
						l-9.7,5.8h2.8L100.2,105.4z M100.2,92v-0.4c-0.4-0.2-0.4-0.4-0.9-0.6l-5.6,3.2c-0.6,1.1-1.5,2.2-2.4,3L100.2,92z M95.9,110.6
						h-2.6l-1.3,0.9c0.4,0.2,0.9,0.6,1.3,0.9L95.9,110.6z M97.4,85.6l0.6-1.9l-5.6,3.2H95L97.4,85.6z M100.2,140.6v-1.5l-6.9,3.9
						h2.6L100.2,140.6z M100.2,162.1v-1.5l-6.9,4.1c2.2-0.4,4.3-1.3,6.3-2.2L100.2,162.1z M100.2,165.8v-2.4
						c-2.2,0.9-4.3,1.7-6.7,2.4H100.2z M94.1,53.6h2.2c-0.2-0.2-0.2-0.9-0.4-1.1L94.1,53.6z M100.2,110.8v-0.2h-2.4l-3.7,2.2
						c0.4,0.2,0.9,0.9,1.3,1.1L100.2,110.8z M94.6,88.4c0.4,0.2,0.9,0.2,1.3,0.4c0.2-0.2,0.2-0.4,0.4-0.6H95L94.6,88.4z M98,90.5
						c-0.6-0.2-0.9-0.2-1.5-0.4c-0.4,0.9-1.1,1.5-1.5,2.4L98,90.5z M100.2,108.2v-1.5l-5.2,3h2.8L100.2,108.2z M100.2,113.6v-1.5
						l-4.1,2.4c0.4,0.2,0.9,0.4,1.1,0.9L100.2,113.6z M96.9,89l3.2,1.3v-2.2h-2.8L96.9,89z M100.2,116.2v-1.5l-2.4,1.5
						c0.2,0.4,0.6,0.6,0.9,1.1L100.2,116.2z M100.2,142.9v-1.3l-2.4,1.3H100.2z M100.2,61.6v-7.1H98C99.1,56.7,99.5,59.3,100.2,61.6
						z M100.2,86.9V80c-0.6,2.4-1.1,4.7-2.2,6.9H100.2z M100.2,133.7H100c-0.4,0.9-0.9,1.7-1.3,2.4l1.5-0.9V133.7z M100.2,119v-1.5
						l-1.1,0.6c0.2,0.4,0.4,0.6,0.6,1.1L100.2,119z M100.2,109.7v-0.4l-0.4,0.4H100.2z M123,32.1h-21.6v21.6H123V32.1z M101.5,54.5
						v16.4v16H123V54.5H101.5z M123,109.7V88.2h-21.6v2.6c8.2,3.9,14.9,10.8,18.8,19L123,109.7L123,109.7z M101.9,92.3l-0.4,0.2v1.7
						l1.7-1.1C102.8,92.9,102.3,92.5,101.9,92.3z M104.3,93.6l-2.8,1.7v1.5l4.1-2.4C105.1,94.2,104.7,93.8,104.3,93.6z M106.4,95.1
						l-5,2.8v1.5l6-3.5C107.1,95.7,106.9,95.3,106.4,95.1z M108.4,96.6l-6.9,4.1v1.5l8-4.7C109,97.2,108.8,96.8,108.4,96.6z
						 M110.3,98.1l-8.8,5.2v1.7l9.9-5.8C111,98.7,110.7,98.3,110.3,98.1z M112,99.8l-10.6,6.3v1.5l11.4-6.7
						C112.7,100.5,112.5,100.2,112,99.8z M113.6,101.5l-12.1,7.1v1.1h1.1l12.1-7.1C114.4,102.2,113.8,102,113.6,101.5z M116.6,110.6
						l-15.1,8.8v1.7l17.7-10.6L116.6,110.6L116.6,110.6z M111.8,110.6l-10.4,6.3v1.5l13.2-7.8H111.8z M107.3,110.6l-5.8,3.5v1.7
						l8.4-5.2H107.3z M102.6,110.6c-0.4,0.2-0.6,0.6-1.1,0.9v1.5l3.9-2.4H102.6z M120.5,112.7l-0.6-1.3l-18.3,10.8v1.5L120.5,112.7z
						 M121.1,114.9c-0.2-0.4-0.2-0.9-0.4-1.3l-19.2,11.2v1.5L121.1,114.9z M121.7,117.3c-0.2-0.4,0-0.9-0.2-1.3l-20.1,11.4v1.3v0.4
						L121.7,117.3z M122.4,119.6c0-0.4-0.2-0.9-0.2-1.3l-20.7,11.9v1.7L122.4,119.6z M122.8,122.2c0-0.4-0.2-1.1-0.2-1.5L101.5,133
						v1.5L122.8,122.2z M123,124.8V124c0-0.2-0.2-0.6-0.2-0.9l-21.4,12.5v1.7L123,124.8z M123,127.4v-1.5l-21.6,12.5v1.5L123,127.4z
						 M122.8,130.2c0-0.2,0.2-0.2,0.2-0.4v-1.3L101.5,141v1.7L122.8,130.2z M101.5,163v2.8H123v-21.6h-2.8
						C116.4,152.4,109.7,159.1,101.5,163z M114.6,144.2l-13.2,7.5v1.5l16-9.1h-2.8V144.2z M110.1,144.2l-8.6,5v1.5l11.2-6.5H110.1z
						 M105.4,144.2l-3.9,2.2v1.7l6.7-3.9H105.4z M101.5,144.2v1.1l1.9-1.1H101.5z M117.6,146.6c0.4-0.6,0.9-1.3,1.3-2.2l-17.5,10.1
						v1.5L117.6,146.6z M114.4,151.1c0.6-0.9,1.5-1.7,2.2-2.6l-15.1,8.6v1.7L114.4,151.1z M107.5,158c1.7-1.3,3.5-2.8,5-4.5l-11,6.5
						v1.5L107.5,158z M122.6,133c0-0.6,0.2-1.1,0.2-1.7l-20.3,11.6h2.8L122.6,133z M115.1,103.5l-10.6,6.3h2.6
						c3-1.7,5.8-3.5,8.8-5.2C115.7,104.1,115.3,103.9,115.1,103.5z M122,136c0.2-0.6,0.2-1.1,0.4-1.7l-15.1,8.6h2.6L122,136z
						 M116.6,105.4l-7.5,4.3h2.8l5.4-3.2C117,106.1,116.8,105.8,116.6,105.4z M121.1,139.3c0.2-0.6,0.2-1.3,0.4-1.9l-9.7,5.6h2.8
						L121.1,139.3z M117.6,107.4l-3.9,2.4h2.6l2.2-1.3C118.3,108,117.9,107.8,117.6,107.4z M119.6,142.7c0.2-0.6,0.6-1.3,0.9-1.9
						l-3.9,2.2h2.6L119.6,142.7z M118.3,109.7h0.6v-0.4L118.3,109.7z M123,117.3v-6.7h-2.4C121.5,112.7,122.4,115.1,123,117.3z
						 M123,142.9v-6.5c-0.6,2.2-1.5,4.3-2.4,6.5H123z"/>
					<path class="st2" d="M140.5,32.1h-16.6v-1.3h16.6V1.5h1.1v29.3H163V1.5h1.1v29.3h55V1.5h1.1v29.3H242V1.5h0.9v29.3h11.9v1.3
						h-11.9v21.6h11.9v0.9h-11.9V143h16.4v1.3h-16.4v21.6h16.4v0.9h-16.4v32.1H242v-32.1h-21.8v32.1H219v-32.1h-55v32.1h-1.1v-32.1
						h-21.4v32.1h-1.1v-32.1H124v-0.9h16.4v-21.6H124V143h16.4v-32.4h-14.2v-0.9h14.2V88.2h-16.6v-1.3h16.6V54.5h-16.6v-0.9h16.6
						V32.1H140.5z M141.6,43.7v1.5L163,32.7v-0.6h-1.3L141.6,43.7z M141.6,41.1v1.3L159.5,32h-2.6L141.6,41.1z M141.6,38.3v1.5
						l13.2-7.8h-2.4L141.6,38.3z M141.6,35.7V37l8.6-5h-2.6L141.6,35.7z M141.6,32.9v1.5l3.9-2.4h-2.4L141.6,32.9z M141.6,46.5v1.3
						L163,35.5V34L141.6,46.5z M141.6,49.1v1.5L163,38.1v-1.5L141.6,49.1z M141.6,51.9v1.3L163,40.9v-1.5L141.6,51.9z M141.6,66.8
						l21.1-12.3h-2.6l-18.5,10.8V66.8z M141.6,64l16.4-9.5h-2.4l-14,8.2V64z M141.6,61.4l11.9-6.9h-2.6l-9.3,5.4L141.6,61.4
						L141.6,61.4z M141.6,58.6l7.1-4.1h-2.4l-4.7,2.8L141.6,58.6L141.6,58.6z M141.6,56l2.6-1.5h-2.6V56z M141.6,69.4L163,57.1v-1.5
						l-21.4,12.5V69.4z M141.6,72.2L163,59.7v-1.3l-21.4,12.3V72.2z M141.6,74.8L163,62.5V61l-21.4,12.5V74.8z M141.6,77.6L163,65.1
						v-1.3l-21.4,12.3V77.6z M141.6,80.2L163,67.9v-1.5l-21.4,12.5V80.2z M141.6,83L163,70.5v-1.3l-21.4,12.3V83z M141.6,85.6
						L163,73.3v-1.5l-21.4,12.5V85.6z M144.2,86.9l18.8-11v-1.3l-21.4,12.3H144.2z M141.6,101.7L163,89.4v-1.3h-0.4l-20.9,12.3v1.3
						H141.6z M141.6,99.2l19-11h-2.4l-16.6,9.5V99.2z M141.6,96.4l14.5-8.2h-2.6l-11.9,6.9V96.4z M141.6,93.8l9.7-5.6h-2.6l-7.1,4.1
						L141.6,93.8L141.6,93.8z M141.6,91l5-2.8h-2.4l-2.6,1.5V91z M142,88.2h-0.4v0.2L142,88.2z M141.6,104.5L162.9,92v-1.5
						L141.6,103V104.5z M141.6,107.1L163,94.8v-1.5l-21.4,12.5V107.1z M141.6,109.7h0.4l20.9-12.3v-1.5l-21.4,12.5v1.3H141.6z
						 M141.6,122v1.3L163,111v-0.4h-1.7L141.6,122z M141.6,119.2v1.5l17.5-10.1h-2.6L141.6,119.2z M141.6,116.6v1.3l12.7-7.3h-2.4
						L141.6,116.6z M141.6,113.8v1.5l8.2-4.7h-2.6L141.6,113.8z M141.6,111.2v1.3l3.5-1.9h-2.4L141.6,111.2z M141.6,126.1l21.4-12.5
						v-1.3l-21.4,12.3V126.1z M141.6,128.7l21.4-12.3v-1.5l-21.4,12.5V128.7z M141.6,131.5L163,119v-1.3L141.6,130V131.5z
						 M141.6,134.1l21.4-12.3v-1.5l-21.4,12.5V134.1z M141.6,136.9l21.4-12.5v-1.3l-21.4,12.3V136.9z M141.6,139.5l21.4-12.3v-1.5
						l-21.4,12.5V139.5z M141.6,142.3l21.4-12.5v-1.3l-21.4,12.3V142.3z M141.6,154.4v1.3l20.1-11.4h-2.6L141.6,154.4z M141.6,151.6
						v1.5l15.3-8.8h-2.4L141.6,151.6z M141.6,149v1.3l10.6-6h-2.4L141.6,149z M141.6,146.2v1.5l6-3.5H145L141.6,146.2z M141.6,144.2
						v0.6l1.1-0.6H141.6z M141.6,157v1.5L163,146v-1.3L141.6,157z M141.6,159.8v1.3l21.4-12.3v-1.5L141.6,159.8z M141.6,162.4v1.5
						l21.4-12.5v-1.3L141.6,162.4z M141.6,165.2v0.6h1.1l20.3-11.6v-1.5L141.6,165.2z M145,142.9l17.9-10.4V131l-20.3,11.9H145z
						 M145.7,53.6L163,43.5V42l-19.8,11.6H145.7z M146.6,109.7l16.4-9.5v-1.5l-18.8,11H146.6z M144.8,165.8h2.6l15.5-9.1v-1.5
						L144.8,165.8z M148.7,86.9l14.2-8.2v-1.5l-16.4,9.7H148.7z M149.8,142.9l13.2-7.8v-1.3l-15.7,9.1H149.8z M150.2,53.6l12.7-7.3
						v-1.5l-15.1,8.8H150.2z M151.3,109.7l11.6-6.9v-1.5l-14.2,8.4H151.3z M149.4,165.8h2.6l11-6.5v-1.5L149.4,165.8z M153.5,86.9
						l9.5-5.6V80l-11.9,6.9H153.5z M154.5,142.9l8.4-5v-1.5l-11,6.5H154.5z M155,53.6l8-4.7v-1.5l-10.6,6.3L155,53.6L155,53.6z
						 M155.8,109.7l7.1-4.1v-1.5l-9.5,5.6H155.8z M154.1,165.8h2.6l6.3-3.7v-1.5L154.1,165.8z M158.2,86.9l4.7-2.8v-1.5l-7.3,4.3
						H158.2z M159.1,142.9l3.9-2.4v-1.3l-6.3,3.7H159.1z M159.5,53.6l3.5-1.9v-1.5l-5.8,3.5L159.5,53.6L159.5,53.6z M160.6,109.7
						l2.4-1.5v-1.5l-5,3H160.6z M158.8,165.8h2.4l1.7-1.1v-1.3L158.8,165.8z M162.7,86.9l0.2-0.2v-1.3l-2.4,1.5H162.7z M162.9,142.9
						v-1.1l-1.7,1.1H162.9z M162.9,53.6V53l-1.3,0.6H162.9z M162.9,109.7v-0.2l-0.2,0.2H162.9z M164,52.4v1.3h0.2l37.1-21.6H199
						L164,52.4z M164,49.6v1.5l32.8-19h-2.6L164,49.6z M164,47v1.5l28-16.4h-2.6L164,47z M164,44.2v1.5l23.3-13.6h-2.4L164,44.2z
						 M164,41.6v1.5l18.8-11h-2.6L164,41.6z M164,38.8v1.5l14-8.2h-2.4L164,38.8z M164,36v1.5l9.5-5.4h-2.6L164,36z M164,33.4v1.5
						l4.7-2.8h-2.6L164,33.4z M164,86.9h55V54.5h-55V86.9z M164,109.7h1.1l37.1-21.6h-2.4l-35.8,21V109.7z M164,107.8l33.6-19.6H195
						l-31,18.1V107.8z M164,105l28.9-16.8h-2.4L164,103.5V105z M164,102.4l24.4-14.2h-2.6L164,100.9V102.4z M164,99.6l19.6-11.4
						h-2.4L164,98.1V99.6z M164,97l15.1-8.8h-2.6L164,95.5V97z M164,94.2l10.4-6h-2.6l-7.8,4.5L164,94.2L164,94.2z M164,91.4
						l5.6-3.2h-2.4l-3.2,1.9L164,91.4L164,91.4z M165.1,88.2H164v0.6L165.1,88.2z M164,142.9h55v-32.4h-55V142.9z M164,165.4v0.4
						h1.9l37.3-21.6h-2.6L164,165.4z M164,162.8v1.3l34.5-19.8h-2.4L164,162.8z M164,160v1.5l30-17.3h-2.6L164,160z M164,157.4v1.5
						l25.2-14.7h-2.6L164,157.4z M164,154.6v1.5l20.5-11.9h-2.4L164,154.6z M164,152v1.5l16-9.3h-2.6L164,152z M164,149.4v1.3
						l11.2-6.5h-2.4L164,149.4z M164,146.6v1.5l6.7-3.9h-2.6L164,146.6z M164,144.2v1.1l1.9-1.1H164z M206.1,32.1h-2.6l-37.3,21.6
						h2.6L206.1,32.1z M206.9,88.2h-2.6l-37.1,21.6h2.4L206.9,88.2z M170.5,165.8l37.3-21.6h-2.4l-37.3,21.6H170.5z M173.3,53.6
						L210.6,32h-2.4l-37.3,21.6H173.3z M174.4,109.7l37.3-21.6h-2.6l-37.3,21.6H174.4z M175.2,165.8l37.3-21.6H210l-37.3,21.6H175.2
						z M178,53.6L215.3,32h-2.6l-37.3,21.6H178z M178.9,109.7l37.3-21.6h-2.4l-37.3,21.6H178.9z M180,165.8l37.3-21.6h-2.6
						l-37.3,21.6H180z M182.8,53.6L219,32.7v-0.6h-1.5l-37.3,21.6h2.6V53.6z M183.6,109.7L219,89.2v-1.1h-0.6l-37.3,21.6H183.6z
						 M184.5,165.8l34.5-20.1v-1.3l-36.9,21.4L184.5,165.8L184.5,165.8z M187.3,53.6L219,35.3v-1.5l-34.1,19.8H187.3z M188.2,109.7
						L219,92v-1.5l-33.2,19.2H188.2z M189.3,165.8l29.8-17.3V147l-32.4,18.8H189.3z M192.1,53.6l27-15.5v-1.5l-29.5,17H192.1z
						 M192.9,109.7L219,94.6v-1.5l-28.7,16.6H192.9z M193.8,165.8l25.2-14.7v-1.3l-27.6,16H193.8z M196.6,53.6L219,40.7v-1.5
						l-24.8,14.5h2.4V53.6z M197.7,109.7L219,97.4v-1.5l-23.9,13.8C195.1,109.7,197.7,109.7,197.7,109.7z M198.5,165.8l20.5-11.9
						v-1.5l-23.1,13.4H198.5z M201.3,53.6L219,43.3V42l-20.3,11.6H201.3z M202.2,109.7L219,100v-1.5l-19.2,11.2H202.2z M203.3,165.8
						l15.7-9.3v-1.3l-18.3,10.6H203.3z M205.9,53.6l13.2-7.5v-1.5l-15.5,9.1L205.9,53.6L205.9,53.6z M206.9,109.7l12.1-6.9v-1.5
						l-14.7,8.4H206.9z M219,159.3V158l-13.6,7.8h2.4L219,159.3z M210.6,53.6l8.4-5v-1.3l-11,6.3H210.6z M211.5,109.7l7.5-4.3v-1.5
						l-9.9,5.8H211.5z M212.6,165.8l6.5-3.7v-1.5l-9.1,5.2H212.6z M215.4,53.6l3.7-2.2V50l-6.3,3.7h2.6V53.6z M216.2,109.7l2.8-1.5
						v-1.5l-5.4,3H216.2z M217.1,165.8l1.9-1.1v-1.5l-4.3,2.6H217.1z M219,53.6v-0.9l-1.5,0.9H219z M219,109.7v-0.4l-0.6,0.4H219z
						 M220.1,44.2v1.3l21.8-12.7v-0.6h-1.1L220.1,44.2z M220.1,41.4v1.5l18.5-10.8H236L220.1,41.4z M220.1,38.6v1.5l13.8-8h-2.4
						L220.1,38.6z M220.1,36v1.5l9.3-5.4h-2.6L220.1,36z M220.1,33.2v1.5l4.5-2.6H222L220.1,33.2z M220.1,46.7v1.5l21.8-12.7V34
						L220.1,46.7z M220.1,49.3v1.5l21.8-12.7v-1.3L220.1,49.3z M220.1,52.1v1.3l21.8-12.5v-1.5L220.1,52.1z M220.1,109.7h13.8v0.9
						h-13.8V143h21.8V54.5h-21.8v32.4h13.6v1.3h-13.6V109.7z M220.1,154.6v1.5l20.3-11.9H238L220.1,154.6z M220.1,151.8v1.5
						l15.7-9.1h-2.6L220.1,151.8z M220.1,149.2v1.3l11-6.3h-2.4L220.1,149.2z M220.1,146.4v1.5l6.5-3.7H224L220.1,146.4z
						 M220.1,144.2v0.9l1.7-0.9H220.1z M241.9,146v-1.3l-21.8,12.7v1.3L241.9,146z M220.1,161.5l21.8-12.7v-1.5L220.1,160V161.5z
						 M220.1,164.1l21.8-12.7v-1.3l-21.8,12.7V164.1z M220.1,165.8h1.7l20.1-11.6v-1.5l-21.8,12.7V165.8z M222,53.6h2.6l17.3-10.1
						v-1.3L222,53.6z M226.4,165.8l15.5-9.1v-1.3L224,165.8H226.4z M226.8,53.6h2.4l12.7-7.3v-1.5L226.8,53.6z M231.1,165.8
						l10.8-6.3V158l-13.4,7.8H231.1z M231.3,53.6h2.6l8-4.7v-1.3L231.3,53.6z M235.8,165.8l6-3.7v-1.3l-8.6,5H235.8z M236.1,53.6
						h2.6l3.2-1.9v-1.5L236.1,53.6z M240.4,165.8l1.5-0.9v-1.5l-3.9,2.4H240.4z M240.8,53.6h1.1V53L240.8,53.6z"/>
					<path class="st2" d="M413.1,32.1h-16v21.6h16v0.9h-16v44h14.7v1.1h-14.7v21.6h6v1.1h-6v20.7h16.4v1.3h-16.4V166h20.7v0.9h-20.7
						V199h-1.3v-32.1h-23.7v1.3h3.9v0.9h-3.9v30h-0.9v-30h-23.7v30h-1.3v-30h-19.4h-44v30h-1.3v-30H280V168h1.5v-1.3h-21.8l-1.9,1.9
						v30.2H257v-29.1l-9.7,9.7l-0.9-0.9l10.6-10.4v-1.5h-12.1v-0.9H257v-21.6h-12.1v-1.3H257v-20.7h-13.8V121H257V98.9V54.5h-14.5
						v-0.9H257V32.1h-14.5v-1.3H257V1.9h0.9v28.9h23.7v-1.5h-1.5V28h1.5V1.9h1.3V28H376v1.3h-37.7c1.7,0.2,4.3,1.1,6,1.5h49.8
						l1.7-1.7V1.9h1.3V28l8.8-9.1l0.9,0.9l-9.7,9.7v1.3h16L413.1,32.1L413.1,32.1z M273.6,53.6c2.6-3,5-5.6,8-8.2V32.1h-23.7v21.6
						L273.6,53.6L273.6,53.6z M257.8,86.4c2.2-11.9,7.3-22.9,14.7-31.9h-14.7V86.4z M281.6,86.6v-1.5l-23.7,13.8
						c0,0.4,0.2,1.1,0.2,1.5L281.6,86.6z M260.4,121.2c-1.1-3.2-1.9-6.5-2.6-9.9v9.9H260.4z M257.8,142.9h14.7
						c-5-6.3-8.8-13.2-11.6-20.7h-3v20.7H257.8z M273.6,144.2h-15.7v21.6h1.5l17.7-17.9C275.7,146.6,274.7,145.5,273.6,144.2z
						 M258.3,166.7h-0.4v0.4L258.3,166.7z M281.6,81.3v-1.5l-23.5,13.6v1.7L281.6,81.3z M281.6,84.1v-1.5l-23.5,13.6v1.7L281.6,84.1
						z M281.6,89.5V88l-23.5,13.6v1.5L281.6,89.5z M270.4,98.7v-0.2h0.4l10.8-6.5v-1.5l-23.5,13.6c0,0.4,0.2,1.1,0.2,1.5L270.4,98.7
						z M281.6,78.7v-1.5l-23.1,13.4c0,0.6-0.2,1.1-0.2,1.7L281.6,78.7z M273.4,99.6h-2.6l-12.3,7.1v1.5L273.4,99.6z M281.6,75.9
						v-1.5L259,87.6c0,0.6-0.2,1.1-0.2,1.7L281.6,75.9z M278.1,99.6h-2.8l-16.6,9.7c0,0.4,0.2,0.9,0.2,1.3L278.1,99.6z M281.6,73.3
						v-1.5l-22.2,12.7c-0.2,0.6,0,1.3-0.2,1.9L281.6,73.3z M281.6,100.2v-0.6h-1.5l-20.9,12.1c0,0.4,0.2,1.1,0.2,1.5L281.6,100.2z
						 M281.6,102.8v-1.5l-22,12.7c0,0.4,0.2,1.1,0.4,1.5L281.6,102.8z M281.6,70.5V69l-21.4,12.5c-0.2,0.6-0.2,1.1-0.4,1.7
						L281.6,70.5z M281.6,105.6v-1.5l-21.4,12.3c0.2,0.4,0.2,1.1,0.4,1.5L281.6,105.6z M281.6,67.9v-1.5l-20.5,11.9l-0.6,1.9
						L281.6,67.9z M281.6,108.2v-1.5l-20.7,12.1c0.2,0.4,0.2,0.9,0.4,1.3L281.6,108.2z M260.9,165.8h20.7v-13.6
						c-1.3-1.1-2.6-2.2-3.9-3.5L260.9,165.8z M281.6,65.1v-1.5l-19.4,11.2c-0.2,0.6-0.4,1.5-0.6,2.2L281.6,65.1z M281.6,111v-1.5
						l-20.1,11.6h0.2h2.4L281.6,111z M261.9,122.2l0.2,0.2l0.2-0.2H261.9z M264.3,122.2l-1.9,1.1l0.6,1.3l3.9-2.4H264.3z
						 M281.6,62.5V61l-17.9,10.4c-0.2,0.6-0.6,1.5-0.9,2.2L281.6,62.5z M268.8,122.2l-5.6,3.2l0.6,1.3l7.8-4.5H268.8z M281.6,59.7
						v-1.5l-16.2,9.5c-0.4,0.6-0.6,1.5-1.1,2.2L281.6,59.7z M273.6,122.2l-9.3,5.4c0.2,0.4,0.2,0.9,0.4,1.3l11.4-6.7H273.6z
						 M278.1,122.2l-12.9,7.5c0.2,0.4,0.4,0.6,0.6,1.1l15.1-8.6C280.9,122.2,278.1,122.2,278.1,122.2z M281.6,113.6v-1.5l-15.5,9.1
						h2.8L281.6,113.6z M281.6,57.1v-1.5l-14,8.2c-0.4,0.9-0.9,1.3-1.3,2.2L281.6,57.1z M281.6,124.4v-1.5l-15.3,8.8l0.6,1.3
						L281.6,124.4z M281.6,127.2v-1.5l-14,8.2c0.2,0.4,0.4,0.6,0.6,1.1L281.6,127.2z M278.6,54.5l-8.2,5c-0.6,0.9-1.1,1.5-1.7,2.4
						l12.7-7.3h-2.8V54.5z M281.6,129.8v-1.5l-12.9,7.5c0.2,0.4,0.6,0.6,0.9,1.1L281.6,129.8z M281.6,132.6v-1.5l-11.6,6.7
						c0.2,0.4,0.6,0.6,0.9,1.1L281.6,132.6z M281.6,116.4v-1.5l-10.8,6.3h2.6L281.6,116.4z M281.6,135.2v-1.5l-10.1,6
						c0.2,0.4,0.4,0.6,0.6,1.1L281.6,135.2z M274,54.5c-0.9,0.9-1.7,2.2-2.4,3l5-3H274z M281.6,94.8v-1.5l-9.1,5.2h2.8L281.6,94.8z
						 M281.6,138v-1.5l-8.8,5.2c0.2,0.4,0.6,0.6,0.9,1.1L281.6,138z M281.6,140.6v-1.5l-6.7,3.9h2.6L281.6,140.6z M274.9,144.2
						l0.2,0.2l0.6-0.2H274.9z M281.6,119v-1.5l-6.3,3.7h2.8L281.6,119z M281.6,50.2l-5.8,3.5h2.8l3-1.9V50.2z M277.7,144.2l-1.9,0.9
						c0.2,0.4,0.9,0.6,1.1,1.1l3.5-1.9h-2.7V144.2z M281.6,47.4l-1.9,1.3c-1.3,1.1-2.6,2.4-3.7,3.7l5.6-3.5V47.4z M281.6,97.4v-1.5
						l-4.3,2.6h2.8L281.6,97.4z M277.5,146.8c0,0.2,0.2,0.2,0.2,0.4l1.3-1.3L277.5,146.8z M281.6,146v-1.1l-2.6,2.8L281.6,146z
						 M281.6,148.8v-1.5l-2.4,1.3c0.4,0.4,0.6,0.9,1.1,1.1L281.6,148.8z M281.6,142.9v-1.1l-2.2,1.1H281.6z M281.6,121.2v-0.9
						l-1.5,0.9H281.6z M280.5,53.6h1.1v-0.9L280.5,53.6z M281.6,150.9v-1.1l-0.6,0.4L281.6,150.9z M309.6,30.8
						c1.7-0.4,3.2-1.3,5-1.5h-31.7v1.5H309.6z M282.9,44.4c6.7-5.6,14.5-9.7,23.1-12.3h-23.1V44.4z M320.4,32.1h-2.8l-34.7,20.1v1.5
						h0.2L320.4,32.1z M313.1,32.1l-30.2,17.5v1.5l32.8-19H313.1z M309.8,32.1c-0.9,0.2-1.9,0.4-2.8,0.6l-24.2,14v1.7L311.1,32h-1.3
						V32.1z M357.9,67.2c-8-7.8-19-12.7-31.1-12.7c-24.4,0-43.8,19.8-44,44h43.6L357.9,67.2z M298.8,63.4c3.5-2.6,7.3-5,11.4-6.7
						c1.3-0.6,2.4-1.5,3.7-2.2h-2.8l-28.3,16.6v1.5L298.8,63.4z M309.2,54.5h-2.6l-23.7,13.8V70L309.2,54.5z M304.7,54.5h-2.8
						l-19,11.2v1.5L304.7,54.5z M299.9,54.5h-2.8l-14.2,8.4v1.7L299.9,54.5z M295.2,54.5h-2.6l-9.7,5.8v1.5L295.2,54.5z M290.6,54.5
						h-2.8l-5,3v1.7L290.6,54.5z M285.9,54.5h-2.6l-0.4,0.4v1.5C283.9,55.8,284.8,55.2,285.9,54.5z M292.1,69.8
						c1.1-1.1,1.9-2.2,3-3.2l-12.3,7.1v1.7L292.1,69.8z M288.7,74.6c0.6-0.9,1.1-1.7,1.7-2.6l-7.5,4.5V78L288.7,74.6z M286.5,78.7
						c0.4-0.9,0.6-1.7,1.1-2.4l-4.7,2.8v1.7L286.5,78.7z M284.8,82.3c0.2-0.6,0.6-1.5,0.9-2.2l-2.8,1.7v1.5L284.8,82.3z M283.7,85.6
						l0.6-1.9l-1.5,0.9v1.7L283.7,85.6z M283.3,86.9l-0.4,0.4v1.5C283.1,88.2,283.1,87.5,283.3,86.9z M282.9,99.6
						c0.2,7.8,2.4,15.3,6,21.6h14.9l21.6-21.6H282.9z M282.9,108.9v1.5l0.2-0.2C282.9,109.7,282.9,109.3,282.9,108.9z M283.3,111.2
						l-0.4,0.2v1.7l0.9-0.6C283.5,112.1,283.5,111.7,283.3,111.2z M284.2,113.4l-1.3,0.9v1.5l1.7-1.1
						C284.4,114.3,284.4,113.8,284.2,113.4z M284.8,115.5l-1.9,1.3v1.7l2.6-1.7L284.8,115.5z M286.5,119l-0.6-1.3l-3,1.9v1.5
						L286.5,119z M288.7,123.1c-0.2-0.2-0.2-0.6-0.4-0.9h-0.6L283,125v1.5L288.7,123.1z M285.7,122.2h-2.8v1.7L285.7,122.2z
						 M290,125c-0.2-0.4-0.4-0.6-0.6-1.1l-6.5,3.7v1.7L290,125z M291.5,127c-0.2-0.4-0.6-0.6-0.9-1.1l-7.8,4.5v1.5L291.5,127z
						 M293,128.7c-0.2-0.4-0.6-0.6-0.9-1.1l-9.3,5.4v1.7L293,128.7z M294.5,130.6v-0.2c-0.2-0.4-0.6-0.4-0.9-0.9l-10.8,6.3v1.5
						L294.5,130.6z M288,136.9l3.9-3.7l-9.1,5.2v1.7L288,136.9z M282.9,142.3l2.6-2.6l-2.6,1.5V142.3z M296.2,144.2l-13.4,7.8
						c0.4,0.2,0.6,0.6,1.1,0.9l15.1-8.6L296.2,144.2L296.2,144.2z M291.7,144.2l-8.8,5v1.7l11.4-6.7H291.7z M287,144.2l-4.1,2.4v1.5
						l6.9-3.9H287z M282.9,144.2v1.3l2.2-1.3H282.9z M282.9,165.8H306c-8.6-2.6-16.4-6.9-23.1-12.5V165.8z M309.6,166.7h-26.7v1.3
						h31.7C312.8,167.7,311.3,167.1,309.6,166.7z M283.5,45.2l18.8-10.8C295.4,37,289.1,40.7,283.5,45.2z M300.1,135.4
						c-0.4-0.2-0.6-0.6-1.1-0.9l-14.9,8.4h2.8L300.1,135.4z M287.6,121.2l-0.6-1.3l-2.2,1.3h2.6H287.6z M301,144.2l-16.2,9.3
						c0.4,0.2,0.6,0.6,1.1,0.9l17.7-10.1L301,144.2L301,144.2z M325.1,32.1h-2.8L285,53.6h2.8L325.1,32.1z M298.2,133.9
						c-0.4-0.2-0.6-0.9-1.1-1.1l-8,4.7l-3.9,3.7L298.2,133.9z M305.5,144.2L286.7,155c0.4,0.2,0.9,0.6,1.3,0.9l20.3-11.6
						L305.5,144.2L305.5,144.2z M302.3,136.9c-0.4-0.2-0.9-0.6-1.3-0.9l-12.1,6.9h2.6L302.3,136.9z M310.3,144.2l-21.4,12.3l1.3,0.6
						l22.6-12.9L310.3,144.2L310.3,144.2z M289.6,122.2c1.7,2.8,3.7,5.2,5.8,7.5l7.3-7.5H289.6z M329.7,32.1h-2.6l-37.3,21.6h2.8
						L329.7,32.1z M314.8,144.2l-23.5,13.6c0.4,0.2,0.9,0.6,1.3,0.9l25-14.5H314.8z M296.2,132.2c-0.4-0.2-0.4-0.6-0.9-0.9l-3.7,3.7
						L296.2,132.2z M304.7,138.2c-0.4-0.2-1.1-0.6-1.5-0.9l-9.7,5.6h2.8L304.7,138.2z M319.5,144.2l-26.1,14.9
						c0.4,0.2,1.1,0.6,1.5,0.9l27.4-15.7L319.5,144.2L319.5,144.2z M334.4,32.1h-2.8l-37.1,21.6h2.6L334.4,32.1z M296,130.4
						c8,7.8,18.8,12.5,30.8,12.5c6.9,0,13.6-1.5,19.4-4.3v-16.4h-41.8L296,130.4z M324.3,144.2L296,160.4c0.4,0.2,0.9,0.6,1.3,0.9
						l29.5-17L324.3,144.2L324.3,144.2z M307,139.5c-0.4-0.2-1.1-0.4-1.5-0.6l-7.3,4.1h2.6L307,139.5z M328.8,144.2l-30.4,17.5
						c0.4,0.2,1.3,0.4,1.7,0.6l31.5-18.1H328.8z M338.9,32.1h-2.6L299,53.6h2.8L338.9,32.1z M333.6,144.2l-32.4,18.5
						c0.4,0.2,0.9,0.4,1.5,0.6l33.4-19.2L333.6,144.2L333.6,144.2z M309.6,140.6c-0.4-0.2-1.1-0.4-1.5-0.6l-5.4,3h2.8L309.6,140.6z
						 M343.7,32.1h-2.8l-37.1,21.6h2.6L343.7,32.1z M338.1,144.2L304,163.9c0.6,0.2,1.1,0.4,1.7,0.6l35.2-20.3H338.1z M305.5,121.2
						h40.8v-0.6l-0.4,0.2v-1.1l0.4-0.2v-1.7l-0.4,0.4v-1.1l0.4-0.4v-1.5l-0.4,0.2v-1.1l0.4-0.2v-1.7l-0.4,0.4v-1.1l0.4-0.4v-1.5
						l-0.4,0.2v-1.1l0.4-0.2V107l-0.4,0.4v-1.1l0.4-0.4v-1.5l-0.4,0.2v-1.1l0.4-0.2v-1.7l-0.4,0.4v-1.1l0.4-0.4v-0.9h-19.2
						L305.5,121.2z M342.8,144.2L307,164.9c0.6,0.2,1.1,0.2,1.7,0.4l36.9-21.1L342.8,144.2L342.8,144.2z M312.4,141.6
						c-0.6-0.2-1.1-0.2-1.7-0.4l-3.2,1.7h2.8L312.4,141.6z M346.9,32.7c-0.6-0.2-1.1-0.2-1.7-0.4l-36.9,21.4h2.8L346.9,32.7z
						 M346.3,144.7l-36,21.1h2.6l33.4-19.4V144.7z M315.4,142.7c-0.6-0.2-1.1-0.4-1.7-0.6l-1.5,0.9h2.6L315.4,142.7z M349.9,33.8
						c-0.6-0.2-1.1-0.4-1.7-0.6L313,53.7h2.6L349.9,33.8z M317.2,54.5h-1.3l-1.1,0.6C315.4,54.9,316.3,54.7,317.2,54.5z
						 M346.3,147.5l-31.5,18.3h2.8l28.7-16.8V147.5z M314.8,166.7c0.2,0,0.4,0.2,0.6,0.2l0.2-0.2H314.8z M317.6,166.7l-0.6,0.4
						c0.6,0,1.7,0.4,2.4,0.4l1.1-0.9h-2.9V166.7z M317.6,30.8l2.2-1.1C318.5,29.9,317.6,30.8,317.6,30.8z M352.7,34.9
						c-0.4-0.2-0.9-0.4-1.5-0.6l-33.6,19.4h2.8L352.7,34.9z M322.1,29.5l-2.6,1.3h2.8l2.8-1.5C324.1,29.3,323.2,29.5,322.1,29.5z
						 M346.3,150.1l-26.7,15.7h2.8l23.9-14L346.3,150.1L346.3,150.1z M322.3,166.7l-1.5,0.9c0.9,0,1.7,0.2,2.6,0.2l1.7-1.1
						L322.3,166.7L322.3,166.7z M355.3,36c-0.4-0.2-1.1-0.4-1.5-0.6l-31.5,18.3h2.8L355.3,36z M327.9,29.3H327l-2.8,1.5h2.6l3-1.5
						H327.9z M346.3,152.9l-22,12.9h2.6l19.4-11.4V152.9z M329.7,166.7h-2.6l-1.9,1.1c0.6,0,1.1,0.2,1.7,0.2c0.2,0,0.9-0.2,1.1-0.2
						L329.7,166.7z M357.9,37.3c-0.4-0.2-1.1-0.6-1.5-0.9l-29.3,17.3h2.6L357.9,37.3z M347.6,82.6v16h23.7c0-11.9-5-22.6-12.7-30.6
						l-30.4,30.6h18.1v-16H347.6z M331.6,29.3l-2.8,1.5h2.8l2.6-1.5H331.6z M346.3,155.5l-17.5,10.4h2.8l14.7-8.6V155.5z
						 M334.4,166.7h-2.8l-1.7,1.1c1.1,0,1.9-0.2,3-0.2L334.4,166.7z M360.5,38.6c-0.4-0.2-1.1-0.6-1.5-0.9l-27.4,16h2.8L360.5,38.6z
						 M335.7,29.5l-2.2,1.3h2.6l1.3-0.9C336.8,29.9,336.4,29.5,335.7,29.5z M346.3,158.3l-12.7,7.5h2.6l10.1-6V158.3z M338.9,166.7
						h-2.6l-1.1,0.6c1.3-0.2,2.4-0.2,3.7-0.4V166.7z M362.7,39.8c-0.4-0.2-0.9-0.6-1.3-0.9l-25,14.7h2.6L362.7,39.8z M336.8,54.5
						l0.2,0.2l0.2-0.2H336.8z M336.8,142.9h1.3l0.9-0.4C338.3,142.7,337.4,142.7,336.8,142.9z M338.1,30.8h1.9l-1.3-0.4L338.1,30.8z
						 M346.3,160.8l-8.2,5h2.8l5.4-3.2L346.3,160.8L346.3,160.8z M339.2,54.5l-0.6,0.4c0.6,0.2,1.1,0.4,1.7,0.6l1.5-1.1L339.2,54.5
						L339.2,54.5z M346.3,168v-1.3h-1.9c-1.7,0.4-3.2,1.1-5,1.3H346.3z M346.3,141v-1.3l-2.6,1.3l-3.7,1.9h2.8L346.3,141z M365,41.1
						l-1.3-0.6l-22.9,13.2h2.8L365,41.1z M343.7,54.5l-2.2,1.5c0.6,0.2,1.1,0.2,1.7,0.4l3.2-1.9H343.7z M342.8,165.8h1.3
						c0.6-0.2,1.5-0.4,2.2-0.6v-1.5L342.8,165.8z M348.4,54.5l-4.1,2.4c0.4,0.2,1.1,0.6,1.5,0.9l5.2-3.2h-2.6V54.5z M346.3,142.9
						V142l-1.5,0.9H346.3z M367,42.6c-0.4-0.2-0.6-0.6-1.1-0.9l-20.3,11.9h2.8L367,42.6z M353,54.5l-6,3.7c0.4,0.2,1.1,0.4,1.5,0.6
						l7.3-4.3H353z M371.1,99.6h-2.6l-20.9,12.3v1.5L371.1,99.6z M366.6,99.6H364l-16.4,9.5v1.5L366.6,99.6z M362,99.6h-2.8
						l-11.6,6.9v1.5L362,99.6z M357.3,99.6h-2.8l-6.9,4.1v1.5L357.3,99.6z M352.5,99.6h-2.6c-0.9,0.4-1.5,1.1-2.4,1.5v1.5
						L352.5,99.6z M348,99.6h-0.4v0.2L348,99.6z M371.1,102.4v-1.7l-23.5,13.8v1.5L371.1,102.4z M370.6,105.2c0-0.6,0.2-0.9,0.2-1.5
						l-23.3,13.6v1.5L370.6,105.2z M370.2,108.2c0.2-0.6,0.2-1.1,0.2-1.7l-22.9,13.4v1.3h0.4L370.2,108.2z M347.6,138
						c6.9-3.7,12.7-9.1,16.8-15.7h-16.8V138z M371.3,126.5V125l-16.2,9.3c-2.4,1.9-4.7,3.7-7.5,5v1.1L371.3,126.5z M371.3,129.4
						v-1.7l-23.7,13.8v1.5L371.3,129.4z M371.3,144.2h-0.6l-23.1,13.4v1.5l23.7-13.6V144.2z M366.1,144.2L347.6,155v1.5l21.4-12.3
						H366.1z M361.4,144.2l-13.8,8v1.5l16.6-9.5H361.4z M356.8,144.2l-9.3,5.4v1.5l11.9-6.9H356.8z M352.1,144.2l-4.5,2.6v1.5
						l7.3-4.1H352.1z M347.6,144.2v1.5l2.6-1.5H347.6z M371.3,146.6l-23.7,13.8v1.5l23.7-13.8V146.6z M371.3,149.2L347.6,163v1.5
						l23.7-13.6L371.3,149.2L371.3,149.2z M371.3,168v-1.3h-23.7v1.3H371.3z M348,32.1c10.8,3.5,20.3,9.1,28,16.8l17-16.8H348z
						 M348,165.8h23.3v-12.5C364.6,158.9,356.6,163.2,348,165.8z M357.7,54.5l-8.4,5c0.4,0.2,1.1,0.6,1.5,0.9l9.7-5.8h-2.8V54.5z
						 M371.3,131.9v-1.5l-22,12.5h2.8L371.3,131.9z M369.4,111.5c0.2-0.6,0.2-1.3,0.4-1.9L350,121.2h2.6L369.4,111.5z M369.1,44.2
						c-0.4-0.2-0.9-0.6-1.3-0.9l-17.5,10.4h2.6L369.1,44.2z M370.6,152.2l-19.2,11.2C358.4,160.8,365,157,370.6,152.2z M362.5,54.5
						l-10.8,6.3c0.4,0.2,0.9,0.6,1.3,0.9l12.1-7.1h-2.6V54.5z M367,54.5l-13.2,7.8c0.4,0.2,0.6,0.6,1.1,0.9l14.9-8.6L367,54.5
						L367,54.5z M371.3,134.7V133l-17.3,9.9h2.6L371.3,134.7z M368.3,114.9c0.2-0.6,0.4-1.5,0.6-2.2l-14.5,8.4h2.8L368.3,114.9z
						 M371.1,45.7c-0.4-0.2-0.6-0.6-1.1-0.9l-15.1,8.8h2.8L371.1,45.7z M365,60.1l3.7-3.7l-12.9,7.3c0.4,0.2,0.6,0.9,1.1,1.1
						L365,60.1z M358.6,66.4l3.7-3.7l-4.7,2.8C357.9,65.7,358.1,65.9,358.6,66.4z M371.3,137.3v-1.5l-12.7,7.1h2.8L371.3,137.3z
						 M371.3,124v-1.7l-9.5,5.4c-0.9,1.1-1.9,2.4-3,3.5L371.3,124z M366.6,118.4c0.4-0.6,0.9-1.5,1.1-2.2l-8.4,5h2.8L366.6,118.4z
						 M372.2,82.6v16h23.7c0-16.6-6-32.1-16-44h-8l-12.5,12.7c5.8,5.8,9.9,13.4,11.9,21.8v-6.5C371.3,82.6,372.2,82.6,372.2,82.6z
						 M373,47.4c-0.4-0.2-0.6-0.6-1.1-0.9l-12.3,7.1h2.6L373,47.4z M371.3,140.1v-1.7l-8,4.5h2.8L371.3,140.1z M366.6,122.2
						l-1.3,0.9c-0.6,0.9-1.1,1.7-1.7,2.6l5.8-3.5H366.6z M365,121.2c0.2-0.4,0.4-0.6,0.6-1.1l-1.7,1.1H365z M374.7,49.1
						c-0.4-0.4-0.6-0.9-1.1-1.1l-9.5,5.6h2.8L374.7,49.1z M371.3,116.8l-3.9,2.2c-0.4,0.6-0.6,1.5-1.1,2.2h0.2l4.7-2.6L371.3,116.8
						L371.3,116.8z M371.3,142.7v-1.5l-3.2,1.7h2.6L371.3,142.7z M371.3,114.3l-2.2,1.1c-0.2,0.6-0.6,1.5-0.9,2.2l3-1.7v-1.6H371.3z
						 M368.5,121.2h2.8v-1.5L368.5,121.2z M371.5,53.6l3.7-3.7l-6.3,3.7H371.5z M371.3,111.5l-1.1,0.6l-0.6,1.9l1.7-0.9V111.5z
						 M371.3,108.9h-0.2c-0.2,0.6-0.2,1.1-0.4,1.7l0.6-0.2V108.9z M394.6,99.6h-2.8l-19.6,11.2v1.7L394.6,99.6z M389.8,99.6H387
						l-14.9,8.6v1.5L389.8,99.6z M385.1,99.6h-2.6l-10.4,5.8v1.7L385.1,99.6z M380.6,99.6h-2.8l-5.6,3.2v1.5L380.6,99.6z
						 M375.8,99.6h-2.6l-1.1,0.4v1.7L375.8,99.6z M395.9,101.5v-1.7l-23.7,13.8v1.5L395.9,101.5z M395.9,104.3v-1.7l-23.7,13.6v1.7
						L395.9,104.3z M395.5,107.1c0-0.6,0.2-1.1,0.2-1.7L372.2,119v1.5L395.5,107.1z M391.8,122.9c0-0.2,0.2-0.4,0.2-0.6h-2.2
						l-17.7,10.1v1.7L391.8,122.9z M387.9,122.2h-2.6l-13.2,7.5v1.5L387.9,122.2z M383.4,122.2h-2.8l-8.4,4.7v1.7L383.4,122.2z
						 M378.6,122.2H376l-3.9,2.2v1.5L378.6,122.2z M374.1,122.2h-1.9v1.1L374.1,122.2z M390.3,126.3c0.2-0.6,0.6-1.5,0.9-2.2l-19,11
						v1.5L390.3,126.3z M388.6,130c0.4-0.6,0.6-1.5,1.1-2.2l-17.5,9.9v1.7L388.6,130z M386.4,133.9c0.4-0.9,0.9-1.5,1.3-2.4
						l-15.5,9.1v1.5L386.4,133.9z M372.2,165.8h23.7v-21.6h-15.5c-2.6,3-5.2,5.4-8.2,8V165.8z M375.4,144.2l-3.2,1.7v1.5l6-3.2
						H375.4z M372.2,144.2v0.6l1.3-0.6H372.2z M378,145.3l-5.8,3.2v1.7l2.2-1.3C375.6,147.9,376.9,146.6,378,145.3z M383.6,138.2
						c0.6-0.9,1.1-1.7,1.7-2.6l-12.7,7.3h2.8L383.6,138.2z M379.1,53.6c-0.9-1.1-1.9-2.2-3-3.2l-3,3.2H379.1z M395,109.9
						c0-0.6,0.2-1.1,0.2-1.7l-22,12.9h2.6L395,109.9z M376.9,49.8c1.3,1.3,2.4,2.6,3.5,3.9h15.5V32.1h-1.3L376.9,49.8z M379.9,142.9
						c0.9-0.9,1.7-1.7,2.4-2.8l-5,2.8H379.9z M394.6,113c0.2-0.6,0-1.1,0.2-1.7l-17,9.9h2.8L394.6,113z M395.9,86.4V54.5h-14.5
						C388.8,63.6,393.7,74.6,395.9,86.4z M381.4,142.9h14.5v-20.7h-2.8C390.3,129.8,386.4,136.7,381.4,142.9z M393.7,116.2
						c0.2-0.6,0.2-1.3,0.4-1.9l-11.6,6.9h2.6L393.7,116.2z M392.9,119.4l0.6-1.9l-6.5,3.7h2.8L392.9,119.4z M392.2,121.2
						c0-0.2,0.2-0.2,0.2-0.4l-0.6,0.4H392.2z M395.9,121.2v-9.9c-0.6,3.5-1.3,6.7-2.4,9.9H395.9z M395.9,30.8v-0.2l-0.2,0.2H395.9z"
						/>
					<path class="st2" d="M390.1,120.9h21.1L448.5,32h-0.2h-37.1v-1.3h36.7L435.1,0.4l1.1-0.4l12.9,30.8l11.6-28.3l-0.9-2.2l1.1-0.4
						l0.4,1.1l0.4-1.1l1.1,0.4l-0.9,2.2l11.6,28.3L486.4,0l1.1,0.4L475,30.8h34.1v1.3h-34.5h-0.2l37.3,88.9H532v1.3h-19.8l8.6,20.7
						h19.4v1.3h-19l9.1,21.6h12.5v0.9h-12.1l13.4,31.9L543,199l-13.4-32.4h-23.7l13.4,31.9l-1.1,0.4l-13.4-32.4h-86.7L404.7,199
						l-1.1-0.4l13.4-31.9h-23.7L379.9,199l-1.1-0.4l13.4-31.9h-13.8v-0.9h14.2l9.1-21.6h-18.3v-1.3h18.8l8.6-20.7h-20.7V120.9z
						 M425.4,146.6l-31.3,18.1l-0.4,1.1h1.5l29.3-17L425.4,146.6z M426.5,144.2h-1.3L395.7,161l-0.9,2.2l31.3-18.1L426.5,144.2z
						 M420.5,144.2l-23.3,13.4l-0.9,2.2l27-15.5L420.5,144.2L420.5,144.2z M423.9,150.3l-26.7,15.5h2.8l23.1-13.6L423.9,150.3z
						 M415.7,144.2l-17,9.9l-0.9,1.9l20.7-11.9h-2.8V144.2z M411.2,144.2l-11,6.3l-0.9,2.2l14.5-8.4h-2.6V144.2z M406.5,144.2
						l-4.7,2.8l-0.9,1.9l8.4-4.7H406.5z M422.4,153.7l-20.5,12.1h2.6l17-9.9L422.4,153.7z M402.8,144.2l-0.4,1.3l2.2-1.3H402.8z
						 M435.6,122.2h-0.4l-30.4,17.7l-1.1,1.9l31.3-18.1L435.6,122.2z M434.3,125.3L403.7,143h2.8l27-15.5L434.3,125.3z M430.6,122.2
						l-24.6,14l-0.9,2.2l28-16.2H430.6z M420.9,157.4l-14.5,8.4h2.8l10.8-6.5C420.3,158.7,420.7,158,420.9,157.4z M425.9,122.2
						l-18.3,10.6l-0.9,1.9l22-12.5H425.9z M421.1,122.2l-12.1,6.9l-0.9,2.2l15.7-9.1C423.8,122.2,421.1,122.2,421.1,122.2z
						 M432.8,128.9l-24.4,14h2.6l20.9-12.1L432.8,128.9z M416.6,122.2l-6,3.5l-0.9,1.9l9.5-5.4H416.6z M412.1,122.2l-0.9,1.9
						l3.5-1.9H412.1z M419.4,160.8l-8.2,5h2.6l4.7-2.8L419.4,160.8z M444.6,100.5l-31.1,18.1l-0.9,1.9l31.1-18.1L444.6,100.5z
						 M431.3,132.4L413,143h2.8l14.7-8.4L431.3,132.4z M443.3,103.9l-29.5,17h2.6l26.1-14.9L443.3,103.9z M446.1,96.8L415,114.9
						l-0.9,2.2L445.2,99L446.1,96.8z M447.7,93.3l-31.1,18.1l-0.9,1.9l31.1-18.1L447.7,93.3z M415.7,165.8h1.7l0.4-1.3L415.7,165.8z
						 M449.2,89.7l-31.1,18.1l-0.9,2.2l31.1-18.1L449.2,89.7z M430,136l-12.3,6.9h2.8l8.6-5L430,136z M441.8,107.6L418.3,121h2.8
						l19.8-11.4L441.8,107.6z M450.7,86.2l-31.3,18.1l-0.9,1.9l31.3-17.9L450.7,86.2z M504.4,165.8l-9.1-21.6h-67.7l-9.1,21.6H504.4
						z M452.2,82.6l-31.3,18.1l-0.9,2.2l31.3-18.1L452.2,82.6z M453.7,79.1l-31.3,18.1l-0.9,1.9l31.3-17.9L453.7,79.1z M428.5,139.5
						l-6,3.5h2.6l2.6-1.3L428.5,139.5z M455.2,75.4l-31.3,18.1l-0.9,2.2l31.3-18.1L455.2,75.4z M440.3,111l-17.3,9.9h2.8l13.6-7.8
						L440.3,111z M456.7,72l-31.3,18.1l-0.9,1.9l31.3-17.9L456.7,72z M458.2,68.3l-31.3,18.1l-0.9,2.2l31.1-18.1L458.2,68.3z
						 M459.5,64.9l-31,18.1l-0.9,1.9L458.7,67L459.5,64.9z M438.8,114.7l-11,6.3h2.6l7.5-4.3L438.8,114.7z M465.8,122.2h-2.6
						l-34.7,20.1l-0.4,0.6h1.7L465.8,122.2z M460.8,61.8v-0.4L430,79.3l-0.9,2.2l31.1-18.1L460.8,61.8z M458.4,122.2L430,138.6
						l-0.9,2.2l32.1-18.5h-2.8V122.2z M459.7,59.3l-28.3,16.6l-0.9,1.9l29.8-17.3L459.7,59.3z M453.9,122.2l-22.4,12.9l-0.9,1.9
						l25.9-14.9h-2.6V122.2z M470.5,122.2h-2.8l-36,20.7h2.6L470.5,122.2z M458.9,57.1L433,72.2l-1.1,2.2l27.6-16L458.9,57.1z
						 M449.2,122.2l-16.2,9.3l-0.9,2.2l19.8-11.4L449.2,122.2L449.2,122.2z M437.3,118.1l-5,2.8h2.8l1.3-0.6L437.3,118.1z M458,54.9
						l-23.7,13.8l-0.9,1.9l25.2-14.5L458,54.9z M444.4,122.2l-10.1,5.8l-0.9,1.9l13.8-7.8h-2.8V122.2z M457.1,52.8l-21.4,12.3
						l-0.9,2.2l22.6-13.2L457.1,52.8z M439.9,122.2l-4.1,2.2l-0.9,2.2l7.5-4.3L439.9,122.2L439.9,122.2z M475,122.2h-2.6l-36.2,20.7
						h2.8L475,122.2z M456.3,50.6l-19,11l-0.9,1.9l20.3-11.6L456.3,50.6z M436.9,122.2l-0.4,0.6l1.5-0.6H436.9z M485.6,120.9
						l-24.2-57.8l-24.2,57.8H485.6z M455.2,48.5L438.8,58l-0.9,2.2l17.9-10.4L455.2,48.5z M454.3,46.3l-14,8.2
						c-0.2,0.6-0.6,1.3-0.9,1.9l15.5-8.8L454.3,46.3z M453.5,44.2l-11.6,6.7L441,53l12.9-7.5L453.5,44.2z M479.8,122.2H477l-36,20.7
						h2.8L479.8,122.2z M452.6,42l-9.3,5.4l-0.9,1.9l10.6-6L452.6,42z M451.7,39.8l-6.9,3.9l-0.9,2.2l8.2-4.7L451.7,39.8z
						 M450.7,37.7l-4.3,2.6l-0.9,1.9l5.8-3.2L450.7,37.7z M484.5,122.2h-2.8l-36,20.7h2.6L484.5,122.2z M449.8,35.5l-2.2,1.1
						l-0.9,2.2l3.7-2.2L449.8,35.5z M449.2,33.6l-0.9,1.5l1.1-0.6L449.2,33.6z M453.9,32.1h-2.8l-1.3,0.6l0.6,1.3L453.9,32.1z
						 M472.7,30.8l-11.2-27l-11.2,27H472.7z M486.7,123.5l-0.6-1.3l-35.8,20.7h2.8L486.7,123.5z M458.7,32.1h-2.8l-5,2.8l0.4,1.3
						L458.7,32.1z M463.2,32.1h-2.6l-8.8,5l0.4,1.3L463.2,32.1z M467.9,32.1h-2.8l-12.5,7.1l0.4,1.3L467.9,32.1z M472.5,32.1h-2.6
						l-16.4,9.3l0.6,1.3L472.5,32.1z M472,34.9l0.9-2.2l-18.5,10.8l0.6,1.3L472,34.9z M487.6,125.7l-0.4-1.3L455,142.9h2.6
						L487.6,125.7z M470.7,38.6l0.9-2.2l-16.2,9.3l0.4,1.3L470.7,38.6z M469.2,42l0.9-2.2l-13.8,8l0.4,1.3L469.2,42z M467.7,45.7
						l0.9-2.2l-11.4,6.7l0.4,1.1L467.7,45.7z M466.2,49.1c0.2-0.6,0.6-1.5,0.9-2.2l-9.1,5.4l0.6,1.1L466.2,49.1z M464.7,52.8
						l0.9-2.2l-6.7,3.9l0.6,1.3L464.7,52.8z M488.4,127.8l-0.4-1.3l-28.5,16.4h2.8L488.4,127.8z M463.2,56.2l0.9-2.2l-4.1,2.6
						l0.4,1.3L463.2,56.2z M461.7,59.9l0.9-2.2l-1.7,1.1l0.4,1.3L461.7,59.9z M481.3,51.3l-0.6-1.3l-18.1,10.4l-0.4,1.5v0.4
						L481.3,51.3z M482.2,53.4l-0.6-1.3l-19,11l0.6,1.3L482.2,53.4z M479.8,47.8L464,56.9l-0.9,1.9l17.3-9.7L479.8,47.8z M483,55.6
						l-0.4-1.3l-19.2,11l0.6,1.3L483,55.6z M489.5,130l-0.6-1.3l-24.6,14.2h2.6L489.5,130z M483.9,57.7l-0.4-1.3l-19,11l0.4,1.3
						L483.9,57.7z M478.9,45.7l-13.4,7.5l-0.9,2.2l14.7-8.4L478.9,45.7z M485,59.9l-0.6-1.3l-19,11l0.4,1.3L485,59.9z M478.1,43.5
						l-11,6.3l-0.9,1.9l12.3-7.1L478.1,43.5z M485.8,62.1l-0.6-1.3l-19,11l0.6,1.3L485.8,62.1z M486.7,64.2l-0.6-1.3l-19,11l0.6,1.3
						L486.7,64.2z M477,41.4l-8.4,4.7l-0.9,2.2l9.9-5.8L477,41.4z M487.6,66.4l-0.4-1.3l-19.2,11l0.6,1.3L487.6,66.4z M490.4,132.2
						l-0.6-1.3L468.9,143h2.8L490.4,132.2z M488.4,68.5l-0.4-1.3l-19,11l0.4,1.3L488.4,68.5z M476.1,39l-6,3.7l-0.9,1.9l7.5-4.3
						L476.1,39z M489.5,70.7l-0.6-1.3l-19,11l0.4,1.3L489.5,70.7z M475.3,36.8l-3.7,2.2l-0.9,2.2l5-3L475.3,36.8z M490.4,72.8
						l-0.6-1.3l-19,11l0.6,1.3L490.4,72.8z M491.2,75l-0.4-1.3l-19.2,11.2l0.6,1.1L491.2,75z M474.4,34.7l-1.3,0.9l-0.9,1.9l2.6-1.5
						L474.4,34.7z M492.1,77.2l-0.4-1.1l-19,11l0.4,1.1L492.1,77.2z M492.9,79.3l-0.4-1.1l-19,11l0.4,1.3L492.9,79.3z M491.2,134.3
						l-0.6-1.3l-17,9.9h2.8L491.2,134.3z M473.7,33.6V34l0.2-0.2L473.7,33.6z M494,81.7l-0.6-1.3l-19,11l0.4,1.3L494,81.7z
						 M494.9,83.8l-0.6-1.3l-19,11l0.6,1.3L494.9,83.8z M495.7,86l-0.4-1.3l-19.2,11l0.6,1.3L495.7,86z M496.6,88.2l-0.4-1.3l-19,11
						l0.4,1.3L496.6,88.2z M497.5,90.3L497,89l-19,11l0.4,1.3L497.5,90.3z M492.1,136.5l-0.4-1.1l-13.4,7.5h2.6L492.1,136.5z
						 M498.6,92.5l-0.6-1.3l-19,11l0.4,1.3L498.6,92.5z M499.4,94.6l-0.6-1.3l-19,11l0.6,1.3L499.4,94.6z M500.3,96.8l-0.4-1.3
						l-19.2,11l0.6,1.3L500.3,96.8z M501.1,98.9l-0.4-1.3l-19,11l0.4,1.3L501.1,98.9z M502,101.1l-0.4-1.3l-19,11l0.4,1.3L502,101.1
						z M492.9,138.6c-0.2-0.4-0.2-0.6-0.4-1.1l-9.7,5.4h2.8L492.9,138.6z M503.1,103.3l-0.6-1.3l-19,11l0.4,1.3L503.1,103.3z
						 M503.9,105.4l-0.6-1.3l-19,11l0.6,1.3L503.9,105.4z M504.8,107.6l-0.4-1.3l-19.2,11.2l0.6,1.1L504.8,107.6z M505.7,109.7
						l-0.4-1.3l-19,11.2l0.4,1.1L505.7,109.7z M487.3,122.2l0.2,0.9l1.5-0.9H487.3z M494,141l-0.6-1.3l-5.8,3.2h2.6L494,141z
						 M491,122.2l-3,1.7l0.4,1.3l5.4-3H491z M506.7,111.9l-0.6-1.1l-17.9,10.1h2.8L506.7,111.9z M495.7,122.2l-6.9,3.9l0.6,1.3
						l8.8-5.2C498.2,122.2,495.7,122.2,495.7,122.2z M500.3,122.2l-10.6,6l0.6,1.3l12.7-7.3H500.3z M505,122.2l-14.2,8.2l0.4,1.3
						l16.6-9.5H505z M510.8,122.2h-1.1l-18.1,10.4l0.4,1.3l19.2-11L510.8,122.2z M494.9,142.9l-0.6-1.1l-2.2,1.1H494.9z
						 M511.5,123.7l-19,11l0.6,1.3l19-11L511.5,123.7z M507.6,114l-0.6-1l-14,8h2.6L507.6,114z M512.4,125.9l-19,11l0.6,1.3l19-11
						L512.4,125.9z M513.4,128.1l-19.2,11l0.6,1.3l19-11L513.4,128.1z M514.3,130.2l-19,11l0.4,1.3l19-11L514.3,130.2z M496.4,144.2
						l0.2,0.4l1.1-0.4H496.4z M515.8,133.7l-0.6-1.3L496.9,143h2.8L515.8,133.7z M499.6,144.2l-2.6,1.3l0.6,1.3l4.7-2.6H499.6z
						 M508.5,116.4l-0.6-1.3l-10.4,5.8h2.8L508.5,116.4z M504.2,144.2l-6.3,3.5l0.6,1.3l8.4-4.7h-2.7V144.2z M508.9,144.2l-9.9,5.6
						l0.4,1.3l12.3-6.9L508.9,144.2L508.9,144.2z M513.7,144.2l-13.8,8l0.4,1.1l16-9.1H513.7z M520.1,144.2h-1.9l-17.5,10.1l0.4,1.1
						l19.2-11L520.1,144.2z M516.7,135.8l-0.6-1.3l-14.5,8.4h2.6L516.7,135.8z M520.6,145.5l-19,11l0.6,1.3l19-11.2L520.6,145.5z
						 M509.3,118.6l-0.4-1.3l-6.7,3.7h2.8L509.3,118.6z M521.6,147.7l-19.2,11l0.6,1.3l19-11L521.6,147.7z M522.5,149.8l-19,11
						l0.4,1.3l19-11L522.5,149.8z M523.4,152l-19,11l0.4,1.3l19-11L523.4,152z M524.9,155.5l-0.6-1.3l-19,11l0.2,0.6h1.5
						L524.9,155.5z M517.5,138l-0.4-1.3l-11,6.3h2.8L517.5,138z M510.2,120.7l-0.4-1.3l-2.8,1.5h2.6L510.2,120.7z M525.7,157.6
						l-0.6-1.3l-16.2,9.5h2.8L525.7,157.6z M518.4,140.1l-0.4-1.3l-7.1,4.1h2.6L518.4,140.1z M526.6,159.8l-0.4-1.3l-12.5,7.3h2.6
						L526.6,159.8z M519.3,142.3l-0.4-1.3l-3.5,1.9h2.8L519.3,142.3z M527.5,161.9l-0.4-1.3l-8.8,5.2h2.8L527.5,161.9z M528.3,164.1
						l-0.4-1.3l-5,3h2.6L528.3,164.1z M529.2,165.8l-0.4-0.9l-1.3,0.9H529.2z"/>
					<path class="st2" d="M666.4,32.1h-11.6v133.7h12.1v0.9H655l8.8,12.1l-1.1,0.4l-8-11v30.6h-1.3v-32.1h-20.9l17,23.5l-0.9,0.6
						L631.8,168v30.8H631v-32.1h-75.5v32.1h-1.3v-32.1h-21.6v32.1h-0.9v-32.1h-14.2v-0.9h14.2V32.1h-16.6v-1.3h16.6l-6.5-8.6
						l0.9-0.6l5.6,7.5V1.5h0.9v29.1l0.4,0.2h1.3h1.9h2.8h15.1L535,4.5l0.9-0.6l18.3,25.2V1.5h1.3v29.1l0.2,0.2H631V1.5h0.9v29.3
						h21.6V1.5h1.3v29.3h11.6L666.4,32.1L666.4,32.1z M533.1,32.7l-0.4,0.2v1.5l1.3-0.6L533.1,32.7z M534.6,34.7l-1.9,1.1v1.5
						l2.6-1.5L534.6,34.7z M535.9,36.6l-3.2,1.7v1.5l4.1-2.2L535.9,36.6z M537.2,38.6l-4.5,2.6v1.5l5.4-3L537.2,38.6z M538.7,40.3
						l-6,3.5v1.5l6.9-3.9L538.7,40.3z M540,42.2l-7.3,4.3V48l8.2-4.7L540,42.2z M541.5,44.2l-8.8,5v1.5l9.5-5.4L541.5,44.2z
						 M542.8,46.1l-10.1,5.8v1.5l11-6.3L542.8,46.1z M544.1,47.8c-3.9,2.2-7.5,4.5-11.4,6.7V56l12.3-6.9L544.1,47.8z M545.6,49.8
						l-12.9,7.5v1.5l13.8-8L545.6,49.8z M546.9,51.7l-14.2,8.2v1.5l15.1-8.6L546.9,51.7z M548.4,53.6l-15.7,9.1v1.5l16.4-9.5
						L548.4,53.6z M549.7,55.6l-17,9.7v1.5l17.9-10.1L549.7,55.6z M551.2,57.3l-18.5,10.8v1.5l19.2-11.2L551.2,57.3z M552.5,59.3
						l-19.8,11.4v1.5l20.7-11.9L552.5,59.3z M554.2,61.8l-0.4-0.6l-21.1,12.3V75l21.6-12.5L554.2,61.8L554.2,61.8z M554.2,63.6
						l-21.6,12.5v1.5l21.6-12.5V63.6z M554.2,66.4l-21.6,12.5v1.5l21.6-12.5V66.4z M554.2,69l-21.6,12.5V83l21.6-12.5V69z
						 M554.2,71.8l-21.6,12.5v1.5l21.6-12.5V71.8z M554.2,74.4l-21.6,12.5v1.5l21.6-12.5V74.4z M554.2,77.2l-21.6,12.5v1.5
						l21.6-12.5V77.2z M554.2,79.7l-21.6,12.5v1.5l21.6-12.5V79.7z M554.2,82.6l-21.6,12.5v1.5l21.6-12.5V82.6z M554.2,85.1
						l-21.6,12.5v1.5l21.6-12.5V85.1z M554.2,87.9l-21.6,12.5v1.5l21.6-12.5V87.9z M554.2,90.5L532.6,103v1.5L554.2,92V90.5z
						 M554.2,93.3l-21.6,12.5v1.5l21.6-12.5V93.3z M554.2,95.9l-21.6,12.5v1.5l21.6-12.5V95.9z M554.2,98.7l-21.6,12.5v1.5
						l21.6-12.5V98.7z M554.2,101.3l-21.6,12.5v1.5l21.6-12.5V101.3z M554.2,104.1l-21.6,12.5v1.5l21.6-12.5V104.1z M554.2,106.7
						l-21.6,12.5v1.5l21.6-12.5V106.7z M554.2,109.5L532.6,122v1.5l21.6-12.5L554.2,109.5L554.2,109.5z M554.2,112.1l-21.6,12.5v1.5
						l21.6-12.5V112.1z M554.2,114.9l-21.6,12.5v1.5l21.6-12.5V114.9z M554.2,117.5L532.6,130v1.5l21.6-12.5L554.2,117.5
						L554.2,117.5z M554.2,120.3l-21.6,12.5v1.5l21.6-12.5V120.3z M554.2,122.9l-21.6,12.5v1.5l21.6-12.5V122.9z M554.2,125.7
						l-21.6,12.5v1.5l21.6-12.5V125.7z M554.2,128.3l-21.6,12.5v1.5l21.6-12.5V128.3z M554.2,131.1l-21.6,12.5v1.5l21.6-12.5V131.1z
						 M554.2,133.7l-21.6,12.5v1.5l21.6-12.5V133.7z M554.2,136.5L532.6,149v1.5l21.6-12.5L554.2,136.5L554.2,136.5z M554.2,139.1
						l-21.6,12.5v1.5l21.6-12.5V139.1z M554.2,141.9l-21.6,12.5v1.5l21.6-12.5V141.9z M554.2,144.5L532.6,157v1.5l21.6-12.5
						L554.2,144.5L554.2,144.5z M554.2,147.3l-21.6,12.5v1.5l21.6-12.5V147.3z M554.2,149.8l-21.6,12.5v1.5l21.6-12.5V149.8z
						 M554.2,154.2v-1.5l-21.6,12.5v0.6h1.7L554.2,154.2z M534.4,32.1l-0.4,0.2l0.9,1.1l2.4-1.3H534.4z M539.1,32.1l-3.7,1.9
						l0.9,1.3l5.6-3.2H539.1z M554.2,156.7v-1.5l-17.9,10.6h2.8L554.2,156.7z M543.8,32.1l-7.1,3.9l0.9,1.1l8.8-5H543.8z
						 M548.4,32.1l-10.1,5.8c0.2,0.4,0.4,0.6,0.6,1.1l12.3-6.9C551.2,32.1,548.4,32.1,548.4,32.1z M554.2,32.7v-0.6h-1.1l-13.6,7.8
						l0.9,1.1L554.2,32.7z M554.2,35.5V34L541,41.8l0.6,1.1L554.2,35.5z M554.2,159.5V158l-13.2,7.8h2.6L554.2,159.5z M554.2,38.1
						v-1.5l-11.9,6.9l0.9,1.1L554.2,38.1z M554.2,40.9v-1.5l-10.6,6l0.9,1.1L554.2,40.9z M554.2,43.5V42l-9.1,5.4l0.9,1.1
						L554.2,43.5z M554.2,162.1v-1.5l-8.6,5.2h2.8L554.2,162.1z M554.2,46.3v-1.5l-7.8,4.5l0.9,1.1L554.2,46.3z M554.2,48.9v-1.5
						l-6.3,3.7l0.6,1.3L554.2,48.9z M554.2,51.7v-1.5l-5,2.8l0.9,1.1L554.2,51.7z M554.2,164.9v-1.5l-3.9,2.4h2.6L554.2,164.9z
						 M554.2,54.3v-1.5l-3.7,2.2l0.9,1.1L554.2,54.3z M554.2,57.1v-1.5l-2.2,1.3l0.9,1.1L554.2,57.1z M554.2,59.7v-1.5l-0.9,0.6
						l0.9,1.1V59.7z M555.9,32.9l-0.4,0.4v1.5l1.3-0.6L555.9,32.9z M557.2,34.9l-1.7,1.1v1.7l2.6-1.7L557.2,34.9z M558.7,36.8
						l-3.2,1.9v1.5l3.9-2.4L558.7,36.8z M560,38.8l-4.5,2.6v1.7l5.4-3.2L560,38.8z M561.3,40.7l-5.8,3.5v1.5l6.7-3.9L561.3,40.7z
						 M562.8,42.4l-7.3,4.3v1.7l8.2-5L562.8,42.4z M564.1,44.4l-8.6,5.2v1.5l9.5-5.6L564.1,44.4z M565.6,46.3l-10.1,5.8v1.7l11-6.5
						L565.6,46.3z M566.9,48.3L555.5,55v1.5l12.3-7.1L566.9,48.3z M568.4,50l-12.9,7.5v1.7l13.6-8L568.4,50z M570.6,53l-0.9-1.1
						l-14.2,8.4v1.1l0.2,0.2L570.6,53z M630.3,165.8l-0.2-0.4h-0.2l-0.6-0.9h0.2l-0.9-1.1l-0.6-0.6v-0.2l-0.6-1.1l-0.2,0.2l-0.4-0.9
						l-0.9-1.1l-0.6-0.9h0.2l-0.9-1.1l-0.6-0.9l-0.9-1.1l-0.6-0.6l0.2-0.2l-0.9-1.1l-0.6-0.6l-0.6-1.3l-0.2,0.2l-0.4-0.9l-0.9-1.1
						l-0.6-0.9h0.2l-0.9-1.1h-0.2l-0.4-0.9l-0.9-1.1l-0.6-0.6l0.2-0.2l-0.9-1.1l-0.6-0.6l-0.6-1.3l-0.2,0.2l-0.4-0.9l-0.9-1.1
						l-0.6-0.9l-0.6-1.1h-0.2l-0.4-0.9l-0.9-1.1l-0.6-0.6l0.2-0.2l-0.9-1.1l-0.6-0.6l-0.9-1.1l-0.4-0.9l-0.9-1.1l-0.6-0.9l-0.6-1.1
						h-0.2l-0.4-0.9l-0.9-1.1l-0.6-0.6l-0.6-1.1l-0.6-0.9l-0.9-1.1l-0.6-0.9h0.2l-0.9-1.1l-0.6-0.9l-0.9-1.1l-0.4-0.6v0.4l-0.9-1.1
						l-0.6-0.6l-0.6-1.1h-0.2l-0.4-0.9l-0.9-1.1l-0.6-0.9h0.2l-0.9-1.1l-0.6-0.9l-0.9-1.1l-0.4-0.6l-0.9-1.3l-0.6-0.6l-0.6-1.1h-1
						l-0.4-0.9l-0.9-1.1l-0.6-0.9l-0.6-1.1l-0.6-0.9l-0.9-1.1l-0.4-0.6l-0.9-1.1l-0.6-0.9l-0.9-1.1l-0.4-0.9l-0.9-1.1l-0.4-0.6
						L555.6,63v102.4h74.7V165.8z M571.9,54.9l-0.9-1.1l-14.9,8.6l0.9,1.1L571.9,54.9z M556.4,32.1L631,133.9V32.1H556.4z
						 M573.4,56.9l-0.9-1.1l-14.9,8.6l0.6,1.1L573.4,56.9z M574.7,58.8l-0.9-1.1l-14.9,8.6l0.9,1.1L574.7,58.8z M576,60.8l-0.6-1.3
						l-15.1,8.6l0.9,1.3L576,60.8z M577.5,62.5l-0.9-1.1L561.8,70l0.9,1.1L577.5,62.5z M578.8,64.4l-0.6-1.1L563,72l0.9,1.1
						L578.8,64.4z M580.3,66.4l-0.9-1.1l-14.9,8.6l0.6,1.1L580.3,66.4z M581.6,68.3l-0.9-1.1l-14.9,8.6l0.9,1.1L581.6,68.3z
						 M583.1,70l-0.9-1.1l-14.9,8.6l0.6,1.3L583.1,70z M584.4,72l-0.9-1.1l-14.9,8.6l0.9,1.1L584.4,72z M585.7,73.9l-0.6-1.1
						L570,81.4l0.9,1.1L585.7,73.9z M587.2,75.9l-0.9-1.1l-14.9,8.6l0.9,1.1L587.2,75.9z M588.5,77.8l-0.9-1.3l-14.9,8.8l0.9,1.1
						L588.5,77.8z M590,79.5l-0.9-1.1L574.2,87l0.6,1.1L590,79.5z M591.3,81.5l-0.9-1.1L575.6,89l0.9,1.1L591.3,81.5z M592.6,83.4
						l-0.6-1.1L577.1,91l0.6,1.1L592.6,83.4z M594.1,85.4l-0.9-1.1l-14.9,8.6l0.9,1.1L594.1,85.4z M595.4,87.1l-0.6-1.1l-15.1,8.6
						l0.9,1.3L595.4,87.1z M596.9,89l-0.9-1.1l-14.9,8.6l0.9,1.1L596.9,89z M598.2,91l-0.9-1.1l-14.9,8.6l0.9,1.1L598.2,91z
						 M599.7,92.9l-0.9-1.1l-14.9,8.6l0.6,1.1L599.7,92.9z M601,94.8l-0.9-1.3l-14.9,8.8l0.9,1.1L601,94.8z M602.3,96.6l-0.6-1.1
						l-15.1,8.6l0.9,1.1L602.3,96.6z M603.8,98.5l-0.9-1.1L588,106l0.9,1.1L603.8,98.5z M605.1,100.5l-0.6-1.1l-15.1,8.6l0.9,1.1
						L605.1,100.5z M606.6,102.4l-0.9-1.1l-14.9,8.6l0.6,1.1L606.6,102.4z M607.9,104.1L607,103l-14.9,8.6l0.9,1.3L607.9,104.1z
						 M609.4,106.1l-0.9-1.1l-14.9,8.6l0.6,1.1L609.4,106.1z M610.7,108l-0.9-1.1l-14.9,8.6l0.9,1.1L610.7,108z M612,109.9l-0.6-1.1
						l-15.1,8.6l0.9,1.1L612,109.9z M613.5,111.9l-0.9-1.3l-14.9,8.8l0.9,1.1L613.5,111.9z M614.8,113.6l-0.9-1.1l-14.9,8.6l0.9,1.1
						L614.8,113.6z M616.3,115.5l-0.9-1.1l-14.9,8.6l0.6,1.1L616.3,115.5z M617.6,117.5l-0.9-1.1l-14.9,8.6l0.9,1.1L617.6,117.5z
						 M618.9,119.4l-0.6-1.1l-14.9,8.6l0.6,1.1L618.9,119.4z M620.4,121.4l-0.9-1.3l-14.9,8.6l0.9,1.3L620.4,121.4z M621.7,123.1
						l-0.6-1.1l-15.1,8.6l0.9,1.1L621.7,123.1z M623.2,125l-0.9-1.1l-14.9,8.6l0.9,1.1L623.2,125z M624.5,127l-0.9-1.1l-14.9,8.6
						l0.9,1.1L624.5,127z M626,128.9l-0.9-1.1l-14.9,8.6l0.6,1.1L626,128.9z M627.3,130.6l-0.9-1.1l-14.9,8.6l0.9,1.3L627.3,130.6z
						 M628.6,132.6l-0.6-1.1l-15.1,8.6c0.2,0.4,0.6,0.6,0.9,1.1L628.6,132.6z M630.1,134.5l-0.9-1.1l-14.9,8.6l0.9,1.1L630.1,134.5z
						 M631,136.7v-1.1l-0.4-0.2l-14.9,8.6l0.9,1.1L631,136.7z M631,139.5V138l-13.8,8l0.6,1.1L631,139.5z M631,142.1v-1.5l-12.5,7.1
						l0.9,1.1L631,142.1z M631,144.9v-1.5l-11,6.3l0.6,1.1L631,144.9z M631,147.5V146l-9.7,5.6l0.9,1.1L631,147.5z M631,150.3v-1.5
						l-8.4,4.7l0.9,1.1L631,150.3z M631,152.9v-1.5l-6.9,3.9l0.9,1.3C626.9,155.5,629,153.9,631,152.9z M631,155.7v-1.5l-5.6,3
						l0.9,1.1L631,155.7z M631,158.3v-1.5l-4.1,2.4l0.6,1.1L631,158.3z M631,161.1v-1.5l-2.8,1.5l0.9,1.1L631,161.1z M631,163.6
						v-1.5l-1.3,0.9l0.6,1.1L631,163.6z M653.4,32.1h-2.6l-19,10.8v1.5L653.4,32.1z M646.1,32.1l-14.2,8.2v1.5l17-9.7H646.1z
						 M641.6,32.1l-9.7,5.4V39l12.3-6.9H641.6z M636.8,32.1l-5,2.8v1.5l7.8-4.3H636.8z M632.3,32.1h-0.4v1.5l3-1.5H632.3z
						 M653.4,34.7v-1.5l-21.6,12.5v1.5L653.4,34.7z M653.4,37.5v-1.7l-21.6,12.5v1.5L653.4,37.5z M653.4,40.1v-1.5l-21.6,12.5v1.5
						L653.4,40.1z M653.4,42.9v-1.7l-21.6,12.5v1.5L653.4,42.9z M653.4,45.5V44l-21.6,12.5V58L653.4,45.5z M653.4,48.3v-1.7
						L631.8,59v1.5L653.4,48.3z M653.4,50.8v-1.5l-21.6,12.5v1.5L653.4,50.8z M653.4,53.6v-1.7l-21.6,12.5v1.5L653.4,53.6z
						 M653.4,56.2v-1.5l-21.6,12.5v1.5L653.4,56.2z M653.4,59v-1.7l-21.6,12.5v1.5L653.4,59z M653.4,61.6v-1.5l-21.6,12.5v1.5
						L653.4,61.6z M653.4,64.4v-1.7l-21.6,12.5v1.5L653.4,64.4z M653.4,67v-1.5L631.8,78v1.5L653.4,67z M653.4,69.8v-1.7l-21.6,12.5
						v1.5L653.4,69.8z M653.4,72.4v-1.5l-21.6,12.5v1.5L653.4,72.4z M653.4,75.2v-1.7L631.8,86v1.5L653.4,75.2z M653.4,77.8v-1.5
						l-21.6,12.5v1.5L653.4,77.8z M653.4,80.6v-1.7l-21.6,12.5v1.5L653.4,80.6z M653.4,83.2v-1.5l-21.6,12.5v1.5L653.4,83.2z
						 M653.4,86v-1.7l-21.6,12.5v1.5L653.4,86z M653.4,88.6v-1.5l-21.6,12.5v1.5L653.4,88.6z M653.4,91.4v-1.7l-21.6,12.5v1.5
						L653.4,91.4z M653.4,94v-1.5L631.8,105v1.5L653.4,94z M653.4,96.8v-1.7l-21.6,12.5v1.5L653.4,96.8z M653.4,99.4v-1.5
						l-21.6,12.5v1.5L653.4,99.4z M653.4,102.2v-1.7L631.8,113v1.5L653.4,102.2z M653.4,104.8v-1.5l-21.6,12.5v1.5L653.4,104.8z
						 M653.4,107.6v-1.7l-21.6,12.5v1.5L653.4,107.6z M653.4,110.2v-1.5l-21.6,12.5v1.5L653.4,110.2z M653.4,113v-1.7l-21.6,12.5
						v1.5L653.4,113z M653.4,115.5V114l-21.6,12.5v1.5L653.4,115.5z M653.4,118.4v-1.7l-21.6,12.5v1.5L653.4,118.4z M653.4,120.9
						v-1.5l-21.6,12.5v1.5L653.4,120.9z M653.4,123.7V122l-21.6,12.5v0.6l0.6,0.6L653.4,123.7z M632.1,137.1l-0.2,0.2v1.5l1.1-0.4
						L632.1,137.1z M633.4,139.1l-1.5,0.9v1.5l2.4-1.3L633.4,139.1z M634.9,141l-3,1.7v1.5l3.9-2.2L634.9,141z M636.2,142.9
						l-4.3,2.4v1.5l5.2-2.8L636.2,142.9z M637.7,144.9l-5.8,3.2v1.5l6.5-3.7L637.7,144.9z M639,146.6l-7.1,4.1v1.5l8-4.5L639,146.6z
						 M640.3,148.5l-8.4,5v1.5l9.3-5.4L640.3,148.5z M641.8,150.5l-9.9,5.6v1.5l10.8-6L641.8,150.5z M643.1,152.4l-11.2,6.5v1.5
						l12.1-6.9L643.1,152.4z M644.6,154.2l-12.7,7.3v1.5l13.4-7.5L644.6,154.2z M646.7,157.2l-0.9-1.1l-14,8.2v1.5h0.2L646.7,157.2z
						 M653.4,126.3v-1.5l-20.5,11.9l0.9,1.1L653.4,126.3z M648,159.1l-0.6-1.1l-13.4,7.8h2.8L648,159.1z M653.4,129.1v-1.7l-19,11.2
						l0.6,1.1L653.4,129.1z M653.4,131.7v-1.5l-17.7,10.1l0.9,1.3L653.4,131.7z M653.4,134.5v-1.7l-16.2,9.5l0.6,1.1L653.4,134.5z
						 M653.4,137.1v-1.5l-14.9,8.6l0.9,1.1L653.4,137.1z M649.5,161.1l-0.9-1.1l-9.9,5.8h2.6L649.5,161.1z M653.4,139.9v-1.7
						l-13.6,8l0.9,1.1L653.4,139.9z M653.4,142.5V141l-12.1,7.1l0.9,1.1L653.4,142.5z M653.4,145.3v-1.7l-10.8,6.3l0.9,1.3
						L653.4,145.3z M650.8,163l-0.9-1.1l-6.7,3.9h2.8L650.8,163z M653.4,147.9v-1.5l-9.3,5.4l0.6,1.1L653.4,147.9z M653.4,150.7V149
						l-8,4.7l0.9,1.1C648.7,153.3,651,152.2,653.4,150.7z M653.4,153.3v-1.5l-6.7,3.9l0.9,1.1L653.4,153.3z M652.3,164.9l-0.9-1.3
						l-3.5,2.2h2.8L652.3,164.9z M653.4,156.1v-1.7l-5.2,3.2l0.9,1.1L653.4,156.1z M653.4,158.7v-1.5l-3.9,2.2l0.9,1.1
						C651.5,159.8,652.3,159.3,653.4,158.7z M653.4,161.5v-1.7c-0.9,0.4-1.5,1.1-2.4,1.5l0.6,1.1L653.4,161.5z M653.4,164.1v-1.5
						l-1.1,0.6l0.9,1.1L653.4,164.1z"/>
				</g>
			</g>
		</g>
	</g>
</g>
</svg>
