<?xml version="1.0" encoding="utf-8"?>
<!-- Generator: Adobe Illustrator 21.0.0, SVG Export Plug-In . SVG Version: 6.00 Build 0)  -->
<svg version="1.1" id="Layer_1" xmlns="http://www.w3.org/2000/svg" xmlns:xlink="http://www.w3.org/1999/xlink" x="0px" y="0px"
	 viewBox="0 0 742 121" style="enable-background:new 0 0 742 121;" xml:space="preserve">
<style type="text/css">
	.st0{fill:none;stroke:#CECECE;stroke-miterlimit:10;}
	.st1{clip-path:url(#SVGID_2_);}
	.st2{fill:#CECECE;}
</style>
<g>
	<line class="st0" x1="4" y1="120.5" x2="742" y2="120.5"/>
	<g>
		<g>
			<defs>
				<rect id="SVGID_1_" x="-0.3" width="742.3" height="121"/>
			</defs>
			<clipPath id="SVGID_2_">
				<use xlink:href="#SVGID_1_"  style="overflow:visible;"/>
			</clipPath>
			<g class="st1">
				<g>
					<path class="st2" d="M151.1,32.1h-11.6v133.7h12.1v0.9h-11.9l8.8,12.1l-1.1,0.4l-8-11v30.6h-1.3v-32.1h-20.9l16.2,22.4
						l-0.9,0.4l-16-21.6v30.8h-0.9v-32.1H40.3v32.1H39v-31.3l-16.8,23.1l-0.9-0.6l17-23.3H17.4v32.1h-0.9v-31.1L8.1,179L7,178.6
						l8.8-12.1H2.3v-0.9h14.2V32.1H0v-1.3h16.6l-6.5-8.6l0.9-0.6l5.6,7.5V1.3h0.9v29.3l0.4,0.2H39L22.2,7.7L23,7.1l16,22V1.3h1.3
						v29.3l0.2,0.2h75.3V1.3h0.9v28.5l16.6-22.4l0.9,0.6l-16.8,22.9h20.9V1.3h1.3v28.3l5.8-8l0.9,0.6l-6.5,8.6h11.4L151.1,32.1
						L151.1,32.1z M17.9,32.7L17.4,33v1.5l1.3-0.6L17.9,32.7z M19.4,34.7l-1.9,1.1v1.5l2.6-1.5L19.4,34.7z M20.7,36.6l-3.2,1.7v1.5
						l4.1-2.2L20.7,36.6z M22,38.6l-4.5,2.6v1.5l5.4-3L22,38.6z M23.5,40.3l-6,3.5v1.5l6.9-3.9L23.5,40.3z M24.8,42.2l-7.3,4.3V48
						l8.2-4.7L24.8,42.2z M26.3,44.2l-8.8,5v1.5l9.5-5.4L26.3,44.2z M27.6,46.1l-10.1,5.8v1.5l11-6.3L27.6,46.1z M28.9,47.8
						l-11.4,6.7V56l12.3-6.9L28.9,47.8z M30.4,49.8l-12.9,7.5v1.5l13.8-8L30.4,49.8z M31.7,51.7l-14.2,8.2v1.5l15.1-8.6L31.7,51.7z
						 M33.2,53.7l-15.7,9.1v1.5l16.4-9.5L33.2,53.7z M34.5,55.6l-17,9.7v1.5l17.9-10.1L34.5,55.6z M36,57.3L17.4,68.1v1.5l19.2-11.2
						L36,57.3z M37.3,59.3L17.4,70.7v1.5l20.7-11.9L37.3,59.3z M39,61.9l-0.4-0.6L17.4,73.5V75L39,62.5V61.9z M39,63.6L17.4,76.1
						v1.5L39,65.1V63.6z M39,66.4L17.4,78.9v1.5L39,67.9V66.4z M39,69L17.4,81.5V83L39,70.5V69z M39,71.8L17.4,84.3v1.5L39,73.3
						V71.8z M39,74.4L17.4,86.9v1.5L39,75.9V74.4z M39,77.2L17.4,89.7v1.5L39,78.7V77.2z M39,79.8L17.4,92.3v1.5L39,81.3V79.8z
						 M39,82.6L17.4,95.1v1.5L39,84.1V82.6z M39,85.2L17.4,97.7v1.5L39,86.7V85.2z M39,88l-21.6,12.5v1.5L39,89.5V88z M39,90.5
						L17.4,103v1.5L39,92.1V90.5z M39,93.3l-21.6,12.5v1.5L39,94.9V93.3z M39,95.9l-21.6,12.5v1.5L39,97.4V95.9z M39,98.7
						l-21.6,12.5v1.5L39,100.3V98.7z M39,101.3l-21.6,12.5v1.5L39,102.8V101.3z M39,104.1l-21.6,12.5v1.5L39,105.6V104.1z M39,106.7
						l-21.6,12.5v1.5L39,108.2V106.7z M39,109.5L17.4,122v1.5L39,111V109.5z M39,112.1l-21.6,12.5v1.5L39,113.6V112.1z M39,114.9
						l-21.6,12.5v1.5L39,116.4V114.9z M39,117.5L17.4,130v1.5L39,119V117.5z M39,120.3l-21.6,12.5v1.5L39,121.8V120.3z M39,122.9
						l-21.6,12.5v1.5L39,124.4V122.9z M39,125.7l-21.6,12.5v1.5L39,127.2V125.7z M39,128.3l-21.6,12.5v1.5L39,129.8V128.3z
						 M39,131.1l-21.6,12.5v1.5L39,132.6V131.1z M39,135.2v-1.5l-21.6,12.5v1.5L39,135.4V135.2z M37.7,137.3L17.4,149v1.5l18.1-10.6
						L37.7,137.3z M34.2,141.9l-16.8,9.7v1.5l14.7-8.4L34.2,141.9z M30.8,146.6l-13.4,7.8v1.5l11.2-6.5L30.8,146.6z M27.3,151.4
						l-9.9,5.6v1.5l7.8-4.3L27.3,151.4z M23.9,156.1l-6.5,3.7v1.5l4.3-2.6L23.9,156.1z M20.4,160.9l-3,1.5v1.5l0.9-0.4L20.4,160.9z
						 M39,154.2v-1.5l-19.8,11.4l-1.1,1.7h1.1L39,154.2z M19.1,32.1l-0.4,0.2l0.9,1.1l2.4-1.3H19.1z M23.9,32.1L20.2,34l0.9,1.3
						l5.6-3.2H23.9z M39,149.9l-16.4,9.5l-1.9,2.8L39,151.4V149.9z M39,156.8v-1.5l-17.9,10.6h2.8L39,156.8z M28.6,32.1L21.5,36
						l0.9,1.1l8.8-5H28.6z M33.2,32.1L23,37.9c0.2,0.4,0.4,0.6,0.6,1.1L36,32.1H33.2z M39,147.3l-12.9,7.3l-1.9,2.8l14.9-8.6
						L39,147.3L39,147.3z M39,32.7v-0.6h-1.1l-13.6,7.8l0.9,1.1L39,32.7z M39,35.5V34l-13.2,7.8l0.6,1.1
						C30.6,40.5,34.9,37.9,39,35.5z M39,159.6v-1.5l-13.2,7.8h2.6L39,159.6z M39,38.1v-1.5l-11.9,6.9l0.9,1.1L39,38.1z M39,144.5
						l-9.5,5.6l-1.9,2.6L39,146V144.5z M39,40.9v-1.5l-10.6,6l0.9,1.1L39,40.9z M39,43.5V42l-9.1,5.4l0.9,1.1L39,43.5z M39,162.2
						v-1.5l-8.6,5.2h2.8L39,162.2z M39,141.9l-6,3.5l-1.9,2.8l8-4.7L39,141.9L39,141.9z M39,46.3v-1.5l-7.8,4.5l0.9,1.1L39,46.3z
						 M39,48.9v-1.5l-6.3,3.7l0.6,1.3L39,48.9z M39,51.7v-1.5L34,53l0.9,1.1L39,51.7z M39,139.1l-2.6,1.5l-1.9,2.8l4.5-2.8V139.1z
						 M39,165v-1.5l-3.9,2.4h2.6L39,165z M39,54.3v-1.5L35.3,55l0.9,1.1C37.1,55.4,38.1,55,39,54.3z M39,57.1v-1.5l-2.2,1.3l0.9,1.1
						L39,57.1z M39,137.1l-1.1,1.5L39,138V137.1z M39,59.7v-1.5l-0.9,0.6l0.9,1.1V59.7z M40.7,33l-0.4,0.4v1.5l1.3-0.6L40.7,33z
						 M42,34.9L40.3,36v1.7l2.6-1.7L42,34.9z M43.5,36.8l-3.2,1.9v1.5l3.9-2.4L43.5,36.8z M44.8,38.8l-4.5,2.6v1.7l5.4-3.2
						L44.8,38.8z M46.3,40.7l-6,3.5v1.5l6.7-3.9L46.3,40.7z M47.6,42.4c-2.4,1.5-5,2.8-7.3,4.3v1.7l8.2-5L47.6,42.4z M48.9,44.4
						l-8.6,5.2v1.5l9.5-5.6L48.9,44.4z M50.4,46.3l-10.1,5.8v1.7l11-6.5L50.4,46.3z M51.7,48.3L40.3,55v1.5l12.3-7.1L51.7,48.3z
						 M53.2,50l-12.9,7.5v1.7l13.6-8L53.2,50z M55.4,53l-0.9-1.1l-14.2,8.4v1.1l0.2,0.2L55.4,53z M66,98.7L40.3,63.4v70.5L66,98.7z
						 M40.3,164.3L77.2,114L66.6,99.6l-26.3,36V164.3z M115.1,165.8l-37.3-50.9l-37.3,50.9H115.1z M56.7,55l-0.9-1.1l-14.9,8.6
						l0.9,1.1L56.7,55z M110.2,38.6l1.5-1.9l1.9-2.6l1.5-1.9h-74L78,82.3l28.7-39l1.5-1.9L110.2,38.6z M58.2,56.9l-0.9-1.1
						l-14.9,8.6l0.6,1.1L58.2,56.9z M59.5,58.8l-0.9-1.1l-14.9,8.6l0.9,1.1L59.5,58.8z M60.8,60.8l-0.6-1.3L45,68.1l0.9,1.3
						L60.8,60.8z M62.3,62.5l-0.9-1.1L46.5,70l0.9,1.1L62.3,62.5z M63.6,64.4L63,63.3L47.8,72l0.9,1.1L63.6,64.4z M65.1,66.4
						l-0.9-1.1l-14.9,8.6L50,75L65.1,66.4z M66.4,68.3l-0.9-1.1l-14.9,8.6l0.9,1.1L66.4,68.3z M67.9,70.1L67,69l-14.9,8.6l0.6,1.3
						L67.9,70.1z M69.2,72l-0.9-1.1l-14.9,8.6l0.9,1.1L69.2,72z M70.5,73.9l-0.6-1.1l-15.1,8.6l0.9,1.1L70.5,73.9z M72,75.9
						l-0.9-1.1l-14.9,8.6l0.9,1.1L72,75.9z M73.3,77.8l-0.9-1.3l-14.9,8.8l0.9,1.1L73.3,77.8z M74.8,79.5l-0.9-1.1L59,87l0.6,1.1
						L74.8,79.5z M76.1,81.5l-0.9-1.1L60.3,89l0.9,1.1L76.1,81.5z M77.2,83.6l0.2-0.4l-0.6-0.9L61.9,91l0.6,1.1L77.2,83.6z
						 M73.7,88.4l1.9-2.8l-12.5,7.3L64,94L73.7,88.4z M70.3,93.1l1.9-2.8l-7.8,4.3l0.9,1.3L70.3,93.1z M66.8,97.7l1.9-2.6L66,96.6
						L66.8,97.7z M83,91l-0.9-1.1l-14.5,8.4l-0.2,0.4l0.6,0.9L83,91z M84.5,92.9l-0.9-1.1l-14.9,8.6l0.6,1.1L84.5,92.9z M80.8,88
						l-9.7,5.6L69,96.4L81.7,89L80.8,88z M85.8,94.9l-0.9-1.3L70,102.4l0.9,1.1L85.8,94.9z M87.1,96.6l-0.6-1.1l-15.1,8.6l0.9,1.1
						L87.1,96.6z M79.5,86l-5,3l-2.2,2.6l7.8-4.5L79.5,86z M88.6,98.5l-0.9-1.1L72.8,106l0.9,1.1L88.6,98.5z M85.1,103.3l1.9-2.8
						L74.1,108l0.9,1.1L85.1,103.3z M81.7,108l1.9-2.8l-8,4.7l0.6,1.1L81.7,108z M78,84.3l-2.2,2.8l3-1.7L78,84.3z M78.2,112.5
						l1.9-2.6l-3.2,1.7l0.9,1.3L78.2,112.5z M115.8,135.6L89.2,99.4l-1.5,2.4l-1.5,1.9l-0.2,0.2l-1.9,2.6h0.2l-1.5,1.9h-0.2
						l-1.9,2.8h0.2l-1.5,1.9h-0.2l-0.4,0.9l37.1,50.7L115.8,135.6L115.8,135.6z M112.8,65.5l2.2-2.6L79.1,83.6l0.6,1.1L112.8,65.5z
						 M115.8,61.2v-1.5L81.5,79.5l-2.2,2.8L115.8,61.2z M109.3,70.3l2.2-2.6L80.4,85.6l0.9,1.1L109.3,70.3z M105.9,75l2.2-2.8
						L81.7,87.5l0.9,1.1L105.9,75z M115.8,58.6v-1.5L84.9,74.8l-2.2,2.8L115.8,58.6z M102.4,79.8l2.2-2.8L83.2,89.3l0.9,1.1
						L102.4,79.8z M99,84.5l2.2-2.8l-16.6,9.5l0.9,1.1L99,84.5z M95.5,89l2.2-2.6L86,93.1l0.6,1.1L95.5,89z M115.8,55.8v-1.5
						L88.4,70.1l-2.2,2.8L115.8,55.8z M92.1,93.8L94,91l-6.7,4.1l0.9,1.1L92.1,93.8z M89.2,97.7l1.3-1.9l-1.9,1.1L89.2,97.7z
						 M115.8,53.2v-1.5l-24,13.8l-2.2,2.6L115.8,53.2z M115.8,133.9V63.6l-0.6,0.6l-1.3,1.9l-2.2,2.8l-1.3,1.9h-0.2l-1.9,2.8
						l-1.3,1.9h-0.2l-1.9,2.8v-0.2l-1.3,1.9l-0.2,0.2l-1.9,2.6l-1.3,1.9H100l-1.9,2.8l-1.3,1.9h-0.2l-1.9,2.8l-1.3,1.9h-0.2L91,97.2
						V97l-1.1,1.5L115.8,133.9z M115.8,50.4v-1.5L95.3,60.8l-2.2,2.8L115.8,50.4z M115.8,47.8v-1.5l-17,9.7l-2.2,2.8L115.8,47.8z
						 M115.8,45v-1.5l-13.6,7.8l-1.9,2.8L115.8,45z M115.8,42.4v-1.5l-10.1,5.8l-1.9,2.6C107.8,47,111.7,44.8,115.8,42.4z
						 M115.8,39.6v-1.5l-6.7,3.9l-1.9,2.8L115.8,39.6z M115.8,37.1v-1.5l-3.2,1.7l-1.9,2.8L115.8,37.1z M115.8,34.3V33l-1.7,2.4
						L115.8,34.3z M137.1,32.7l0.4-0.6h-1.9l-19,10.8v1.5L137.1,32.7z M130.9,32.1l-14.2,8.2v1.5l17-9.7H130.9z M126.3,32.1
						l-9.7,5.4V39l12.3-6.9H126.3z M121.6,32.1l-5,2.8v1.5l7.8-4.3H121.6z M117.1,32.1h-0.4v1.5l3-1.5H117.1z M133.7,37.5l1.9-2.8
						l-19,11v1.5L133.7,37.5z M130.2,42.2l1.9-2.8l-15.5,8.8v1.5L130.2,42.2z M126.8,46.8l1.9-2.6l-12.1,6.9v1.5L126.8,46.8z
						 M123.1,51.5l2.2-2.8l-8.6,5v1.5L123.1,51.5z M138.2,50.9v-1.5l-20.9,12.3l-0.6,0.4v1.3L138.2,50.9z M138.2,53.7V52l-21.6,12.5
						V66L138.2,53.7z M119.7,56.3c0.6-0.9,1.5-1.9,2.2-2.8l-5.2,3V58L119.7,56.3z M138.2,56.3v-1.5l-21.6,12.5v1.5L138.2,56.3z
						 M138.2,59.1v-1.7l-21.6,12.5v1.5L138.2,59.1z M116.6,60.4l1.7-2.2l-1.7,0.9V60.4z M138.2,61.6v-1.5l-21.6,12.5v1.5L138.2,61.6
						z M138.2,64.4v-1.7l-21.6,12.5v1.5L138.2,64.4z M138.2,67v-1.5L116.6,78v1.5L138.2,67z M138.2,69.8v-1.7l-21.6,12.5v1.5
						L138.2,69.8z M138.2,72.4v-1.5l-21.6,12.5v1.5L138.2,72.4z M138.2,75.2v-1.7L116.6,86v1.5L138.2,75.2z M138.2,77.8v-1.5
						l-21.6,12.5v1.5L138.2,77.8z M138.2,80.6v-1.7l-21.6,12.5v1.5L138.2,80.6z M138.2,83.2v-1.5l-21.6,12.5v1.5L138.2,83.2z
						 M138.2,86v-1.7l-21.6,12.5v1.5L138.2,86z M138.2,88.6v-1.5l-21.6,12.5v1.5L138.2,88.6z M138.2,91.4v-1.7l-21.6,12.5v1.5
						L138.2,91.4z M138.2,94v-1.5L116.6,105v1.5L138.2,94z M138.2,96.8v-1.7l-21.6,12.5v1.5L138.2,96.8z M138.2,99.4v-1.5
						l-21.6,12.5v1.5L138.2,99.4z M138.2,102.2v-1.7L116.6,113v1.5L138.2,102.2z M138.2,104.8v-1.5l-21.6,12.5v1.5L138.2,104.8z
						 M138.2,107.6v-1.7l-21.6,12.5v1.5L138.2,107.6z M138.2,110.2v-1.5l-21.6,12.5v1.5L138.2,110.2z M138.2,113v-1.7l-21.6,12.5
						v1.5L138.2,113z M138.2,115.6v-1.5l-21.6,12.5v1.5L138.2,115.6z M138.2,118.4v-1.7l-21.6,12.5v1.5L138.2,118.4z M138.2,121
						v-1.5L116.6,132v1.5L138.2,121z M138.2,123.8V122l-21.6,12.5v0.6l0.6,0.6L138.2,123.8z M116.9,137.1l-0.2,0.2v1.5l1.1-0.4
						L116.9,137.1z M118.1,139.1l-1.5,0.9v1.5l2.4-1.3L118.1,139.1z M119.7,141l-3,1.7v1.5l3.7-2.2L119.7,141z M121,143l-4.3,2.4
						v1.5l5.2-2.8L121,143z M122.5,144.9l-5.8,3.2v1.5l6.5-3.7L122.5,144.9z M123.8,146.6l-7.1,4.1v1.5l8-4.5L123.8,146.6z
						 M125.1,148.6l-8.4,5v1.5l9.3-5.4L125.1,148.6z M126.6,150.5l-9.9,5.6v1.5l10.8-6L126.6,150.5z M127.9,152.4l-11.2,6.5v1.5
						l12.1-6.9L127.9,152.4z M129.4,154.2l-12.7,7.3v1.5l13.4-7.5L129.4,154.2z M131.5,157.2l-0.9-1.1l-14,8.2v1.5h0.2L131.5,157.2z
						 M138.2,126.3v-1.5l-20.5,11.9l0.9,1.1L138.2,126.3z M138.2,48.3v-1.7L120.7,57l-2.2,2.6L138.2,48.3z M132.8,159.1l-0.6-1.1
						l-13.4,7.8h2.8L132.8,159.1z M138.2,129.2v-1.7l-19,11.2l0.6,1.1L138.2,129.2z M138.2,131.7v-1.5l-17.7,10.1l0.9,1.3
						L138.2,131.7z M138.2,45.5V44l-14,8.2L122,55L138.2,45.5z M138.2,134.5v-1.7l-16.2,9.5l0.6,1.1L138.2,134.5z M138.2,137.1v-1.5
						l-14.9,8.6c0.2,0.4,0.6,0.6,0.9,1.1L138.2,137.1z M134.3,161.1l-0.9-1.1l-9.9,5.8h2.8L134.3,161.1z M138.2,139.9v-1.7l-13.6,8
						l0.9,1.1L138.2,139.9z M138.2,42.9v-1.7l-10.6,6.3l-2.2,2.8L138.2,42.9z M138.2,142.5V141l-12.1,7.1l0.9,1.1L138.2,142.5z
						 M138.2,145.3v-1.7l-10.8,6.3l0.9,1.3L138.2,145.3z M135.6,163l-0.9-1.1l-6.7,3.9h2.8L135.6,163z M138.2,40.1v-1.5l-7.1,4.1
						l-2.2,2.8L138.2,40.1z M138.2,147.9v-1.5l-9.3,5.4c0.2,0.4,0.4,0.6,0.6,1.1L138.2,147.9z M138.2,150.7V149l-8,4.7l0.9,1.1
						L138.2,150.7z M138.2,153.3v-1.5l-6.7,3.9l0.9,1.1L138.2,153.3z M138.2,37.5v-1.7l-3.7,2.4l-2.2,2.6L138.2,37.5z M137.1,165
						l-0.9-1.3l-3.5,2.2h2.8L137.1,165z M138.2,156.1v-1.7l-5.2,3.2l0.9,1.1L138.2,156.1z M138.2,158.7v-1.5l-3.9,2.2l0.9,1.1
						L138.2,158.7z M138.2,34.7v-1.5l-0.2,0.2l-2.2,2.6L138.2,34.7z M138.2,161.5v-1.7l-2.4,1.5c0.2,0.4,0.4,0.6,0.6,1.1
						L138.2,161.5z M138.2,164.1v-1.5l-1.1,0.6l0.9,1.1L138.2,164.1z"/>
					<path class="st2" d="M186.1,32.1h-13.2v133.7h16.8v0.9h-16.8v32.1h-1.3v-32.1H150v32.1h-0.9v-32.1h-16.4v-0.9h16.4V32.1h-16.6
						v-1.3h16.6V1.5h0.9v29.3h21.6V1.5h1.3v29.3h13.2V32.1z M171.6,32.7v-0.6h-1.1L150,43.7v1.5L171.6,32.7z M168.6,32.1h-2.8
						l-15.7,9.1v1.5L168.6,32.1z M163.9,32.1h-2.6l-11.2,6.3v1.5L163.9,32.1z M159.3,32.1h-2.8l-6.5,3.7v1.5L159.3,32.1z
						 M154.6,32.1h-2.8l-1.7,0.9v1.5L154.6,32.1z M171.6,35.5V34L150,46.5V48L171.6,35.5z M171.6,38.1v-1.5L150,49.1v1.5L171.6,38.1
						z M171.6,40.9v-1.5L150,51.9v1.5L171.6,40.9z M171.6,43.5V42L150,54.5V56L171.6,43.5z M171.6,46.3v-1.5L150,57.3v1.5
						L171.6,46.3z M171.6,48.9v-1.5L150,59.9v1.5L171.6,48.9z M171.6,51.7v-1.5L150,62.7v1.5L171.6,51.7z M171.6,54.3v-1.5L150,65.3
						v1.5L171.6,54.3z M171.6,57.1v-1.5L150,68.1v1.5L171.6,57.1z M171.6,59.7v-1.5L150,70.7v1.5L171.6,59.7z M171.6,62.5V61
						L150,73.5V75L171.6,62.5z M171.6,65.1v-1.5L150,76.1v1.5L171.6,65.1z M171.6,67.9v-1.5L150,78.9v1.5L171.6,67.9z M171.6,70.5
						V69L150,81.5V83L171.6,70.5z M171.6,73.3v-1.5L150,84.3v1.5L171.6,73.3z M171.6,75.9v-1.5L150,86.9v1.5L171.6,75.9z
						 M171.6,78.7v-1.5L150,89.7v1.5L171.6,78.7z M171.6,81.3v-1.5L150,92.3v1.5L171.6,81.3z M171.6,84.1v-1.5L150,95.1v1.5
						L171.6,84.1z M171.6,86.7v-1.5L150,97.7v1.5L171.6,86.7z M171.6,89.5V88L150,100.5v1.5L171.6,89.5z M171.6,92.1v-1.5L150,103.1
						v1.5L171.6,92.1z M171.6,94.9v-1.5L150,105.9v1.5L171.6,94.9z M171.6,97.4v-1.5L150,108.4v1.5L171.6,97.4z M171.6,100.3v-1.5
						L150,111.3v1.5L171.6,100.3z M171.6,102.8v-1.5L150,113.8v1.5L171.6,102.8z M171.6,105.6v-1.5L150,116.6v1.5L171.6,105.6z
						 M171.6,108.2v-1.5L150,119.2v1.5L171.6,108.2z M171.6,111v-1.5L150.1,122v1.5L171.6,111z M171.6,113.6v-1.5L150,124.6v1.5
						L171.6,113.6z M171.6,116.4v-1.5L150,127.4v1.5L171.6,116.4z M171.6,119v-1.5L150.1,130v1.5L171.6,119z M171.6,121.8v-1.5
						L150,132.8v1.5L171.6,121.8z M171.6,124.4v-1.5L150,135.4v1.5L171.6,124.4z M171.6,127.2v-1.5L150,138.2v1.5L171.6,127.2z
						 M171.6,129.8v-1.5L150,140.8v1.5L171.6,129.8z M171.6,132.6v-1.5L150,143.6v1.5L171.6,132.6z M171.6,135.2v-1.5L150,146.2v1.5
						L171.6,135.2z M171.6,138v-1.5L150.1,149v1.5L171.6,138z M171.6,140.6v-1.5L150,151.6v1.5L171.6,140.6z M171.6,143.4v-1.5
						L150,154.4v1.5L171.6,143.4z M171.6,146v-1.5L150.1,157v1.5L171.6,146z M171.6,148.8v-1.5L150,159.8v1.5L171.6,148.8z
						 M171.6,151.4v-1.5L150,162.4v1.5L171.6,151.4z M171.6,154.2v-1.5L150,165.2v0.6h1.7L171.6,154.2z M171.6,156.8v-1.5
						l-17.9,10.6h2.8L171.6,156.8z M171.6,159.6v-1.5l-13.2,7.8h2.6L171.6,159.6z M171.6,162.2v-1.5l-8.6,5.2h2.8L171.6,162.2z
						 M171.6,165v-1.5l-3.9,2.4h2.6L171.6,165z"/>
					<path class="st2" d="M180.5,86.9v-16V54.5h-16.6v-0.9h16.6V32.1h-16.6v-1.3h16.6V1.5h0.9v29.3H203V1.5h1.3v29.3h16h16.4V1.5
						h0.9v29.3h31.9V1.5h1.1v29.3H292V1.5h1.1v29.3h12.3v1.3h-12.3v21.6h12.3v0.9h-12.3V124v3v2.8V143h13.8v1.3h-13.8v21.6h13.8v0.9
						h-13.8v32.1H292v-32.1h-21.6v32.1h-1.1v-32.1h-16h-16v32.1h-0.9v-32.1H204v32.1h-1.3v-32.1h-21.6v32.1h-0.9v-32.1h-16.4v-0.9
						h16.4v-21.6h-16.4V143h16.4v-32.4H166v-0.9h14.2V88.2h-16.6v-1.3C163.6,86.9,180.5,86.9,180.5,86.9z M184.4,53.7
						c3.9-8.2,10.4-14.9,18.5-18.8v-2.8h-21.6v21.6C181.3,53.7,184.4,53.7,184.4,53.7z M181.3,61.6c0.6-2.4,1.3-5,2.4-7.1h-2.4V61.6
						z M202.9,59.7v-1.5l-21.4,12.5l-0.2,0.2c0,0.4,0.2,0.9,0.2,1.3L202.9,59.7z M183.7,86.9c-1.1-2.2-1.7-4.5-2.4-6.9v6.9H183.7z
						 M181.3,109.7h21.6v-3c-8.2-3.9-14.7-10.4-18.5-18.5h-3v21.5H181.3z M181.3,110.6V143h21.6v-32.4H181.3z M199,144.3l-17.7,10.1
						v1.5l20.3-11.6H199z M194.3,144.3l-12.9,7.3v1.5l15.7-8.8H194.3z M189.8,144.3l-8.4,4.7v1.5l11-6.3h-2.6V144.3z M185,144.3
						l-3.7,1.9v1.5l6.5-3.5H185V144.3z M181.3,144.3v0.9l1.7-0.9H181.3z M202.9,144.5L181.3,157v1.5l21.6-12.5L202.9,144.5
						L202.9,144.5z M202.9,147.3l-21.6,12.5v1.5l21.6-12.5V147.3z M202.9,149.9l-21.6,12.5v1.5l21.6-12.5V149.9z M202.9,152.7
						l-21.6,12.5v0.6h1.7l19.8-11.6v-1.5H202.9z M199.9,54.5l-18.1,10.6c0,0.6-0.2,1.1-0.2,1.7l21.1-12.3
						C202.7,54.5,199.9,54.5,199.9,54.5z M202.9,57.1v-1.5l-21.4,12.3v1.7L202.9,57.1z M202.9,62.5V61l-21.4,12.3v1.5L202.9,62.5z
						 M202.9,65.1v-1.5l-21.1,12.3c0,0.4,0.2,1.1,0.2,1.5L202.9,65.1z M195.4,54.5L182.5,62c-0.2,0.6-0.2,1.1-0.4,1.7l16-9.3
						L195.4,54.5L195.4,54.5z M202.9,67.9v-1.5l-20.7,12.1c0,0.4,0,0.9,0.2,1.3L202.9,67.9z M202.9,70.5V69l-20.3,11.9
						c0.2,0.4,0.2,0.9,0.4,1.3L202.9,70.5z M190.6,54.5l-7.3,4.3c-0.2,0.6-0.2,1.3-0.4,1.9l10.6-6.3L190.6,54.5L190.6,54.5z
						 M202.9,73.3v-1.5L183.5,83c0.2,0.4,0.2,0.9,0.4,1.3L202.9,73.3z M185.9,54.5l-1.3,0.9c-0.2,0.6-0.6,1.5-0.9,2.2l5-3h-2.8V54.5
						z M202.9,75.9v-1.5l-18.8,11c0.2,0.4,0.4,0.6,0.6,1.1L202.9,75.9z M202.9,155.3L185,165.8h2.8l15.1-9.1L202.9,155.3
						L202.9,155.3z M202.9,42l-16.4,9.5c-0.4,0.6-0.6,1.5-1.1,2.2h0.4l17-10.1V42H202.9z M185.4,88.2c0,0.2,0.4,0.2,0.4,0.4l0.9-0.4
						H185.4z M202.9,78.7v-1.5l-17,9.7h2.8L202.9,78.7z M188.7,88.2l-2.4,1.3l0.6,1.3l4.5-2.6C191.4,88.2,188.7,88.2,188.7,88.2z
						 M193.4,88.2l-6,3.5c0.2,0.4,0.6,0.6,0.9,1.1l8-4.5L193.4,88.2L193.4,88.2z M202.9,39.4l-13.4,7.8l-1.9,2.6l15.3-8.8
						L202.9,39.4L202.9,39.4z M202.9,44.8l-15.1,8.8h2.8l12.3-7.3V44.8z M198,88.2l-9.3,5.4c0.2,0.4,0.6,0.6,0.9,1.1l11.2-6.5H198z
						 M202.9,158.1l-13.2,7.8h2.6l10.6-6.3L202.9,158.1L202.9,158.1z M202.9,89.5v-1.3h-0.2l-12.5,7.1c0.2,0.4,0.6,0.6,0.9,1.1
						L202.9,89.5z M202.9,81.3v-1.5l-12.3,7.1h2.8L202.9,81.3z M202.9,36.6l-7.8,4.5l-3.9,3.9l11.6-6.9L202.9,36.6L202.9,36.6z
						 M202.9,92.1v-1.5L191.7,97c0.2,0.4,0.6,0.6,1.1,1.1L202.9,92.1z M202.9,47.4l-10.4,6.3h2.6l7.8-4.7L202.9,47.4L202.9,47.4z
						 M202.9,94.9v-1.5l-9.5,5.4c0.4,0.4,0.6,0.9,1.1,1.1L202.9,94.9z M202.9,160.6l-8.6,5.2h2.8l5.8-3.7V160.6z M202.9,97.4v-1.5
						l-7.8,4.5c0.4,0.2,0.9,0.6,1.3,0.9L202.9,97.4z M202.9,84.1v-1.5l-7.5,4.3h2.6L202.9,84.1z M202.9,50.2l-5.8,3.5h2.8l3-1.9
						V50.2z M202.9,100.3v-1.5l-5.6,3.2c0.4,0.2,0.6,0.6,1.1,0.9L202.9,100.3z M202.9,163.4l-3.9,2.4h2.6l1.3-0.9L202.9,163.4
						L202.9,163.4z M202.9,102.8v-1.5l-3.7,2.2c0.4,0.2,1.1,0.6,1.5,0.9L202.9,102.8z M202.9,86.7v-1.5l-3,1.7h2.8L202.9,86.7z
						 M202.9,105.6v-1.5l-1.3,0.6C202.1,105,202.5,105.4,202.9,105.6z M201.8,53.7h1.1v-0.9L201.8,53.7z M220.4,32.1l-16.2,9.3v1.7
						l18.8-11H220.4z M215.2,32.3l-11,6.5v1.5l14.2-8.2C217.4,32.1,216.3,32.1,215.2,32.3z M204.2,34.3c2.2-1.1,4.5-1.5,6.9-2.2
						h-6.9V34.3z M224.7,32.3l-20.5,11.9v1.5l22.6-13.2C226.2,32.3,225.3,32.3,224.7,32.3z M228.4,32.7l-24.2,14v1.7l26.1-15.3
						C229.7,33,229,33,228.4,32.7z M207.2,34.3l-3,1.7v1.7l8.2-5C210.7,33.2,209,33.6,207.2,34.3z M231.6,33.6l-27.4,16v1.5
						l29.1-16.8C232.7,34,232.2,33.8,231.6,33.6z M235.9,35.3c-0.4-0.2-1.1-0.4-1.5-0.6l-30.2,17.5v1.5h0.2L235.9,35.3z M204.2,70.7
						c0,8.8,7.1,16.2,16,16.2c8.8,0,16.4-7.3,16.4-16.2c0-8.2-6.5-15.3-14.5-16.2h-3.7C210.5,55.4,204.2,62.5,204.2,70.7z M212,54.5
						h-2.8l-5,3v1.7L212,54.5z M207.2,54.5h-2.6l-0.4,0.4v1.5L207.2,54.5z M206.4,60.6c1.1-1.3,2.2-2.4,3.5-3.5l-5.6,3.2v1.5
						L206.4,60.6z M205.1,62.3l-0.9,0.6C204.2,62.9,204.6,62.9,205.1,62.3z M204.2,76.7V78l0.4-0.2
						C204.4,77.4,204.4,77.2,204.2,76.7z M205.1,78.7l-0.9,0.4v1.7l1.5-1.1C205.5,79.3,205.3,79.1,205.1,78.7z M206.1,80.6l-1.9,1.3
						v1.5l2.8-1.7C206.8,81.3,206.4,81.1,206.1,80.6z M207.7,82.6l-3.5,1.9v1.7l4.5-2.8C208.3,83.2,207.9,83,207.7,82.6z M236.6,89
						v-0.9h-1.3L204.2,106c0.4,0.2,1.1,0.4,1.5,0.6L236.6,89z M233.3,88.2h-2.6l-26.5,15.3v1.5L233.3,88.2z M228.8,88.2H226
						l-21.8,12.5v1.7L228.8,88.2z M224.1,88.2h-2.8l-17,9.9v1.5L224.1,88.2z M219.3,88.2h-2.6l-12.5,7.1V97L219.3,88.2z M214.8,88.2
						H212l-7.8,4.5v1.5L214.8,88.2z M210,88.2h-2.6l-3.2,1.7v1.7L210,88.2z M205.5,88.2h-1.3v0.6L205.5,88.2z M211.1,109.7
						c-2.4-0.6-4.7-1.3-6.9-2.4v2.4H211.1z M204.2,143h12.5c-2.2-5-3.5-10.1-3.5-16c0-5.8,1.3-11.4,3.5-16.4h-12.5V143z
						 M217.4,144.3l-13.2,7.8v1.5l13.8-8L217.4,144.3z M213.1,144.3l-8.8,5v1.7l11.4-6.7H213.1z M208.3,144.3l-4.1,2.4v1.5l6.9-3.9
						H208.3z M204.2,144.3v1.3l2.2-1.3H204.2z M218.4,146.4l-14.2,8.2v1.7l14.9-8.8C218.9,147.1,218.7,146.8,218.4,146.4z
						 M219.7,148.3l-15.5,9.1v1.5l16.2-9.5C220.2,149,220,148.8,219.7,148.3z M221,150.3l-16.8,9.7v1.7l17.7-10.4
						C221.7,150.9,221.2,150.7,221,150.3z M222.3,152.2l-18.1,10.6v1.5l19-11C223,152.9,222.5,152.7,222.3,152.2z M224.9,155
						c-0.4-0.4-0.6-0.6-0.9-1.1l-19.8,11.4v0.4h2.2L224.9,155z M210.7,84.9c-0.4-0.2-0.9-0.6-1.3-0.9l-4.7,2.8h2.6L210.7,84.9z
						 M236.6,37.7v-1.5l-30.2,17.5h2.8L236.6,37.7z M226.2,97.7c3-2.8,6.5-5.2,10.4-6.9v-0.6l-29.8,17c0.6,0.2,1.1,0.4,1.7,0.6
						L226.2,97.7z M226.6,156.5c-0.4-0.2-0.6-0.4-1.1-0.9l-17.3,10.1h2.8L226.6,156.5z M213.1,86.4c-0.4-0.2-1.1-0.6-1.5-0.9
						l-2.4,1.3h2.8L213.1,86.4z M221.2,103.3c0.9-1.1,1.5-2.2,2.4-3l-13.8,8c0.6,0.2,1.3,0.2,1.9,0.4L221.2,103.3z M236.6,40.5v-1.7
						l-25.5,14.9h2.8L236.6,40.5z M218.4,107.6c0.4-0.9,1.1-1.7,1.5-2.6l-6.9,3.9c0.6,0.2,1.5,0.4,2.2,0.4L218.4,107.6z
						 M228.6,158.3c-0.4-0.2-0.6-0.6-1.1-0.9l-14.5,8.4h2.6L228.6,158.3z M218,110.6c-2.2,5-3.5,10.6-3.5,16.4s1.3,11,3.5,16h1.5
						h2.6h1.9h2.8h1.9h2.8h1.9h2.6h0.4v-16.2v-16H236v-0.2h-15.7h-0.2C220.1,110.6,218,110.6,218,110.6z M236.6,43.1v-1.5
						l-20.7,12.1h2.6v-0.2L236.6,43.1z M217.4,109.5c0-0.2,0.2-0.2,0.2-0.4l-0.6,0.4H217.4z M230.7,159.8c-0.4-0.2-0.9-0.6-1.3-0.9
						l-11.9,6.9h2.8L230.7,159.8z M236.6,98.1l-17.3,10.1c-0.2,0.4-0.6,0.9-0.9,1.3h1.1l17-9.7L236.6,98.1L236.6,98.1z M220.4,144.3
						h-1.9c0.2,0.2,0.2,0.4,0.4,0.6L220.4,144.3z M224.9,144.3h-2.6l-3,1.5c0.2,0.4,0.6,0.9,0.9,1.3L224.9,144.3z M236.6,95.5
						l-14.5,8.4c-0.6,0.9-1.1,1.7-1.7,2.6l16.2-9.5V95.5z M236.6,45.9v-1.7l-16,9.3c0.6,0,1.1,0.2,1.5,0.2h1.1L236.6,45.9z
						 M229.7,144.3h-2.8l-6.3,3.7c0.2,0.4,0.4,0.6,0.6,1.1L229.7,144.3z M236.6,102.4v-1.5l-15.1,8.6c1.1,0,1.9,0,3-0.2L236.6,102.4
						z M234.4,144.3h-2.8l-9.7,5.4c0.2,0.4,0.6,0.9,0.9,1.3L234.4,144.3z M232.9,161.1l-1.3-0.6l-9.3,5.4h2.6L232.9,161.1z
						 M236.6,145.5v-1.3h-0.2l-12.9,7.3c0.2,0.4,0.6,0.6,0.9,1.1L236.6,145.5z M236.6,92.7l-9.5,5.4c-1.3,1.1-2.4,2.4-3.5,3.7
						l12.9-7.3v-1.8H236.6z M236.6,148.3v-1.7l-11.6,6.7c0.2,0.4,0.6,0.6,1.1,1.1L236.6,148.3z M236.6,48.5V47l-11.4,6.7h2.6
						L236.6,48.5z M236.6,76.7c-1.7,4.7-5.8,8.4-10.6,10.1h1.9h2.6h1.9h2.8h1.3V76.7H236.6z M236.6,64.7V54.5h-9.9
						C231.2,56.3,234.8,60.1,236.6,64.7z M236.6,150.9v-1.5l-9.9,5.6c0.4,0.4,0.6,0.9,1.1,1.1L236.6,150.9z M235.3,162.6
						c-0.4-0.2-1.1-0.6-1.5-0.9l-6.9,4.1h2.8L235.3,162.6z M236.6,105.2v-1.7l-9.5,5.6c1.5-0.2,3-0.6,4.5-1.1L236.6,105.2z
						 M236.6,153.7V152l-8.2,4.7c0.4,0.2,0.9,0.6,1.3,0.9L236.6,153.7z M232.5,32.1h-2.8c0.6,0.2,1.3,0.2,1.9,0.4L232.5,32.1z
						 M236.6,51.3v-1.7l-6.9,4.1h2.8L236.6,51.3z M236.6,156.3v-1.5l-6,3.5c0.4,0.2,0.6,0.6,1.1,0.9L236.6,156.3z M236.6,107.8v-0.4
						c-1.5,0.6-3.2,1.3-5,1.7l-0.9,0.6h2.6L236.6,107.8z M236.6,164.5V163h-0.2l-4.7,2.8h2.6L236.6,164.5z M236.6,32.3v-0.2h-2.2
						l-1.7,0.9c0.6,0.2,1.1,0.4,1.7,0.6L236.6,32.3z M236.6,159.1v-1.7l-3.9,2.4c0.4,0.2,0.9,0.6,1.3,0.9L236.6,159.1z M236.6,53.7
						v-1.3l-2.2,1.3H236.6z M236.6,161.7v-1.5l-1.7,0.9c0.4,0.2,1.1,0.6,1.5,0.9L236.6,161.7z M236.6,109.7v-0.9l-1.3,0.9H236.6z
						 M236.6,34.3v-0.9l-0.9,0.6C235.9,34.3,236.3,34,236.6,34.3z M236.6,165.8v-0.2l-0.4,0.2H236.6z M238.9,32.1l-1.5,0.9v1.5
						l4.3-2.4H238.9z M237.4,36v1.1l1.1-0.4C238.1,36.4,237.9,36.2,237.4,36z M239.6,37.1l-2.2,1.3v1.5l3.5-1.9
						C240.4,37.7,240,37.3,239.6,37.1z M241.7,38.6l-4.3,2.4v1.5l5.6-3C242.6,39.2,242.2,38.8,241.7,38.6z M243.9,40.1l-6.5,3.7v1.5
						l7.5-4.3C244.5,40.7,244.3,40.3,243.9,40.1z M245.8,41.6l-8.4,4.7v1.5l9.5-5.4C246.5,42,246.3,41.8,245.8,41.6z M247.6,43.3
						l-10.1,5.8v1.5l11.2-6.5C248.4,43.7,248,43.7,247.6,43.3z M249.3,45l-11.9,6.7v1.5l12.7-7.3C249.9,45.5,249.5,45.5,249.3,45z
						 M237.4,54.5v16.2v16.2h2.4h13.6h2.2c2.2-5,3.5-10.1,3.5-16s-1.3-11.4-3.5-16.4C255.6,54.5,237.4,54.5,237.4,54.5z M254.5,89.5
						l0.6-1.3h-1.3l-16.4,9.5v1.5L254.5,89.5z M248.9,88.4l-11.4,6.5v1.5l14.5-8.2C250.8,88.2,249.9,88.2,248.9,88.4z M240,88.2
						l-2.6,1.3v0.6c1.3-0.6,2.8-0.9,4.1-1.3l1.1-0.6H240z M237.4,88.2v0.2l0.6-0.2H237.4z M241.5,89.9l-4.1,2.4v1.5l8.8-5.2
						C244.5,88.8,243,89.5,241.5,89.9z M264.8,89.9l-17,9.7c-3,2.8-6.5,5.4-10.4,7.1v0.4l29.1-16.8
						C265.9,90.1,265.5,90.1,264.8,89.9z M267.8,90.8l-30.4,17.7v1.3h0.6l31.3-18.1C268.9,91.4,268.3,91,267.8,90.8z M251.7,93.6
						c0.6-0.9,1.1-1.7,1.7-2.6l-16,9.3v1.5L251.7,93.6z M246.7,99.2c1.1-1.1,2.4-2.2,3.5-3.5l-12.7,7.3v1.5L246.7,99.2z
						 M242.8,110.6v0.2h-1.9v-0.2h-2.8v0.2h-0.6v9.9c1.7-4.5,5.4-8.2,9.7-9.9h-1.7v-0.2H242.8z M237.4,126.8c0,8.8,7.1,16,16,16
						c8.2,0,15.1-6,16-14v-3.9c-0.9-8-7.8-14-16-14C244.5,110.8,237.4,117.9,237.4,126.8z M237.4,132.8V143h0.6h2.8h1.9h2.6h0.2h2.8
						C243.5,141.4,239.4,137.8,237.4,132.8z M269.3,145.3v-1.1h-0.4l-31.5,18.1c0.4,0.2,1.1,0.4,1.5,0.6L269.3,145.3z M264.2,144.3
						l-26.7,15.3v1.5l29.5-16.8H264.2z M259.4,144.3l-22,12.7v1.5l24.8-14.2H259.4z M254.9,144.3l-17.5,9.9v1.5l20.1-11.4H254.9z
						 M250.1,144.3l-12.7,7.3v1.5l15.5-8.8H250.1z M245.6,144.3l-8.2,4.5v1.5l10.8-6H245.6z M240.9,144.3l-3.5,1.9v1.5l6.3-3.5h-2.8
						V144.3z M237.4,144.3v0.6l1.5-0.6H237.4z M237.4,163.7v0.2l0.4-0.2H237.4z M238.9,164.1l-1.5,0.9v0.9h1.5l1.7-1.1
						C240,164.5,239.6,164.3,238.9,164.1z M243.7,32.1l-5.4,3c0.4,0.2,0.9,0.6,1.3,0.9c2.2-1.3,4.7-2.6,6.9-3.9H243.7z M241.1,103.7
						l-2.8,1.5C239.1,104.8,240.2,104.3,241.1,103.7z M250.8,46.8l-11.9,6.9h2.8l9.9-5.8C251.4,47.4,251,47.2,250.8,46.8z
						 M269.3,92.7l-29.3,17h2.6l26.7-15.5V92.7z M269.3,148.1v-1.5l-29.1,16.8c0.6,0.2,1.1,0.4,1.7,0.6L269.3,148.1z M248.4,32.1
						l-7.8,4.3c0.4,0.2,0.9,0.6,1.3,0.9l9.1-5.2H248.4z M242,165.2l-1.1,0.6h2.8v-0.2C243,165.4,242.6,165.4,242,165.2z M253,32.1
						l-10.1,5.8c0.4,0.2,0.9,0.6,1.3,0.9l11.6-6.7H253z M269.3,150.7v-1.5l-26.1,15.1c0.6,0.2,1.3,0.2,1.9,0.4L269.3,150.7z
						 M252.1,48.7l-8.4,5h2.8l6.5-3.9C252.7,49.4,252.3,49.1,252.1,48.7z M269.3,95.3l-24.8,14.5h2.8l22-12.9V95.3z M257.7,32.1
						l-12.9,7.3c0.4,0.2,0.9,0.6,1.3,0.9l14.2-8.2H257.7z M269.3,153.5V152l-22.9,13.2c0.6,0.2,1.5,0.2,2.2,0.2L269.3,153.5z
						 M262.2,32.1l-15.5,8.8c0.4,0.2,0.6,0.6,1.1,1.1l17.3-9.9H262.2z M247.8,110.6h-0.4v0.2C247.6,110.6,247.6,110.6,247.8,110.6z
						 M253.4,50.6l-5,3h2.6l3-1.9C253.8,51.3,253.6,51.1,253.4,50.6z M267,32.1l-18.3,10.6c0.4,0.4,0.6,0.6,0.9,1.1l19.8-11.6
						L267,32.1L267,32.1z M269.3,98.1l-20.1,11.6h2.8l17.3-10.1V98.1z M269.3,33.4l-19.2,11c0.2,0.4,0.6,0.6,0.9,1.1l18.3-10.6V33.4
						z M261.6,89l-9.1,5.2c-0.6,1.1-1.5,2.2-2.4,3l13.4-7.8C262.9,89.3,262.2,89.3,261.6,89z M269.3,156.1v-1.5l-19,11h2.6
						L269.3,156.1z M269.3,36l-17.7,10.1c0.2,0.4,0.6,0.9,0.9,1.3l16.8-9.9V36z M253,53.7h2.2c-0.2-0.2-0.2-0.9-0.4-1.1L253,53.7z
						 M269.3,38.8l-16.2,9.3l0.6,1.3l15.5-9.1L269.3,38.8L269.3,38.8z M258.1,88.4l-2.8,1.5c-0.4,0.9-1.1,1.7-1.5,2.6l6.5-3.9
						C259.6,88.4,258.8,88.4,258.1,88.4z M269.3,100.7l-15.3,9.1h2.6l12.7-7.5V100.7z M269.3,41.4L254.5,50l0.6,1.3l14.2-8.4
						L269.3,41.4L269.3,41.4z M269.3,158.9v-1.5l-14.5,8.2c1.1,0,2.2,0,3.2-0.2L269.3,158.9z M269.3,44.2l-13.8,8
						c0.2,0.4,0.4,0.6,0.6,1.1l13.2-7.5V44.2z M256.2,88.2v0.2l0.2-0.2H256.2z M256.8,54.5c2.2,5,3.5,10.6,3.5,16.4s-1.3,11-3.5,16
						h12.5V54.5H256.8z M269.3,46.8l-11.6,6.9h2.6l9.1-5.4v-1.5H269.3z M269.3,165.8v-2.4c-3.7,1.5-7.3,2.6-11.4,3L269.3,165.8z
						 M269.3,103.5l-10.8,6.3h2.8l8-4.7V103.5z M269.3,135.8l-2.4,1.3c-2.2,2.8-5,4.7-8.4,5.8h0.9l9.9-5.6V135.8z M259.2,110.6
						l0.2,0.2v-0.2H259.2z M261.4,110.6l-0.9,0.6c0.4,0.2,1.1,0.4,1.5,0.6l2.2-1.3h-2.8V110.6z M269.3,161.5V160l-8.6,5
						c1.7-0.4,3.5-0.6,5.2-1.3L269.3,161.5z M269.3,138.4l-8,4.5h2.8l5.2-3V138.4z M269.3,49.6l-7.1,4.1h2.8l4.3-2.6L269.3,49.6
						L269.3,49.6z M262.4,88.2c2.4,0.6,4.7,1.3,6.9,2.2v-2.2H262.4z M266.1,110.6l-3.2,1.9c0.4,0.2,0.9,0.6,1.3,0.9l4.5-2.8H266.1z
						 M269.3,106.1l-6,3.7h2.6l3.5-2.2v-1.5H269.3z M269.3,113v-1.5l-4.5,2.6c0.4,0.2,0.6,0.6,1.1,1.1L269.3,113z M269.3,141.2
						l-3.2,1.7h2.6l0.6-0.2V141.2z M269.3,115.8v-1.5l-2.8,1.5c0.2,0.4,0.6,0.6,0.9,1.1L269.3,115.8z M267,53.7h2.4v-1.5L267,53.7z
						 M267.8,109.7h1.5v-0.9L267.8,109.7z M269.3,118.4v-1.5l-1.5,0.9c0.2,0.4,0.6,0.6,0.9,1.1L269.3,118.4z M269.3,133
						c-0.2,0.9-0.6,1.5-1.1,2.2l1.1-0.6V133z M269.3,120.5v-0.9h-0.4C269.1,119.9,269.3,120.3,269.3,120.5z M292,32.1h-1.7
						l-19.8,11.4V45L292,32.5V32.1z M285.5,32.1l-15.1,8.6v1.5l17.9-10.1H285.5z M281,32.1l-10.6,6v1.5l13.2-7.5H281z M276.2,32.1
						l-5.8,3.2v1.5l8.6-4.7H276.2z M271.7,32.1l-1.3,0.6v1.5l3.9-2.2h-2.6V32.1z M292,33.6l-21.6,12.5v1.5L292,35.3V33.6z M292,36.4
						l-21.6,12.5v1.5L292,37.9V36.4z M292,39l-21.6,12.5V53L292,40.7V39z M270.4,88.2v2.6c8.2,3.9,14.9,10.8,18.8,19h2.8V54.5h-21.6
						v32.4h14v1.3C284.4,88.2,270.4,88.2,270.4,88.2z M270.4,92.1v1.5l1.3-0.9L270.4,92.1z M272.8,93.3l-2.4,1.3v1.5l3.7-1.9
						C273.7,94,273.2,93.6,272.8,93.3z M275,94.6l-4.5,2.8V99l5.8-3.5C275.8,95.3,275.4,94.9,275,94.6z M277.1,96.2l-6.7,3.9v1.5
						l7.8-4.3C277.8,97,277.5,96.4,277.1,96.2z M279.1,97.9l-8.6,5v1.5l9.7-5.6C279.7,98.3,279.5,98.1,279.1,97.9z M280.8,99.4
						l-10.4,6v1.7l11.2-6.7C281.4,100,281.2,99.8,280.8,99.4z M283.4,102.2c-0.2-0.4-0.6-0.4-0.9-0.9l-12.1,6.9v1.5h0.2L283.4,102.2
						z M284.7,110.6l-14.2,8.4v1.5l17-9.9H284.7z M279.9,110.6l-9.5,5.6v1.5l12.3-7.1H279.9z M275.4,110.6l-5,3v1.5l7.5-4.5H275.4z
						 M270.6,110.6l-0.2,0.2v1.5l3-1.7H270.6z M288.8,111l-18.3,10.6v1.5l18.8-10.8C289,111.9,289,111.5,288.8,111z M289.6,113.2
						l-19.2,11.2v0.4v1.1l19.6-11.4C289.8,114.1,289.8,113.6,289.6,113.2z M290.5,115.6L270.4,127v1.5l20.3-11.6
						C290.5,116.4,290.7,116,290.5,115.6z M291.1,117.7l-20.7,12.1v1.5l20.9-12.1C291.3,118.8,291.3,118.2,291.1,117.7z
						 M291.6,120.3l-21.1,12.1v1.5l21.4-12.3C291.8,121.2,291.6,120.7,291.6,120.3z M292,124c0-0.4-0.2-0.9-0.2-1.3l-21.4,12.5v1.5
						l21.6-12.5V124z M292,125.3l-21.6,12.5v1.5L292,127V125.3z M292,128.1l-21.6,12.5v1.5l21.6-12.5V128.1z M289.2,144.3
						c-3.9,8.2-10.6,14.9-18.8,18.8v2.8H292v-21.6H289.2z M287,146c0.4-0.6,0.9-1.1,1.1-1.7h-0.6l-17,9.7v1.5L287,146z M285.5,144.3
						h-2.8l-12.3,7.1v1.5L285.5,144.3z M280.8,144.3h-2.6l-7.8,4.3v1.5L280.8,144.3z M276.2,144.3h-2.8l-3,1.7v1.5L276.2,144.3z
						 M271.5,144.3h-1.1v0.4L271.5,144.3z M284.2,150.3l1.9-2.6l-15.7,9.1v1.5L284.2,150.3z M278.8,156.1c1.3-1.1,2.6-2.4,3.7-3.7
						l-12.1,6.9v1.5L278.8,156.1z M291.8,132.4c0-0.6,0.2-0.9,0.2-1.5L270.6,143h2.8L291.8,132.4z M292,41.8l-20.3,11.9h2.6
						L292,43.3V41.8z M284.7,104.1c-0.2-0.4-0.4-0.6-0.6-1.1l-11.4,6.7h2.6L284.7,104.1z M291.1,135.4c0.2-0.6,0.4-1.1,0.4-1.7
						l-16.2,9.3h2.6L291.1,135.4z M292,44.4l-15.7,9.3h2.8l12.9-7.5L292,44.4L292,44.4z M286,106.1c-0.2-0.4-0.4-0.6-0.6-1.1
						l-8.2,4.7h2.8L286,106.1z M290.3,138.6l0.6-1.9l-11,6.3h2.8L290.3,138.6z M292,47.2l-11,6.5h2.6l8.4-5V47.2z M287.2,108
						c-0.2-0.4-0.4-0.6-0.6-1.1l-4.7,2.8h2.8L287.2,108z M289,142.1c0.2-0.6,0.6-1.3,0.9-1.9l-5.2,2.8h2.8L289,142.1z M292,49.8
						l-6.5,3.9h2.8l3.7-2.2V49.8z M288.1,109.7c-0.2-0.2-0.2-0.6-0.4-0.9l-1.1,0.9H288.1z M289.8,110.6c0.9,2.2,1.5,4.5,2.2,6.7
						v-6.7H289.8z M292,136.5c-0.6,2.2-1.3,4.3-2.2,6.5h2.2V136.5z M290.3,53.7h1.7v-1.1L290.3,53.7z"/>
					<path class="st2" d="M301.3,86.9v-16V54.5h-16.6v-0.9h16.6V32.1h-16.6v-1.3h16.6V1.5h0.9v29.3h21.6V1.5h1.3v29.3h16h16.4V1.5
						h0.9v29.3h31.9V1.5h1.1v29.3H413V1.5h1.1v29.3h12.3v1.3h-12.3v21.6h12.3v0.9h-12.3V124v3v2.8V143h13.8v1.3h-13.8v21.6h13.8v0.9
						h-13.8v32.1H413v-32.1h-21.6v32.1h-1.1v-32.1h-16h-16v32.1h-0.9v-32.1H325v32.1h-1.3v-32.1h-21.6v32.1h-0.9v-32.1h-16.4v-0.9
						h16.4v-21.6h-16.4V143h16.4v-32.4H287v-0.9h14.2V88.2h-16.6v-1.3C284.6,86.9,301.3,86.9,301.3,86.9z M305.1,53.7
						c3.9-8.2,10.4-14.9,18.5-18.8v-2.8H302v21.6C302,53.7,305.1,53.7,305.1,53.7z M302.1,61.6c0.6-2.4,1.3-5,2.4-7.1h-2.4V61.6z
						 M323.7,59.7v-1.5l-21.4,12.5l-0.2,0.2c0,0.4,0.2,0.9,0.2,1.3L323.7,59.7z M304.5,86.9c-1.1-2.2-1.7-4.5-2.4-6.9v6.9H304.5z
						 M302.1,109.7h21.6v-3c-8.2-3.9-14.7-10.4-18.5-18.5h-3v21.5H302.1z M302.1,110.6V143h21.6v-32.4H302.1z M319.8,144.3
						l-17.7,10.1v1.5l20.3-11.6H319.8z M315.1,144.3l-12.9,7.3v1.5l15.7-8.8H315.1z M310.5,144.3l-8.4,4.7v1.5l11-6.3h-2.6V144.3z
						 M305.8,144.3l-3.7,1.9v1.5l6.5-3.5h-2.8V144.3z M302.1,144.3v0.9l1.7-0.9H302.1z M323.7,144.5L302.1,157v1.5l21.6-12.5V144.5z
						 M323.7,147.3l-21.6,12.5v1.5l21.6-12.5V147.3z M323.7,149.9l-21.6,12.5v1.5l21.6-12.5V149.9z M323.7,152.7l-21.6,12.5v0.6h1.7
						l19.8-11.6v-1.5H323.7z M320.7,54.5l-18.1,10.6c0,0.6-0.2,1.1-0.2,1.7l21.1-12.3C323.5,54.5,320.7,54.5,320.7,54.5z
						 M323.7,57.1v-1.5l-21.4,12.3v1.7L323.7,57.1z M323.7,62.5V61l-21.4,12.3v1.5L323.7,62.5z M323.7,65.1v-1.5l-21.1,12.3
						c0,0.4,0.2,1.1,0.2,1.5L323.7,65.1z M316.1,54.5L303.2,62c-0.2,0.6-0.2,1.1-0.4,1.7l16-9.3L316.1,54.5L316.1,54.5z M323.7,67.9
						v-1.5L303,78.5c0,0.4,0,0.9,0.2,1.3L323.7,67.9z M323.7,70.5V69l-20.3,11.9c0.2,0.4,0.2,0.9,0.4,1.3L323.7,70.5z M311.4,54.5
						l-7.3,4.3c-0.2,0.6-0.2,1.3-0.4,1.9l10.6-6.3L311.4,54.5L311.4,54.5z M323.7,73.3v-1.5L304.3,83c0.2,0.4,0.2,0.9,0.4,1.3
						L323.7,73.3z M306.7,54.5l-1.3,0.9c-0.2,0.6-0.6,1.5-0.9,2.2l5-3h-2.8V54.5z M323.7,75.9v-1.5l-18.8,11
						c0.2,0.4,0.4,0.6,0.6,1.1L323.7,75.9z M323.7,155.3l-17.9,10.6h2.8l15.1-9.1V155.3z M323.7,42l-16.4,9.5
						c-0.4,0.6-0.6,1.5-1.1,2.2h0.4l17-10.1V42H323.7z M306.2,88.2c0,0.2,0.4,0.2,0.4,0.4l0.9-0.4H306.2z M323.7,78.7v-1.5l-17,9.7
						h2.8L323.7,78.7z M309.5,88.2l-2.4,1.3l0.6,1.3l4.5-2.6C312.2,88.2,309.5,88.2,309.5,88.2z M314.2,88.2l-6,3.5
						c0.2,0.4,0.6,0.6,0.9,1.1l8-4.5L314.2,88.2L314.2,88.2z M323.7,39.4l-13.4,7.8l-1.9,2.6l15.3-8.8V39.4z M323.7,44.8l-15.1,8.8
						h2.8l12.3-7.3L323.7,44.8L323.7,44.8z M318.7,88.2l-9.3,5.4c0.2,0.4,0.6,0.6,0.9,1.1l11.2-6.5H318.7z M323.7,158.1l-13.2,7.8
						h2.6l10.6-6.3V158.1z M323.7,89.5v-1.3h-0.2L311,95.3c0.2,0.4,0.6,0.6,0.9,1.1L323.7,89.5z M323.7,81.3v-1.5l-12.3,7.1h2.8
						L323.7,81.3z M323.7,36.6l-7.8,4.5L312,45l11.6-6.9L323.7,36.6L323.7,36.6z M323.7,92.1v-1.5L312.5,97c0.2,0.4,0.6,0.6,1.1,1.1
						L323.7,92.1z M323.7,47.4l-10.4,6.3h2.6l7.8-4.7V47.4z M323.7,94.9v-1.5l-9.5,5.4c0.4,0.4,0.6,0.9,1.1,1.1L323.7,94.9z
						 M323.7,160.6l-8.6,5.2h2.8l5.8-3.7L323.7,160.6L323.7,160.6z M323.7,97.4v-1.5l-7.8,4.5c0.4,0.2,0.9,0.6,1.3,0.9L323.7,97.4z
						 M323.7,84.1v-1.5l-7.5,4.3h2.6L323.7,84.1z M323.7,50.2l-5.8,3.5h2.8l3-1.9V50.2z M323.7,100.3v-1.5l-5.6,3.2
						c0.4,0.2,0.6,0.6,1.1,0.9L323.7,100.3z M323.7,163.4l-3.9,2.4h2.6l1.3-0.9V163.4z M323.7,102.8v-1.5l-3.7,2.2
						c0.4,0.2,1.1,0.6,1.5,0.9L323.7,102.8z M323.7,86.7v-1.5l-3,1.7h2.8L323.7,86.7z M323.7,105.6v-1.5l-1.3,0.6
						C322.8,105,323.3,105.4,323.7,105.6z M322.6,53.7h1.1v-0.9L322.6,53.7z M341.2,32.1L325,41.4v1.7l18.8-11
						C343.8,32.1,341.2,32.1,341.2,32.1z M336,32.3l-11,6.5v1.5l14.2-8.2C338.1,32.1,337.1,32.1,336,32.3z M325,34.3
						c2.2-1.1,4.5-1.5,6.9-2.2H325V34.3z M345.5,32.3L325,44.2v1.5l22.6-13.2C347,32.3,346.1,32.3,345.5,32.3z M349.1,32.7l-24.2,14
						v1.7L351,33.1C350.4,33,349.8,33,349.1,32.7z M328,34.3l-3,1.7v1.7l8.2-5C331.5,33.2,329.7,33.6,328,34.3z M352.4,33.6
						l-27.4,16v1.5l29.1-16.8C353.5,34,353,33.8,352.4,33.6z M356.7,35.3c-0.4-0.2-1.1-0.4-1.5-0.6L325,52.2v1.5h0.2L356.7,35.3z
						 M325,70.7c0,8.8,7.1,16.2,16,16.2c8.8,0,16.4-7.3,16.4-16.2c0-8.2-6.5-15.3-14.5-16.2h-3.7C331.2,55.4,325,62.5,325,70.7z
						 M332.8,54.5H330l-5,3v1.7L332.8,54.5z M328,54.5h-2.6L325,55v1.5L328,54.5z M327.1,60.6c1.1-1.3,2.2-2.4,3.5-3.5l-5.6,3.2v1.5
						L327.1,60.6z M325.9,62.3l-0.9,0.6C325,62.9,325.4,62.9,325.9,62.3z M325,76.7V78l0.4-0.2C325.2,77.4,325.2,77.2,325,76.7z
						 M325.9,78.7l-0.9,0.4v1.7l1.5-1.1C326.3,79.3,326.1,79.1,325.9,78.7z M326.9,80.6l-1.9,1.3v1.5l2.8-1.7
						C327.6,81.3,327.1,81.1,326.9,80.6z M328.4,82.6l-3.5,1.9v1.7l4.5-2.8C329.1,83.2,328.7,83,328.4,82.6z M357.3,89v-0.9H356
						l-31,18c0.4,0.2,1.1,0.4,1.5,0.6L357.3,89z M354.1,88.2h-2.6L325,103.5v1.5L354.1,88.2z M349.6,88.2h-2.8L325,100.7v1.7
						L349.6,88.2z M344.8,88.2H342l-17,9.9v1.5L344.8,88.2z M340.1,88.2h-2.6L325,95.3V97L340.1,88.2z M335.6,88.2h-2.8l-7.8,4.5
						v1.5L335.6,88.2z M330.8,88.2h-2.6l-3.2,1.7v1.7L330.8,88.2z M326.3,88.2H325v0.6L326.3,88.2z M331.9,109.7
						c-2.4-0.6-4.7-1.3-6.9-2.4v2.4H331.9z M325,143h12.5c-2.2-5-3.5-10.1-3.5-16c0-5.8,1.3-11.4,3.5-16.4H325V143z M338.1,144.3
						L325,152v1.5l13.8-8L338.1,144.3z M333.8,144.3l-8.8,5v1.7l11.4-6.7H333.8z M329.1,144.3l-4.1,2.4v1.5l6.9-3.9H329.1z
						 M325,144.3v1.3l2.2-1.3H325z M339.2,146.4l-14.2,8.2v1.7l14.9-8.8C339.7,147.1,339.4,146.8,339.2,146.4z M340.5,148.3
						l-15.5,9.1v1.5l16.2-9.5C341,149,340.7,148.8,340.5,148.3z M341.8,150.3L325,160v1.7l17.7-10.4
						C342.5,150.9,342,150.7,341.8,150.3z M343.1,152.2L325,162.8v1.5l19-11C343.8,152.9,343.3,152.7,343.1,152.2z M345.7,155
						c-0.4-0.4-0.6-0.6-0.9-1.1L325,165.4v0.4h2.2L345.7,155z M331.5,84.9c-0.4-0.2-0.9-0.6-1.3-0.9l-4.7,2.8h2.6L331.5,84.9z
						 M357.3,37.7v-1.5l-30.2,17.5h2.8L357.3,37.7z M347,97.7c3-2.8,6.5-5.2,10.4-6.9v-0.6l-29.8,17c0.6,0.2,1.1,0.4,1.7,0.6
						L347,97.7z M347.4,156.5c-0.4-0.2-0.6-0.4-1.1-0.9L329,165.7h2.8L347.4,156.5z M333.8,86.4c-0.4-0.2-1.1-0.6-1.5-0.9l-2.4,1.3
						h2.8L333.8,86.4z M342,103.3c0.9-1.1,1.5-2.2,2.4-3l-13.8,8c0.6,0.2,1.3,0.2,1.9,0.4L342,103.3z M357.3,40.5v-1.7l-25.5,14.9
						h2.8L357.3,40.5z M339.2,107.6c0.4-0.9,1.1-1.7,1.5-2.6l-6.9,3.9c0.6,0.2,1.5,0.4,2.2,0.4L339.2,107.6z M349.4,158.3
						c-0.4-0.2-0.6-0.6-1.1-0.9l-14.5,8.4h2.6L349.4,158.3z M338.8,110.6c-2.2,5-3.5,10.6-3.5,16.4s1.3,11,3.5,16h1.5h2.6h1.9h2.8
						h1.9h2.8h1.9h2.6h0.4v-16.2v-16h-0.4v-0.2h-15.7H341C341,110.6,338.8,110.6,338.8,110.6z M357.3,43.1v-1.5l-20.7,12.1h2.6v-0.2
						L357.3,43.1z M338.1,109.5c0-0.2,0.2-0.2,0.2-0.4l-0.6,0.4H338.1z M351.5,159.8c-0.4-0.2-0.9-0.6-1.3-0.9l-11.9,6.9h2.8
						L351.5,159.8z M357.3,98.1L340,108.2c-0.2,0.4-0.6,0.9-0.9,1.3h1.1l17-9.7L357.3,98.1L357.3,98.1z M341.2,144.3h-1.9
						c0.2,0.2,0.2,0.4,0.4,0.6L341.2,144.3z M345.7,144.3h-2.6l-3,1.5c0.2,0.4,0.6,0.9,0.9,1.3L345.7,144.3z M357.3,95.5l-14.5,8.4
						c-0.6,0.9-1.1,1.7-1.7,2.6l16.2-9.5V95.5z M357.3,45.9v-1.7l-16,9.3c0.6,0,1.1,0.2,1.5,0.2h1.1L357.3,45.9z M350.4,144.3h-2.8
						l-6.3,3.7c0.2,0.4,0.4,0.6,0.6,1.1L350.4,144.3z M357.3,102.4v-1.5l-15.1,8.6c1.1,0,1.9,0,3-0.2L357.3,102.4z M355.2,144.3
						h-2.8l-9.7,5.4c0.2,0.4,0.6,0.9,0.9,1.3L355.2,144.3z M353.7,161.1l-1.3-0.6l-9.3,5.4h2.6L353.7,161.1z M357.3,145.5v-1.3h-0.2
						l-12.9,7.3c0.2,0.4,0.6,0.6,0.9,1.1L357.3,145.5z M357.3,92.7l-9.5,5.4c-1.3,1.1-2.4,2.4-3.5,3.7l12.9-7.3v-1.8H357.3z
						 M357.3,148.3v-1.7l-11.6,6.7c0.2,0.4,0.6,0.6,1.1,1.1L357.3,148.3z M357.3,48.5V47l-11.4,6.7h2.6L357.3,48.5z M357.3,76.7
						c-1.7,4.7-5.8,8.4-10.6,10.1h1.9h2.6h1.9h2.8h1.3V76.7H357.3z M357.3,64.7V54.5h-9.9C352,56.3,355.6,60.1,357.3,64.7z
						 M357.3,150.9v-1.5l-9.9,5.6c0.4,0.4,0.6,0.9,1.1,1.1L357.3,150.9z M356.1,162.6c-0.4-0.2-1.1-0.6-1.5-0.9l-6.9,4.1h2.8
						L356.1,162.6z M357.3,105.2v-1.7l-9.5,5.6c1.5-0.2,3-0.6,4.5-1.1L357.3,105.2z M357.3,153.7V152l-8.2,4.7
						c0.4,0.2,0.9,0.6,1.3,0.9L357.3,153.7z M353.2,32.1h-2.8c0.6,0.2,1.3,0.2,1.9,0.4L353.2,32.1z M357.3,51.3v-1.7l-6.9,4.1h2.8
						L357.3,51.3z M357.3,156.3v-1.5l-6,3.5c0.4,0.2,0.6,0.6,1.1,0.9L357.3,156.3z M357.3,107.8v-0.4c-1.5,0.6-3.2,1.3-5,1.7
						l-0.9,0.6h2.6L357.3,107.8z M357.3,164.5V163h-0.2l-4.7,2.8h2.6L357.3,164.5z M357.3,32.3v-0.2h-2.2l-1.7,0.9
						c0.6,0.2,1.1,0.4,1.7,0.6L357.3,32.3z M357.3,159.1v-1.7l-3.9,2.4c0.4,0.2,0.9,0.6,1.3,0.9L357.3,159.1z M357.3,53.7v-1.3
						l-2.2,1.3H357.3z M357.3,161.7v-1.5l-1.7,0.9c0.4,0.2,1.1,0.6,1.5,0.9L357.3,161.7z M357.3,109.7v-0.9l-1.3,0.9H357.3z
						 M357.3,34.3v-0.9l-0.9,0.6C356.7,34.3,357.1,34,357.3,34.3z M357.3,165.8v-0.2l-0.4,0.2H357.3z M359.7,32.1l-1.5,0.9v1.5
						l4.3-2.4H359.7z M358.2,36v1.1l1.1-0.4C358.9,36.4,358.6,36.2,358.2,36z M360.4,37.1l-2.2,1.3v1.5l3.5-1.9
						C361.2,37.7,360.8,37.3,360.4,37.1z M362.5,38.6l-4.3,2.4v1.5l5.6-3C363.4,39.2,363,38.8,362.5,38.6z M364.7,40.1l-6.5,3.7v1.5
						l7.5-4.3C365.3,40.7,365.1,40.3,364.7,40.1z M366.6,41.6l-8.4,4.7v1.5l9.5-5.4C367.3,42,367.1,41.8,366.6,41.6z M368.3,43.3
						l-10.1,5.8v1.5l11.2-6.5C369.2,43.7,368.8,43.7,368.3,43.3z M370.1,45l-11.9,6.7v1.5l12.7-7.3C370.7,45.5,370.3,45.5,370.1,45z
						 M358.2,54.5v16.2v16.2h2.4h13.6h2.2c2.2-5,3.5-10.1,3.5-16s-1.3-11.4-3.5-16.4C376.4,54.5,358.2,54.5,358.2,54.5z M375.2,89.5
						l0.6-1.3h-1.3l-16.4,9.5v1.5L375.2,89.5z M369.6,88.4l-11.4,6.5v1.5l14.5-8.2C371.6,88.2,370.7,88.2,369.6,88.4z M360.8,88.2
						l-2.6,1.3v0.6c1.3-0.6,2.8-0.9,4.1-1.3l1.1-0.6H360.8z M358.2,88.2v0.2l0.6-0.2H358.2z M362.3,89.9l-4.1,2.4v1.5l8.8-5.2
						C365.3,88.8,363.8,89.5,362.3,89.9z M385.6,89.9l-17,9.7c-3,2.8-6.5,5.4-10.4,7.1v0.4l29.1-16.8
						C386.7,90.1,386.2,90.1,385.6,89.9z M388.6,90.8l-30.4,17.7v1.3h0.6l31.3-18.1C389.7,91.4,389.1,91,388.6,90.8z M372.4,93.6
						c0.6-0.9,1.1-1.7,1.7-2.6l-16,9.3v1.5L372.4,93.6z M367.5,99.2c1.1-1.1,2.4-2.2,3.5-3.5l-12.7,7.3v1.5L367.5,99.2z
						 M363.6,110.6v0.2h-1.9v-0.2h-2.8v0.2h-0.6v9.9c1.7-4.5,5.4-8.2,9.7-9.9h-1.7v-0.2H363.6z M358.2,126.8c0,8.8,7.1,16,16,16
						c8.2,0,15.1-6,16-14v-3.9c-0.9-8-7.8-14-16-14C365.3,110.8,358.2,117.9,358.2,126.8z M358.2,132.8V143h0.6h2.8h1.9h2.6h0.2h2.8
						C364.2,141.4,360.1,137.8,358.2,132.8z M390.1,145.3v-1.1h-0.4l-31.5,18.1c0.4,0.2,1.1,0.4,1.5,0.6L390.1,145.3z M385,144.3
						l-26.7,15.3v1.5l29.5-16.8H385z M380.2,144.3l-22,12.7v1.5l24.8-14.2H380.2z M375.7,144.3l-17.5,9.9v1.5l20.1-11.4H375.7z
						 M370.9,144.3l-12.7,7.3v1.5l15.5-8.8H370.9z M366.4,144.3l-8.2,4.5v1.5l10.8-6H366.4z M361.7,144.3l-3.5,1.9v1.5l6.3-3.5h-2.8
						V144.3z M358.2,144.3v0.6l1.5-0.6H358.2z M358.2,163.7v0.2l0.4-0.2H358.2z M359.7,164.1l-1.5,0.9v0.9h1.5l1.7-1.1
						C360.8,164.5,360.4,164.3,359.7,164.1z M364.5,32.1l-5.4,3c0.4,0.2,0.9,0.6,1.3,0.9c2.2-1.3,4.7-2.6,6.9-3.9H364.5z
						 M361.9,103.7l-2.8,1.5C359.9,104.8,361,104.3,361.9,103.7z M371.6,46.8l-11.9,6.9h2.8l9.9-5.8
						C372.2,47.4,371.8,47.2,371.6,46.8z M390.1,92.7l-29.3,17h2.6l26.7-15.5L390.1,92.7L390.1,92.7z M390.1,148.1v-1.5L361,163.4
						c0.6,0.2,1.1,0.4,1.7,0.6L390.1,148.1z M369.2,32.1l-7.8,4.3c0.4,0.2,0.9,0.6,1.3,0.9l9.1-5.2H369.2z M362.7,165.2l-1.1,0.6
						h2.8v-0.2C363.8,165.4,363.4,165.4,362.7,165.2z M373.7,32.1l-10.1,5.8c0.4,0.2,0.9,0.6,1.3,0.9l11.6-6.7H373.7z M390.1,150.7
						v-1.5L364,164.3c0.6,0.2,1.3,0.2,1.9,0.4L390.1,150.7z M372.9,48.7l-8.4,5h2.8l6.5-3.9C373.5,49.4,373.1,49.1,372.9,48.7z
						 M390.1,95.3l-24.8,14.5h2.8l22-12.9V95.3z M378.5,32.1l-12.9,7.3c0.4,0.2,0.9,0.6,1.3,0.9l14.2-8.2H378.5z M390.1,153.5V152
						l-22.9,13.2c0.6,0.2,1.5,0.2,2.2,0.2L390.1,153.5z M383,32.1l-15.5,8.8c0.4,0.2,0.6,0.6,1.1,1.1l17.3-9.9H383z M368.6,110.6
						h-0.4v0.2C368.3,110.6,368.3,110.6,368.6,110.6z M374.2,50.6l-5,3h2.6l3-1.9C374.6,51.3,374.4,51.1,374.2,50.6z M387.8,32.1
						l-18.3,10.6c0.4,0.4,0.6,0.6,0.9,1.1l19.8-11.6L387.8,32.1L387.8,32.1z M390.1,98.1L370,109.7h2.8l17.3-10.1L390.1,98.1
						L390.1,98.1z M390.1,33.4l-19.2,11c0.2,0.4,0.6,0.6,0.9,1.1l18.3-10.6L390.1,33.4L390.1,33.4z M382.4,89l-9.1,5.2
						c-0.6,1.1-1.5,2.2-2.4,3l13.4-7.8C383.7,89.3,383,89.3,382.4,89z M390.1,156.1v-1.5l-19,11h2.6L390.1,156.1z M390.1,36
						l-17.7,10.1c0.2,0.4,0.6,0.9,0.9,1.3l16.8-9.9L390.1,36L390.1,36z M373.7,53.7h2.2c-0.2-0.2-0.2-0.9-0.4-1.1L373.7,53.7z
						 M390.1,38.8L374,48.1l0.6,1.3l15.5-9.1V38.8z M378.9,88.4l-2.8,1.5c-0.4,0.9-1.1,1.7-1.5,2.6l6.5-3.9
						C380.4,88.4,379.6,88.4,378.9,88.4z M390.1,100.7l-15.3,9.1h2.6l12.7-7.5L390.1,100.7L390.1,100.7z M390.1,41.4L375.2,50
						l0.6,1.3l14.2-8.4L390.1,41.4L390.1,41.4z M390.1,158.9v-1.5l-14.5,8.2c1.1,0,2.2,0,3.2-0.2L390.1,158.9z M390.1,44.2l-13.8,8
						c0.2,0.4,0.4,0.6,0.6,1.1l13.2-7.5L390.1,44.2L390.1,44.2z M377,88.2v0.2l0.2-0.2H377z M377.6,54.5c2.2,5,3.5,10.6,3.5,16.4
						s-1.3,11-3.5,16h12.5V54.5H377.6z M390.1,46.8l-11.6,6.9h2.6l9.1-5.4v-1.5H390.1z M390.1,165.8v-2.4c-3.7,1.5-7.3,2.6-11.4,3
						L390.1,165.8z M390.1,103.5l-10.8,6.3h2.8l8-4.7V103.5z M390.1,135.8l-2.4,1.3c-2.2,2.8-5,4.7-8.4,5.8h0.9l9.9-5.6V135.8z
						 M380,110.6l0.2,0.2v-0.2H380z M382.1,110.6l-0.9,0.6c0.4,0.2,1.1,0.4,1.5,0.6l2.2-1.3h-2.8V110.6z M390.1,161.5V160l-8.6,5
						c1.7-0.4,3.5-0.6,5.2-1.3L390.1,161.5z M390.1,138.4l-8,4.5h2.8l5.2-3V138.4z M390.1,49.6l-7.1,4.1h2.8l4.3-2.6L390.1,49.6
						L390.1,49.6z M383.2,88.2c2.4,0.6,4.7,1.3,6.9,2.2v-2.2H383.2z M386.9,110.6l-3.2,1.9c0.4,0.2,0.9,0.6,1.3,0.9l4.5-2.8H386.9z
						 M390.1,106.1l-6,3.7h2.6l3.5-2.2v-1.5H390.1z M390.1,113v-1.5l-4.5,2.6c0.4,0.2,0.6,0.6,1.1,1.1L390.1,113z M390.1,141.2
						l-3.2,1.7h2.6l0.6-0.2V141.2z M390.1,115.8v-1.5l-2.8,1.5c0.2,0.4,0.6,0.6,0.9,1.1L390.1,115.8z M387.8,53.7h2.4v-1.5
						L387.8,53.7z M388.6,109.7h1.5v-0.9L388.6,109.7z M390.1,118.4v-1.5l-1.5,0.9c0.2,0.4,0.6,0.6,0.9,1.1L390.1,118.4z M390.1,133
						c-0.2,0.9-0.6,1.5-1.1,2.2l1.1-0.6V133z M390.1,120.5v-0.9h-0.4C389.9,119.9,390.1,120.3,390.1,120.5z M412.8,32.1h-1.7
						l-19.8,11.4V45l21.6-12.5v-0.4H412.8z M406.3,32.1l-15.1,8.6v1.5l17.9-10.1H406.3z M401.8,32.1l-10.6,6v1.5l13.2-7.5H401.8z
						 M397,32.1l-5.8,3.2v1.5l8.6-4.7H397z M392.5,32.1l-1.3,0.6v1.5l3.9-2.2h-2.6V32.1z M412.8,33.6l-21.6,12.5v1.5l21.6-12.3V33.6
						z M412.8,36.4l-21.6,12.5v1.5l21.6-12.5V36.4z M412.8,39l-21.6,12.5V53l21.6-12.3V39z M391.2,88.2v2.6
						c8.2,3.9,14.9,10.8,18.8,19h2.8V54.5h-21.6v32.4h14v1.3C405.2,88.2,391.2,88.2,391.2,88.2z M391.2,92.1v1.5l1.3-0.9L391.2,92.1
						z M393.6,93.3l-2.4,1.3v1.5l3.7-1.9C394.4,94,394,93.6,393.6,93.3z M395.7,94.6l-4.5,2.8V99l5.8-3.5
						C396.6,95.3,396.2,94.9,395.7,94.6z M397.9,96.2l-6.7,3.9v1.5l7.8-4.3C398.5,97,398.3,96.4,397.9,96.2z M399.8,97.9l-8.6,5v1.5
						l9.7-5.6C400.5,98.3,400.3,98.1,399.8,97.9z M401.6,99.4l-10.4,6v1.7l11.2-6.7C402.2,100,402,99.8,401.6,99.4z M404.1,102.2
						c-0.2-0.4-0.6-0.4-0.9-0.9l-12.1,6.9v1.5h0.2L404.1,102.2z M405.4,110.6l-14.2,8.4v1.5l17-9.9H405.4z M400.7,110.6l-9.5,5.6
						v1.5l12.3-7.1H400.7z M396.2,110.6l-5,3v1.5l7.5-4.5H396.2z M391.4,110.6l-0.2,0.2v1.5l3-1.7H391.4z M409.5,111l-18.3,10.6v1.5
						l18.8-10.8C409.8,111.9,409.8,111.5,409.5,111z M410.4,113.2l-19.2,11.2v0.4v1.1l19.6-11.4
						C410.6,114.1,410.6,113.6,410.4,113.2z M411.3,115.6L391.2,127v1.5l20.3-11.6C411.3,116.4,411.5,116,411.3,115.6z M411.9,117.7
						l-20.7,12.1v1.5l20.9-12.1C412.1,118.8,412.1,118.2,411.9,117.7z M412.3,120.3l-21.1,12.1v1.5l21.4-12.3
						C412.6,121.2,412.3,120.7,412.3,120.3z M412.8,124c0-0.4-0.2-0.9-0.2-1.3l-21.4,12.5v1.5l21.6-12.5V124z M412.8,125.3
						l-21.6,12.5v1.5l21.6-12.3V125.3z M412.8,128.1l-21.6,12.5v1.5l21.6-12.5V128.1z M410,144.3c-3.9,8.2-10.6,14.9-18.8,18.8v2.8
						h21.6v-21.6H410z M407.8,146c0.4-0.6,0.9-1.1,1.1-1.7h-0.6l-17,9.7v1.5L407.8,146z M406.3,144.3h-2.8l-12.3,7.1v1.5
						L406.3,144.3z M401.6,144.3H399l-7.8,4.3v1.5L401.6,144.3z M397,144.3h-2.8l-3,1.7v1.5L397,144.3z M392.3,144.3h-1.1v0.4
						L392.3,144.3z M405,150.3l1.9-2.6l-15.7,9.1v1.5L405,150.3z M399.6,156.1c1.3-1.1,2.6-2.4,3.7-3.7l-12.1,6.9v1.5L399.6,156.1z
						 M412.6,132.4c0-0.6,0.2-0.9,0.2-1.5L391.4,143h2.8L412.6,132.4z M412.8,41.8l-20.3,11.9h2.6l17.7-10.4L412.8,41.8L412.8,41.8z
						 M405.4,104.1c-0.2-0.4-0.4-0.6-0.6-1.1l-11.4,6.7h2.6L405.4,104.1z M411.9,135.4c0.2-0.6,0.4-1.1,0.4-1.7l-16.2,9.3h2.6
						L411.9,135.4z M412.8,44.4L397,53.7h2.8l12.9-7.5v-1.8H412.8z M406.7,106.1c-0.2-0.4-0.4-0.6-0.6-1.1l-8.2,4.7h2.8L406.7,106.1
						z M411.1,138.6l0.6-1.9l-11,6.3h2.8L411.1,138.6z M412.8,47.2l-11,6.5h2.6l8.4-5V47.2z M408,108c-0.2-0.4-0.4-0.6-0.6-1.1
						l-4.7,2.8h2.8L408,108z M409.8,142.1c0.2-0.6,0.6-1.3,0.9-1.9l-5.2,2.8h2.8L409.8,142.1z M412.8,49.8l-6.5,3.9h2.8l3.7-2.2
						V49.8z M408.9,109.7c-0.2-0.2-0.2-0.6-0.4-0.9l-1.1,0.9H408.9z M410.6,110.6c0.9,2.2,1.5,4.5,2.2,6.7v-6.7H410.6z M412.8,136.5
						c-0.6,2.2-1.3,4.3-2.2,6.5h2.2V136.5z M411.1,53.7h1.7v-1.1L411.1,53.7z"/>
					<path class="st2" d="M458.9,32.1h-13.2v133.7h16.8v0.9h-16.8v32.1h-1.3v-32.1h-21.6v32.1h-0.9v-32.1h-16.4v-0.9h16.4V32.1
						h-16.6v-1.3h16.6V1.5h0.9v29.3h21.6V1.5h1.3v29.3h13.2V32.1z M444.5,32.7v-0.6h-1.1l-20.5,11.6v1.5L444.5,32.7z M441.5,32.1
						h-2.8L423,41.2v1.5L441.5,32.1z M436.7,32.1h-2.6l-11.2,6.3v1.5L436.7,32.1z M432.2,32.1h-2.8l-6.5,3.7v1.5L432.2,32.1z
						 M427.4,32.1h-2.8l-1.7,0.9v1.5L427.4,32.1z M444.5,35.5V34l-21.6,12.5V48L444.5,35.5z M444.5,38.1v-1.5l-21.6,12.5v1.5
						L444.5,38.1z M444.5,40.9v-1.5l-21.6,12.5v1.5L444.5,40.9z M444.5,43.5V42l-21.6,12.5V56L444.5,43.5z M444.5,46.3v-1.5
						l-21.6,12.5v1.5L444.5,46.3z M444.5,48.9v-1.5l-21.6,12.5v1.5L444.5,48.9z M444.5,51.7v-1.5l-21.6,12.5v1.5L444.5,51.7z
						 M444.5,54.3v-1.5l-21.6,12.5v1.5L444.5,54.3z M444.5,57.1v-1.5l-21.6,12.5v1.5L444.5,57.1z M444.5,59.7v-1.5l-21.6,12.5v1.5
						L444.5,59.7z M444.5,62.5V61l-21.6,12.5V75L444.5,62.5z M444.5,65.1v-1.5l-21.6,12.5v1.5L444.5,65.1z M444.5,67.9v-1.5
						l-21.6,12.5v1.5L444.5,67.9z M444.5,70.5V69l-21.6,12.5V83L444.5,70.5z M444.5,73.3v-1.5l-21.6,12.5v1.5L444.5,73.3z
						 M444.5,75.9v-1.5l-21.6,12.5v1.5L444.5,75.9z M444.5,78.7v-1.5l-21.6,12.5v1.5L444.5,78.7z M444.5,81.3v-1.5l-21.6,12.5v1.5
						L444.5,81.3z M444.5,84.1v-1.5l-21.6,12.5v1.5L444.5,84.1z M444.5,86.7v-1.5l-21.6,12.5v1.5L444.5,86.7z M444.5,89.5V88
						l-21.6,12.5v1.5L444.5,89.5z M444.5,92.1v-1.5l-21.6,12.5v1.5L444.5,92.1z M444.5,94.9v-1.5l-21.6,12.5v1.5L444.5,94.9z
						 M444.5,97.4v-1.5l-21.6,12.5v1.5L444.5,97.4z M444.5,100.3v-1.5l-21.6,12.5v1.5L444.5,100.3z M444.5,102.8v-1.5l-21.6,12.5
						v1.5L444.5,102.8z M444.5,105.6v-1.5l-21.6,12.5v1.5L444.5,105.6z M444.5,108.2v-1.5l-21.6,12.5v1.5L444.5,108.2z M444.5,111
						v-1.5L422.9,122v1.5L444.5,111z M444.5,113.6v-1.5l-21.6,12.5v1.5L444.5,113.6z M444.5,116.4v-1.5l-21.6,12.5v1.5L444.5,116.4z
						 M444.5,119v-1.5L422.9,130v1.5L444.5,119z M444.5,121.8v-1.5l-21.6,12.5v1.5L444.5,121.8z M444.5,124.4v-1.5l-21.6,12.5v1.5
						L444.5,124.4z M444.5,127.2v-1.5l-21.6,12.5v1.5L444.5,127.2z M444.5,129.8v-1.5l-21.6,12.5v1.5L444.5,129.8z M444.5,132.6
						v-1.5l-21.6,12.5v1.5L444.5,132.6z M444.5,135.2v-1.5l-21.6,12.5v1.5L444.5,135.2z M444.5,138v-1.5L422.9,149v1.5L444.5,138z
						 M444.5,140.6v-1.5l-21.6,12.5v1.5L444.5,140.6z M444.5,143.4v-1.5l-21.6,12.5v1.5L444.5,143.4z M444.5,146v-1.5L422.9,157v1.5
						L444.5,146z M444.5,148.8v-1.5l-21.6,12.5v1.5L444.5,148.8z M444.5,151.4v-1.5l-21.6,12.5v1.5L444.5,151.4z M444.5,154.2v-1.5
						l-21.6,12.5v0.6h1.7L444.5,154.2z M444.5,156.8v-1.5l-17.9,10.6h2.8L444.5,156.8z M444.5,159.6v-1.5l-13.2,7.8h2.6L444.5,159.6
						z M444.5,162.2v-1.5l-8.6,5.2h2.8L444.5,162.2z M444.5,165v-1.5l-3.9,2.4h2.6L444.5,165z"/>
					<path class="st2" d="M611.4,32.1h-16v21.6h16v0.9h-16V99v44h16.4v1.3h-16.4v21.6h20.7v0.9h-20.7v1.5l5.6,5.6l-0.9,0.9l-4.7-5
						v29.1h-1.3v-30.2l-1.7-1.9h-22v1.3h3.9v0.9h-3.9v30h-0.9v-30h-44.4h-44v30h-1.3v-30h-1.5v-1h1.5v-1.3H458l-1.9,1.9v30.2h-0.9
						v-29.1l-9.7,9.7l-0.9-0.9l10.6-10.4v-1.5h-12.1v-0.9h12.1v-21.6h-12.1V143h12.1V99V54.5h-14.5v-0.9h14.5V32.1h-14.5v-1.3h14.5
						v-1.3l-9.9-9.7l0.9-0.9l9.1,9.1V0.8h0.9v28.3l1.9,1.7h21.8v-0.9h-1.5v-1.3h1.5V0.8h1.3v27.8h44h44.4V0.8h0.9v27.8h3.9v1.3h-3.9
						v0.9h22l1.7-1.7V0.8h1.3V28l8.8-9.1l0.9,0.9l-9.7,9.7v1.3h16L611.4,32.1L611.4,32.1z M456.6,30.8l-0.4-0.2v0.2H456.6z
						 M471.9,53.7c1.1-1.3,2.2-2.6,3.5-3.9l-17.7-17.7h-1.5v21.6C456.2,53.7,471.9,53.7,471.9,53.7z M456.1,86.4
						c2.2-11.9,7.3-22.9,14.7-31.9h-14.7V86.4z M479.9,86.7v-1.5L456.1,99c0,0.4,0.2,1.1,0.2,1.5L479.9,86.7z M470.8,143
						c-7.3-9.1-12.5-19.8-14.7-31.7V143H470.8z M457.6,165.8l17.7-17.9c-1.3-1.3-2.4-2.4-3.5-3.7h-15.7v21.6L457.6,165.8
						L457.6,165.8z M456.1,167.1l0.4-0.4h-0.4V167.1z M479.9,81.3v-1.5l-23.5,13.6v1.7L479.9,81.3z M479.9,84.1v-1.5l-23.5,13.6v1.7
						L479.9,84.1z M479.9,89.5V88l-23.5,13.6v1.5L479.9,89.5z M479.9,92.1v-1.5l-23.5,13.6c0,0.4,0.2,1.1,0.2,1.5L479.9,92.1z
						 M479.9,78.7v-1.5l-23.1,13.4c0,0.6-0.2,1.1-0.2,1.7L479.9,78.7z M479.9,94.9v-1.5l-23.1,13.4v1.5L479.9,94.9z M479.9,75.9
						v-1.5l-22.6,13.2c0,0.6-0.2,1.1-0.2,1.7L479.9,75.9z M479.9,97.4v-1.5L457,109.3c0,0.4,0.2,0.9,0.2,1.3L479.9,97.4z
						 M479.9,73.3v-1.5l-22.2,12.7c-0.2,0.6,0,1.3-0.2,1.9L479.9,73.3z M479.9,100.3V99v-0.2l-22.4,12.9c0,0.4,0.2,1.1,0.2,1.5
						L479.9,100.3z M479.9,102.8v-1.5l-22,12.7c0,0.4,0.2,1.1,0.4,1.5L479.9,102.8z M479.9,70.5V69l-21.4,12.5
						c-0.2,0.6-0.2,1.1-0.4,1.7L479.9,70.5z M479.9,105.6v-1.5l-21.4,12.3c0.2,0.4,0.2,1.1,0.4,1.5L479.9,105.6z M479.9,67.9v-1.5
						l-20.5,11.9l-0.6,1.9L479.9,67.9z M459.1,32.1L476,48.9c1.3-1.3,2.6-2.4,3.9-3.5V32.1H459.1z M479.9,108.2v-1.5l-20.7,12.1
						c0.2,0.4,0.2,0.9,0.4,1.3L479.9,108.2z M479.9,152.2c-1.3-1.1-2.6-2.2-3.9-3.5l-16.8,17h20.7L479.9,152.2L479.9,152.2z
						 M479.9,65.1v-1.5l-19.4,11.2c-0.2,0.6-0.4,1.5-0.6,2.2L479.9,65.1z M479.9,111v-1.5l-20.1,11.6l0.6,1.3L479.9,111z
						 M479.9,113.6v-1.5l-19.2,11.2l0.6,1.3L479.9,113.6z M479.9,62.5V61L462,71.4c-0.2,0.6-0.6,1.5-0.9,2.2L479.9,62.5z
						 M479.9,116.4v-1.5l-18.3,10.6l0.6,1.3L479.9,116.4z M479.9,59.7v-1.5l-16.2,9.5c-0.4,0.6-0.6,1.5-1.1,2.2L479.9,59.7z
						 M479.9,119v-1.5l-17.3,10.1c0.2,0.4,0.2,0.9,0.4,1.3L479.9,119z M479.9,121.8v-1.5l-16.4,9.5c0.2,0.4,0.4,0.6,0.6,1.1
						L479.9,121.8z M479.9,57.1v-1.5l-14,8.2c-0.4,0.9-0.9,1.3-1.3,2.2L479.9,57.1z M479.9,124.4v-1.5l-15.3,8.8l0.6,1.3
						L479.9,124.4z M479.9,127.2v-1.5l-14,8.2c0.2,0.4,0.4,0.6,0.6,1.1L479.9,127.2z M476.8,54.5l-8.2,5c-0.6,0.9-1.1,1.5-1.7,2.4
						l12.7-7.3h-2.8V54.5z M479.9,129.8v-1.5l-12.9,7.5c0.2,0.4,0.6,0.6,0.9,1.1L479.9,129.8z M479.9,132.6v-1.5l-11.6,6.7
						c0.2,0.4,0.6,0.6,0.9,1.1L479.9,132.6z M479.9,135.2v-1.5l-10.1,6c0.2,0.4,0.4,0.6,0.6,1.1L479.9,135.2z M472.3,54.5
						c-0.9,0.9-1.7,2.2-2.4,3l5-3H472.3z M479.9,138v-1.5l-8.8,5.2c0.2,0.4,0.6,0.6,0.9,1.1L479.9,138z M479.9,140.6v-1.5l-6.7,3.9
						h2.6L479.9,140.6z M473.2,144.3l0.2,0.2l0.6-0.2H473.2z M478.3,52.6l-1.1-0.9l-3.2,1.9h2.8L478.3,52.6z M476,144.3l-1.9,0.9
						c0.2,0.4,0.9,0.6,1.1,1.1l3.5-1.9H476V144.3z M476,50.4c-0.6,0.6-1.1,1.3-1.7,1.9l2.4-1.5L476,50.4z M476,147.3l1.3-1.3
						l-1.5,0.9C475.8,147.1,476,147.1,476,147.3z M479.9,48.9v-1.5l-1.9,1.3l-1.1,1.1l0.6,0.6L479.9,48.9z M479.9,146v-1.1l-2.6,2.8
						L479.9,146z M479.9,148.8v-1.5l-2.4,1.3c0.4,0.4,0.6,0.9,1.1,1.1L479.9,148.8z M479.9,143v-1.1l-2.2,1.1H479.9z M479.9,51.7
						v-1.5l-1.5,0.9l0.9,1.1L479.9,51.7z M479.2,53.7l-0.2-0.2l-0.2,0.2H479.2z M479.9,150.9v-1.1l-0.6,0.4L479.9,150.9z
						 M507.9,30.8c1.7-0.4,3.2-0.6,5-0.9h-31.7v0.9H507.9z M481.1,44.4c6.7-5.6,14.5-9.7,23.1-12.3h-23.1V44.4z M518.7,32.1h-2.8
						l-34.7,20.1v1.5h0.2L518.7,32.1z M511.3,32.1l-30.2,17.5v1.5l32.8-19H511.3z M508.1,32.1c-0.9,0.2-1.9,0.4-2.8,0.6l-24.2,14
						v1.7L509.4,32h-1.3V32.1z M481.8,56l-0.6-0.6v1.1L481.8,56z M483.5,57.8l-1.1-0.9l-1.3,0.6v1.7L483.5,57.8z M485.2,59.5
						l-1.1-1.1l-3,1.9v1.5L485.2,59.5z M486.8,61.2l-0.9-1.1l-4.7,2.8v1.7L486.8,61.2z M488.5,62.9l-0.9-1.1l-6.5,3.9v1.5
						L488.5,62.9z M490.2,64.7l-0.9-1.1l-8.2,4.7V70L490.2,64.7z M491.9,66.4c-0.4-0.4-0.4-0.6-0.9-1.1l-9.9,5.8v1.5L491.9,66.4z
						 M490.4,69.8c0.9-0.9,1.5-1.7,2.4-2.6l-0.2-0.2l-11.4,6.7v1.7L490.4,69.8z M493.7,67.9c-7.8,8-12.5,19-12.5,31.1
						s4.7,22.9,12.5,30.8L524.5,99L493.7,67.9z M487,74.6c0.6-0.9,1.1-1.7,1.7-2.6l-7.5,4.5V78L487,74.6z M484.8,78.7
						c0.4-0.9,0.6-1.7,1.1-2.4l-4.7,2.8v1.7L484.8,78.7z M483.1,82.3c0.2-0.6,0.6-1.5,0.9-2.2l-2.8,1.7v1.5L483.1,82.3z M482,85.6
						l0.6-1.9l-1.5,0.9v1.7L482,85.6z M481.6,86.9l-0.4,0.4v1.5C481.4,88.2,481.4,87.5,481.6,86.9z M481.1,108.9v1.5l0.2-0.2
						C481.1,109.7,481.1,109.3,481.1,108.9z M481.6,111.3l-0.4,0.2v1.7l0.9-0.6C481.8,112.1,481.8,111.7,481.6,111.3z M482.4,113.4
						l-1.3,0.9v1.5l1.7-1.1C482.7,114.3,482.7,113.8,482.4,113.4z M483.1,115.6l-1.9,1.3v1.7l2.6-1.7L483.1,115.6z M484.2,117.7
						l-3,1.9v1.5l3.7-2.2L484.2,117.7z M485.2,119.9l-4.1,2.4v1.7l4.7-2.8L485.2,119.9z M486.3,122l-5.2,3v1.5l5.8-3.5
						C486.8,122.7,486.5,122.5,486.3,122z M487.6,124l-6.5,3.7v1.7l7.1-4.3C488.1,124.6,487.8,124.4,487.6,124z M488.9,125.9
						l-7.8,4.5v1.5l8.6-5C489.6,126.6,489.1,126.3,488.9,125.9z M490.4,127.6l-9.3,5.4v1.7l10.1-6
						C491.1,128.3,490.6,128.1,490.4,127.6z M492.8,130.4c-0.2-0.4-0.6-0.4-0.9-0.9l-10.8,6.3v1.5l11.6-6.7L492.8,130.4L492.8,130.4
						z M490.2,133.3l-9.1,5.2v1.7l5.2-3.2L490.2,133.3z M481.1,141.2v1.1l2.6-2.6L481.1,141.2z M497.3,144.3h-2.8l-13.4,7.8
						c0.4,0.2,0.6,0.6,1.1,0.9L497.3,144.3z M492.6,144.3H490l-8.8,5v1.7L492.6,144.3z M488.1,144.3h-2.8l-4.1,2.4v1.5L488.1,144.3z
						 M483.3,144.3h-2.2v1.3L483.3,144.3z M504.2,165.8c-8.6-2.6-16.4-6.9-23.1-12.5v12.5H504.2z M481.1,168h31.7
						c-1.7-0.2-3.2-0.9-5-1.3h-26.7L481.1,168L481.1,168z M481.8,45.3l18.8-10.8C493.7,37.1,487.4,40.7,481.8,45.3z M484.2,54.5
						h-2.4l0.9,1.1L484.2,54.5z M498.4,135.4c-0.4-0.2-0.6-0.6-1.1-0.9l-14.9,8.4h2.8L498.4,135.4z M501.9,144.3h-2.6l-16.2,9.3
						c0.4,0.2,0.6,0.6,1.1,0.9L501.9,144.3z M523.4,32.1h-2.8l-37.3,21.6h2.8L523.4,32.1z M488.9,54.5h-2.8l-2.8,1.7l1.1,1.1
						L488.9,54.5z M495.4,132.8l-8,4.7l-3.9,3.7l12.9-7.3C496,133.7,495.8,133,495.4,132.8z M493.4,54.5h-2.6
						c-1.9,1.1-3.9,2.4-5.8,3.5l1.1,0.9L493.4,54.5z M506.6,144.3h-2.8L485,155c0.4,0.2,0.9,0.6,1.3,0.9L506.6,144.3z M498.2,54.5
						h-2.8l-8.6,5.2l1.1,0.9L498.2,54.5z M500.6,136.9c-0.4-0.2-0.9-0.6-1.3-0.9l-12.1,6.9h2.6L500.6,136.9z M511.1,144.3h-2.6
						l-21.4,12.3l1.3,0.6L511.1,144.3z M528,32.1h-2.6l-37.3,21.6h2.8L528,32.1z M502.9,54.5h-2.8l-11.6,6.9l1.1,0.9L502.9,54.5z
						 M515.9,144.3h-2.8l-23.5,13.6c0.4,0.2,0.9,0.6,1.3,0.9L515.9,144.3z M493.7,131.3L490,135l4.5-2.8
						C494.1,132,494.1,131.5,493.7,131.3z M507.5,54.5h-2.6l-14.7,8.6l1.1,0.9L507.5,54.5z M502.9,138.2c-0.4-0.2-1.1-0.6-1.5-0.9
						l-9.7,5.6h2.8L502.9,138.2z M520.6,144.3h-2.8l-26.1,14.9c0.4,0.2,1.1,0.6,1.5,0.9L520.6,144.3z M497.1,63.4
						c3.5-2.8,7.3-5,11.4-6.7l3.7-2.2h-2.8l-17.5,10.4l1.1,0.9L497.1,63.4z M532.7,32.1h-2.8l-37.1,21.6h2.6L532.7,32.1z
						 M556.2,67.3c-8-7.8-19-12.7-31.1-12.7s-22.9,5-30.8,12.7l30.8,30.8L556.2,67.3z M494.3,130.4c8,7.8,18.8,12.5,30.8,12.5
						s23.1-4.7,31.1-12.5l-31.1-30.8L494.3,130.4z M525.1,144.3h-2.6l-28.3,16.2c0.4,0.2,0.9,0.6,1.3,0.9L525.1,144.3z M505.3,139.5
						c-0.4-0.2-1.1-0.4-1.5-0.6l-7.3,4.1h2.6L505.3,139.5z M529.9,144.3h-2.8l-30.4,17.5c0.4,0.2,1.3,0.4,1.7,0.6L529.9,144.3z
						 M537.2,32.1h-2.6l-37.3,21.6h2.8L537.2,32.1z M534.4,144.3h-2.6l-32.4,18.5c0.4,0.2,0.9,0.4,1.5,0.6L534.4,144.3z
						 M507.9,140.6c-0.4-0.2-1.1-0.4-1.5-0.6l-5.4,3h2.8L507.9,140.6z M542,32.1h-2.8l-37.1,21.6h2.6L542,32.1z M539.2,144.3h-2.8
						l-34.1,19.6c0.6,0.2,1.1,0.4,1.7,0.6L539.2,144.3z M543.9,144.3h-2.8L505.3,165c0.6,0.2,1.1,0.2,1.7,0.4L543.9,144.3z
						 M510.7,141.7c-0.6-0.2-1.1-0.2-1.7-0.4l-3.2,1.7h2.8L510.7,141.7z M545.2,32.7c-0.6-0.2-1.1-0.2-1.7-0.4l-36.9,21.4h2.8
						L545.2,32.7z M548.4,144.3h-2.6l-37.3,21.6h2.6L548.4,144.3z M513.7,142.7c-0.6-0.2-1.1-0.4-1.7-0.6l-1.5,0.9h2.6L513.7,142.7z
						 M548.2,33.8c-0.6-0.2-1.1-0.4-1.7-0.6l-35.2,20.5h2.6L548.2,33.8z M515.4,54.5h-1.3l-1.1,0.6C513.7,55,514.6,54.7,515.4,54.5z
						 M553.2,144.3h-2.8l-37.3,21.6h2.8L553.2,144.3z M513.1,166.7c0.2,0,0.4,0.2,0.6,0.2l0.2-0.2H513.1z M515.9,166.7l-0.6,0.4
						c0.6,0,1.7,0.4,2.4,0.4l1.1-0.9h-2.9V166.7z M515.9,30.8l1.1-0.4C515.7,30.6,515.9,30.8,515.9,30.8z M551,34.9
						c-0.4-0.2-0.9-0.4-1.5-0.6l-33.6,19.4h2.8L551,34.9z M519.3,30.2l-1.5,0.6h2.8l1.7-0.9C521.3,29.9,520.4,30.2,519.3,30.2z
						 M557.7,144.3h-2.6l-37.3,21.6h2.8L557.7,144.3z M520.6,166.7l-1.5,0.9c0.9,0,1.7,0.2,2.6,0.2l1.7-1.1L520.6,166.7L520.6,166.7
						z M553.6,36c-0.4-0.2-1.1-0.4-1.5-0.6l-31.5,18.3h2.8L553.6,36z M525.1,29.9h-0.9l-1.7,0.9h2.6l1.9-0.9H525.1z M562.5,144.3
						h-2.8l-37.1,21.6h2.6L562.5,144.3z M525.4,166.7l-1.9,1.1c0.6,0,1.1,0.2,1.7,0.2c0.2,0,0.9-0.2,1.1-0.2l1.7-1.1H525.4z
						 M556.2,37.3c-0.4-0.2-1.1-0.6-1.5-0.9l-29.3,17.3h2.6L556.2,37.3z M556.9,129.8c7.8-8,12.7-18.8,12.7-30.8s-5-23.1-12.7-31.1
						L526,99L556.9,129.8z M528.8,29.9l-1.7,0.9h2.8l1.3-0.6C530.3,30.2,529.7,29.9,528.8,29.9z M567.2,144.3h-2.8l-37.3,21.6h2.8
						L567.2,144.3z M529.9,166.7l-1.7,1.1c1.1,0,1.9-0.2,3-0.2l1.5-0.9L529.9,166.7L529.9,166.7z M558.8,38.6
						c-0.4-0.2-1.1-0.6-1.5-0.9l-27.4,16h2.8L558.8,38.6z M532.9,30.2l-1.1,0.6h2.6l0.6-0.2C534.4,30.6,533.6,30.2,532.9,30.2z
						 M569.6,145.5v-1.3H569l-37.1,21.6h2.6L569.6,145.5z M534.6,166.7l-1.1,0.6c1.3-0.2,2.4-0.2,3.7-0.4v-0.2L534.6,166.7
						L534.6,166.7z M561,39.9c-0.4-0.2-0.9-0.6-1.3-0.9l-25,14.7h2.6L561,39.9z M535.1,54.5l0.2,0.2l0.2-0.2H535.1z M535.1,143h1.3
						l0.9-0.4C536.6,142.7,535.7,142.7,535.1,143z M569.6,148.1v-1.5l-33.2,19.2h2.8L569.6,148.1z M537.4,54.5l-0.6,0.4
						c0.6,0.2,1.1,0.4,1.7,0.6l1.5-1.1L537.4,54.5L537.4,54.5z M569.6,29.9h-31.9c1.7,0.2,3.2,0.4,5,0.9h27L569.6,29.9L569.6,29.9z
						 M542.6,166.7c-1.7,0.4-3.2,1.1-5,1.3h31.9v-1.3H542.6z M557.5,132l-4.1,2.4c-3.5,2.8-7.3,5-11.4,6.7l-3.7,1.9h2.8l17.5-10.1
						L557.5,132z M563.3,41.2l-1.3-0.6l-22.9,13.2h2.8L563.3,41.2z M542,54.5l-2.2,1.5c0.6,0.2,1.1,0.2,1.7,0.4l3.2-1.9H542z
						 M569.6,150.9v-1.7l-28.5,16.6h1.3c0.9-0.2,1.9-0.6,2.8-0.9L569.6,150.9z M546.7,54.5c-1.3,0.9-2.8,1.5-4.1,2.4
						c0.4,0.2,1.1,0.6,1.5,0.9l5.2-3.2h-2.6V54.5z M559.2,133.7L543,143h2.6l14.7-8.4L559.2,133.7z M565.5,42.7
						c-0.4-0.2-0.9-0.6-1.3-0.9l-20.3,11.9h2.8L565.5,42.7z M551.2,54.5l-6,3.7c0.4,0.2,1.1,0.4,1.5,0.6c2.4-1.5,5-2.8,7.3-4.3
						H551.2z M546.3,32.1c8.6,2.6,16.6,6.7,23.3,12.3V32.1H546.3z M569.6,153.3c-6.7,5.6-14.7,9.9-23.3,12.5h23.3V153.3z M556,54.5
						l-8.4,5c0.4,0.2,1.1,0.6,1.5,0.9l9.7-5.8H556V54.5z M561,135.4l-13.4,7.5h2.8l11.6-6.7L561,135.4z M567.4,44.2
						c-0.4-0.2-0.9-0.6-1.3-0.9l-17.5,10.4h2.6L567.4,44.2z M568.9,152.2l-19.2,11.2C556.6,160.9,563.3,157,568.9,152.2z
						 M560.7,54.5L550,60.8c0.4,0.2,0.9,0.6,1.3,0.9l12.1-7.1h-2.7V54.5z M565.3,54.5l-13.2,7.8c0.4,0.2,0.6,0.6,1.1,0.9l14.9-8.6
						L565.3,54.5L565.3,54.5z M562.7,137.1l-10.4,5.8h2.6l8.8-5L562.7,137.1z M569.4,45.7c-0.4-0.2-0.6-0.6-1.1-0.9l-15.1,8.8h2.8
						L569.4,45.7z M563.3,60.1l3.7-3.7l-13,7.4c0.4,0.2,0.6,0.9,1.1,1.1L563.3,60.1z M556.9,66.4l3.7-3.7l-4.7,2.8
						C556.2,65.7,556.4,66,556.9,66.4z M564.4,138.6l-7.5,4.3h2.8l5.8-3.2L564.4,138.6z M569.6,61.9v-1.5L557.7,67v0.2
						c0.2,0.2,0.6,0.4,0.9,0.9L569.6,61.9z M569.6,122.3l-9.5,5.4c-0.9,0.9-1.5,1.9-2.4,2.8v0.2l11.9-6.7V122.3z M569.6,48.5v-1.7
						L558,53.7h2.6L569.6,48.5z M569.6,125.1l-11,6.3l0.9,1.1l10.1-5.8V125.1z M569.6,64.7V63l-10.4,6c0.2,0.4,0.6,0.6,0.9,1.1
						L569.6,64.7z M569.6,127.6l-9.3,5.4l0.9,1.1l8.4-4.7L569.6,127.6L569.6,127.6z M569.6,59.3v-1.7l-5.4,3.2l-3.7,3.7L569.6,59.3z
						 M569.6,67.3v-1.5l-8.8,5c0.2,0.4,0.6,0.6,0.9,1.1L569.6,67.3z M566.1,140.4l-4.5,2.6h2.8l2.6-1.5L566.1,140.4z M569.6,119.7
						l-6,3.5c-0.6,0.9-1.1,1.7-1.7,2.6l7.8-4.5L569.6,119.7L569.6,119.7z M569.6,130.4l-7.5,4.3l0.9,1.1l6.7-3.9v-1.5H569.6z
						 M569.6,70.1v-1.7l-7.3,4.3c0.2,0.4,0.4,0.6,0.6,1.1L569.6,70.1z M569.6,51.1v-1.5l-7.1,4.1h2.8L569.6,51.1z M569.6,72.6v-1.5
						l-6,3.5c0.2,0.4,0.4,0.6,0.6,1.1L569.6,72.6z M569.6,133l-5.8,3.5l0.9,1.1l5-2.8V133H569.6z M569.6,75.4v-1.7l-5,2.8l0.6,1.3
						L569.6,75.4z M569.6,116.9l-3.9,2.2c-0.4,0.9-0.6,1.7-1.1,2.4l5-2.8V116.9z M569.6,135.8l-4.3,2.4l1.1,1.1l3.2-1.9V135.8z
						 M569.6,78v-1.5l-3.9,2.2c0.2,0.4,0.4,0.6,0.6,1.1L569.6,78z M566.3,143h2.4l-0.9-0.9L566.3,143z M569.6,114.3l-2.2,1.1
						c-0.2,0.6-0.6,1.5-0.9,2.2l3-1.7v-1.6H569.6z M569.6,56.5v-1.1l-2.8,2.6L569.6,56.5z M569.6,80.8v-1.7l-2.8,1.7
						c0.2,0.4,0.2,0.6,0.4,1.1L569.6,80.8z M569.6,138.4l-2.6,1.5l1.1,0.9l1.5-0.6V138.4z M569.6,53.7v-1.5l-2.4,1.5H569.6z
						 M569.6,83.4v-1.5l-1.9,1.1c0.2,0.4,0.2,0.9,0.4,1.3L569.6,83.4z M569.6,111.5l-1.1,0.6l-0.6,1.9l1.7-0.9L569.6,111.5
						L569.6,111.5z M569.6,86.2v-1.7l-1.1,0.6c0.2,0.4,0.2,0.9,0.4,1.3L569.6,86.2z M568.7,141.7l0.9,0.6v-1.1L568.7,141.7z
						 M569.6,108.9h-0.2c-0.2,0.6-0.2,1.1-0.4,1.7l0.6-0.2L569.6,108.9L569.6,108.9z M569.6,88.8v-1.5l-0.4,0.2
						c0.2,0.4,0.2,0.9,0.2,1.3H569.6z M570.4,32.1v13.4c1.3,1.1,2.6,2.2,3.9,3.5l17-16.8h-20.9V32.1z M570.4,46.8v1.1l0.9-0.4
						C571.1,47.2,570.7,47,570.4,46.8z M572,48.1l-1.5,0.9v1.5l2.6-1.3C572.6,48.7,572.4,48.3,572,48.1z M570.4,51.5v1.3l3-2.8
						L570.4,51.5z M574.5,54.5l-4.1,2.4v1.7l6.9-4.1C577.3,54.5,574.5,54.5,574.5,54.5z M570.4,54.5v1.3c0.6-0.4,1.5-0.9,2.2-1.3
						H570.4z M578.6,55l-8.2,4.7v1.5l9.1-5.2C579.3,55.6,578.9,55.4,578.6,55z M580.1,56.9l-9.7,5.4V64l10.4-6
						C580.6,57.5,580.4,57.3,580.1,56.9z M581.4,58.8l-11,6.3v1.5l11.9-6.7C582.1,59.5,581.7,59.3,581.4,58.8z M582.7,60.8
						l-12.3,6.9v1.7l13.2-7.5C583.4,61.4,583,61.2,582.7,60.8z M584,62.7l-13.6,7.8V72l14.2-8.2C584.5,63.4,584.2,63.2,584,62.7z
						 M585.3,64.7l-14.9,8.4v1.7L586,66L585.3,64.7z M586.4,66.8l-16,9.1v1.5l16.6-9.5C586.8,67.5,586.6,67.3,586.4,66.8z
						 M587.5,68.8l-17,9.7v1.7L588,70.1C587.7,69.6,587.7,69.2,587.5,68.8z M588.3,70.9l-17.9,10.4v1.5L589,72.2L588.3,70.9z
						 M589.2,73.1l-18.8,10.8v1.7l19.4-11.2L589.2,73.1z M590.1,75.2l-19.6,11.4v1.5l20.3-11.6L590.1,75.2z M590.9,77.6l-20.5,11.6
						V91l20.9-12.1C591.1,78.5,591.1,78,590.9,77.6z M591.6,79.8l-21.1,12.3v1.5L592,81.3C591.8,80.8,591.8,80.2,591.6,79.8z
						 M592.2,82.1l-21.8,12.5v1.7l22.2-12.7C592.7,83.2,592.4,82.6,592.2,82.1z M592.9,84.5l-22.4,12.9V99l22.6-13
						C593.1,85.6,592.9,84.9,592.9,84.5z M593.3,86.9L570.4,100v1.7l23.1-13.4C593.5,88,593.3,87.3,593.3,86.9z M593.7,89.5
						l-23.3,13.4v1.5L593.7,91V89.5z M594,92.1l-23.5,13.4v1.7l23.7-13.6C594.2,93.1,594,92.5,594,92.1z M594.2,94.6l-23.7,13.6v1.5
						l23.7-13.6V94.6z M594.2,97.2l-23.7,13.6v1.7l23.7-13.8V97.2z M594.2,99.8l-23.7,13.8v1.5l23.7-13.6V99.8z M594.2,102.6
						l-23.7,13.6v1.7l23.7-13.6V102.6z M594,105.4L570.4,119v1.5l23.3-13.4C593.7,106.5,594,106.1,594,105.4z M593.5,108.2
						l-23.1,13.4v1.7l22.9-13.4C593.3,109.3,593.5,108.9,593.5,108.2z M593.1,111.3l-22.6,13.2v1.5l22.4-12.9
						C593.1,112.3,592.9,111.9,593.1,111.3z M592.4,114.3l-22,12.7v1.7l21.6-12.5C592.2,115.6,592.2,114.9,592.4,114.3z
						 M591.8,117.5l-21.4,12.3v1.5l20.7-11.9L591.8,117.5z M590.7,120.7l-20.3,11.6v1.7l19.6-11.2
						C590.3,122.3,590.5,121.4,590.7,120.7z M589.4,124.2l-19,11v1.5l18.1-10.4C588.8,125.7,589.2,124.8,589.4,124.2z M587.9,127.9
						l-17.5,9.9v1.7l16.4-9.5C587.3,129.4,587.5,128.5,587.9,127.9z M586,131.5l-15.5,9.1v1.5l14.2-8.2
						C585.1,133,585.5,132.4,586,131.5z M571.3,145.5l-0.9,0.4v1.5l1.7-0.9L571.3,145.5z M573.7,147.9l-0.6-0.6l-2.6,1.3v1.7
						l2.2-1.3L573.7,147.9z M591.4,165.8l-17-17c-1.3,1.3-2.6,2.4-3.9,3.5v13.6h20.9V165.8z M581.9,138.2c0.6-0.9,1.1-1.7,1.7-2.6
						l-12.7,7.3h2.8L581.9,138.2z M576.5,52.6c-0.2-0.4-0.9-0.6-1.1-1.1l-3.7,2.2h2.8L576.5,52.6z M573.7,144.3l-1.5,0.9l1.1,0.9
						l3.2-1.7L573.7,144.3L573.7,144.3z M574.3,50.4l-1.1,1.1l1.5-0.9L574.3,50.4z M574.3,147.3l1.9-1.9l-2.4,1.3L574.3,147.3z
						 M575.2,49.8c1.3,1.3,2.4,2.6,3.5,3.9h15.5V32.1h-1.3L575.2,49.8z M578.6,144.3c-1.1,1.3-2.2,2.4-3.5,3.7l17.7,17.9h1.3v-21.6
						L578.6,144.3L578.6,144.3z M578.2,143c0.9-0.9,1.7-1.7,2.4-2.8l-5,2.8H578.2z M577.3,53.7l-0.2-0.4l-0.6,0.4H577.3z
						 M579.7,54.5c7.3,9.1,12.3,20.1,14.5,31.9V54.5H579.7z M594.2,111.3c-2.2,11.9-7.1,22.6-14.5,31.7h14.5V111.3z M594.2,30.8
						v-0.2l-0.2,0.2H594.2z M594,166.7l0.2,0.4v-0.4H594z"/>
					<path class="st2" d="M741.9,32.1h-11.6v133.7h12.1v0.9h-11.9l8.8,12.1l-1.1,0.4l-8-11v30.6H729v-32.1h-20.9l17,23.5l-0.9,0.6
						L707.4,168v30.8h-0.9v-32.1H631v32.1h-1.3v-32.1h-21.6v32.1h-0.9v-32.1H593v-0.9h14.2V32.1h-16.6v-1.3h16.6l-6.5-8.6l0.9-0.6
						l5.6,7.5V1.5h0.9v29.1l0.4,0.2h1.3h1.9h2.8h15.1l-19-26.3l0.9-0.6l18.3,25.2V1.5h1.3v29.1l0.2,0.2h75.3V1.5h0.9v29.3H729V1.5
						h1.3v29.3h11.6L741.9,32.1L741.9,32.1z M608.6,32.7l-0.4,0.2v1.5l1.3-0.6L608.6,32.7z M610.1,34.7l-1.9,1.1v1.5l2.6-1.5
						L610.1,34.7z M611.4,36.6l-3.2,1.7v1.5l4.1-2.2L611.4,36.6z M612.7,38.6l-4.5,2.6v1.5l5.4-3L612.7,38.6z M614.2,40.3l-6,3.5
						v1.5l6.9-3.9L614.2,40.3z M615.5,42.2l-7.3,4.3V48l8.2-4.7L615.5,42.2z M617,44.2l-8.8,5v1.5l9.5-5.4L617,44.2z M618.3,46.1
						l-10.1,5.8v1.5l11-6.3L618.3,46.1z M619.6,47.8c-3.9,2.2-7.5,4.5-11.4,6.7V56l12.3-6.9L619.6,47.8z M621.1,49.8l-12.9,7.5v1.5
						l13.8-8L621.1,49.8z M622.4,51.7l-14.2,8.2v1.5l15.1-8.6L622.4,51.7z M623.9,53.7l-15.7,9.1v1.5l16.4-9.5L623.9,53.7z
						 M625.2,55.6l-17,9.7v1.5l17.9-10.1L625.2,55.6z M626.7,57.3l-18.5,10.8v1.5l19.2-11.2L626.7,57.3z M628,59.3l-19.8,11.4v1.5
						l20.7-11.9L628,59.3z M629.8,61.9l-0.4-0.6l-21.1,12.3V75l21.6-12.5L629.8,61.9L629.8,61.9z M629.8,63.6l-21.6,12.5v1.5
						l21.6-12.5V63.6z M629.8,66.4l-21.6,12.5v1.5l21.6-12.5V66.4z M629.8,69l-21.6,12.5V83l21.6-12.5V69z M629.8,71.8l-21.6,12.5
						v1.5l21.6-12.5V71.8z M629.8,74.4l-21.6,12.5v1.5l21.6-12.5V74.4z M629.8,77.2l-21.6,12.5v1.5l21.6-12.5V77.2z M629.8,79.8
						l-21.6,12.5v1.5l21.6-12.5V79.8z M629.8,82.6l-21.6,12.5v1.5l21.6-12.5V82.6z M629.8,85.2l-21.6,12.5v1.5l21.6-12.5V85.2z
						 M629.8,88l-21.6,12.5v1.5l21.6-12.5V88z M629.8,90.5L608.2,103v1.5L629.8,92V90.5z M629.8,93.3l-21.6,12.5v1.5l21.6-12.5V93.3
						z M629.8,95.9l-21.6,12.5v1.5l21.6-12.5V95.9z M629.8,98.7l-21.6,12.5v1.5l21.6-12.5V98.7z M629.8,101.3l-21.6,12.5v1.5
						l21.6-12.5V101.3z M629.8,104.1l-21.6,12.5v1.5l21.6-12.5V104.1z M629.8,106.7l-21.6,12.5v1.5l21.6-12.5V106.7z M629.8,109.5
						L608.2,122v1.5l21.6-12.5V109.5z M629.8,112.1l-21.6,12.5v1.5l21.6-12.5V112.1z M629.8,114.9l-21.6,12.5v1.5l21.6-12.5V114.9z
						 M629.8,117.5L608.2,130v1.5l21.6-12.5V117.5z M629.8,120.3l-21.6,12.5v1.5l21.6-12.5V120.3z M629.8,122.9l-21.6,12.5v1.5
						l21.6-12.5V122.9z M629.8,125.7l-21.6,12.5v1.5l21.6-12.5V125.7z M629.8,128.3l-21.6,12.5v1.5l21.6-12.5V128.3z M629.8,131.1
						l-21.6,12.5v1.5l21.6-12.5V131.1z M629.8,133.7l-21.6,12.5v1.5l21.6-12.5V133.7z M629.8,136.5L608.2,149v1.5l21.6-12.5V136.5z
						 M629.8,139.1l-21.6,12.5v1.5l21.6-12.5V139.1z M629.8,141.9l-21.6,12.5v1.5l21.6-12.5V141.9z M629.8,144.5L608.2,157v1.5
						l21.6-12.5V144.5z M629.8,147.3l-21.6,12.5v1.5l21.6-12.5V147.3z M629.8,149.9l-21.6,12.5v1.5l21.6-12.5V149.9z M629.8,154.2
						v-1.5l-21.6,12.5v0.6h1.7L629.8,154.2z M609.9,32.1l-0.4,0.2l0.9,1.1l2.4-1.3H609.9z M614.7,32.1L611,34l0.9,1.3l5.6-3.2H614.7
						z M629.8,156.8v-1.5l-17.9,10.6h2.8L629.8,156.8z M619.4,32.1l-7.1,3.9l0.9,1.1l8.8-5H619.4z M623.9,32.1l-10.1,5.8
						c0.2,0.4,0.4,0.6,0.6,1.1l12.3-6.9C626.7,32.1,623.9,32.1,623.9,32.1z M629.8,32.7v-0.6h-1.1l-13.6,7.8L616,41L629.8,32.7z
						 M629.8,35.5V34l-13.2,7.8l0.6,1.1L629.8,35.5z M629.8,159.6v-1.5l-13.2,7.8h2.6L629.8,159.6z M629.8,38.1v-1.5l-11.9,6.9
						l0.9,1.1L629.8,38.1z M629.8,40.9v-1.5l-10.6,6l0.9,1.1L629.8,40.9z M629.8,43.5V42l-9.1,5.4l0.9,1.1L629.8,43.5z M629.8,162.2
						v-1.5l-8.6,5.2h2.8L629.8,162.2z M629.8,46.3v-1.5l-7.8,4.5l0.9,1.1L629.8,46.3z M629.8,48.9v-1.5l-6.3,3.7l0.6,1.3L629.8,48.9
						z M629.8,51.7v-1.5l-5,2.8l0.9,1.1L629.8,51.7z M629.8,165v-1.5l-3.9,2.4h2.6L629.8,165z M629.8,54.3v-1.5l-3.7,2.2l0.9,1
						L629.8,54.3z M629.8,57.1v-1.5l-2.2,1.3l0.9,1.1L629.8,57.1z M629.8,59.7v-1.5l-0.9,0.6l0.9,1.1V59.7z M631.5,33l-0.4,0.4v1.5
						l1.3-0.6L631.5,33z M632.8,34.9l-1.7,1.1v1.7l2.6-1.7L632.8,34.9z M634.3,36.8l-3.2,1.9v1.5l3.9-2.4L634.3,36.8z M635.6,38.8
						l-4.5,2.6v1.7l5.4-3.2L635.6,38.8z M636.9,40.7l-5.8,3.5v1.5l6.7-3.9L636.9,40.7z M638.4,42.4l-7.3,4.3v1.7l8.2-5L638.4,42.4z
						 M639.7,44.4l-8.6,5.2v1.5l9.5-5.6L639.7,44.4z M641.2,46.3l-10.1,5.8v1.7l11-6.5L641.2,46.3z M642.5,48.3L631.1,55v1.5
						l12.3-7.1L642.5,48.3z M644,50l-12.9,7.5v1.7l13.6-8L644,50z M646.1,53l-0.9-1.1L631,60.3v1.1l0.2,0.2L646.1,53z M705.9,165.8
						l-0.2-0.4h-0.2l-0.6-0.9h0.2l-0.9-1.1l-0.6-0.6v-0.2l-0.6-1.1l-0.2,0.2l-0.4-0.9l-0.9-1.1l-0.6-0.9h0.2l-0.9-1.1l-0.6-0.9
						l-0.9-1.1l-0.6-0.6l0.2-0.2l-0.9-1.1l-0.6-0.6L696,152l-0.2,0.2l-0.4-0.9l-0.9-1.1l-0.6-0.9h0.2l-0.9-1.1H693l-0.4-0.9
						l-0.9-1.1l-0.6-0.6l0.2-0.2l-0.9-1.1l-0.6-0.6l-0.6-1.3l-0.2,0.2l-0.4-0.9l-0.9-1.1l-0.6-0.9l-0.6-1.1h-0.2l-0.4-0.9l-0.9-1.1
						l-0.6-0.6l0.2-0.2l-0.9-1.1l-0.6-0.6l-0.9-1.1l-0.4-0.9l-0.9-1.1l-0.6-0.9l-0.6-1.1h-0.2l-0.4-0.9l-0.9-1.1l-0.6-0.6l-0.6-1.1
						l-0.6-0.9l-0.9-1.1l-0.6-0.9h0.2l-0.9-1.1l-0.6-0.9l-0.9-1.1l-0.4-0.6v0.3l-0.9-1.1l-0.6-0.6l-0.6-1.1H670l-0.4-0.9l-0.9-1.1
						l-0.6-0.9h0.2l-0.9-1.1l-0.6-0.9l-0.9-1.1l-0.4-0.6l-0.9-1.3l-0.6-0.6l-0.6-1.1h-0.2l-0.4-0.9l-0.9-1.1l-0.6-0.9l-0.6-1.1
						l-0.6-0.9l-0.9-1.1l-0.4-0.6l-0.9-1.1l-0.6-0.9l-0.9-1.1L656,96l-0.9-1.1l-0.4-0.6L631.8,63v102.4h74.1V165.8z M647.4,55
						l-0.9-1.1l-14.9,8.6l0.9,1.1L647.4,55z M631.9,32.1l74.6,101.8V32.1H631.9z M649,56.9l-0.9-1.1l-14.9,8.6l0.6,1.1L649,56.9z
						 M650.2,58.8l-0.9-1.1l-14.9,8.6l0.9,1.1L650.2,58.8z M651.5,60.8l-0.6-1.3l-15.1,8.6l0.9,1.3L651.5,60.8z M653.1,62.5
						l-0.9-1.1L637.3,70l0.9,1.1L653.1,62.5z M654.3,64.4l-0.6-1.1L638.6,72l0.9,1.1L654.3,64.4z M655.9,66.4l-0.9-1.1l-14.9,8.6
						l0.6,1.1L655.9,66.4z M657.1,68.3l-0.9-1.1l-14.9,8.6l0.9,1.1L657.1,68.3z M658.7,70.1l-0.9-1.1l-14.9,8.6l0.6,1.3L658.7,70.1z
						 M660,72l-0.9-1.1l-14.9,8.6l0.9,1.1L660,72z M661.2,73.9l-0.6-1.1l-15.1,8.6l0.9,1.1L661.2,73.9z M662.8,75.9l-0.9-1.1
						L647,83.4l0.9,1.1L662.8,75.9z M664.1,77.8l-0.9-1.3l-14.9,8.8l0.9,1.1L664.1,77.8z M665.6,79.5l-0.9-1.1L649.8,87l0.6,1.1
						L665.6,79.5z M666.9,81.5l-0.9-1.1L651.1,89l0.9,1.1L666.9,81.5z M668.1,83.4l-0.6-1.1L652.6,91l0.6,1.1L668.1,83.4z
						 M669.7,85.4l-0.9-1.1l-14.9,8.6l0.9,1.1L669.7,85.4z M671,87.1l-0.6-1.1l-15.1,8.6l0.9,1.3L671,87.1z M672.5,89l-0.9-1.1
						l-14.9,8.6l0.9,1.1L672.5,89z M673.8,91l-0.9-1.1L658,98.5l0.9,1.1L673.8,91z M675.3,92.9l-0.9-1.1l-14.9,8.6l0.6,1.1
						L675.3,92.9z M676.6,94.9l-0.9-1.3l-14.9,8.8l0.9,1.1L676.6,94.9z M677.9,96.6l-0.6-1.1l-15.1,8.6l0.9,1.1L677.9,96.6z
						 M679.4,98.5l-0.9-1.1l-14.9,8.6l0.9,1.1L679.4,98.5z M680.7,100.5l-0.6-1.1L665,108l0.9,1.1L680.7,100.5z M682.2,102.4
						l-0.9-1.1l-14.9,8.6l0.6,1.1L682.2,102.4z M683.5,104.1l-0.9-1.1l-14.9,8.6l0.9,1.3L683.5,104.1z M685,106.1l-0.9-1.1
						l-14.9,8.6l0.6,1.1L685,106.1z M686.3,108l-0.9-1.1l-14.9,8.6l0.9,1.1L686.3,108z M687.6,110l-0.6-1.1l-15.1,8.6l0.9,1.1
						L687.6,110z M689.1,111.9l-0.9-1.3l-14.9,8.8l0.9,1.1L689.1,111.9z M690.4,113.6l-0.9-1.1l-14.9,8.6l0.9,1.1L690.4,113.6z
						 M691.9,115.6l-0.9-1.1l-14.9,8.6l0.6,1.1L691.9,115.6z M693.2,117.5l-0.9-1.1l-14.9,8.6l0.9,1.1L693.2,117.5z M694.5,119.4
						l-0.6-1.1l-14.9,8.6l0.6,1.1L694.5,119.4z M696,121.4l-0.9-1.3l-14.9,8.6l0.9,1.3L696,121.4z M697.3,123.1l-0.6-1.1l-15.1,8.6
						l0.9,1.1L697.3,123.1z M698.8,125.1l-0.9-1.1l-14.9,8.6l0.9,1.1L698.8,125.1z M700.1,127l-0.9-1.1l-14.9,8.6l0.9,1.1L700.1,127
						z M701.6,128.9l-0.9-1.1l-14.9,8.6l0.6,1.1L701.6,128.9z M702.9,130.7l-0.9-1.1l-14.9,8.6l0.9,1.3L702.9,130.7z M704.2,132.6
						l-0.6-1.1l-15.1,8.6c0.2,0.4,0.6,0.6,0.9,1.1L704.2,132.6z M705.7,134.5l-0.9-1.1l-14.9,8.6l0.9,1.1L705.7,134.5z M706.5,136.7
						v-1.1l-0.4-0.2l-14.9,8.6l0.9,1.1L706.5,136.7z M706.5,139.5V138l-13.8,8l0.6,1.1L706.5,139.5z M706.5,142.1v-1.5l-12.5,7.1
						l0.9,1.1L706.5,142.1z M706.5,144.9v-1.5l-11,6.3l0.6,1.1L706.5,144.9z M706.5,147.5V146l-9.7,5.6l0.9,1.1L706.5,147.5z
						 M706.5,150.3v-1.5l-8.4,4.7l0.9,1.1L706.5,150.3z M706.5,152.9v-1.5l-6.9,3.9l0.9,1.3C702.4,155.5,704.6,154,706.5,152.9z
						 M706.5,155.7v-1.5l-5.6,3l0.9,1.1L706.5,155.7z M706.5,158.3v-1.5l-4.1,2.4l0.6,1.1L706.5,158.3z M706.5,161.1v-1.5l-2.8,1.5
						l0.9,1.1L706.5,161.1z M706.5,163.7v-1.5l-1.3,0.9l0.6,1.1L706.5,163.7z M729,32.1h-2.6l-19,10.8v1.5L729,32.1z M721.6,32.1
						l-14.2,8.2v1.5l17-9.7H721.6z M717.1,32.1l-9.7,5.4V39l12.3-6.9H717.1z M712.4,32.1l-5,2.8v1.5l7.8-4.3H712.4z M707.8,32.1
						h-0.4v1.5l3-1.5H707.8z M729,34.7v-1.5l-21.6,12.5v1.5L729,34.7z M729,37.5v-1.7l-21.6,12.5v1.5L729,37.5z M729,40.1v-1.5
						l-21.6,12.5v1.5L729,40.1z M729,42.9v-1.7l-21.6,12.5v1.5L729,42.9z M729,45.5V44l-21.6,12.5V58L729,45.5z M729,48.3v-1.7
						l-21.6,12.5v1.5L729,48.3z M729,50.9v-1.5l-21.6,12.5v1.5L729,50.9z M729,53.7V52l-21.6,12.5V66L729,53.7z M729,56.3v-1.5
						l-21.6,12.5v1.5L729,56.3z M729,59.1v-1.7l-21.6,12.5v1.5L729,59.1z M729,61.6v-1.5l-21.6,12.5v1.5L729,61.6z M729,64.4v-1.7
						l-21.6,12.5v1.5L729,64.4z M729,67v-1.5L707.4,78v1.5L729,67z M729,69.8v-1.7l-21.6,12.5v1.5L729,69.8z M729,72.4v-1.5
						l-21.6,12.5v1.5L729,72.4z M729,75.2v-1.7L707.4,86v1.5L729,75.2z M729,77.8v-1.5l-21.6,12.5v1.5L729,77.8z M729,80.6v-1.7
						l-21.6,12.5v1.5L729,80.6z M729,83.2v-1.5l-21.6,12.5v1.5L729,83.2z M729,86v-1.7l-21.6,12.5v1.5L729,86z M729,88.6v-1.5
						l-21.6,12.5v1.5L729,88.6z M729,91.4v-1.7l-21.6,12.5v1.5L729,91.4z M729,94v-1.5L707.4,105v1.5L729,94z M729,96.8v-1.7
						l-21.6,12.5v1.5L729,96.8z M729,99.4v-1.5l-21.6,12.5v1.5L729,99.4z M729,102.2v-1.7L707.4,113v1.5L729,102.2z M729,104.8v-1.5
						l-21.6,12.5v1.5L729,104.8z M729,107.6v-1.7l-21.6,12.5v1.5L729,107.6z M729,110.2v-1.5l-21.6,12.5v1.5L729,110.2z M729,113
						v-1.7l-21.6,12.5v1.5L729,113z M729,115.6v-1.5l-21.6,12.5v1.5L729,115.6z M729,118.4v-1.7l-21.6,12.5v1.5L729,118.4z M729,121
						v-1.5L707.4,132v1.5L729,121z M729,123.8V122l-21.6,12.5v0.6l0.6,0.6L729,123.8z M707.6,137.1l-0.2,0.2v1.5l1.1-0.4
						L707.6,137.1z M708.9,139.1l-1.5,0.9v1.5l2.4-1.3L708.9,139.1z M710.4,141l-3,1.7v1.5l3.9-2.2L710.4,141z M711.7,143l-4.3,2.4
						v1.5l5.2-2.8L711.7,143z M713.2,144.9l-5.8,3.2v1.5l6.5-3.7L713.2,144.9z M714.5,146.6l-7.1,4.1v1.5l8-4.5L714.5,146.6z
						 M715.8,148.6l-8.4,5v1.5l9.3-5.4L715.8,148.6z M717.3,150.5l-9.9,5.6v1.5l10.8-6L717.3,150.5z M718.6,152.4l-11.2,6.5v1.5
						l12.1-6.9L718.6,152.4z M720.1,154.2l-12.7,7.3v1.5l13.4-7.5L720.1,154.2z M722.3,157.2l-0.9-1.1l-14,8.2v1.5h0.2L722.3,157.2z
						 M729,126.3v-1.5l-20.5,11.9l0.9,1.1L729,126.3z M723.6,159.1L723,158l-13.4,7.8h2.8L723.6,159.1z M729,129.2v-1.7l-19,11.2
						l0.6,1.1L729,129.2z M729,131.7v-1.5l-17.7,10.1l0.9,1.3L729,131.7z M729,134.5v-1.7l-16.2,9.5l0.6,1.1L729,134.5z M729,137.1
						v-1.5l-14.9,8.6l0.9,1.1L729,137.1z M725.1,161.1l-0.9-1.1l-9.9,5.8h2.6L725.1,161.1z M729,139.9v-1.7l-13.6,8l0.9,1.1
						L729,139.9z M729,142.5V141l-12.1,7.1l0.9,1.1L729,142.5z M729,145.3v-1.7l-10.8,6.3l0.9,1.3L729,145.3z M726.4,163l-0.9-1.1
						l-6.7,3.9h2.8L726.4,163z M729,147.9v-1.5l-9.3,5.4l0.6,1.1L729,147.9z M729,150.7V149l-8,4.7l0.9,1.1
						C724.2,153.3,726.6,152.2,729,150.7z M729,153.3v-1.5l-6.7,3.9l0.9,1.1L729,153.3z M727.9,165l-0.9-1.3l-3.5,2.2h2.8L727.9,165
						z M729,156.1v-1.7l-5.2,3.2l0.9,1.1L729,156.1z M729,158.7v-1.5l-3.9,2.2l0.9,1.1C727,159.8,727.9,159.3,729,158.7z M729,161.5
						v-1.7c-0.9,0.4-1.5,1.1-2.4,1.5l0.6,1.1L729,161.5z M729,164.1v-1.5l-1.1,0.6l0.9,1.1L729,164.1z"/>
				</g>
			</g>
		</g>
	</g>
</g>
</svg>
