<?xml version="1.0" encoding="utf-8"?>
<!-- Generator: Adobe Illustrator 21.0.0, SVG Export Plug-In . SVG Version: 6.00 Build 0)  -->
<svg version="1.1" id="Layer_1" xmlns="http://www.w3.org/2000/svg" xmlns:xlink="http://www.w3.org/1999/xlink" x="0px" y="0px"
	 viewBox="0 0 587 121" style="enable-background:new 0 0 587 121;" xml:space="preserve">
<style type="text/css">
	.st0{fill:none;stroke:#CECECE;stroke-miterlimit:10;}
	.st1{clip-path:url(#SVGID_2_);}
	.st2{fill:#CECECE;}
</style>
<g>
	<line class="st0" x1="-0.5" y1="120.5" x2="587.6" y2="120.5"/>
	<g>
		<g>
			<defs>
				<rect id="SVGID_1_" x="-129.1" y="-40.5" width="835" height="161"/>
			</defs>
			<clipPath id="SVGID_2_">
				<use xlink:href="#SVGID_1_"  style="overflow:visible;"/>
			</clipPath>
			<g class="st1">
				<g>
					<path class="st2" d="M153.1,32.5h-11.6v21.6h11.6V55h-11.6v19.4h-1.3V54.9H94.9v111.3h39.3v0.9H94.9v32.1H94v-32.1H72.4v32.1
						h-1.3v-32.1H33v-0.9h38.2V54.9H25.9v19.4H25V54.9H8.4V54H25V32.5H8.4v-1.3H25V1.5h0.9v29.8h45.3V1.5h1.3v29.8H94V1.5h0.9v29.8
						h45.3V1.5h1.3v29.8h11.6V32.5z M60.4,32.5L25.9,52.4v1.5L63,32.5H60.4z M55.6,32.5l-29.8,17V51l32.6-18.5H55.6z M50.9,32.5
						L25.9,47v1.5l27.8-16H50.9z M46.3,32.5L25.9,44.2v1.5L49,32.5H46.3z M41.6,32.5l-15.7,9.1v1.5l18.5-10.6H41.6z M37.1,32.5
						l-11.2,6.3v1.5l13.8-7.8H37.1z M32.3,32.5l-6.5,3.7v1.5l9.3-5.2H32.3z M27.6,32.5l-1.7,0.9v1.5l4.5-2.4H27.6z M67.7,32.5h-2.8
						L27.6,54.1h2.8L67.7,32.5z M71.1,32.9v-0.4h-1.5L32.3,54.1h2.8L71.1,32.9z M71.1,35.7V34l-34,20.1h2.6L71.1,35.7z M71.1,38.3
						v-1.5L41.6,54.1h2.8L71.1,38.3z M71.1,41.1v-1.7L46.3,54.1h2.6L71.1,41.1z M71.1,43.7v-1.5L50.9,54.1h2.8L71.1,43.7z
						 M71.1,46.5v-1.7l-15.5,9.3h2.8L71.1,46.5z M71.1,49.1v-1.5l-10.8,6.5H63L71.1,49.1z M71.1,51.9v-1.7l-6.3,3.9h2.8L71.1,51.9z
						 M71.1,54.1V53l-1.5,1.1H71.1z M94,32.5h-1.1L72.4,44.4v1.5L94,33.4V32.5z M88.2,32.5l-15.7,9.1v1.5L91,32.5H88.2z M83.4,32.5
						l-11,6.5v1.5l13.8-8H83.4z M78.9,32.5l-6.5,3.7v1.5l9.1-5.2H78.9z M74.2,32.5l-1.7,1.1v1.5l4.5-2.6H74.2z M94,34.5L72.4,47v1.5
						L94,36V34.5z M94,37.3L72.4,49.8v1.5L94,38.8V37.3z M94,39.8L72.4,52.4v1.5L94,41.4V39.8z M93.8,54.9H91l-18.5,11v1.5
						L93.8,54.9z M89.1,54.9h-2.8l-13.8,8.2v1.5L89.1,54.9z M84.3,54.9h-2.6l-9.3,5.6V62L84.3,54.9z M79.8,54.9H77l-4.5,2.8v1.5
						L79.8,54.9z M75,54.9h-2.6v0.2v1.5C73.3,56.2,74.2,55.4,75,54.9z M94,57.5V56L72.4,68.5V70L94,57.5z M94,60.3v-1.5L72.4,71.3
						v1.5L94,60.3z M94,62.9v-1.5L72.4,73.9v1.5L94,62.9z M94,65.7v-1.5L72.4,76.7v1.5L94,65.7z M94,68.3v-1.5L72.4,79.3v1.5
						L94,68.3z M94,71.1v-1.5L72.4,82.1v1.5L94,71.1z M94,73.7v-1.5L72.4,84.7v1.5L94,73.7z M94,76.5V75L72.4,87.5V89L94,76.5z
						 M94,79.1v-1.5L72.4,90.1v1.5L94,79.1z M94,81.9v-1.5L72.4,92.9v1.5L94,81.9z M94,84.5V83L72.4,95.5V97L94,84.5z M94,87.3v-1.5
						L72.4,98.3v1.5L94,87.3z M94,89.9v-1.5l-21.6,12.5v1.5L94,89.9z M94,92.7v-1.5l-21.6,12.5v1.5L94,92.7z M94,95.3v-1.5
						l-21.6,12.5v1.5L94,95.3z M94,98.1v-1.5l-21.6,12.5v1.5L94,98.1z M94,100.7v-1.5l-21.6,12.5v1.5L94,100.7z M94,103.5V102
						l-21.6,12.5v1.5L94,103.5z M94,106.1v-1.5l-21.6,12.5v1.5L94,106.1z M94,108.9v-1.5l-21.6,12.5v1.5L94,108.9z M94,111.5V110
						l-21.6,12.5v1.5L94,111.5z M94,114.3v-1.5l-21.6,12.5v1.5L94,114.3z M94,116.8v-1.5l-21.6,12.5v1.5L94,116.8z M94,119.6v-1.5
						l-21.6,12.5v1.5L94,119.6z M94,122.2v-1.5l-21.6,12.5v1.5L94,122.2z M94,125v-1.5L72.4,136v1.5L94,125z M94,127.6v-1.5
						l-21.6,12.5v1.5L94,127.6z M94,130.4v-1.5l-21.6,12.5v1.5L94,130.4z M94,133v-1.5L72.4,144v1.5L94,133z M94,135.8v-1.5
						l-21.6,12.5v1.5L94,135.8z M94,138.4v-1.5l-21.6,12.5v1.5L94,138.4z M94,141.2v-1.5l-21.6,12.5v1.5L94,141.2z M94,143.8v-1.5
						l-21.6,12.5v1.5L94,143.8z M94,146.6v-1.5l-21.6,12.5v1.5L94,146.6z M94,149.2v-1.5l-21.6,12.5v1.5L94,149.2z M94,152v-1.5
						L72.4,163v1.5L94,152z M94,154.6v-1.5l-21.6,12.5v0.6h1.7L94,154.6z M94,44.2v-1.5L74.2,54.1H77L94,44.2z M94,157.4v-1.5
						l-17.9,10.4h2.6L94,157.4z M94,46.7v-1.5L78.9,54h2.6L94,46.7z M94,160v-1.5l-13.4,7.8h2.8L94,160z M94,49.6V48l-10.6,6h2.8
						L94,49.6z M94,162.8v-1.5l-8.6,5h2.8L94,162.8z M94,52.1v-1.5l-5.8,3.5H91L94,52.1z M94,165.4v-1.5l-3.9,2.4h2.6L94,165.4z
						 M94,54.1v-0.6l-1.1,0.6H94z M130,32.5L94.9,52.8v1.3h0.6l37.3-21.6H130z M125.5,32.5L94.9,50v1.7l33.2-19.2H125.5z
						 M120.8,32.5L94.9,47.4v1.5l28.7-16.4H120.8z M116.2,32.5L94.9,44.6v1.7l23.9-13.8H116.2z M111.5,32.5L94.9,42v1.5l19.4-11
						H111.5z M106.7,32.5l-11.9,6.7v1.7l14.7-8.4H106.7z M102.2,32.5l-7.3,4.1v1.5l9.9-5.6H102.2z M97.5,32.5l-2.6,1.3v1.7l5.4-3
						H97.5z M94.9,32.5v0.2l0.6-0.2H94.9z M134.8,32.5L97.5,54.1h2.8l37.1-21.6H134.8z M140.2,32.5h-0.9l-37.1,21.6h2.6l35.4-20.7
						L140.2,32.5L140.2,32.5z M140.2,34.7l-33.4,19.4h2.8l30.6-17.9V34.7z M140.2,37.3l-28.7,16.8h2.8l25.9-15.3V37.3z M140.2,40.1
						l-23.9,14h2.6l21.4-12.5L140.2,40.1L140.2,40.1z M140.2,42.6L120.8,54h2.8l16.6-9.9V42.6z M140.2,45.5l-14.7,8.6h2.6l12.1-7.1
						L140.2,45.5L140.2,45.5z M140.2,48l-10.1,6h2.8l7.3-4.5V48z M140.2,50.8l-5.4,3.2h2.6l2.8-1.7L140.2,50.8L140.2,50.8z
						 M139.3,54.1h0.9v-0.6L139.3,54.1z"/>
					<path class="st2" d="M183.5,32.5h-16.6v-1.3h16.6V1.9h1.1v29.3H206V1.9h1.1v29.3h55V1.9h1.1v29.3H285V1.9h0.9v29.3h11.9v1.3
						h-11.9v21.6h11.9V55h-11.9v88.4h16.4v1.3h-16.4v21.6h16.4v0.9h-16.4v32.1H285v-32.1h-21.8v32.1H262v-32.1h-55v32.1h-1v-32.1
						h-21.4v32.1h-1.1v-32.1h-16.4v-0.9h16.4v-21.6h-16.4v-1.3h16.4V111h-14.2v-0.9h14.2V88.6h-16.6v-1.3h16.6V54.9h-16.6V54h16.6
						V32.5z M184.6,44.2v1.5L206,33.2v-0.6h-1.3L184.6,44.2z M184.6,41.6v1.3l17.9-10.4h-2.6L184.6,41.6z M184.6,38.8v1.5l13.2-7.8
						h-2.4L184.6,38.8z M184.6,36.2v1.3l8.6-5h-2.6L184.6,36.2z M184.6,33.4v1.5l3.9-2.4h-2.4L184.6,33.4z M184.6,47v1.3L206,36
						v-1.5L184.6,47z M184.6,49.6v1.5L206,38.6V37L184.6,49.6z M184.6,52.4v1.3L206,41.4v-1.5L184.6,52.4z M184.6,67.2l21.1-12.3
						h-2.6l-18.5,10.8V67.2z M184.6,64.4l16.4-9.5h-2.4l-14,8.2V64.4z M184.6,61.8l11.9-6.9h-2.6l-9.3,5.4L184.6,61.8L184.6,61.8z
						 M184.6,59l7.1-4.1h-2.4l-4.7,2.8L184.6,59L184.6,59z M184.6,56.5l2.6-1.5h-2.6V56.5z M184.6,69.8L206,57.5V56l-21.4,12.5V69.8
						z M184.6,72.6L206,60.1v-1.3l-21.4,12.3V72.6z M184.6,75.2L206,62.9v-1.5l-21.4,12.5V75.2z M184.6,78L206,65.5v-1.3l-21.4,12.3
						V78z M184.6,80.6L206,68.3v-1.5l-21.4,12.5V80.6z M184.6,83.4L206,70.9v-1.3l-21.4,12.3V83.4z M184.6,86L206,73.7v-1.5
						l-21.4,12.5V86z M187.2,87.3l18.8-11V75l-21.4,12.3H187.2z M184.6,102.2L206,89.9v-1.3h-0.4l-20.9,12.3v1.3H184.6z M184.6,99.6
						l19-11h-2.4l-16.6,9.5V99.6z M184.6,96.8l14.5-8.2h-2.6l-11.9,6.9V96.8z M184.6,94.2l9.7-5.6h-2.6l-7.1,4.1L184.6,94.2
						L184.6,94.2z M184.6,91.4l5-2.8h-2.4l-2.6,1.5V91.4z M185,88.6h-0.4v0.2L185,88.6z M184.6,105L206,92.5V91l-21.4,12.5V105z
						 M184.6,107.6L206,95.3v-1.5l-21.4,12.5V107.6z M184.6,110.2h0.4l21-12.3v-1.5l-21.4,12.5V110.2z M184.6,122.5v1.3l21.4-12.3
						V111h-1.7L184.6,122.5z M184.6,119.6v1.5l17.5-10.1h-2.6L184.6,119.6z M184.6,117.1v1.3l12.7-7.3H195L184.6,117.1z
						 M184.6,114.3v1.5l8.2-4.7h-2.6L184.6,114.3z M184.6,111.7v1.3l3.5-1.9h-2.4L184.6,111.7z M184.6,126.5L206,114v-1.3L184.6,125
						V126.5z M184.6,129.1l21.4-12.3v-1.5l-21.4,12.5V129.1z M184.6,131.9l21.4-12.5v-1.3l-21.4,12.3V131.9z M184.6,134.5l21.4-12.3
						v-1.5l-21.4,12.5V134.5z M184.6,137.3l21.4-12.5v-1.3l-21.4,12.3V137.3z M184.6,139.9l21.4-12.3v-1.5l-21.4,12.5V139.9z
						 M184.6,142.7l21.4-12.5v-1.3l-21.4,12.3V142.7z M184.6,154.8v1.3l20.1-11.4h-2.6L184.6,154.8z M184.6,152v1.5l15.3-8.8h-2.4
						L184.6,152z M184.6,149.4v1.3l10.6-6h-2.4L184.6,149.4z M184.6,146.6v1.5l6-3.5H188L184.6,146.6z M184.6,144.7v0.6l1.1-0.6
						H184.6z M184.6,157.4v1.5l21.4-12.5v-1.3L184.6,157.4z M184.6,160.2v1.3l21.4-12.3v-1.5L184.6,160.2z M184.6,162.8v1.5
						l21.4-12.5v-1.3L184.6,162.8z M184.6,165.6v0.6h1.1l20.3-11.6v-1.5L184.6,165.6z M188.1,143.4L206,133v-1.5l-20.3,11.9H188.1z
						 M188.7,54.1L206,43.9v-1.5L186.2,54L188.7,54.1L188.7,54.1z M189.6,110.2l16.4-9.5v-1.5l-18.8,11H189.6z M187.8,166.2h2.6
						l15.5-9.1v-1.5L187.8,166.2z M191.7,87.3l14.2-8.2v-1.5l-16.4,9.7H191.7z M192.8,143.4l13.2-7.8v-1.3l-15.7,9.1H192.8z
						 M193.2,54.1l12.7-7.3v-1.5l-15.1,8.8H193.2z M194.3,110.2l11.6-6.9v-1.5l-14.2,8.4H194.3z M192.4,166.2h2.6l11-6.5v-1.5
						L192.4,166.2z M196.5,87.3l9.5-5.6v-1.3l-11.9,6.9H196.5z M197.5,143.4l8.4-5v-1.5l-11,6.5H197.5z M198,54.1l8-4.7v-1.5
						l-10.6,6.3L198,54.1L198,54.1z M198.8,110.2l7.1-4.1v-1.5l-9.5,5.6H198.8z M197.1,166.2h2.6l6.3-3.7V161L197.1,166.2z
						 M201.2,87.3l4.7-2.8V83l-7.3,4.3H201.2z M202.1,143.4l3.9-2.4v-1.3l-6.3,3.7H202.1z M202.5,54.1l3.5-1.9v-1.5l-5.8,3.5
						L202.5,54.1L202.5,54.1z M203.6,110.2l2.4-1.5v-1.5l-5,3H203.6z M201.9,166.2h2.4l1.7-1.1v-1.3L201.9,166.2z M205.7,87.3
						l0.2-0.2v-1.3l-2.4,1.5H205.7z M206,143.4v-1.1l-1.7,1.1H206z M206,54.1v-0.6l-1.3,0.6H206z M206,110.2V110l-0.2,0.2H206z
						 M207,52.8v1.3h0.2l37.1-21.6H242L207,52.8z M207,50v1.5l32.8-19h-2.6L207,50z M207,47.4v1.5l28-16.4h-2.6L207,47.4z M207,44.6
						v1.5l23.3-13.6H228L207,44.6z M207,42v1.5l18.8-11h-2.6L207,42z M207,39.2v1.5l14-8.2h-2.4L207,39.2z M207,36.4v1.5l9.5-5.4
						h-2.6L207,36.4z M207,33.8v1.5l4.7-2.8h-2.6L207,33.8z M207,87.3h55V54.9h-55V87.3z M207,110.2h1.1l37.1-21.6h-2.4L207,109.5
						V110.2z M207,108.2l33.6-19.6H238l-31,18.1V108.2z M207,105.4l28.9-16.8h-2.4L207,103.9V105.4z M207,102.8l24.4-14.2h-2.6
						L207,101.3V102.8z M207,100l19.6-11.4h-2.4L207,98.5V100z M207,97.4l15.1-8.8h-2.6L207,95.9V97.4z M207,94.6l10.4-6h-2.6
						l-7.8,4.5L207,94.6L207,94.6z M207,91.8l5.6-3.2h-2.4l-3.2,1.9L207,91.8L207,91.8z M208.1,88.6H207v0.6L208.1,88.6z M207,143.4
						h55V111h-55V143.4z M207,165.8v0.4h1.9l37.3-21.6h-2.6L207,165.8z M207,163.2v1.3l34.5-19.8h-2.4L207,163.2z M207,160.4v1.5
						l30-17.3h-2.6L207,160.4z M207,157.8v1.5l25.2-14.7h-2.6L207,157.8z M207,155v1.5l20.5-11.9h-2.4L207,155z M207,152.4v1.5
						l16-9.3h-2.6L207,152.4z M207,149.8v1.3l11.2-6.5h-2.4L207,149.8z M207,147v1.5l6.7-3.9h-2.6L207,147z M207,144.7v1.1l1.9-1.1
						H207z M249.1,32.5h-2.6l-37.3,21.6h2.6L249.1,32.5z M250,88.6h-2.6l-37.1,21.6h2.4L250,88.6z M213.5,166.2l37.3-21.6h-2.4
						l-37.3,21.6H213.5z M216.3,54.1l37.3-21.6h-2.4l-37.3,21.6H216.3z M217.4,110.2l37.3-21.6h-2.6l-37.3,21.6H217.4z M218.2,166.2
						l37.3-21.6H253l-37.3,21.6H218.2z M221.1,54.1l37.3-21.6h-2.6l-37.3,21.6H221.1z M221.9,110.2l37.3-21.6h-2.4l-37.3,21.6H221.9
						z M223,166.2l37.3-21.6h-2.6l-37.3,21.6H223z M225.8,54.1L262,33.2v-0.6h-1.5l-37.3,21.6h2.6V54.1z M226.7,110.2L262,89.7v-1.1
						h-0.6l-37.3,21.6H226.7z M227.5,166.2l34.5-20.1v-1.3l-36.9,21.4L227.5,166.2L227.5,166.2z M230.3,54.1L262,35.7v-1.5l-34,19.9
						H230.3z M231.2,110.2L262,92.5V91l-33.2,19.2H231.2z M232.3,166.2L262,149v-1.5l-32.4,18.8h2.7V166.2z M235.1,54.1l27-15.5V37
						l-29.5,17L235.1,54.1L235.1,54.1z M235.9,110.2L262,95.1v-1.5l-28.7,16.6H235.9z M236.8,166.2l25.2-14.7v-1.3l-27.6,16H236.8z
						 M239.6,54.1l22.4-13v-1.5l-24.8,14.5H239.6z M240.7,110.2L262,97.9v-1.5l-23.9,13.8C238.1,110.2,240.7,110.2,240.7,110.2z
						 M241.5,166.2l20.5-11.9v-1.5l-23,13.4H241.5z M244.3,54.1L262,43.7v-1.3L241.7,54L244.3,54.1L244.3,54.1z M245.2,110.2
						l16.8-9.7V99l-19.2,11.2H245.2z M246.3,166.2L262,157v-1.3l-18.3,10.6h2.6V166.2z M248.9,54.1l13.2-7.5V45l-15.5,9.1H248.9z
						 M250,110.2l12.1-6.9v-1.5l-14.7,8.4H250z M262,159.8v-1.3l-13.6,7.8h2.4L262,159.8z M253.6,54.1l8.4-5v-1.3l-11,6.3H253.6z
						 M254.5,110.2l7.5-4.3v-1.5l-9.9,5.8H254.5z M255.6,166.2l6.5-3.7V161l-9.1,5.2H255.6z M258.4,54.1l3.7-2.2v-1.5l-6.3,3.7
						H258.4z M259.2,110.2l2.8-1.5v-1.5l-5.4,3H259.2z M260.1,166.2l1.9-1.1v-1.5l-4.3,2.6H260.1z M262,54.1v-0.9l-1.5,0.9H262z
						 M262,110.2v-0.4l-0.6,0.4H262z M263.1,44.6v1.3l21.8-12.7v-0.6h-1.1L263.1,44.6z M263.1,41.8v1.5l18.5-10.8H279L263.1,41.8z
						 M263.1,39v1.5l13.8-8h-2.4L263.1,39z M263.1,36.4v1.5l9.3-5.4h-2.6L263.1,36.4z M263.1,33.6v1.5l4.5-2.6H265L263.1,33.6z
						 M263.1,47.2v1.5L284.9,36v-1.5L263.1,47.2z M263.1,49.8v1.5l21.8-12.7v-1.3L263.1,49.8z M263.1,52.6v1.3l21.8-12.5v-1.5
						L263.1,52.6z M263.1,110.2h13.8v0.9h-13.8v32.4h21.8V54.9h-21.8v32.4h13.6v1.3h-13.6V110.2z M263.1,155v1.5l20.3-11.9H281
						L263.1,155z M263.1,152.2v1.5l15.7-9.1h-2.6L263.1,152.2z M263.1,149.6v1.3l11-6.3h-2.4L263.1,149.6z M263.1,146.8v1.5l6.5-3.7
						H267L263.1,146.8z M263.1,144.7v0.9l1.7-0.9H263.1z M284.9,146.4v-1.3l-21.8,12.7v1.3L284.9,146.4z M263.1,161.9l21.8-12.7
						v-1.5l-21.8,12.7V161.9z M263.1,164.5l21.8-12.7v-1.3l-21.8,12.7V164.5z M263.1,166.2h1.7l20.1-11.6v-1.5l-21.8,12.7
						L263.1,166.2L263.1,166.2z M265,54.1h2.6L284.9,44v-1.3L265,54.1z M269.4,166.2l15.5-9.1v-1.3L267,166.2H269.4z M269.8,54.1
						h2.4l12.7-7.3v-1.5L269.8,54.1z M274.1,166.2l10.8-6.3v-1.5l-13.4,7.8H274.1z M274.3,54.1h2.6l8-4.7V48L274.3,54.1z
						 M278.9,166.2l6-3.7v-1.3l-8.6,5H278.9z M279.1,54.1h2.6l3.2-1.9v-1.5L279.1,54.1z M283.4,166.2l1.5-0.9v-1.5l-3.9,2.4H283.4z
						 M283.8,54.1h1.1v-0.6L283.8,54.1z"/>
					<path class="st2" d="M286.6,121.4h21.1L345,32.5h-0.2h-37.1v-1.3h36.7L331.7,0.8l1.1-0.4l12.9,30.8L357.4,3l-0.9-2.2l1.1-0.4
						l0.4,1.1l0.4-1.1l1.1,0.4L358.7,3l11.6,28.3l12.9-30.8l1.1,0.4l-12.7,30.4h34.1v1.3h-34.5H371l37.3,88.9h20.3v1.3h-19.8
						l8.6,20.7h19.4v1.3h-19l9.1,21.6h12.5v0.9h-12.1l13.4,31.9l-1.1,0.4l-13.4-32.4h-23.7l13.4,31.9l-1.1,0.4l-13.4-32.4h-86.7
						l-13.4,32.4l-1.1-0.4l13.4-31.9h-23.7l-13.4,32.4l-1.1-0.4l13.4-31.9H275v-0.9h14.2l9.1-21.6H280v-1.3h18.8l8.6-20.7h-20.7
						v-1.4H286.6z M322,147l-31.3,18.1l-0.4,1.1h1.5l29.3-17L322,147z M323.1,144.7h-1.3l-29.5,16.8l-0.9,2.2l31.3-18.1L323.1,144.7
						z M317,144.7L293.7,158l-0.9,2.2l27-15.5H317z M320.5,150.7l-26.7,15.5h2.8l23.1-13.6L320.5,150.7z M312.3,144.7l-17,9.9
						l-0.9,1.9l20.7-11.9h-2.8V144.7z M307.8,144.7l-11,6.3l-0.9,2.2l14.5-8.4h-2.6V144.7z M303,144.7l-4.7,2.8l-0.9,1.9l8.4-4.7
						H303z M319,154.2l-20.5,12.1h2.6l17-9.9L319,154.2z M299.3,144.7l-0.4,1.3l2.2-1.3H299.3z M332.1,122.7h-0.4l-30.4,17.7
						l-1.1,1.9l31.3-18.1L332.1,122.7z M330.8,125.7l-30.6,17.7h2.8l27-15.5L330.8,125.7z M327.2,122.7l-24.6,14l-0.9,2.2l28-16.2
						H327.2z M317.5,157.8l-14.5,8.4h2.8l10.8-6.5C316.8,159.1,317.2,158.5,317.5,157.8z M322.4,122.7l-18.3,10.6l-0.9,1.9l22-12.5
						H322.4z M317.7,122.7l-12.1,6.9l-0.9,2.2l15.7-9.1C320.4,122.7,317.7,122.7,317.7,122.7z M329.3,129.4l-24.4,14h2.6l20.9-12.1
						L329.3,129.4z M313.2,122.7l-6,3.5l-0.9,1.9l9.5-5.4C315.8,122.7,313.2,122.7,313.2,122.7z M308.6,122.7l-0.9,1.9l3.5-1.9
						H308.6z M316,161.3l-8.2,5h2.6l4.7-2.8L316,161.3z M341.2,100.9L310.1,119l-0.9,1.9l31.1-18.1L341.2,100.9z M327.8,132.8
						l-18.3,10.6h2.8L327,135L327.8,132.8z M339.9,104.3l-29.5,17h2.6l26.1-14.9L339.9,104.3z M342.7,97.2l-31.1,18.1l-0.9,2.2
						l31.1-18.1L342.7,97.2z M344.2,93.8l-31.1,18.1l-0.9,1.9l31.1-18.1L344.2,93.8z M312.3,166.2h1.7l0.4-1.3L312.3,166.2z
						 M345.7,90.1l-31.1,18.1l-0.9,2.2l31.1-18.1L345.7,90.1z M326.5,136.5l-12.3,6.9h2.8l8.6-5L326.5,136.5z M338.4,108l-23.5,13.4
						h2.8l19.8-11.4L338.4,108z M347.2,86.6L316,104.8l-0.9,1.9l31.3-17.9L347.2,86.6z M400.9,166.2l-9.1-21.6h-67.7l-9.1,21.6
						H400.9z M348.7,83l-31.3,18.1l-0.9,2.2l31.3-18.1L348.7,83z M350.2,79.5L319,97.6l-0.9,1.9l31.3-17.9L350.2,79.5z M325,139.9
						l-6,3.5h2.6l2.6-1.3L325,139.9z M351.8,75.9L320.5,94l-0.9,2.2L350.9,78L351.8,75.9z M336.9,111.5l-17.3,9.9h2.8l13.6-7.8
						L336.9,111.5z M353.3,72.4L322,90.5l-0.9,1.9l31.3-17.9L353.3,72.4z M354.8,68.7l-31.3,18.1l-0.9,2.2l31.1-18.1L354.8,68.7z
						 M356.1,65.3L325,83.4l-0.9,1.9l31.1-17.9L356.1,65.3z M335.4,115.1l-11,6.3h2.6l7.5-4.3L335.4,115.1z M362.3,122.7h-2.6
						l-34.7,20l-0.4,0.6h1.7L362.3,122.7z M357.4,62.3v-0.4l-30.8,17.9l-0.9,2.2l31.1-18.1L357.4,62.3z M355,122.7l-28.5,16.4
						l-0.9,2.2l32.1-18.5L355,122.7L355,122.7z M356.3,59.7L328,76.3l-0.9,1.9L356.9,61L356.3,59.7z M350.5,122.7L328,135.6
						l-0.9,1.9l25.9-14.9L350.5,122.7L350.5,122.7z M367.1,122.7h-2.8l-36,20.7h2.6L367.1,122.7z M355.4,57.5l-25.9,15.1l-1.1,2.2
						l27.6-16L355.4,57.5z M345.7,122.7l-16.2,9.3l-0.9,2.2l19.8-11.4L345.7,122.7L345.7,122.7z M333.9,118.6l-5,2.8h2.8l1.3-0.6
						L333.9,118.6z M354.6,55.4l-23.7,13.8l-0.9,1.9l25.2-14.5L354.6,55.4z M341,122.7l-10.1,5.8l-0.9,1.9l13.8-7.8H341V122.7z
						 M353.7,53.2l-21.4,12.3l-0.9,2.2L354,54.5L353.7,53.2z M336.4,122.7l-4.1,2.2l-0.9,2.2l7.5-4.3L336.4,122.7L336.4,122.7z
						 M371.6,122.7H369l-36.2,20.7h2.8L371.6,122.7z M352.8,51.1l-19,11L333,64l20.3-11.6L352.8,51.1z M333.4,122.7l-0.4,0.6
						l1.5-0.6H333.4z M382.2,121.4L358,63.6l-24.2,57.8C333.8,121.4,382.2,121.4,382.2,121.4z M351.8,48.9l-16.4,9.5l-0.9,2.2
						l17.9-10.4L351.8,48.9z M350.9,46.7l-14,8.2c-0.2,0.6-0.6,1.3-0.9,1.9l15.5-8.8L350.9,46.7z M350,44.6l-11.6,6.7l-0.9,2.2
						l12.9-7.5L350,44.6z M376.3,122.7h-2.8l-36,20.7h2.8L376.3,122.7z M349.2,42.4l-9.3,5.4l-0.9,1.9l10.6-6L349.2,42.4z
						 M348.3,40.3l-6.9,3.9l-0.9,2.2l8.2-4.7L348.3,40.3z M347.2,38.1l-4.3,2.6l-0.9,1.9l5.8-3.2L347.2,38.1z M381.1,122.7h-2.8
						l-36,20.7h2.6L381.1,122.7z M346.4,36l-2.2,1.1l-0.9,2.2L347,37L346.4,36z M345.7,34l-0.9,1.5l1.1-0.6L345.7,34z M350.5,32.5
						h-2.8l-1.3,0.6l0.6,1.3L350.5,32.5z M369.2,31.2L358,4.3l-11.2,27L369.2,31.2L369.2,31.2z M383.2,124l-0.6-1.3l-35.8,20.7h2.8
						L383.2,124z M355.2,32.5h-2.8l-5,2.8l0.4,1.3L355.2,32.5z M359.7,32.5h-2.6l-8.8,5l0.4,1.3L359.7,32.5z M364.5,32.5h-2.8
						l-12.5,7.1l0.4,1.3L364.5,32.5z M369,32.5h-2.6L350,41.8l0.6,1.3L369,32.5z M368.6,35.3l0.9-2.2L351,43.9l0.6,1.3L368.6,35.3z
						 M384.1,126.1l-0.4-1.3l-32.1,18.5h2.6L384.1,126.1z M367.3,39l0.9-2.2L352,46.1l0.4,1.3L367.3,39z M365.8,42.4l0.9-2.2
						l-13.8,8l0.4,1.3L365.8,42.4z M364.3,46.1l0.9-2.2l-11.4,6.7l0.4,1.1L364.3,46.1z M362.8,49.6c0.2-0.6,0.6-1.5,0.9-2.2
						l-9.1,5.4l0.6,1.1L362.8,49.6z M361.2,53.2l0.9-2.2l-6.7,3.9l0.6,1.3L361.2,53.2z M385,128.3l-0.4-1.3l-28.5,16.4h2.8
						L385,128.3z M359.7,56.7l0.9-2.2l-4.1,2.6l0.4,1.3L359.7,56.7z M358.2,60.3l0.9-2.2l-1.7,1.1l0.4,1.3L358.2,60.3z M377.9,51.7
						l-0.6-1.3l-18.1,10.4l-0.4,1.5v0.4L377.9,51.7z M378.7,53.9l-0.6-1.3l-19,11l0.6,1.3L378.7,53.9z M376.3,48.3l-15.7,9.1
						l-0.9,1.9l17.3-9.7L376.3,48.3z M379.6,56l-0.4-1.3l-19.2,11l0.6,1.3L379.6,56z M386.1,130.4l-0.6-1.3l-24.6,14.2h2.6
						L386.1,130.4z M380.4,58.2l-0.4-1.3l-19,11l0.4,1.3L380.4,58.2z M375.5,46.1l-13.4,7.5l-0.9,2.2l14.7-8.4L375.5,46.1z
						 M381.5,60.3l-0.6-1.3l-19,11l0.4,1.3L381.5,60.3z M374.6,43.9l-11,6.3l-0.9,1.9L375,45L374.6,43.9z M382.4,62.5l-0.6-1.3
						l-19,11l0.6,1.3L382.4,62.5z M383.2,64.6l-0.6-1.3l-19,11l0.6,1.3L383.2,64.6z M373.5,41.8l-8.4,4.7l-0.9,2.2l9.9-5.8
						L373.5,41.8z M384.1,66.8l-0.4-1.3l-19.2,11l0.6,1.3L384.1,66.8z M386.9,132.6l-0.6-1.3l-20.9,12.1h2.8L386.9,132.6z M385,69
						l-0.4-1.3l-19,11L366,80L385,69z M372.7,39.4l-6,3.7l-0.9,1.9l7.5-4.3L372.7,39.4z M386.1,71.1l-0.6-1.3l-19,11l0.4,1.3
						L386.1,71.1z M371.8,37.3l-3.7,2.2l-0.9,2.2l5-3L371.8,37.3z M386.9,73.3l-0.6-1.3l-19,11l0.6,1.3L386.9,73.3z M387.8,75.4
						l-0.4-1.3l-19.2,11.2l0.6,1.1L387.8,75.4z M371,35.1l-1.3,0.9l-0.9,1.9l2.6-1.5L371,35.1z M388.6,77.6l-0.4-1.1l-19,11l0.4,1.1
						L388.6,77.6z M389.5,79.7l-0.4-1.1l-19,11l0.4,1.3L389.5,79.7z M387.8,134.7l-0.6-1.3l-17,9.9h2.8L387.8,134.7z M370.3,34v0.4
						l0.2-0.2L370.3,34z M390.6,82.1l-0.6-1.3l-19,11l0.4,1.3L390.6,82.1z M391.4,84.3l-0.6-1.3l-19,11l0.6,1.3L391.4,84.3z
						 M392.3,86.4l-0.4-1.3l-19.2,11l0.6,1.3L392.3,86.4z M393.2,88.6l-0.4-1.3l-19,11l0.4,1.3L393.2,88.6z M394,90.7l-0.4-1.3
						l-19,11l0.4,1.3L394,90.7z M388.6,136.9l-0.4-1.1l-13.4,7.5h2.6L388.6,136.9z M395.1,92.9l-0.6-1.3l-19,11l0.4,1.3L395.1,92.9z
						 M396,95.1l-0.6-1.3l-19,11l0.6,1.3L396,95.1z M396.8,97.2l-0.4-1.3l-19.2,11l0.6,1.3L396.8,97.2z M397.7,99.4l-0.4-1.3l-19,11
						l0.4,1.3L397.7,99.4z M398.6,101.5l-0.4-1.3l-19,11l0.4,1.3L398.6,101.5z M389.5,139.1c-0.2-0.4-0.2-0.6-0.4-1.1l-9.7,5.4h2.8
						L389.5,139.1z M399.6,103.7l-0.6-1.3l-19,11l0.4,1.3L399.6,103.7z M400.5,105.8l-0.6-1.3l-19,11l0.6,1.3L400.5,105.8z
						 M401.4,108l-0.4-1.3l-19.2,11.2l0.6,1.1L401.4,108z M402.2,110.2l-0.4-1.3l-19,11.2l0.4,1.1L402.2,110.2z M383.9,122.7
						l0.2,0.9l1.5-0.9H383.9z M390.6,141.4l-0.6-1.3l-5.8,3.2h2.6L390.6,141.4z M387.6,122.7l-3,1.7l0.4,1.3l5.4-3H387.6z
						 M403.3,112.3l-0.6-1.1l-17.9,10.1h2.8L403.3,112.3z M392.3,122.7l-6.9,3.9l0.6,1.3l8.8-5.2
						C394.8,122.7,392.3,122.7,392.3,122.7z M396.8,122.7l-10.6,6l0.6,1.3l12.7-7.3H396.8z M401.6,122.7l-14.2,8.2l0.4,1.3l16.6-9.5
						H401.6z M407.4,122.7h-1.1L388.2,133l0.4,1.3l19.2-11L407.4,122.7z M391.4,143.4l-0.6-1.1l-2.2,1.1H391.4z M408.1,124.2l-19,11
						l0.6,1.3l19-11L408.1,124.2z M404.2,114.5l-0.6-1.1l-14,8h2.6L404.2,114.5z M408.9,126.3l-19,11l0.6,1.3l19-11L408.9,126.3z
						 M410,128.5l-19.2,11l0.6,1.3l19-11L410,128.5z M410.9,130.6l-19,11l0.4,1.3l19-11L410.9,130.6z M393,144.7l0.2,0.4l1.1-0.4
						H393z M412.4,134.1l-0.6-1.3l-18.3,10.6h2.8L412.4,134.1z M396.2,144.7l-2.6,1.3l0.6,1.3l4.7-2.6H396.2z M405,116.8l-0.6-1.3
						l-10.4,5.8h2.8L405,116.8z M400.7,144.7l-6.3,3.5l0.6,1.3l8.4-4.7h-2.7V144.7z M405.5,144.7l-9.9,5.6l0.4,1.3l12.3-6.9
						L405.5,144.7L405.5,144.7z M410.2,144.7l-13.8,8l0.4,1.1l16-9.1H410.2z M416.7,144.7h-1.9l-17.5,10.1l0.4,1.1l19.2-11
						L416.7,144.7z M413.2,136.3l-0.6-1.3l-14.5,8.4h2.6L413.2,136.3z M417.1,146l-19,11l0.6,1.3l19-11.2L417.1,146z M405.9,119
						l-0.4-1.3l-6.7,3.7h2.8L405.9,119z M418.2,148.1l-19.2,11l0.6,1.3l19-11L418.2,148.1z M419.1,150.3l-19,11l0.4,1.3l19-11
						L419.1,150.3z M419.9,152.4l-19,11l0.4,1.3l19-11L419.9,152.4z M421.4,155.9l-0.6-1.3l-19,11l0.2,0.6h1.5L421.4,155.9z
						 M414.1,138.4l-0.4-1.3l-11,6.3h2.8L414.1,138.4z M406.8,121.2l-0.4-1.3l-2.8,1.5h2.6L406.8,121.2z M422.3,158l-0.6-1.3
						l-16.2,9.5h2.8L422.3,158z M415,140.6l-0.4-1.3l-7.1,4.1h2.6L415,140.6z M423.1,160.2l-0.4-1.3l-12.5,7.3h2.6L423.1,160.2z
						 M415.8,142.7l-0.4-1.3l-3.5,1.9h2.8L415.8,142.7z M424,162.4l-0.4-1.3l-8.8,5.2h2.8L424,162.4z M424.9,164.5l-0.4-1.3l-5,3
						h2.6L424.9,164.5z M425.7,166.2l-0.4-0.9l-1.3,0.9H425.7z"/>
					<path class="st2" d="M575.9,32.5h-11.6v133.7h12.1v0.9h-11.9l8.8,12.1l-1.1,0.4l-8-11v30.6h-1.3v-32.1H542l16.2,22.4l-0.9,0.4
						l-16-21.6v30.8h-0.9V167H465v32.1h-1.3V168l-16.8,23l-0.9-0.6l17-23.3h-20.9v32.1h-0.9v-31.1l-8.4,11.4l-1.1-0.4l8.8-12.1H427
						v-0.9h14.2V32.5h-16.6v-1.3h16.6l-6.5-8.6l0.9-0.6l5.6,7.5V1.7h0.9V31l0.4,0.2h21.1L446.9,8.1l0.9-0.6l16,22V1.7h1.3V31
						l0.2,0.2h75.3V1.7h0.9v28.5L558,7.7l0.9,0.6L542,31.2h20.9V1.7h1.3V30l5.8-8l0.9,0.6l-6.5,8.6h11.4L575.9,32.5L575.9,32.5z
						 M442.6,33.2l-0.4,0.2v1.5l1.3-0.6L442.6,33.2z M444.1,35.1l-1.9,1.1v1.5l2.6-1.5L444.1,35.1z M445.4,37l-3.2,1.7v1.5l4.1-2.2
						L445.4,37z M446.7,39l-4.5,2.6v1.5l5.4-3L446.7,39z M448.2,40.7l-6,3.5v1.5l6.9-3.9L448.2,40.7z M449.5,42.6l-7.3,4.3v1.5
						l8.2-4.7L449.5,42.6z M451,44.6l-8.8,5v1.5l9.5-5.4L451,44.6z M452.3,46.5l-10.1,5.8v1.5l11-6.3L452.3,46.5z M453.6,48.3
						L442.2,55v1.5l12.3-6.9L453.6,48.3z M455.1,50.2l-12.9,7.5v1.5l13.8-8L455.1,50.2z M456.4,52.1l-14.2,8.2v1.5l15.1-8.6
						L456.4,52.1z M457.9,54.1l-15.7,9.1v1.5l16.4-9.5L457.9,54.1z M459.2,56l-17,9.7v1.5L460,57.1L459.2,56z M460.7,57.7
						l-18.5,10.8V70l19.2-11.2L460.7,57.7z M462,59.7l-19.8,11.4v1.5l20.7-11.9L462,59.7z M463.7,62.3l-0.4-0.6L442.2,74v1.5
						L463.8,63v-0.7H463.7z M463.7,64l-21.6,12.5V78l21.6-12.5V64z M463.7,66.8l-21.6,12.5v1.5l21.6-12.5V66.8z M463.7,69.4
						l-21.6,12.5v1.5l21.6-12.5V69.4z M463.7,72.2l-21.6,12.5v1.5l21.6-12.5V72.2z M463.7,74.8l-21.6,12.5v1.5l21.6-12.5V74.8z
						 M463.7,77.6l-21.6,12.5v1.5l21.6-12.5V77.6z M463.7,80.2l-21.6,12.5v1.5l21.6-12.5V80.2z M463.7,83l-21.6,12.5V97l21.6-12.5
						V83z M463.7,85.6l-21.6,12.5v1.5l21.6-12.5V85.6z M463.7,88.4l-21.6,12.5v1.5l21.6-12.5V88.4z M463.7,91l-21.6,12.5v1.5
						l21.6-12.5V91z M463.7,93.8l-21.6,12.5v1.5l21.6-12.5V93.8z M463.7,96.4l-21.6,12.5v1.5l21.6-12.5V96.4z M463.7,99.2
						l-21.6,12.5v1.5l21.6-12.5V99.2z M463.7,101.7l-21.6,12.5v1.5l21.6-12.5V101.7z M463.7,104.6l-21.6,12.5v1.5l21.6-12.5V104.6z
						 M463.7,107.1l-21.6,12.5v1.5l21.6-12.5V107.1z M463.7,109.9l-21.6,12.5v1.5l21.6-12.5V109.9z M463.7,112.5L442.1,125v1.5
						l21.6-12.5V112.5z M463.7,115.3l-21.6,12.5v1.5l21.6-12.5V115.3z M463.7,117.9l-21.6,12.5v1.5l21.6-12.5V117.9z M463.7,120.7
						l-21.6,12.5v1.5l21.6-12.5V120.7z M463.7,123.3l-21.6,12.5v1.5l21.6-12.5V123.3z M463.7,126.1l-21.6,12.5v1.5l21.6-12.5V126.1z
						 M463.7,128.7l-21.6,12.5v1.5l21.6-12.5V128.7z M463.7,131.5L442.1,144v1.5l21.6-12.5V131.5z M463.7,135.6v-1.5l-21.6,12.5v1.5
						l21.6-12.3V135.6z M462.4,137.8l-20.3,11.6v1.5l18.1-10.6L462.4,137.8z M459,142.3l-16.8,9.7v1.5l14.7-8.4L459,142.3z
						 M455.5,147l-13.4,7.8v1.5l11.2-6.5L455.5,147z M452.1,151.8l-9.9,5.6v1.5l7.8-4.3L452.1,151.8z M448.6,156.5l-6.5,3.7v1.5
						l4.3-2.6L448.6,156.5z M445.2,161.3l-3,1.5v1.5l0.9-0.4L445.2,161.3z M463.7,154.6v-1.5l-19.8,11.4l-1.1,1.7h1.1L463.7,154.6z
						 M443.9,32.5l-0.4,0.2l0.9,1.1l2.4-1.3H443.9z M448.6,32.5l-3.7,1.9l0.9,1.3l5.6-3.2H448.6z M463.7,150.3l-16.4,9.5l-1.9,2.8
						l18.3-10.8V150.3z M463.7,157.2v-1.5l-17.9,10.6h2.8L463.7,157.2z M453.3,32.5l-7.1,3.9l0.9,1.1l8.8-5H453.3z M457.9,32.5
						l-10.1,5.8c0.2,0.4,0.4,0.6,0.6,1.1l12.3-6.9C460.7,32.5,457.9,32.5,457.9,32.5z M463.7,147.7l-12.9,7.3l-1.9,2.8l14.9-8.6
						v-1.5H463.7z M463.7,33.2v-0.6h-1.1L449,40.3l0.9,1.1L463.7,33.2z M463.7,36v-1.5l-13.2,7.8l0.6,1.1
						C455.3,40.9,459.6,38.3,463.7,36z M463.7,160v-1.5l-13.2,7.8h2.6L463.7,160z M463.7,38.6V37l-11.9,6.9l0.9,1.1L463.7,38.6z
						 M463.7,144.9l-9.5,5.6l-1.9,2.6l11.4-6.7V144.9z M463.7,41.4v-1.5l-10.6,6L454,47L463.7,41.4z M463.7,43.9v-1.5l-9.1,5.4
						l0.9,1.1L463.7,43.9z M463.7,162.6v-1.5l-8.6,5.2h2.8L463.7,162.6z M463.7,142.3l-6,3.5l-1.9,2.8l8-4.7v-1.6H463.7z
						 M463.7,46.7v-1.5l-7.8,4.5l0.9,1.1L463.7,46.7z M463.7,49.3v-1.5l-6.3,3.7l0.6,1.3L463.7,49.3z M463.7,52.1v-1.5l-5,2.8
						l0.9,1.1L463.7,52.1z M463.7,139.5l-2.6,1.5l-1.9,2.8l4.5-2.8V139.5z M463.7,165.4v-1.5l-3.9,2.4h2.6L463.7,165.4z M463.7,54.7
						v-1.5l-3.7,2.2l0.9,1.1C461.8,55.8,462.8,55.4,463.7,54.7z M463.7,57.5V56l-2.2,1.3l0.9,1.1L463.7,57.5z M463.7,137.5l-1.1,1.5
						l1.1-0.6V137.5z M463.7,60.1v-1.5l-0.9,0.6l0.9,1.1V60.1z M465.4,33.4l-0.4,0.4v1.5l1.3-0.6L465.4,33.4z M466.7,35.3l-1.7,1.1
						v1.7l2.6-1.7L466.7,35.3z M468.2,37.3l-3.2,1.9v1.5l3.9-2.4L468.2,37.3z M469.5,39.2l-4.5,2.6v1.7l5.4-3.2L469.5,39.2z
						 M471,41.1l-6,3.5v1.5l6.7-3.9L471,41.1z M472.3,42.9c-2.4,1.5-5,2.8-7.3,4.3v1.7l8.2-5L472.3,42.9z M473.6,44.8L465,50v1.5
						l9.5-5.6L473.6,44.8z M475.1,46.7L465,52.6v1.7l11-6.5L475.1,46.7z M476.4,48.7L465,55.4v1.5l12.3-7.1L476.4,48.7z M477.9,50.4
						L465,58v1.7l13.6-8L477.9,50.4z M480.1,53.4l-0.9-1.1L465,60.8v1.1l0.2,0.2L480.1,53.4z M490.7,99.2L465,63.8v70.5L490.7,99.2z
						 M465,164.7l36.9-50.3L491.3,100L465,136V164.7z M539.8,166.2l-37.3-50.9l-37.3,50.9H539.8z M481.4,55.4l-0.9-1.1l-14.9,8.6
						l0.9,1.1L481.4,55.4z M534.9,39l1.5-1.9l1.9-2.6l1.5-1.9h-74l36.9,50.3l28.7-39l1.5-1.9L534.9,39z M482.9,57.3l-0.9-1.1
						l-14.9,8.6l0.6,1.1L482.9,57.3z M484.2,59.3l-0.9-1.1l-14.9,8.6l0.9,1.1L484.2,59.3z M485.5,61.2l-0.6-1.3l-15.1,8.6l0.9,1.3
						L485.5,61.2z M487,62.9l-0.9-1.1l-14.9,8.6l0.9,1.1L487,62.9z M488.3,64.9l-0.6-1.1l-15.1,8.6l0.9,1.1L488.3,64.9z M489.8,66.8
						l-0.9-1.1L474,74.3l0.6,1.1L489.8,66.8z M491.1,68.7l-0.9-1.1l-14.9,8.6l0.9,1.1L491.1,68.7z M492.6,70.5l-0.9-1.1L476.9,78
						l0.6,1.3L492.6,70.5z M493.9,72.4l-0.9-1.1L478.2,80l0.8,1L493.9,72.4z M495.2,74.4l-0.6-1.1l-15.1,8.6l0.9,1.1L495.2,74.4z
						 M496.7,76.3l-0.9-1.1L481,83.8l0.9,1.1L496.7,76.3z M498,78.2l-0.9-1.3l-14.9,8.8l0.9,1.1L498,78.2z M499.5,80l-0.9-1.1
						l-14.9,8.6l0.6,1.1L499.5,80z M500.8,81.9l-0.9-1.1L485,89.4l0.9,1.1L500.8,81.9z M501.9,84.1l0.2-0.4l-0.6-0.9l-14.9,8.6
						l0.6,1.1L501.9,84.1z M498.4,88.8l1.9-2.8l-12.5,7.3l0.9,1.1L498.4,88.8z M495,93.6l1.9-2.8l-7.8,4.3l0.9,1.3L495,93.6z
						 M491.5,98.1l1.9-2.6l-2.8,1.5L491.5,98.1z M507.7,91.4l-0.9-1.1l-14.5,8.4l-0.2,0.4l0.6,0.9L507.7,91.4z M509.2,93.3l-0.9-1.1
						l-14.9,8.6l0.6,1.1L509.2,93.3z M505.5,88.4l-9.7,5.6l-2.2,2.8l12.7-7.3L505.5,88.4z M510.5,95.3l-0.9-1.3l-14.9,8.8l0.9,1.1
						L510.5,95.3z M511.8,97l-0.6-1.1l-15.1,8.6l0.9,1.1L511.8,97z M504.3,86.4l-5,3l-2.2,2.6l7.8-4.5L504.3,86.4z M513.3,98.9
						l-0.9-1.1l-14.9,8.6l0.9,1.1L513.3,98.9z M509.9,103.7l1.9-2.8l-12.9,7.5l0.9,1.1L509.9,103.7z M506.4,108.4l1.9-2.8l-8,4.7
						l0.6,1.1L506.4,108.4z M502.7,84.7l-2.2,2.8l3-1.7L502.7,84.7z M503,113l1.9-2.6l-3.2,1.7l0.9,1.3L503,113z M540.5,136
						L514,99.8l-1.5,2.4l-1.5,1.9l-0.2,0.2l-1.9,2.6h0.2l-1.5,1.9h-0.2l-1.9,2.8h0.2l-1.5,1.9H504l-0.4,0.9l37.1,50.7V136H540.5z
						 M537.5,65.9l2.2-2.6L503.9,84l0.6,1.1L537.5,65.9z M540.5,61.6v-1.5L506.2,80l-2.2,2.8L540.5,61.6z M534,70.7l2.2-2.6
						L505.1,86l0.9,1.1L534,70.7z M530.6,75.4l2.2-2.8l-26.3,15.3l0.9,1.1L530.6,75.4z M540.5,59v-1.5l-30.8,17.7l-2.2,2.8L540.5,59
						z M527.1,80.2l2.2-2.8l-21.4,12.3l0.9,1.1L527.1,80.2z M523.7,84.9l2.2-2.8l-16.6,9.5l0.9,1.1L523.7,84.9z M520.2,89.5l2.2-2.6
						l-11.6,6.7l0.6,1.1L520.2,89.5z M540.5,56.2v-1.5l-27.4,15.7l-2.2,2.8L540.5,56.2z M516.8,94.2l1.9-2.8l-6.7,4.1l0.9,1.1
						L516.8,94.2z M514,98.1l1.3-1.9l-1.9,1.1L514,98.1z M540.5,53.6v-1.5l-23.9,13.8l-2.2,2.6L540.5,53.6z M540.5,134.3V64
						l-0.6,0.6l-1.3,1.9l-2.2,2.8l-1.3,1.9h-0.2L533,74l-1.3,1.9h-0.2l-1.9,2.8v-0.2l-1.3,1.9l-0.2,0.2l-1.9,2.6l-1.3,1.9h-0.2
						l-1.9,2.8l-1.3,1.9h-0.2l-1.9,2.8l-1.3,1.9h-0.2l-1.9,2.8v-0.2l-1.1,1.5L540.5,134.3z M540.5,50.8v-1.5L520,61.2l-2.2,2.8
						L540.5,50.8z M540.5,48.3v-1.5l-17,9.7l-2.2,2.8L540.5,48.3z M540.5,45.5V44l-13.6,7.8l-1.9,2.8L540.5,45.5z M540.5,42.9v-1.5
						l-10.1,5.8l-1.9,2.6C532.5,47.4,536.4,45.2,540.5,42.9z M540.5,40.1v-1.5l-6.7,3.9l-1.9,2.8L540.5,40.1z M540.5,37.5V36
						l-3.2,1.7l-1.9,2.8L540.5,37.5z M540.5,34.7v-1.3l-1.7,2.4L540.5,34.7z M561.8,33.2l0.4-0.6h-1.9l-19,10.8v1.5L561.8,33.2z
						 M555.6,32.5l-14.2,8.2v1.5l17-9.7H555.6z M551.1,32.5l-9.7,5.4v1.5l12.3-6.9H551.1z M546.3,32.5l-5,2.8v1.5l7.8-4.3H546.3z
						 M541.8,32.5h-0.4V34l3-1.5H541.8z M558.4,37.9l1.9-2.8l-19,11v1.5L558.4,37.9z M554.9,42.6l1.9-2.8l-15.5,8.8v1.5L554.9,42.6z
						 M551.5,47.2l1.9-2.6l-12.1,6.9V53L551.5,47.2z M547.8,51.9l2.2-2.8l-8.6,5v1.5L547.8,51.9z M562.9,51.3v-1.5L542,62.1
						l-0.6,0.4v1.3L562.9,51.3z M562.9,54.1v-1.7l-21.6,12.5v1.5L562.9,54.1z M544.4,56.7c0.6-0.9,1.5-1.9,2.2-2.8l-5.2,3v1.5
						L544.4,56.7z M562.9,56.7v-1.5l-21.6,12.5v1.5L562.9,56.7z M562.9,59.5v-1.7l-21.6,12.5v1.5L562.9,59.5z M541.3,60.8l1.7-2.2
						l-1.7,0.9V60.8z M562.9,62.1v-1.5l-21.6,12.5v1.5L562.9,62.1z M562.9,64.9v-1.7l-21.6,12.5v1.5L562.9,64.9z M562.9,67.5V66
						l-21.6,12.5V80L562.9,67.5z M562.9,70.3v-1.7L541.3,81v1.5L562.9,70.3z M562.9,72.8v-1.5l-21.6,12.5v1.5L562.9,72.8z
						 M562.9,75.6v-1.7l-21.6,12.5v1.5L562.9,75.6z M562.9,78.2v-1.5l-21.6,12.5v1.5L562.9,78.2z M562.9,81v-1.7l-21.6,12.5v1.5
						L562.9,81z M562.9,83.6v-1.5l-21.6,12.5v1.5L562.9,83.6z M562.9,86.4v-1.7l-21.6,12.5v1.5L562.9,86.4z M562.9,89v-1.5
						L541.3,100v1.5L562.9,89z M562.9,91.8v-1.7l-21.6,12.5v1.5L562.9,91.8z M562.9,94.4v-1.5l-21.6,12.5v1.5L562.9,94.4z
						 M562.9,97.2v-1.7L541.3,108v1.5L562.9,97.2z M562.9,99.8v-1.5l-21.6,12.5v1.5L562.9,99.8z M562.9,102.6v-1.7l-21.6,12.5v1.5
						L562.9,102.6z M562.9,105.2v-1.5l-21.6,12.5v1.5L562.9,105.2z M562.9,108v-1.7l-21.6,12.5v1.5L562.9,108z M562.9,110.6v-1.5
						l-21.6,12.5v1.5L562.9,110.6z M562.9,113.4v-1.7l-21.6,12.5v1.5L562.9,113.4z M562.9,116v-1.5L541.3,127v1.5L562.9,116z
						 M562.9,118.8v-1.7l-21.6,12.5v1.5L562.9,118.8z M562.9,121.4v-1.5l-21.6,12.5v1.5L562.9,121.4z M562.9,124.2v-1.7L541.3,135
						v0.6l0.6,0.6L562.9,124.2z M541.6,137.5l-0.2,0.2v1.5l1.1-0.4L541.6,137.5z M542.9,139.5l-1.5,0.9v1.5l2.4-1.3L542.9,139.5z
						 M544.4,141.4l-3,1.7v1.5l3.7-2.2L544.4,141.4z M545.7,143.4l-4.3,2.4v1.5l5.2-2.8L545.7,143.4z M547.2,145.3l-5.8,3.2v1.5
						l6.5-3.7L547.2,145.3z M548.5,147l-7.1,4.1v1.5l8-4.5L548.5,147z M549.8,149l-8.4,5v1.5l9.3-5.4L549.8,149z M551.3,150.9
						l-9.9,5.6v1.5l10.8-6L551.3,150.9z M552.6,152.9l-11.2,6.5v1.5l12.1-6.9L552.6,152.9z M554.1,154.6l-12.7,7.3v1.5l13.4-7.5
						L554.1,154.6z M556.2,157.6l-0.9-1.1l-14,8.2v1.5h0.2L556.2,157.6z M562.9,126.8v-1.5l-20.5,11.9l0.9,1.1L562.9,126.8z
						 M562.9,48.7V47l-17.5,10.4l-2.2,2.6L562.9,48.7z M557.5,159.5l-0.6-1.1l-13.4,7.8h2.8L557.5,159.5z M562.9,129.6v-1.7
						l-19,11.2l0.6,1.1L562.9,129.6z M562.9,132.2v-1.5l-17.7,10.1l0.9,1.3L562.9,132.2z M562.9,45.9v-1.5l-14,8.2l-2.2,2.8
						L562.9,45.9z M562.9,135v-1.7l-16.2,9.5l0.6,1.1L562.9,135z M562.9,137.5V136l-14.9,8.6c0.2,0.4,0.6,0.6,0.9,1.1L562.9,137.5z
						 M559,161.5l-0.9-1.1l-9.9,5.8h2.8L559,161.5z M562.9,140.4v-1.7l-13.6,8l0.9,1.1L562.9,140.4z M562.9,43.3v-1.7l-10.6,6.3
						l-2.2,2.8L562.9,43.3z M562.9,142.9v-1.5l-12.1,7.1l0.9,1.1L562.9,142.9z M562.9,145.7V144l-10.8,6.3l0.9,1.3L562.9,145.7z
						 M560.3,163.4l-0.9-1.1l-6.7,3.9h2.8L560.3,163.4z M562.9,40.5V39l-7.1,4.1l-2.2,2.8L562.9,40.5z M562.9,148.3v-1.5l-9.3,5.4
						c0.2,0.4,0.4,0.6,0.6,1.1L562.9,148.3z M562.9,151.1v-1.7l-8,4.7l0.9,1.1L562.9,151.1z M562.9,153.7v-1.5l-6.7,3.9l0.9,1.1
						L562.9,153.7z M562.9,37.9v-1.7l-3.7,2.4l-2.2,2.6L562.9,37.9z M561.8,165.4l-0.9-1.3l-3.5,2.2h2.8L561.8,165.4z M562.9,156.5
						v-1.7l-5.2,3.2l0.9,1.1L562.9,156.5z M562.9,159.1v-1.5l-3.9,2.2l0.9,1.1L562.9,159.1z M562.9,35.1v-1.5l-0.2,0.2l-2.2,2.6
						L562.9,35.1z M562.9,161.9v-1.7l-2.4,1.5c0.2,0.4,0.4,0.6,0.6,1.1L562.9,161.9z M562.9,164.5V163l-1.1,0.6l0.9,1.1L562.9,164.5
						z"/>
				</g>
			</g>
		</g>
	</g>
</g>
</svg>
