<?xml version="1.0" encoding="utf-8"?>
<!-- Generator: Adobe Illustrator 21.0.0, SVG Export Plug-In . SVG Version: 6.00 Build 0)  -->
<svg version="1.1" id="Layer_1" xmlns="http://www.w3.org/2000/svg" xmlns:xlink="http://www.w3.org/1999/xlink" x="0px" y="0px"
	 viewBox="0 0 1492 142" style="enable-background:new 0 0 1492 142;" xml:space="preserve">
<style type="text/css">
	.st0{fill:none;stroke:#CECECE;stroke-miterlimit:10;}
	.st1{clip-path:url(#SVGID_2_);}
	.st2{fill:#CECECE;}
</style>
<g>
	<line class="st0" x1="0" y1="141.5" x2="1492" y2="141.5"/>
	<g>
		<g>
			<defs>
				<rect id="SVGID_1_" width="1492" height="142"/>
			</defs>
			<clipPath id="SVGID_2_">
				<use xlink:href="#SVGID_1_"  style="overflow:visible;"/>
			</clipPath>
			<g class="st1">
				<g>
					<path class="st2" d="M191.5,37.5h-13.6v25.2h13.6v1h-13.6v22.7h-1.5V63.7h-53V194h45.9v1h-45.9v37.6h-1V195H97.1v37.6h-1.5V195
						H50.9v-1h44.7V63.7h-53v22.7h-1V63.7H22.2v-1h19.4V37.5H22.2V36h19.4V1.1h1V36h53V1.1h1.5V36h25.2V1.1h1V36h53V1.1h1.5V36h13.6
						L191.5,37.5L191.5,37.5z M83,37.5L42.6,60.7v1.8l43.4-25H83z M77.4,37.5L42.6,57.4v1.8l38.1-21.7H77.4z M71.9,37.5L42.6,54.4
						v1.8l32.6-18.7H71.9z M66.6,37.5l-24,13.6v1.8l27-15.4H66.6z M61,37.5L42.6,48.1v1.8l21.7-12.4H61z M55.7,37.5l-13.1,7.3v1.8
						l16.2-9.1H55.7z M50.2,37.5l-7.6,4.3v1.8l10.9-6.1H50.2z M44.6,37.5l-2,1v1.8l5.3-2.8H44.6z M91.6,37.5h-3.3L44.6,62.7h3.3
						L91.6,37.5z M95.6,38v-0.5h-1.8L50.2,62.7h3.3L95.6,38z M95.6,41.3v-2L55.7,62.7h3L95.6,41.3z M95.6,44.3v-1.8L61,62.7h3.3
						L95.6,44.3z M95.6,47.6v-2l-29,17.2h3L95.6,47.6z M95.6,50.6v-1.8L71.9,62.7h3.3L95.6,50.6z M95.6,53.9v-2L77.4,62.7h3.3
						L95.6,53.9z M95.6,56.9v-1.8L83,62.7h3L95.6,56.9z M95.6,60.2v-2l-7.3,4.5h3.3L95.6,60.2z M95.6,62.7v-1.3l-1.8,1.3H95.6z
						 M122.4,37.5h-1.3l-24,13.9v1.8l25.2-14.6L122.4,37.5L122.4,37.5z M115.6,37.5L97.1,48.1v1.8l21.7-12.4H115.6z M110,37.5
						l-12.9,7.6v1.8l16.2-9.3L110,37.5L110,37.5z M104.7,37.5l-7.6,4.3v1.8l10.6-6.1H104.7z M99.1,37.5l-2,1.3v1.8l5.3-3L99.1,37.5
						L99.1,37.5z M122.4,39.8L97.1,54.4v1.8l25.2-14.6L122.4,39.8L122.4,39.8z M122.4,43L97.1,57.7v1.8l25.2-14.6L122.4,43L122.4,43
						z M122.4,46.1L97.1,60.7v1.8l25.2-14.6L122.4,46.1L122.4,46.1z M122.1,63.7h-3.3L97.1,76.6v1.8L122.1,63.7z M116.6,63.7h-3.3
						l-16.2,9.6v1.8L116.6,63.7z M111,63.7h-3l-10.9,6.6v1.8L111,63.7z M105.7,63.7h-3.3L97.1,67v1.8L105.7,63.7z M100.2,63.7h-3V64
						v1.8C98.1,65.3,99.1,64.2,100.2,63.7z M122.4,66.8V65L97.1,79.6v1.8L122.4,66.8z M122.4,70.1v-1.8L97.1,82.9v1.8L122.4,70.1z
						 M122.4,73.1v-1.8L97.1,86v1.8L122.4,73.1z M122.4,76.4v-1.8L97.1,89.2V91L122.4,76.4z M122.4,79.4v-1.8L97.1,92.3V94
						L122.4,79.4z M122.4,82.7v-1.8L97.1,95.5v1.8L122.4,82.7z M122.4,85.7v-1.8L97.1,98.6v1.8L122.4,85.7z M122.4,89v-1.8
						l-25.2,14.6v1.8L122.4,89z M122.4,92v-1.8l-25.2,14.6v1.8L122.4,92z M122.4,95.3v-1.8l-25.2,14.6v1.8L122.4,95.3z M122.4,98.3
						v-1.8l-25.2,14.6v1.8L122.4,98.3z M122.4,101.6v-1.8l-25.2,14.6v1.8L122.4,101.6z M122.4,104.6v-1.8l-25.2,14.6v1.8
						L122.4,104.6z M122.4,107.9v-1.8l-25.2,14.6v1.8L122.4,107.9z M122.4,110.9v-1.8l-25.2,14.6v1.8L122.4,110.9z M122.4,114.2
						v-1.8L97.2,127v1.8L122.4,114.2z M122.4,117.3v-1.8l-25.2,14.6v1.8L122.4,117.3z M122.4,120.5v-1.8l-25.2,14.6v1.8L122.4,120.5
						z M122.4,123.6v-1.8l-25.2,14.6v1.8L122.4,123.6z M122.4,126.8V125l-25.2,14.6v1.8L122.4,126.8z M122.4,129.9v-1.8l-25.2,14.6
						v1.8L122.4,129.9z M122.4,133.2v-1.8L97.1,146v1.8L122.4,133.2z M122.4,136.2v-1.8L97.2,149v1.8L122.4,136.2z M122.4,139.5
						v-1.8l-25.2,14.6v1.8L122.4,139.5z M122.4,142.5v-1.8l-25.2,14.6v1.8L122.4,142.5z M122.4,145.8V144l-25.2,14.6v1.8
						L122.4,145.8z M122.4,148.8V147l-25.2,14.6v1.8L122.4,148.8z M122.4,152.1v-1.8L97.1,165v1.8L122.4,152.1z M122.4,155.1v-1.8
						L97.1,168v1.8L122.4,155.1z M122.4,158.4v-1.8l-25.2,14.6v1.8L122.4,158.4z M122.4,161.4v-1.8l-25.2,14.6v1.8L122.4,161.4z
						 M122.4,164.7v-1.8l-25.2,14.6v1.8L122.4,164.7z M122.4,167.7V166l-25.2,14.6v1.8L122.4,167.7z M122.4,171v-1.8l-25.2,14.6v1.8
						L122.4,171z M122.4,174.1v-1.8l-25.2,14.6v1.8L122.4,174.1z M122.4,177.3v-1.8l-25.2,14.6v1.8L122.4,177.3z M122.4,180.4v-1.8
						l-25.2,14.6v0.8h2L122.4,180.4z M122.4,51.1v-1.8L99.1,62.7h3.3L122.4,51.1z M122.4,183.6v-1.8l-21,12.1h3L122.4,183.6z
						 M122.4,54.2v-1.8l-17.7,10.3h3L122.4,54.2z M122.4,186.7v-1.8l-15.7,9.1h3.3L122.4,186.7z M122.4,57.4v-1.8L110,62.7h3.3
						L122.4,57.4z M122.4,190v-1.8l-10.1,5.8h3.3L122.4,190z M122.4,60.5v-1.8l-6.8,4h3.3L122.4,60.5z M122.4,193v-1.8l-4.5,2.8h3
						L122.4,193z M122.4,62.7V62l-1.3,0.8L122.4,62.7L122.4,62.7z M164.5,37.5l-41.1,23.7v1.5h0.8l43.7-25.2H164.5z M159.2,37.5
						l-35.8,20.4v2l38.9-22.5L159.2,37.5L159.2,37.5z M153.7,37.5l-30.3,17.4v1.8L157,37.5H153.7z M148.4,37.5l-25,14.1v2l28-16.2
						h-3V37.5z M142.8,37.5l-19.4,11.1v1.8l22.7-12.9H142.8z M137.3,37.5l-13.9,7.8v2l17.2-9.8H137.3z M132,37.5l-8.6,4.8v1.8
						l11.6-6.6H132z M126.4,37.5l-3,1.5v2l6.3-3.5H126.4z M123.4,37.5v0.3l0.8-0.3H123.4z M170.1,37.5l-43.7,25.2h3.3l43.4-25.2
						H170.1z M176.4,37.5h-1L132,62.7h3l41.4-24.2V37.5z M176.4,40l-39.1,22.7h3.3l35.8-21V40z M176.4,43l-33.6,19.7h3.3l30.3-17.9
						V43z M176.4,46.3l-28,16.4h3l25-14.6V46.3z M176.4,49.4l-22.7,13.4h3.3l19.4-11.6V49.4z M176.4,52.6l-17.2,10.1h3l14.1-8.3
						L176.4,52.6L176.4,52.6z M176.4,55.7l-11.9,7.1h3.3l8.6-5.3L176.4,55.7L176.4,55.7z M176.4,58.9l-6.3,3.8h3l3.3-2V58.9z
						 M175.4,62.7h1V62L175.4,62.7z"/>
					<path class="st2" d="M227.1,37.5h-19.4V36h19.4V1.6h1.3V36h25V1.6h1.3V36H319V1.6h1.3V36h25.5V1.6h1V36h13.9v1.5h-13.9v25.2
						h13.9v1h-13.9v103.5H366v1.5h-19.2V194H366v1h-19.2v37.6h-1V195h-25.5v37.6H319V195h-64.4v37.6h-1.3V195h-25v37.6H227V195
						h-19.2v-1H227v-25.2h-19.2v-1.5H227v-37.9h-16.7v-1H227v-25.2h-19.4v-1.5H227v-38h-19.4v-1H227V37.5H227.1z M228.4,51.1v1.8
						l25-14.6v-0.8h-1.5L228.4,51.1z M228.4,48.1v1.5l21-12.1h-3L228.4,48.1z M228.4,44.8v1.8l15.4-9.1H241L228.4,44.8z M228.4,41.8
						v1.5l10.1-5.8h-3L228.4,41.8z M228.4,38.5v1.8l4.5-2.8h-2.8L228.4,38.5z M228.4,54.4v1.5l25-14.4v-1.8L228.4,54.4z M228.4,57.4
						v1.8l25-14.6v-1.8L228.4,57.4z M228.4,60.7v1.5l25-14.4V46L228.4,60.7z M228.4,78.1l24.7-14.4h-3l-21.7,12.6V78.1z M228.4,74.9
						l19.2-11.1h-2.8l-16.4,9.6V74.9z M228.4,71.8l13.9-8.1h-3L228.4,70V71.8z M228.4,68.5l8.3-4.8h-2.8l-5.6,3.3v1.5H228.4z
						 M228.4,65.5l3-1.8h-3V65.5z M228.4,81.2l25-14.4V65l-25,14.6V81.2z M228.4,84.4l25-14.6v-1.5l-25,14.4V84.4z M228.4,87.5
						l25-14.4v-1.8l-25,14.6V87.5z M228.4,90.8l25-14.6v-1.5l-25,14.4V90.8z M228.4,93.8l25-14.4v-1.8l-25,14.6V93.8z M228.4,97.1
						l25-14.6V81l-25,14.4V97.1z M228.4,100.1l25-14.4v-1.8l-25,14.6V100.1z M231.4,101.6l22-12.9v-1.5l-25,14.4H231.4z M228.4,119
						l25-14.4v-1.5h-0.5l-24.5,14.4V119z M228.4,116l22.2-12.9h-2.8l-19.4,11.1V116z M228.4,112.7l16.9-9.6h-3l-13.9,8.1V112.7z
						 M228.4,109.7l11.4-6.6h-3l-8.3,4.8L228.4,109.7L228.4,109.7z M228.4,106.4l5.8-3.3h-2.8l-3,1.8V106.4z M228.9,103.1h-0.5v0.3
						L228.9,103.1z M228.4,122.3l25-14.6v-1.8l-25,14.6V122.3z M228.4,125.3l25-14.4v-1.8l-25,14.6V125.3z M228.4,128.4h0.5
						l24.5-14.4v-1.8l-25,14.6V128.4z M228.4,142.8v1.5l25-14.4v-0.5h-2L228.4,142.8z M228.4,139.5v1.8l20.4-11.9h-3L228.4,139.5z
						 M228.4,136.4v1.5l14.9-8.6h-2.8L228.4,136.4z M228.4,133.2v1.8l9.6-5.6h-3L228.4,133.2z M228.4,130.1v1.5l4-2.3h-2.8
						L228.4,130.1z M228.4,147.5l25-14.6v-1.5l-25,14.4V147.5z M228.4,150.6l25-14.4v-1.8l-25,14.6V150.6z M228.4,153.9l25-14.6
						v-1.5l-25,14.4V153.9z M228.4,156.9l25-14.4v-1.8l-25,14.6V156.9z M228.4,160.2l25-14.6V144l-25,14.4V160.2z M228.4,163.2
						l25-14.4V147l-25,14.6V163.2z M228.4,166.5l25-14.6v-1.5l-25,14.4V166.5z M228.4,180.6v1.5l23.5-13.4h-3L228.4,180.6z
						 M228.4,177.3v1.8l17.9-10.3h-2.8L228.4,177.3z M228.4,174.3v1.5l12.4-7.1H238L228.4,174.3z M228.4,171v1.8l7.1-4h-3L228.4,171
						z M228.4,168.8v0.8l1.3-0.8H228.4z M228.4,183.6v1.8l25-14.6v-1.5L228.4,183.6z M228.4,186.9v1.5l25-14.4v-1.8L228.4,186.9z
						 M228.4,190v1.8l25-14.6v-1.5L228.4,190z M228.4,193.2v0.8h1.3l23.7-13.6v-1.8L228.4,193.2z M232.4,167.2l21-12.1v-1.8
						l-23.7,13.9L232.4,167.2L232.4,167.2z M233.2,62.7l20.2-11.9V49l-23.2,13.6L233.2,62.7L233.2,62.7z M234.2,128.4l19.2-11.1
						v-1.8l-22,12.9H234.2z M232.2,194h3l18.2-10.6v-1.8L232.2,194z M236.7,101.6l16.7-9.6v-1.8l-19.2,11.4H236.7z M238,167.2
						l15.4-9.1v-1.5L235,167.2H238z M238.5,62.7l14.9-8.6v-1.8l-17.7,10.3h2.8V62.7z M239.8,128.4l13.6-8.1v-1.8l-16.7,9.8h3.1
						V128.4z M237.5,194h3l12.9-7.6v-1.8L237.5,194z M242.3,101.6l11.1-6.6v-1.5l-13.9,8.1H242.3z M243.5,167.2l9.8-5.8v-1.8
						l-12.9,7.6H243.5z M244,62.7l9.3-5.6v-1.8L241,62.7H244z M245.1,128.4l8.3-4.8v-1.8l-11.1,6.6H245.1z M243,194h3l7.3-4.3v-1.8
						L243,194z M247.8,101.6l5.6-3.3v-1.8l-8.6,5h3V101.6z M248.8,167.2l4.5-2.8v-1.5l-7.3,4.3H248.8z M249.3,62.7l4-2.3v-1.8
						l-6.8,4L249.3,62.7L249.3,62.7z M250.6,128.4l2.8-1.8v-1.8l-5.8,3.5h3V128.4z M248.6,194h2.8l2-1.3v-1.5L248.6,194z
						 M253.1,101.6l0.3-0.3v-1.5l-2.8,1.8H253.1z M253.4,167.2V166l-2,1.3h2V167.2z M253.4,62.7V62l-1.5,0.8L253.4,62.7L253.4,62.7z
						 M253.4,128.4v-0.3l-0.3,0.3H253.4z M254.6,61.2v1.5h0.3l43.4-25.2h-2.8L254.6,61.2z M254.6,57.9v1.8L293,37.5h-3L254.6,57.9z
						 M254.6,54.9v1.8l32.8-19.2h-3L254.6,54.9z M254.6,51.6v1.8l27.3-15.9h-2.8L254.6,51.6z M254.6,48.6v1.8l22-12.9h-3L254.6,48.6
						z M254.6,45.3v1.8l16.4-9.6h-2.8L254.6,45.3z M254.6,42v1.8l11.1-6.3h-3L254.6,42z M254.6,39v1.8l5.6-3.3h-3L254.6,39z
						 M254.6,101.6H319V63.7h-64.4V101.6z M254.6,128.4h1.3l43.4-25.2h-2.8l-41.9,24.5L254.6,128.4L254.6,128.4z M254.6,126.1
						l39.4-23h-3l-36.3,21.2L254.6,126.1L254.6,126.1z M254.6,122.8l33.8-19.7h-2.8l-31,17.9V122.8z M254.6,119.8l28.5-16.7h-3
						L254.6,118V119.8z M254.6,116.5l23-13.4h-2.8l-20.2,11.6L254.6,116.5L254.6,116.5z M254.6,113.5l17.7-10.3h-3l-14.6,8.6v1.7
						H254.6z M254.6,110.2l12.1-7.1h-3l-9.1,5.3V110.2z M254.6,106.9l6.6-3.8h-2.8l-3.8,2.3L254.6,106.9L254.6,106.9z M255.9,103.1
						h-1.3v0.8L255.9,103.1z M254.6,167.2H319v-37.9h-64.4V167.2z M254.6,193.5v0.5h2.3l43.7-25.2h-3L254.6,193.5z M254.6,190.5v1.5
						l40.4-23.2h-2.8L254.6,190.5z M254.6,187.2v1.8l35.1-20.2h-3L254.6,187.2z M254.6,184.2v1.8l29.5-17.2h-3L254.6,184.2z
						 M254.6,180.9v1.8l24-13.9h-2.8L254.6,180.9z M254.6,177.8v1.8l18.7-10.9h-3L254.6,177.8z M254.6,174.8v1.5l13.1-7.6H265
						L254.6,174.8z M254.6,171.5v1.8l7.8-4.5h-3L254.6,171.5z M254.6,168.8v1.3l2.3-1.3H254.6z M303.9,37.5h-3l-43.7,25.2h3
						L303.9,37.5z M304.9,103.1h-3l-43.4,25.2h2.8L304.9,103.1z M262.2,194l43.7-25.2h-2.8L259.4,194H262.2z M265.5,62.7l43.7-25.2
						h-2.8l-43.7,25.2H265.5z M266.8,128.4l43.7-25.2h-3l-43.7,25.2H266.8z M267.8,194l43.7-25.2h-3L264.7,194H267.8z M271.1,62.7
						l43.7-25.2h-3L268,62.7H271.1z M272.1,128.4l43.7-25.2H313l-43.7,25.2H272.1z M273.3,194l43.7-25.2h-3L270.3,194H273.3z
						 M276.6,62.7L319,38.2v-0.8h-1.8l-43.7,25.2L276.6,62.7L276.6,62.7z M277.6,128.4l41.4-24v-1.3h-0.8l-43.7,25.2h3.1V128.4z
						 M278.6,194l40.4-23.5V169l-43.2,25H278.6z M281.9,62.7L319,41.3v-1.8l-39.9,23.2H281.9z M282.9,128.4l36.1-20.7v-1.8
						l-38.9,22.5H282.9z M284.2,194l34.8-20.2V172l-37.9,22H284.2z M287.5,62.7L319,44.6v-1.8l-34.6,19.9
						C284.4,62.7,287.5,62.7,287.5,62.7z M288.5,128.4l30.5-17.7v-1.8l-33.6,19.4h3.1V128.4z M289.5,194l29.5-17.2v-1.5L286.7,194
						H289.5z M292.8,62.7L319,47.6v-1.8l-29,16.9C290,62.7,292.8,62.7,292.8,62.7z M294,128.4l25-14.4v-1.8l-28,16.2H294z M295,194
						l24-13.9v-1.8L292,194H295z M298.3,62.7L319,50.6v-1.5l-23.7,13.6C295.3,62.7,298.3,62.7,298.3,62.7z M299.3,128.4L319,117
						v-1.8l-22.5,13.1L299.3,128.4L299.3,128.4z M300.6,194l18.4-10.9v-1.5L297.6,194H300.6z M303.6,62.7l15.4-8.8v-1.8l-18.2,10.6
						C300.8,62.7,303.6,62.7,303.6,62.7z M304.9,128.4l14.1-8.1v-1.8l-17.2,9.8h3.1V128.4z M319,186.4v-1.5l-15.9,9.1h2.8L319,186.4
						z M309.2,62.7l9.8-5.8v-1.5l-12.9,7.3H309.2z M310.2,128.4l8.8-5v-1.8l-11.6,6.8H310.2z M311.4,194l7.6-4.3v-1.8l-10.6,6.1
						H311.4z M314.7,62.7l4.3-2.5v-1.8l-7.3,4.3H314.7z M315.7,128.4l3.3-1.8v-1.8l-6.3,3.5h3V128.4z M316.7,194l2.3-1.3V191l-5,3
						H316.7z M319,62.7v-1l-1.8,1H319z M319,128.4v-0.5l-0.8,0.5H319z M320.3,51.6v1.5l25.5-14.9v-0.8h-1.3L320.3,51.6z M320.3,48.3
						v1.8L342,37.5h-3L320.3,48.3z M320.3,45.1v1.8l16.2-9.3h-2.8L320.3,45.1z M320.3,42v1.8l10.9-6.3h-3L320.3,42z M320.3,38.8v1.8
						l5.3-3h-3L320.3,38.8z M320.3,54.7v1.8l25.5-14.9v-1.8L320.3,54.7z M320.3,57.7v1.8l25.5-14.9V43L320.3,57.7z M320.3,61v1.5
						l25.5-14.6v-1.8L320.3,61z M320.3,128.4h16.2v1h-16.2v37.9h25.5V63.7h-25.5v37.9h15.9v1.5h-15.9V128.4z M320.3,180.9v1.8
						l23.7-13.9h-2.8L320.3,180.9z M320.3,177.6v1.8l18.4-10.6h-3L320.3,177.6z M320.3,174.6v1.5l12.9-7.3h-2.8L320.3,174.6z
						 M320.3,171.3v1.8l7.6-4.3h-3L320.3,171.3z M320.3,168.8v1l2-1H320.3z M345.8,170.8v-1.5l-25.5,14.9v1.5L345.8,170.8z
						 M320.3,188.9l25.5-14.9v-1.8l-25.5,14.9V188.9z M320.3,192l25.5-14.9v-1.5l-25.5,14.9V192z M320.3,194h2l23.5-13.6v-1.8
						l-25.5,14.9V194z M322.5,62.7h3l20.2-11.9v-1.5L322.5,62.7z M327.6,194l18.2-10.6v-1.5l-21,12.1H327.6z M328.1,62.7h2.8
						l14.9-8.6v-1.8L328.1,62.7z M333.1,194l12.6-7.3v-1.8L330,194H333.1z M333.4,62.7h3l9.3-5.6v-1.5L333.4,62.7z M338.7,194
						l7.1-4.3v-1.5l-10.1,5.8H338.7z M339,62.7h3l3.8-2.3v-1.8L339,62.7z M344,194l1.8-1v-1.8l-4.5,2.8H344z M344.5,62.7h1.3V62
						L344.5,62.7z"/>
					<path class="st2" d="M358.1,141.5h24.7l43.7-104h-0.3h-43.4V36h42.9L410.9,0.4l1.3-0.5L427.3,36l13.6-33.1l-1-2.5l1.3-0.5
						l0.5,1.3l0.5-1.3l1.3,0.5l-1,2.5L456.1,36l15.1-36.1l1.3,0.5L457.6,36h39.9v1.5h-40.4h-0.3l43.7,104h23.7v1.5H501l10.1,24.2
						h22.7v1.5h-22.2l10.6,25.2h14.6v1h-14.1l15.7,37.4l-1.3,0.5L521.5,195h-27.8l15.7,37.4l-1.3,0.5L492.4,195H391l-15.7,37.9
						l-1.3-0.5l15.7-37.4h-27.8l-15.7,37.9l-1.3-0.5l15.7-37.4h-16.2v-1h16.7l10.6-25.2h-21.5v-1.5h22l10.1-24.2h-24.2L358.1,141.5
						L358.1,141.5z M399.5,171.5l-36.6,21.2l-0.5,1.3h1.8l34.3-19.9L399.5,171.5z M400.8,168.8h-1.5l-34.6,19.7l-1,2.5l36.6-21.2
						L400.8,168.8z M393.7,168.8l-27.3,15.7l-1,2.5l31.6-18.2H393.7z M397.8,175.8L366.5,194h3.3l27-15.9L397.8,175.8z M388.2,168.8
						l-19.9,11.6l-1,2.3l24.2-13.9L388.2,168.8L388.2,168.8z M382.9,168.8l-12.9,7.3l-1,2.5l16.9-9.8H382.9z M377.3,168.8l-5.6,3.3
						l-1,2.3l9.8-5.6H377.3z M396,179.9L372,194h3l19.9-11.6L396,179.9z M373,168.8l-0.5,1.5l2.5-1.5H373z M411.4,143h-0.5
						l-35.6,20.7L374,166l36.6-21.2L411.4,143z M409.9,146.5L374,167.2h3.3l31.6-18.2L409.9,146.5z M405.6,143l-28.8,16.4l-1,2.5
						l32.8-18.9H405.6z M394.2,184.2l-16.9,9.8h3.3l12.6-7.6C393.5,185.7,394,184.9,394.2,184.2z M400,143l-21.5,12.4l-1,2.3
						l25.7-14.6L400,143L400,143z M394.5,143l-14.1,8.1l-1,2.5l18.4-10.6H394.5z M408.1,150.8l-28.5,16.4h3l24.5-14.1L408.1,150.8z
						 M389.2,143l-7.1,4l-1,2.3l11.1-6.3H389.2z M383.9,143l-1,2.3l4-2.3H383.9z M392.5,188.2l-9.6,5.8h3l5.6-3.3L392.5,188.2z
						 M422,117.5l-36.3,21.2l-1,2.3l36.3-21.2L422,117.5z M406.4,154.9l-21.5,12.4h3.3l17.2-9.8L406.4,154.9z M420.5,121.5
						l-34.6,19.9h3l30.5-17.4L420.5,121.5z M423.8,113.2l-36.3,21.2l-1,2.5l36.3-21.2L423.8,113.2z M425.5,109.2l-36.3,21.2l-1,2.3
						l36.3-21.2L425.5,109.2z M388.2,194h2l0.5-1.5L388.2,194z M427.3,104.9L391,126.1l-1,2.5l36.3-21.2L427.3,104.9z M404.8,159.2
						l-14.4,8.1h3.3l10.1-5.8L404.8,159.2z M418.7,125.8l-27.5,15.7h3.3l23.2-13.4L418.7,125.8z M429.1,100.9l-36.6,21.2l-1,2.3
						l36.6-21L429.1,100.9z M491.9,194l-10.6-25.2H402L391.5,194H491.9z M430.8,96.6l-36.6,21.2l-1,2.5l36.6-21.2L430.8,96.6z
						 M432.6,92.5L396,113.7l-1,2.3l36.6-21L432.6,92.5z M403.1,163.2l-7.1,4h3l3-1.5L403.1,163.2z M434.4,88.2l-36.6,21.2l-1,2.5
						l36.6-21.2L434.4,88.2z M417,129.9l-20.2,11.6h3.3l15.9-9.1L417,129.9z M436.1,84.2l-36.6,21.2l-1,2.3l36.6-21L436.1,84.2z
						 M437.9,79.9l-36.6,21.2l-1,2.5l36.3-21.2L437.9,79.9z M439.4,75.9l-36.3,21.2l-1,2.3l36.3-21L439.4,75.9z M415.2,134.2
						l-12.9,7.3h3l8.8-5L415.2,134.2z M446.7,143h-3l-40.6,23.5l-0.5,0.8h2L446.7,143z M440.9,72.3v-0.5l-36.1,21l-1,2.5l36.3-21.2
						L440.9,72.3z M438.2,143l-33.3,19.2l-1,2.5l37.6-21.7H438.2z M439.7,69.3l-33.1,19.4l-1,2.3l34.8-20.2L439.7,69.3z M432.9,143
						l-26.3,15.1l-1,2.3l30.3-17.4L432.9,143L432.9,143z M452.3,143H449l-42.2,24.2h3L452.3,143z M438.7,66.8l-30.3,17.7l-1.3,2.5
						l32.3-18.7L438.7,66.8z M427.3,143l-18.9,10.9l-1,2.5l23.2-13.4H427.3z M413.4,138.2l-5.8,3.3h3.3l1.5-0.8L413.4,138.2z
						 M437.7,64.2l-27.8,16.2l-1,2.3l29.5-16.9L437.7,64.2z M421.8,143l-11.9,6.8l-1,2.3L425,143H421.8z M436.6,61.7l-25,14.4
						l-1,2.5l26.5-15.4L436.6,61.7z M416.5,143l-4.8,2.5l-1,2.5l8.8-5H416.5z M457.6,143h-3l-42.4,24.2h3.3L457.6,143z M435.6,59.2
						l-22.2,12.9l-1,2.3l23.7-13.6L435.6,59.2z M412.9,143l-0.5,0.8l1.8-0.8H412.9z M470,141.5l-28.3-67.7l-28.3,67.7H470z
						 M434.4,56.7l-19.2,11.1l-1,2.5l21-12.1L434.4,56.7z M433.4,54.2L417,63.7c-0.3,0.8-0.8,1.5-1,2.3l18.2-10.3L433.4,54.2z
						 M432.4,51.6l-13.6,7.8l-1,2.5l15.1-8.8L432.4,51.6z M463.1,143h-3.3l-42.2,24.2h3.3L463.1,143z M431.3,49.1l-10.9,6.3l-1,2.3
						l12.4-7.1L431.3,49.1z M430.3,46.6l-8.1,4.5l-1,2.5l9.6-5.6L430.3,46.6z M429.1,44.1l-5,3l-1,2.3l6.8-3.8L429.1,44.1z
						 M468.7,143h-3.3l-42.2,24.2h3L468.7,143z M428.1,41.5l-2.5,1.3l-1,2.5l4.3-2.5L428.1,41.5z M427.3,39.3l-1,1.8l1.3-0.8
						L427.3,39.3z M432.9,37.5h-3.3l-1.5,0.8l0.8,1.5L432.9,37.5z M454.8,36L441.7,4.4L428.6,36H454.8z M471.2,144.5l-0.8-1.5
						l-41.9,24.2h3.3L471.2,144.5z M438.4,37.5h-3.3l-5.8,3.3l0.5,1.5L438.4,37.5z M443.7,37.5h-3l-10.3,5.8l0.5,1.5L443.7,37.5z
						 M449.3,37.5H446l-14.6,8.3l0.5,1.5L449.3,37.5z M454.6,37.5h-3l-19.2,10.9l0.8,1.5L454.6,37.5z M454.1,40.8l1-2.5l-21.7,12.6
						l0.8,1.5L454.1,40.8z M472.2,147l-0.5-1.5l-37.6,21.7h3L472.2,147z M452.5,45.1l1-2.5l-18.9,10.9l0.5,1.5L452.5,45.1z
						 M450.8,49.1l1-2.5l-16.2,9.3l0.5,1.5L450.8,49.1z M449,53.4l1-2.5l-13.4,7.8l0.5,1.3L449,53.4z M447.2,57.4
						c0.3-0.8,0.8-1.8,1-2.5l-10.6,6.3l0.8,1.3L447.2,57.4z M445.5,61.7l1-2.5l-7.8,4.5l0.8,1.5L445.5,61.7z M473.2,149.6l-0.5-1.5
						l-33.3,19.2h3.3L473.2,149.6z M443.7,65.8l1-2.5l-4.8,3l0.5,1.5L443.7,65.8z M441.9,70.1l1-2.5l-2,1.3l0.5,1.5L441.9,70.1z
						 M464.9,60l-0.8-1.5L443,70.6l-0.5,1.8v0.5L464.9,60z M465.9,62.5l-0.8-1.5L443,73.8l0.8,1.5L465.9,62.5z M463.1,55.9
						l-18.4,10.6l-1,2.3l20.2-11.4L463.1,55.9z M466.9,65l-0.5-1.5L444,76.4l0.8,1.5L466.9,65z M474.5,152.1l-0.8-1.5L445,167.2h3
						L474.5,152.1z M467.9,67.5l-0.5-1.5l-22.2,12.9l0.5,1.5L467.9,67.5z M462.1,53.4l-15.7,8.8l-1,2.5l17.2-9.8L462.1,53.4z
						 M469.2,70.1l-0.8-1.5l-22.2,12.9l0.5,1.5L469.2,70.1z M461.1,50.9l-12.9,7.3l-1,2.3l14.4-8.3L461.1,50.9z M470.2,72.6
						l-0.8-1.5L447.2,84l0.8,1.5L470.2,72.6z M471.2,75.1l-0.8-1.5l-22.2,12.9L449,88L471.2,75.1z M459.9,48.3l-9.8,5.6l-1,2.5
						l11.6-6.8L459.9,48.3z M472.2,77.6l-0.5-1.5L449.3,89l0.8,1.5L472.2,77.6z M475.5,154.6l-0.8-1.5l-24.5,14.1h3.3L475.5,154.6z
						 M473.2,80.2l-0.5-1.5l-22.2,12.9L451,93L473.2,80.2z M458.9,45.6l-7.1,4.3l-1,2.3l8.8-5L458.9,45.6z M474.5,82.7l-0.8-1.5
						L451.5,94l0.5,1.5L474.5,82.7z M457.8,43l-4.3,2.5l-1,2.5l5.8-3.5L457.8,43z M475.5,85.2l-0.8-1.5l-22.2,12.9l0.8,1.5
						L475.5,85.2z M476.5,87.7l-0.5-1.5l-22.5,13.1l0.8,1.3L476.5,87.7z M456.8,40.5l-1.5,1l-1,2.3l3-1.8L456.8,40.5z M477.5,90.2
						L477,89l-22.2,12.9l0.5,1.3L477.5,90.2z M478.5,92.8l-0.5-1.3l-22.2,12.9l0.5,1.5L478.5,92.8z M476.5,157.1l-0.8-1.5
						l-19.9,11.6h3.3L476.5,157.1z M456.1,39.3v0.5l0.3-0.3L456.1,39.3z M479.8,95.5L479,94l-22.2,12.9l0.5,1.5L479.8,95.5z
						 M480.8,98.1l-0.8-1.5l-22.2,12.9l0.8,1.5L480.8,98.1z M481.8,100.6l-0.5-1.5L458.9,112l0.8,1.5L481.8,100.6z M482.8,103.1
						l-0.5-1.5l-22.2,12.9l0.5,1.5L482.8,103.1z M483.8,105.6l-0.5-1.5L461.1,117l0.5,1.5L483.8,105.6z M477.5,159.7l-0.5-1.3
						l-15.7,8.8h3L477.5,159.7z M485.1,108.2l-0.8-1.5l-22.2,12.9l0.5,1.5L485.1,108.2z M486.1,110.7l-0.8-1.5l-22.2,12.9l0.8,1.5
						L486.1,110.7z M487.1,113.2l-0.5-1.5l-22.5,12.9l0.8,1.5L487.1,113.2z M488.1,115.7l-0.5-1.5l-22.2,12.9l0.5,1.5L488.1,115.7z
						 M489.1,118.3l-0.5-1.5l-22.2,12.9l0.5,1.5L489.1,118.3z M478.5,162.2c-0.3-0.5-0.3-0.8-0.5-1.3l-11.4,6.3h3.3L478.5,162.2z
						 M490.4,120.8l-0.8-1.5l-22.2,12.9l0.5,1.5L490.4,120.8z M491.4,123.3l-0.8-1.5l-22.2,12.9l0.8,1.5L491.4,123.3z M492.4,125.8
						l-0.5-1.5l-22.5,13.1l0.8,1.3L492.4,125.8z M493.4,128.4l-0.5-1.5L470.7,140l0.5,1.3L493.4,128.4z M472,143l0.3,1l1.8-1H472z
						 M479.8,165l-0.8-1.5l-6.8,3.8h3L479.8,165z M476.3,143l-3.5,2l0.5,1.5l6.3-3.5H476.3z M494.7,130.9l-0.8-1.3l-21,11.9h3.3
						L494.7,130.9z M481.8,143l-8.1,4.5l0.8,1.5l10.3-6.1h-3V143z M487.1,143l-12.4,7.1l0.8,1.5l14.9-8.6H487.1z M492.7,143
						l-16.7,9.6l0.5,1.5L496,143H492.7z M499.5,143h-1.3L477,155.1l0.5,1.5l22.5-12.9L499.5,143z M480.8,167.2l-0.8-1.3l-2.5,1.3
						H480.8z M500.3,144.8L478,157.6l0.8,1.5l22.2-12.9L500.3,144.8z M495.7,133.4l-0.8-1.3l-16.4,9.3h3L495.7,133.4z M501.3,147.3
						l-22.2,12.9l0.8,1.5l22.2-12.9L501.3,147.3z M502.5,149.8L480,162.7l0.8,1.5l22.2-12.9L502.5,149.8z M503.5,152.3l-22.2,12.9
						l0.5,1.5l22.2-12.9L503.5,152.3z M482.6,168.8l0.3,0.5l1.3-0.5H482.6z M505.3,156.4l-0.8-1.5L483,167.3h3.3L505.3,156.4z
						 M486.4,168.8l-3,1.5l0.8,1.5l5.6-3H486.4z M496.7,136.2l-0.8-1.5l-12.1,6.8h3.3L496.7,136.2z M491.7,168.8l-7.3,4l0.8,1.5
						l9.8-5.6h-3.3V168.8z M497.2,168.8l-11.6,6.6l0.5,1.5l14.4-8.1H497.2z M502.8,168.8l-16.2,9.3l0.5,1.3l18.7-10.6H502.8z
						 M510.4,168.8h-2.3l-20.4,11.9l0.5,1.3l22.5-12.9L510.4,168.8z M506.3,158.9l-0.8-1.5l-16.9,9.8h3L506.3,158.9z M510.9,170.3
						l-22.2,12.9l0.8,1.5l22.2-13.1L510.9,170.3z M497.7,138.7l-0.5-1.5l-7.8,4.3h3.3L497.7,138.7z M512.1,172.8l-22.5,12.9l0.8,1.5
						l22.2-12.9L512.1,172.8z M513.1,175.3l-22.2,12.9l0.5,1.5l22.2-12.9L513.1,175.3z M514.1,177.8l-22.2,12.9l0.5,1.5l22.2-12.9
						L514.1,177.8z M515.9,181.9l-0.8-1.5l-22.2,12.9l0.3,0.8h1.8L515.9,181.9z M507.3,161.4l-0.5-1.5l-12.9,7.3h3.3L507.3,161.4z
						 M498.7,141.2l-0.5-1.5l-3.3,1.8h3L498.7,141.2z M516.9,184.4l-0.8-1.5L497.2,194h3.3L516.9,184.4z M508.3,164l-0.5-1.5
						l-8.3,4.8h3L508.3,164z M517.9,186.9l-0.5-1.5l-14.6,8.6h3L517.9,186.9z M509.3,166.5l-0.5-1.5l-4,2.3h3.3L509.3,166.5z
						 M518.9,189.5l-0.5-1.5l-10.3,6.1h3.3L518.9,189.5z M519.9,192l-0.5-1.5l-5.8,3.5h3L519.9,192z M521,194l-0.5-1l-1.5,1H521z"/>
					<path class="st2" d="M685.8,37.5h-13.6V194h14.1v1h-13.9l10.3,14.1l-1.3,0.5l-9.3-12.9v35.8h-1.5V195h-24.5l18.9,26.3l-1,0.5
						l-18.7-25.2v36.1h-1V195H556v37.6h-1.5V196l-19.7,27l-1-0.8l19.9-27.3h-24.5v37.6h-1v-36.3l-9.8,13.4l-1.3-0.5l10.3-14.1h-15.9
						v-1h16.7V37.5h-19.4V36h19.4l-7.6-10.1l1-0.8l6.6,8.8V1.4h1v34.3l0.5,0.3h24.7L534.8,9l1-0.8L554.5,34V1.4h1.5v34.3l0.3,0.3
						h88.1V1.4h1v33.3l19.4-26.3l1,0.8L646.2,36h24.5V1.4h1.5v33.1l6.8-9.3l1,0.8l-7.6,10h13.4L685.8,37.5L685.8,37.5z M529.8,38.2
						l-0.5,0.3v1.8l1.5-0.8L529.8,38.2z M531.6,40.5l-2.3,1.3v1.8l3-1.8L531.6,40.5z M533.1,42.8l-3.8,2v1.8l4.8-2.5L533.1,42.8z
						 M534.6,45.1l-5.3,3v1.8l6.3-3.5L534.6,45.1z M536.4,47.1l-7.1,4v1.8l8.1-4.5L536.4,47.1z M537.9,49.4l-8.6,5v1.8l9.6-5.6
						L537.9,49.4z M539.6,51.6l-10.3,5.8v1.8l11.1-6.3L539.6,51.6z M541.2,53.9l-11.9,6.8v1.8l12.9-7.3L541.2,53.9z M542.7,55.9
						l-13.4,7.8v1.8l14.4-8.1L542.7,55.9z M544.4,58.2L529.3,67v1.8l16.2-9.3L544.4,58.2z M545.9,60.5l-16.7,9.6v1.8L547,61.7
						L545.9,60.5z M547.7,62.7l-18.4,10.6v1.8L548.5,64L547.7,62.7z M549.2,65l-19.9,11.4v1.8l21-11.9L549.2,65z M551,67l-21.7,12.6
						v1.8l22.5-13.1L551,67z M552.5,69.3l-23.2,13.4v1.8l24.2-13.9L552.5,69.3z M554.5,72.3l-0.5-0.8L529.3,86v1.8l25.2-14.6V72.3z
						 M554.5,74.3L529.3,89v1.8l25.2-14.6V74.3z M554.5,77.6l-25.2,14.6V94l25.2-14.6V77.6z M554.5,80.7l-25.2,14.6v1.8l25.2-14.6
						V80.7z M554.5,83.9l-25.2,14.6v1.8l25.2-14.6V83.9z M554.5,87l-25.2,14.6v1.8l25.2-14.6V87z M554.5,90.2l-25.2,14.6v1.8
						L554.5,92V90.2z M554.5,93.3l-25.2,14.6v1.8L554.5,95V93.3z M554.5,96.6l-25.2,14.6v1.8l25.2-14.6V96.6z M554.5,99.6
						l-25.2,14.6v1.8l25.2-14.6V99.6z M554.5,102.9l-25.2,14.6v1.8l25.2-14.6V102.9z M554.5,105.9l-25.2,14.6v1.8l25.2-14.6V105.9z
						 M554.5,109.2l-25.2,14.6v1.8l25.2-14.6V109.2z M554.5,112.2l-25.2,14.6v1.8l25.2-14.6V112.2z M554.5,115.5l-25.2,14.6v1.8
						l25.2-14.6V115.5z M554.5,118.5l-25.2,14.6v1.8l25.2-14.6V118.5z M554.5,121.8l-25.2,14.6v1.8l25.2-14.6V121.8z M554.5,124.8
						l-25.2,14.6v1.8l25.2-14.6V124.8z M554.5,128.1l-25.2,14.6v1.8l25.2-14.6V128.1z M554.5,131.1l-25.2,14.6v1.8l25.2-14.6V131.1z
						 M554.5,134.4L529.3,149v1.8l25.2-14.6V134.4z M554.5,137.5l-25.2,14.6v1.8l25.2-14.6V137.5z M554.5,140.7l-25.2,14.6v1.8
						l25.2-14.6V140.7z M554.5,143.8l-25.2,14.6v1.8l25.2-14.6V143.8z M554.5,147l-25.2,14.6v1.8l25.2-14.6V147z M554.5,150.1
						l-25.2,14.6v1.8l25.2-14.6V150.1z M554.5,153.4L529.3,168v1.8l25.2-14.6V153.4z M554.5,158.2v-1.8L529.3,171v1.8l25.2-14.4
						V158.2z M553,160.7l-23.7,13.6v1.8l21.2-12.4L553,160.7z M549,166l-19.7,11.4v1.8l17.2-9.8L549,166z M544.9,171.5l-15.7,9.1
						v1.8l13.1-7.6L544.9,171.5z M540.9,177.1l-11.6,6.6v1.8l9.1-5L540.9,177.1z M536.9,182.6l-7.6,4.3v1.8l5-3L536.9,182.6z
						 M532.8,188.2l-3.5,1.8v1.8l1-0.5L532.8,188.2z M554.5,180.4v-1.8L531.3,192l-1.3,2h1.3L554.5,180.4z M531.3,37.5l-0.5,0.3
						l1,1.3l2.8-1.5L531.3,37.5L531.3,37.5z M536.9,37.5l-4.3,2.3l1,1.5l6.6-3.8H536.9z M554.5,175.3l-19.2,11.1l-2.3,3.3l21.5-12.6
						V175.3z M554.5,183.4v-1.8l-21,12.4h3.3L554.5,183.4z M542.4,37.5l-8.3,4.5l1,1.3l10.3-5.8H542.4z M547.7,37.5l-11.9,6.8
						c0.3,0.5,0.5,0.8,0.8,1.3l14.4-8.1H547.7z M554.5,172.3l-15.1,8.6l-2.3,3.3l17.4-10.1L554.5,172.3L554.5,172.3z M554.5,38.2
						v-0.8h-1.3l-15.9,9.1l1,1.3L554.5,38.2z M554.5,41.5v-1.8l-15.4,9.1l0.8,1.3C544.7,47.3,549.7,44.3,554.5,41.5z M554.5,186.7
						v-1.8l-15.4,9.1h3L554.5,186.7z M554.5,44.6v-1.8l-13.9,8.1l1,1.3L554.5,44.6z M554.5,169l-11.1,6.6l-2.3,3l13.4-7.8L554.5,169
						L554.5,169z M554.5,47.8V46l-12.4,7.1l1,1.3L554.5,47.8z M554.5,50.9v-1.8l-10.6,6.3l1,1.3L554.5,50.9z M554.5,189.7v-1.8
						l-10.1,6.1h3.3L554.5,189.7z M554.5,166l-7.1,4l-2.3,3.3l9.3-5.6L554.5,166L554.5,166z M554.5,54.2v-1.8l-9.1,5.3l1,1.3
						L554.5,54.2z M554.5,57.2v-1.8l-7.3,4.3l0.8,1.5L554.5,57.2z M554.5,60.5v-1.8l-5.8,3.3l1,1.3L554.5,60.5z M554.5,162.7l-3,1.8
						l-2.3,3.3l5.3-3.3V162.7z M554.5,193v-1.8L550,194h3L554.5,193z M554.5,63.5v-1.8l-4.3,2.5l1,1.3
						C552.3,64.8,553.5,64.2,554.5,63.5z M554.5,66.8V65l-2.5,1.5l1,1.3L554.5,66.8z M554.5,160.4l-1.3,1.8l1.3-0.8V160.4z
						 M554.5,69.8V68l-1,0.8l1,1.3V69.8z M556.5,38.5L556,39v1.8l1.5-0.8L556.5,38.5z M558.1,40.8l-2,1.3v2l3-2L558.1,40.8z
						 M559.8,43l-3.8,2.3v1.8l4.5-2.8L559.8,43z M561.3,45.3l-5.3,3v2l6.3-3.8L561.3,45.3z M563.1,47.6l-7.1,4v1.8l7.8-4.5
						L563.1,47.6z M564.6,49.6c-2.8,1.8-5.8,3.3-8.6,5v2l9.6-5.8L564.6,49.6z M566.1,51.9l-10.1,6v1.8l11.1-6.6L566.1,51.9z
						 M567.9,54.2L556,61v2l12.9-7.6L567.9,54.2z M569.4,56.4L556,64.2V66l14.4-8.3L569.4,56.4z M571.2,58.4L556,67.3v2l15.9-9.3
						L571.2,58.4z M573.7,62l-1-1.3L556,70.6v1.3l0.3,0.3L573.7,62z M586.1,115.5l-30-41.4v82.5L586.1,115.5z M556,192.2l43.2-58.8
						l-12.4-16.9L556,158.7V192.2z M643.6,194L600,134.4L556.3,194H643.6z M575.2,64.2l-1-1.3L556.8,73l1,1.3L575.2,64.2z
						 M637.8,45.1l1.8-2.3l2.3-3l1.8-2.3h-86.6l43.2,58.8l33.6-45.7l1.8-2.3L637.8,45.1z M577,66.5l-1-1.3l-17.4,10.1l0.8,1.3
						L577,66.5z M578.5,68.8l-1-1.3l-17.4,10.1l1,1.3L578.5,68.8z M580,71.1l-0.8-1.5l-17.7,10.1l1,1.5L580,71.1z M581.8,73.1
						l-1-1.3l-17.4,10.1l1,1.3L581.8,73.1z M583.3,75.4l-0.8-1.3l-17.7,10.1l1,1.3L583.3,75.4z M585.1,77.6l-1-1.3l-17.4,10.1
						l0.8,1.3L585.1,77.6z M586.6,79.9l-1-1.3l-17.4,10.1l1,1.3L586.6,79.9z M588.4,81.9l-1-1.3L570,90.7l0.8,1.5L588.4,81.9z
						 M589.9,84.2l-1-1.3L571.4,93l1,1.3L589.9,84.2z M591.4,86.5l-0.8-1.3L573,95.3l1,1.3L591.4,86.5z M593.2,88.7l-1-1.3
						l-17.4,10.1l1,1.3L593.2,88.7z M594.7,91l-1-1.5l-17.4,10.3l1,1.3L594.7,91z M596.4,93l-1-1.3L578,101.9l0.8,1.3L596.4,93z
						 M597.9,95.3l-1-1.3l-17.4,10.1l1,1.3L597.9,95.3z M599.2,97.8l0.3-0.5l-0.8-1l-17.4,10.1l0.8,1.3L599.2,97.8z M595.2,103.4
						l2.3-3.3l-14.6,8.6l1,1.3L595.2,103.4z M591.1,108.9l2.3-3.3l-9.1,5l1,1.5L591.1,108.9z M587.1,114.2l2.3-3l-3.3,1.8
						L587.1,114.2z M606,106.4l-1-1.3l-16.9,9.8l-0.3,0.5l0.8,1L606,106.4z M607.8,108.7l-1-1.3l-17.4,10.1l0.8,1.3L607.8,108.7z
						 M603.5,102.9l-11.4,6.6l-2.5,3.3l14.9-8.6L603.5,102.9z M609.3,110.9l-1-1.5l-17.4,10.3l1,1.3L609.3,110.9z M610.8,113
						l-0.8-1.3l-17.7,10.1l1,1.3L610.8,113z M602,100.6l-5.8,3.5l-2.5,3l9.1-5.3L602,100.6z M612.6,115.2l-1-1.3L594.2,124l1,1.3
						L612.6,115.2z M608.5,120.8l2.3-3.3l-15.1,8.8l1,1.3L608.5,120.8z M604.5,126.3l2.3-3.3l-9.3,5.6l0.8,1.3L604.5,126.3z
						 M600.2,98.6l-2.5,3.3l3.5-2L600.2,98.6z M600.5,131.6l2.3-3l-3.8,2l1,1.5L600.5,131.6z M644.4,158.7l-31-42.4l-1.8,2.8
						l-1.8,2.3l-0.3,0.3l-2.3,3h0.3l-1.8,2.3h-0.3l-2.3,3.3h0.3l-1.8,2.3h-0.3l-0.5,1l43.4,59.3v-34.2H644.4z M640.9,76.6l2.5-3
						l-41.9,24.2l0.8,1.3L640.9,76.6z M644.4,71.6v-1.8L604.3,93l-2.5,3.3L644.4,71.6z M636.8,82.2l2.5-3l-36.3,21l1,1.3L636.8,82.2
						z M632.8,87.7l2.5-3.3l-30.8,17.9l1,1.3L632.8,87.7z M644.4,68.5v-1.8l-36.1,20.7l-2.5,3.3L644.4,68.5z M628.7,93.3l2.5-3.3
						l-25,14.4l1,1.3L628.7,93.3z M624.7,98.8l2.5-3.3l-19.4,11.1l1,1.3L624.7,98.8z M620.7,104.1l2.5-3l-13.6,7.8l0.8,1.3
						L620.7,104.1z M644.4,65.3v-1.8l-32.1,18.4l-2.5,3.3L644.4,65.3z M616.6,109.7l2.3-3.3l-7.8,4.8l1,1.3L616.6,109.7z
						 M613.3,114.2l1.5-2.3l-2.3,1.3L613.3,114.2z M644.4,62.2v-1.8l-28,16.2l-2.5,3L644.4,62.2z M644.4,156.6V74.3l-0.8,0.8
						l-1.5,2.3l-2.5,3.3l-1.5,2.3h-0.3l-2.3,3.3l-1.5,2.3h-0.3l-2.3,3.3v-0.3l-1.5,2.3l-0.3,0.3l-2.3,3l-1.5,2.3h-0.3l-2.3,3.3
						l-1.5,2.3h-0.3l-2.3,3.3l-1.5,2.3h-0.3L615,114v-0.3l-1.3,1.8L644.4,156.6z M644.4,58.9v-1.8l-24,13.9l-2.5,3.3L644.4,58.9z
						 M644.4,55.9v-1.8l-19.9,11.4l-2.5,3.3L644.4,55.9z M644.4,52.6v-1.8L628.5,60l-2.3,3.3L644.4,52.6z M644.4,49.6v-1.8
						l-11.9,6.8l-2.3,3C635.1,54.9,639.6,52.4,644.4,49.6z M644.4,46.3v-1.8l-7.8,4.5l-2.3,3.3L644.4,46.3z M644.4,43.3v-1.8l-3.8,2
						l-2.3,3.3L644.4,43.3z M644.4,40v-1.5l-2,2.8L644.4,40z M669.4,38.2l0.5-0.8h-2.3L645.4,50v1.8L669.4,38.2z M662.1,37.5
						l-16.7,9.6v1.8l19.9-11.4H662.1z M656.8,37.5l-11.4,6.3v1.8l14.4-8.1H656.8z M651.2,37.5l-5.8,3.3v1.8l9.1-5L651.2,37.5
						L651.2,37.5z M645.9,37.5h-0.5v1.8l3.5-1.8H645.9z M665.3,43.8l2.3-3.3l-22.2,12.9v1.8L665.3,43.8z M661.3,49.4l2.3-3.3
						l-18.2,10.3v1.8L661.3,49.4z M657.3,54.7l2.3-3l-14.1,8.1v1.8L657.3,54.7z M653,60.2l2.5-3.3l-10.1,5.8v1.8L653,60.2z
						 M670.6,59.5v-1.8l-24.5,14.4l-0.8,0.5v1.5L670.6,59.5z M670.6,62.7v-2l-25.2,14.6v1.8L670.6,62.7z M648.9,65.8
						c0.8-1,1.8-2.3,2.5-3.3l-6.1,3.5v1.8L648.9,65.8z M670.6,65.8V64l-25.2,14.6v1.8L670.6,65.8z M670.6,69v-2l-25.2,14.6v1.8
						L670.6,69z M645.4,70.6l2-2.5l-2,1V70.6z M670.6,72.1v-1.8l-25.2,14.6v1.8L670.6,72.1z M670.6,75.4v-2L645.4,88v1.8L670.6,75.4
						z M670.6,78.4v-1.8l-25.2,14.6V93L670.6,78.4z M670.6,81.7v-2l-25.2,14.6v1.8L670.6,81.7z M670.6,84.7v-1.8l-25.2,14.6v1.8
						L670.6,84.7z M670.6,88v-2l-25.2,14.6v1.8L670.6,88z M670.6,91v-1.8l-25.2,14.6v1.8L670.6,91z M670.6,94.3v-2l-25.2,14.6v1.8
						L670.6,94.3z M670.6,97.3v-1.8l-25.2,14.6v1.8L670.6,97.3z M670.6,100.6v-2l-25.2,14.6v1.8L670.6,100.6z M670.6,103.6v-1.8
						l-25.2,14.6v1.8L670.6,103.6z M670.6,106.9v-2l-25.2,14.6v1.8L670.6,106.9z M670.6,109.9v-1.8l-25.2,14.6v1.8L670.6,109.9z
						 M670.6,113.2v-2l-25.2,14.6v1.8L670.6,113.2z M670.6,116.2v-1.8L645.4,129v1.8L670.6,116.2z M670.6,119.5v-2l-25.2,14.6v1.8
						L670.6,119.5z M670.6,122.6v-1.8l-25.2,14.6v1.8L670.6,122.6z M670.6,125.8v-2l-25.2,14.6v1.8L670.6,125.8z M670.6,128.9v-1.8
						l-25.2,14.6v1.8L670.6,128.9z M670.6,132.2v-2l-25.2,14.6v1.8L670.6,132.2z M670.6,135.2v-1.8L645.4,148v1.8L670.6,135.2z
						 M670.6,138.5v-2l-25.2,14.6v1.8L670.6,138.5z M670.6,141.5v-1.8l-25.2,14.6v1.8L670.6,141.5z M670.6,144.8v-2l-25.2,14.6v0.8
						l0.8,0.8L670.6,144.8z M645.7,160.4l-0.3,0.3v1.8l1.3-0.5L645.7,160.4z M647.2,162.7l-1.8,1v1.8l2.8-1.5L647.2,162.7z
						 M648.9,165l-3.5,2v1.8l4.3-2.5L648.9,165z M650.5,167.2l-5,2.8v1.8l6.1-3.3L650.5,167.2z M652.2,169.5l-6.8,3.8v1.8l7.6-4.3
						L652.2,169.5z M653.7,171.5l-8.3,4.8v1.8l9.3-5.3L653.7,171.5z M655.2,173.8l-9.8,5.8v1.8l10.9-6.3L655.2,173.8z M657,176.1
						l-11.6,6.6v1.8l12.6-7.1L657,176.1z M658.5,178.3l-13.1,7.6v1.8l14.1-8.1L658.5,178.3z M660.3,180.4l-14.9,8.6v1.8l15.7-8.8
						L660.3,180.4z M662.8,183.9l-1-1.3l-16.4,9.6v1.8h0.3L662.8,183.9z M670.6,147.8V146l-24,13.9l1,1.3L670.6,147.8z M670.6,56.4
						v-2l-20.4,12.1l-2.5,3L670.6,56.4z M664.3,186.2l-0.8-1.3l-15.7,9.1h3.3L664.3,186.2z M670.6,151.1v-2l-22.2,13.1l0.8,1.3
						L670.6,151.1z M670.6,154.1v-1.8l-20.7,11.9l1,1.5L670.6,154.1z M670.6,53.1v-1.8L654.2,61l-2.5,3.3L670.6,53.1z M670.6,157.4
						v-2l-18.9,11.1l0.8,1.3L670.6,157.4z M670.6,160.4v-1.8l-17.4,10.1c0.3,0.5,0.8,0.8,1,1.3L670.6,160.4z M666.1,188.4l-1-1.3
						l-11.6,6.8h3.3L666.1,188.4z M670.6,163.7v-2l-15.9,9.3l1,1.3L670.6,163.7z M670.6,50.1v-2l-12.4,7.3l-2.5,3.3L670.6,50.1z
						 M670.6,166.7V165l-14.1,8.3l1,1.3L670.6,166.7z M670.6,170v-2l-12.6,7.3l1,1.5L670.6,170z M667.6,190.7l-1-1.3l-7.8,4.5h3.3
						L667.6,190.7z M670.6,46.8V45l-8.3,4.8l-2.5,3.3L670.6,46.8z M670.6,173v-1.8l-10.9,6.3c0.3,0.5,0.5,0.8,0.8,1.3L670.6,173z
						 M670.6,176.3v-2l-9.3,5.6l1,1.3L670.6,176.3z M670.6,179.4v-1.8l-7.8,4.5l1,1.3L670.6,179.4z M670.6,43.8v-2l-4.3,2.8l-2.5,3
						L670.6,43.8z M669.4,193l-1-1.5l-4,2.5h3.3L669.4,193z M670.6,182.6v-2l-6.1,3.8l1,1.3L670.6,182.6z M670.6,185.7v-1.8
						l-4.5,2.5l1,1.3L670.6,185.7z M670.6,40.5v-1.8l-0.3,0.3l-2.5,3L670.6,40.5z M670.6,188.9v-2l-2.8,1.8c0.3,0.5,0.5,0.8,0.8,1.3
						L670.6,188.9z M670.6,192v-1.8l-1.3,0.8l1,1.3L670.6,192z"/>
					<path class="st2" d="M938.7,37.5h-5.3L870,193.8l0.3,0.3H912v1h-41.1l14.9,37.1l-1.3,0.5l-14.9-37.4l-13.9,34.3l1.5,4.3l-1,0.5
						l-1.3-3l-1,2.3l-1-0.5l1.3-3.5l-13.9-34.3L825.7,232l-1.3-0.3L839,195h-41.4l14.9,37.1l-1.3,0.5l-14.9-37.4l-13.9,34.3l1.5,4.3
						l-1,0.5l-1.3-3l-1,2.3l-1-0.5l1.3-3.5L767,195.3l-14.6,36.6l-1.3-0.3l14.6-36.6h-47.5v-1h48l0.3-0.3L707,46.6l-0.3-1.3
						l-0.8-1.5l-0.3-1l-0.8-1.5l-0.5-1l-0.5-1.5l-0.5-1v-0.3h-10.6V36H703L689.8,3.7l1.3-0.5L704.2,36H732L718.1,1.9l1.3-0.3
						L733.2,36h42.9L763,3.7l1.3-0.5L777.4,36h27.8L791.3,1.9l1.3-0.3L806.5,36h23.7l14.1-34.8l1.3,0.5L831.4,36h27.8l13.6-33.3
						l1,0.5L860.7,36h42.7l14.1-34.8l1.3,0.5L904.6,36h27.8L946,2.7l1,0.5L933.9,36h4.8V37.5z M706.5,37.5l-1.5,0.8l0.8,1.5l3.8-2.3
						H706.5z M711.8,37.5l-5.6,3.3l0.5,1.5l8.3-4.8H711.8z M717.3,37.5l-10.1,5.8l0.5,1.5l12.9-7.3H717.3z M722.9,37.5l-14.6,8.3
						l0.5,1.5l17.2-9.8H722.9z M728.2,37.5l-18.9,10.9l0.5,1.5l21.7-12.4H728.2z M733.2,39.5l-0.5-1.5l-22.5,12.9l0.5,1.5
						L733.2,39.5z M734.3,42l-0.5-1.5l-22.5,12.9l0.5,1.5L734.3,42z M735.3,44.6l-0.5-1.5l-22.5,13.1l0.5,1.3L735.3,44.6z
						 M736.3,47.1l-0.5-1.5l-22.5,13.1l0.8,1.5L736.3,47.1z M737.5,49.6l-0.8-1.5l-22.5,13.1l0.8,1.5L737.5,49.6z M738.5,52.1
						l-0.8-1.5l-22.5,13.1l0.8,1.5L738.5,52.1z M739.6,54.7l-0.8-1.3l-22.5,12.9l0.8,1.5L739.6,54.7z M740.6,57.4l-0.8-1.5
						l-22.2,12.9l0.5,1.5L740.6,57.4z M741.6,60l-0.5-1.5l-22.5,12.9l0.5,1.5L741.6,60z M742.6,62.5l-0.5-1.5l-22.5,12.9l0.5,1.5
						L742.6,62.5z M743.6,65l-0.5-1.5l-22.5,13.1l0.5,1.5L743.6,65z M744.6,67.5l-0.5-1.5l-22.5,13.1l0.5,1.5L744.6,67.5z
						 M745.6,70.1l-0.5-1.5l-22.5,13.1l0.5,1.5L745.6,70.1z M746.6,72.6l-0.5-1.5l-22.5,13.1l0.5,1.5L746.6,72.6z M747.6,75.4
						l-0.5-1.5l-22.5,12.9l0.8,1.5L747.6,75.4z M748.9,77.9l-0.8-1.5l-22.5,12.9l0.8,1.5L748.9,77.9z M749.9,80.4l-0.8-1.5
						l-22.5,12.9l0.8,1.5L749.9,80.4z M750.9,82.9l-0.8-1.5l-22.5,13.1l0.8,1.3L750.9,82.9z M751.9,85.5l-0.8-1.5L729,97.1l0.5,1.5
						L751.9,85.5z M752.9,88l-0.5-1.5L730,99.6l0.5,1.5L752.9,88z M753.9,90.5l-0.5-1.5L731,102.1l0.5,1.5L753.9,90.5z M755,93
						l-0.5-1.3L732,104.6l0.5,1.5L755,93z M756,95.8l-0.5-1.5L733,107.2l0.5,1.5L756,95.8z M801.4,99.1l-0.3-1l-0.8-1.5l-0.3-1
						l-0.8-1.5l-0.5-1.3h0.3l-0.8-1.3l-0.5-1.3l-0.5-1.5l-0.5-1l-0.5-1.5l-0.5-1l-0.5-1.5l-0.5-1l-0.5-1.5l-0.5-1l-0.5-1.5l-0.5-1
						l-0.5-1.5l-0.5-1v-0.3l-0.5-1.3h-0.3l-0.3-1.3l-0.8-1.5l-0.3-1l-0.8-1.5l-0.3-1l-0.8-1.5l-0.3-1l-0.8-1.5l-0.5-1l-0.5-1.5
						l-0.5-1l-0.5-1.5l-0.5-1l-0.5-1.5l-0.5-1.3l-0.5-1.3l-0.5-1.3l-0.5-1.5l-0.5-1l-0.5-1.5l-0.5-1l-0.5-1.5l-0.5-1l-0.8-1.5
						l-0.3-1l-0.8-1.5l-0.3-1l-0.8-1.5v-0.3h-42.9l48,118.6l21.5-53l-0.5-1.5h-0.3l-0.3-1L801.4,99.1z M757,98.3l-0.5-1.5L734,109.7
						l0.5,1.5L757,98.3z M758,100.9l-0.5-1.5L735,112.2l0.5,1.5L758,100.9z M759,103.4l-0.5-1.5L736,115l0.8,1.3L759,103.4z
						 M760.3,105.9l-0.8-1.5L737,117.5l0.8,1.5L760.3,105.9z M761.3,108.4l-0.8-1.5L738,120l0.8,1.5L761.3,108.4z M762.3,110.9
						l-0.8-1.5L739,122.5l0.8,1.5L762.3,110.9z M763.3,113.5l-0.8-1.3L740,125.1l0.8,1.5L763.3,113.5z M764.3,116.2l-0.5-1.5
						l-22.5,12.9l0.5,1.5L764.3,116.2z M765.3,118.8l-0.5-1.5l-22.5,12.9l0.5,1.5L765.3,118.8z M766.3,121.3l-0.5-1.5l-22.5,12.9
						l0.5,1.5L766.3,121.3z M767.3,123.8l-0.5-1.5l-22.5,13.1l0.5,1.5L767.3,123.8z M768.3,126.3l-0.5-1.5L745.4,138l0.5,1.5
						L768.3,126.3z M769.3,128.9l-0.5-1.5l-22.5,13.1l0.5,1.5L769.3,128.9z M770.4,131.4l-0.5-1.3L747.4,143l0.8,1.5L770.4,131.4z
						 M771.6,134.2l-0.8-1.5l-22.5,12.9l0.8,1.5L771.6,134.2z M772.6,136.7l-0.8-1.5l-22.5,12.9l0.8,1.5L772.6,136.7z M773.6,139.2
						l-0.8-1.5l-22.5,12.9l0.8,1.5L773.6,139.2z M774.6,141.7l-0.8-1.5l-22.5,13.1l0.8,1.3L774.6,141.7z M775.7,144.3l-0.5-1.5
						l-22.5,13.1l0.5,1.5L775.7,144.3z M776.7,146.8l-0.5-1.5l-22.5,13.1l0.5,1.5L776.7,146.8z M777.7,149.3l-0.5-1.5l-22.5,13.1
						l0.5,1.5L777.7,149.3z M778.7,151.8l-0.5-1.3l-22.5,12.9l0.5,1.5L778.7,151.8z M779.7,154.6l-0.5-1.5L756.7,166l0.5,1.5
						L779.7,154.6z M780.7,157.1l-0.5-1.5l-22.5,12.9l0.5,1.5L780.7,157.1z M779.7,160.9l1-2.5l-22,12.6l0.5,1.5L779.7,160.9z
						 M778.2,165l1-2.5l-19.4,11.4l0.8,1.5L778.2,165z M776.4,169l1-2.3l-16.7,9.6l0.8,1.5L776.4,169z M774.9,173.3l0.8-2.5
						l-13.9,8.1l0.8,1.5L774.9,173.3z M773.1,177.3l1-2.5l-11.4,6.6l0.8,1.5L773.1,177.3z M771.4,181.4l1-2.3l-8.3,4.8l0.5,1.5
						L771.4,181.4z M769.9,185.4l1-2.3l-5.8,3.3l0.5,1.5L769.9,185.4z M768.1,189.7l1-2.5l-3,1.8l0.5,1.5L768.1,189.7z M789.5,178.6
						l-20.4,11.9l-0.8,2.3l21.7-12.6L789.5,178.6z M781.7,228.1l13.1-33.1h-1.3v0.3h-2.3V195h-3l-0.3,0.3h-2.3l0.3-0.3h-3.3v0.3
						l-1-0.3h-13.4L781.7,228.1z M791.1,182.6l-0.5-1.5l-22,12.9h3L791.1,182.6z M788.5,176.1l-17.7,10.1l-1,2.5l19.2-11.1
						L788.5,176.1z M787.5,173.5l-14.9,8.6l-1,2.3l16.4-9.3L787.5,173.5z M786.3,171l-12.1,7.1l-1,2.3l13.9-7.8L786.3,171z
						 M792.1,185.2l-0.5-1.5L773.9,194h3.3L792.1,185.2z M785.2,168.2l-9.3,5.6l-1,2.5l11.1-6.6L785.2,168.2z M784.2,165.7l-6.8,4
						l-0.8,2.3l8.3-4.8L784.2,165.7z M777.9,37.5l0.5,1l2-1H777.9z M783.2,163.2l-4,2.5l-1,2.3l5.8-3.3L783.2,163.2z M782.7,37.5
						l-3.8,2l0.5,1.5l6.6-3.5H782.7z M793.1,187.7l-0.5-1.5l-13.1,7.8h3.3L793.1,187.7z M788.3,37.5L780,42l0.5,1.5l10.9-6.1
						L788.3,37.5L788.3,37.5z M782.2,160.7l-1.3,0.8l-1,2.5l3-1.8L782.2,160.7z M793.6,37.5L781,44.8l0.5,1.5l15.4-8.8H793.6z
						 M781.7,159.4l-0.3,0.3h0.3V159.4z M799.1,37.5L782,47.3l0.5,1.5l19.7-11.4L799.1,37.5L799.1,37.5z M817.6,139l-0.5-1.5
						l-34.6,19.9v0.3l0.5,1.3L817.6,139z M805.9,38.2l-0.3-0.8h-1.3L783,49.9l0.8,1.5L805.9,38.2z M816,134.9l-31.8,18.4l-1,2.3
						l33.3-19.2L816,134.9z M816,143l1-2.5l-33.6,19.7l0.5,1.3L816,143z M807.2,40.8l-0.8-1.5L784,52.4l0.8,1.5L807.2,40.8z
						 M814.3,147l1-2.3l-30.8,17.9l0.5,1.5L814.3,147z M808.2,43.5l-0.8-1.5L785,54.9l0.8,1.5L808.2,43.5z M815,132.4l-29.3,16.7
						l-0.8,2.5l30.5-17.7L815,132.4z M794.3,190.2l-0.8-1.3l-8.6,5h3L794.3,190.2z M812.8,151.1l1-2.3l-28.3,16.4l0.5,1.5
						L812.8,151.1z M809.2,46.1l-0.8-1.5L786,57.4l0.8,1.5L809.2,46.1z M814,129.6L787.5,145l-1,2.5l28-16.4L814,129.6z M811,155.4
						l1-2.5l-25.5,14.9l0.5,1.5L811,155.4z M810.2,48.6l-0.8-1.5L787,60l0.8,1.5L810.2,48.6z M809.5,159.4l0.8-2.3l-22.7,13.1
						l0.5,1.5L809.5,159.4z M811.2,51.1l-0.5-1.5l-22.5,13.1l0.5,1.3L811.2,51.1z M812.8,127.1L789.3,141l-1,2.3l25.2-14.6
						L812.8,127.1z M807.7,163.5l1-2.3l-20.2,11.6l0.5,1.5L807.7,163.5z M812.3,53.6l-0.5-1.5l-22.5,13.1l0.5,1.5L812.3,53.6z
						 M805.9,167.7l1-2.5l-17.4,10.1l0.5,1.5L805.9,167.7z M811.8,124.6l-21,12.1l-1,2.5l22.7-13.1L811.8,124.6z M813.3,56.2
						l-0.5-1.5l-22.5,13.1l0.5,1.5L813.3,56.2z M795.3,193l-0.8-1.5l-4.3,2.5h3.3L795.3,193z M804.4,171.8l1-2.3l-14.9,8.3l0.8,1.5
						L804.4,171.8z M814.3,58.7l-0.5-1.5l-22.5,13.1l0.5,1.5L814.3,58.7z M810.7,122.1l-18.2,10.6l-1,2.5l19.9-11.6L810.7,122.1z
						 M802.7,175.8l1-2.3l-12.1,7.1l0.8,1.5L802.7,175.8z M815.3,61.2l-0.5-1.3l-22.5,12.9l0.5,1.5L815.3,61.2z M801.2,180.1l1-2.5
						l-9.6,5.6l0.8,1.5L801.2,180.1z M816.3,64l-0.5-1.5l-22.5,12.9l0.5,1.5L816.3,64z M809.7,119.5l-15.7,9.1l-0.8,2.3l17.2-9.8
						L809.7,119.5z M799.4,184.2l1-2.3l-6.8,3.8l0.8,1.5L799.4,184.2z M817.3,66.5l-0.5-1.5l-22.5,12.9l0.5,1.5L817.3,66.5z
						 M797.6,188.2c0.3-0.8,0.8-1.5,1-2.3c-1.3,0.8-2.8,1.5-4,2.3l0.8,1.5L797.6,188.2z M808.7,117l-12.9,7.3l-1,2.5l14.4-8.3
						L808.7,117z M816.3,70.3l1-2.5l-22,12.6l0.8,1.5L816.3,70.3z M796.4,192l0.8-2l-1.3,0.8L796.4,192z M814.8,74.3l1-2.5
						l-19.4,11.4l0.8,1.3L814.8,74.3z M807.7,114.5l-10.1,5.8l-1,2.5l11.6-6.8L807.7,114.5z M818.3,140.7l-21.5,53l0.3,0.3h42.4
						l0.3-0.3L818.3,140.7z M813,78.4c0.3-0.8,0.8-1.5,1-2.3l-16.7,9.6l0.8,1.5L813,78.4z M806.7,112l-7.6,4.3l-1,2.3l9.1-5.3
						L806.7,112z M811.5,82.4l1-2.3l-14.1,8.1l0.8,1.5L811.5,82.4z M809.7,86.7l1-2.5l-11.1,6.6l0.5,1.5L809.7,86.7z M805.7,109.2
						l-4.8,2.8l-1,2.5l6.3-3.8L805.7,109.2z M808,90.8l1-2.3l-8.3,4.8l0.5,1.5L808,90.8z M806.5,94.8l1-2.3l-5.8,3.3l0.5,1.5
						L806.5,94.8z M804.7,106.7l-2.3,1.3l-0.8,2.5l3.5-2.3L804.7,106.7z M804.7,99.1l1-2.5c-1,0.5-2,1.3-3,1.8l0.5,1.5L804.7,99.1z
						 M803.9,104.6l-0.8,1.5l1-0.5L803.9,104.6z M803.9,101.4l0.3-0.5l-0.5,0.3L803.9,101.4z M827.7,92l-0.5-1.5l-22.5,13.1l0.5,1.5
						L827.7,92z M826.1,88l-20.2,11.6l-1,2.5l21.7-12.6L826.1,88z M828.7,94.5l-0.5-1.5l-22.5,13.1l0.5,1.5L828.7,94.5z M825.1,85.5
						l-17.7,10.1l-1,2.5L825.6,87L825.1,85.5z M829.9,97.1l-0.8-1.5l-22.5,13.1l0.8,1.5L829.9,97.1z M818.3,65.5l11.4-28H807
						L818.3,65.5z M830.9,99.6l-0.8-1.3l-22.5,12.9l0.8,1.5L830.9,99.6z M824.1,82.9l-14.9,8.6l-1,2.3l16.4-9.3L824.1,82.9z
						 M831.9,102.4l-0.8-1.5l-22.5,12.9l0.8,1.5L831.9,102.4z M830.9,105.9l1-2.5l-22.2,12.9l0.8,1.5L830.9,105.9z M823.1,80.4
						l-12.4,7.1l-0.8,2.3l13.6-7.8L823.1,80.4z M829.4,109.9l1-2.3L811,118.8l0.5,1.5L829.4,109.9z M821.8,77.6l-9.3,5.6l-1,2.5
						l11.1-6.6L821.8,77.6z M827.7,114.2l1-2.5l-16.7,9.8l0.5,1.3L827.7,114.2z M826.1,118.3l0.8-2.5l-13.9,8.3l0.5,1.5L826.1,118.3
						z M820.8,75.1l-6.6,4l-1,2.3c2.8-1.5,5.6-3.3,8.3-4.8L820.8,75.1z M824.4,122.3l1-2.3l-11.4,6.6l0.5,1.5L824.4,122.3z
						 M819.8,72.6l-4,2.5l-1,2.3l5.8-3.3L819.8,72.6z M822.6,126.6l1-2.5l-8.6,5l0.5,1.5L822.6,126.6z M821.1,130.6l1-2.5l-6.1,3.5
						l0.5,1.5L821.1,130.6z M818.8,70.1l-1.3,0.8l-1,2.5l3-1.8L818.8,70.1z M819.3,134.7l1-2.3l-3.3,1.8l0.5,1.5L819.3,134.7z
						 M818.3,68.8l-0.3,0.3h0.5L818.3,68.8z M818.3,137.5l0.3-1l-0.5,0.3L818.3,137.5z M854.4,48.1l1-2.3l-36.3,21V67l0.5,1.3
						L854.4,48.1z M841.5,126.3L819,139.2l0.8,1.5l22.5-12.9L841.5,126.3z M840.5,123.8l-19.9,11.6l-1,2.3l21.5-12.4L840.5,123.8z
						 M856.9,41.8l-36.1,21l-1,2.3l36.1-21L856.9,41.8z M852.6,52.4l1-2.5L820,69.6l0.5,1.3L852.6,52.4z M842.5,128.9L820.1,142
						l0.8,1.5l22.5-13.1L842.5,128.9z M851.1,56.4l0.8-2.3L821.1,72l0.5,1.5L851.1,56.4z M839.5,121.3l-17.4,10.1l-1,2.3l18.9-10.9
						L839.5,121.3z M843.6,131.4l-22.5,13.1l0.8,1.5l22.5-13.1L843.6,131.4z M858.7,37.5l-36.1,21l-1,2.5l36.1-21L858.7,37.5z
						 M849.4,60.5l1-2.3l-28.3,16.4l0.5,1.5L849.4,60.5z M844.6,133.9L822.4,147l0.5,1.5l22.5-13.1L844.6,133.9z M838.5,118.8
						l-14.6,8.3l-1,2.5L839,120L838.5,118.8z M853.7,37.5l-29.5,16.9l-1,2.3l33.6-19.2H853.7z M847.6,64.8l1-2.5l-25.5,14.9l0.5,1.5
						L847.6,64.8z M845.8,136.4l-22.5,13.1l0.5,1.5l22.5-13.1L845.8,136.4z M846.1,68.8l1-2.3l-23,13.1l0.5,1.5L846.1,68.8z
						 M837.5,116l-12.1,7.1l-1,2.5l13.6-8.1L837.5,116z M846.8,139.2l-22.5,12.9l0.5,1.5l22.5-12.9L846.8,139.2z M848.1,37.5
						l-22.2,12.9l-1,2.3l26.5-15.1L848.1,37.5L848.1,37.5z M844.3,72.8l1-2.3l-20.2,11.6l0.5,1.5L844.3,72.8z M847.8,141.7
						l-22.5,12.9l0.5,1.5l22.5-12.9L847.8,141.7z M842.8,77.1l0.8-2.5l-17.4,10.1l0.8,1.5L842.8,77.1z M836.5,113.5l-9.3,5.6l-1,2.3
						L837,115L836.5,113.5z M842.5,37.5l-15.1,8.6l-1,2.5l19.4-11.1H842.5z M848.9,144.3l-22.5,12.9l0.5,1.5l22.5-12.9L848.9,144.3z
						 M841,81.2l1-2.3l-14.9,8.3l0.8,1.5L841,81.2z M849.9,146.8l-22.5,13.1l0.5,1.3l22.5-12.9L849.9,146.8z M835.5,110.9l-6.8,3.8
						l-0.8,2.5l8.1-4.8L835.5,110.9z M837.2,37.5l-8.1,4.5l-1,2.5l12.1-7.1L837.2,37.5L837.2,37.5z M839.3,85.2l1-2.3L828.2,90
						l0.8,1.5L839.3,85.2z M850.9,149.3l-22.5,13.1c0.3,0.5,0.3,1,0.5,1.5l22.5-13.1L850.9,149.3z M837.8,89.5l1-2.5l-9.6,5.6
						l0.8,1.5L837.8,89.5z M834.5,108.4l-4,2.3l-1,2.5l5.6-3.3L834.5,108.4z M851.9,151.8L829.4,165l0.8,1.5l22.2-13.1L851.9,151.8z
						 M831.7,37.5l-0.8,0.5l-1,2.3l5-2.8H831.7z M836,93.5l1-2.5l-6.8,4l0.8,1.5C832.7,95.5,834.2,94.5,836,93.5z M852.9,154.4
						l-22.5,13.1l0.8,1.5l22.5-13.1L852.9,154.4z M833.2,105.9l-1,0.8l-1,2.3l2.8-1.5L833.2,105.9z M834.5,97.6l0.8-2.3l-3.8,2.3
						l0.5,1.5L834.5,97.6z M854.2,157.6l-0.3-0.5L831.4,170l0.8,1.5l21.5-12.6L854.2,157.6z M833,101.4l0.8-2
						c-0.5,0.3-0.8,0.5-1.3,0.8L833,101.4z M852.9,160.7l-20.4,11.9l0.8,1.5l18.9-10.9L852.9,160.7z M833,104.6l-0.3,0.3h0.3V104.6z
						 M902.9,37.5h-42.7L834,101.9l-0.3,0.5l-0.3,0.8l21.5,53L902.9,37.5z M851.4,165l-17.7,10.1l0.5,1.5l16.2-9.3L851.4,165z
						 M849.6,169l-14.9,8.6l0.5,1.5l13.4-7.8L849.6,169z M848.1,173l-12.4,7.3l0.5,1.3l10.9-6.1L848.1,173z M846.3,177.3l-9.6,5.6
						l0.5,1.5l8.1-4.8L846.3,177.3z M844.6,181.4c-2.3,1.3-4.5,2.8-6.8,4l0.5,1.5c1.8-1,3.8-2.3,5.6-3.3L844.6,181.4z M843.1,185.4
						c-1.5,0.8-2.8,1.8-4.3,2.5l0.5,1.5l2.8-1.5L843.1,185.4z M839.8,190.5l0.5,1.5l1-2.5L839.8,190.5z M863.8,181.6l-0.5-1.5
						l-21.7,12.6l-0.5,1v0.3h1.5L863.8,181.6z M862,195.3l0.3-0.3H859v0.3h-2.3V195h-3l-0.3,0.3h-2.3l0.3-0.3h-3.3v0.3h-2.3V195
						h-3.3v0.3h-0.8l13.1,32.8l13.1-32.8h-0.5V195h-3l-0.3,0.3H862z M862.2,177.6L843,188.5l-1,2.5l20.7-11.9L862.2,177.6z
						 M861.2,174.8l-16.4,9.6l-1,2.5l17.9-10.6L861.2,174.8z M865,184.2l-0.8-1.5L844.8,194h3.3L865,184.2z M860.2,172.3l-13.6,8.1
						l-1,2.3l15.1-8.8L860.2,172.3z M859.2,169.8l-11.1,6.3l-1,2.5l12.6-7.3L859.2,169.8z M858.2,167.2l-8.3,4.8l-1,2.5l9.8-5.8
						L858.2,167.2z M857.2,164.7l-5.8,3.3l-1,2.3l7.3-4L857.2,164.7z M866,186.7l-0.8-1.5l-14.9,8.8h3L866,186.7z M855.9,162.2
						l-2.8,1.5l-1,2.5l4.5-2.5L855.9,162.2z M854.9,159.7h-0.3l-0.8,2.5l1.8-1L854.9,159.7z M891.5,136.9l1-2.3l-36.1,21l-0.8,2v0.3
						L891.5,136.9z M867,189.2l-0.8-1.5l-10.6,6.3h3.3L867,189.2z M890,141.2l1-2.5l-34.8,20.2l0.5,1.5L890,141.2z M894.3,130.6
						l-36.1,21l-1,2.3l36.1-21L894.3,130.6z M888.2,145.3l1-2.3l-32.1,18.4l0.5,1.5L888.2,145.3z M886.7,149.3l1-2.3l-29.5,17
						l0.5,1.5L886.7,149.3z M896.1,126.3l-36.3,21l-1,2.5l36.3-21L896.1,126.3z M885,153.6l1-2.5l-26.8,15.7l0.5,1.3L885,153.6z
						 M883.4,157.6l0.8-2.5l-24,14.1l0.5,1.5L883.4,157.6z M897.6,122.3l-36.1,21l-1,2.3l36.1-21L897.6,122.3z M881.7,161.7l1-2.3
						l-21.5,12.4l0.8,1.5L881.7,161.7z M868,191.7l-0.8-1.5l-6.1,3.8h3L868,191.7z M899.3,118.3l-36.3,21l-0.8,2.3l36.1-21
						L899.3,118.3z M879.9,166l1-2.5l-18.7,10.9l0.8,1.5L879.9,166z M878.4,170l1-2.5l-16.2,9.3l0.8,1.5L878.4,170z M900.9,114
						l-36.1,21l-1,2.5l36.1-21L900.9,114z M876.6,174.1l1-2.3l-13.4,7.6l0.8,1.5L876.6,174.1z M902.6,109.9l-36.1,21l-1,2.3l36.1-21
						L902.6,109.9z M875.1,178.3l0.8-2.5l-10.3,6.1l0.5,1.5L875.1,178.3z M873.3,182.4l1-2.5l-7.8,4.5l0.5,1.5L873.3,182.4z
						 M868.8,194v-0.3l-0.3-1l-2,1.3H868.8z M904.4,105.9l-36.3,21l-1,2.3l36.3-21L904.4,105.9z M871.6,186.4c0.3-0.8,0.8-1.5,1-2.3
						l-5,3l0.5,1.3C869.3,187.7,870.3,187.2,871.6,186.4z M870.1,190.7l1-2.5l-2.5,1.5l0.5,1.5L870.1,190.7z M905.9,101.6l-36.1,21
						l-1,2.5l36.1-21L905.9,101.6z M907.7,97.6l-36.3,21l-0.8,2.3l36.1-20.7L907.7,97.6z M909.2,93.5l-36.1,21l-1,2.3l36.1-21
						L909.2,93.5z M911,89.2l-36.1,21l-1,2.5l36.1-21L911,89.2z M912.7,85.2l-36.3,21l-1,2.5l36.3-21L912.7,85.2z M914.2,81.2
						l-36.1,21l-1,2.3l36.1-21L914.2,81.2z M916,76.9l-36.3,21l-0.8,2.5l36.1-21L916,76.9z M917.5,72.8l-36.1,21l-1,2.5l36.1-21
						L917.5,72.8z M919.3,68.8l-36.1,21l-1,2.3l36.1-21L919.3,68.8z M920.8,64.5l-36.1,21l-1,2.5L920,67L920.8,64.5z M922.6,60.5
						l-36.1,21l-1,2.5l36.1-21L922.6,60.5z M924.3,56.4l-36.3,21l-0.8,2.3l36.1-21L924.3,56.4z M925.8,52.4l-36.1,20.7l-1,2.5
						l36.1-21L925.8,52.4z M927.6,48.1l-36.1,21l-1,2.5l36.1-21L927.6,48.1z M929.1,44.1L893,65l-1,2.3l36.3-21L929.1,44.1z
						 M930.9,40l-36.1,21l-1,2.3l36.1-21L930.9,40z M931.9,37.5h-2l-33.6,19.2l-0.8,2.5l36.1-21L931.9,37.5z M924.3,37.5L898,52.6
						l-1,2.3l30.5-17.4H924.3z M919,37.5l-19.2,11.1l-1,2.3L922,37.5H919z M913.5,37.5l-12.1,6.8l-1,2.5l16.4-9.3H913.5z
						 M907.9,37.5l-4.8,2.8l-1,2.3l9.1-5L907.9,37.5L907.9,37.5z M904.1,37.5l-0.3,1l1.8-1H904.1z"/>
					<path class="st2" d="M1145.2,37.5h-18.7v25.2h18.7v1h-18.7v52v51.5h19.2v1.5h-19.2V194h24.2v1h-24.2v1.8l6.6,6.6l-1,1l-5.6-5.8
						v34.1h-1.5v-35.3l-2-2.3h-25.7v1.5h4.5v1h-4.5v35.1h-1v-35.1h-52h-51.5v35.1h-1.5v-35.1h-1.8v-1h1.8V195h-25.5l-2.3,2.3v35.3
						h-1v-34.1l-11.4,11.4l-1-1l12.4-12.1V195h-14.1v-1h14.1v-25.2h-14.1v-1.5h14.1v-51.5v-52h-16.9v-1h16.9V37.5h-16.9V36h16.9
						v-1.5l-11.6-11.4l1-1l10.6,10.6V0.9h1V34l2.3,2h25.5v-1h-1.8v-1.5h1.8V0.9h1.5v32.6h51.5h52V0.9h1v32.6h4.5V35h-4.5v1h25.7l2-2
						V0.9h1.5v31.8l10.3-10.6l1,1l-11.4,11.4V36h18.7L1145.2,37.5L1145.2,37.5z M964,36l-0.5-0.3V36H964z M981.9,62.7
						c1.3-1.5,2.5-3,4-4.5l-20.7-20.7h-1.8v25.2H981.9z M963.5,101.1c2.5-13.9,8.6-26.8,17.2-37.4h-17.2V101.1z M991.2,101.4v-1.8
						l-27.8,16.2c0,0.5,0.3,1.3,0.3,1.8L991.2,101.4z M980.6,167.2c-8.6-10.6-14.6-23.2-17.2-37.1v37.1L980.6,167.2L980.6,167.2z
						 M965.2,194l20.7-21c-1.5-1.5-2.8-2.8-4-4.3h-18.4V194H965.2z M963.5,195.5l0.5-0.5h-0.5V195.5z M991.2,95v-1.8l-27.5,15.9v2
						L991.2,95z M991.2,98.3v-1.8l-27.5,15.9v2L991.2,98.3z M991.2,104.6v-1.8l-27.5,15.9v1.8L991.2,104.6z M991.2,107.7v-1.8
						l-27.5,15.9c0,0.5,0.3,1.3,0.3,1.8L991.2,107.7z M991.2,92v-1.8l-27,15.7c0,0.8-0.3,1.3-0.3,2L991.2,92z M991.2,110.9v-1.8
						l-27,15.7v1.8L991.2,110.9z M991.2,88.7V87l-26.5,15.4c0,0.8-0.3,1.3-0.3,2L991.2,88.7z M991.2,114v-1.8l-26.8,15.7
						c0,0.5,0.3,1,0.3,1.5L991.2,114z M991.2,85.7v-1.8l-26,14.9c-0.3,0.8,0,1.5-0.3,2.3L991.2,85.7z M991.2,117.3v-1.5v-0.3
						L965,130.6c0,0.5,0.3,1.3,0.3,1.8L991.2,117.3z M991.2,120.3v-1.8l-25.7,14.9c0,0.5,0.3,1.3,0.5,1.8L991.2,120.3z M991.2,82.4
						v-1.8l-25,14.6c-0.3,0.8-0.3,1.3-0.5,2L991.2,82.4z M991.2,123.6v-1.8l-25,14.4c0.3,0.5,0.3,1.3,0.5,1.8L991.2,123.6z
						 M991.2,79.4v-1.8l-24,13.9l-0.8,2.3L991.2,79.4z M967,37.5l19.7,19.7c1.5-1.5,3-2.8,4.5-4V37.5H967z M991.2,126.6v-1.8
						L967,139c0.3,0.5,0.3,1,0.5,1.5L991.2,126.6z M991.2,178.1c-1.5-1.3-3-2.5-4.5-4L967,194h24.2V178.1z M991.2,76.1v-1.8
						l-22.7,13.1c-0.3,0.8-0.5,1.8-0.8,2.5L991.2,76.1z M991.2,129.9v-1.8l-23.5,13.6l0.8,1.5L991.2,129.9z M991.2,132.9v-1.8
						l-22.5,13.1l0.8,1.5L991.2,132.9z M991.2,73.1v-1.8l-21,12.1c-0.3,0.8-0.8,1.8-1,2.5L991.2,73.1z M991.2,136.2v-1.8l-21.5,12.4
						l0.8,1.5L991.2,136.2z M991.2,69.8V68l-18.9,11.1c-0.5,0.8-0.8,1.8-1.3,2.5L991.2,69.8z M991.2,139.2v-1.8L971,149.3
						c0.3,0.5,0.3,1,0.5,1.5L991.2,139.2z M991.2,142.5v-1.8L972,151.8c0.3,0.5,0.5,0.8,0.8,1.3L991.2,142.5z M991.2,66.8V65
						l-16.4,9.6c-0.5,1-1,1.5-1.5,2.5L991.2,66.8z M991.2,145.5v-1.8L973.3,154l0.8,1.5L991.2,145.5z M991.2,148.8V147l-16.4,9.6
						c0.3,0.5,0.5,0.8,0.8,1.3L991.2,148.8z M987.7,63.7l-9.6,5.8c-0.8,1-1.3,1.8-2,2.8l14.9-8.6C991,63.7,987.7,63.7,987.7,63.7z
						 M991.2,151.8V150l-15.1,8.8c0.3,0.5,0.8,0.8,1,1.3L991.2,151.8z M991.2,155.1v-1.8l-13.6,7.8c0.3,0.5,0.8,0.8,1,1.3
						L991.2,155.1z M991.2,158.2v-1.8l-11.9,7.1c0.3,0.5,0.5,0.8,0.8,1.3L991.2,158.2z M982.4,63.7c-1,1-2,2.5-2.8,3.5l5.8-3.5
						C985.4,63.7,982.4,63.7,982.4,63.7z M991.2,161.4v-1.8l-10.3,6.1c0.3,0.5,0.8,0.8,1,1.3L991.2,161.4z M991.2,164.5v-1.8
						l-7.8,4.5h3L991.2,164.5z M983.4,168.8l0.3,0.3l0.8-0.3H983.4z M989.5,61.5l-1.3-1l-3.8,2.3h3.3L989.5,61.5z M986.7,168.8
						l-2.3,1c0.3,0.5,1,0.8,1.3,1.3l4-2.3H986.7z M986.7,58.9c-0.8,0.8-1.3,1.5-2,2.3l2.8-1.8L986.7,58.9z M986.7,172.3l1.5-1.5
						l-1.8,1C986.4,172,986.7,172,986.7,172.3z M991.2,57.2v-1.8l-2.3,1.5l-1.3,1.3l0.8,0.8L991.2,57.2z M991.2,170.8v-1.3l-3,3.3
						L991.2,170.8z M991.2,174.1v-1.8l-2.8,1.5c0.5,0.5,0.8,1,1.3,1.3L991.2,174.1z M991.2,167.2V166l-2.5,1.3h2.5V167.2z
						 M991.2,60.5v-1.8l-1.8,1l1,1.3L991.2,60.5z M990.5,62.7l-0.3-0.3l-0.3,0.3H990.5z M991.2,176.6v-1.3l-0.8,0.5L991.2,176.6z
						 M1024,36c2-0.5,3.8-0.8,5.8-1h-37.1v1H1024z M992.7,51.9c7.8-6.6,16.9-11.4,27-14.4h-27V51.9z M1036.7,37.5h-3.3L992.7,61v1.8
						h0.3L1036.7,37.5z M1028.1,37.5l-35.3,20.4v1.8l38.4-22.2H1028.1z M1024.3,37.5c-1,0.3-2.3,0.5-3.3,0.8l-28.3,16.4v2l33.1-19.2
						C1025.8,37.5,1024.3,37.5,1024.3,37.5z M993.5,65.5l-0.8-0.8V66L993.5,65.5z M995.5,67.5l-1.3-1l-1.5,0.8v2L995.5,67.5z
						 M997.5,69.5l-1.3-1.3l-3.5,2.3v1.8L997.5,69.5z M999.3,71.6l-1-1.3l-5.6,3.3v2L999.3,71.6z M1001.3,73.6l-1-1.3l-7.6,4.5v1.8
						L1001.3,73.6z M1003.3,75.6l-1-1.3l-9.6,5.6v2L1003.3,75.6z M1005.4,77.6c-0.5-0.5-0.5-0.8-1-1.3l-11.6,6.8v1.8L1005.4,77.6z
						 M1003.6,81.7c1-1,1.8-2,2.8-3l-0.3-0.3l-13.4,7.8v2L1003.6,81.7z M1007.4,79.4c-9.1,9.3-14.6,22.2-14.6,36.3
						s5.6,26.8,14.6,36.1l36.1-36.1L1007.4,79.4z M999.6,87.2c0.8-1,1.3-2,2-3l-8.8,5.3v1.8L999.6,87.2z M997,92
						c0.5-1,0.8-2,1.3-2.8l-5.6,3.3v2L997,92z M995,96.3c0.3-0.8,0.8-1.8,1-2.5l-3.3,2v1.8L995,96.3z M993.8,100.1l0.8-2.3l-1.8,1v2
						L993.8,100.1z M993.3,101.6l-0.5,0.5v1.8C993,103.1,993,102.4,993.3,101.6z M992.7,127.4v1.8l0.3-0.3
						C992.7,128.4,992.7,127.9,992.7,127.4z M993.3,130.1l-0.5,0.3v2l1-0.8C993.5,131.1,993.5,130.6,993.3,130.1z M994.3,132.7
						l-1.5,1v1.8l2-1.3C994.5,133.7,994.5,133.2,994.3,132.7z M995,135.2l-2.3,1.5v2l3-2L995,135.2z M996.3,137.7l-3.5,2.3v1.8
						l4.3-2.5L996.3,137.7z M997.5,140.2l-4.8,2.8v2l5.6-3.3L997.5,140.2z M998.8,142.8l-6.1,3.5v1.8l6.8-4
						C999.3,143.5,999.1,143.3,998.8,142.8z M1000.3,145l-7.6,4.3v2l8.3-5C1000.8,145.8,1000.6,145.5,1000.3,145z M1001.8,147.3
						l-9.1,5.3v1.8l10.1-5.8C1002.6,148.1,1002.1,147.8,1001.8,147.3z M1003.6,149.3l-10.9,6.3v2l11.9-7.1
						C1004.4,150.1,1003.9,149.8,1003.6,149.3z M1006.4,152.6c-0.3-0.5-0.8-0.5-1-1l-12.6,7.3v1.8l13.6-7.8V152.6z M1003.3,155.9
						l-10.6,6.1v2l6.1-3.8L1003.3,155.9z M992.7,165.2v1.3l3-3L992.7,165.2z M1011.7,168.8h-3.3l-15.7,9.1c0.5,0.3,0.8,0.8,1.3,1
						L1011.7,168.8z M1006.1,168.8h-3l-10.3,5.8v2L1006.1,168.8z M1000.8,168.8h-3.3l-4.8,2.8v1.8L1000.8,168.8z M995.3,168.8h-2.5
						v1.5L995.3,168.8z M1019.8,194c-10.1-3-19.2-8.1-27-14.6V194H1019.8z M992.7,196.5h37.1c-2-0.3-3.8-1-5.8-1.5h-31.3V196.5z
						 M993.5,52.9l22-12.6C1007.4,43.3,1000.1,47.6,993.5,52.9z M996.3,63.7h-2.8l1,1.3L996.3,63.7z M1012.9,158.4
						c-0.5-0.3-0.8-0.8-1.3-1l-17.4,9.8h3.3L1012.9,158.4z M1017,168.8h-3l-19,10.8c0.5,0.3,0.8,0.8,1.3,1L1017,168.8z M1042.2,37.5
						h-3.3l-43.7,25.2h3.3L1042.2,37.5z M1001.8,63.7h-3.3l-3.3,2l1.3,1.3L1001.8,63.7z M1009.4,155.4l-9.3,5.6l-4.5,4.3l15.1-8.6
						C1010.2,156.4,1009.9,155.6,1009.4,155.4z M1007.1,63.7h-3c-2.3,1.3-4.5,2.8-6.8,4l1.3,1L1007.1,63.7z M1022.5,168.8h-3.3
						l-22,12.6c0.5,0.3,1,0.8,1.5,1L1022.5,168.8z M1012.7,63.7h-3.3l-10.1,6.1l1.3,1L1012.7,63.7z M1015.5,160.2
						c-0.5-0.3-1-0.8-1.5-1l-14.1,8.1h3L1015.5,160.2z M1027.8,168.8h-3l-25,14.4l1.5,0.8L1027.8,168.8z M1047.5,37.5h-3l-43.7,25.2
						h3.3L1047.5,37.5z M1018.2,63.7h-3.3l-13.6,8.1l1.3,1L1018.2,63.7z M1033.4,168.8h-3.3l-27.5,15.9c0.5,0.3,1,0.8,1.5,1
						L1033.4,168.8z M1007.4,153.6l-4.3,4.3l5.3-3.3C1007.9,154.4,1007.9,153.9,1007.4,153.6z M1023.5,63.7h-3l-17.2,10.1l1.3,1
						L1023.5,63.7z M1018.2,161.7c-0.5-0.3-1.3-0.8-1.8-1l-11.4,6.6h3.3L1018.2,161.7z M1038.9,168.8h-3.3l-30.5,17.4
						c0.5,0.3,1.3,0.8,1.8,1L1038.9,168.8z M1011.4,74.1c4-3.3,8.6-5.8,13.4-7.8l4.3-2.5h-3.3l-20.4,12.1l1.3,1L1011.4,74.1z
						 M1053.1,37.5h-3.3l-43.4,25.2h3L1053.1,37.5z M1080.6,78.6c-9.3-9.1-22.2-14.9-36.3-14.9c-14.1,0-26.8,5.8-36.1,14.9
						l36.1,36.1L1080.6,78.6z M1008.1,152.6c9.3,9.1,22,14.6,36.1,14.6s27-5.6,36.3-14.6l-36.3-36.1L1008.1,152.6z M1044.2,168.8h-3
						l-33.1,18.9c0.5,0.3,1,0.8,1.5,1L1044.2,168.8z M1021,163.2c-0.5-0.3-1.3-0.5-1.8-0.8l-8.6,4.8h3L1021,163.2z M1049.8,168.8
						h-3.3l-35.6,20.4c0.5,0.3,1.5,0.5,2,0.8L1049.8,168.8z M1058.4,37.5h-3l-43.7,25.2h3.3L1058.4,37.5z M1055.1,168.8h-3
						l-37.9,21.7c0.5,0.3,1,0.5,1.8,0.8L1055.1,168.8z M1024,164.5c-0.5-0.3-1.3-0.5-1.8-0.8l-6.3,3.5h3.3L1024,164.5z M1063.9,37.5
						h-3.3l-43.4,25.2h3L1063.9,37.5z M1060.6,168.8h-3.3l-39.9,23c0.8,0.3,1.3,0.5,2,0.8L1060.6,168.8z M1066.2,168.8h-3.3
						L1021,193c0.8,0.3,1.3,0.3,2,0.5L1066.2,168.8z M1027.3,165.7c-0.8-0.3-1.3-0.3-2-0.5l-3.8,2h3.3L1027.3,165.7z M1067.7,38.2
						c-0.8-0.3-1.3-0.3-2-0.5l-43.2,25h3.3L1067.7,38.2z M1071.5,168.8h-3l-43.7,25.2h3L1071.5,168.8z M1030.9,167
						c-0.8-0.3-1.3-0.5-2-0.8l-1.8,1h3L1030.9,167z M1071.3,39.5c-0.8-0.3-1.3-0.5-2-0.8l-41.1,24h3L1071.3,39.5z M1032.9,63.7h-1.5
						l-1.3,0.8C1030.9,64.2,1031.9,64,1032.9,63.7z M1077.1,168.8h-3.3l-43.7,25.2h3.3L1077.1,168.8z M1030.1,195
						c0.3,0,0.5,0.3,0.8,0.3l0.3-0.3H1030.1z M1033.4,195l-0.8,0.5c0.8,0,2,0.5,2.8,0.5l1.3-1H1033.4z M1033.4,36l1.3-0.5
						C1033.1,35.7,1033.4,36,1033.4,36z M1074.5,40.8c-0.5-0.3-1-0.5-1.8-0.8l-39.4,22.7h3.3L1074.5,40.8z M1037.4,35.2l-1.8,0.8
						h3.3l2-1C1039.7,35,1038.7,35.2,1037.4,35.2z M1082.4,168.8h-3l-43.7,25.2h3.3L1082.4,168.8z M1038.9,195l-1.8,1
						c1,0,2,0.3,3,0.3l2-1.3H1038.9z M1077.6,42c-0.5-0.3-1.3-0.5-1.8-0.8l-36.9,21.5h3.3L1077.6,42z M1044.2,35h-1l-2,1h3l2.3-1
						H1044.2z M1087.9,168.8h-3.3l-43.4,25.2h3L1087.9,168.8z M1044.5,195l-2.3,1.3c0.8,0,1.3,0.3,2,0.3c0.3,0,1-0.3,1.3-0.3l2-1.3
						H1044.5z M1080.6,43.5c-0.5-0.3-1.3-0.8-1.8-1l-34.3,20.2h3L1080.6,43.5z M1081.3,151.8c9.1-9.3,14.9-22,14.9-36.1
						s-5.8-27-14.9-36.3l-36.1,36.3L1081.3,151.8z M1048.5,35l-2,1h3.3l1.5-0.8C1050.3,35.2,1049.5,35,1048.5,35z M1093.5,168.8
						h-3.3l-43.7,25.2h3.3L1093.5,168.8z M1049.8,195l-2,1.3c1.3,0,2.3-0.3,3.5-0.3l1.8-1H1049.8z M1083.6,45.1
						c-0.5-0.3-1.3-0.8-1.8-1l-32.1,18.7h3.3L1083.6,45.1z M1053.3,35.2L1052,36h3l0.8-0.3C1055.1,35.7,1054.1,35.2,1053.3,35.2z
						 M1096.2,170.3v-1.5h-0.8L1052,194h3L1096.2,170.3z M1055.3,195l-1.3,0.8c1.5-0.3,2.8-0.3,4.3-0.5V195H1055.3z M1086.1,46.6
						c-0.5-0.3-1-0.8-1.5-1l-29.3,17.2h3L1086.1,46.6z M1055.9,63.7l0.3,0.3l0.3-0.3H1055.9z M1055.9,167.2h1.5l1-0.5
						C1057.6,167,1056.6,167,1055.9,167.2z M1096.2,173.3v-1.8l-38.9,22.5h3.3L1096.2,173.3z M1058.6,63.7l-0.8,0.5
						c0.8,0.3,1.3,0.5,2,0.8l1.8-1.3H1058.6z M1096.2,35h-37.4c2,0.3,3.8,0.5,5.8,1h31.6V35z M1064.7,195c-2,0.5-3.8,1.3-5.8,1.5
						h37.4V195H1064.7z M1082.1,154.4l-4.8,2.8c-4,3.3-8.6,5.8-13.4,7.8l-4.3,2.3h3.3l20.4-11.9L1082.1,154.4z M1088.9,48.1
						l-1.5-0.8l-26.8,15.4h3.3L1088.9,48.1z M1063.9,63.7l-2.5,1.8c0.8,0.3,1.3,0.3,2,0.5l3.8-2.3H1063.9z M1096.2,176.6v-2
						l-33.3,19.4h1.5c1-0.3,2.3-0.8,3.3-1L1096.2,176.6z M1069.5,63.7c-1.5,1-3.3,1.8-4.8,2.8c0.5,0.3,1.3,0.8,1.8,1l6.1-3.8H1069.5
						z M1084.1,156.4l-18.9,10.9h3l17.2-9.8L1084.1,156.4z M1091.4,49.9c-0.5-0.3-1-0.8-1.5-1l-23.7,13.9h3.3L1091.4,49.9z
						 M1074.8,63.7l-7.1,4.3c0.5,0.3,1.3,0.5,1.8,0.8c2.8-1.8,5.8-3.3,8.6-5h-3.3V63.7z M1069,37.5c10.1,3,19.4,7.8,27.3,14.4V37.5
						H1069z M1096.2,179.4c-7.8,6.6-17.2,11.6-27.3,14.6h27.3V179.4z M1080.3,63.7l-9.8,5.8c0.5,0.3,1.3,0.8,1.8,1l11.4-6.8H1080.3z
						 M1086.1,158.4l-15.7,8.8h3.3l13.6-7.8L1086.1,158.4z M1093.7,51.6c-0.5-0.3-1-0.8-1.5-1l-20.4,12.1h3L1093.7,51.6z
						 M1095.5,178.1l-22.5,13.1C1081.1,188.2,1088.9,183.6,1095.5,178.1z M1085.9,63.7l-12.6,7.3c0.5,0.3,1,0.8,1.5,1l14.1-8.3
						H1085.9z M1091.2,63.7l-15.4,9.1c0.5,0.3,0.8,0.8,1.3,1l17.4-10.1C1094.5,63.7,1091.2,63.7,1091.2,63.7z M1088.2,160.4
						l-12.1,6.8h3l10.3-5.8L1088.2,160.4z M1096,53.4c-0.5-0.3-0.8-0.8-1.3-1L1077,62.7h3.3L1096,53.4z M1088.9,70.3l4.3-4.3
						l-15.1,8.6c0.5,0.3,0.8,1,1.3,1.3L1088.9,70.3z M1081.3,77.6l4.3-4.3l-5.6,3.3C1080.6,76.9,1080.8,77.1,1081.3,77.6z
						 M1090.2,162.2l-8.8,5h3.3l6.8-3.8L1090.2,162.2z M1096.2,72.3v-1.8l-13.9,7.8v0.3c0.3,0.3,0.8,0.5,1,1L1096.2,72.3z
						 M1096.2,143l-11.1,6.3c-1,1-1.8,2.3-2.8,3.3v0.3l13.9-7.8V143z M1096.2,56.7v-2l-13.6,8.1h3L1096.2,56.7z M1096.2,146.3
						l-12.9,7.3l1,1.3l11.9-6.8V146.3z M1096.2,75.6v-2l-12.1,7.1c0.3,0.5,0.8,0.8,1,1.3L1096.2,75.6z M1096.2,149.3l-10.9,6.3
						l1,1.3l9.8-5.6L1096.2,149.3L1096.2,149.3z M1096.2,69.3v-2l-6.3,3.8l-4.3,4.3L1096.2,69.3z M1096.2,78.6v-1.8l-10.3,5.8
						c0.3,0.5,0.8,0.8,1,1.3L1096.2,78.6z M1092.2,164.2l-5.3,3h3.3l3-1.8L1092.2,164.2z M1096.2,140l-7.1,4c-0.8,1-1.3,2-2,3
						l9.1-5.3V140z M1096.2,152.6l-8.8,5l1,1.3l7.8-4.5V152.6z M1096.2,81.9v-2l-8.6,5c0.3,0.5,0.5,0.8,0.8,1.3L1096.2,81.9z
						 M1096.2,59.7v-1.8l-8.3,4.8h3.3L1096.2,59.7z M1096.2,84.9v-1.8l-7.1,4c0.3,0.5,0.5,0.8,0.8,1.3L1096.2,84.9z M1096.2,155.6
						l-6.8,4l1,1.3l5.8-3.3V155.6z M1096.2,88.2v-2l-5.8,3.3l0.8,1.5L1096.2,88.2z M1096.2,136.7l-4.5,2.5c-0.5,1-0.8,2-1.3,2.8
						l5.8-3.3V136.7z M1096.2,158.9l-5,2.8l1.3,1.3l3.8-2.3v-1.8H1096.2z M1096.2,91.3v-1.8l-4.5,2.5c0.3,0.5,0.5,0.8,0.8,1.3
						L1096.2,91.3z M1092.5,167.2h2.8l-1-1L1092.5,167.2z M1096.2,133.7l-2.5,1.3c-0.3,0.8-0.8,1.8-1,2.5l3.5-2V133.7z M1096.2,66
						v-1.3l-3.3,3L1096.2,66z M1096.2,94.5v-2l-3.3,2c0.3,0.5,0.3,0.8,0.5,1.3L1096.2,94.5z M1096.2,161.9l-3,1.8l1.3,1l1.8-0.8v-2
						H1096.2z M1096.2,62.7V61l-2.8,1.8L1096.2,62.7L1096.2,62.7z M1096.2,97.6v-1.8l-2.3,1.3c0.3,0.5,0.3,1,0.5,1.5L1096.2,97.6z
						 M1096.2,130.4l-1.3,0.8l-0.8,2.3l2-1v-2.1H1096.2z M1096.2,100.9v-2l-1.3,0.8c0.3,0.5,0.3,1,0.5,1.5L1096.2,100.9z
						 M1095.2,165.7l1,0.8v-1.3L1095.2,165.7z M1096.2,127.4h-0.3c-0.3,0.8-0.3,1.3-0.5,2l0.8-0.3V127.4z M1096.2,103.9v-1.8
						l-0.5,0.3c0.3,0.5,0.3,1,0.3,1.5H1096.2z M1097.3,37.5v15.7c1.5,1.3,3,2.5,4.5,4l19.9-19.7H1097.3z M1097.3,54.7V56l1-0.5
						C1098,55.2,1097.5,54.9,1097.3,54.7z M1099,56.2l-1.8,1V59l3-1.5C1099.8,56.9,1099.5,56.4,1099,56.2z M1097.3,60.2v1.5l3.5-3.3
						L1097.3,60.2z M1102,63.7l-4.8,2.8v2l8.1-4.8H1102z M1097.3,63.7v1.5c0.8-0.5,1.8-1,2.5-1.5
						C1099.8,63.7,1097.3,63.7,1097.3,63.7z M1106.8,64.2l-9.6,5.6v1.8l10.6-6.1C1107.6,65,1107.1,64.8,1106.8,64.2z M1108.6,66.5
						l-11.4,6.3v2l12.1-7.1C1109.1,67.3,1108.9,67,1108.6,66.5z M1110.1,68.8l-12.9,7.3v1.8l13.9-7.8
						C1110.9,69.5,1110.4,69.3,1110.1,68.8z M1111.6,71.1l-14.4,8.1v2l15.4-8.8C1112.4,71.8,1111.9,71.6,1111.6,71.1z M1113.2,73.3
						l-15.9,9.1v1.8l16.7-9.6C1113.7,74.1,1113.4,73.8,1113.2,73.3z M1114.7,75.6l-17.4,9.8v2l18.2-10.3L1114.7,75.6z M1115.9,78.1
						l-18.7,10.6v1.8l19.4-11.1C1116.4,78.9,1116.2,78.6,1115.9,78.1z M1117.2,80.4l-19.9,11.4v2l20.4-11.9
						C1117.4,81.4,1117.4,80.9,1117.2,80.4z M1118.2,82.9l-21,12.1v1.8l21.7-12.4L1118.2,82.9z M1119.2,85.5l-22,12.6v2L1120,87
						L1119.2,85.5z M1120.2,88l-23,13.4v1.8l23.7-13.6L1120.2,88z M1121.2,90.8l-24,13.6v2l24.5-14.1
						C1121.5,91.8,1121.5,91.3,1121.2,90.8z M1122,93.3l-24.7,14.4v1.8l25.2-14.4C1122.2,94.5,1122.2,93.8,1122,93.3z M1122.7,96.1
						l-25.5,14.6v2l26-14.9C1123.3,97.3,1123,96.6,1122.7,96.1z M1123.5,98.8l-26.3,15.1v1.8l26.5-15.1
						C1123.8,100.1,1123.5,99.3,1123.5,98.8z M1124,101.6l-26.8,15.4v2l27-15.7C1124.3,102.9,1124,102.1,1124,101.6z M1124.5,104.6
						l-27.3,15.7v1.8l27.3-15.7V104.6z M1124.8,107.7l-27.5,15.7v2l27.8-15.9C1125,108.9,1124.8,108.2,1124.8,107.7z M1125,110.7
						l-27.8,15.9v1.8l27.8-15.9V110.7z M1125,113.7l-27.8,15.9v2l27.8-16.2V113.7z M1125,116.8l-27.8,16.2v1.8l27.8-15.9V116.8z
						 M1125,120l-27.8,15.9v2L1125,122V120z M1124.8,123.3l-27.5,15.9v1.8l27.3-15.7C1124.5,124.6,1124.8,124.1,1124.8,123.3z
						 M1124.3,126.6l-27,15.7v2l26.8-15.7C1124,127.9,1124.3,127.4,1124.3,126.6z M1123.8,130.1l-26.5,15.4v1.8l26.3-15.1
						C1123.8,131.4,1123.5,130.9,1123.8,130.1z M1123,133.7l-25.7,14.9v2l25.2-14.6C1122.7,135.2,1122.7,134.4,1123,133.7z
						 M1122.2,137.5l-25,14.4v1.8l24.2-13.9L1122.2,137.5z M1121,141.2l-23.7,13.6v2l23-13.1C1120.5,143,1120.7,142,1121,141.2z
						 M1119.5,145.3l-22.2,12.9v1.8l21.2-12.1C1118.7,147,1119.2,146,1119.5,145.3z M1117.7,149.6l-20.4,11.6v2l19.2-11.1
						C1116.9,151.3,1117.2,150.3,1117.7,149.6z M1115.4,153.9l-18.2,10.6v1.8l16.7-9.6C1114.4,155.6,1114.9,154.9,1115.4,153.9z
						 M1098.3,170.3l-1,0.5v1.8l2-1L1098.3,170.3z M1101,173l-0.8-0.8l-3,1.5v2l2.5-1.5L1101,173z M1121.7,194l-19.9-19.9
						c-1.5,1.5-3,2.8-4.5,4V194H1121.7z M1110.6,161.7c0.8-1,1.3-2,2-3l-14.9,8.6h3.3L1110.6,161.7z M1104.3,61.5
						c-0.3-0.5-1-0.8-1.3-1.3l-4.3,2.5h3.3L1104.3,61.5z M1101,168.8l-1.8,1l1.3,1l3.8-2H1101z M1101.8,58.9l-1.3,1.3l1.8-1
						L1101.8,58.9z M1101.8,172.3l2.3-2.3l-2.8,1.5L1101.8,172.3z M1102.8,58.2c1.5,1.5,2.8,3,4,4.5h18.2V37.5h-1.5L1102.8,58.2z
						 M1106.8,168.8c-1.3,1.5-2.5,2.8-4,4.3l20.7,21h1.5v-25.2h-18.2V168.8z M1106.3,167.2c1-1,2-2,2.8-3.3l-5.8,3.3H1106.3z
						 M1105.3,62.7l-0.3-0.5l-0.8,0.5H1105.3z M1108.1,63.7c8.6,10.6,14.4,23.5,16.9,37.4V63.7H1108.1z M1125,130.1
						c-2.5,13.9-8.3,26.5-16.9,37.1h16.9V130.1z M1125,36v-0.3l-0.3,0.3H1125z M1124.8,195l0.3,0.5V195H1124.8z"/>
					<path class="st2" d="M1313.8,37.5h-13.4v25.2h7.3v1h-7.3V96v58.6h8.3v1.5h-8.3v32.1l3,5.8h18.7v1h-17.9l7.1,12.4l-1,0.5
						l-7.6-12.9h-2.3v37.6h-1.5V195h-25v0.8l19.2,32.8l-1.3,0.8l-17.9-31v34.3h-1.3V196l-0.5-1H1208v37.6h-1.5V195h-25.2v37.6h-1
						V195h-21.7v-1h21.7v-37.9h-16.7v-1.5h16.7v-25.2h-16.7v-1h16.7V63.7h-10.6v-1h10.6V37.5h-19.4V36h19.2l-11.9-20.2l1-0.8
						l11.1,18.9V1.4h1V36h25.2v-6.3l-13.9-24l1-0.8l12.9,22.2V1.4h1.5v28l3.8,6.6h28.5h32.3V1.4h1.3V36h25V1.4h1.5V36h13.4
						L1313.8,37.5L1313.8,37.5z M1181.3,38.8v1.5l0.8-0.3L1181.3,38.8z M1182.8,41l-1.5,0.8v1.8l2.3-1.3L1182.8,41z M1184.1,43.3
						l-2.8,1.5v1.8l3.5-2L1184.1,43.3z M1185.6,45.6l-4.3,2.5v1.8l5-2.8L1185.6,45.6z M1186.9,48.1l-5.6,3v1.8l6.3-3.5L1186.9,48.1z
						 M1188.1,50.4l-6.8,4v1.8l7.8-4.5L1188.1,50.4z M1189.6,52.6l-8.3,4.8v1.8l9.1-5L1189.6,52.6z M1190.9,55.2l-9.6,5.6v1.8
						l10.3-6.1L1190.9,55.2z M1189.6,64v-0.3h-3c-1.8,1-3.5,2.3-5.3,3.3v1.8L1189.6,64z M1181.3,63.7v1.8c1-0.5,2-1.3,3-1.8H1181.3z
						 M1186.9,68.8c0.5-1,1-1.8,1.5-2.8l-7.1,4v1.8L1186.9,68.8z M1184.8,73.1c0.3-0.8,0.8-1.8,1.3-2.5l-4.8,2.8v1.8L1184.8,73.1z
						 M1183.3,77.1l0.8-2.3l-2.8,1.5v1.8L1183.3,77.1z M1182.3,80.9c0.3-0.8,0.3-1.5,0.5-2.3l-1.5,1v1.8L1182.3,80.9z M1181.3,84.4
						c0.3-0.8,0.3-1.3,0.5-2l-0.5,0.3V84.4z M1181.6,107.9h-0.3v1.8h0.5C1181.8,109.2,1181.6,108.4,1181.6,107.9z M1182.1,110.7
						l-0.8,0.5v1.8l1.3-0.8C1182.3,111.7,1182.3,111.2,1182.1,110.7z M1182.8,113.5l-1.5,0.8v1.8l2-1
						C1183.1,114.5,1183.1,114,1182.8,113.5z M1183.8,116l-2.5,1.5v1.8l3-1.8C1184.1,117,1184.1,116.5,1183.8,116z M1184.6,118.8
						l-3.3,1.8v1.8l4-2.3C1185.1,119.5,1184.8,119.3,1184.6,118.8z M1185.9,121.3l-4.5,2.5v1.8l5-3
						C1186.1,122.1,1186.1,121.8,1185.9,121.3z M1187.1,123.6l-5.8,3.3v1.5h1l5.6-3.3L1187.1,123.6z M1190.4,129.4h-2.5l-6.6,3.8
						v1.8l9.3-5.3L1190.4,129.4z M1182.3,129.4l-1,0.8v1.8l4.3-2.5h-3.3V129.4z M1191.2,130.6l-9.8,5.8v1.8l10.9-6.3
						C1191.9,131.4,1191.4,131.1,1191.2,130.6z M1192.9,132.9l-11.6,6.6v1.8l12.6-7.1C1193.7,133.7,1193.2,133.4,1192.9,132.9z
						 M1194.7,134.9l-13.4,7.8v1.8l14.4-8.3C1195.4,135.7,1194.9,135.4,1194.7,134.9z M1196.5,136.9l-15.1,8.8v1.8l16.4-9.3
						C1197.2,137.7,1196.7,137.5,1196.5,136.9z M1198.5,139l-17.2,10.1v1.8l18.4-10.6C1199.2,140,1199,139.5,1198.5,139z
						 M1200.5,141l-19.2,11.1v1.8l20.4-11.9C1201.3,141.7,1201,141.2,1200.5,141z M1202,156.1l-20.7,11.9v1.8l23.7-13.6L1202,156.1
						L1202,156.1z M1196.5,156.1l-15.1,8.6v1.8l18.4-10.3h-3.3V156.1z M1191.2,156.1l-9.8,5.6v1.8l12.9-7.3h-3.1V156.1z
						 M1185.6,156.1l-4.3,2.3v1.8l7.6-4h-3.3V156.1z M1181.3,156.1v1l2-1H1181.3z M1206.6,158.2v-1.8l-25.2,14.6v1.8L1206.6,158.2z
						 M1206.6,161.4v-1.8l-25.2,14.6v1.8L1206.6,161.4z M1206.6,164.5v-1.8l-25.2,14.6v1.8L1206.6,164.5z M1206.6,167.7V166
						l-25.2,14.6v1.8L1206.6,167.7z M1206.6,170.8V169l-25.2,14.6v1.8L1206.6,170.8z M1206.6,174.1v-1.8l-25.2,14.6v1.8
						L1206.6,174.1z M1206.6,177.1v-1.8l-25.2,14.6v1.8L1206.6,177.1z M1206.6,180.4v-1.8l-25.2,14.6v0.8h2L1206.6,180.4z
						 M1204.5,78.6L1181.8,92c0,0.5-0.3,1-0.3,1.8l24-13.6L1204.5,78.6z M1206.6,82.4v-0.3l-0.5-1l-24.5,14.1V96v1L1206.6,82.4z
						 M1206.6,85.7v-1.8l-25,14.4c0,0.5,0.3,1.3,0.3,1.8L1206.6,85.7z M1203.3,76.4l-21.2,12.4c0,0.8-0.3,1.3-0.3,2l22.2-13.1
						L1203.3,76.4z M1206.6,88.7V87l-24.7,14.4c0,0.5,0.3,1.3,0.3,1.8L1206.6,88.7z M1206.6,92v-1.8l-24.5,14.1
						c0,0.5,0.3,1.3,0.3,1.8L1206.6,92z M1202,74.1l-19.4,11.1c-0.3,0.8-0.3,1.3-0.3,2l20.4-11.9L1202,74.1z M1202.8,143l-20.4,11.6
						h3.3l18.7-10.6C1203.8,143.8,1203.3,143.3,1202.8,143z M1183.3,37.5l-0.8,0.5l0.8,1.3l3.3-1.8H1183.3z M1206.6,95v-1.8
						l-24,13.9c0,0.5,0.5,1.3,0.5,1.8L1206.6,95z M1200.5,71.6l-17.2,10.1c-0.3,0.8-0.3,1.3-0.5,2l18.4-10.6L1200.5,71.6z
						 M1192.4,57.4l-9.1,5.3h3.3l6.6-3.8L1192.4,57.4z M1206.6,98.3v-1.8l-23.2,13.4c0.3,0.5,0,1.3,0.3,1.8L1206.6,98.3z
						 M1188.9,37.5l-5,2.8l0.8,1.5c2.5-1.5,5-2.8,7.6-4.3H1188.9z M1199.2,69.3l-14.6,8.6c-0.3,0.8-0.5,1.3-0.8,2l16.2-9.3
						L1199.2,69.3z M1206.6,101.4v-1.8l-22.5,13.1c0.3,0.5,0,1,0.3,1.5L1206.6,101.4z M1188.4,126.1l-3.8,2.3h3l1.5-1
						C1188.9,126.8,1188.6,126.6,1188.4,126.1z M1206.6,104.6v-1.8l-21.7,12.6c0.3,0.5,0.3,1,0.5,1.5L1206.6,104.6z M1194.4,37.5
						l-9.3,5l1,1.5l11.4-6.6L1194.4,37.5L1194.4,37.5z M1197.7,67l-11.9,6.8l-0.8,2.3l13.6-7.8L1197.7,67z M1206.6,183.4v-1.8
						l-21,12.4h3.3L1206.6,183.4z M1206.6,107.7v-1.8l-20.7,12.1c0.3,0.5,0.3,1,0.5,1.5L1206.6,107.7z M1199.7,37.5l-13.1,7.6
						l0.8,1.3l15.7-8.8L1199.7,37.5L1199.7,37.5z M1196.5,64.5l-8.6,5c-0.5,0.8-0.8,1.8-1.3,2.5l10.6-6.1L1196.5,64.5z
						 M1206.6,110.9v-1.8l-19.7,11.4l0.8,1.5L1206.6,110.9z M1206.6,38.2v-0.8h-1.3l-17.4,9.8l0.8,1.5L1206.6,38.2z M1205.3,144.8
						l-17.4,9.8h3l15.7-8.8C1206,145.5,1205.8,145,1205.3,144.8z M1206.6,114v-1.8l-18.4,10.9c0.3,0.5,0.5,0.8,0.8,1.3L1206.6,114z
						 M1190.7,62.7c0.3-0.5,0.5-1.3,1-1.8l-2.8,1.8H1190.7z M1192.2,63.7l-1.5,1c-0.5,1-1.3,1.8-1.8,2.8l6.6-3.8H1192.2z
						 M1206.6,41.5v-1.8l-17.2,10.1l0.8,1.3L1206.6,41.5z M1206.6,117.3v-1.8l-17.2,9.8l0.8,1.5L1206.6,117.3z M1206.6,44.6v-1.8
						l-15.9,9.3l0.8,1.3L1206.6,44.6z M1206.6,120.3v-1.8l-15.7,9.3c0,0.3,0.3,0.3,0.3,0.5h2L1206.6,120.3z M1206.6,186.7v-1.8
						l-15.4,9.1h3L1206.6,186.7z M1200,51.6c2-2,4.3-3.8,6.6-5.3V46l-14.4,8.3l0.8,1.5L1200,51.6z M1193.9,60.2
						c-0.5,0.8-1.3,1.8-1.8,2.5l2.3-1.5L1193.9,60.2z M1193.2,129.4l-0.8,0.8c0.3,0.5,0.8,0.8,1,1.3l3-2h-3.2V129.4z M1206.6,147
						l-13.4,7.6h3.3l10.1-5.8V147z M1193.9,57.9c0.8-1,1.8-2,2.8-3l-3.3,2L1193.9,57.9z M1198.7,129.4l-4.8,2.8
						c0.3,0.5,0.8,0.8,1,1.3l6.8-4h-3V129.4z M1194.4,62.7h0.8l-0.3-0.5L1194.4,62.7z M1206.6,52.4l-11.9,6.8l1,1.3l10.9-6.3V52.4z
						 M1206.6,123.6v-1.8l-11.1,6.6h3.3L1206.6,123.6z M1206.6,129.9v-0.5h-2.5l-8.3,5c0.3,0.5,1,0.8,1.3,1.3L1206.6,129.9z
						 M1206.6,55.4l-10.3,6.1l0.5,1.3h0.8l9.1-5.6L1206.6,55.4L1206.6,55.4z M1206.6,189.7v-1.8l-10.1,6.1h3.3L1206.6,189.7z
						 M1206.6,49.1l-5.6,3.3c-1.5,1.3-2.8,2.8-4.3,4.3l9.8-5.8L1206.6,49.1L1206.6,49.1z M1197.7,63.7l-0.3,0.3l0.8,1.3l2.5-1.5h-3
						V63.7z M1206.6,132.9v-1.8l-8.8,5.3c0.3,0.5,0.5,0.8,1,1.3L1206.6,132.9z M1206.6,150.1l-7.8,4.5h3l4.8-2.8V150.1z M1203,63.7
						l-4,2.5l0.8,1.3l6.6-3.8H1203z M1206.6,58.7l-6.8,4h3.3l3.5-2.3V58.7z M1206.6,136.2v-1.8l-6.8,4c0.5,0.5,0.5,0.8,1,1
						L1206.6,136.2z M1206.6,66.8V65l-6.3,3.5l0.8,1.5L1206.6,66.8z M1206.6,126.6v-1.8l-5.8,3.5h3.3L1206.6,126.6z M1206.6,69.8V68
						l-4.8,3l0.8,1.3L1206.6,69.8z M1206.6,139.2v-1.8l-4.8,2.8c0.5,0.3,0.8,1,1.3,1.3L1206.6,139.2z M1206.6,193v-1.8l-4.5,2.8h3
						L1206.6,193z M1206.6,73.1v-1.8l-3.5,2l0.8,1.5L1206.6,73.1z M1206.6,142.5v-1.8l-2.5,1.5c0.5,0.3,0.8,0.8,1.3,1L1206.6,142.5z
						 M1204,154.6h2.5v-1.3L1204,154.6z M1206.6,76.1v-1.8l-2.3,1.3l1,1.5L1206.6,76.1z M1205.3,62.7h1.3v-1L1205.3,62.7z
						 M1206.6,77.6l-0.8,0.5l0.8,1.3V77.6z M1206.6,128.4v-0.3l-0.3,0.3H1206.6z M1206.6,144.3v-0.5l-0.3,0.3L1206.6,144.3z
						 M1208.6,37.5h-0.5l-0.3,0.8L1208.6,37.5z M1210.3,36l-2.3-4v4H1210.3z M1211.9,38.5l-0.8-1h-0.5l-2.5,1.5v1.8L1211.9,38.5z
						 M1213.1,41l-0.8-1.5L1208,42v2L1213.1,41z M1208.1,45.6c2-1.3,3.8-2.3,5.8-3.3v-0.5c-2,1-3.8,2-5.8,3.5V45.6z M1208.1,47.1
						l6.1-3.5C1211.9,44.3,1210.1,45.6,1208.1,47.1z M1215.1,44.3l-7.1,4v2l7.8-4.8L1215.1,44.3z M1216.4,46.6l-8.3,5v1.8l9.3-5.3
						L1216.4,46.6z M1217.9,48.9l-9.8,5.8v2l10.6-6.3L1217.9,48.9z M1219.2,51.4l-11.1,6.6v1.8l11.9-7.1L1219.2,51.4z M1221.4,55.2
						l-0.8-1.5L1208,61v1.8h0.3L1221.4,55.2z M1208.1,81.9l1,2c3.3-8.3,10.1-15.1,18.4-18.7c-0.3-0.5-0.8-1-1-1.5h-18.4V81.9z
						 M1208.1,87.5c0.3-0.8,0.3-1.3,0.5-2l-0.5-1V87.5z M1208.1,96.1c0,15.1,10.6,27.8,24.7,31.3L1209.3,87
						C1208.3,90,1208.1,92.8,1208.1,96.1z M1231.5,128.4c-11.4-3.3-20.4-12.4-23.5-23.7v23.7H1231.5z M1234.3,129.6l-0.3-0.3h-2.8
						l-23.2,13.6v2L1234.3,129.6z M1226,129.4l-17.9,10.6v1.8l21-12.4L1226,129.4L1226,129.4z M1220.4,129.4l-12.4,7.3v2l15.7-9.3
						H1220.4z M1215.1,129.4l-7.1,4.3v1.8l10.1-6.1H1215.1z M1209.6,129.4c-0.5,0.3-1,0.8-1.5,1v2l4.8-3H1209.6z M1208.1,146.5v1.5
						l1-0.8C1208.6,147,1208.6,146.8,1208.1,146.5z M1210.3,148.1l-2.3,1.3v2l3.8-2.5L1210.3,148.1z M1213.1,149.6l-5,3v1.8l6.8-4
						C1214.4,150.1,1213.6,149.8,1213.1,149.6z M1208.1,194h63.4l-21.7-37.4l-0.5-0.5h-41.1V194H1208.1z M1235.6,132.2l-0.8-1.5
						l-26,15.1l1.5,0.8L1235.6,132.2z M1217.9,151.8c-0.5-0.3-1.3-0.8-1.8-1l-6.6,3.8h3.3L1217.9,151.8z M1234.6,127.6
						c2,0.5,4,0.8,6.3,0.8c7.3,0,13.9-2.5,19.2-6.6L1228,66.5c-8.3,3.5-14.9,10.3-17.9,18.9L1234.6,127.6z M1222.7,57.4l-0.8-1.3
						l-11.4,6.6h3.3L1222.7,57.4z M1236.8,134.4l-0.8-1.3l-24.5,14.1l1.5,0.8L1236.8,134.4z M1213.9,37.5h-1.3l0.3,0.5L1213.9,37.5z
						 M1219.4,37.5h-3.3l-2.8,1.5l1,1.3L1219.4,37.5z M1238.4,136.7l-0.8-1.3l-23.2,13.4c0.5,0.3,1.3,0.5,1.8,0.8L1238.4,136.7z
						 M1224.7,37.5h-3l-6.8,3.8l0.3,0.3c2.3-1,4.5-1.8,6.8-2.5L1224.7,37.5z M1221.4,152.8c-0.8-0.3-1.3-0.3-2-0.5l-4.3,2.3h3
						L1221.4,152.8z M1222,40.3l-5.8,3.3l1,1.5c3.5-2,7.3-4.3,10.9-6.3C1226,39.3,1224,39.5,1222,40.3z M1224.2,59.7l-0.8-1.3
						l-7.3,4.3h3.3L1224.2,59.7z M1239.6,139.2l-0.8-1.5l-21.5,12.4c0.5,0.3,1.3,0.5,2,0.8L1239.6,139.2z M1231.3,38l-13.6,8.1
						l0.8,1.3l16.9-9.8C1234.1,37.5,1232.6,37.7,1231.3,38z M1240.4,37.5h-2.5L1219,48.4l0.8,1.3l21.5-12.1L1240.4,37.5L1240.4,37.5
						z M1243.2,37.5l-22.7,13.1l0.8,1.5l25-14.4C1245.2,37.7,1244.2,37.5,1243.2,37.5z M1225,154.1l-2.3-0.8l-2.3,1.3h3.3
						L1225,154.1z M1241.1,141.5l-1-1.3l-19.4,11.1c0.8,0.3,1.3,0.5,2,0.8L1241.1,141.5z M1248,37.7l-26.3,15.4l0.8,1.3l28-16.2
						C1249.7,38,1248.7,37.7,1248,37.7z M1225.5,62.2l-0.8-1.5l-3,2h3L1225.5,62.2z M1252.2,38.5l-29,16.9l0.8,1.3l30.5-17.7
						C1253.8,38.8,1253,38.8,1252.2,38.5z M1242.4,143.8l-0.8-1.3l-17.4,10.1c0.8,0.3,1.5,0.3,2.3,0.5L1242.4,143.8z M1256,39.5
						l-31.6,18.2l0.8,1.5L1258,40C1257.3,39.8,1256.8,39.8,1256,39.5z M1259.6,40.5l-33.8,19.7l1,1.3l34.8-20.2
						C1260.8,41,1260.3,40.8,1259.6,40.5z M1228,154.6c-0.5,0-1-0.3-1.5-0.3l-0.5,0.3H1228z M1264.6,42.5c-0.5-0.3-1.3-0.5-1.8-0.8
						l-35.6,20.7v0.3h3L1264.6,42.5z M1228.5,64.8c1-0.3,2-0.8,3-1h-3.5L1228.5,64.8z M1243.9,146.3l-1-1.5l-14.9,8.6
						c0.8,0.3,1.8,0.3,2.5,0.5L1243.9,146.3z M1261.1,121c7.1-5.8,11.6-14.9,11.6-25c0-17.9-13.9-32.3-31.8-32.3
						c-4,0-8.1,1-11.6,2.3L1261.1,121z M1245.2,148.6l-0.8-1.3l-12.1,6.8c1,0,1.8,0.5,2.8,0.5L1245.2,148.6z M1267.6,44.1
						c-0.5-0.3-1.3-0.5-1.8-0.8l-33.3,19.4h3L1267.6,44.1z M1240.1,129.4h-3.3l-1,0.8l0.8,1.3L1240.1,129.4z M1246.4,151.1l-0.8-1.5
						l-8.6,5h3L1246.4,151.1z M1245.4,129.4h-3l-5,3l0.8,1.5L1245.4,129.4z M1270.4,45.6l-1.5-0.8l-31,17.9h3h0.3L1270.4,45.6z
						 M1251,129.4h-3.3l-9.1,5.3l0.8,1.5L1251,129.4z M1256.3,129.4h-3l-13.4,7.8l1,1.3L1256.3,129.4z M1261.8,129.4h-3.3
						l-17.2,10.1l0.8,1.5L1261.8,129.4z M1248,153.4l-0.8-1.5l-4.8,2.8c1.3,0,2.3-0.3,3.5-0.3L1248,153.4z M1265.4,130.6l-0.8-1.3
						h-0.5l-21.5,12.6l0.8,1.3L1265.4,130.6z M1272.7,47.6v-0.5c-0.5-0.3-0.8-0.5-1.3-0.8l-28,16.4h3L1272.7,47.6z M1266.6,132.9
						l-0.8-1.3l-21.7,12.6l0.8,1.3L1266.6,132.9z M1268.1,135.4l-0.8-1.5l-22,12.6l0.8,1.5L1268.1,135.4z M1269.4,137.7l-0.8-1.5
						l-21.7,12.9l0.8,1.3L1269.4,137.7z M1270.9,140l-1-1.3l-21.7,12.6c0.3,0.5,0.5,0.8,0.8,1.3L1270.9,140z M1272.7,50.6v-1.8
						l-24,13.9h3.3L1272.7,50.6z M1272.2,142.5l-0.8-1.5l-22,12.6l0.3,0.5l3.8-0.8L1272.2,142.5z M1260.8,122.8
						c-3.3,2.5-6.8,4.5-10.9,5.6h3l8.3-4.8L1260.8,122.8z M1254.3,156.1h-3.3l0.8,1.3L1254.3,156.1z M1255.3,63.7h-3.3l-0.8,0.5
						c0.8,0.3,1.3,0.5,2,0.8L1255.3,63.7z M1258.8,156.4l0.8-0.3h-3l-4.3,2.3l0.8,1.3L1258.8,156.4z M1272.7,45.6v-8.1h-20.2
						C1259.8,39,1266.6,41.8,1272.7,45.6z M1265.1,156.1h-3.3l-8.1,4.5l0.8,1.5L1265.1,156.1z M1272.7,53.9v-2l-18.4,10.9h3.3
						L1272.7,53.9z M1260.8,63.7h-3.3l-3,1.8c0.5,0.3,1.3,0.8,1.8,1C1257.8,65.8,1259.3,64.5,1260.8,63.7z M1254.5,154.9l1.8-0.3
						c0,0,1.3-1,3.3-1.8L1254.5,154.9z M1270.4,156.1h-3l-12.4,7.1l0.8,1.3L1270.4,156.1z M1261.8,124.6l-6.6,3.8h3.3l4-2.5
						L1261.8,124.6z M1272.7,157.9v-1.8l-16.4,9.3l1,1.5L1272.7,157.9z M1266.1,63.7h-3c-1.8,1-3.8,2.3-5.6,3.3c0.5,0.3,1,0.8,1.5,1
						L1266.1,63.7z M1272.7,145v-1.5l-15.1,8.6C1262.8,150.3,1268.1,148.1,1272.7,145z M1272.7,161.2v-2l-14.9,8.6l0.8,1.5
						L1272.7,161.2z M1272.7,148.6v-2l-0.8,0.5c-1,0.8-2,1.3-3,1.8l-10.3,5.8h2.8h0.5L1272.7,148.6z M1272.7,164.2v-1.8l-13.6,7.8
						l0.8,1.3L1272.7,164.2z M1272.7,56.9v-1.8l-12.9,7.6h3L1272.7,56.9z M1271.7,63.7h-3.3l-8.3,5c0.5,0.3,0.8,0.8,1.3,1
						L1271.7,63.7z M1272.7,167.5v-2l-12.1,7.1l0.8,1.5L1272.7,167.5z M1260.8,128.4h3l-0.8-1.5L1260.8,128.4z M1272.7,115l-8.6,5
						c-0.8,0.8-1.5,1.5-2.3,2l0.5,0.8l10.3-5.8L1272.7,115L1272.7,115z M1272.7,170.5v-1.8l-10.9,6.3l0.8,1.3L1272.7,170.5z
						 M1272.7,66.5v-2l-10.3,6.1c0.5,0.3,0.8,0.8,1.3,1.3L1272.7,66.5z M1272.7,118.3l-9.8,5.6l0.8,1.5l9.1-5.3L1272.7,118.3
						L1272.7,118.3z M1272.7,173.8v-2l-9.3,5.6l0.8,1.3L1272.7,173.8z M1272.7,151.6v-1.8l-8.6,4.8h3L1272.7,151.6z M1272.7,69.5
						v-1.8l-8.3,4.8c0.5,0.5,1,0.8,1.3,1.3L1272.7,69.5z M1272.7,121.3l-8.3,5l0.8,1.3l7.6-4.3L1272.7,121.3L1272.7,121.3z
						 M1272.7,176.8V175l-8.1,4.5l0.8,1.5L1272.7,176.8z M1272.7,60.2v-2l-7.6,4.5h3.3L1272.7,60.2z M1272.7,180.1v-2l-6.8,4l1,1.3
						L1272.7,180.1z M1272.7,72.8v-2l-6.6,3.8c0.3,0.5,0.8,0.8,1,1.3L1272.7,72.8z M1272.7,126.3v-1.8l-6.6,3.8h3.3L1272.7,126.3z
						 M1267.1,129.4h-1l0.3,0.5C1266.6,129.6,1266.9,129.6,1267.1,129.4z M1272.7,112l-3.8,2.3l-2.3,3l6.1-3.5L1272.7,112
						L1272.7,112z M1272.7,129.6v-0.3h-3.3l-2.5,1.5l1,1.5L1272.7,129.6z M1272.7,183.1v-1.8l-5.3,3l0.8,1.3L1272.7,183.1z
						 M1272.7,75.9v-1.8l-4.8,2.8c0.3,0.5,0.8,0.8,1,1.3L1272.7,75.9z M1272.7,132.7v-1.8l-4.3,2.5l0.8,1.3L1272.7,132.7z
						 M1272.7,186.4v-2l-4,2.3l0.8,1.5L1272.7,186.4z M1272.7,79.1v-2l-3.3,2c0.3,0.5,0.5,0.8,0.8,1.3L1272.7,79.1z M1272.7,154.6
						v-1.8l-3.3,1.8H1272.7z M1272.7,135.9v-2l-3,1.8l1,1.3L1272.7,135.9z M1272.7,108.7l-1.5,1c-0.3,0.8-0.8,1.8-1.3,2.5l2.8-1.5
						V108.7z M1272.7,189.5v-1.8c-0.8,0.5-1.8,1-2.5,1.5l0.8,1.3L1272.7,189.5z M1272.7,62.7v-1.3l-2,1.3H1272.7z M1272.7,82.2v-1.8
						l-2,1l0.8,1.5L1272.7,82.2z M1272.7,139v-1.8l-1.5,0.8l0.8,1.5L1272.7,139z M1272.7,192.7v-2l-1.3,0.8l0.8,1.5L1272.7,192.7z
						 M1272.7,85.5v-2l-1,0.5c0.3,0.5,0.3,1,0.5,1.5H1272.7z M1272.7,128.4v-0.8l-1,0.8H1272.7z M1272.7,105.6l-0.8,2.3l0.8-0.5
						V105.6z M1272.7,140.7v-0.5l-0.3,0.3L1272.7,140.7z M1298.9,62.7V37.5h-25v8.8c6.3,4.3,11.9,10.1,16.2,16.4
						C1290.1,62.7,1298.9,62.7,1298.9,62.7z M1274,48.1v1.8l1.5-0.8C1275,48.9,1274.5,48.3,1274,48.1z M1276.5,49.9l-2.5,1.3v2
						l3.8-2.3C1277.2,50.6,1277,50.1,1276.5,49.9z M1278.7,51.6l-4.8,2.8v1.8l6.1-3.5C1279.5,52.4,1279.3,51.9,1278.7,51.6z
						 M1280.8,53.6l-6.8,3.8v2l8.1-4.8C1281.5,54.2,1281.3,54.2,1280.8,53.6z M1282.8,55.7l-8.8,5v1.8l9.8-5.8
						C1283.5,56.2,1283,56.2,1282.8,55.7z M1284.8,63.7l-10.9,6.3v2l13.9-8.3H1284.8z M1279.3,63.7c-1.8,1-3.5,2.3-5.3,3.3v1.8
						l8.6-5h-3.3V63.7z M1274,63.7v2l3-2C1277,63.7,1274,63.7,1274,63.7z M1290.6,65.5c-0.3-0.5-0.8-0.8-1-1.3l-15.7,9.1v1.8
						L1290.6,65.5z M1291.9,68l-0.8-1.5l-17.2,9.8v2L1291.9,68z M1293.1,70.3c-0.3-0.5-0.5-0.8-0.8-1.3L1274,79.6v1.8L1293.1,70.3z
						 M1294.1,72.8c-0.3-0.5-0.3-1-0.5-1.5L1274,82.7v2L1294.1,72.8z M1295.4,75.4l-0.8-1.5L1274,86v1.8L1295.4,75.4z M1296.2,78.1
						c-0.3-0.5-0.3-1.3-0.5-1.8L1274,89v2L1296.2,78.1z M1296.9,80.7c-0.3-0.5,0-1-0.3-1.5L1274,92.3V94L1296.9,80.7z M1297.7,83.4
						c0-0.5,0-1-0.3-1.5L1274,95.3v0.8v1.3L1297.7,83.4z M1298.2,86.2c0-0.5-0.3-1-0.3-1.5l-24,13.9v1.8L1298.2,86.2z M1298.7,89.2
						c0-0.5-0.3-1.3-0.3-1.8l-24.5,14.1v2L1298.7,89.2z M1298.9,92.3c0-0.5-0.3-1.3-0.3-1.8l-24.7,14.4v1.8L1298.9,92.3z
						 M1298.9,95.3v-1.8l-25,14.4v2L1298.9,95.3z M1298.9,98.6v-2l-25,14.6v1.8L1298.9,98.6z M1298.7,101.9c0-0.8,0.3-1.3,0.3-2
						l-25,14.4v2L1298.7,101.9z M1298.4,105.1c0-0.8,0.3-1.3,0.3-2l-24.7,14.4v1.8L1298.4,105.1z M1297.7,108.7
						c0.3-0.8,0.3-1.3,0.5-2l-24.2,13.9v2L1297.7,108.7z M1296.7,112.5l0.8-2.3l-23.5,13.6v1.8L1296.7,112.5z M1295.4,116.2l0.8-2.3
						l-22.2,12.9v1.5h1L1295.4,116.2z M1288.3,129.9c0-0.3,0.3-0.3,0.3-0.5h-2.8l-11.9,7.1v1.8L1288.3,129.9z M1280.5,129.4
						l-6.6,3.8v2l9.6-5.8H1280.5z M1275,129.4l-1,0.8v1.8l4.3-2.5h-3.3V129.4z M1283.5,135.9l3-3.8l-12.6,7.3v2L1283.5,135.9z
						 M1274,143l0.5,0.8c2-1.5,4.3-3,6.1-4.8l-6.6,3.8V143z M1274.2,145.8h-0.3v2l1-0.8L1274.2,145.8z M1275.5,148.1l-1.5,1v1.8
						l2.3-1.3L1275.5,148.1z M1277,150.6l-3,1.5v2l3.8-2.3L1277,150.6z M1280.5,156.6l-0.5-0.5h-1.8l-4.3,2.3v2L1280.5,156.6z
						 M1274,156.1v1l2-1H1274z M1281.8,158.9l-0.8-1.3l-7.1,4v1.8L1281.8,158.9z M1283.3,161.2l-1-1.3l-8.3,4.8v2L1283.3,161.2z
						 M1284.6,163.7l-0.8-1.5l-9.8,5.8v1.8L1284.6,163.7z M1285.8,166l-0.8-1.3l-11,6.3v2L1285.8,166z M1287.3,168.5l-0.8-1.5
						l-12.6,7.3v1.8L1287.3,168.5z M1288.6,170.8l-0.8-1.5l-13.9,8.1v2L1288.6,170.8z M1290.1,173l-0.8-1.3l-15.4,8.8v1.8
						L1290.1,173z M1291.4,175.6l-0.8-1.5l-16.7,9.6v2L1291.4,175.6z M1292.9,177.8l-1-1.5l-17.9,10.6v1.8L1292.9,177.8z
						 M1294.1,180.1l-0.8-1.3L1274,190v2L1294.1,180.1z M1295.4,182.6l-0.8-1.5l-20.7,12.1v0.8h2L1295.4,182.6z M1278.2,152.8
						l-3.3,1.8h3.3l0.8-0.5L1278.2,152.8z M1295.7,129.4h-5.6c-3.5,5.3-8.3,10.3-13.4,14.4c-0.5,0.5-1,0.8-1.5,1.3l5.6,9.6h18.2
						v-46.2c-1.5,7.1-4.3,13.9-8.1,19.9h4.8V129.4z M1284.8,57.7l-8.8,5h3.3l6.6-3.8C1285.6,58.4,1285.1,58.2,1284.8,57.7z
						 M1293.9,120.5c0.3-0.8,0.8-1.8,1-2.5l-17.7,10.3h3L1293.9,120.5z M1296.9,184.9l-0.8-1.3l-17.9,10.3h3.3L1296.9,184.9z
						 M1286.6,59.7l-5,3h3.3c1-0.5,1.5-1.3,2.5-1.8C1287.1,60.5,1286.8,60.2,1286.6,59.7z M1298.9,186.2v-30h-17.4L1298.9,186.2z
						 M1291.6,124.8c0.5-0.8,0.8-1.5,1.3-2.5l-10.3,6.1h3.3L1291.6,124.8z M1298.2,187.2l-0.8-1.3l-13.6,8.1h3L1298.2,187.2z
						 M1287.1,62.7h1.5c-0.3-0.3-0.3-0.5-0.5-0.8L1287.1,62.7z M1289.6,128.4l0.8-1.5l-2.3,1.5H1289.6z M1298.9,190v-1.3v-0.5
						l-9.8,5.8h3.3L1298.9,190z M1298.9,83.9V63.7h-8.1C1294.7,69.8,1297.4,76.6,1298.9,83.9z M1298.9,193.2v-2l-4.3,2.8h3
						L1298.9,193.2z M1300.5,190.7v1.8l0.5-0.5L1300.5,190.7z M1300.5,193.7v0.3h1.8l-0.8-1L1300.5,193.7z"/>
					<path class="st2" d="M1484.2,37.5h-9.3l-77.2,77L1477,194h11.6v1h-10.3l7.6,7.8l-0.8,1l-8.6-8.8h-35.8l37.1,37.1l-1,0.8
						l-37.9-37.9h-60.3v37.6h-1.5V195h-25.2v37.6h-1V195H1334v-1h16.7v-32.3l-8.6,8.3l-0.8-1l9.3-9.3v-35.6l-14.6,14.4l-0.8-0.8
						l15.4-15.4v-15.4l-21.5-21.2l1-1l20.4,20.4V69.3l-10.3-10.1l0.8-1l9.6,9.3v-30h-19.4V36h19.4V1.6h1V36h25.2V1.6h1.5V36h58.3
						l33.3-33.6l1,1L1438.5,36h35.6l11.9-11.6l0.8,1L1476.1,36h8.1V37.5z M1376.9,38.2v-0.8h-1.3l-24,13.6v1.8L1376.9,38.2z
						 M1373.4,37.5h-3.3l-18.4,10.6v1.8L1373.4,37.5z M1367.9,37.5h-3l-13.1,7.3v1.8L1367.9,37.5z M1362.6,37.5h-3.3l-7.6,4.3v1.8
						L1362.6,37.5z M1357,37.5h-3.3l-2,1v1.8L1357,37.5z M1376.9,41.5v-1.8l-25.2,14.6v1.8L1376.9,41.5z M1376.9,44.6v-1.8
						l-25.2,14.6v1.8L1376.9,44.6z M1376.9,47.8V46l-25.2,14.6v1.8L1376.9,47.8z M1376.9,50.9v-1.8l-25.2,14.6v1.8L1376.9,50.9z
						 M1376.9,54.2v-1.8L1351.7,67v1.8L1376.9,54.2z M1351.7,70.6v1.3l1-0.3L1351.7,70.6z M1353.5,72.3l-1.8,1v1.8l3-1.8
						L1353.5,72.3z M1355.5,74.3l-3.8,2v1.8l5-2.8L1355.5,74.3z M1357.5,76.4l-5.8,3.3v1.8l6.8-4L1357.5,76.4z M1359.5,78.4
						l-7.8,4.3v1.8l8.8-5L1359.5,78.4z M1361.5,80.2l-9.8,5.8v1.8l10.9-6.3L1361.5,80.2z M1363.6,82.2l-11.9,6.8v1.8l12.9-7.3
						L1363.6,82.2z M1365.6,84.2l-13.9,8.1V94l14.9-8.6L1365.6,84.2z M1367.3,86.2l-15.7,9.1v1.8l16.9-9.6L1367.3,86.2z
						 M1369.4,88.2l-17.7,10.3v1.8l18.9-10.9L1369.4,88.2z M1371.4,90.2l-19.7,11.4v1.8l21-11.9L1371.4,90.2z M1374.7,93.5l-1.3-1.3
						l-21.7,12.6v1.5h0.3L1374.7,93.5z M1353,109.2l-1.3-1v1.5L1353,109.2z M1355,111.2l-1.3-1.3l-2,1.3v1.8L1355,111.2z
						 M1357,113.2l-1.3-1.3c-1.3,0.8-2.8,1.5-4,2.3v1.8L1357,113.2z M1356,116.8l2.3-2.3l-0.5-0.5l-6.1,3.5v1.8L1356,116.8z
						 M1361.8,118l-10.1,5.8v1.8l11.1-6.3L1361.8,118z M1363.8,120l-12.1,6.8v1.8l13.1-7.6L1363.8,120z M1351.7,121l1.3-1l-1.3,0.5
						V121z M1365.6,122.1l-13.9,8.1v1.8l15.1-8.8L1365.6,122.1z M1367.6,124.1l-15.9,9.1v1.8l17.2-9.8L1367.6,124.1z M1369.6,126.1
						l-17.9,10.3v1.8l19.2-11.1L1369.6,126.1z M1371.6,127.9l-19.9,11.6v1.8l21.2-12.1L1371.6,127.9z M1373.7,129.9l-22,12.9v1.8
						l23.2-13.4L1373.7,129.9z M1375.7,131.9l-24,13.9v1.8l25.2-14.4L1375.7,131.9z M1370.1,140.2l4.5-4.5l-23,13.4v1.8
						L1370.1,140.2z M1362.6,147.8l4.5-4.5l-15.4,8.8v1.8L1362.6,147.8z M1376.9,147l-25.2,14.6v1.8l25.2-14.6V147z M1376.9,150.1
						l-25.2,14.6v1.8l25.2-14.6V150.1z M1355.2,155.1l4.3-4.3l-7.8,4.5v1.8L1355.2,155.1z M1376.9,153.4l-25.2,14.6v1.8l25.2-14.6
						V153.4z M1376.9,156.4l-25.2,14.6v1.8l25.2-14.6V156.4z M1376.9,159.7l-25.2,14.6v1.8l25.2-14.6V159.7z M1376.9,162.7
						l-25.2,14.6v1.8l25.2-14.6V162.7z M1376.9,166l-25.2,14.6v1.8l25.2-14.6V166z M1376.9,169l-25.2,14.6v1.8l25.2-14.6V169z
						 M1376.9,172.3l-25.2,14.6v1.8l25.2-14.6V172.3z M1376.9,175.3l-25.2,14.6v1.8l25.2-14.6V175.3z M1376.9,178.6l-25.2,14.6v0.8
						h2l23.2-13.6V178.6z M1376.9,143.8l-20.7,12.1l-4.3,4.3l25-14.6V143.8z M1376.9,57.2v-1.8l-24.2,14.1l1,1.3L1376.9,57.2z
						 M1359.8,116l-2.5,1.5l-4.5,4.3l8.1-4.5L1359.8,116z M1376.7,95.5l-1.3-1.3l-22.5,13.1l1,1L1376.7,95.5z M1376.9,60.5v-1.8
						l-22.5,12.9l1.3,1.3L1376.9,60.5z M1370.9,101.9l4.5-4.3l-20.7,11.9l1.3,1L1370.9,101.9z M1376.9,181.6l-21,12.4h3.3l17.7-10.6
						V181.6z M1376.9,63.5v-1.8l-20.4,11.9l1.3,1.3L1376.9,63.5z M1363.6,109.4l4.3-4.5l-11.1,6.6l1.3,1L1363.6,109.4z M1376.9,66.8
						V65l-18.4,10.6l1.3,1.3L1376.9,66.8z M1359.3,113.7l1-1.3l-1.5,0.8L1359.3,113.7z M1376.9,140.7l-13.1,7.6l-4.3,4.3l17.4-10.1
						V140.7z M1376.9,102.9l-12.4,7.1l-4.3,4.5l16.7-9.8L1376.9,102.9L1376.9,102.9z M1376.9,69.8V68l-16.4,9.6l1.3,1.3L1376.9,69.8
						z M1376.9,105.9l-16.2,9.3l1.3,1.3l14.9-8.8L1376.9,105.9L1376.9,105.9z M1376.9,184.9l-15.4,9.1h3l12.4-7.3V184.9z
						 M1376.9,73.1v-1.8l-14.4,8.3l1.3,1.3L1376.9,73.1z M1376.9,109.2l-14.1,8.1l1.3,1.3l12.9-7.6v-1.8H1376.9z M1376.9,76.1v-1.8
						l-12.4,7.3l1.3,1L1376.9,76.1z M1376.9,112.2l-12.1,7.1l1.3,1.3l10.9-6.6v-1.8H1376.9z M1376.9,79.4v-1.8l-10.3,6.1l1.3,1
						L1376.9,79.4z M1376.9,115.5l-10.1,5.8l1.3,1.3l8.8-5.3L1376.9,115.5L1376.9,115.5z M1376.9,137.5l-5.6,3.3l-4.5,4.5l10.1-6.1
						V137.5z M1376.9,187.9l-10.1,6.1h3.3l6.8-4.3L1376.9,187.9L1376.9,187.9z M1376.9,99.6l-4.8,3l-4.3,4.3l9.1-5.6L1376.9,99.6
						L1376.9,99.6z M1376.9,82.4v-1.8l-8.3,5l1.3,1L1376.9,82.4z M1376.9,118.5l-8.1,4.8l1,1.3l7.1-4.3V118.5z M1376.9,85.7v-1.8
						l-6.3,3.8l1,1L1376.9,85.7z M1376.9,121.8l-6.1,3.5l1,1.3l5-3L1376.9,121.8L1376.9,121.8z M1376.9,191.2l-4.5,2.8h3l1.5-1
						V191.2z M1376.9,88.7V87l-4.3,2.5l1,1.3C1374.7,90,1375.9,89.5,1376.9,88.7z M1376.9,124.8l-4,2.5l1,1.3l3-2V124.8z
						 M1376.9,135.2l-2.5,2.5l2.5-1.5V135.2z M1376.9,92v-1.8l-2.3,1.3l1,1.3L1376.9,92z M1376.9,128.1l-2,1.3l1,1l1-0.5V128.1z
						 M1376.9,97.6l-1.8,1.8l1.8-1V97.6z M1376.9,94v-0.8l-0.3,0.3L1376.9,94z M1378.5,94.5l57-57h-57V94.5z M1378.7,97.3l-0.3-0.3
						v0.5L1378.7,97.3z M1380.7,99.3l-1.3-1l-1,0.5v2L1380.7,99.3z M1382.5,101.4l-1-1l-3,1.8v1.8L1382.5,101.4z M1384.5,103.4l-1-1
						l-5,2.8v2L1384.5,103.4z M1386.5,105.4l-1-1.3l-7.1,4.3v1.8L1386.5,105.4z M1388.6,107.4l-1-1.3l-9.1,5.3v2L1388.6,107.4z
						 M1390.6,109.4l-1-1.3l-11.1,6.6v1.8L1390.6,109.4z M1392.6,111.5l-1.3-1.3l-12.9,7.6v2L1392.6,111.5z M1394.6,113.5l-1.3-1.3
						l-14.9,8.8v1.8L1394.6,113.5z M1392.6,117.8l3.3-3.3l-0.5-0.3l-16.9,9.8v2L1392.6,117.8z M1385.3,125.1l4.3-4.3l-11.1,6.6v1.8
						L1385.3,125.1z M1378.5,131.9l3.5-3.5l-3.5,2V131.9z M1437.5,194l-59.1-59.3V194H1437.5z M1464.5,45.8l-85,49.2l-0.8,0.8l1,1
						l80.5-46.7L1464.5,45.8z M1401.4,120.3l-22.7,13.1l1.3,1l22.7-13.1L1401.4,120.3z M1457,53.4l-76.5,44.2l1.3,1.3l70.9-41.1
						L1457,53.4z M1403.4,122.3l-22.7,13.1l1.3,1l22.7-13.1L1403.4,122.3z M1399.4,118.3l-13.1,7.6l-4.3,4.3l18.7-10.9L1399.4,118.3
						z M1449.4,60.7l-66.9,38.9l1.3,1.3l61.3-35.6L1449.4,60.7z M1472.1,38.2L1387,87.5l-4.3,4.5l84.8-49.2L1472.1,38.2z
						 M1405.5,124.3l-22.7,12.9l1.3,1.3l22.5-13.1L1405.5,124.3z M1442.1,68.3l-57.6,33.3l1.3,1.3l51.7-30L1442.1,68.3z
						 M1407.5,126.3l-22.7,12.9l1.3,1.3l22.5-13.1L1407.5,126.3z M1434.5,75.9l-48,27.8l1.3,1l42.4-24.5L1434.5,75.9z M1409.5,128.1
						l-22.7,13.1l1.3,1.3l22.5-13.1L1409.5,128.1z M1426.9,83.4l-38.4,22.2l1.3,1l32.8-18.9L1426.9,83.4z M1411.5,130.1l-22.7,13.1
						l1.3,1.3l22.5-13.1L1411.5,130.1z M1397.4,116.2l-3.5,2l-4.5,4.5c3-1.8,6.3-3.5,9.3-5.3L1397.4,116.2z M1468.3,37.5l-73.7,42.7
						l-4.5,4.3l81.3-47H1468.3z M1419.6,90.8l-29,16.9c0.5,0.5,0.8,0.5,1.3,1l23.2-13.4L1419.6,90.8z M1413.3,132.2l-22.5,13.1
						l1.3,1.3l22.5-13.1L1413.3,132.2z M1412,98.3l-19.4,11.4l1.3,1l13.9-8.1L1412,98.3z M1415.3,134.2l-22.5,13.1l1,1.3l22.7-13.1
						L1415.3,134.2z M1404.5,105.9l-9.8,5.8l1,1l4.5-2.5L1404.5,105.9z M1417.3,136.2l-22.5,13.1l1,1.3l22.7-13.1L1417.3,136.2z
						 M1396.6,113.5v0.3l0.5-0.5L1396.6,113.5z M1419.3,138.2l-22.5,13.1l1,1.3l22.7-13.1L1419.3,138.2z M1462.8,37.5L1402,72.6
						l-4.3,4.3l68.4-39.4H1462.8z M1421.4,140.2l-22.5,13.1l1,1l22.7-12.9L1421.4,140.2z M1423.4,142.2l-22.5,13.1l1,1l22.7-13.1
						L1423.4,142.2z M1425.4,144.3l-22.7,13.1l1.3,1l22.7-13.1L1425.4,144.3z M1427.4,146.3l-22.7,13.1l1.3,1l22.7-13.1
						L1427.4,146.3z M1457.5,37.5l-48,27.5l-4.3,4.5l55.3-32.1L1457.5,37.5L1457.5,37.5z M1429.4,148.3l-22.7,12.9l1.3,1.3
						l22.5-13.1L1429.4,148.3z M1431.5,150.3l-22.7,12.9l1.3,1.3l22.5-13.1L1431.5,150.3z M1433.5,152.1l-22.7,13.1l1.3,1.3
						l22.5-13.1L1433.5,152.1z M1451.9,37.5l-34.8,20.2l-4.5,4.3l42.7-24.5H1451.9z M1435.5,154.1l-22.7,13.1l1.3,1.3l22.5-13.1
						L1435.5,154.1z M1437.3,156.1l-22.5,13.1l1.3,1.3l22.5-13.1L1437.3,156.1z M1439.3,158.2l-22.5,13.1l1,1.3l22.7-13.1
						L1439.3,158.2z M1441.3,160.2l-22.5,13.1l1,1.3l22.7-13.1L1441.3,160.2z M1446.4,37.5l-22,12.6l-4.3,4.3l29.5-16.9H1446.4z
						 M1443.3,162.2l-22.5,13.1c0.5,0.5,0.5,0.8,1,1.3l22.7-13.1L1443.3,162.2z M1445.3,164.2l-22.5,13.1l1,1l22.7-12.9
						L1445.3,164.2z M1447.4,166.2l-22.5,13.1l1,1l22.7-13.1L1447.4,166.2z M1449.4,168.2l-22.7,13.1l1.3,1l22.7-13.1L1449.4,168.2z
						 M1441.1,37.5l-9.1,5l-4.3,4.5l16.4-9.6L1441.1,37.5L1441.1,37.5z M1451.4,170.3l-22.7,13.1l1.3,1l22.7-13.1L1451.4,170.3z
						 M1453.4,172.3l-22.7,12.9l1.3,1.3l22.5-13.1L1453.4,172.3z M1455.4,174.3l-22.7,12.9l1.3,1.3l22.5-13.1L1455.4,174.3z
						 M1457.5,176.1l-22.7,13.1l1.3,1.3l22.5-13.1L1457.5,176.1z M1437.3,37.5l-2.3,2l3.8-2H1437.3z M1459.5,178.1l-22.7,13.1
						l1.3,1.3l22.5-13.1L1459.5,178.1z M1462.5,181.4l-1.3-1.3l-22.5,13.1l0.5,0.8h1.5L1462.5,181.4z M1464.5,183.4l-1.3-1.3
						L1443,194h3.3L1464.5,183.4z M1466.6,185.4l-1.3-1.3l-16.7,9.8h3.3L1466.6,185.4z M1468.6,187.4l-1.3-1.3l-13.1,7.8h3
						L1468.6,187.4z M1470.6,189.5l-1.3-1.3l-9.8,5.8h3.3L1470.6,189.5z M1472.6,191.2l-1.3-1l-6.3,3.8h3L1472.6,191.2z
						 M1474.6,193.2l-1.3-1l-3,1.8h3.3L1474.6,193.2z"/>
				</g>
			</g>
		</g>
	</g>
</g>
</svg>
