<?xml version="1.0" encoding="utf-8"?>
<!-- Generator: Adobe Illustrator 21.0.0, SVG Export Plug-In . SVG Version: 6.00 Build 0)  -->
<svg version="1.1" id="Layer_1" xmlns="http://www.w3.org/2000/svg" xmlns:xlink="http://www.w3.org/1999/xlink" x="0px" y="0px"
	 viewBox="0 0 694.7 121" style="enable-background:new 0 0 694.7 121;" xml:space="preserve">
<style type="text/css">
	.st0{fill:none;stroke:#CECECE;stroke-miterlimit:10;}
	.st1{clip-path:url(#SVGID_2_);}
	.st2{fill:#CECECE;}
</style>
<g>
	<line class="st0" x1="0" y1="120.4" x2="694.7" y2="120.4"/>
	<g>
		<g>
			<defs>
				<rect id="SVGID_1_" x="-79.7" y="-40.6" width="835" height="161"/>
			</defs>
			<clipPath id="SVGID_2_">
				<use xlink:href="#SVGID_1_"  style="overflow:visible;"/>
			</clipPath>
			<g class="st1">
				<g>
					<path class="st2" d="M187.6,32.4h-16v66.9v44H188v1.3h-16.4v21.6h20.7v0.9h-20.7v32.1h-1.3V167h-23.7v1.3h3.9v0.9h-3.9v30h-0.9
						v-30h-44.4h-44v30H56v-30h-1.5v-0.9H56V167H32.3v32.1h-0.9V167H19.3v-0.9h12.1v-21.6H19.3v-1.3h12.1v-44V32.4H17v-1.3h14.5V1.8
						h0.9v29.3H56V1.8h1.3v29.3H84c5.6-1.5,11.2-2.2,17.3-2.2s11.9,0.6,17.5,2.2h27V1.8h0.9v29.3h23.7V1.8h1.3v29.3h16L187.6,32.4
						L187.6,32.4z M56,33.1v-0.6h-1.1L32.3,45.4v1.5L56,33.1z M53,32.4h-2.8L32.3,42.6v1.7L53,32.4z M48.2,32.4h-2.6L32.3,40v1.5
						L48.2,32.4z M43.7,32.4h-2.8l-8.6,4.7v1.7L43.7,32.4z M38.9,32.4h-2.8c-1.3,0.6-2.6,1.5-3.9,2.2v1.5L38.9,32.4z M34.2,32.4
						h-1.9v1.1L34.2,32.4z M56,35.9v-1.5L32.3,48v1.7L56,35.9z M56,38.5V37L32.3,50.8v1.5L56,38.5z M56,41.3v-1.5L32.3,53.4v1.7
						L56,41.3z M56,43.9v-1.5L32.3,56.2v1.5L56,43.9z M53.2,48.4c1.1-0.9,1.7-1.7,2.8-2.6v-0.6L32.3,58.8v1.7L53.2,48.4z M47.6,54.2
						c0.9-1.1,1.7-2.2,2.8-3.2L32.3,61.6v1.5L47.6,54.2z M43.9,59.2c0.6-0.9,1.3-1.9,1.9-2.8l-13.6,7.8v1.7L43.9,59.2z M41.1,63.5
						c0.4-0.9,1.1-1.7,1.5-2.6l-10.4,6v1.5L41.1,63.5z M38.9,67.4c0.4-0.9,0.6-1.5,1.1-2.2l-7.8,4.3v1.7L38.9,67.4z M37.2,71.1
						c0.2-0.6,0.4-1.5,0.9-2.2l-5.8,3.5v1.5L37.2,71.1z M35.7,74.7c0.2-0.6,0.6-1.5,0.9-2.2l-4.3,2.4v1.7L35.7,74.7z M34.6,78
						l0.6-1.9l-3,1.7v1.5L34.6,78z M33.6,81.2c0.2-0.6,0.4-1.1,0.6-1.7l-1.9,0.9v1.7L33.6,81.2z M32.9,84.4c0.2-0.6,0.2-1.3,0.4-1.9
						l-1.1,0.6v1.5L32.9,84.4z M56,85.5L32.3,99.3c0,0.4,0.2,1.1,0.2,1.5L56,87V85.5z M32.3,86.8c0-0.4,0.4-0.6,0.4-1.1h-0.4V86.8z
						 M46.9,143.3c-7.3-9.1-12.5-19.8-14.7-31.7v31.7H46.9z M56,152.6c-3-2.6-5.4-5-8-8H32.3v21.6H56V152.6z M56,80.1L32.5,93.7v1.7
						L56,81.6V80.1z M56,82.9L32.5,96.5v1.7L56,84.4V82.9z M56,88.3l-23.5,13.6v1.5L56,89.8V88.3z M56,90.9l-23.5,13.6
						c0,0.4,0.2,1.1,0.2,1.5L56,92.4V90.9z M56,77.5L32.9,90.9c0,0.6-0.2,1.1-0.2,1.7L56,79V77.5z M56,93.7l-23.1,13.4v1.5L56,95.2
						V93.7z M56,74.7L33.3,87.9c0,0.6-0.2,1.1-0.2,1.7L56,76.2V74.7z M56,96.3l-22.9,13.4c0,0.4,0.2,0.9,0.2,1.3L56,97.8V96.3z
						 M56,72.1L33.8,84.9c-0.2,0.6,0,1.3-0.2,1.9L56,73.6V72.1z M56,99.3v-0.2L33.6,112c0,0.4,0.2,1.1,0.2,1.5L56,100.6V99.3z
						 M56,101.7l-22,12.7c0,0.4,0.2,1.1,0.4,1.5L56,103.2V101.7z M56,69.3L34.6,81.8c-0.2,0.6-0.2,1.1-0.4,1.7L56,70.8V69.3z
						 M56,104.5l-21.4,12.3c0.2,0.4,0.2,1.1,0.4,1.5L56,106V104.5z M56,66.7L35.5,78.6l-0.6,1.9L56,68.3V66.7z M56,107.1l-20.7,12.1
						c0.2,0.4,0.2,0.9,0.4,1.3L56,108.6V107.1z M56,63.9L36.6,75.2c-0.2,0.6-0.4,1.5-0.6,2.2l20-12V63.9z M56,109.9l-20.1,11.6
						l0.6,1.3L56,111.4V109.9z M56,112.5l-19.2,11.2l0.6,1.3L56,114V112.5z M56,61.4L38.1,71.7c-0.2,0.6-0.6,1.5-0.9,2.2l18.8-11
						V61.4z M56,115.3l-18.3,10.6l0.6,1.3L56,116.8V115.3z M56,58.5L39.8,68c-0.4,0.6-0.6,1.5-1.1,2.2L56,60.1V58.5z M56,117.9
						L38.7,128c0.2,0.4,0.2,0.9,0.4,1.3l16.8-9.9L56,117.9L56,117.9z M56,120.7l-16.4,9.5c0.2,0.4,0.4,0.6,0.6,1.1l15.7-9.1
						L56,120.7L56,120.7z M56,56l-14,8.2c-0.4,0.9-0.9,1.3-1.3,2.2L56,57.5V56z M56,123.3l-15.3,8.8l0.6,1.3l14.7-8.6V123.3z
						 M56,126.1l-14,8.2c0.2,0.4,0.4,0.6,0.6,1.1l13.4-7.8V126.1z M56,53.2l-11.2,6.7c-0.6,0.9-1.1,1.5-1.7,2.4L56,54.7V53.2z
						 M56,128.6l-13,7.6c0.2,0.4,0.6,0.6,0.9,1.1l12.1-7.1V128.6z M56,131.4l-11.6,6.7c0.2,0.4,0.6,0.6,0.9,1.1L56,133V131.4z
						 M56,134l-10.1,6c0.2,0.4,0.4,0.6,0.6,1.1l9.5-5.6V134z M56,50.6l-7.5,4.3c-0.9,0.9-1.7,1.9-2.4,3l9.9-5.8V50.6z M56,136.8
						l-8.8,5.2c0.2,0.4,0.6,0.6,0.9,1.1l8-4.7v-1.6H56z M56,139.4l-6.7,3.9h2.6l4.1-2.4C56,140.9,56,139.4,56,139.4z M49.3,144.6
						l0.2,0.2l0.6-0.2H49.3z M52.1,144.6l-1.9,0.9c0.2,0.4,0.9,0.6,1.1,1.1l3.5-1.9h-2.7V144.6z M56,47.8l-2,1.3
						c-1.3,1.1-2.6,2.4-3.7,3.7l5.6-3.5v-1.5H56z M56,146.3v-1.5l-4.1,2.4l1.1,1.1L56,146.3z M56,149.1v-1.5l-2.4,1.3
						c0.4,0.4,0.6,0.9,1.1,1.1L56,149.1z M53.8,143.3H56v-1.1L53.8,143.3z M56,151.3v-1.1l-0.6,0.4L56,151.3z M118.5,32.4H84.2
						C74.1,35,65,39.8,57.3,46.3v43.1c4.5-20.3,22.4-35.4,44-35.4s39.9,15.1,44.4,35.4V46.3C137.9,39.8,128.7,35,118.5,32.4z
						 M57.3,44.7C64,39.1,71.7,35,80.4,32.4H57.3V44.7z M101.3,54.9c-24.4,0-44,20.1-44,44.4s19.6,44,44,44s44.4-19.6,44.4-44
						S125.7,54.9,101.3,54.9z M57.3,109.2v1.5l0.2-0.2C57.3,110.1,57.3,109.7,57.3,109.2z M57.7,111.6l-0.4,0.2v1.7l0.9-0.6
						C57.9,112.5,57.9,112,57.7,111.6z M58.6,113.8l-1.3,0.9v1.5l1.7-1.1C58.8,114.6,58.8,114.2,58.6,113.8z M59.2,115.9l-1.9,1.3
						v1.7l2.6-1.7L59.2,115.9z M60.3,118.1l-3,1.9v1.5l3.7-2.2L60.3,118.1z M61.4,120.2l-4.1,2.4v1.7l4.7-2.8L61.4,120.2z
						 M62.5,122.4l-5.2,3v1.5l5.8-3.5C62.9,123,62.7,122.8,62.5,122.4z M63.8,124.3l-6.5,3.7v1.7l7.1-4.3
						C64.2,125,64,124.8,63.8,124.3z M65,126.3l-7.8,4.5v1.5l8.6-5C65.7,126.9,65.3,126.7,65,126.3z M66.6,128l-9.3,5.4v1.7l10.1-6
						C67.2,128.6,66.8,128.4,66.6,128z M68.1,129.9l-10.8,6.3v1.5l11.6-6.9C68.5,130.4,68.3,130.4,68.1,129.9z M69.8,131.7
						l-12.5,7.1v1.7l13.4-8C70.2,132.3,70.2,132.1,69.8,131.7z M71.5,133.2l-14.2,8.4v1.5l15.3-8.8C72.2,134,71.9,133.4,71.5,133.2z
						 M73.5,144.6h-2.8l-13.4,7.8c0.4,0.2,0.6,0.6,1.1,0.9L73.5,144.6z M68.7,144.6h-2.6l-8.8,5v1.7L68.7,144.6z M64.2,144.6h-2.8
						l-4.1,2.4v1.5L64.2,144.6z M59.4,144.6h-2.2v1.3L59.4,144.6z M80.4,166.2c-8.6-2.6-16.4-6.9-23.1-12.5v12.5H80.4z M57.3,168.3
						H89c-1.7-0.2-3.2-0.9-5-1.3H57.3V168.3z M74.5,135.8c-0.4-0.2-0.6-0.6-1.1-0.9l-14.9,8.4h2.8L74.5,135.8z M78,144.6h-2.6
						l-16.2,9.3c0.4,0.2,0.6,0.6,1.1,0.9L78,144.6z M82.7,144.6h-2.8l-18.8,10.8c0.4,0.2,0.9,0.6,1.3,0.9L82.7,144.6z M76.7,137.3
						c-0.4-0.2-0.9-0.6-1.3-0.9l-12.1,6.9h2.6L76.7,137.3z M87.3,144.6h-2.6l-21.4,12.3l1.3,0.6L87.3,144.6z M92,144.6h-2.8
						l-23.5,13.6c0.4,0.2,0.9,0.6,1.3,0.9L92,144.6z M79.1,138.6c-0.4-0.2-1.1-0.6-1.5-0.9l-9.7,5.6h2.8L79.1,138.6z M96.8,144.6H94
						l-26.1,14.9c0.4,0.2,1.1,0.6,1.5,0.9L96.8,144.6z M101.3,144.6h-2.6l-28.3,16.2c0.4,0.2,0.9,0.6,1.3,0.9L101.3,144.6z
						 M81.4,139.9c-0.4-0.2-1.1-0.4-1.5-0.6l-7.3,4.1h2.6L81.4,139.9z M106,144.6h-2.8l-30.4,17.5c0.4,0.2,1.3,0.4,1.7,0.6
						L106,144.6z M110.6,144.6H108l-32.4,18.5c0.4,0.2,0.9,0.4,1.5,0.6L110.6,144.6z M84,140.9c-0.4-0.2-1.1-0.4-1.5-0.6l-5.4,3h2.8
						L84,140.9z M115.3,144.6h-2.8l-34.1,19.6c0.6,0.2,1.1,0.4,1.7,0.6L115.3,144.6z M120,144.6h-2.8l-35.8,20.7
						c0.6,0.2,1.1,0.2,1.7,0.4L120,144.6z M86.8,142c-0.6-0.2-1.1-0.2-1.7-0.4l-3.2,1.7h2.8L86.8,142z M124.6,144.6H122l-37.3,21.6
						h2.6L124.6,144.6z M89.9,143.1c-0.6-0.2-1.1-0.4-1.7-0.6l-1.5,0.9h2.6L89.9,143.1z M101.3,30.3c-4.1,0-8.2,0.2-12.1,0.9h24.4
						C109.7,30.5,105.4,30.3,101.3,30.3z M129.3,144.6h-2.8l-37.3,21.6H92L129.3,144.6z M89.2,167c0.2,0,0.4,0.2,0.6,0.2L90,167
						H89.2z M92,167l-0.6,0.4c0.6,0,1.7,0.4,2.4,0.4l1.1-0.9H92V167z M133.9,144.6h-2.6L94,166.2h2.8L133.9,144.6z M96.8,167
						l-1.5,0.9c0.9,0,1.7,0.2,2.6,0.2l1.7-1.1L96.8,167L96.8,167z M138.6,144.6h-2.8l-37.1,21.6h2.6L138.6,144.6z M101.5,167
						l-1.9,1.1c0.6,0,1.1,0.2,1.7,0.2c0.2,0,0.9-0.2,1.1-0.2l1.7-1.1H101.5z M143.3,144.6h-2.8l-37.3,21.6h2.8L143.3,144.6z
						 M106,167l-1.7,1.1c1.1,0,1.9-0.2,3-0.2l1.5-0.9L106,167L106,167z M145.7,145.9v-1.3h-0.6L108,166.2h2.6L145.7,145.9z
						 M110.8,167l-1.1,0.6c1.3-0.2,2.4-0.2,3.7-0.4V167H110.8z M111.2,143.3h1.3l0.9-0.4C112.7,143.1,111.9,143.1,111.2,143.3z
						 M145.7,148.5V147l-33.2,19.2h2.8L145.7,148.5z M118.8,167c-1.7,0.4-3.2,1.1-5,1.3h31.9V167H118.8z M145.7,125.4l-16.2,9.3
						c-3.5,2.8-7.3,5-11.4,6.7l-3.7,1.9h2.8l28.5-16.4L145.7,125.4L145.7,125.4z M145.7,151.3v-1.7l-28.5,16.6h1.3
						c0.9-0.2,1.9-0.6,2.8-0.9L145.7,151.3z M145.7,128l-26.5,15.3h2.6l23.9-13.6V128z M122.4,32.4c8.6,2.6,16.6,6.7,23.3,12.3V32.4
						H122.4z M145.7,153.7c-6.7,5.6-14.7,9.9-23.3,12.5h23.3V153.7z M145.7,130.8l-22,12.5h2.8l19.2-11V130.8z M145.1,152.6
						l-19.2,11.2C132.8,161.2,139.5,157.3,145.1,152.6z M145.7,133.4l-17.3,9.9h2.6l14.7-8.2V133.4z M145.7,136.2l-12.7,7.1h2.8
						l9.9-5.6V136.2z M145.7,122.6l-9.5,5.4c-0.9,1.1-1.9,2.4-3,3.5l12.5-7.1V122.6z M145.7,138.8l-8,4.5h2.8l5.2-2.8V138.8z
						 M145.7,120l-6,3.5c-0.6,0.9-1.1,1.7-1.7,2.6l7.8-4.5V120H145.7z M145.7,117.2l-3.9,2.2c-0.4,0.9-0.6,1.7-1.1,2.4l5-2.8V117.2z
						 M145.7,141.6l-3.2,1.7h2.6l0.6-0.2L145.7,141.6L145.7,141.6z M145.7,114.6l-2.2,1.1c-0.2,0.6-0.6,1.5-0.9,2.2l3-1.7
						L145.7,114.6L145.7,114.6z M145.7,111.8l-1.1,0.6l-0.6,1.9l1.7-0.9L145.7,111.8L145.7,111.8z M145.7,109.2h-0.2
						c-0.2,0.6-0.2,1.1-0.4,1.7l0.6-0.2L145.7,109.2L145.7,109.2z M166.6,32.4l-20.1,11.4v1.5l22.6-12.9H166.6z M161.9,32.4
						L146.6,41v1.7l18.1-10.4L161.9,32.4L161.9,32.4z M157.4,32.4l-10.8,6V40l13.4-7.5L157.4,32.4L157.4,32.4z M152.6,32.4l-6,3.2
						v1.7l8.8-5L152.6,32.4L152.6,32.4z M147.9,32.4l-1.3,0.6v1.5l4.1-2.2h-2.8V32.4z M146.6,47.1v1.1l0.9-0.4
						C147.2,47.5,146.8,47.3,146.6,47.1z M148.1,48.4l-1.5,0.9v1.5l2.6-1.3C148.7,49.1,148.5,48.6,148.1,48.4z M149.8,50.1l-3.2,1.7
						v1.7l4.3-2.6C150.5,50.6,150.2,50.6,149.8,50.1z M151.5,51.9l-5,2.8v1.5l6-3.2C152.4,52.5,151.8,52.3,151.5,51.9z M153.3,53.6
						l-6.7,3.7V59l7.5-4.3C153.9,54.2,153.5,54,153.3,53.6z M154.8,55.3l-8.2,4.7v1.5l9.1-5.2C155.4,56,155,55.7,154.8,55.3z
						 M156.3,57.3c-3.2,1.7-6.5,3.7-9.7,5.4v1.7l10.4-6C156.7,57.9,156.5,57.7,156.3,57.3z M157.6,59.2l-11,6.3V67l11.9-6.7
						C158.2,59.8,157.8,59.6,157.6,59.2z M158.9,61.1L146.6,68v1.7l13.2-7.5C159.5,61.8,159.1,61.6,158.9,61.1z M160.2,63.1
						l-13.6,7.8v1.5l14.2-8.2C160.6,63.7,160.4,63.5,160.2,63.1z M161.5,65l-14.9,8.4v1.7l15.5-8.8L161.5,65z M162.5,67.2l-16,9.1
						v1.5l16.6-9.5C163,67.8,162.8,67.6,162.5,67.2z M163.6,69.1l-17,9.7v1.7L164,70.4C163.8,70,163.8,69.5,163.6,69.1z M164.5,71.3
						l-17.9,10.4v1.5l18.5-10.6L164.5,71.3z M165.3,73.4l-18.8,10.8v1.7L166,74.7L165.3,73.4z M166.2,75.6L146.6,87v1.5l20.3-11.6
						L166.2,75.6z M167.1,78l-20.5,11.6v1.7l20.9-12.1C167.3,78.8,167.3,78.4,167.1,78z M167.7,80.1l-21.1,12.3v1.5l21.6-12.3
						C167.9,81.2,167.9,80.5,167.7,80.1z M168.4,82.5L146.6,95v1.7L168.8,84C168.8,83.6,168.6,82.9,168.4,82.5z M169,84.9
						l-22.4,12.9v1.5l22.6-12.9C169.2,85.9,169,85.3,169,84.9z M169.4,87.2l-22.9,13.2v1.7l23.1-13.4
						C169.7,88.3,169.4,87.7,169.4,87.2z M169.9,89.8l-23.3,13.4v1.5l23.3-13.4V89.8z M170.1,92.4l-23.5,13.4v1.7l23.7-13.6
						C170.3,93.5,170.1,92.8,170.1,92.4z M170.3,95l-23.7,13.6v1.5l23.7-13.6V95z M170.3,97.6l-23.7,13.6v1.7l23.7-13.8V97.6z
						 M170.3,100.2L146.6,114v1.5l23.7-13.6V100.2z M170.3,103l-23.7,13.6v1.7l23.7-13.6V103z M170.1,105.8l-23.5,13.6v1.5
						l23.3-13.4C169.9,106.9,170.1,106.4,170.1,105.8z M169.7,108.6L146.6,122v1.7l22.9-13.4C169.4,109.7,169.7,109.2,169.7,108.6z
						 M169.2,111.6l-22.6,13.2v1.5l22.4-12.9C169.2,112.7,169,112.3,169.2,111.6z M168.6,114.6l-22,12.7v1.7l21.6-12.5
						C168.4,115.9,168.4,115.3,168.6,114.6z M167.9,117.9l-21.4,12.3v1.5l20.7-11.9L167.9,117.9z M166.9,121.1l-20.3,11.6v1.7
						l19.6-11.2C166.4,122.6,166.6,121.7,166.9,121.1z M165.6,124.5l-19,11v1.5l18.1-10.4C164.9,126.1,165.3,125.2,165.6,124.5z
						 M164,128.2l-17.5,9.9v1.7l16.4-9.5C163.4,129.7,163.6,128.9,164,128.2z M162.1,131.9l-15.5,9.1v1.5l14.2-8.2
						C161.2,133.4,161.7,132.7,162.1,131.9z M154.8,144.6c-2.6,3-5.2,5.4-8.2,8v13.6h23.7v-21.6H154.8z M152.6,144.6h-2.8l-3.2,1.7
						v1.5L152.6,144.6z M147.9,144.6h-1.3v0.6L147.9,144.6z M148.7,149.3c1.3-1.1,2.6-2.4,3.7-3.7l-5.8,3.2v1.7L148.7,149.3z
						 M158,138.6c0.6-0.9,1.1-1.7,1.7-2.6l-12.7,7.3h2.8L158,138.6z M170.3,34.4v-1.5l-23.1,13.4c0.4,0.2,0.6,0.6,1.1,0.9
						L170.3,34.4z M170.3,37.2v-1.7l-21.1,12.3c0.4,0.2,0.4,0.6,0.9,1.1L170.3,37.2z M170.3,39.8v-1.5l-19.4,11.2
						c0.4,0.4,0.4,0.6,0.9,1.1L170.3,39.8z M154.3,143.3c0.9-0.9,1.7-1.7,2.4-2.8l-5,2.8H154.3z M170.3,42.6v-1.7l-17.7,10.4
						c0.2,0.4,0.6,0.6,0.9,1.1L170.3,42.6z M170.3,45.2v-1.5L154.1,53c0.2,0.4,0.6,0.6,0.9,1.1L170.3,45.2z M170.3,48v-1.7
						l-14.7,8.6c0.2,0.4,0.6,0.6,0.9,1.1L170.3,48z M170.3,111.6c-2.2,11.9-7.1,22.6-14.5,31.7h14.5V111.6z M170.3,50.6v-1.5
						l-13.2,7.5c0.2,0.4,0.6,0.9,0.9,1.3L170.3,50.6z M170.3,53.4v-1.7l-11.9,6.9c0.2,0.4,0.6,0.6,0.9,1.1L170.3,53.4z M170.3,56
						v-1.5l-10.6,6c0.2,0.4,0.6,0.6,0.9,1.1L170.3,56z M170.3,58.8V57l-9.3,5.4c0.2,0.4,0.6,0.9,0.9,1.3L170.3,58.8z M170.3,61.4
						v-1.5l-8,4.7c0.2,0.4,0.4,0.6,0.6,1.1L170.3,61.4z M170.3,64.2v-1.7l-6.9,4.1l0.6,1.3L170.3,64.2z M170.3,66.7v-1.5l-5.8,3.5
						c0.2,0.4,0.4,0.6,0.6,1.1L170.3,66.7z M170.3,69.5v-1.7l-4.7,3c0.2,0.4,0.2,0.6,0.4,1.1L170.3,69.5z M170.3,72.1v-1.5l-3.9,2.4
						c0.2,0.4,0.2,0.6,0.4,1.1L170.3,72.1z M170.3,74.9v-1.7l-3,1.9c0.2,0.4,0.2,0.9,0.4,1.3L170.3,74.9z M170.3,77.5V76l-2.4,1.3
						c0.2,0.4,0.2,0.9,0.4,1.3L170.3,77.5z M170.3,80.3v-1.7l-1.5,1.1c0.2,0.4,0,0.9,0.2,1.3L170.3,80.3z M170.3,82.9v-1.5l-0.9,0.6
						c0.2,0.4,0.2,0.9,0.2,1.3L170.3,82.9z M170.3,84l-0.4,0.4c0,0.4,0.4,0.9,0.4,1.3V84z"/>
					<path class="st2" d="M334.9,32.4h-11.6v133.7h12.1v0.9h-11.9l8.8,12.1l-1.1,0.4l-8-11v30.6h-1.3V167H301l17,23.5l-0.9,0.6
						l-16.8-22.9V199h-0.9v-32H224v32.1h-1.3V167h-21.6v32.1h-0.9V167H186v-0.9h14.2V32.4h-16.6v-1.3h16.6l-6.5-8.6l0.9-0.6l5.6,7.5
						V1.8h0.9v29.1l0.4,0.2h1.3h1.9h2.8h15.1L203.5,4.8l0.9-0.6l18.3,25.2V1.8h1.3v29.1l0.2,0.2h75.3V1.8h0.9v29.3H322V1.8h1.3v29.3
						h11.6V32.4z M201.6,33.1l-0.4,0.2v1.5l1.3-0.6L201.6,33.1z M203.1,35l-1.9,1.1v1.5l2.6-1.5L203.1,35z M204.4,37l-3.2,1.7v1.5
						l4.1-2.2L204.4,37z M205.7,38.9l-4.5,2.6V43l5.4-3L205.7,38.9z M207.2,40.6l-6,3.5v1.5l6.9-3.9L207.2,40.6z M208.5,42.6
						l-7.3,4.3v1.5l8.2-4.7L208.5,42.6z M210,44.5l-8.8,5V51l9.5-5.4L210,44.5z M211.3,46.5l-10.1,5.8v1.5l11-6.3L211.3,46.5z
						 M212.6,48.2c-3.9,2.2-7.5,4.5-11.4,6.7v1.5l12.3-6.9L212.6,48.2z M214.1,50.1l-12.9,7.5v1.5l13.8-8L214.1,50.1z M215.4,52.1
						l-14.2,8.2v1.5l15.1-8.6L215.4,52.1z M216.9,54l-15.7,9.1v1.5l16.4-9.5L216.9,54z M218.2,56l-17,9.7v1.5L219,57L218.2,56z
						 M219.7,57.7l-18.5,10.8V70l19.2-11.2L219.7,57.7z M221,59.6L201.2,71v1.5l20.7-11.9L221,59.6z M222.7,62.2l-0.4-0.6
						l-21.1,12.3v1.5l21.6-12.5v-0.7H222.7z M222.7,63.9l-21.6,12.5V78l21.6-12.5V63.9z M222.7,66.7l-21.6,12.5v1.5l21.6-12.5V66.7z
						 M222.7,69.3l-21.6,12.5v1.5l21.6-12.5V69.3z M222.7,72.1l-21.6,12.5v1.5l21.6-12.5V72.1z M222.7,74.7l-21.6,12.5v1.5
						l21.6-12.5V74.7z M222.7,77.5L201.1,90v1.5L222.7,79V77.5z M222.7,80.1l-21.6,12.5v1.5l21.6-12.5V80.1z M222.7,82.9l-21.6,12.5
						v1.5l21.6-12.5V82.9z M222.7,85.5L201.1,98v1.5L222.7,87V85.5z M222.7,88.3l-21.6,12.5v1.5l21.6-12.5V88.3z M222.7,90.9
						l-21.6,12.5v1.5l21.6-12.5V90.9z M222.7,93.7l-21.6,12.5v1.5l21.6-12.5V93.7z M222.7,96.3l-21.6,12.5v1.5l21.6-12.5V96.3z
						 M222.7,99.1l-21.6,12.5v1.5l21.6-12.5V99.1z M222.7,101.7l-21.6,12.5v1.5l21.6-12.5V101.7z M222.7,104.5L201.1,117v1.5
						l21.6-12.5L222.7,104.5L222.7,104.5z M222.7,107.1l-21.6,12.5v1.5l21.6-12.5V107.1z M222.7,109.9l-21.6,12.5v1.5l21.6-12.5
						V109.9z M222.7,112.5L201.1,125v1.5l21.6-12.5L222.7,112.5L222.7,112.5z M222.7,115.3l-21.6,12.5v1.5l21.6-12.5V115.3z
						 M222.7,117.9l-21.6,12.5v1.5l21.6-12.5V117.9z M222.7,120.7l-21.6,12.5v1.5l21.6-12.5V120.7z M222.7,123.3l-21.6,12.5v1.5
						l21.6-12.5V123.3z M222.7,126.1l-21.6,12.5v1.5l21.6-12.5V126.1z M222.7,128.6l-21.6,12.5v1.5l21.6-12.5V128.6z M222.7,131.4
						L201.1,144v1.5l21.6-12.5L222.7,131.4L222.7,131.4z M222.7,134l-21.6,12.5v1.5l21.6-12.5V134z M222.7,136.8l-21.6,12.5v1.5
						l21.6-12.5V136.8z M222.7,139.4l-21.6,12.5v1.5l21.6-12.5V139.4z M222.7,142.2l-21.6,12.5v1.5l21.6-12.5V142.2z M222.7,144.8
						l-21.6,12.5v1.5l21.6-12.5V144.8z M222.7,147.6l-21.6,12.5v1.5l21.6-12.5V147.6z M222.7,150.2l-21.6,12.5v1.5l21.6-12.5V150.2z
						 M222.7,154.5V153l-21.6,12.5v0.6h1.7L222.7,154.5z M202.9,32.4l-0.4,0.2l0.9,1.1l2.4-1.3H202.9z M207.6,32.4l-3.7,1.9l0.9,1.3
						l5.6-3.2H207.6z M222.7,157.1v-1.5l-17.9,10.6h2.8L222.7,157.1z M212.4,32.4l-7.1,3.9l0.9,1.1l8.8-5H212.4z M216.9,32.4
						l-10.1,5.8c0.2,0.4,0.4,0.6,0.6,1.1l12.3-6.9C219.7,32.4,216.9,32.4,216.9,32.4z M222.7,33.1v-0.6h-1.1L208,40.2l0.9,1.1
						L222.7,33.1z M222.7,35.9v-1.5l-13.2,7.8l0.6,1.1L222.7,35.9z M222.7,159.9v-1.5l-13.2,7.8h2.6L222.7,159.9z M222.7,38.5V37
						l-11.9,6.9l0.9,1.1L222.7,38.5z M222.7,41.3v-1.5l-10.6,6l0.9,1.1L222.7,41.3z M222.7,43.9v-1.5l-9.1,5.4l0.9,1.1L222.7,43.9z
						 M222.7,162.5V161l-8.6,5.2h2.8L222.7,162.5z M222.7,46.7v-1.5l-7.8,4.5l0.9,1.1L222.7,46.7z M222.7,49.3v-1.5l-6.3,3.7
						l0.6,1.3L222.7,49.3z M222.7,52.1v-1.5l-5,2.8l0.9,1.1L222.7,52.1z M222.7,165.3v-1.5l-3.9,2.4h2.6L222.7,165.3z M222.7,54.7
						v-1.5l-3.7,2.2l0.9,1.1L222.7,54.7z M222.7,57.5V56l-2.2,1.3l0.9,1.1L222.7,57.5z M222.7,60.1v-1.5l-0.9,0.6l0.9,1.1V60.1z
						 M224.4,33.3l-0.4,0.4v1.5l1.3-0.6L224.4,33.3z M225.7,35.3l-1.7,1.1v1.7l2.6-1.7L225.7,35.3z M227.2,37.2l-3.2,1.9v1.5
						l3.9-2.4L227.2,37.2z M228.5,39.1l-4.5,2.6v1.7l5.4-3.2L228.5,39.1z M229.8,41.1l-5.8,3.5V46l6.7-3.9L229.8,41.1z M231.3,42.8
						l-7.3,4.3v1.7l8.2-5L231.3,42.8z M232.6,44.7l-8.6,5.2v1.5l9.5-5.6L232.6,44.7z M234.1,46.7L224,52.5v1.7l11-6.5L234.1,46.7z
						 M235.4,48.6L224,55.3v1.5l12.3-7.1L235.4,48.6z M237,50.4l-13,7.5v1.7l13.6-8L237,50.4z M239.1,53.4l-0.9-1.1L224,60.7v1.1
						l0.2,0.2L239.1,53.4z M298.9,166.2l-0.2-0.4h-0.2l-0.6-0.9h0.2l-0.9-1.1l-0.6-0.6V163l-0.6-1.1l-0.2,0.2l-0.4-0.9l-0.9-1.1
						l-0.6-0.9h0.2l-0.9-1.1l-0.6-0.9l-0.9-1.1l-0.6-0.6l0.2-0.2l-0.9-1.1l-0.6-0.6l-0.6-1.3l-0.2,0.2l-0.4-0.9l-0.9-1.1l-0.6-0.9
						h0.2l-0.9-1.1h-0.2l-0.4-0.9l-0.9-1.1l-0.6-0.6l0.2-0.2l-0.9-1.1L283,144l-0.6-1.3l-0.2,0.2l-0.4-0.9l-0.9-1.1l-0.6-0.9
						l-0.6-1.1H279l-0.4-0.9l-0.9-1.1l-0.6-0.6l0.2-0.2l-0.9-1.1l-0.6-0.6l-0.9-1.1l-0.4-0.9l-0.9-1.1l-0.6-0.9l-0.6-1.1h-0.2
						l-0.4-0.9l-0.9-1.1l-0.6-0.6l-0.6-1.1l-0.6-0.9l-0.9-1.1l-0.6-0.9h0.2l-0.9-1.1l-0.6-0.9l-0.9-1.1L265,119v-0.2l-0.9-1.1
						l-0.6-0.6l-0.6-1.1h-0.2l-0.4-0.9l-0.9-1.1l-0.6-0.9h0.2l-0.9-1.1l-0.6-0.9l-0.9-1.1l-0.4-0.6l-0.9-1.3l-0.6-0.6l-0.6-1.1h-0.2
						l-0.4-0.9l-0.9-1.1l-0.6-0.9l-0.6-1.1l-0.6-0.9l-0.9-1.1l-0.4-0.6l-0.9-1.1l-0.6-0.9l-0.9-1.1l-0.4-0.9l-0.9-1.1l-0.4-0.6
						L224,63.7v102.4L298.9,166.2L298.9,166.2z M240.4,55.3l-0.9-1.1l-14.9,8.6l0.9,1.1L240.4,55.3z M224.9,32.4l74.6,101.8V32.4
						H224.9z M241.9,57.3l-0.9-1.1l-14.9,8.6l0.6,1.1L241.9,57.3z M243.2,59.2l-0.9-1.1l-14.9,8.6l0.9,1.1L243.2,59.2z M244.5,61.1
						l-0.6-1.3l-15.1,8.6l0.9,1.3L244.5,61.1z M246,62.9l-0.9-1.1l-14.9,8.6l0.9,1.1L246,62.9z M247.3,64.8l-0.6-1.1l-15.1,8.6
						l0.9,1.1L247.3,64.8z M248.8,66.7l-0.9-1.1L233,74.2l0.6,1.1L248.8,66.7z M250.1,68.7l-0.9-1.1l-14.9,8.6l0.9,1.1L250.1,68.7z
						 M251.6,70.4l-0.9-1.1L235.9,78l0.6,1.3L251.6,70.4z M252.9,72.4l-0.9-1.1l-14.9,8.6L238,81L252.9,72.4z M254.2,74.3l-0.6-1.1
						l-15.1,8.6l0.9,1.1L254.2,74.3z M255.7,76.2l-0.9-1.1L240,83.8l0.9,1.1L255.7,76.2z M257,78.2l-0.9-1.3l-14.9,8.8l0.9,1.1
						L257,78.2z M258.5,79.9l-0.9-1.1l-14.9,8.6l0.6,1.1L258.5,79.9z M259.8,81.8l-0.9-1.1L244,89.3l0.9,1.1L259.8,81.8z
						 M261.1,83.8l-0.6-1.1l-14.9,8.6l0.6,1.1L261.1,83.8z M262.6,85.7l-0.9-1.1l-14.9,8.6l0.9,1.1L262.6,85.7z M263.9,87.4
						l-0.6-1.1L248.2,95l0.9,1.3L263.9,87.4z M265.4,89.4l-0.9-1.1l-14.9,8.6l0.9,1.1L265.4,89.4z M266.7,91.3l-0.9-1.1L251,98.9
						l0.9,1.1L266.7,91.3z M268.2,93.3l-0.9-1.1l-14.9,8.6l0.6,1.1L268.2,93.3z M269.5,95.2l-0.9-1.3l-14.9,8.8l0.9,1.1L269.5,95.2z
						 M270.8,96.9l-0.6-1.1l-15.1,8.6l0.9,1.1L270.8,96.9z M272.3,98.9l-0.9-1.1l-14.9,8.6l0.9,1.1L272.3,98.9z M273.6,100.8
						l-0.6-1.1l-15.1,8.6l0.9,1.1L273.6,100.8z M275.1,102.8l-0.9-1.1l-14.9,8.6l0.6,1.1L275.1,102.8z M276.4,104.5l-0.9-1.1
						l-14.9,8.6l0.9,1.3L276.4,104.5z M277.9,106.4l-0.9-1.1l-14.9,8.6l0.6,1.1L277.9,106.4z M279.2,108.4l-0.9-1.1l-14.9,8.6
						l0.9,1.1L279.2,108.4z M280.5,110.3l-0.6-1.1l-15.1,8.6l0.9,1.1L280.5,110.3z M282,112.3l-0.9-1.3l-14.9,8.8l0.9,1.1L282,112.3
						z M283.3,114l-0.9-1.1l-14.9,8.6l0.9,1.1L283.3,114z M284.8,115.9l-0.9-1.1l-14.9,8.6l0.6,1.1L284.8,115.9z M286.1,117.9
						l-0.9-1.1l-14.9,8.6l0.9,1.1L286.1,117.9z M287.4,119.8l-0.6-1.1l-14.9,8.6l0.6,1.1L287.4,119.8z M288.9,121.7l-0.9-1.3
						l-14.9,8.6l0.9,1.3L288.9,121.7z M290.2,123.5l-0.6-1.1l-15.1,8.6l0.9,1.1L290.2,123.5z M291.7,125.4l-0.9-1.1L276,133l0.9,1.1
						L291.7,125.4z M293,127.4l-0.9-1.1l-14.9,8.6l0.9,1.1L293,127.4z M294.5,129.3l-0.9-1.1l-14.9,8.6l0.6,1.1L294.5,129.3z
						 M295.8,131l-0.9-1.1l-14.9,8.6l0.9,1.3L295.8,131z M297.1,133l-0.6-1.1l-15.1,8.6c0.2,0.4,0.6,0.6,0.9,1.1L297.1,133z
						 M298.6,134.9l-0.9-1.1l-14.9,8.6l0.9,1.1L298.6,134.9z M299.5,137.1V136l-0.4-0.2l-14.9,8.6l0.9,1.1L299.5,137.1z
						 M299.5,139.9v-1.5l-13.8,8l0.6,1.1L299.5,139.9z M299.5,142.4v-1.5L287,148l0.9,1.1L299.5,142.4z M299.5,145.3v-1.5l-11,6.3
						l0.6,1.1L299.5,145.3z M299.5,147.8v-1.5l-9.7,5.6l0.9,1.1L299.5,147.8z M299.5,150.6v-1.5l-8.4,4.7l0.9,1.1L299.5,150.6z
						 M299.5,153.2v-1.5l-6.9,3.9l0.9,1.3C295.4,155.8,297.6,154.3,299.5,153.2z M299.5,156v-1.5l-5.6,3l0.9,1.1L299.5,156z
						 M299.5,158.6v-1.5l-4.1,2.4l0.6,1.1L299.5,158.6z M299.5,161.4v-1.5l-2.8,1.5l0.9,1.1L299.5,161.4z M299.5,164v-1.5l-1.3,0.9
						l0.6,1.1L299.5,164z M321.9,32.4h-2.6l-19,10.8v1.5L321.9,32.4z M314.6,32.4l-14.2,8.2v1.5l17-9.7H314.6z M310.1,32.4l-9.7,5.4
						v1.5l12.3-6.9H310.1z M305.3,32.4l-5,2.8v1.5l7.8-4.3H305.3z M300.8,32.4h-0.4V34l3-1.5L300.8,32.4L300.8,32.4z M321.9,35v-1.5
						L300.4,46v1.5L321.9,35z M321.9,37.8v-1.7l-21.6,12.5v1.5L321.9,37.8z M321.9,40.4v-1.5l-21.6,12.5v1.5L321.9,40.4z
						 M321.9,43.2v-1.7L300.4,54v1.5L321.9,43.2z M321.9,45.8v-1.5l-21.6,12.5v1.5L321.9,45.8z M321.9,48.6v-1.7l-21.6,12.5v1.5
						L321.9,48.6z M321.9,51.2v-1.5l-21.6,12.5v1.5L321.9,51.2z M321.9,54v-1.7l-21.6,12.5v1.5L321.9,54z M321.9,56.6v-1.5
						l-21.6,12.5v1.5L321.9,56.6z M321.9,59.4v-1.7l-21.6,12.5v1.5L321.9,59.4z M321.9,62v-1.5L300.4,73v1.5L321.9,62z M321.9,64.8
						v-1.7l-21.6,12.5v1.5L321.9,64.8z M321.9,67.4v-1.5l-21.6,12.5v1.5L321.9,67.4z M321.9,70.2v-1.7L300.4,81v1.5L321.9,70.2z
						 M321.9,72.8v-1.5l-21.6,12.5v1.5L321.9,72.8z M321.9,75.6v-1.7l-21.6,12.5v1.5L321.9,75.6z M321.9,78.2v-1.5l-21.6,12.5v1.5
						L321.9,78.2z M321.9,81v-1.7l-21.6,12.5v1.5L321.9,81z M321.9,83.6v-1.5l-21.6,12.5v1.5L321.9,83.6z M321.9,86.4v-1.7
						l-21.6,12.5v1.5L321.9,86.4z M321.9,89v-1.5L300.4,100v1.5L321.9,89z M321.9,91.8V90l-21.6,12.5v1.5L321.9,91.8z M321.9,94.4
						v-1.5l-21.6,12.5v1.5L321.9,94.4z M321.9,97.2v-1.7L300.3,108v1.5L321.9,97.2z M321.9,99.7v-1.5l-21.6,12.5v1.5L321.9,99.7z
						 M321.9,102.5v-1.7l-21.6,12.5v1.5L321.9,102.5z M321.9,105.1v-1.5l-21.6,12.5v1.5L321.9,105.1z M321.9,107.9v-1.7l-21.6,12.5
						v1.5L321.9,107.9z M321.9,110.5V109l-21.6,12.5v1.5L321.9,110.5z M321.9,113.3v-1.7l-21.6,12.5v1.5L321.9,113.3z M321.9,115.9
						v-1.5l-21.6,12.5v1.5L321.9,115.9z M321.9,118.7V117l-21.6,12.5v1.5L321.9,118.7z M321.9,121.3v-1.5l-21.6,12.5v1.5
						L321.9,121.3z M321.9,124.1v-1.7l-21.6,12.5v0.6l0.6,0.6L321.9,124.1z M300.6,137.5l-0.2,0.2v1.5l1.1-0.4L300.6,137.5z
						 M301.9,139.4l-1.5,0.9v1.5l2.4-1.3L301.9,139.4z M303.4,141.4l-3,1.7v1.5l3.9-2.2L303.4,141.4z M304.7,143.3l-4.3,2.4v1.5
						l5.2-2.8L304.7,143.3z M306.2,145.3l-5.8,3.2v1.5l6.5-3.7L306.2,145.3z M307.5,147l-7.1,4.1v1.5l8-4.5L307.5,147z M308.8,148.9
						l-8.4,5v1.5l9.3-5.4L308.8,148.9z M310.3,150.9l-9.9,5.6v1.5l10.8-6L310.3,150.9z M311.6,152.8l-11.2,6.5v1.5l12.1-6.9
						L311.6,152.8z M313.1,154.5l-12.7,7.3v1.5l13.4-7.5L313.1,154.5z M315.2,157.5l-0.9-1.1l-14,8.2v1.5h0.2L315.2,157.5z
						 M321.9,126.7v-1.5l-20.5,11.9l0.9,1.1L321.9,126.7z M316.5,159.5l-0.6-1.1l-13.4,7.8h2.8L316.5,159.5z M321.9,129.5v-1.7
						L303,139l0.6,1.1L321.9,129.5z M321.9,132.1v-1.5l-17.7,10.1l0.9,1.3L321.9,132.1z M321.9,134.9v-1.7l-16.2,9.5l0.6,1.1
						L321.9,134.9z M321.9,137.5V136l-14.9,8.6l0.9,1.1L321.9,137.5z M318,161.4l-0.9-1.1l-9.9,5.8h2.6L318,161.4z M321.9,140.3
						v-1.7l-13.6,8l0.9,1.1L321.9,140.3z M321.9,142.9v-1.5l-12.1,7.1l0.9,1.1L321.9,142.9z M321.9,145.7V144l-10.8,6.3l0.9,1.3
						L321.9,145.7z M319.3,163.4l-0.9-1.1l-6.7,3.9h2.8L319.3,163.4z M321.9,148.3v-1.5l-9.3,5.4l0.6,1.1L321.9,148.3z M321.9,151.1
						v-1.7l-8,4.7l0.9,1.1C317.2,153.7,319.6,152.6,321.9,151.1z M321.9,153.7v-1.5l-6.7,3.9l0.9,1.1L321.9,153.7z M320.9,165.3
						L320,164l-3.5,2.2h2.8L320.9,165.3z M321.9,156.5v-1.7l-5.2,3.2l0.9,1.1L321.9,156.5z M321.9,159.1v-1.5l-3.9,2.2l0.9,1.1
						C320,160.1,320.9,159.7,321.9,159.1z M321.9,161.9v-1.7c-0.9,0.4-1.5,1.1-2.4,1.5l0.6,1.1L321.9,161.9z M321.9,164.4v-1.5
						l-1.1,0.6l0.9,1.1L321.9,164.4z"/>
					<path class="st2" d="M374.1,32.4H361v133.7h16.8v0.9H361v32.1h-1.3V167h-21.6v32.1h-0.9V167h-16.4v-0.9h16.4V32.4h-16.6v-1.3
						h16.6V1.8h0.9v29.3h21.6V1.8h1.3v29.3h13.2v1.3H374.1z M359.7,33.1v-0.6h-1.1l-20.5,11.6v1.5L359.7,33.1z M356.7,32.4h-2.8
						l-15.7,9.1V43L356.7,32.4z M351.9,32.4h-2.6l-11.2,6.3v1.5L351.9,32.4z M347.4,32.4h-2.8l-6.5,3.7v1.5L347.4,32.4z M342.6,32.4
						h-2.8l-1.7,0.9v1.5L342.6,32.4z M359.7,35.9v-1.5l-21.6,12.5v1.5L359.7,35.9z M359.7,38.5V37l-21.6,12.5V51L359.7,38.5z
						 M359.7,41.3v-1.5l-21.6,12.5v1.5L359.7,41.3z M359.7,43.9v-1.5l-21.6,12.5v1.5L359.7,43.9z M359.7,46.7v-1.5l-21.6,12.5v1.5
						L359.7,46.7z M359.7,49.3v-1.5l-21.6,12.5v1.5L359.7,49.3z M359.7,52.1v-1.5l-21.6,12.5v1.5L359.7,52.1z M359.7,54.7v-1.5
						l-21.6,12.5v1.5L359.7,54.7z M359.7,57.5V56l-21.6,12.5V70L359.7,57.5z M359.7,60.1v-1.5l-21.6,12.5v1.5L359.7,60.1z
						 M359.7,62.9v-1.5l-21.6,12.5v1.5L359.7,62.9z M359.7,65.4v-1.5l-21.6,12.5V78L359.7,65.4z M359.7,68.3v-1.5l-21.6,12.5v1.5
						L359.7,68.3z M359.7,70.8v-1.5l-21.6,12.5v1.5L359.7,70.8z M359.7,73.6v-1.5l-21.6,12.5v1.5L359.7,73.6z M359.7,76.2v-1.5
						l-21.6,12.5v1.5L359.7,76.2z M359.7,79v-1.5L338.1,90v1.5L359.7,79z M359.7,81.6v-1.5l-21.6,12.5v1.5L359.7,81.6z M359.7,84.4
						v-1.5l-21.6,12.5v1.5L359.7,84.4z M359.7,87v-1.5L338.1,98v1.5L359.7,87z M359.7,89.8v-1.5l-21.6,12.5v1.5L359.7,89.8z
						 M359.7,92.4v-1.5l-21.6,12.5v1.5L359.7,92.4z M359.7,95.2v-1.5l-21.6,12.5v1.5L359.7,95.2z M359.7,97.8v-1.5l-21.6,12.5v1.5
						L359.7,97.8z M359.7,100.6v-1.5l-21.6,12.5v1.5L359.7,100.6z M359.7,103.2v-1.5l-21.6,12.5v1.5L359.7,103.2z M359.7,106v-1.5
						L338.1,117v1.5L359.7,106z M359.7,108.6v-1.5l-21.6,12.5v1.5L359.7,108.6z M359.7,111.4v-1.5l-21.6,12.5v1.5L359.7,111.4z
						 M359.7,114v-1.5L338.1,125v1.5L359.7,114z M359.7,116.8v-1.5l-21.6,12.5v1.5L359.7,116.8z M359.7,119.4v-1.5l-21.6,12.5v1.5
						L359.7,119.4z M359.7,122.2v-1.5l-21.6,12.5v1.5L359.7,122.2z M359.7,124.8v-1.5l-21.6,12.5v1.5L359.7,124.8z M359.7,127.6
						v-1.5l-21.6,12.5v1.5L359.7,127.6z M359.7,130.2v-1.5l-21.6,12.5v1.5L359.7,130.2z M359.7,133v-1.5L338.1,144v1.5L359.7,133z
						 M359.7,135.5V134l-21.6,12.5v1.5L359.7,135.5z M359.7,138.4v-1.5l-21.6,12.5v1.5L359.7,138.4z M359.7,140.9v-1.5l-21.6,12.5
						v1.5L359.7,140.9z M359.7,143.7v-1.5l-21.6,12.5v1.5L359.7,143.7z M359.7,146.3v-1.5l-21.6,12.5v1.5L359.7,146.3z M359.7,149.1
						v-1.5l-21.6,12.5v1.5L359.7,149.1z M359.7,151.7v-1.5l-21.6,12.5v1.5L359.7,151.7z M359.7,154.5V153l-21.6,12.5v0.6h1.7
						L359.7,154.5z M359.7,157.1v-1.5l-17.9,10.6h2.8L359.7,157.1z M359.7,159.9v-1.5l-13.2,7.8h2.6L359.7,159.9z M359.7,162.5V161
						l-8.6,5.2h2.8L359.7,162.5z M359.7,165.3v-1.5l-3.9,2.4h2.6L359.7,165.3z"/>
					<path class="st2" d="M513.9,32.4h-11.6V54h11.6v0.9h-11.6v19.4H501V54.9h-45.3v111.3H495v0.9h-39.3v32.1h-0.9V167h-21.6v32.1
						h-1.3V167h-38.2v-0.9h38.2V54.9h-45.3v19.4h-0.9V54.9h-16.6V54h16.6V32.4h-16.6v-1.3h16.6V1.4h0.9v29.8h45.3V1.4h1.3v29.8h21.6
						V1.4h0.9v29.8H501V1.4h1.3v29.8h11.6V32.4z M421.1,32.4l-34.5,19.8v1.5l37.1-21.4L421.1,32.4L421.1,32.4z M416.4,32.4l-29.8,17
						V51l32.6-18.5L416.4,32.4L416.4,32.4z M411.7,32.4l-25,14.5v1.5l27.8-16H411.7z M407.1,32.4L386.6,44v1.5l23.1-13.2h-2.6V32.4z
						 M402.4,32.4l-15.7,9.1V43l18.5-10.6H402.4z M397.9,32.4l-11.2,6.3v1.5l13.8-7.8H397.9z M393.1,32.4l-6.5,3.7v1.5l9.3-5.2
						H393.1z M388.4,32.4l-1.7,0.9v1.5l4.5-2.4H388.4z M428.5,32.4h-2.8L388.4,54h2.8L428.5,32.4z M431.9,32.9v-0.4h-1.5L393.1,54
						h2.8L431.9,32.9z M431.9,35.7V34l-34,20h2.6L431.9,35.7z M431.9,38.3v-1.5L402.4,54h2.8L431.9,38.3z M431.9,41.1v-1.7L407.1,54
						h2.6L431.9,41.1z M431.9,43.7v-1.5L411.7,54h2.8L431.9,43.7z M431.9,46.5v-1.7L416.4,54h2.8L431.9,46.5z M431.9,49.1v-1.5
						L421.1,54h2.6L431.9,49.1z M431.9,51.9v-1.7l-6.3,3.9h2.8L431.9,51.9z M431.9,54v-1.1l-1.5,1.1H431.9z M454.8,32.4h-1.1
						l-20.5,11.9v1.5l21.6-12.5V32.4z M449,32.4l-15.7,9.1V43l18.5-10.6H449z M444.2,32.4l-11,6.5v1.5l13.8-8H444.2z M439.7,32.4
						l-6.5,3.7v1.5l9.1-5.2H439.7z M435,32.4l-1.7,1.1V35l4.5-2.6H435z M454.8,34.4l-21.6,12.5v1.5l21.6-12.5V34.4z M454.8,37.2
						l-21.6,12.5v1.5l21.6-12.5V37.2z M454.8,39.8l-21.6,12.5v1.5l21.6-12.5V39.8z M454.6,54.9h-2.8l-18.5,11v1.5L454.6,54.9z
						 M449.8,54.9H447l-13.8,8.2v1.5L449.8,54.9z M445.1,54.9h-2.6l-9.3,5.6V62L445.1,54.9z M440.6,54.9h-2.8l-4.5,2.8v1.5
						L440.6,54.9z M435.8,54.9h-2.6v0.2v1.5C434.1,56.2,435,55.3,435.8,54.9z M454.8,57.5V56l-21.6,12.5V70L454.8,57.5z M454.8,60.3
						v-1.5l-21.6,12.5v1.5L454.8,60.3z M454.8,62.9v-1.5l-21.6,12.5v1.5L454.8,62.9z M454.8,65.7v-1.5l-21.6,12.5v1.5L454.8,65.7z
						 M454.8,68.3v-1.5l-21.6,12.5v1.5L454.8,68.3z M454.8,71.1v-1.5l-21.6,12.5v1.5L454.8,71.1z M454.8,73.6v-1.5l-21.6,12.5v1.5
						L454.8,73.6z M454.8,76.4v-1.5l-21.6,12.5V89L454.8,76.4z M454.8,79v-1.5L433.2,90v1.5L454.8,79z M454.8,81.8v-1.5l-21.6,12.5
						v1.5L454.8,81.8z M454.8,84.4v-1.5l-21.6,12.5v1.5L454.8,84.4z M454.8,87.2v-1.5l-21.6,12.5v1.5L454.8,87.2z M454.8,89.8v-1.5
						l-21.6,12.5v1.5L454.8,89.8z M454.8,92.6v-1.5l-21.6,12.5v1.5L454.8,92.6z M454.8,95.2v-1.5l-21.6,12.5v1.5L454.8,95.2z
						 M454.8,98v-1.5L433.2,109v1.5L454.8,98z M454.8,100.6v-1.5l-21.6,12.5v1.5L454.8,100.6z M454.8,103.4v-1.5l-21.6,12.5v1.5
						L454.8,103.4z M454.8,106v-1.5L433.2,117v1.5L454.8,106z M454.8,108.8v-1.5l-21.6,12.5v1.5L454.8,108.8z M454.8,111.4v-1.5
						l-21.6,12.5v1.5L454.8,111.4z M454.8,114.2v-1.5l-21.6,12.5v1.5L454.8,114.2z M454.8,116.8v-1.5l-21.6,12.5v1.5L454.8,116.8z
						 M454.8,119.6v-1.5l-21.6,12.5v1.5L454.8,119.6z M454.8,122.2v-1.5l-21.6,12.5v1.5L454.8,122.2z M454.8,125v-1.5L433.2,136v1.5
						L454.8,125z M454.8,127.6v-1.5l-21.6,12.5v1.5L454.8,127.6z M454.8,130.4v-1.5l-21.6,12.5v1.5L454.8,130.4z M454.8,133v-1.5
						L433.2,144v1.5L454.8,133z M454.8,135.8v-1.5l-21.6,12.5v1.5L454.8,135.8z M454.8,138.4v-1.5l-21.6,12.5v1.5L454.8,138.4z
						 M454.8,141.2v-1.5l-21.6,12.5v1.5L454.8,141.2z M454.8,143.7v-1.5l-21.6,12.5v1.5L454.8,143.7z M454.8,146.5V145l-21.6,12.5
						v1.5L454.8,146.5z M454.8,149.1v-1.5l-21.6,12.5v1.5L454.8,149.1z M454.8,151.9v-1.5l-21.6,12.5v1.5L454.8,151.9z M454.8,154.5
						V153l-21.6,12.5v0.6h1.7L454.8,154.5z M454.8,44.1v-1.5L435,54h2.8L454.8,44.1z M454.8,157.3v-1.5l-17.9,10.4h2.6L454.8,157.3z
						 M454.8,46.7v-1.5L439.7,54h2.6L454.8,46.7z M454.8,159.9v-1.5l-13.4,7.8h2.8L454.8,159.9z M454.8,49.5V48l-10.6,6h2.8
						L454.8,49.5z M454.8,162.7v-1.5l-8.6,5h2.8L454.8,162.7z M454.8,52.1v-1.5L449,54h2.8L454.8,52.1z M454.8,165.3v-1.5l-3.9,2.4
						h2.6L454.8,165.3z M454.8,54v-0.6l-1.1,0.6H454.8z M490.8,32.4l-35.2,20.3V54h0.6l37.3-21.6H490.8z M486.3,32.4l-30.6,17.5v1.7
						l33.2-19.2H486.3z M481.5,32.4l-25.9,14.9v1.5l28.7-16.4H481.5z M477,32.4l-21.4,12.1v1.7l23.9-13.8H477z M472.3,32.4
						l-16.6,9.5v1.5l19.4-11H472.3z M467.5,32.4l-11.9,6.7v1.7l14.7-8.4H467.5z M463,32.4l-7.3,4.1V38l9.9-5.6H463z M458.2,32.4
						l-2.6,1.3v1.7l5.4-3H458.2z M455.7,32.4v0.2l0.6-0.2H455.7z M495.6,32.4L458.2,54h2.8l37.1-21.6H495.6z M501,32.4h-0.9L463,54
						h2.6L501,33.3V32.4z M501,34.6L467.5,54h2.8L501,36.1V34.6z M501,37.2L472.3,54h2.8L501,38.7V37.2z M501,40l-24,14h2.6
						L501,41.5V40z M501,42.6L481.5,54h2.8l16.6-9.9v-1.5H501z M501,45.4L486.3,54h2.6l12.1-7.1V45.4z M501,48l-10.1,6h2.8l7.3-4.5
						L501,48L501,48z M501,50.8l-5.4,3.2h2.6l2.8-1.7V50.8z M500.1,54h0.9v-0.6L500.1,54z"/>
					<path class="st2" d="M531.4,1.8l24.2,29.3h87.1l24.2-29.3l0.9,0.6l-23.5,28.7h30.2l17.9-21.8l0.9,0.6L675.8,31h9.3v1.3H675
						l-59.5,72l15.7,19.2l-0.9,0.6l-15.5-19l-2.4,2.8v30.2l6.9,8.6l-0.6,0.6l-6.3-7.5l-0.2,26.1h47.9v0.9H612v32.1h-1V167h-23.7
						v32.1h-1.1V167h-57.4v-0.9H586V166l0.2-0.2V164l-0.2,0.2v-1.1l0.2-0.2v-1.5l-0.2,0.2v-1.3h0.2v-1.7l-0.2,0.2v-1.1l0.2-0.2V156
						l-0.2,0.2V155h0.2l0.2-1.7l-0.4,0.2v-1.1l0.4-0.2v-1.5H586v-1.1l0.4-0.2v-1.5l-0.4,0.2V147l0.4-0.2v-1.5H586v-1.1l0.4-0.2v-1.5
						l-0.4,0.2v-1.1l0.4-0.2v-1.5h-0.2l-6.5,7.8L579,147l7.3-9.1V137l-0.2,0.2v-1.1l0.2-0.2v-1.5h-0.2v-1.1l0.2-0.2v-1.5l-0.2,0.2
						v-1.3h0.2v-1.7l-0.2,0.2v-1l0.2-0.2v-1.5l-0.2,0.2v-1.3h0.2v-1.7l-0.2,0.2v-1.1l0.2-0.2v-1.5h-0.2v-1.1h0.2v-1.7l-0.2,0.2v-1.1
						l0.2-0.2v-1.5h-0.2v-1.1h0.2v-1.7l-0.2,0.2v-1.1l0.2-0.2v-1.5h-0.2l0.2-1.1v-0.2l-2.8-3.5l-15.5,19l-0.9-0.6l15.7-19.2
						l-45.5-55l-0.4-0.9l-0.9-1.1l-0.6-0.6l-0.9-1.1L534,45c-0.2-0.4-0.6-0.6-0.9-1.1l-0.6-0.6l-0.9-1.1l-0.6-0.9l-0.9-1.1l-0.6-0.6
						l-0.9-1.1l-0.6-0.9l-0.9-1.1l-0.6-0.6l-0.9-1.1l-0.6-0.9l-0.9-1.1l-0.6-0.4h-16.2v-1.3h15.3L505.1,10l0.9-0.6l18,21.8h30
						L530.5,2.5L531.4,1.8z M527.7,32.4h-2.6h-0.2l0.9,1.1L527.7,32.4z M532.4,32.4h-2.8l-3.2,1.7l0.9,1.1L532.4,32.4z M537.2,32.4
						h-2.8l-6.5,3.7l0.9,1.1L537.2,32.4z M541.7,32.4h-2.6l-9.7,5.4l0.9,1.1C534.2,36.8,537.8,34.6,541.7,32.4z M546.5,32.4h-2.8
						L531,39.7l0.9,1.1L546.5,32.4z M551,32.4h-2.6l-16,9.1l0.9,1.1L551,32.4z M555.3,32.7l-0.2-0.2h-2.2l-19,11l0.9,1.1L555.3,32.7
						z M556.8,34.4l-0.9-1.1l-20.5,11.9l0.9,1.1L556.8,34.4z M558.1,36.3l-0.9-1.1L537,47.1l0.9,1.1L558.1,36.3z M559.6,38.1
						l-0.9-1.1l-20.3,11.9l0.9,1.1L559.6,38.1z M561.1,40l-0.9-1.1L540,50.8l0.9,0.9L561.1,40z M562.6,41.7l-0.9-1.1l-20.3,11.9
						l0.9,1.1L562.6,41.7z M564.1,43.7l-0.9-1.1L543,54.2l0.9,1.1L564.1,43.7z M565.7,45.4l-0.9-1.1l-20.3,11.9l0.9,1.1L565.7,45.4z
						 M567.2,47.3l-0.9-1.1L546,57.9l0.9,1.1L567.2,47.3z M568.7,49.1l-0.9-1.1l-20.3,11.9l0.9,1.1L568.7,49.1z M570.2,51l-0.9-1.1
						L549,61.5l0.9,1.1L570.2,51z M571.7,52.7l-0.9-1.1l-20.3,11.9l0.9,1.1L571.7,52.7z M573.2,54.7l-0.9-1.1L552,65.2l0.9,1.1
						L573.2,54.7z M574.7,56.4l-0.9-1.1l-20.3,11.9l0.9,1.1L574.7,56.4z M576.2,58.3l-0.9-1.1L555,68.8l1,1.2L576.2,58.3z
						 M587.9,38.9l-0.2,31.7l11.4,14l12.3-15.1c0-10.4,0.2-20.5,0.2-30.8l0.9,0.2v29.3l29.3-35.8h-85.4l30.2,36.9V38.7L587.9,38.9z
						 M577.7,60.1l-0.9-1.1l-20.3,11.9l0.9,1.1L577.7,60.1z M579.2,62l-1.1-1.1l-20.3,11.6l1.1,1.1L579.2,62z M580.5,63.7l-0.9-1.1
						l-20.3,11.9l1.1,1.1L580.5,63.7z M582,65.7l-0.9-1.1l-20.3,11.6l0.9,1.1L582,65.7z M583.6,67.4l-0.9-1.1L562.4,78l0.9,1.1
						L583.6,67.4z M585.1,69.3l-0.9-1.1l-20.3,11.6l0.9,1.1L585.1,69.3z M586.6,71.1l-0.9-1.1l-20.3,11.6l0.9,1.1L586.6,71.1z
						 M586.6,73.9v-1.7L567,83.6l0.9,1.1L586.6,73.9z M586.6,76.4v-1.5l-18.1,10.4l0.9,1.1L586.6,76.4z M586.6,79.3v-1.7L570,87.2
						l0.9,1.1L586.6,79.3z M586.6,81.8v-1.5L571.5,89l0.9,1.1L586.6,81.8z M586.6,84.6v-1.5L573,90.9l0.9,1.1L586.6,84.6z
						 M586.6,87.2v-1.5l-12.1,6.9l0.9,1.1L586.6,87.2z M586.6,90v-1.5l-10.6,6l0.9,1.1L586.6,90z M586.6,92.6v-1.5l-9.1,5.2l0.9,1.1
						L586.6,92.6z M586.6,95.4v-1.5l-7.5,4.3l0.9,1.1L586.6,95.4z M586.4,98l0.2-1.5l-6,3.5l0.9,1.1L586.4,98z M585.3,101.5l1.1-1.3
						v-0.9l-4.3,2.6l0.9,0.9L585.3,101.5z M584.2,104.5l0.2,0.2l1.9-1.1L584.2,104.5z M586.4,104.7l-1.3,0.6l0.9,1.1l0.4-0.2
						L586.4,104.7L586.4,104.7z M611.2,143.1v-1.5l-23.7,13.8l-0.2,1.5L611.2,143.1z M611.2,145.9v-1.5l-24,13.6v1.7L611.2,145.9z
						 M611.2,148.5V147l-23.9,13.8v1.5L611.2,148.5z M611.2,151.3v-1.5l-23.9,13.6v1.7L611.2,151.3z M603.6,92l-16.2,9.3v1.7l17-9.9
						L603.6,92z M589.6,96.3l2.4-3l-4.3,2.6l-0.2,1.7L589.6,96.3z M605.1,93.7l-17.7,10.4v1.5L606,94.8L605.1,93.7z M606.6,95.6
						l-19.2,11v1.7l20.1-11.6L606.6,95.6z M587.4,98.9l0.4-0.4l-0.4,0.2V98.9z M588.1,110.7l-0.6-0.6v0.9L588.1,110.7z M589.6,112.5
						l-1.1-1.1l-1.1,0.6v1.7L589.6,112.5z M590.9,114.4l-0.9-1.1l-2.6,1.5v1.5L590.9,114.4z M592.4,116.1l-0.9-1.1l-4.1,2.4v1.7
						L592.4,116.1z M593.9,118.1L593,117l-5.6,3.2v1.5L593.9,118.1z M595.4,119.8l-0.9-1.1l-7.1,4.3v1.5L595.4,119.8z M596.9,121.7
						l-0.9-1.1l-8.6,5v1.5L596.9,121.7z M598,123.7l0.4-0.4l-0.9-0.9l-10.1,6v1.5L598,123.7z M593.9,128.9l2.4-3l-8.8,5.2v1.5
						L593.9,128.9z M603.6,129.7l-16.2,9.5v1.5l17-9.9L603.6,129.7z M589.6,134l2.4-3l-4.5,2.8v1.5L589.6,134z M605.1,131.4
						l-17.7,10.4v1.7l18.5-11L605.1,131.4z M606.6,133.4l-19.2,11.2v1.5l20.1-11.6L606.6,133.4z M608.1,135.1l-20.7,12.1v1.7
						l21.6-12.7L608.1,135.1z M587.4,136.6l0.4-0.4l-0.4,0.2V136.6z M609.7,137.1L587.4,150v1.5l23.1-13.4L609.7,137.1z
						 M611.2,140.5v-1.7l-23.7,13.8v1.7L611.2,140.5z M611.2,153.9v-1.5l-23.7,13.8h2.8L611.2,153.9z M588.1,73l-0.4-0.6v0.9
						L588.1,73z M589.6,74.7l-0.9-1.1l-1.1,0.6v1.5L589.6,74.7z M591.1,76.7l-0.9-1.1l-2.6,1.5v1.5L591.1,76.7z M592.6,78.4
						l-0.9-1.1l-4.1,2.4v1.5L592.6,78.4z M594.1,80.1l-0.9-0.9l-5.6,3.2V84L594.1,80.1z M595.6,82.1l-0.9-1.1l-7.1,4.1v1.5
						L595.6,82.1z M597.1,83.8l-0.9-1.1l-8.6,5.2v1.5L597.1,83.8z M598,86.2l0.4-0.6l-0.6-0.9l-10.1,5.8V92L598,86.2z M593.7,91.1
						l2.6-2.8l-8.6,5v1.5L593.7,91.1z M602.1,90l-11.6,6.9l-2.4,3l14.9-8.8L602.1,90z M609,98.4l-0.9-1.1l-20,11.7l0.9,1.1L609,98.4
						z M602.1,128l-11.6,6.7l-2.4,3l14.9-8.8L602.1,128z M610.5,100.4l-0.9-1.1l-20,11.7l0.9,1.1L610.5,100.4z M611.2,102.5v-1.3
						V101l-20.1,11.6l0.9,1.1L611.2,102.5z M600.6,88.3l-6,3.5l-2.4,3l9.3-5.4L600.6,88.3z M600.6,126.1l-5.8,3.5l-2.6,3l9.3-5.4
						L600.6,126.1z M611,156.7l0.2-1.5l-19,11h2.6L611,156.7z M611.2,105.4v-1.5l-18.5,10.8l0.9,1.1L611.2,105.4z M610.7,108.4
						l0.4-0.6v-1.3l-17,9.9l0.9,1.1L610.7,108.4z M606.6,113.3l2.4-2.8l-13.4,7.8l0.9,1.1L606.6,113.3z M599.1,86.4l-0.2,0.2l-2.4,3
						l3.7-2.2L599.1,86.4z M599.1,124.3h-0.2l-2.4,3l3.5-1.9L599.1,124.3z M611,159.3v-1.5l-14.2,8.4h2.8L611,159.3z M602.3,118.5
						l2.4-3l-7.5,4.5l0.9,1.1L602.3,118.5z M599.1,122.6l1.5-1.9l-1.9,1.3L599.1,122.6z M611.4,79.5L600.2,86l0.8,1l10.4-6V79.5z
						 M611.2,117.2l-11,6.5l0.9,1.1l10.1-5.8V117.2z M611.4,76.7l-8.4,5l-2.4,3l10.8-6.3L611.4,76.7L611.4,76.7z M611.2,114.6
						l-8,4.5l-2.4,3l10.4-6V114.6z M611,162.1v-1.5l-9.5,5.6h2.6L611,162.1z M611.4,82.1l-9.7,5.6l0.9,1.1l8.8-5V82.1z M611.2,120
						l-9.5,5.6l0.9,0.9l8.6-5V120z M611.4,84.9l-8.2,4.7l0.9,1.1l7.3-4.3V84.9z M611.2,122.6l-8,4.7l0.9,1.1l7.1-4.1V122.6z
						 M611.4,74.1l-4.1,2.4l-2.6,3l6.7-3.9L611.4,74.1L611.4,74.1z M611.4,87.4l-6.7,3.9l0.9,1.1l5.8-3.2V87.4z M611.2,125.4
						l-6.5,3.7l0.9,1.1l5.6-3.2V125.4z M611.2,111.8l-3.7,2.2l-2.6,3l6.3-3.5V111.8z M611,164.9v-1.7l-5,3h2.8L611,164.9z
						 M611.4,90.3l-5.2,3l0.9,1.1l4.3-2.6V90.3z M611.2,128l-5,3l0.9,1.1l4.1-2.4V128z M611.2,130.8l-3.7,1.9l1.1,1.1l2.6-1.5
						L611.2,130.8L611.2,130.8z M611.4,92.8l-3.7,2.2l0.9,1.1l2.8-1.5V92.8z M611.4,71.3l-2.4,3l2.4-1.3V71.3z M611.4,95.6l-2.4,1.3
						l1.1,1.1l1.1-0.9L611.4,95.6z M611.2,133.4l-2.2,1.3l1.1,1.1l1.1-0.6L611.2,133.4L611.2,133.4z M611.2,109.4l-1.9,2.4l1.9-1.1
						V109.4z M610.5,98.7l0.6,0.9v-1.1L610.5,98.7z M610.5,136.4l0.6,0.6v-0.9L610.5,136.4z M611,166.2V166l-0.2,0.2H611z M626,89.8
						l-13.8,8v1.5l11.2-6.5L626,89.8z M619.4,98l2.4-3l-9.5,5.4v0.4l0.6,0.9L619.4,98z M613.5,104.1l-0.9-1.1l-0.4,0.2v1.5
						L613.5,104.1z M612.2,106.4l1.1-1.1l-1.1,0.4V106.4z M668.5,38.3l-56.1,32.4v1.7l53.7-31.1L668.5,38.3z M664.2,43.4l-51.8,30
						v1.5l49.4-28.5L664.2,43.4z M660.1,48.6L612.5,76v1.7l45.1-26.1L660.1,48.6z M655.8,53.6l-43.4,25.2v1.5l40.8-23.7
						C654.1,55.5,655,54.7,655.8,53.6z M651.5,58.8l-39,22.6v1.7l36.7-21.4L651.5,58.8z M647.4,63.9l-34.9,20.3v1.5L644.8,67
						L647.4,63.9z M643.1,69.1L612.5,87v1.5l28-16.4L643.1,69.1z M638.8,74.3l-26.3,15.3v1.5l23.9-13.8L638.8,74.3z M634.5,79.5
						l-22,12.9v1.5l19.6-11.4L634.5,79.5z M630.4,84.6L612.5,95v1.5l15.3-8.8L630.4,84.6z M672.9,33.1l-57.4,33l-2.4,3l57.2-33
						L672.9,33.1z M615,103.2l2.6-3l-4.1,2.2l0.9,1.1L615,103.2z M669.4,32.4l-49.6,28.7l-2.4,3l54.8-31.7
						C672.2,32.4,669.4,32.4,669.4,32.4z M664.7,32.4L623.9,56l-2.4,3l45.9-26.5L664.7,32.4L664.7,32.4z M660.1,32.4l-31.9,18.3
						l-2.6,3l37.1-21.4L660.1,32.4L660.1,32.4z M655.4,32.4l-23.1,13.4l-2.4,2.8l28.3-16.2H655.4z M650.9,32.4l-14.5,8.2l-2.4,3
						l19.4-11.2H650.9z M646.1,32.4l-5.4,3l-2.4,3l10.6-6H646.1z M643.3,32.4l-0.9,0.9l1.7-0.9H643.3z"/>
				</g>
			</g>
		</g>
	</g>
</g>
</svg>
