<?xml version="1.0" encoding="utf-8"?>
<!-- Generator: Adobe Illustrator 21.0.0, SVG Export Plug-In . SVG Version: 6.00 Build 0)  -->
<svg version="1.1" id="Layer_1" xmlns="http://www.w3.org/2000/svg" xmlns:xlink="http://www.w3.org/1999/xlink" x="0px" y="0px"
	 viewBox="0 0 689 121" style="enable-background:new 0 0 689 121;" xml:space="preserve">
<style type="text/css">
	.st0{fill:none;stroke:#CECECE;stroke-miterlimit:10;}
	.st1{clip-path:url(#SVGID_2_);}
	.st2{fill:#CECECE;}
</style>
<g>
	<line class="st0" x1="0" y1="120.4" x2="689" y2="120.4"/>
	<g>
		<g>
			<g>
				<defs>
					<rect id="SVGID_1_" width="688.5" height="121"/>
				</defs>
				<clipPath id="SVGID_2_">
					<use xlink:href="#SVGID_1_"  style="overflow:visible;"/>
				</clipPath>
				<g class="st1">
					<g>
						<path class="st2" d="M170.1,31.9h-10.6l-55.9,133.7h44.9v0.9H103v0.2l13.4,31.9l-1.1,0.2l-12.9-30.6l-11.6,28.3l0.9,2.2
							l-1.1,0.2l-0.4-1.1l-0.4,1.1l-1.1-0.2l0.9-2.2L78,168.2l-12.9,30.6l-1.1-0.2l13.4-31.9v-0.2H34.2v-0.9h42.3L20.6,31.9h-8.2
							v-1.3h7.8L7.4,0.2L8.5,0l12.9,30.6H45L32.2,0.2L33.3,0l12.9,30.6h87.6l13-30.6l1.1,0.2l-12.7,30.4h23.5L171.6,0l1.1,0.2
							L160,30.6h10.1V31.9L170.1,31.9z M22.3,32.8l0.4,1.3l3.9-2.2H24L22.3,32.8z M23.2,34.9l0.4,1.3l7.8-4.3h-2.8L23.2,34.9z
							 M24,37.1l0.6,1.3L36,31.9h-2.8L24,37.1z M24.9,39.3l0.6,1.3L40.6,32H38L24.9,39.3z M42.6,31.9l-16.8,9.5l0.6,1.3l19-10.8
							C45.4,31.9,42.6,31.9,42.6,31.9z M26.8,43.8l0.4,1.1l19-11l-0.4-1.3L26.8,43.8z M27.7,45.9l0.4,1.3L47.3,36l-0.6-1.1
							L27.7,45.9z M28.6,48.1l0.6,1.3l19-11.2l-0.6-1.1L28.6,48.1z M29.4,50.3l0.6,1.3l19-11l-0.4-1.3L29.4,50.3z M30.5,52.4
							l0.4,1.3l19-11l-0.4-1.3L30.5,52.4z M31.4,54.6l0.4,1.3l19-11l-0.4-1.3L31.4,54.6z M32.2,56.7l0.4,1.3
							c6.3-3.7,12.9-7.3,19.2-11l-0.6-1.3L32.2,56.7z M33.1,58.9l0.6,1.3l19-11l-0.6-1.3L33.1,58.9z M34,61l0.6,1.3l19-11L53.2,50
							L34,61z M35,63.2l0.4,1.3l19-11L54,52.2L35,63.2z M35.9,65.4l0.4,1.3l19-11l-0.4-1.3L35.9,65.4z M36.8,67.5l0.4,1.3l19.2-11
							l-0.6-1.3L36.8,67.5z M37.6,69.7l0.6,1.3l19-11l-0.6-1.3L37.6,69.7z M38.5,71.8l0.6,1.3l19-11l-0.4-1.3L38.5,71.8z M39.6,74
							l0.4,1.3l19-11L58.5,63L39.6,74z M40.4,76.4l0.4,1.1l19-11l-0.4-1.3L40.4,76.4z M41.3,78.5l0.4,1.1l19.2-11l-0.6-1.3
							L41.3,78.5z M42.2,80.7l0.6,1.3l19-11.2l-0.6-1.1L42.2,80.7z M43,82.8l0.6,1.3l19-11.2l-0.4-1.1L43,82.8z M44.1,85l0.4,1.3
							l19-11L63.1,74L44.1,85z M45,87.1l0.4,1.3l19-11L64,76.1L45,87.1z M45.8,89.3l0.4,1.3l19.2-11l-0.6-1.3L45.8,89.3z M46.7,31.9
							L90,135.7L133.4,32H46.7V31.9z M46.7,91.5l0.6,1.3l19-11l-0.6-1.3L46.7,91.5z M47.5,93.6l0.6,1.3l19-11l-0.4-1.3L47.5,93.6z
							 M48.6,95.8l0.4,1.3l19-11l-0.4-1.3L48.6,95.8z M49.5,97.9l0.4,1.3l19.2-11l-0.6-1.3L49.5,97.9z M50.4,100.1l0.6,1.3l19-11
							l-0.6-1.3L50.4,100.1z M51.2,102.2l0.6,1.3l19-11l-0.6-1.3L51.2,102.2z M52.1,104.4l0.6,1.3l19-11l-0.4-1.3L52.1,104.4z
							 M53.2,106.6l0.4,1.3l19-11l-0.4-1.3L53.2,106.6z M54,108.7l0.4,1.3l19.2-11L73,97.7L54,108.7z M54.9,111.1l0.6,1.1l19-11
							l-0.6-1.3L54.9,111.1z M55.7,113.2l0.6,1.1l19-11l-0.4-1.1L55.7,113.2z M56.8,115.4l0.4,1.3l19-11.2l-0.4-1.1L56.8,115.4z
							 M57.7,117.6l0.4,1.3l19-11l-0.4-1.3L57.7,117.6z M58.5,119.7L59,121l19.2-11l-0.6-1.3L58.5,119.7z M59.4,121.9l0.6,1.3l19-11
							l-0.6-1.3L59.4,121.9z M60.3,124l0.6,1.3l19-11l-0.4-1.3L60.3,124z M61.3,126.2l0.4,1.3l19-11l-0.4-1.3L61.3,126.2z
							 M62.2,128.3l0.4,1.3l19-11l-0.4-1.3L62.2,128.3z M63.1,130.5l0.4,1.3l19.2-11l-0.6-1.3L63.1,130.5z M63.9,132.7l0.6,1.3
							l19-11l-0.6-1.3L63.9,132.7z M64.8,134.8l0.6,1.3l19-11l-0.4-1.3L64.8,134.8z M65.9,137l0.4,1.3l19-11l-0.4-1.3L65.9,137z
							 M66.7,139.1l0.4,1.3l19-11l-0.4-1.3L66.7,139.1z M67.6,141.3l0.4,1.3l19.2-11l-0.6-1.3L67.6,141.3z M68.5,143.4l0.6,1.3
							l19-11l-0.6-1.3L68.5,143.4z M69.3,145.8l0.6,1.1l19-11l-0.4-1.3L69.3,145.8z M70.4,148l0.4,1.1l17.9-10.4l0.6-1.5V137
							L70.4,148z M71.7,151.4l15.5-9.1l0.9-2.2L71.3,150L71.7,151.4z M72.6,153.6l13.2-7.8l0.9-1.9l-14.5,8.4L72.6,153.6z
							 M73.6,155.7l10.6-6.3l0.9-2.2L73,154.4L73.6,155.7z M74.5,157.9l8.2-5l0.9-1.9l-9.7,5.6L74.5,157.9z M75.4,160l6-3.5l0.9-2.2
							l-7.3,4.3C75.2,159.2,75.2,159.6,75.4,160z M76.2,162.2l3.7-2.2l0.9-1.9l-5,2.8L76.2,162.2z M77.3,164.4l1.1-0.6l0.9-2.2
							l-2.6,1.5L77.3,164.4z M77.7,165.4v-0.2h-0.2L77.7,165.4z M90,195l11.9-28.3H101l0.2-0.2h-2.8l-0.2,0.2h-1.9l0.2-0.2h-2.6
							l-0.2,0.2h-1.9l0.2-0.2h-2.8l-0.2,0.2h-2l0.2-0.2h-2.8v0.2h-1.9v-0.2h-2.6l-0.2,0.2h-1.5L90,195z M97.2,155.5l-0.6-1.3
							l-17.3,10.1l-0.4,1.3h0.9L97.2,155.5z M80.8,160.7l-0.9,2.2l16.4-9.5l-0.6-1.3L80.8,160.7z M82.3,157.2l-0.9,1.9l14-8
							l-0.6-1.3L82.3,157.2z M84.4,165.7l13.6-8l-0.4-1.3l-16,9.3H84.4z M83.8,153.6l-0.9,2.2l11.4-6.7l-0.4-1.3L83.8,153.6z
							 M85.3,150.1l-0.9,1.9l9.1-5.2l-0.4-1.3L85.3,150.1z M86.8,146.5l-1.1,2.2l6.9-3.9l-0.6-1.3L86.8,146.5z M89.2,165.7l9.7-5.8
							l-0.4-1.3l-12.1,7.1H89.2z M88.1,143l-0.9,1.9l4.5-2.4l-0.6-1.3L88.1,143z M89.6,139.3l-0.9,2.2l1.9-1.3l-0.4-1.1L89.6,139.3z
							 M90.7,137.2l0.2,0.4l30.6-17.7l0.9-2.2l-31.3,18.1L90.7,137.2z M91.8,139.8l28.3-16.4l0.9-2.2l-29.8,17.3L91.8,139.8z
							 M93.7,165.7l6.3-3.7l-0.6-1.3l-8.2,5H93.7z M91.8,134.4l31.3-18.1l0.9-2.2l-31.3,18.1L91.8,134.4z M92.6,141.9l25.9-14.9
							l0.9-2.2l-27.2,15.7L92.6,141.9z M93.5,144.1l23.5-13.6l0.9-2.2l-24.8,14.5L93.5,144.1z M93.3,130.7l31.3-17.9l0.9-2.2
							l-31.3,18.1L93.3,130.7z M94.3,146.2l21.1-12.1l0.9-2.2l-22.4,12.9L94.3,146.2z M94.8,127.3l31.1-18.1l0.9-2.2l-31.1,18.1
							L94.8,127.3z M95.4,148.4l18.5-10.8l0.9-2.2L94.7,147L95.4,148.4z M96.3,150.6l16.2-9.3l0.9-2.2l-17.7,10.1L96.3,150.6z
							 M98.4,165.7l2.4-1.5l-0.6-1.3l-4.5,2.8H98.4z M96.3,123.6l31.1-17.9l0.9-2.2l-31.1,18.1L96.3,123.6z M97.2,152.7l13.8-8
							c0.2-0.6,0.9-1.5,1.1-2.2l-15.3,8.8L97.2,152.7z M109.7,148.4l0.9-2.2l-12.9,7.5l0.4,1.1L109.7,148.4z M97.8,120.1l31.1-18.1
							l0.9-2.2L98.7,118L97.8,120.1z M99.1,157l9.1-5.2l0.9-2.2l-10.6,6.3L99.1,157z M99.3,116.5l31.1-17.9l0.9-2.2l-31.1,18.1
							L99.3,116.5z M100,159.4l6.7-3.9l0.9-2.2l-8.2,4.7L100,159.4z M100.8,161.6l4.3-2.6l0.9-2.2l-5.8,3.5L100.8,161.6z
							 M101.3,165.7V165l-0.9,0.6L101.3,165.7L101.3,165.7z M100.6,113l31.3-18.1l0.9-2.2l-31.3,18.1L100.6,113z M101.7,163.7
							l1.9-1.3l0.9-1.9l-3.2,1.9L101.7,163.7z M102.1,109.4l31.3-17.9l0.9-2.2L103,107.4L102.1,109.4z M102.3,165.4l0.6-1.5
							l-0.9,0.6L102.3,165.4z M103.6,105.9l31.3-18.1l0.9-1.9l-31.3,17.9L103.6,105.9z M105.1,102.2l31.3-17.9l0.9-2.2L106,100.3
							L105.1,102.2z M106.6,98.8l31.3-18.1l0.9-1.9l-31.3,17.9L106.6,98.8z M108.2,95.1l31.1-17.9l1.1-2.2L109,93.2L108.2,95.1z
							 M109.7,91.7l31.1-18.1l0.9-1.9l-31.1,17.9L109.7,91.7z M111.2,88l31.1-17.9l0.9-2.2L112,86.1L111.2,88z M112.7,84.6
							l31.1-18.1l0.9-1.9l-31.1,17.9L112.7,84.6z M114,80.9L145.3,63l0.9-2.2l-31.1,18.1L114,80.9z M115.5,77.4l31.3-18.1
							c0.2-0.6,0.6-1.3,0.9-1.9l-31.3,17.9L115.5,77.4z M117,73.8l31.3-17.9l0.9-2.2l-31.3,18.1L117,73.8z M118.5,70.3l31.3-18.1
							l0.9-1.9l-31.3,17.9L118.5,70.3z M120,66.7l31.3-17.9l0.9-2.2l-31.3,18.1L120,66.7z M121.5,63.2l31.3-18.1l0.9-1.9L122.4,61
							L121.5,63.2z M123,59.5l31.1-17.9l0.9-2.2l-31.1,18.1L123,59.5z M124.5,56.1L155.6,38l0.9-1.9L125.4,54L124.5,56.1z
							 M126.1,52.4l31.1-17.9l0.9-2.2L127,50.4L126.1,52.4z M127.6,49l29.5-17h-2.8l-25.9,14.9L127.6,49z M128.9,45.3l23.5-13.4
							h-2.6l-20.1,11.4L128.9,45.3z M130.4,41.9l17.5-9.9H145l-13.8,7.8L130.4,41.9z M131.9,38.4l11.2-6.5h-2.8l-7.5,4.3L131.9,38.4
							z M133.4,34.7l5-2.8h-2.6l-1.5,0.6L133.4,34.7z"/>
						<path class="st2" d="M210.6,31.9h-13.2v133.7h16.8v0.9h-16.8v32.1h-1.3v-32.1h-21.6v32.1h-0.9v-32.1h-16.4v-0.9h16.4V31.9H157
							v-1.3h16.6V1.3h0.9v29.3h21.6V1.3h1.3v29.3h13.2V31.9z M196.2,32.6V32h-1.1l-20.5,11.6v1.5L196.2,32.6z M193.1,31.9h-2.8
							L174.6,41v1.5L193.1,31.9z M188.4,31.9h-2.6l-11.2,6.3v1.5L188.4,31.9z M183.9,31.9h-2.8l-6.5,3.7v1.5L183.9,31.9z
							 M179.1,31.9h-2.8l-1.7,0.9v1.5L179.1,31.9z M196.2,35.4v-1.5l-21.6,12.5v1.5L196.2,35.4z M196.2,38v-1.5L174.6,49v1.5
							L196.2,38z M196.2,40.8v-1.5l-21.6,12.5v1.5L196.2,40.8z M196.2,43.4v-1.5l-21.6,12.5v1.5L196.2,43.4z M196.2,46.2v-1.5
							l-21.6,12.5v1.5L196.2,46.2z M196.2,48.8v-1.5l-21.6,12.5v1.5L196.2,48.8z M196.2,51.6V50l-21.6,12.5V64L196.2,51.6z
							 M196.2,54.1v-1.5l-21.6,12.5v1.5L196.2,54.1z M196.2,56.9v-1.5l-21.6,12.5v1.5L196.2,56.9z M196.2,59.5V58l-21.6,12.5V72
							L196.2,59.5z M196.2,62.3v-1.5l-21.6,12.5v1.5L196.2,62.3z M196.2,64.9v-1.5l-21.6,12.5v1.5L196.2,64.9z M196.2,67.7v-1.5
							l-21.6,12.5v1.5L196.2,67.7z M196.2,70.3v-1.5l-21.6,12.5v1.5L196.2,70.3z M196.2,73.1v-1.5l-21.6,12.5v1.5L196.2,73.1z
							 M196.2,75.7v-1.5l-21.6,12.5v1.5L196.2,75.7z M196.2,78.5V77l-21.6,12.5V91L196.2,78.5z M196.2,81.1v-1.5l-21.6,12.5v1.5
							L196.2,81.1z M196.2,83.9v-1.5l-21.6,12.5v1.5L196.2,83.9z M196.2,86.5V85l-21.6,12.5V99L196.2,86.5z M196.2,89.3v-1.5
							l-21.6,12.5v1.5L196.2,89.3z M196.2,91.9v-1.5l-21.6,12.5v1.5L196.2,91.9z M196.2,94.7v-1.5l-21.6,12.5v1.5L196.2,94.7z
							 M196.2,97.3v-1.5l-21.6,12.5v1.5L196.2,97.3z M196.2,100.1v-1.5l-21.6,12.5v1.5L196.2,100.1z M196.2,102.7v-1.5l-21.6,12.5
							v1.5L196.2,102.7z M196.2,105.5V104l-21.6,12.5v1.5L196.2,105.5z M196.2,108.1v-1.5l-21.6,12.5v1.5L196.2,108.1z M196.2,110.9
							v-1.5l-21.6,12.5v1.5L196.2,110.9z M196.2,113.5V112l-21.6,12.5v1.5L196.2,113.5z M196.2,116.3v-1.5l-21.6,12.5v1.5
							L196.2,116.3z M196.2,118.8v-1.5l-21.6,12.5v1.5L196.2,118.8z M196.2,121.7v-1.5l-21.6,12.5v1.5L196.2,121.7z M196.2,124.2
							v-1.5l-21.6,12.5v1.5L196.2,124.2z M196.2,127v-1.5L174.6,138v1.5L196.2,127z M196.2,129.6v-1.5l-21.6,12.5v1.5L196.2,129.6z
							 M196.2,132.4v-1.5l-21.6,12.5v1.5L196.2,132.4z M196.2,135v-1.5L174.6,146v1.5L196.2,135z M196.2,137.8v-1.5l-21.6,12.5v1.5
							L196.2,137.8z M196.2,140.4v-1.5l-21.6,12.5v1.5L196.2,140.4z M196.2,143.2v-1.5l-21.6,12.5v1.5L196.2,143.2z M196.2,145.8
							v-1.5l-21.6,12.5v1.5L196.2,145.8z M196.2,148.6v-1.5l-21.6,12.5v1.5L196.2,148.6z M196.2,151.2v-1.5l-21.6,12.5v1.5
							L196.2,151.2z M196.2,154v-1.5L174.6,165v0.6h1.7L196.2,154z M196.2,156.6v-1.5l-17.9,10.6h2.8L196.2,156.6z M196.2,159.4
							v-1.5l-13.2,7.8h2.6L196.2,159.4z M196.2,162v-1.5l-8.6,5.2h2.8L196.2,162z M196.2,164.8v-1.5l-3.9,2.4h2.6L196.2,164.8z"/>
						<path class="st2" d="M217.9,86.7v-16V54.4h-16.6v-0.9h16.6V31.9h-16.6v-1.3h16.6V1.3h0.9v29.3h21.6V1.3h1.3v29.3h16H274V1.3
							h0.9v29.3h31.9V1.3h1.1v29.3h21.6V1.3h1.1v29.3h12.3v1.3h-12.3v21.6h12.3v0.9h-12.3v69.4v3v2.8v13.2h13.8v1.3h-13.8v21.6h13.8
							v0.9h-13.8v32.1h-1.1v-32.1h-21.6v32.1h-1.1v-32.1h-16h-16v32.1H274v-32.1h-32.4v32.1h-1.3v-32.1h-21.6v32.1h-0.9v-32.1h-16.4
							v-0.9h16.4v-21.6h-16.4v-1.3h16.4v-32.4h-14.2v-0.9h14.2V88h-16.6v-1.3H217.9z M221.8,53.5c3.9-8.2,10.4-14.9,18.5-18.8v-2.8
							h-21.6v21.6H221.8z M218.8,61.5c0.6-2.4,1.3-5,2.4-7.1h-2.4V61.5z M240.4,59.5V58L219,70.5l-0.2,0.2c0,0.4,0.2,0.9,0.2,1.3
							L240.4,59.5z M221.2,86.7c-1.1-2.2-1.7-4.5-2.4-6.9v6.9H221.2z M218.8,109.6h21.6v-3c-8.2-3.9-14.7-10.4-18.5-18.5h-3v21.5
							H218.8z M218.8,110.4v32.4h21.6v-32.4H218.8z M236.5,144.1l-17.7,10.1v1.5l20.3-11.6H236.5z M231.7,144.1l-12.9,7.3v1.5
							l15.7-8.8H231.7z M227.2,144.1l-8.4,4.7v1.5l11-6.3h-2.6V144.1z M222.5,144.1l-3.7,1.9v1.5l6.5-3.5h-2.8V144.1z M218.8,144.1
							v0.9l1.7-0.9H218.8z M240.4,144.3l-21.6,12.5v1.5l21.6-12.5V144.3z M240.4,147.1l-21.6,12.5v1.5l21.6-12.5V147.1z
							 M240.4,149.7l-21.6,12.5v1.5l21.6-12.5V149.7z M240.4,152.5L218.8,165v0.6h1.7l19.8-11.6L240.4,152.5L240.4,152.5z
							 M237.3,54.4L219.2,65c0,0.6-0.2,1.1-0.2,1.7l21.1-12.3C240.1,54.4,237.3,54.4,237.3,54.4z M240.4,56.9v-1.5L219,67.7v1.7
							L240.4,56.9z M240.4,62.3v-1.5L219,73.1v1.5L240.4,62.3z M240.4,64.9v-1.5l-21.1,12.3c0,0.4,0.2,1.1,0.2,1.5L240.4,64.9z
							 M232.8,54.4l-12.9,7.5c-0.2,0.6-0.2,1.1-0.4,1.7l16-9.3L232.8,54.4L232.8,54.4z M240.4,67.7v-1.5l-20.7,12.1
							c0,0.4,0,0.9,0.2,1.3L240.4,67.7z M240.4,70.3v-1.5l-20.3,11.9c0.2,0.4,0.2,0.9,0.4,1.3L240.4,70.3z M228.1,54.4l-7.3,4.3
							c-0.2,0.6-0.2,1.3-0.4,1.9l10.6-6.3L228.1,54.4L228.1,54.4z M240.4,73.1v-1.5L221,82.8c0.2,0.4,0.2,0.9,0.4,1.3L240.4,73.1z
							 M223.3,54.4l-1.3,0.9c-0.2,0.6-0.6,1.5-0.9,2.2l5-3h-2.8V54.4z M240.4,75.7v-1.5l-18.8,11c0.2,0.4,0.4,0.6,0.6,1.1
							L240.4,75.7z M240.4,155.1l-17.9,10.6h2.8l15.1-9.1L240.4,155.1L240.4,155.1z M240.4,41.9L224,51.3c-0.4,0.6-0.6,1.5-1.1,2.2
							h0.4l17-10.1v-1.5H240.4z M222.9,88c0,0.2,0.4,0.2,0.4,0.4l0.9-0.4H222.9z M240.4,78.5V77l-17,9.7h2.8L240.4,78.5z M226.1,88
							l-2.4,1.3l0.6,1.3l4.5-2.6C228.8,88,226.1,88,226.1,88z M230.9,88l-6,3.5c0.2,0.4,0.6,0.6,0.9,1.1l8-4.5L230.9,88L230.9,88z
							 M240.4,39.3L227,47l-1.9,2.6l15.3-8.8L240.4,39.3L240.4,39.3z M240.4,44.7l-15.1,8.8h2.8l12.3-7.3V44.7z M235.4,88l-9.3,5.4
							c0.2,0.4,0.6,0.6,0.9,1.1l11.2-6.5H235.4z M240.4,157.9l-13.2,7.8h2.6l10.6-6.3L240.4,157.9L240.4,157.9z M240.4,89.3V88h-0.2
							l-12.5,7.1c0.2,0.4,0.6,0.6,0.9,1.1L240.4,89.3z M240.4,81.1v-1.5l-12.3,7.1h2.8L240.4,81.1z M240.4,36.5l-7.8,4.5l-3.9,3.9
							l11.6-6.9L240.4,36.5L240.4,36.5z M240.4,91.9v-1.5l-11.2,6.5c0.2,0.4,0.6,0.6,1.1,1.1L240.4,91.9z M240.4,47.2L230,53.5h2.6
							l7.8-4.7L240.4,47.2L240.4,47.2z M240.4,94.7v-1.5l-9.5,5.4c0.4,0.4,0.6,0.9,1.1,1.1L240.4,94.7z M240.4,160.5l-8.6,5.2h2.8
							l5.8-3.7V160.5z M240.4,97.3v-1.5l-7.8,4.5c0.4,0.2,0.9,0.6,1.3,0.9L240.4,97.3z M240.4,83.9v-1.5l-7.5,4.3h2.6L240.4,83.9z
							 M240.4,50l-5.8,3.5h2.8l3-1.9V50z M240.4,100.1v-1.5l-5.6,3.2c0.4,0.2,0.6,0.6,1.1,0.9L240.4,100.1z M240.4,163.3l-3.9,2.4
							h2.6l1.3-0.9L240.4,163.3L240.4,163.3z M240.4,102.7v-1.5l-3.7,2.2c0.4,0.2,1.1,0.6,1.5,0.9L240.4,102.7z M240.4,86.5V85
							l-3,1.7h2.8L240.4,86.5z M240.4,105.5V104l-1.3,0.6C239.5,104.8,239.9,105.3,240.4,105.5z M239.3,53.5h1.1v-0.9L239.3,53.5z
							 M257.8,31.9l-16.2,9.3v1.7l18.8-11C260.4,31.9,257.8,31.9,257.8,31.9z M252.7,32.1l-11,6.5v1.5l14.2-8.2
							C254.8,31.9,253.7,31.9,252.7,32.1z M241.7,34.1c2.2-1.1,4.5-1.5,6.9-2.2h-6.9V34.1z M262.2,32.1L241.7,44v1.5l22.6-13.2
							C263.7,32.1,262.8,32.1,262.2,32.1z M265.8,32.6l-24.2,14v1.7L267.8,33C267.1,32.8,266.5,32.8,265.8,32.6z M244.7,34.1l-3,1.7
							v1.7l8.2-5C248.1,33,246.4,33.4,244.7,34.1z M269.1,33.4l-27.4,16v1.5l29.1-16.8C270.1,33.9,269.7,33.7,269.1,33.4z
							 M273.4,35.2c-0.4-0.2-1.1-0.4-1.5-0.6L241.7,52v1.5h0.2L273.4,35.2z M241.7,70.5c0,8.8,7.1,16.2,16,16.2
							c8.8,0,16.4-7.3,16.4-16.2c0-8.2-6.5-15.3-14.5-16.2h-3.7C247.9,55.2,241.7,62.3,241.7,70.5z M249.4,54.4h-2.8l-5,3v1.7
							L249.4,54.4z M244.7,54.4h-2.6l-0.4,0.4v1.5L244.7,54.4z M243.8,60.4c1.1-1.3,2.2-2.4,3.5-3.5l-5.6,3.2v1.5L243.8,60.4z
							 M242.5,62.1l-0.9,0.6C241.7,62.8,242.1,62.8,242.5,62.1z M241.7,76.6v1.3l0.4-0.2C241.9,77.2,241.9,77,241.7,76.6z
							 M242.5,78.5l-0.9,0.4v1.7l1.5-1.1C243,79.2,242.7,78.9,242.5,78.5z M243.6,80.5l-1.9,1.3v1.5l2.8-1.7
							C244.3,81.1,243.8,80.9,243.6,80.5z M245.1,82.4l-3.5,1.9V86l4.5-2.8C245.8,83,245.3,82.8,245.1,82.4z M274,88.9V88h-1.3
							l-31.1,17.9c0.4,0.2,1.1,0.4,1.5,0.6L274,88.9z M270.8,88h-2.6l-26.5,15.3v1.5L270.8,88z M266.3,88h-2.8l-21.8,12.5v1.7
							L266.3,88z M261.5,88h-2.8l-17,9.9v1.5L261.5,88z M256.8,88h-2.6l-12.5,7.1v1.7L256.8,88z M252.2,88h-2.8l-7.8,4.5V94
							L252.2,88z M247.5,88h-2.6l-3.2,1.7v1.7L247.5,88z M243,88h-1.3v0.6L243,88z M248.6,109.6c-2.4-0.6-4.7-1.3-6.9-2.4v2.4H248.6
							z M241.7,142.8h12.5c-2.2-5-3.5-10.1-3.5-16c0-5.8,1.3-11.4,3.5-16.4h-12.5V142.8z M254.8,144.1l-13.2,7.8v1.5l13.8-8
							L254.8,144.1z M250.5,144.1l-8.8,5v1.7l11.4-6.7H250.5z M245.8,144.1l-4.1,2.4v1.5l6.9-3.9H245.8z M241.7,144.1v1.3l2.2-1.3
							H241.7z M255.9,146.2l-14.2,8.2v1.7l14.9-8.8C256.3,146.9,256.1,146.7,255.9,146.2z M257.2,148.2l-15.5,9.1v1.5l16.2-9.5
							C257.6,148.8,257.4,148.6,257.2,148.2z M258.5,150.1l-16.8,9.7v1.7l17.7-10.4C259.1,150.8,258.7,150.6,258.5,150.1z
							 M259.8,152.1l-18.1,10.6v1.5l19-11C260.4,152.7,260,152.5,259.8,152.1z M262.4,154.9c-0.4-0.4-0.6-0.6-0.9-1.1l-19.8,11.4
							v0.4h2.2L262.4,154.9z M248.1,84.8c-0.4-0.2-0.9-0.6-1.3-0.9l-4.7,2.8h2.6L248.1,84.8z M274,37.5V36l-30.2,17.5h2.8L274,37.5z
							 M263.7,97.5c3-2.8,6.5-5.2,10.4-6.9V90l-29.8,17c0.6,0.2,1.1,0.4,1.7,0.6L263.7,97.5z M264.1,156.4c-0.4-0.2-0.6-0.4-1.1-0.9
							l-17.3,10.1h2.8L264.1,156.4z M250.5,86.3c-0.4-0.2-1.1-0.6-1.5-0.9l-2.4,1.3h2.8L250.5,86.3z M258.7,103.1
							c0.9-1.1,1.5-2.2,2.4-3l-13.8,8c0.6,0.2,1.3,0.2,1.9,0.4L258.7,103.1z M274,40.3v-1.7l-25.5,14.9h2.8L274,40.3z M255.9,107.4
							c0.4-0.9,1.1-1.7,1.5-2.6l-6.9,3.9c0.6,0.2,1.5,0.4,2.2,0.4L255.9,107.4z M266,158.1c-0.4-0.2-0.6-0.6-1.1-0.9l-14.5,8.4h2.6
							L266,158.1z M255.5,110.4c-2.2,5-3.5,10.6-3.5,16.4s1.3,11,3.5,16h1.5h2.6h1.9h2.8h1.9h2.8h1.9h2.6h0.4v-16.2v-16h-0.4v-0.2
							h-15.7h-0.2C257.6,110.4,255.5,110.4,255.5,110.4z M274,42.9v-1.5l-20.7,12.1h2.6v-0.2L274,42.9z M254.8,109.4
							c0-0.2,0.2-0.2,0.2-0.4l-0.6,0.4H254.8z M268.2,159.6c-0.4-0.2-0.9-0.6-1.3-0.9l-11.9,6.9h2.8L268.2,159.6z M274,97.9
							L256.7,108c-0.2,0.4-0.6,0.9-0.9,1.3h1.1l17-9.7L274,97.9L274,97.9z M257.8,144.1h-1.9c0.2,0.2,0.2,0.4,0.4,0.6L257.8,144.1z
							 M262.4,144.1h-2.6l-3,1.5c0.2,0.4,0.6,0.9,0.9,1.3L262.4,144.1z M274,95.3l-14.5,8.4c-0.6,0.9-1.1,1.7-1.7,2.6l16.2-9.5V95.3
							z M274,45.7V44l-16,9.3c0.6,0,1.1,0.2,1.5,0.2h1.1L274,45.7z M267.1,144.1h-2.8l-6.3,3.7c0.2,0.4,0.4,0.6,0.6,1.1L267.1,144.1
							z M274,102.2v-1.5l-15.1,8.6c1.1,0,1.9,0,3-0.2L274,102.2z M271.9,144.1h-2.8l-9.7,5.4c0.2,0.4,0.6,0.9,0.9,1.3L271.9,144.1z
							 M270.3,160.9l-1.3-0.6l-9.3,5.4h2.6L270.3,160.9z M274,145.4v-1.3h-0.2l-12.9,7.3c0.2,0.4,0.6,0.6,0.9,1.1L274,145.4z
							 M274,92.5l-9.5,5.4c-1.3,1.1-2.4,2.4-3.5,3.7l12.9-7.3v-1.8C273.9,92.5,274,92.5,274,92.5z M274,148.2v-1.7l-11.6,6.7
							c0.2,0.4,0.6,0.6,1.1,1.1L274,148.2z M274,48.3v-1.5l-11.4,6.7h2.6L274,48.3z M274,76.6c-1.7,4.7-5.8,8.4-10.6,10.1h1.9h2.6
							h1.9h2.8h1.3V76.6H274z M274,64.5V54.4h-9.9C268.6,56.1,272.3,60,274,64.5z M274,150.8v-1.5l-9.9,5.6c0.4,0.4,0.6,0.9,1.1,1.1
							L274,150.8z M272.7,162.4c-0.4-0.2-1.1-0.6-1.5-0.9l-6.9,4.1h2.8L272.7,162.4z M274,105v-1.7l-9.5,5.6c1.5-0.2,3-0.6,4.5-1.1
							L274,105z M274,153.6v-1.7l-8.2,4.7c0.4,0.2,0.9,0.6,1.3,0.9L274,153.6z M269.9,31.9h-2.8c0.6,0.2,1.3,0.2,1.9,0.4L269.9,31.9
							z M274,51.1v-1.7l-6.9,4.1h2.8L274,51.1z M274,156.2v-1.5l-6,3.5c0.4,0.2,0.6,0.6,1.1,0.9L274,156.2z M274,107.6v-0.4
							c-1.5,0.6-3.2,1.3-5,1.7l-0.9,0.6h2.6L274,107.6z M274,164.4v-1.5h-0.2l-4.7,2.8h2.6L274,164.4z M274,32.1v-0.2h-2.2l-1.7,0.9
							c0.6,0.2,1.1,0.4,1.7,0.6L274,32.1z M274,159v-1.7l-3.9,2.4c0.4,0.2,0.9,0.6,1.3,0.9L274,159z M274,53.5v-1.3l-2.2,1.3H274z
							 M274,161.6V160l-1.7,0.9c0.4,0.2,1.1,0.6,1.5,0.9L274,161.6z M274,109.6v-0.9l-1.3,0.9H274z M274,34.1v-0.9l-0.9,0.6
							C273.4,34.1,273.8,33.9,274,34.1z M274,165.7v-0.2l-0.4,0.2H274z M276.4,31.9l-1.5,0.9v1.5l4.3-2.4H276.4z M274.9,35.8v1.1
							l1.1-0.4C275.5,36.2,275.3,36,274.9,35.8z M277,36.9l-2.2,1.3v1.5l3.5-1.9C277.9,37.5,277.5,37.1,277,36.9z M279.2,38.4
							l-4.3,2.4v1.5l5.6-3C280.1,39,279.6,38.6,279.2,38.4z M281.3,39.9l-6.5,3.7v1.5l7.5-4.3C282,40.6,281.8,40.1,281.3,39.9z
							 M283.3,41.4l-8.4,4.7v1.5l9.5-5.4C283.9,41.9,283.7,41.6,283.3,41.4z M285,43.1L274.9,49v1.5l11.2-6.5
							C285.9,43.6,285.4,43.6,285,43.1z M286.7,44.9l-11.9,6.7v1.5l12.7-7.3C287.4,45.3,287,45.3,286.7,44.9z M274.9,54.4v16.2v16.2
							h2.4h13.6h2.2c2.2-5,3.5-10.1,3.5-16c0-5.8-1.3-11.4-3.5-16.4H274.9z M291.9,89.3l0.6-1.3h-1.3l-16.4,9.5V99L291.9,89.3z
							 M286.3,88.2l-11.4,6.5v1.5l14.5-8.2C288.3,88,287.4,88,286.3,88.2z M277.5,88l-2.6,1.3v0.6c1.3-0.6,2.8-0.9,4.1-1.3l1.1-0.6
							H277.5z M274.9,88v0.2l0.6-0.2H274.9z M279,89.7l-4.1,2.4v1.5l8.8-5.2C282,88.7,280.5,89.3,279,89.7z M302.3,89.7l-17,9.7
							c-3,2.8-6.5,5.4-10.4,7.1v0.4L304,90.2C303.3,89.9,302.9,89.9,302.3,89.7z M305.3,90.6l-30.4,17.7v1.3h0.6l31.3-18.1
							C306.4,91.2,305.7,90.8,305.3,90.6z M289.1,93.4c0.6-0.9,1.1-1.7,1.7-2.6l-16,9.3v1.5L289.1,93.4z M284.2,99
							c1.1-1.1,2.4-2.2,3.5-3.5l-12.7,7.3v1.5L284.2,99z M280.3,110.4v0.2h-1.9v-0.2h-2.8v0.2H275v9.9c1.7-4.5,5.4-8.2,9.7-9.9H283
							v-0.2H280.3z M274.9,126.6c0,8.8,7.1,16,16,16c8.2,0,15.1-6,16-14v-3.9c-0.9-8-7.8-14-16-14
							C282,110.7,274.9,117.8,274.9,126.6z M274.9,132.7v10.1h0.6h2.8h1.9h2.6h0.2h2.8C280.9,141.3,276.8,137.6,274.9,132.7z
							 M306.8,145.2v-1.1h-0.4l-31.5,18.1c0.4,0.2,1.1,0.4,1.5,0.6L306.8,145.2z M301.6,144.1l-26.7,15.3v1.5l29.5-16.8H301.6z
							 M296.9,144.1l-22,12.7v1.5l24.8-14.2H296.9z M292.3,144.1l-17.5,9.9v1.5l20.1-11.4H292.3z M287.6,144.1l-12.7,7.3v1.5
							l15.5-8.8H287.6z M283.1,144.1l-8.2,4.5v1.5l10.8-6H283.1z M278.3,144.1l-3.5,1.9v1.5l6.3-3.5h-2.8V144.1z M274.9,144.1v0.6
							l1.5-0.6H274.9z M274.9,163.5v0.2l0.4-0.2H274.9z M276.4,163.9l-1.5,0.9v0.9h1.5l1.7-1.1C277.5,164.4,277,164.1,276.4,163.9z
							 M281.1,31.9l-5.4,3c0.4,0.2,0.9,0.6,1.3,0.9c2.2-1.3,4.7-2.6,6.9-3.9C283.9,31.9,281.1,31.9,281.1,31.9z M278.5,103.5
							l-2.8,1.5C276.6,104.6,277.7,104.2,278.5,103.5z M288.3,46.6l-11.9,6.9h2.8l9.9-5.8C288.9,47.2,288.5,47,288.3,46.6z
							 M306.8,92.5l-29.3,17h2.6L306.8,94V92.5z M306.8,148v-1.5l-29.1,16.8c0.6,0.2,1.1,0.4,1.7,0.6L306.8,148z M285.9,31.9
							l-7.8,4.3c0.4,0.2,0.9,0.6,1.3,0.9l9.1-5.2C288.5,31.9,285.9,31.9,285.9,31.9z M279.4,165l-1.1,0.6h2.8v-0.2
							C280.5,165.2,280.1,165.2,279.4,165z M290.4,31.9l-10.1,5.8c0.4,0.2,0.9,0.6,1.3,0.9l11.6-6.7
							C293.2,31.9,290.4,31.9,290.4,31.9z M306.8,150.6V149l-26.1,15.1c0.6,0.2,1.3,0.2,1.9,0.4L306.8,150.6z M289.5,48.5l-8.4,5
							h2.8l6.5-3.9C290.2,49.2,289.8,49,289.5,48.5z M306.8,95.1L282,109.6h2.8l22-12.9V95.1z M295.2,31.9l-12.9,7.3
							c0.4,0.2,0.9,0.6,1.3,0.9l14.2-8.2C297.8,31.9,295.2,31.9,295.2,31.9z M306.8,153.4v-1.5L283.9,165c0.6,0.2,1.5,0.2,2.2,0.2
							L306.8,153.4z M299.7,31.9l-15.5,8.8c0.4,0.2,0.6,0.6,1.1,1.1l17.3-9.9H299.7z M285.2,110.4h-0.4v0.2
							C285,110.4,285,110.4,285.2,110.4z M290.8,50.5l-5,3h2.6l3-1.9C291.3,51.1,291.1,50.9,290.8,50.5z M304.4,31.9l-18.3,10.6
							c0.4,0.4,0.6,0.6,0.9,1.1L306.8,32L304.4,31.9L304.4,31.9z M306.8,97.9l-20.1,11.6h2.8l17.3-10.1L306.8,97.9L306.8,97.9z
							 M306.8,33.2l-19.2,11c0.2,0.4,0.6,0.6,0.9,1.1l18.3-10.6L306.8,33.2L306.8,33.2z M299,88.9l-9,5.1c-0.6,1.1-1.5,2.2-2.4,3
							l13.4-7.8C300.3,89.1,299.7,89.1,299,88.9z M306.8,155.9v-1.5l-19,11h2.6L306.8,155.9z M306.8,35.8l-17.7,10.1
							c0.2,0.4,0.6,0.9,0.9,1.3l16.8-9.9L306.8,35.8L306.8,35.8z M290.4,53.5h2.2c-0.2-0.2-0.2-0.9-0.4-1.1L290.4,53.5z M306.8,38.6
							l-16.2,9.3l0.6,1.3l15.5-9.1v-1.5H306.8z M295.6,88.2l-2.8,1.5c-0.4,0.9-1.1,1.7-1.5,2.6l6.5-3.9
							C297.1,88.2,296.2,88.2,295.6,88.2z M306.8,100.5l-15.3,9.1h2.6l12.7-7.5L306.8,100.5L306.8,100.5z M306.8,41.2l-14.9,8.6
							l0.6,1.3l14.2-8.4L306.8,41.2L306.8,41.2z M306.8,158.8v-1.5l-14.5,8.2c1.1,0,2.2,0,3.2-0.2L306.8,158.8z M306.8,44L293,52
							c0.2,0.4,0.4,0.6,0.6,1.1l13.2-7.5L306.8,44L306.8,44z M293.6,88v0.2l0.2-0.2H293.6z M294.3,54.4c2.2,5,3.5,10.6,3.5,16.4
							s-1.3,11-3.5,16h12.5V54.4H294.3z M306.8,46.6l-11.6,6.9h2.6l9.1-5.4v-1.5H306.8z M306.8,165.7v-2.4c-3.7,1.5-7.3,2.6-11.4,3
							L306.8,165.7z M306.8,103.3l-10.8,6.3h2.8l8-4.7V103.3z M306.8,135.7l-2.4,1.3c-2.2,2.8-5,4.7-8.4,5.8h0.9l9.9-5.6V135.7z
							 M296.7,110.4l0.2,0.2v-0.2H296.7z M298.8,110.4l-0.9,0.6c0.4,0.2,1.1,0.4,1.5,0.6l2.2-1.3h-2.8L298.8,110.4L298.8,110.4z
							 M306.8,161.3v-1.5l-8.6,5c1.7-0.4,3.5-0.6,5.2-1.3L306.8,161.3z M306.8,138.3l-8,4.5h2.8l5.2-3V138.3z M306.8,49.4l-7.1,4.1
							h2.8l4.3-2.6L306.8,49.4L306.8,49.4z M299.9,88c2.4,0.6,4.7,1.3,6.9,2.2V88H299.9z M303.6,110.4l-3.2,1.9
							c0.4,0.2,0.9,0.6,1.3,0.9l4.5-2.8H303.6z M306.8,105.9l-6,3.7h2.6l3.5-2.2v-1.5H306.8z M306.8,112.8v-1.5l-4.5,2.6
							c0.4,0.2,0.6,0.6,1.1,1.1L306.8,112.8z M306.8,141.1l-3.2,1.7h2.6l0.6-0.2V141.1z M306.8,115.6v-1.5l-2.8,1.5
							c0.2,0.4,0.6,0.6,0.9,1.1L306.8,115.6z M304.4,53.5h2.4V52L304.4,53.5z M305.3,109.6h1.5v-0.9L305.3,109.6z M306.8,118.2v-1.5
							l-1.5,0.9c0.2,0.4,0.6,0.6,0.9,1.1L306.8,118.2z M306.8,132.9c-0.2,0.9-0.6,1.5-1.1,2.2l1.1-0.6V132.9z M306.8,120.4v-0.9
							h-0.4C306.6,119.7,306.8,120.1,306.8,120.4z M329.4,31.9h-1.7l-19.8,11.4v1.5l21.6-12.5v-0.4H329.4z M323,31.9l-15.1,8.6V42
							l17.9-10.1H323z M318.4,31.9l-10.6,6v1.5l13.2-7.5C321,31.9,318.4,31.9,318.4,31.9z M313.7,31.9l-5.8,3.2v1.5l8.6-4.7
							C316.5,31.9,313.7,31.9,313.7,31.9z M309.2,31.9l-1.3,0.6V34l3.9-2.2h-2.6V31.9z M329.4,33.4l-21.6,12.5v1.5l21.6-12.3V33.4z
							 M329.4,36.2l-21.6,12.5v1.5l21.6-12.5V36.2z M329.4,38.8l-21.6,12.5v1.5l21.6-12.3V38.8z M307.9,88v2.6
							c8.2,3.9,14.9,10.8,18.8,19h2.8V54.4h-21.6v32.4h14V88H307.9z M307.9,91.9v1.5l1.3-0.9L307.9,91.9z M310.3,93.2l-2.4,1.3V96
							l3.7-1.9C311.1,93.8,310.7,93.4,310.3,93.2z M312.4,94.5l-4.5,2.8v1.5l5.8-3.5C313.3,95.1,312.8,94.7,312.4,94.5z M314.6,96
							l-6.7,3.9v1.5l7.8-4.3C315.2,96.8,315,96.2,314.6,96z M316.5,97.7l-8.6,5v1.5l9.7-5.6C317.2,98.1,316.9,97.9,316.5,97.7z
							 M318.2,99.2l-10.4,6v1.7l11.2-6.7C318.9,99.9,318.7,99.7,318.2,99.2z M320.8,102c-0.2-0.4-0.6-0.4-0.9-0.9l-12.1,6.9v1.5h0.2
							L320.8,102z M322.1,110.4l-14.2,8.4v1.5l17-9.9H322.1z M317.4,110.4l-9.5,5.6v1.5l12.3-7.1H317.4z M312.8,110.4l-5,3v1.5
							l7.5-4.5H312.8z M308.1,110.4l-0.2,0.2v1.5l3-1.7H308.1z M326.2,110.9l-18.3,10.6v1.5l18.8-10.8
							C326.4,111.7,326.4,111.3,326.2,110.9z M327.1,113l-19.2,11.2v0.4v1.1l19.6-11.4C327.3,113.9,327.3,113.5,327.1,113z
							 M327.9,115.4l-20.1,11.4v1.5l20.3-11.6C327.9,116.3,328.2,115.8,327.9,115.4z M328.6,117.6l-20.7,12.1v1.5l20.9-12.1
							C328.8,118.6,328.8,118,328.6,117.6z M329,120.1l-21.1,12.1v1.5l21.4-12.3C329.2,121,329,120.6,329,120.1z M329.4,123.8
							c0-0.4-0.2-0.9-0.2-1.3L307.9,135v1.5l21.6-12.5v-0.2H329.4z M329.4,125.1l-21.6,12.5v1.5l21.6-12.3V125.1z M329.4,127.9
							l-21.6,12.5v1.5l21.6-12.5V127.9z M326.6,144.1c-3.9,8.2-10.6,14.9-18.8,18.8v2.8h21.6v-21.6H326.6z M324.5,145.8
							c0.4-0.6,0.9-1.1,1.1-1.7H325l-17,9.7v1.5L324.5,145.8z M323,144.1h-2.8l-12.3,7.1v1.5L323,144.1z M318.2,144.1h-2.6l-7.8,4.3
							v1.5L318.2,144.1z M313.7,144.1h-2.8l-3,1.7v1.5L313.7,144.1z M309,144.1h-1.1v0.4L309,144.1z M321.7,150.1l1.9-2.6l-15.7,9.1
							v1.5L321.7,150.1z M316.3,155.9c1.3-1.1,2.6-2.4,3.7-3.7l-12.1,6.9v1.5L316.3,155.9z M329.2,132.2c0-0.6,0.2-0.9,0.2-1.5
							L308,142.8h2.8L329.2,132.2z M329.4,41.6l-20.3,11.9h2.6l17.7-10.4L329.4,41.6L329.4,41.6z M322.1,104
							c-0.2-0.4-0.4-0.6-0.6-1.1l-11.4,6.7h2.6L322.1,104z M328.6,135.2c0.2-0.6,0.4-1.1,0.4-1.7l-16.2,9.3h2.6L328.6,135.2z
							 M329.4,44.2l-15.7,9.3h2.8l12.9-7.5L329.4,44.2L329.4,44.2z M323.4,105.9c-0.2-0.4-0.4-0.6-0.6-1.1l-8.2,4.7h2.8L323.4,105.9
							z M327.7,138.5l0.6-1.9l-11,6.3h2.8L327.7,138.5z M329.4,47l-11,6.5h2.6l8.4-5V47z M324.7,107.8c-0.2-0.4-0.4-0.6-0.6-1.1
							l-4.7,2.8h2.8L324.7,107.8z M326.4,141.9c0.2-0.6,0.6-1.3,0.9-1.9l-5.2,2.8h2.8L326.4,141.9z M329.4,49.6l-6.5,3.9h2.8
							l3.7-2.2V49.6z M325.6,109.6c-0.2-0.2-0.2-0.6-0.4-0.9l-1.1,0.9H325.6z M327.3,110.4c0.9,2.2,1.5,4.5,2.2,6.7v-6.7H327.3z
							 M329.4,136.3c-0.6,2.2-1.3,4.3-2.2,6.5h2.2V136.3z M327.7,53.5h1.7v-1.1L327.7,53.5z"/>
						<path class="st2" d="M384.4,31.9h-13.2v133.7H388v0.9h-16.8v32.1H370v-32.1h-21.6v32.1h-0.9v-32.1h-16.4v-0.9h16.4V31.9H331
							v-1.3h16.6V1.3h0.9v29.3H370V1.3h1.3v29.3h13.2v1.3C384.5,31.9,384.4,31.9,384.4,31.9z M370,32.6V32h-1.1l-20.5,11.6v1.5
							L370,32.6z M367,31.9h-2.8L348.4,41v1.5L367,31.9z M362.2,31.9h-2.6l-11.2,6.3v1.5L362.2,31.9z M357.7,31.9h-2.8l-6.5,3.7v1.5
							L357.7,31.9z M353,31.9h-2.8l-1.7,0.9v1.5L353,31.9z M370,35.4v-1.5l-21.6,12.5v1.5L370,35.4z M370,38v-1.5L348.4,49v1.5
							L370,38z M370,40.8v-1.5l-21.6,12.5v1.5L370,40.8z M370,43.4v-1.5l-21.6,12.5v1.5L370,43.4z M370,46.2v-1.5l-21.6,12.5v1.5
							L370,46.2z M370,48.8v-1.5l-21.6,12.5v1.5L370,48.8z M370,51.6V50l-21.6,12.5V64L370,51.6z M370,54.1v-1.5l-21.6,12.5v1.5
							L370,54.1z M370,56.9v-1.5l-21.6,12.5v1.5L370,56.9z M370,59.5V58l-21.6,12.5V72L370,59.5z M370,62.3v-1.5l-21.6,12.5v1.5
							L370,62.3z M370,64.9v-1.5l-21.6,12.5v1.5L370,64.9z M370,67.7v-1.5l-21.6,12.5v1.5L370,67.7z M370,70.3v-1.5l-21.6,12.5v1.5
							L370,70.3z M370,73.1v-1.5l-21.6,12.5v1.5L370,73.1z M370,75.7v-1.5l-21.6,12.5v1.5L370,75.7z M370,78.5V77l-21.6,12.5V91
							L370,78.5z M370,81.1v-1.5l-21.6,12.5v1.5L370,81.1z M370,83.9v-1.5l-21.6,12.5v1.5L370,83.9z M370,86.5V85l-21.6,12.5V99
							L370,86.5z M370,89.3v-1.5l-21.6,12.5v1.5L370,89.3z M370,91.9v-1.5l-21.6,12.5v1.5L370,91.9z M370,94.7v-1.5l-21.6,12.5v1.5
							L370,94.7z M370,97.3v-1.5l-21.6,12.5v1.5L370,97.3z M370,100.1v-1.5l-21.6,12.5v1.5L370,100.1z M370,102.7v-1.5l-21.6,12.5
							v1.5L370,102.7z M370,105.5V104l-21.6,12.5v1.5L370,105.5z M370,108.1v-1.5l-21.6,12.5v1.5L370,108.1z M370,110.9v-1.5
							l-21.6,12.5v1.5L370,110.9z M370,113.5V112l-21.6,12.5v1.5L370,113.5z M370,116.3v-1.5l-21.6,12.5v1.5L370,116.3z M370,118.8
							v-1.5l-21.6,12.5v1.5L370,118.8z M370,121.7v-1.5l-21.6,12.5v1.5L370,121.7z M370,124.2v-1.5l-21.6,12.5v1.5L370,124.2z
							 M370,127v-1.5L348.4,138v1.5L370,127z M370,129.6v-1.5l-21.6,12.5v1.5L370,129.6z M370,132.4v-1.5l-21.6,12.5v1.5L370,132.4z
							 M370,135v-1.5L348.4,146v1.5L370,135z M370,137.8v-1.5l-21.6,12.5v1.5L370,137.8z M370,140.4v-1.5l-21.6,12.5v1.5L370,140.4z
							 M370,143.2v-1.5l-21.6,12.5v1.5L370,143.2z M370,145.8v-1.5l-21.6,12.5v1.5L370,145.8z M370,148.6v-1.5l-21.6,12.5v1.5
							L370,148.6z M370,151.2v-1.5l-21.6,12.5v1.5L370,151.2z M370,154v-1.5L348.4,165v0.6h1.7L370,154z M370,156.6v-1.5l-17.9,10.6
							h2.8L370,156.6z M370,159.4v-1.5l-13.2,7.8h2.6L370,159.4z M370,162v-1.5l-8.6,5.2h2.8L370,162z M370,164.8v-1.5l-3.9,2.4h2.6
							L370,164.8z"/>
						<path class="st2" d="M545.8,31.9h-16v21.6h16v0.9h-16v44.4v44h16.4v1.3h-16.4v21.6h20.7v0.9h-20.7v1.5l5.6,5.6l-0.9,0.9
							l-4.7-5v29.1h-1.3v-30.2l-1.7-1.9h-22v1.3h3.9v0.9h-3.9v30h-0.9v-30h-44.4h-44v30h-1.3v-30h-1.5v-0.9h1.5v-1.3h-21.8l-1.9,1.9
							v30.2h-0.9v-29.1l-9.7,9.7l-0.9-0.9l10.6-10.4v-1.5h-12.1v-0.9h12.1V144h-12.1v-1.3h12.1v-44V54.4h-14.5v-0.9h14.5V31.9h-14.5
							v-1.3h14.5v-1.3l-9.9-9.7l0.9-0.9l9.1,9.1V0.7h0.9V29l1.9,1.7h21.8v-0.9h-1.5v-1.3h1.5V0.7h1.3v27.8h44H504V0.7h0.9v27.8h3.9
							v1.3h-3.9v0.9h22l1.7-1.7V0.7h1.3v27.2l8.8-9.1l0.9,0.9l-9.7,9.7v1.3h16L545.8,31.9L545.8,31.9z M390.9,30.6l-0.4-0.2v0.2
							H390.9z M406.2,53.5c1.1-1.3,2.2-2.6,3.5-3.9L392,31.9h-1.5v21.6H406.2z M390.5,86.3c2.2-11.9,7.3-22.9,14.7-31.9h-14.7V86.3z
							 M414.2,86.5V85l-23.7,13.8c0,0.4,0.2,1.1,0.2,1.5L414.2,86.5z M405.2,142.8c-7.3-9.1-12.5-19.8-14.7-31.7v31.7H405.2z
							 M392,165.7l17.7-17.9c-1.3-1.3-2.4-2.4-3.5-3.7h-15.7v21.6L392,165.7L392,165.7z M390.5,166.9l0.4-0.4h-0.4V166.9z
							 M414.2,81.1v-1.5l-23.5,13.6v1.7L414.2,81.1z M414.2,83.9v-1.5L390.7,96v1.7L414.2,83.9z M414.2,89.3v-1.5l-23.5,13.6v1.5
							L414.2,89.3z M414.2,91.9v-1.5L390.7,104c0,0.4,0.2,1.1,0.2,1.5L414.2,91.9z M414.2,78.5V77l-23.1,13.4c0,0.6-0.2,1.1-0.2,1.7
							L414.2,78.5z M414.2,94.7v-1.5l-23.1,13.4v1.5L414.2,94.7z M414.2,75.7v-1.5l-22.6,13.2c0,0.6-0.2,1.1-0.2,1.7L414.2,75.7z
							 M414.2,97.3v-1.5l-22.9,13.4c0,0.4,0.2,0.9,0.2,1.3L414.2,97.3z M414.2,73.1v-1.5L392,84.3c-0.2,0.6,0,1.3-0.2,1.9
							L414.2,73.1z M414.2,100.1v-1.3v-0.2l-22.4,12.9c0,0.4,0.2,1.1,0.2,1.5L414.2,100.1z M414.2,102.7v-1.5l-22,12.7
							c0,0.4,0.2,1.1,0.4,1.5L414.2,102.7z M414.2,70.3v-1.5l-21.4,12.5c-0.2,0.6-0.2,1.1-0.4,1.7L414.2,70.3z M414.2,105.5V104
							l-21.4,12.3c0.2,0.4,0.2,1.1,0.4,1.5L414.2,105.5z M414.2,67.7v-1.5l-20.5,11.9l-0.6,1.9L414.2,67.7z M393.5,31.9l16.8,16.8
							c1.3-1.3,2.6-2.4,3.9-3.5V31.9H393.5z M414.2,108.1v-1.5l-20.7,12.1c0.2,0.4,0.2,0.9,0.4,1.3L414.2,108.1z M414.2,152.1
							c-1.3-1.1-2.6-2.2-3.9-3.5l-16.8,17h20.7L414.2,152.1L414.2,152.1z M414.2,64.9v-1.5l-19.4,11.2c-0.2,0.6-0.4,1.5-0.6,2.2
							L414.2,64.9z M414.2,110.9v-1.5l-20,11.6l0.6,1.3L414.2,110.9z M414.2,113.5V112L395,123.2l0.6,1.3L414.2,113.5z M414.2,62.3
							v-1.5l-17.9,10.4c-0.2,0.6-0.6,1.5-0.9,2.2L414.2,62.3z M414.2,116.3v-1.5l-18.3,10.6l0.6,1.3L414.2,116.3z M414.2,59.5V58
							L398,67.5c-0.4,0.6-0.6,1.5-1.1,2.2L414.2,59.5z M414.2,118.8v-1.5L397,127.5c0.2,0.4,0.2,0.9,0.4,1.3L414.2,118.8z
							 M414.2,121.7v-1.5l-16.4,9.5c0.2,0.4,0.4,0.6,0.6,1.1L414.2,121.7z M414.2,56.9v-1.5l-14,8.2c-0.4,0.9-0.9,1.3-1.3,2.2
							L414.2,56.9z M414.2,124.2v-1.5l-15.3,8.8l0.6,1.3L414.2,124.2z M414.2,127v-1.5l-14,8.2c0.2,0.4,0.4,0.6,0.6,1.1L414.2,127z
							 M411.2,54.4l-8.2,5c-0.6,0.9-1.1,1.5-1.7,2.4l12.7-7.3h-2.8V54.4z M414.2,129.6v-1.5l-12.9,7.5c0.2,0.4,0.6,0.6,0.9,1.1
							L414.2,129.6z M414.2,132.4v-1.5l-11.6,6.7c0.2,0.4,0.6,0.6,0.9,1.1L414.2,132.4z M414.2,135v-1.5l-10.1,6
							c0.2,0.4,0.4,0.6,0.6,1.1L414.2,135z M406.7,54.4c-0.9,0.9-1.7,2.2-2.4,3l5-3H406.7z M414.2,137.8v-1.5l-8.8,5.2
							c0.2,0.4,0.6,0.6,0.9,1.1L414.2,137.8z M414.2,140.4v-1.5l-6.7,3.9h2.6L414.2,140.4z M407.5,144.1l0.2,0.2l0.6-0.2H407.5z
							 M412.7,52.4l-1.1-0.9l-3.2,1.9h2.8L412.7,52.4z M410.3,144.1l-1.9,0.9c0.2,0.4,0.9,0.6,1.1,1.1l3.5-1.9h-2.7V144.1z
							 M410.3,50.3c-0.6,0.6-1.1,1.3-1.7,1.9l2.4-1.5L410.3,50.3z M410.3,147.1l1.3-1.3l-1.5,0.9
							C410.1,146.9,410.3,146.9,410.3,147.1z M414.2,48.8v-1.5l-1.9,1.3l-1.1,1.1l0.6,0.6L414.2,48.8z M414.2,145.8v-1.1l-2.6,2.8
							L414.2,145.8z M414.2,148.6v-1.5l-2.4,1.3c0.4,0.4,0.6,0.9,1.1,1.1L414.2,148.6z M414.2,142.8v-1.1l-2.2,1.1H414.2z
							 M414.2,51.6V50l-1.5,0.9l0.9,1.1L414.2,51.6z M413.6,53.5l-0.2-0.2l-0.2,0.2H413.6z M414.2,150.8v-1.1l-0.6,0.4L414.2,150.8z
							 M442.3,30.6c1.7-0.4,3.2-0.6,5-0.9h-31.7v0.9H442.3z M415.5,44.2c6.7-5.6,14.5-9.7,23.1-12.3h-23.1V44.2z M453,31.9h-2.8
							L415.5,52v1.5h0.2L453,31.9z M445.7,31.9l-30.2,17.5v1.5l32.8-19C448.3,31.9,445.7,31.9,445.7,31.9z M442.5,31.9
							c-0.9,0.2-1.9,0.4-2.8,0.6l-24.2,14v1.7l28.3-16.4L442.5,31.9L442.5,31.9z M416.2,55.9l-0.6-0.6v1.1L416.2,55.9z M417.9,57.6
							l-1.1-0.9l-1.3,0.6V59L417.9,57.6z M419.6,59.3l-1.1-1.1l-3,1.9v1.5L419.6,59.3z M421.1,61l-0.9-1.1l-4.7,2.8v1.7L421.1,61z
							 M422.8,62.8l-0.9-1.1l-6.5,3.9v1.5L422.8,62.8z M424.6,64.5l-0.9-1.1l-8.2,4.7v1.7L424.6,64.5z M426.3,66.2
							c-0.4-0.4-0.4-0.6-0.9-1.1l-9.9,5.8v1.5L426.3,66.2z M424.8,69.7c0.9-0.9,1.5-1.7,2.4-2.6l-0.2-0.2l-11.4,6.7v1.7L424.8,69.7z
							 M428,67.7c-7.8,8-12.5,19-12.5,31.1s4.7,22.9,12.5,30.8l30.8-30.8L428,67.7z M421.3,74.4c0.6-0.9,1.1-1.7,1.7-2.6l-7.5,4.5
							v1.5L421.3,74.4z M419.2,78.5c0.4-0.9,0.6-1.7,1.1-2.4l-4.7,2.8v1.7L419.2,78.5z M417.4,82.2c0.2-0.6,0.6-1.5,0.9-2.2
							l-2.8,1.7v1.5L417.4,82.2z M416.4,85.4l0.6-1.9l-1.5,0.9v1.7L416.4,85.4z M415.9,86.7l-0.4,0.4v1.5
							C415.7,88,415.7,87.4,415.9,86.7z M415.5,108.7v1.5l0.2-0.2C415.5,109.6,415.5,109.1,415.5,108.7z M415.9,111.1l-0.4,0.2v1.7
							l0.9-0.6C416.2,111.9,416.2,111.5,415.9,111.1z M416.8,113.2l-1.3,0.9v1.5l1.7-1.1C417,114.1,417,113.7,416.8,113.2z
							 M417.4,115.4l-1.9,1.3v1.7l2.6-1.7L417.4,115.4z M418.5,117.6l-3,1.9v1.5l3.7-2.2L418.5,117.6z M419.6,119.7l-4.1,2.4v1.7
							l4.7-2.8L419.6,119.7z M420.7,121.9l-5.2,3v1.5l5.8-3.5C421.1,122.5,420.9,122.3,420.7,121.9z M422,123.8l-6.5,3.7v1.7
							l7.1-4.3C422.4,124.5,422.2,124.2,422,123.8z M423.3,125.8l-7.8,4.5v1.5l8.6-5C423.9,126.4,423.5,126.2,423.3,125.8z
							 M424.8,127.5l-9.3,5.4v1.7l10.1-6C425.4,128.1,425,127.9,424.8,127.5z M427.2,130.3c-0.2-0.4-0.6-0.4-0.9-0.9l-10.8,6.3v1.5
							l11.6-6.7L427.2,130.3L427.2,130.3z M424.6,133.1l-9.1,5.2v1.7l5.2-3.2L424.6,133.1z M415.5,141.1v1.1l2.6-2.6L415.5,141.1z
							 M431.7,144.1h-2.8l-13.4,7.8c0.4,0.2,0.6,0.6,1.1,0.9L431.7,144.1z M426.9,144.1h-2.6l-8.8,5v1.7L426.9,144.1z M422.4,144.1
							h-2.8l-4.1,2.4v1.5L422.4,144.1z M417.7,144.1h-2.2v1.3L417.7,144.1z M438.6,165.7c-8.6-2.6-16.4-6.9-23.1-12.5v12.5H438.6z
							 M415.5,167.8h31.7c-1.7-0.2-3.2-0.9-5-1.3h-26.7V167.8z M416.2,45.1L435,34.3C428,36.9,421.8,40.6,416.2,45.1z M418.5,54.4
							h-2.4l0.9,1.1L418.5,54.4z M432.8,135.2c-0.4-0.2-0.6-0.6-1.1-0.9l-14.9,8.4h2.8L432.8,135.2z M436.2,144.1h-2.6l-16.2,9.3
							c0.4,0.2,0.6,0.6,1.1,0.9L436.2,144.1z M457.8,31.9H455l-37.3,21.6h2.8L457.8,31.9z M423.3,54.4h-2.8l-2.8,1.7l1.1,1.1
							L423.3,54.4z M429.7,132.7l-8,4.7l-3.9,3.7l12.9-7.3C430.4,133.5,430.2,132.9,429.7,132.7z M427.8,54.4h-2.6
							c-1.9,1.1-3.9,2.4-5.8,3.5l1.1,0.9L427.8,54.4z M441,144.1h-2.8l-18.8,10.8c0.4,0.2,0.9,0.6,1.3,0.9L441,144.1z M432.5,54.4
							h-2.8l-8.6,5.2l1.1,0.9L432.5,54.4z M434.9,136.8c-0.4-0.2-0.9-0.6-1.3-0.9l-12.1,6.9h2.6L434.9,136.8z M445.5,144.1h-2.6
							l-21.4,12.3l1.3,0.6L445.5,144.1z M462.3,31.9h-2.6l-37.3,21.6h2.8L462.3,31.9z M437.3,54.4h-2.8l-11.6,6.9l1.1,0.9
							L437.3,54.4z M450.2,144.1h-2.8l-23.5,13.6c0.4,0.2,0.9,0.6,1.3,0.9L450.2,144.1z M428,131.1l-3.7,3.7l4.5-2.8
							C428.4,131.8,428.4,131.4,428,131.1z M441.8,54.4h-2.6L424.6,63l1.1,0.9L441.8,54.4z M437.3,138c-0.4-0.2-1.1-0.6-1.5-0.9
							l-9.7,5.6h2.8L437.3,138z M455,144.1h-2.8L426.1,159c0.4,0.2,1.1,0.6,1.5,0.9L455,144.1z M431.5,63.2c3.5-2.8,7.3-5,11.4-6.7
							l3.7-2.2h-2.8l-17.5,10.4l1.1,0.9L431.5,63.2z M467.1,31.9h-2.8l-37.1,21.6h2.6L467.1,31.9z M490.6,67.1
							c-8-7.8-19-12.7-31.1-12.7s-22.9,5-30.8,12.7l30.8,30.8L490.6,67.1z M428.7,130.3c8,7.8,18.8,12.5,30.8,12.5
							s23.1-4.7,31.1-12.5l-31.1-30.8L428.7,130.3z M459.5,144.1h-2.6l-28.3,16.2c0.4,0.2,0.9,0.6,1.3,0.9L459.5,144.1z
							 M439.7,139.3c-0.4-0.2-1.1-0.4-1.5-0.6l-7.3,4.1h2.6L439.7,139.3z M464.3,144.1h-2.8L431,161.6c0.4,0.2,1.3,0.4,1.7,0.6
							L464.3,144.1z M471.6,31.9H469l-37.3,21.6h2.8L471.6,31.9z M468.8,144.1h-2.6l-32.4,18.5c0.4,0.2,0.9,0.4,1.5,0.6L468.8,144.1
							z M442.3,140.4c-0.4-0.2-1.1-0.4-1.5-0.6l-5.4,3h2.8L442.3,140.4z M476.3,31.9h-2.8l-37.1,21.6h2.6L476.3,31.9z M473.5,144.1
							h-2.8l-34.1,19.6c0.6,0.2,1.1,0.4,1.7,0.6L473.5,144.1z M478.3,144.1h-2.8l-35.8,20.7c0.6,0.2,1.1,0.2,1.7,0.4L478.3,144.1z
							 M445.1,141.5c-0.6-0.2-1.1-0.2-1.7-0.4l-3.2,1.7h2.8L445.1,141.5z M479.6,32.6c-0.6-0.2-1.1-0.2-1.7-0.4L441,53.5h2.8
							L479.6,32.6z M482.8,144.1h-2.6l-37.3,21.6h2.6L482.8,144.1z M448.1,142.6c-0.6-0.2-1.1-0.4-1.7-0.6l-1.5,0.9h2.6L448.1,142.6
							z M482.6,33.7c-0.6-0.2-1.1-0.4-1.7-0.6l-35.2,20.5h2.6L482.6,33.7z M449.8,54.4h-1.3l-1.1,0.6
							C448.1,54.8,448.9,54.6,449.8,54.4z M487.5,144.1h-2.8l-37.3,21.6h2.8L487.5,144.1z M447.4,166.5c0.2,0,0.4,0.2,0.6,0.2
							l0.2-0.2H447.4z M450.2,166.5l-0.6,0.4c0.6,0,1.7,0.4,2.4,0.4l1.1-0.9h-2.9V166.5z M450.2,30.6l1.1-0.4
							C450,30.4,450.2,30.6,450.2,30.6z M485.4,34.7c-0.4-0.2-0.9-0.4-1.5-0.6l-33.6,19.4h2.8L485.4,34.7z M453.7,30l-1.5,0.6h2.8
							l1.7-0.9C455.6,29.8,454.8,30,453.7,30z M492.1,144.1h-2.6l-37.3,21.6h2.8L492.1,144.1z M455,166.5l-1.5,0.9
							c0.9,0,1.7,0.2,2.6,0.2l1.7-1.1L455,166.5L455,166.5z M488,35.8c-0.4-0.2-1.1-0.4-1.5-0.6L455,53.5h2.8L488,35.8z M459.5,29.8
							h-0.9l-1.7,0.9h2.6l1.9-0.9H459.5z M496.8,144.1H494l-37.1,21.6h2.6L496.8,144.1z M459.7,166.5l-1.9,1.1
							c0.6,0,1.1,0.2,1.7,0.2c0.2,0,0.9-0.2,1.1-0.2l1.7-1.1H459.7z M490.6,37.1c-0.4-0.2-1.1-0.6-1.5-0.9l-29.3,17.3h2.6
							L490.6,37.1z M491.2,129.6c7.8-8,12.7-18.8,12.7-30.8s-5-23.1-12.7-31.1l-30.8,31.1L491.2,129.6z M463.2,29.8l-1.7,0.9h2.8
							l1.3-0.6C464.7,30,464,29.8,463.2,29.8z M501.6,144.1h-2.8l-37.3,21.6h2.8L501.6,144.1z M464.3,166.5l-1.7,1.1
							c1.1,0,1.9-0.2,3-0.2l1.5-0.9L464.3,166.5L464.3,166.5z M493.2,38.4c-0.4-0.2-1.1-0.6-1.5-0.9l-27.4,16h2.8L493.2,38.4z
							 M467.3,30l-1.1,0.6h2.6l0.6-0.2C468.8,30.4,467.9,30,467.3,30z M503.9,145.4v-1.3h-0.6l-37.1,21.6h2.6L503.9,145.4z
							 M469,166.5l-1.1,0.6c1.3-0.2,2.4-0.2,3.7-0.4v-0.2L469,166.5L469,166.5z M495.3,39.7c-0.4-0.2-0.9-0.6-1.3-0.9l-25,14.7h2.6
							L495.3,39.7z M469.4,54.4l0.2,0.2l0.2-0.2H469.4z M469.4,142.8h1.3l0.9-0.4C470.9,142.6,470.1,142.6,469.4,142.8z M503.9,148
							v-1.5l-33.2,19.2h2.8L503.9,148z M471.8,54.4l-0.6,0.4c0.6,0.2,1.1,0.4,1.7,0.6l1.5-1.1L471.8,54.4L471.8,54.4z M503.9,29.8
							H472c1.7,0.2,3.2,0.4,5,0.9h27v-0.9H503.9z M477,166.5c-1.7,0.4-3.2,1.1-5,1.3h31.9v-1.3H477z M491.9,131.8l-4.1,2.4
							c-3.5,2.8-7.3,5-11.4,6.7l-3.7,1.9h2.8l17.5-10.1L491.9,131.8z M497.7,41l-1.3-0.6l-22.9,13.2h2.8L497.7,41z M476.3,54.4
							l-2.2,1.5c0.6,0.2,1.1,0.2,1.7,0.4l3.2-1.9H476.3z M503.9,150.8V149l-28.5,16.6h1.3c0.9-0.2,1.9-0.6,2.8-0.9L503.9,150.8z
							 M481.1,54.4c-1.3,0.9-2.8,1.5-4.1,2.4c0.4,0.2,1.1,0.6,1.5,0.9l5.2-3.2h-2.6V54.4z M493.6,133.5l-16.2,9.3h2.6l14.7-8.4
							L493.6,133.5z M499.8,42.5c-0.4-0.2-0.9-0.6-1.3-0.9l-20.3,11.9h2.8L499.8,42.5z M485.6,54.4l-6,3.7c0.4,0.2,1.1,0.4,1.5,0.6
							c2.4-1.5,5-2.8,7.3-4.3H485.6z M480.6,31.9c8.6,2.6,16.6,6.7,23.3,12.3V31.9H480.6z M503.9,153.1c-6.7,5.6-14.7,9.9-23.3,12.5
							h23.3V153.1z M490.3,54.4l-8.4,5c0.4,0.2,1.1,0.6,1.5,0.9l9.7-5.8h-2.8L490.3,54.4L490.3,54.4z M495.3,135.2l-13.4,7.5h2.8
							l11.6-6.7L495.3,135.2z M501.8,44c-0.4-0.2-0.9-0.6-1.3-0.9L483,53.5h2.6L501.8,44z M503.3,152.1l-19.2,11.2
							C491,160.7,497.7,156.8,503.3,152.1z M495.1,54.4l-10.8,6.3c0.4,0.2,0.9,0.6,1.3,0.9l12.1-7.1h-2.6V54.4z M499.6,54.4
							l-13.2,7.8c0.4,0.2,0.6,0.6,1.1,0.9l14.9-8.6L499.6,54.4L499.6,54.4z M497,137l-10.4,5.8h2.6l8.8-5L497,137z M503.7,45.5
							c-0.4-0.2-0.6-0.6-1.1-0.9l-15.1,8.8h2.8L503.7,45.5z M497.7,60l3.7-3.7l-12.9,7.3c0.4,0.2,0.6,0.9,1.1,1.1L497.7,60z
							 M491.2,66.2l3.7-3.7l-4.7,2.8C490.6,65.6,490.8,65.8,491.2,66.2z M498.8,138.5l-7.5,4.3h2.8l5.8-3.2L498.8,138.5z
							 M503.9,61.7v-1.5L492,66.9v0.2c0.2,0.2,0.6,0.4,0.9,0.9L503.9,61.7z M503.9,122.1l-9.5,5.4c-0.9,0.9-1.5,1.9-2.4,2.8v0.2
							l11.9-6.7V122.1z M503.9,48.3v-1.7l-11.6,6.9h2.6L503.9,48.3z M503.9,124.9l-11,6.3l0.9,1.1l10.1-5.8V124.9z M503.9,64.5v-1.7
							l-10.4,6c0.2,0.4,0.6,0.6,0.9,1.1L503.9,64.5z M503.9,127.5l-9.3,5.4l0.9,1.1l8.4-4.7V127.5z M503.9,59.1v-1.7l-5.4,3.2
							l-3.7,3.7L503.9,59.1z M503.9,67.1v-1.5l-8.8,5c0.2,0.4,0.6,0.6,0.9,1.1L503.9,67.1z M500.5,140.2l-4.5,2.6h2.8l2.6-1.5
							L500.5,140.2z M503.9,119.5l-6,3.5c-0.6,0.9-1.1,1.7-1.7,2.6l7.8-4.5L503.9,119.5L503.9,119.5z M503.9,130.3l-7.5,4.3l0.9,1.1
							l6.7-3.9v-1.5L503.9,130.3L503.9,130.3z M503.9,69.9v-1.7l-7.3,4.3c0.2,0.4,0.4,0.6,0.6,1.1L503.9,69.9z M503.9,50.9v-1.5
							l-7.1,4.1h2.8L503.9,50.9z M503.9,72.5V71l-6,3.5c0.2,0.4,0.4,0.6,0.6,1.1L503.9,72.5z M503.9,132.9l-5.8,3.5l0.9,1.1l5-2.8
							v-1.8H503.9z M503.9,75.3v-1.7l-5,2.8l0.6,1.3L503.9,75.3z M503.9,116.7l-3.9,2.2c-0.4,0.9-0.6,1.7-1.1,2.4l5-2.8V116.7z
							 M503.9,135.7l-4.3,2.4l1.1,1.1l3.2-1.9L503.9,135.7L503.9,135.7z M503.9,77.9v-1.5l-3.9,2.2c0.2,0.4,0.4,0.6,0.6,1.1
							L503.9,77.9z M500.7,142.8h2.4l-0.9-0.9L500.7,142.8z M503.9,114.1l-2.2,1.1c-0.2,0.6-0.6,1.5-0.9,2.2l3-1.7v-1.6H503.9z
							 M503.9,56.3v-1.1l-2.8,2.6L503.9,56.3z M503.9,80.7V79l-2.8,1.7c0.2,0.4,0.2,0.6,0.4,1.1L503.9,80.7z M503.9,138.3l-2.6,1.5
							l1.1,0.9l1.5-0.6V138.3z M503.9,53.5V52l-2.4,1.5H503.9z M503.9,83.3v-1.5l-1.9,1.1c0.2,0.4,0.2,0.9,0.4,1.3L503.9,83.3z
							 M503.9,111.3l-1.1,0.6l-0.6,1.9l1.7-0.9V111.3z M503.9,86.1v-1.7l-1.1,0.6c0.2,0.4,0.2,0.9,0.4,1.3L503.9,86.1z M503.1,141.5
							l0.9,0.6V141L503.1,141.5z M503.9,108.7h-0.2c-0.2,0.6-0.2,1.1-0.4,1.7l0.6-0.2V108.7z M503.9,88.7v-1.5l-0.4,0.2
							c0.2,0.4,0.2,0.9,0.2,1.3H503.9z M504.8,31.9v13.4c1.3,1.1,2.6,2.2,3.9,3.5l17-16.8h-20.9L504.8,31.9L504.8,31.9z M504.8,46.6
							v1.1l0.9-0.4C505.4,47,505,46.8,504.8,46.6z M506.3,47.9l-1.5,0.9v1.5l2.6-1.3C507,48.5,506.7,48.1,506.3,47.9z M504.8,51.3
							v1.3l3-2.8L504.8,51.3z M508.9,54.4l-4.1,2.4v1.7l6.9-4.1C511.7,54.4,508.9,54.4,508.9,54.4z M504.8,54.4v1.3
							c0.6-0.4,1.5-0.9,2.2-1.3H504.8z M513,54.8l-8.2,4.7V61l9.1-5.2C513.6,55.4,513.2,55.2,513,54.8z M514.5,56.7l-9.7,5.4v1.7
							l10.4-6C514.9,57.4,514.7,57.2,514.5,56.7z M515.8,58.7l-11,6.3v1.5l11.9-6.7C516.4,59.3,516,59.1,515.8,58.7z M517.1,60.6
							l-12.3,6.9v1.7l13.2-7.5C517.7,61.3,517.3,61,517.1,60.6z M518.4,62.6l-13.6,7.8v1.5l14.2-8.2C518.8,63.2,518.6,63,518.4,62.6
							z M519.7,64.5l-14.9,8.4v1.7l15.5-8.8L519.7,64.5z M520.8,66.7l-16,9.1v1.5l16.6-9.5C521.2,67.3,521,67.1,520.8,66.7z
							 M521.8,68.6l-17,9.7V80l17.5-10.1C522.1,69.5,522.1,69,521.8,68.6z M522.7,70.8l-17.9,10.4v1.5L523.3,72L522.7,70.8z
							 M523.6,72.9l-18.8,10.8v1.7l19.4-11.2L523.6,72.9z M524.4,75.1l-19.6,11.4V88l20.3-11.6L524.4,75.1z M525.3,77.4L504.8,89
							v1.7l20.9-12.1C525.5,78.3,525.5,77.9,525.3,77.4z M525.9,79.6l-21.1,12.3v1.5l21.6-12.3C526.2,80.7,526.2,80,525.9,79.6z
							 M526.6,82l-21.8,12.5v1.7L527,83.5C527,83,526.8,82.4,526.6,82z M527.2,84.3l-22.4,12.9v1.5l22.6-12.9
							C527.4,85.4,527.2,84.8,527.2,84.3z M527.7,86.7l-22.9,13.2v1.7l23.1-13.4C527.9,87.8,527.7,87.1,527.7,86.7z M528.1,89.3
							l-23.3,13.4v1.5l23.3-13.4V89.3z M528.3,91.9l-23.5,13.4v1.7l23.7-13.6C528.5,93,528.3,92.3,528.3,91.9z M528.5,94.5
							l-23.7,13.6v1.5L528.5,96V94.5z M528.5,97.1l-23.7,13.6v1.7l23.7-13.8V97.1z M528.5,99.7l-23.7,13.8v1.5l23.7-13.6V99.7z
							 M528.5,102.5L504.8,116v1.7l23.7-13.6V102.5z M528.3,105.3l-23.5,13.6v1.5l23.3-13.4C528.1,106.3,528.3,105.9,528.3,105.3z
							 M527.9,108.1l-23.1,13.4v1.7l22.9-13.4C527.7,109.1,527.9,108.7,527.9,108.1z M527.4,111.1l-22.6,13.2v1.5l22.4-12.9
							C527.4,112.2,527.2,111.7,527.4,111.1z M526.8,114.1l-22,12.7v1.7l21.6-12.5C526.6,115.4,526.6,114.8,526.8,114.1z
							 M526.2,117.3l-21.4,12.3v1.5l20.7-11.9L526.2,117.3z M525.1,120.6l-20.3,11.6v1.7l19.6-11.2
							C524.6,122.1,524.9,121.2,525.1,120.6z M523.8,124l-19,11v1.5l18.1-10.4C523.1,125.5,523.6,124.7,523.8,124z M522.3,127.7
							l-17.5,9.9v1.7l16.4-9.5C521.6,129.2,521.8,128.3,522.3,127.7z M520.3,131.4l-15.5,9.1v1.5l14.2-8.2
							C519.5,132.9,519.9,132.2,520.3,131.4z M505.7,145.4l-0.9,0.4v1.5l1.7-0.9L505.7,145.4z M508,147.8l-0.6-0.6l-2.6,1.3v1.7
							l2.2-1.3L508,147.8z M525.7,165.7l-17-17c-1.3,1.3-2.6,2.4-3.9,3.5v13.6h20.9V165.7z M516.2,138c0.6-0.9,1.1-1.7,1.7-2.6
							l-12.7,7.3h2.8L516.2,138z M510.8,52.4c-0.2-0.4-0.9-0.6-1.1-1.1l-3.7,2.2h2.8L510.8,52.4z M508,144.1l-1.5,0.9l1.1,0.9
							l3.2-1.7L508,144.1L508,144.1z M508.7,50.3l-1.1,1.1l1.5-0.9L508.7,50.3z M508.7,147.1l1.9-1.9l-2.4,1.3L508.7,147.1z
							 M509.5,49.6c1.3,1.3,2.4,2.6,3.5,3.9h15.5V31.9h-1.3L509.5,49.6z M513,144.1c-1.1,1.3-2.2,2.4-3.5,3.7l17.7,17.9h1.3v-21.6
							L513,144.1L513,144.1z M512.6,142.8c0.9-0.9,1.7-1.7,2.4-2.8l-5,2.8H512.6z M511.7,53.5l-0.2-0.4l-0.6,0.4H511.7z M514.1,54.4
							c7.3,9.1,12.3,20.1,14.5,31.9V54.4H514.1z M528.5,111.1c-2.2,11.9-7.1,22.6-14.5,31.7h14.5V111.1z M528.5,30.6v-0.2l-0.2,0.2
							H528.5z M528.3,166.5l0.2,0.4v-0.4H528.3z"/>
						<path class="st2" d="M688.8,31.9h-11.6v133.7h12.1v0.9h-11.9l8.8,12.1l-1.1,0.4l-8-11v30.6h-1.3v-32.1h-20.9l17,23.5l-0.9,0.6
							l-16.8-22.9v30.8h-0.9v-32.1h-75.5v32.1h-1.3v-32.1h-21.6v32.1H554v-32.1h-14v-0.9h14.2V31.9h-16.6v-1.3h16.6l-6.5-8.6
							l0.9-0.6l5.6,7.5V1.3h0.9v29.1l0.4,0.2h1.3h1.9h2.8h15.1L557.4,4.3l0.9-0.6l18.3,25.2V1.3h1.3v29.1l0.2,0.2h75.3V1.3h0.9v29.3
							h21.6V1.3h1.3v29.3h11.6V31.9z M555.5,32.6l-0.4,0.2v1.5l1.3-0.6L555.5,32.6z M557,34.5l-1.9,1.1v1.5l2.6-1.5L557,34.5z
							 M558.3,36.5l-3.2,1.7v1.5l4.1-2.2L558.3,36.5z M559.6,38.4l-4.5,2.6v1.5l5.4-3L559.6,38.4z M561.1,40.1l-6,3.5v1.5l6.9-3.9
							L561.1,40.1z M562.4,42.1l-7.3,4.3v1.5l8.2-4.7L562.4,42.1z M563.9,44l-8.8,5v1.5l9.5-5.4L563.9,44z M565.2,45.9l-10.1,5.8
							v1.5l11-6.3L565.2,45.9z M566.5,47.7c-3.9,2.2-7.5,4.5-11.4,6.7v1.5l12.3-6.9L566.5,47.7z M568,49.6l-12.9,7.5v1.5l13.8-8
							L568,49.6z M569.3,51.6l-14.2,8.2v1.5l15.1-8.6L569.3,51.6z M570.8,53.5l-15.7,9.1v1.5l16.4-9.5L570.8,53.5z M572.1,55.4
							l-17,9.7v1.5L573,56.5L572.1,55.4z M573.6,57.2L555.1,68v1.5l19.2-11.2L573.6,57.2z M574.9,59.1l-19.8,11.4V72l20.7-11.9
							L574.9,59.1z M576.6,61.7l-0.4-0.6l-21.1,12.3v1.5l21.6-12.5L576.6,61.7L576.6,61.7z M576.6,63.4L555,75.9v1.5l21.6-12.5V63.4
							z M576.6,66.2L555,78.7v1.5l21.6-12.5V66.2z M576.6,68.8L555,81.3v1.5l21.6-12.5V68.8z M576.6,71.6L555,84.1v1.5l21.6-12.5
							V71.6z M576.6,74.2L555,86.7v1.5l21.6-12.5V74.2z M576.6,77L555,89.5V91l21.6-12.5V77z M576.6,79.6L555,92.1v1.5l21.6-12.5
							V79.6z M576.6,82.4L555,94.9v1.5l21.6-12.5V82.4z M576.6,85L555,97.5V99l21.6-12.5V85z M576.6,87.8L555,100.3v1.5l21.6-12.5
							V87.8z M576.6,90.4L555,102.9v1.5l21.6-12.5V90.4z M576.6,93.2L555,105.7v1.5l21.6-12.5V93.2z M576.6,95.8L555,108.3v1.5
							l21.6-12.5V95.8z M576.6,98.6L555,111.1v1.5l21.6-12.5V98.6z M576.6,101.2L555,113.7v1.5l21.6-12.5V101.2z M576.6,104
							L555,116.5v1.5l21.6-12.5V104z M576.6,106.6L555,119.1v1.5l21.6-12.5V106.6z M576.6,109.4L555,121.9v1.5l21.6-12.5V109.4z
							 M576.6,111.9L555,124.4v1.5l21.6-12.5V111.9z M576.6,114.8L555,127.3v1.5l21.6-12.5V114.8z M576.6,117.3L555,129.8v1.5
							l21.6-12.5V117.3z M576.6,120.1L555,132.6v1.5l21.6-12.5V120.1z M576.6,122.7L555,135.2v1.5l21.6-12.5V122.7z M576.6,125.5
							L555.1,138v1.5l21.6-12.5L576.6,125.5L576.6,125.5z M576.6,128.1L555,140.6v1.5l21.6-12.5V128.1z M576.6,130.9L555,143.4v1.5
							l21.6-12.5V130.9z M576.6,133.5L555.1,146v1.5l21.6-12.5L576.6,133.5L576.6,133.5z M576.6,136.3L555,148.8v1.5l21.6-12.5
							V136.3z M576.6,138.9L555,151.4v1.5l21.6-12.5V138.9z M576.6,141.7L555,154.2v1.5l21.6-12.5V141.7z M576.6,144.3L555,156.8
							v1.5l21.6-12.5V144.3z M576.6,147.1L555,159.6v1.5l21.6-12.5V147.1z M576.6,149.7L555,162.2v1.5l21.6-12.5V149.7z M576.6,154
							v-1.5L555.1,165v0.6h1.7L576.6,154z M556.8,31.9l-0.4,0.2l0.9,1.1l2.4-1.3C559.7,31.9,556.8,31.9,556.8,31.9z M561.5,31.9
							l-3.7,1.9l0.9,1.3l5.6-3.2C564.3,31.9,561.5,31.9,561.5,31.9z M576.6,156.6v-1.5l-17.9,10.6h2.8L576.6,156.6z M566.3,31.9
							l-7.1,3.9l0.9,1.1l8.8-5C568.9,31.9,566.3,31.9,566.3,31.9z M570.8,31.9l-10.1,5.8c0.2,0.4,0.4,0.6,0.6,1.1l12.3-6.9H570.8z
							 M576.6,32.6V32h-1.1L562,39.7l0.9,1.1L576.6,32.6z M576.6,35.4v-1.5l-13.2,7.8l0.6,1.1L576.6,35.4z M576.6,159.4v-1.5
							l-13.2,7.8h2.6L576.6,159.4z M576.6,38v-1.5l-11.9,6.9l0.9,1.1L576.6,38z M576.6,40.8v-1.5l-10.6,6l0.9,1.1L576.6,40.8z
							 M576.6,43.4v-1.5l-9.1,5.4l0.9,1.1L576.6,43.4z M576.6,162v-1.5l-8.6,5.2h2.8L576.6,162z M576.6,46.2v-1.5l-7.8,4.5l0.9,1.1
							L576.6,46.2z M576.6,48.8v-1.5l-6.3,3.7l0.6,1.3L576.6,48.8z M576.6,51.6V50l-5,2.8l0.9,1.1L576.6,51.6z M576.6,164.8v-1.5
							l-3.9,2.4h2.6L576.6,164.8z M576.6,54.1v-1.5l-3.7,2.2l0.9,1.1L576.6,54.1z M576.6,56.9v-1.5l-2.2,1.3l0.9,1.1L576.6,56.9z
							 M576.6,59.5V58l-0.9,0.6l0.9,1.1V59.5z M578.4,32.8l-0.4,0.4v1.5l1.3-0.6L578.4,32.8z M579.6,34.7l-1.7,1.1v1.7l2.6-1.7
							L579.6,34.7z M581.2,36.7l-3.2,1.9v1.5l3.9-2.4L581.2,36.7z M582.4,38.6l-4.5,2.6v1.7l5.4-3.2L582.4,38.6z M583.7,40.6
							l-5.8,3.5v1.5l6.7-3.9L583.7,40.6z M585.3,42.3l-7.3,4.3v1.7l8.2-5L585.3,42.3z M586.5,44.2l-8.6,5.2v1.5l9.5-5.6L586.5,44.2z
							 M588.1,46.2L577.9,52v1.7l11-6.5L588.1,46.2z M589.4,48.1L578,54.8v1.5l12.3-7.1L589.4,48.1z M590.9,49.8L578,57.3V59l13.6-8
							L590.9,49.8z M593,52.9l-0.9-1.1l-14.2,8.4v1.1l0.2,0.2L593,52.9z M652.8,165.7l-0.2-0.4h-0.2l-0.6-0.9h0.2l-0.9-1.1l-0.6-0.6
							v-0.2l-0.6-1.1l-0.2,0.2l-0.4-0.9l-0.9-1.1l-0.6-0.9h0.2l-0.9-1.1l-0.6-0.9l-0.9-1.1L645,155l0.2-0.2l-0.9-1.1l-0.6-0.6
							l-0.6-1.3l-0.2,0.2l-0.4-0.9l-0.9-1.1l-0.6-0.9h0.2l-0.9-1.1h-0.2l-0.4-0.9l-0.9-1.1l-0.6-0.6l0.2-0.2l-0.9-1.1l-0.6-0.6
							l-0.6-1.3l-0.2,0.2l-0.4-0.9l-0.9-1.1l-0.6-0.9l-0.6-1.1h-0.2l-0.4-0.9l-0.9-1.1l-0.6-0.6l0.2-0.2l-0.9-1.1l-0.6-0.6l-0.9-1.1
							l-0.4-0.9l-0.9-1.1l-0.6-0.9l-0.6-1.1H626l-0.4-0.9l-0.9-1.1l-0.6-0.6l-0.6-1.1l-0.6-0.9l-0.9-1.1l-0.6-0.9h0.2l-0.9-1.1
							l-0.6-0.9l-0.9-1.1l-0.4-0.6v-0.2l-0.9-1.1l-0.6-0.6l-0.6-1.1h-0.2l-0.4-0.9l-0.9-1.1l-0.6-0.9h0.2l-0.9-1.1l-0.6-0.9
							l-0.9-1.1l-0.4-0.6l-0.9-1.3l-0.6-0.6l-0.6-1.1h-0.2l-0.4-0.9l-0.9-1.1l-0.6-0.9l-0.6-1.1l-0.6-0.9l-0.9-1.1l-0.4-0.6L604,99
							l-0.6-0.9l-0.9-1.1l-0.4-0.9l-0.9-1.1l-0.4-0.6l-22.9-31.3v102.4h74.9L652.8,165.7L652.8,165.7z M594.3,54.8l-0.9-1.1
							l-14.9,8.6l0.9,1.1L594.3,54.8z M578.8,31.9l74.6,101.8V31.9H578.8z M595.8,56.7l-0.9-1.1L580,64.2l0.6,1.1L595.8,56.7z
							 M597.1,58.7l-0.9-1.1l-14.9,8.6l0.9,1.1L597.1,58.7z M598.4,60.6l-0.6-1.3l-15.1,8.6l0.9,1.3L598.4,60.6z M599.9,62.3
							l-0.9-1.1l-14.9,8.6L585,71L599.9,62.3z M601.2,64.3l-0.6-1.1l-15.1,8.6l0.9,1.1L601.2,64.3z M602.7,66.2l-0.9-1.1L587,73.8
							l0.6,1.1L602.7,66.2z M604,68.2l-0.9-1.1l-14.9,8.6l0.9,1.1L604,68.2z M605.5,69.9l-0.9-1.1l-14.9,8.6l0.6,1.3L605.5,69.9z
							 M606.8,71.8l-0.9-1.1L591,79.3l0.9,1.1L606.8,71.8z M608.1,73.8l-0.6-1.1l-15.1,8.6l0.9,1.1L608.1,73.8z M609.6,75.7
							l-0.9-1.1l-14.9,8.6l0.9,1.1L609.6,75.7z M610.9,77.7l-0.9-1.3l-14.9,8.8l0.9,1.1L610.9,77.7z M612.4,79.4l-0.9-1.1l-14.9,8.6
							l0.6,1.1L612.4,79.4z M613.7,81.3l-0.9-1.1L598,88.9l0.9,1.1L613.7,81.3z M615,83.3l-0.6-1.1l-14.9,8.6l0.6,1.1L615,83.3z
							 M616.5,85.2l-0.9-1.1l-14.9,8.6l0.9,1.1L616.5,85.2z M617.8,86.9l-0.6-1.1l-15.1,8.6l0.9,1.3L617.8,86.9z M619.3,88.9
							l-0.9-1.1l-14.9,8.6l0.9,1.1L619.3,88.9z M620.6,90.8l-0.9-1.1l-14.9,8.6l0.9,1.1L620.6,90.8z M622.1,92.8l-0.9-1.1l-14.9,8.6
							l0.6,1.1L622.1,92.8z M623.4,94.7l-0.9-1.3l-14.9,8.8l0.9,1.1L623.4,94.7z M624.7,96.4l-0.6-1.1L609,104l0.9,1.1L624.7,96.4z
							 M626.2,98.4l-0.9-1.1l-14.9,8.6l0.9,1.1L626.2,98.4z M627.5,100.3l-0.6-1.1l-15.1,8.6l0.9,1.1L627.5,100.3z M629,102.2
							l-0.9-1.1l-14.9,8.6l0.6,1.1L629,102.2z M630.3,104l-0.9-1.1l-14.9,8.6l0.9,1.3L630.3,104z M631.8,105.9l-0.9-1.1l-14.9,8.6
							l0.6,1.1L631.8,105.9z M633.1,107.8l-0.9-1.1l-14.9,8.6l0.9,1.1L633.1,107.8z M634.4,109.8l-0.6-1.1l-15.1,8.6l0.9,1.1
							L634.4,109.8z M635.9,111.7l-0.9-1.3l-14.9,8.8l0.9,1.1L635.9,111.7z M637.2,113.5l-0.9-1.1l-14.9,8.6l0.9,1.1L637.2,113.5z
							 M638.7,115.4l-0.9-1.1l-14.9,8.6l0.6,1.1L638.7,115.4z M640,117.3l-0.9-1.1l-14.9,8.6l0.9,1.1L640,117.3z M641.3,119.3
							l-0.6-1.1l-14.9,8.6l0.6,1.1L641.3,119.3z M642.8,121.2l-0.9-1.3l-14.9,8.6l0.9,1.3L642.8,121.2z M644.1,122.9l-0.6-1.1
							l-15.1,8.6l0.9,1.1L644.1,122.9z M645.6,124.9l-0.9-1.1l-14.9,8.6l0.9,1.1L645.6,124.9z M646.9,126.8l-0.9-1.1l-14.9,8.6
							l0.9,1.1L646.9,126.8z M648.4,128.8l-0.9-1.1l-14.9,8.6l0.6,1.1L648.4,128.8z M649.7,130.5l-0.9-1.1L634,138l0.9,1.3
							L649.7,130.5z M651,132.4l-0.6-1.1l-15.1,8.6c0.2,0.4,0.6,0.6,0.9,1.1L651,132.4z M652.5,134.4l-0.9-1.1l-14.9,8.6l0.9,1.1
							L652.5,134.4z M653.4,136.5v-1.1l-0.4-0.2l-14.9,8.6l0.9,1.1L653.4,136.5z M653.4,139.3v-1.5l-13.8,8l0.6,1.1L653.4,139.3z
							 M653.4,141.9v-1.5l-12.5,7.1l0.9,1.1L653.4,141.9z M653.4,144.7v-1.5l-11,6.3l0.6,1.1L653.4,144.7z M653.4,147.3v-1.5
							l-9.7,5.6l0.9,1.1L653.4,147.3z M653.4,150.1v-1.5l-8.4,4.7l0.9,1.1L653.4,150.1z M653.4,152.7v-1.5l-6.9,3.9l0.9,1.3
							C649.3,155.3,651.5,153.8,653.4,152.7z M653.4,155.5V154l-5.6,3l0.9,1.1L653.4,155.5z M653.4,158.1v-1.5l-4.1,2.4l0.6,1.1
							L653.4,158.1z M653.4,160.9v-1.5l-2.8,1.5l0.9,1.1L653.4,160.9z M653.4,163.5V162l-1.3,0.9l0.6,1.1L653.4,163.5z M675.8,31.9
							h-2.6l-19,10.8v1.5L675.8,31.9z M668.5,31.9l-14.2,8.2v1.5l17-9.7C671.3,31.9,668.5,31.9,668.5,31.9z M664,31.9l-9.7,5.4v1.5
							l12.3-6.9H664z M659.2,31.9l-5,2.8v1.5l7.8-4.3C662,31.9,659.2,31.9,659.2,31.9z M654.7,31.9h-0.4v1.5l3-1.5
							C657.3,31.9,654.7,31.9,654.7,31.9z M675.8,34.5V33l-21.6,12.5V47L675.8,34.5z M675.8,37.3v-1.7l-21.6,12.5v1.5L675.8,37.3z
							 M675.8,39.9v-1.5l-21.6,12.5v1.5L675.8,39.9z M675.8,42.7V41l-21.6,12.5V55L675.8,42.7z M675.8,45.3v-1.5l-21.6,12.5v1.5
							L675.8,45.3z M675.8,48.1v-1.7l-21.6,12.5v1.5L675.8,48.1z M675.8,50.7v-1.5l-21.6,12.5v1.5L675.8,50.7z M675.8,53.5v-1.7
							l-21.6,12.5v1.5L675.8,53.5z M675.8,56.1v-1.5l-21.6,12.5v1.5L675.8,56.1z M675.8,58.9v-1.7l-21.6,12.5v1.5L675.8,58.9z
							 M675.8,61.5V60l-21.6,12.5V74L675.8,61.5z M675.8,64.3v-1.7l-21.6,12.5v1.5L675.8,64.3z M675.8,66.9v-1.5l-21.6,12.5v1.5
							L675.8,66.9z M675.8,69.7V68l-21.6,12.5V82L675.8,69.7z M675.8,72.3v-1.5l-21.6,12.5v1.5L675.8,72.3z M675.8,75.1v-1.7
							l-21.6,12.5v1.5L675.8,75.1z M675.8,77.7v-1.5l-21.6,12.5v1.5L675.8,77.7z M675.8,80.5v-1.7l-21.6,12.5v1.5L675.8,80.5z
							 M675.8,83v-1.5L654.3,94v1.5L675.8,83z M675.8,85.8v-1.7l-21.6,12.5v1.5L675.8,85.8z M675.8,88.4v-1.5l-21.6,12.5v1.5
							L675.8,88.4z M675.8,91.2v-1.7L654.3,102v1.5L675.8,91.2z M675.8,93.8v-1.5l-21.6,12.5v1.5L675.8,93.8z M675.8,96.6v-1.7
							l-21.6,12.5v1.5L675.8,96.6z M675.8,99.2v-1.5l-21.6,12.5v1.5L675.8,99.2z M675.8,102v-1.7l-21.6,12.5v1.5L675.8,102z
							 M675.8,104.6v-1.5l-21.6,12.5v1.5L675.8,104.6z M675.8,107.4v-1.7l-21.6,12.5v1.5L675.8,107.4z M675.8,110v-1.5L654.3,121
							v1.5L675.8,110z M675.8,112.8v-1.7l-21.6,12.5v1.5L675.8,112.8z M675.8,115.4v-1.5l-21.6,12.5v1.5L675.8,115.4z M675.8,118.2
							v-1.7L654.3,129v1.5L675.8,118.2z M675.8,120.8v-1.5l-21.6,12.5v1.5L675.8,120.8z M675.8,123.6v-1.7l-21.6,12.5v0.6l0.6,0.6
							L675.8,123.6z M654.5,137l-0.2,0.2v1.5l1.1-0.4L654.5,137z M655.8,138.9l-1.5,0.9v1.5l2.4-1.3L655.8,138.9z M657.3,140.8
							l-3,1.7v1.5l3.9-2.2L657.3,140.8z M658.6,142.8l-4.3,2.4v1.5l5.2-2.8L658.6,142.8z M660.1,144.7l-5.8,3.2v1.5l6.5-3.7
							L660.1,144.7z M661.4,146.5l-7.1,4.1v1.5l8-4.5L661.4,146.5z M662.7,148.4l-8.4,5v1.5l9.3-5.4L662.7,148.4z M664.2,150.3
							l-9.9,5.6v1.5l10.8-6L664.2,150.3z M665.5,152.3l-11.2,6.5v1.5l12.1-6.9L665.5,152.3z M667,154l-12.7,7.3v1.5l13.4-7.5
							L667,154z M669.2,157l-0.9-1.1l-14,8.2v1.5h0.2L669.2,157z M675.8,126.2v-1.5l-20.5,11.9l0.9,1.1L675.8,126.2z M670.4,159
							l-0.6-1.1l-13.4,7.8h2.8L670.4,159z M675.8,129v-1.7l-19,11.2l0.6,1.1L675.8,129z M675.8,131.6v-1.5l-17.7,10.1l0.9,1.3
							L675.8,131.6z M675.8,134.4v-1.7l-16.2,9.5l0.6,1.1L675.8,134.4z M675.8,137v-1.5l-14.9,8.6l0.9,1.1L675.8,137z M672,160.9
							l-0.9-1.1l-9.9,5.8h2.6L672,160.9z M675.8,139.8V138l-13.6,8l0.9,1.1L675.8,139.8z M675.8,142.4v-1.5l-12.1,7.1l0.9,1.1
							L675.8,142.4z M675.8,145.2v-1.7l-10.8,6.3l0.9,1.3L675.8,145.2z M673.3,162.8l-0.9-1.1l-6.7,3.9h2.8L673.3,162.8z
							 M675.8,147.8v-1.5l-9.3,5.4l0.6,1.1L675.8,147.8z M675.8,150.6v-1.7l-8,4.7l0.9,1.1C671.1,153.1,673.5,152.1,675.8,150.6z
							 M675.8,153.1v-1.5l-6.7,3.9l0.9,1.1L675.8,153.1z M674.8,164.8l-0.9-1.3l-3.5,2.2h2.8L674.8,164.8z M675.8,155.9v-1.7
							l-5.2,3.2l0.9,1.1L675.8,155.9z M675.8,158.5V157l-3.9,2.2l0.9,1.1C673.9,159.6,674.8,159.2,675.8,158.5z M675.8,161.3v-1.7
							c-0.9,0.4-1.5,1.1-2.4,1.5l0.6,1.1L675.8,161.3z M675.8,163.9v-1.5l-1.1,0.6l0.9,1.1L675.8,163.9z"/>
					</g>
				</g>
			</g>
		</g>
	</g>
</g>
</svg>
