<?xml version="1.0" encoding="utf-8"?>
<!-- Generator: Adobe Illustrator 21.0.0, SVG Export Plug-In . SVG Version: 6.00 Build 0)  -->
<svg version="1.1" id="Layer_1" xmlns="http://www.w3.org/2000/svg" xmlns:xlink="http://www.w3.org/1999/xlink" x="0px" y="0px"
	 viewBox="0 0 491.9 584.6" style="enable-background:new 0 0 491.9 584.6;" xml:space="preserve">
<style type="text/css">
	.st0{display:none;}
	.st1{display:inline;fill:#398484;}
	.st2{font-family:'MuseoSans-500';}
	.st3{font-size:103.43px;}
	.st4{letter-spacing:-1;}
	.st5{letter-spacing:-4;}
	.st6{letter-spacing:-10;}
	.st7{letter-spacing:-6;}
	.st8{display:inline;fill:#B4B4C6;}
	.st9{font-size:150.84px;}
	.st10{letter-spacing:-8;}
	.st11{display:inline;fill:#3D3D44;}
	.st12{font-family:'MuseoSans-300';}
	.st13{font-size:21.39px;}
	.st14{enable-background:new    ;}
	.st15{fill:#398484;}
	.st16{fill:#B4B4C6;}
	.st17{fill:#3D3D44;}
</style>
<g class="st0">
	<text transform="matrix(1 0 0 1 -6.29 268.77)" class="st1 st2 st3 st4">EX</text>
	<text transform="matrix(1 0 0 1 112.14 268.77)" class="st1 st2 st3 st5">P</text>
	<text transform="matrix(1 0 0 1 170.79 268.77)" class="st1 st2 st3">L</text>
	<text transform="matrix(1 0 0 1 224.47 268.77)" class="st1 st2 st3 st4">A</text>
	<text transform="matrix(1 0 0 1 287.35 268.77)" class="st1 st2 st3 st6">IN</text>
	<text transform="matrix(1 0 0 1 375.0601 268.77)" class="st1 st2 st3 st7">E</text>
	<text transform="matrix(1 0 0 1 428.12 268.77)" class="st1 st2 st3 st4">R</text>
	<text transform="matrix(1 0 0 1 0.37 382.61)" class="st8 st2 st9 st10">VID</text>
	<text transform="matrix(1 0 0 1 224.06 382.61)" class="st8 st2 st9 st10">E</text>
	<text transform="matrix(1 0 0 1 300.69 382.61)" class="st8 st2 st9 st10">OS</text>
	<text transform="matrix(1 0 0 1 2.65 188.54)" class="st11 st12 st13">P</text>
	<text transform="matrix(1 0 0 1 15.44 188.54)" class="st11 st12 st13">r</text>
	<text transform="matrix(1 0 0 1 22.93 188.54)" class="st11 st12 st13">omote </text>
	<text transform="matrix(1 0 0 1 93.9 188.54)" class="st11 st12 st13 st4">Y</text>
	<text transform="matrix(1 0 0 1 104.91 188.54)" class="st11 st12 st13">our Business Th</text>
	<text transform="matrix(1 0 0 1 259.08 188.54)" class="st11 st12 st13">r</text>
	<text transform="matrix(1 0 0 1 266.57 188.54)" class="st11 st12 st13">ough Anim</text>
	<text transform="matrix(1 0 0 1 373.77 188.54)" class="st11 st12 st13">a</text>
	<text transform="matrix(1 0 0 1 384.83 188.54)" class="st11 st12 st13">ted Video!</text>
</g>
<g>
	<g class="st14">
		<path class="st15" d="M3.6,195.8H46v8.9H13.9v22.9H40v8.9H13.9v23.5h33.9v8.9H3.6V195.8z"/>
		<path class="st15" d="M76.3,231.1l-21.6-35.4h11.8L78,215.5c2.3,3.9,4.7,8.7,4.7,8.7h0.2c0,0,2.1-4.7,4.4-8.7l11.5-19.8h11.8
			L89,231.1l23.1,37.6h-11.6l-13.2-22.4c-2.4-4.1-4.7-8.4-4.7-8.4h-0.2c0,0-2,4.3-4.3,8.4l-13.2,22.4H53.3L76.3,231.1z"/>
	</g>
	<g class="st14">
		<path class="st15" d="M122.1,195.8h26.7c13.3,0,23,9,23,22.9c0,13.9-9.6,23.2-23,23.2h-16.4v27h-10.2V195.8z M147.1,232.9
			c8.8,0,14.2-5.5,14.2-14.3c0-8.8-5.4-14-14.1-14h-14.9v28.2H147.1z"/>
	</g>
	<g class="st14">
		<path class="st15" d="M180.7,195.8H191v64.1h32.7v8.9h-42.9V195.8z"/>
	</g>
	<g class="st14">
		<path class="st15" d="M270.6,247.8h-27.5l-7.2,21h-10.5l26.3-73h10.8l26.3,73h-10.7L270.6,247.8z M256.8,205.8
			c0,0-1.7,6.6-2.9,10.3l-8.2,23.2h22.1l-8.1-23.2c-1.2-3.7-2.8-10.3-2.8-10.3H256.8z"/>
	</g>
	<g class="st14">
		<path class="st15" d="M297.3,195.8h10.2v73h-10.2V195.8z"/>
		<path class="st15" d="M317,195.8h10.1l32.5,47.5c2.7,3.9,6.1,10.5,6.1,10.5h0.2c0,0-0.7-6.5-0.7-10.5v-47.5h10.2v73h-10
			l-32.6-47.4c-2.7-4-6.1-10.7-6.1-10.7h-0.2c0,0,0.7,6.5,0.7,10.7v47.4H317V195.8z"/>
	</g>
	<g class="st14">
		<path class="st15" d="M385,195.8h42.4v8.9h-32.2v22.9h26.2v8.9h-26.2v23.5h33.9v8.9H385V195.8z"/>
	</g>
	<g class="st14">
		<path class="st15" d="M438,195.8h22.3c7.7,0,10.9,0.6,13.7,1.7c7.4,2.8,12.3,10.1,12.3,19.8c0,9.3-5.2,17.2-13.1,19.8v0.2
			c0,0,0.8,0.9,2.2,3.3l15.5,28.3h-11.6l-15.4-29.1h-15.6v29.1H438V195.8z M463,230.8c8,0,12.9-5.1,12.9-13.2
			c0-5.4-2.1-9.2-5.8-11.3c-2-1-4.3-1.7-10-1.7h-11.8v26.2H463z"/>
	</g>
	<g class="st14">
		<path class="st16" d="M1.3,276.1h16.1l26.4,75.3c2,5.7,4.1,14.6,4.1,14.6h0.3c0,0,2.1-8.9,4.1-14.6L79,276.1h15.8L55.6,382.6H40.6
			L1.3,276.1z"/>
		<path class="st16" d="M101.3,276.1h14.9v106.5h-14.9V276.1z"/>
		<path class="st16" d="M136.3,276.1h35.3c32.6,0,54,19.5,54,53.1c0,33.8-21.4,53.4-54,53.4h-35.3V276.1z M170.5,369.6
			c24,0,39.7-14.2,39.7-40.4c0-26.1-15.8-40.1-39.7-40.1h-19.3v80.5H170.5z"/>
	</g>
	<g class="st14">
		<path class="st16" d="M238.5,276.1h61.8v13h-46.9v33.3h38.2v13h-38.2v34.2h49.5v13h-64.4V276.1z"/>
	</g>
	<g class="st14">
		<path class="st16" d="M362.7,274.3c30.8,0,54.6,23.7,54.6,54.3c0,31.4-23.8,55.8-54.6,55.8s-54.8-24.4-54.8-55.8
			C307.9,298,331.9,274.3,362.7,274.3z M362.7,370.7c21.7,0,39.2-18.1,39.2-42.1c0-23.2-17.5-40.7-39.2-40.7s-39.4,17.5-39.4,40.7
			C323.3,352.6,341,370.7,362.7,370.7z"/>
		<path class="st16" d="M430.4,359.1c0,0,11.3,11.5,27.1,11.5c10,0,18.4-5.6,18.4-15.7c0-23.1-51.6-18.1-51.6-50.8
			c0-16.6,14.3-29.7,34.4-29.7c19.8,0,30.2,10.7,30.2,10.7l-6.8,12.4c0,0-9.8-9.2-23.4-9.2c-11.3,0-19.3,7.1-19.3,15.5
			c0,22,51.6,16.1,51.6,50.7c0,16.4-12.7,30-33.8,30c-22.6,0-35.3-14-35.3-14L430.4,359.1z"/>
	</g>
	<g class="st14">
		<path class="st17" d="M4.8,173.5H10c2.7,0,4.6,1.8,4.6,4.5c0,2.8-1.9,4.6-4.6,4.6H6.3v5.9H4.8V173.5z M9.8,181.3
			c2,0,3.3-1.2,3.3-3.3c0-2-1.3-3.2-3.3-3.2H6.3v6.5H9.8z"/>
	</g>
	<g class="st14">
		<path class="st17" d="M17.2,177.8h1.4v1.9c0,0.5,0,0.9,0,0.9h0c0.5-1.6,1.7-2.9,3.4-2.9c0.3,0,0.6,0.1,0.6,0.1v1.4
			c0,0-0.3,0-0.5,0c-1.5,0-2.7,1.2-3.1,2.8c-0.2,0.7-0.3,1.4-0.3,2.1v4.5h-1.5V177.8z"/>
	</g>
	<g class="st14">
		<path class="st17" d="M29.6,177.5c3.1,0,5.7,2.4,5.7,5.6c0,3.3-2.5,5.7-5.7,5.7c-3.1,0-5.7-2.4-5.7-5.7
			C23.9,179.9,26.4,177.5,29.6,177.5z M29.6,187.5c2.3,0,4.2-1.9,4.2-4.4c0-2.4-1.9-4.3-4.2-4.3c-2.3,0-4.2,1.8-4.2,4.3
			C25.4,185.6,27.3,187.5,29.6,187.5z"/>
		<path class="st17" d="M38,177.8h1.4v1.6c0,0.5,0,0.9,0,0.9h0c0.5-1.5,2.2-2.7,3.9-2.7c2,0,3,0.9,3.3,2.7h0c0.6-1.5,2.1-2.7,4-2.7
			c2.6,0,3.6,1.5,3.6,4.2v6.8h-1.5v-6.5c0-1.8-0.4-3.2-2.3-3.2c-1.6,0-3,1.5-3.4,3c-0.1,0.5-0.2,1-0.2,1.6v5.1h-1.5v-6.5
			c0-1.6-0.2-3.2-2.3-3.2c-1.8,0-3.1,1.5-3.5,3.2c-0.1,0.4-0.1,0.9-0.1,1.4v5.1H38V177.8z"/>
		<path class="st17" d="M62.5,177.5c3.1,0,5.7,2.4,5.7,5.6c0,3.3-2.5,5.7-5.7,5.7c-3.1,0-5.7-2.4-5.7-5.7
			C56.8,179.9,59.3,177.5,62.5,177.5z M62.5,187.5c2.3,0,4.2-1.9,4.2-4.4c0-2.4-1.9-4.3-4.2-4.3c-2.3,0-4.2,1.8-4.2,4.3
			C58.3,185.6,60.2,187.5,62.5,187.5z"/>
		<path class="st17" d="M71.3,179.1h-1.4v-1.2h1.4v-3.1h1.4v3.1h2.7v1.2h-2.7v5.3c0,2.5,1.6,2.8,2.4,2.8c0.3,0,0.5,0,0.5,0v1.3
			c0,0-0.2,0-0.6,0c-1.2,0-3.7-0.4-3.7-4V179.1z"/>
		<path class="st17" d="M82.6,177.5c3,0,4.5,2.3,4.5,5c0,0.3,0,0.7,0,0.7h-8.3c0.1,2.8,1.9,4.3,4.2,4.3c2,0,3.3-1.3,3.3-1.3l0.7,1.1
			c0,0-1.6,1.5-4,1.5c-3.2,0-5.6-2.3-5.6-5.6C77.3,179.6,79.7,177.5,82.6,177.5z M85.6,182c-0.1-2.2-1.5-3.3-3.1-3.3
			c-1.8,0-3.4,1.1-3.7,3.3H85.6z"/>
	</g>
	<g class="st14">
		<path class="st17" d="M99.3,182.1l-5.1-8.6h1.7l3.2,5.5c0.4,0.8,0.9,1.8,0.9,1.8h0c0,0,0.4-1,0.9-1.8l3.2-5.5h1.7l-5,8.6v6.5h-1.5
			V182.1z"/>
	</g>
	<g class="st14">
		<path class="st17" d="M111.6,177.5c3.1,0,5.7,2.4,5.7,5.6c0,3.3-2.5,5.7-5.7,5.7c-3.1,0-5.7-2.4-5.7-5.7
			C105.9,179.9,108.4,177.5,111.6,177.5z M111.6,187.5c2.3,0,4.2-1.9,4.2-4.4c0-2.4-1.9-4.3-4.2-4.3c-2.3,0-4.2,1.8-4.2,4.3
			C107.4,185.6,109.3,187.5,111.6,187.5z"/>
		<path class="st17" d="M119.8,177.8h1.5v6.5c0,1.7,0.3,3.2,2.3,3.2c2.5,0,4-2.2,4-4.5v-5.2h1.5v10.8h-1.4v-1.6c0-0.5,0-0.9,0-0.9h0
			c-0.4,1-1.8,2.7-4.2,2.7c-2.5,0-3.6-1.4-3.6-4.2V177.8z"/>
		<path class="st17" d="M132.5,177.8h1.4v1.9c0,0.5,0,0.9,0,0.9h0c0.5-1.6,1.7-2.9,3.4-2.9c0.3,0,0.6,0.1,0.6,0.1v1.4
			c0,0-0.3,0-0.5,0c-1.5,0-2.7,1.2-3.1,2.8c-0.2,0.7-0.3,1.4-0.3,2.1v4.5h-1.5V177.8z"/>
		<path class="st17" d="M146.3,173.5h5.1c2.4,0,4.1,1.4,4.1,3.8c0,1.6-0.7,2.7-1.9,3.3v0c1.5,0.4,2.5,1.9,2.5,3.7
			c0,2.7-2,4.2-4.5,4.2h-5.3V173.5z M151.5,180c1.5,0,2.5-1.1,2.5-2.6c0-1.5-1-2.6-2.6-2.6h-3.6v5.2H151.5z M151.7,187.2
			c1.8,0,3-1.1,3-2.9s-1.2-3-3-3h-3.8v5.9H151.7z"/>
		<path class="st17" d="M159.2,177.8h1.5v6.5c0,1.7,0.3,3.2,2.3,3.2c2.5,0,4-2.2,4-4.5v-5.2h1.5v10.8H167v-1.6c0-0.5,0-0.9,0-0.9h0
			c-0.4,1-1.8,2.7-4.2,2.7c-2.5,0-3.6-1.4-3.6-4.2V177.8z"/>
		<path class="st17" d="M171.8,186.2c0,0,1.2,1.3,3.2,1.3c1.2,0,2.2-0.6,2.2-1.7c0-2.4-5.8-1.8-5.8-5.3c0-1.9,1.7-3,3.7-3
			c2.3,0,3.3,1.2,3.3,1.2l-0.7,1.1c0,0-0.9-1-2.7-1c-1.1,0-2.1,0.5-2.1,1.7c0,2.4,5.8,1.7,5.8,5.3c0,1.8-1.5,3-3.7,3
			c-2.6,0-4-1.6-4-1.6L171.8,186.2z"/>
		<path class="st17" d="M181.3,173.5h1.5v1.8h-1.5V173.5z M181.4,177.8h1.5v10.8h-1.5V177.8z"/>
		<path class="st17" d="M186.3,177.8h1.4v1.6c0,0.5,0,0.9,0,0.9h0c0.4-1,1.8-2.7,4.3-2.7c2.7,0,3.6,1.5,3.6,4.2v6.8h-1.5v-6.5
			c0-1.7-0.3-3.2-2.3-3.2c-1.8,0-3.4,1.3-3.9,3c-0.1,0.4-0.2,0.9-0.2,1.5v5.2h-1.5V177.8z"/>
		<path class="st17" d="M203.6,177.5c3,0,4.5,2.3,4.5,5c0,0.3,0,0.7,0,0.7h-8.3c0.1,2.8,1.9,4.3,4.2,4.3c2,0,3.3-1.3,3.3-1.3
			l0.7,1.1c0,0-1.6,1.5-4,1.5c-3.2,0-5.6-2.3-5.6-5.6C198.3,179.6,200.7,177.5,203.6,177.5z M206.6,182c-0.1-2.2-1.5-3.3-3.1-3.3
			c-1.8,0-3.4,1.1-3.7,3.3H206.6z"/>
		<path class="st17" d="M210.7,186.2c0,0,1.2,1.3,3.2,1.3c1.2,0,2.2-0.6,2.2-1.7c0-2.4-5.8-1.8-5.8-5.3c0-1.9,1.7-3,3.7-3
			c2.3,0,3.3,1.2,3.3,1.2l-0.7,1.1c0,0-0.9-1-2.7-1c-1.1,0-2.1,0.5-2.1,1.7c0,2.4,5.8,1.7,5.8,5.3c0,1.8-1.5,3-3.7,3
			c-2.6,0-4-1.6-4-1.6L210.7,186.2z"/>
		<path class="st17" d="M220.2,186.2c0,0,1.2,1.3,3.2,1.3c1.2,0,2.2-0.6,2.2-1.7c0-2.4-5.8-1.8-5.8-5.3c0-1.9,1.7-3,3.7-3
			c2.3,0,3.3,1.2,3.3,1.2l-0.7,1.1c0,0-0.9-1-2.7-1c-1.1,0-2.1,0.5-2.1,1.7c0,2.4,5.8,1.7,5.8,5.3c0,1.8-1.5,3-3.7,3
			c-2.6,0-4-1.6-4-1.6L220.2,186.2z"/>
		<path class="st17" d="M239.3,174.8h-5.4v-1.3h12.3v1.3h-5.4v13.7h-1.5V174.8z"/>
		<path class="st17" d="M248.1,173.5h1.5v5.8c0,0.5,0,0.9,0,0.9h0c0.4-1,1.8-2.7,4.3-2.7c2.7,0,3.6,1.5,3.6,4.2v6.8H256v-6.5
			c0-1.7-0.3-3.2-2.3-3.2c-1.8,0-3.4,1.3-3.9,3.1c-0.1,0.4-0.2,0.9-0.2,1.4v5.2h-1.5V173.5z"/>
	</g>
	<g class="st14">
		<path class="st17" d="M260.8,177.8h1.4v1.9c0,0.5,0,0.9,0,0.9h0c0.5-1.6,1.7-2.9,3.4-2.9c0.3,0,0.6,0.1,0.6,0.1v1.4
			c0,0-0.3,0-0.5,0c-1.5,0-2.7,1.2-3.1,2.8c-0.2,0.7-0.3,1.4-0.3,2.1v4.5h-1.5V177.8z"/>
	</g>
	<g class="st14">
		<path class="st17" d="M273.2,177.5c3.1,0,5.7,2.4,5.7,5.6c0,3.3-2.5,5.7-5.7,5.7c-3.1,0-5.7-2.4-5.7-5.7
			C267.5,179.9,270.1,177.5,273.2,177.5z M273.2,187.5c2.3,0,4.2-1.9,4.2-4.4c0-2.4-1.9-4.3-4.2-4.3c-2.3,0-4.2,1.8-4.2,4.3
			C269,185.6,270.9,187.5,273.2,187.5z"/>
		<path class="st17" d="M281.5,177.8h1.5v6.5c0,1.7,0.3,3.2,2.3,3.2c2.5,0,4-2.2,4-4.5v-5.2h1.5v10.8h-1.4v-1.6c0-0.5,0-0.9,0-0.9h0
			c-0.4,1-1.8,2.7-4.2,2.7c-2.5,0-3.6-1.4-3.6-4.2V177.8z"/>
		<path class="st17" d="M297.9,191.7c2.1,0,3.8-1,3.8-3.4v-1c0-0.4,0-0.8,0-0.8h0c-0.6,1.2-1.7,1.9-3.4,1.9c-2.9,0-4.8-2.3-4.8-5.5
			c0-3.2,1.8-5.4,4.7-5.4c2.8,0,3.6,1.8,3.6,1.8h0c0,0,0-0.1,0-0.4v-1.2h1.4v10.5c0,3.4-2.5,4.7-5.2,4.7c-1.2,0-2.5-0.3-3.5-0.9
			l0.6-1.2C295,191,296.3,191.7,297.9,191.7z M301.7,183c0-3.1-1.5-4.1-3.4-4.1c-2.1,0-3.3,1.5-3.3,4.1c0,2.6,1.4,4.2,3.5,4.2
			C300.2,187.2,301.7,186.1,301.7,183z"/>
		<path class="st17" d="M306.7,173.5h1.5v5.8c0,0.5,0,0.9,0,0.9h0c0.4-1,1.8-2.7,4.3-2.7c2.7,0,3.6,1.5,3.6,4.2v6.8h-1.5v-6.5
			c0-1.7-0.3-3.2-2.3-3.2c-1.8,0-3.4,1.3-3.9,3.1c-0.1,0.4-0.2,0.9-0.2,1.4v5.2h-1.5V173.5z"/>
		<path class="st17" d="M332.9,183.7h-6.1l-1.7,4.8h-1.6l5.5-15h1.6l5.5,15h-1.6L332.9,183.7z M329.9,175.1c0,0-0.3,1.2-0.6,1.9
			l-2,5.5h5.2l-2-5.5C330.3,176.3,329.9,175.1,329.9,175.1L329.9,175.1z"/>
		<path class="st17" d="M338.3,177.8h1.4v1.6c0,0.5,0,0.9,0,0.9h0c0.4-1,1.8-2.7,4.3-2.7c2.7,0,3.6,1.5,3.6,4.2v6.8h-1.5v-6.5
			c0-1.7-0.3-3.2-2.3-3.2c-1.8,0-3.4,1.3-3.9,3c-0.1,0.4-0.2,0.9-0.2,1.5v5.2h-1.5V177.8z"/>
		<path class="st17" d="M350.9,173.5h1.5v1.8h-1.5V173.5z M351,177.8h1.5v10.8H351V177.8z"/>
		<path class="st17" d="M355.9,177.8h1.4v1.6c0,0.5,0,0.9,0,0.9h0c0.5-1.5,2.2-2.7,3.9-2.7c2,0,3,0.9,3.3,2.7h0
			c0.6-1.5,2.1-2.7,4-2.7c2.6,0,3.6,1.5,3.6,4.2v6.8h-1.5v-6.5c0-1.8-0.4-3.2-2.3-3.2c-1.6,0-3,1.5-3.4,3c-0.1,0.5-0.2,1-0.2,1.6
			v5.1h-1.5v-6.5c0-1.6-0.2-3.2-2.3-3.2c-1.8,0-3.1,1.5-3.5,3.2c-0.1,0.4-0.1,0.9-0.1,1.4v5.1h-1.5V177.8z"/>
	</g>
	<g class="st14">
		<path class="st17" d="M381.2,181.9h0.6v-0.3c0-2.1-1.1-2.8-2.7-2.8c-1.8,0-3,1-3,1l-0.7-1.1c0,0,1.4-1.2,3.8-1.2
			c2.6,0,4,1.4,4,4.1v6.9h-1.4v-1.2c0-0.5,0-0.9,0-0.9h0c0,0-0.9,2.3-3.6,2.3c-1.8,0-3.7-1-3.7-3.2
			C374.6,182,379.4,181.9,381.2,181.9z M378.5,187.6c2.1,0,3.3-2.1,3.3-4v-0.5h-0.6c-1.7,0-5.1,0.1-5.1,2.4
			C376.1,186.5,376.9,187.6,378.5,187.6z"/>
	</g>
	<g class="st14">
		<path class="st17" d="M387,179.1h-1.4v-1.2h1.4v-3.1h1.4v3.1h2.7v1.2h-2.7v5.3c0,2.5,1.6,2.8,2.4,2.8c0.3,0,0.5,0,0.5,0v1.3
			c0,0-0.2,0-0.6,0c-1.2,0-3.7-0.4-3.7-4V179.1z"/>
		<path class="st17" d="M398.3,177.5c3,0,4.5,2.3,4.5,5c0,0.3,0,0.7,0,0.7h-8.3c0.1,2.8,1.9,4.3,4.2,4.3c2,0,3.3-1.3,3.3-1.3
			l0.7,1.1c0,0-1.6,1.5-4,1.5c-3.2,0-5.6-2.3-5.6-5.6C393,179.6,395.4,177.5,398.3,177.5z M401.3,182c-0.1-2.2-1.5-3.3-3.1-3.3
			c-1.8,0-3.4,1.1-3.7,3.3H401.3z"/>
		<path class="st17" d="M409.7,177.5c2.6,0,3.5,2,3.5,2h0c0,0,0-0.4,0-0.8v-5.2h1.5v15h-1.4v-1.1c0-0.5,0-0.8,0-0.8h0
			c0,0-0.9,2.2-3.7,2.2c-2.9,0-4.7-2.3-4.7-5.6C404.9,179.7,406.9,177.5,409.7,177.5z M409.8,187.5c1.8,0,3.5-1.3,3.5-4.3
			c0-2.2-1.1-4.3-3.4-4.3c-1.9,0-3.5,1.6-3.5,4.3C406.4,185.8,407.8,187.5,409.8,187.5z"/>
		<path class="st17" d="M422.4,173.5h1.6l4.2,11.4c0.3,0.8,0.6,1.9,0.6,1.9h0c0,0,0.3-1.2,0.6-1.9l4.2-11.4h1.6l-5.6,15H428
			L422.4,173.5z"/>
		<path class="st17" d="M437.1,173.5h1.5v1.8h-1.5V173.5z M437.1,177.8h1.5v10.8h-1.5V177.8z"/>
		<path class="st17" d="M446.2,177.5c2.6,0,3.5,2,3.5,2h0c0,0,0-0.4,0-0.8v-5.2h1.5v15h-1.4v-1.1c0-0.5,0-0.8,0-0.8h0
			c0,0-0.9,2.2-3.7,2.2c-2.9,0-4.7-2.3-4.7-5.6C441.4,179.7,443.4,177.5,446.2,177.5z M446.3,187.5c1.8,0,3.5-1.3,3.5-4.3
			c0-2.2-1.1-4.3-3.4-4.3c-1.9,0-3.5,1.6-3.5,4.3C442.9,185.8,444.3,187.5,446.3,187.5z"/>
		<path class="st17" d="M459.3,177.5c3,0,4.5,2.3,4.5,5c0,0.3,0,0.7,0,0.7h-8.3c0.1,2.8,1.9,4.3,4.2,4.3c2,0,3.3-1.3,3.3-1.3
			l0.7,1.1c0,0-1.6,1.5-4,1.5c-3.2,0-5.6-2.3-5.6-5.6C454,179.6,456.4,177.5,459.3,177.5z M462.3,182c-0.1-2.2-1.5-3.3-3.1-3.3
			c-1.8,0-3.4,1.1-3.7,3.3H462.3z"/>
		<path class="st17" d="M471.4,177.5c3.1,0,5.7,2.4,5.7,5.6c0,3.3-2.5,5.7-5.7,5.7s-5.7-2.4-5.7-5.7
			C465.7,179.9,468.3,177.5,471.4,177.5z M471.4,187.5c2.3,0,4.2-1.9,4.2-4.4c0-2.4-1.9-4.3-4.2-4.3s-4.2,1.8-4.2,4.3
			C467.2,185.6,469.1,187.5,471.4,187.5z"/>
		<path class="st17" d="M480.6,186.9h1.6v1.6h-1.6V186.9z M480.6,173.5h1.5l-0.1,11.1h-1.4L480.6,173.5z"/>
	</g>
</g>
</svg>
