<svg xmlns="http://www.w3.org/2000/svg" xmlns:xlink="http://www.w3.org/1999/xlink" viewBox="0 0 852.64 584.88"><defs><style>.cls-1,.cls-2,.cls-30,.cls-48,.cls-5,.cls-58{fill:#010102;}.cls-1{filter:url(#luminosity-noclip);}.cls-2{filter:url(#luminosity-invert);}.cls-3{fill:none;}.cls-4{isolation:isolate;}.cls-47,.cls-5{opacity:0.1;}.cls-6{fill:#2d2d30;}.cls-7{fill:#3a3a3f;}.cls-8{fill:#494951;}.cls-11,.cls-14,.cls-9{fill:#575761;}.cls-9{opacity:0.64;mix-blend-mode:screen;}.cls-10{opacity:0.92;}.cls-11,.cls-43{opacity:0.3;}.cls-12,.cls-16{fill:#0b0b0c;}.cls-12{opacity:0.11;}.cls-13{fill:#4e4e56;}.cls-15{fill:#505059;}.cls-16,.cls-58{opacity:0.05;}.cls-17{fill:#648381;}.cls-18{fill:#769995;}.cls-19{fill:#756966;}.cls-20{fill:#564d4a;}.cls-21{fill:#897c79;}.cls-22,.cls-34{fill:#dcfffd;}.cls-22{opacity:0.45;}.cls-22,.cls-41,.cls-55{mix-blend-mode:soft-light;}.cls-23{fill:#787887;}.cls-24{fill:#505056;}.cls-24,.cls-39{opacity:0.5;}.cls-25{fill:#f7f4f3;}.cls-26{fill:#ecc8af;}.cls-27{fill:#cacaaa;}.cls-28{fill:#7e7e89;}.cls-29{fill:#e4fde1;}.cls-30{opacity:0.22;}.cls-31{fill:#eabb9b;}.cls-32{fill:#34343a;}.cls-33{fill:#3d3d44;}.cls-35{fill:#3a8585;}.cls-36{fill:#ffc776;}.cls-37{fill:#444;}.cls-38{fill:#7a6e6a;}.cls-40{clip-path:url(#clip-path);}.cls-42{fill:#d4e8d1;}.cls-44{clip-path:url(#clip-path-2);}.cls-45{clip-path:url(#clip-path-3);}.cls-46{clip-path:url(#clip-path-4);}.cls-49{fill:#333;}.cls-50{fill:#726663;}.cls-51{fill:#dbaa6a;}.cls-52{fill:#78bc9a;}.cls-53{opacity:0.39;}.cls-54{clip-path:url(#clip-path-5);}.cls-55{fill:#f8ffff;}.cls-56{mask:url(#mask);}.cls-57{mask:url(#mask-2);}.cls-59{fill:#ffd188;}.cls-60{clip-path:url(#clip-path-6);}.cls-61{fill:#9595a0;}</style><clipPath id="clip-path"><path class="cls-3" d="M562.08,493.52l-29.82.28a8.06,8.06,0,0,1-8.08-8l-.44-46.1a7.76,7.76,0,0,1,7.62-7.89L561,431Z"/></clipPath><clipPath id="clip-path-2"><rect class="cls-3" x="435.47" y="431.81" width="78.11" height="61.3" rx="7.45" ry="7.45" transform="translate(-4.36 4.51) rotate(-0.54)"/></clipPath><clipPath id="clip-path-3"><rect class="cls-3" x="343.04" y="433.67" width="80.08" height="60.31" rx="7.45" ry="7.45" transform="translate(-4.38 3.65) rotate(-0.54)"/></clipPath><clipPath id="clip-path-4"><path class="cls-3" d="M324.55,494.53l-50.42.48-1.56-60.3,51.94-.49a5.89,5.89,0,0,1,5.95,5.83l.45,48A6.43,6.43,0,0,1,324.55,494.53Z"/></clipPath><clipPath id="clip-path-5"><path class="cls-3" d="M420.07,197.67l-8.1,79s-1.84,13.74,10.89,11.18l89.39-36.61s9.76-4.5-2.56-12.23l-66.55-39.59-14.28-7.22S420.47,187.37,420.07,197.67Z"/></clipPath><filter id="luminosity-noclip" x="686.96" y="124.21" width="119.02" height="413.99" filterUnits="userSpaceOnUse" color-interpolation-filters="sRGB"><feFlood flood-color="#fff" result="bg"/><feBlend in="SourceGraphic" in2="bg"/></filter><mask id="mask" x="686.96" y="124.21" width="119.02" height="413.99" maskUnits="userSpaceOnUse"><polygon class="cls-1" points="744.11 241.82 744.48 486.21 784.4 487.04 805.99 538.21 782.01 235.83 767.15 178.81 750.18 170.77 744.11 241.82"/></mask><filter id="luminosity-invert" filterUnits="userSpaceOnUse" color-interpolation-filters="sRGB"><feColorMatrix values="-1 0 0 0 1 0 -1 0 0 1 0 0 -1 0 1 0 0 0 1 0"/></filter><mask id="mask-2" x="686.96" y="124.21" width="158.77" height="413.99" maskUnits="userSpaceOnUse"><polygon class="cls-2" points="744.28 357.21 744.48 486.21 784.4 487.04 805.99 538.21 845.73 337.54 790.73 313.88 782.73 367.88 744.28 357.21"/></mask><clipPath id="clip-path-6"><path class="cls-3" d="M736.52,186.51l0,0c-2.43,4.73-5.89,6.54-7.32,4.66l0-.07c-8.62-12.67-16.3-27.64-23.35-44.12h0a1.38,1.38,0,0,1,.75-1.37,1.15,1.15,0,0,1,1.34.16c12.43,16.5,22.76,28.81,29.42,33.75A12.84,12.84,0,0,1,736.52,186.51Z"/></clipPath></defs><title>BannerIllustrations-Export</title><g class="cls-4"><g id="Layer_1" data-name="Layer 1"><g id="L"><path class="cls-5" d="M709,505.88l-10.72,18.31s-7.15,17.28,14.8,16.07l81.71-4.5,16.46-25.2Z"/><path class="cls-5" d="M220,533.08c0,5.25-38.59,9.5-86.18,9.5s-91.32,1.92-91.32-3.33,43.82-12.68,91.32-15.67C224.66,517.87,220,527.84,220,533.08Z"/><path class="cls-5" d="M542.37,548.34c-10.78-.22-16,.21-18.61,1l-220.83-2.16c-.91-1-2.59-1.61-6.48-1.62-6.75,0-24.75-3.64-33-4.14s-19.25-2-30.12-.37a76.06,76.06,0,0,0-18.12,4.88,16.23,16.23,0,0,0-3.9-.32c-.72.09-1.16.35-.85.95.91,1.76-.75,3,4.12,3.08s16.26-1.16,28.07-1.24,7.84-.18,29,1.24,33.5,2.08,32.59,0c-.11-.25-.21-.5-.31-.75l217.37,3a3.07,3.07,0,0,1-.32,1.75c-1.59,2.49,30.33,3.28,53.44,2.28S603,553.6,603,553.6h1.88C597.45,538.66,568.64,548.88,542.37,548.34Z"/><path class="cls-6" d="M77.7,506.25s-2.25,19.5-33.5,14l-1.75,19S87.2,536.5,81.7,511.5Z"/><circle class="cls-7" cx="132.4" cy="454.84" r="79.5"/><circle class="cls-6" cx="132.4" cy="454.84" r="70.97"/><circle class="cls-7" cx="132.4" cy="454.84" r="37.29"/><path class="cls-8" d="M132.4,381.34a73.5,73.5,0,1,0,73.5,73.5A73.5,73.5,0,0,0,132.4,381.34ZM67.91,440.9a23,23,0,1,1,23,23A23,23,0,0,1,67.91,440.9Zm38,72a23,23,0,1,1,23-23A23,23,0,0,1,105.91,512.87Zm3.88-101.71a23,23,0,1,1,23,23A23,23,0,0,1,109.79,411.16Zm48.47,101.65a23,23,0,1,1,23-23A23,23,0,0,1,158.25,512.81Zm15.62-48.61a23,23,0,1,1,23-23A23,23,0,0,1,173.87,464.2Z"/><circle class="cls-6" cx="132.54" cy="454.8" r="9.67"/><circle class="cls-6" cx="142.5" cy="441.15" r="2.56"/><circle class="cls-6" cx="148.47" cy="459.92" r="2.56"/><circle class="cls-6" cx="132.54" cy="471.58" r="2.56"/><circle class="cls-6" cx="116.33" cy="459.92" r="2.56"/><circle class="cls-6" cx="122.59" cy="441.15" r="2.56"/><path class="cls-9" d="M132.4,375.34A79.5,79.5,0,0,0,76.06,510.92c-2.9,5.38-10.78,13-31.85,9.33l-1.75,19s38.69-2.38,39.69-22.82A79.5,79.5,0,1,0,132.4,375.34Z"/><g class="cls-10"><path class="cls-11" d="M682.61,350.21a8.73,8.73,0,0,0-.44-.87s1-.85,2.39-1.9l-1.58-3.6s.46-.39,1.14-.94l1-.76c.95-.74,2.07-1.58,3-2.2l-.71-2.15a22.93,22.93,0,0,1,2.17-1.68,8,8,0,0,1,1.81-1.19v0a25.44,25.44,0,0,1,14.24-3.9l1,4.36a61.93,61.93,0,0,1,6.9.7l.9,4.19c1.16.15,2.32.32,3.49.53,1.5,13.17,3.73,26.92,6.56,41.15q.73,3.67,1.52,7.39c-.26-4.39-1.56-25.83-2.86-38.46q-.52-3.84-1-7.84a9,9,0,0,0-.25-1s1.2-.61,2.75-1.33l-.76-3.86,1.31-.66,1.11-.54c1.08-.52,2.36-1.09,3.44-1.49l-.22-2.25a22.93,22.93,0,0,1,2.48-1.17,8,8,0,0,1,2-.77v0a25.44,25.44,0,0,1,14.74-.72l0,4.47a61.94,61.94,0,0,1,6.59,2.18l0,4.28c1.1.4,2.19.81,3.29,1.27-1.39,13.18-2.19,27.09-2.51,41.59,0,2-.09,3.88-.12,5.74,1.08-6.73,2.18-14,2.9-19.54q.37-3.86.77-7.88a9,9,0,0,0,0-1s1.3-.32,3-.67l.14-3.93,1.43-.35,1.19-.27c1.17-.26,2.55-.53,3.69-.67l.3-2.24a22.92,22.92,0,0,1,2.69-.58,8,8,0,0,1,2.14-.29v0a26,26,0,0,1,13.37,2.08c0-1.4,0-2.82,0-4.26a9,9,0,0,0-.12-1s1.26-.45,2.9-1l-.25-3.93,1.39-.49,1.16-.39c1.14-.37,2.48-.78,3.6-1l.07-2.26a22.93,22.93,0,0,1,2.61-.84,8,8,0,0,1,2.11-.5v0A25.45,25.45,0,0,1,815.69,339l-.55,4.44a61.94,61.94,0,0,1,6.25,3l-.59,4.24c1,.54,2.07,1.09,3.1,1.69C820.8,365.3,818.2,379,816,393.33c-5.91,38.43-7.49,50.1-9.19,95.44l-26.66,0a494.2,494.2,0,0,0,6.62-52.63l-4.07-11.36s1.28-12.48,2.05-21.14q-.6,2.26-1.19,4.53c-9.7,37.66-12.44,49.11-18.64,94.06l-8.17-.83,1.14,3.55-36.62-2c-5.08-28.82-10.3-54.48-16.32-78.78l-1-1.24s-5.7-22.64-7.22-27.48c0,0-5.55-19.57-9.92-33.3Q684.75,356.16,682.61,350.21Z"/><path class="cls-12" d="M804.9,433.78s-5.09-6.91-6.27-39.45c0,0-5.36,32.17-6.27,34.72Z"/><path class="cls-13" d="M832.89,348l1.09-4s-8.36-6.91-18.54-5.82l-1.09,6.18Z"/><path class="cls-12" d="M829.86,341.31l-1,4.48,4,2.18,1.09-4S830.1,341.19,829.86,341.31Z"/><path class="cls-14" d="M806,354.89l28.72,5.45,4-10.54c-9.82-7.63-18.54-8.73-30.9-6.18Z"/><path class="cls-12" d="M832,345.5l-1.33,3.94,6.54,4.06,1.45-3.7S834.1,346.28,832,345.5Z"/><path class="cls-15" d="M772.06,514.44l36.47-3.88c7.44-59.76,16.14-106.23,31.1-155.17-10.56-9.3-22.9-9.87-36-6.85-.83,13.23-2.36,27.07-4.47,41.43C793.55,428.45,783.76,470.61,772.06,514.44Z"/><path class="cls-16" d="M831.19,350.16S815,405.84,812.67,442l9.13-12.21s4.54-22.9,5.82-27.81c0,0,9.63-42,12.18-46.72,0,0-6.54-4.85-8.54-5.33Z"/><path class="cls-17" d="M725.68,355l-.34-4.13s-10.22-3.63-19.41.87l1.09,6.18Z"/><path class="cls-12" d="M720.55,349.74l.62,4.55,4.5.68-.34-4.13S720.74,349.55,720.55,349.74Z"/><path class="cls-18" d="M702.76,370.66,731.61,366l.15-11.28c-11.83-3.82-20.41-1.86-31.15,4.75Z"/><path class="cls-12" d="M724,352.93l.09,4.16,7.54,1.58.1-4S726.24,353,724,352.93Z"/><path class="cls-17" d="M722.38,500.81,749,499.42c-13.44-58.7-11.79-88.68-14.46-139.77-13.1-5.13-24.89-1.45-36.13,5.85,3.74,12.72,7,26.25,10,40.46C716.22,444,718.39,455.62,722.38,500.81Z"/><path class="cls-16" d="M724.83,357.6s3.8,57.87,14,92.63l4.41-14.59s-3.56-23.08-4-28.13c0,0-5.3-42.75-4.52-48.07,0,0-7.81-2.32-9.85-2.09Z"/><path class="cls-13" d="M753.66,366.64l-.75-4.08s-10.53-2.6-19.23,2.8l1.7,6Z"/><path class="cls-12" d="M748,361.94l1.07,4.46,4.55.23-.75-4.08S748.21,361.73,748,361.94Z"/><path class="cls-14" d="M732.42,384.53,760.66,377l-1-11.23c-12.16-2.62-20.49.18-30.53,7.83Z"/><path class="cls-12" d="M751.82,364.76l.51,4.13,7.66.82-.29-4S754,364.58,751.82,364.76Z"/><path class="cls-15" d="M764.89,512.08l26.35-4C772,451,770.69,421,762.95,370.4c-13.55-3.8-24.91,1-35.37,9.42,5,12.28,9.61,25.42,13.94,39.27C753.11,456.21,756.42,467.51,764.89,512.08Z"/><path class="cls-16" d="M753.08,369.34s9.54,57.2,23.12,90.78l2.94-15s-5.84-22.61-6.82-27.58c0,0-9.53-42-9.28-47.38,0,0-8-1.53-10-1.1Z"/><path class="cls-17" d="M791.49,344.39l.2-4.14s-9.66-4.93-19.36-1.66l.28,6.27Z"/><path class="cls-12" d="M787.09,338.54l0,4.59,4.38,1.26.2-4.14S787.3,338.37,787.09,338.54Z"/><path class="cls-18" d="M766.73,357l29.22-.9,1.62-11.16c-11.24-5.33-20-4.5-31.51.67Z"/><path class="cls-12" d="M790.13,342.15l-.45,4.13,7.27,2.54.62-3.92S792.31,342.47,790.13,342.15Z"/><path class="cls-17" d="M769.28,488.56l26.58,2.08c-5.7-60-.17-89.46,3.82-140.47-12.33-6.79-24.49-4.67-36.59,1.11,2.05,13.09,3.56,26.94,4.62,41.41C770.54,431.47,771.19,443.23,769.28,488.56Z"/><path class="cls-16" d="M790.31,346.89s-3.75,57.87,1.82,93.66l6.27-13.9s-.53-23.34-.35-28.41c0,0,.3-43.08,1.76-48.25,0,0-7.44-3.31-9.5-3.35Z"/><polygon class="cls-19" points="796.34 521.46 811.26 510.57 825.98 430.01 812.53 427.6 796.34 521.46"/><polygon class="cls-20" points="711.46 520.53 796.34 521.46 812.53 427.6 694.38 428.16 711.46 520.53"/><polygon class="cls-19" points="680.56 459.59 800.17 459.59 812.53 427.6 694.38 427.96 680.56 459.59"/><polygon class="cls-21" points="812.9 457.41 828.16 459.23 825.98 430.14 812.53 427.6 812.9 457.41"/></g><path class="cls-22" d="M826,430.14h0l0-.13-4.08-.73c.67-3.35,4.56-22.83,5.72-27.31,0,0,4.55-19.82,8.22-33.76q1.72-6,3.56-12.07a8.73,8.73,0,0,1,.4-.89s-1.08-.8-2.49-1.77l1.4-3.68s-.47-.36-1.18-.87l-1-.72c-1-.69-2.14-1.47-3.14-2L834,344a22.93,22.93,0,0,0-2.25-1.57,8,8,0,0,0-1.87-1.1v0a25.44,25.44,0,0,0-14.42-3.17l-.13.72A25.64,25.64,0,0,0,801,337.82v0a8,8,0,0,0-2.11.5,22.93,22.93,0,0,0-2.61.84l-.07,2.26c-1.12.25-2.46.66-3.6,1l-.6.2-.39-.13.11-2.26a22.93,22.93,0,0,0-2.54-1,8,8,0,0,0-2.06-.66v0a25.44,25.44,0,0,0-14.76,0l.2,4.47a61.94,61.94,0,0,0-6.47,2.51l.25,4.28c-1.07.45-2.15.92-3.22,1.44.22,1.4.43,2.82.64,4.24l-1,.25-.14,3.93c-1.68.36-3,.67-3,.67a9,9,0,0,1,0,1q-.22,2.15-.42,4.24l-.94-.18-1.21-.21-.31-.05q.65-12.2,1.84-23.72c-1.1-.46-2.19-.87-3.29-1.27l0-4.28a62,62,0,0,0-6.59-2.18l0-4.47A25.43,25.43,0,0,0,734,330v0a8,8,0,0,0-2,.77,22.93,22.93,0,0,0-2.48,1.17l.22,2.25c-1.08.4-2.35,1-3.44,1.49l-1.11.54-1.31.66.76,3.86c-1.55.73-2.75,1.33-2.75,1.33a9,9,0,0,1,.25,1c.32,2.43.63,4.81,1,7.15l-.36-.08a8,8,0,0,0-2.13-.39v0c-.49-.07-1-.13-1.55-.18q-.6-4.42-1.1-8.76c-1.17-.21-2.33-.38-3.49-.53l-.9-4.19a61.91,61.91,0,0,0-6.9-.7l-1-4.36a25.44,25.44,0,0,0-14.24,3.9v0a8,8,0,0,0-1.81,1.19,22.93,22.93,0,0,0-2.17,1.68l.71,2.15c-1,.62-2.09,1.46-3,2.2l-1,.76c-.68.55-1.14.94-1.14.94l1.58,3.6c-1.36,1-2.39,1.9-2.39,1.9a8.72,8.72,0,0,1,.44.87q2.15,6,4.17,11.87c4.37,13.73,9.92,33.3,9.92,33.3,1.52,4.84,7.22,27.48,7.22,27.48l1,1.24q.47,1.91.94,3.82l-11.5,0-13.82,31.63h19.63l11.27,60.94,84.87.92,14.92-10.89,9.54-52.21,7.36.88Z"/><path class="cls-14" d="M408.94,453.43l2.15,39.82S408.4,521,391.18,522.83H362.65a2.29,2.29,0,0,0-2.15,2.41v5a2.68,2.68,0,0,0,2.51,2.82H523.88a2,2,0,0,0,1.86-2.09v-5a1.32,1.32,0,0,0-1.19-1.38l-31.64-1.16s-21-2.41-21.53-25.34l.54-44.65.54-15.08H408.4Z"/><rect class="cls-14" x="134.16" y="87.95" width="610.38" height="403.15" rx="11.57" ry="11.57"/><polygon class="cls-23" points="145.73 101.44 145.73 471 487.91 471.55 734.1 471.55 734.1 273.28 734.1 101.44 145.73 101.44"/><rect class="cls-24" x="146.86" y="113.01" width="98.25" height="18.73"/><polygon class="cls-24" points="246.81 113.55 246.81 124.56 306.09 124.56 381.76 124.56 507.67 124.56 605.36 124.56 664.64 124.56 664.64 113.55 537.6 113.55 246.81 113.55"/><polygon class="cls-25" points="246.81 126.7 246.24 359.77 664.64 359.77 664.64 126.7 246.81 126.7"/><path class="cls-24" d="M732.4,113.56V359.77H666.34V134.46s10.72-10.25,34-10.74C727.88,105.84,732.4,113.56,732.4,113.56Z"/><rect class="cls-24" x="153.15" y="366.33" width="5.7" height="6.36" rx="1.08" ry="1.08"/><rect class="cls-24" x="265.11" y="369.56" width="5.7" height="6.36" rx="1.08" ry="1.08"/><rect class="cls-24" x="147.62" y="391.52" width="169.55" height="5.38" rx="0.54" ry="0.54"/><rect class="cls-24" x="282.55" y="371.17" width="3.95" height="4.41" rx="1.08" ry="1.08"/><rect class="cls-24" x="301.56" y="368" width="9.65" height="1.57" rx="0.53" ry="0.53"/><rect class="cls-24" x="301.56" y="371.14" width="9.65" height="1.57" rx="0.53" ry="0.53"/><rect class="cls-24" x="301.56" y="374.27" width="9.65" height="1.57" rx="0.53" ry="0.53"/><rect class="cls-24" x="264.42" y="379.11" width="48.98" height="4.88" rx="1.61" ry="1.61"/><rect class="cls-24" x="181.54" y="376.99" width="76.23" height="8.61" rx="1.61" ry="1.61"/><rect class="cls-24" x="319.32" y="367.37" width="410.69" height="6.39" rx="1.61" ry="1.61"/><rect class="cls-24" x="149.46" y="377.06" width="25.41" height="8.55" rx="1.61" ry="1.61"/><rect class="cls-24" x="319.65" y="383.45" width="100.33" height="5.05" rx="1.08" ry="1.08"/><polygon class="cls-24" points="160.93 404.13 160.93 408.4 163.36 406.27 160.93 404.13"/><rect class="cls-24" x="166.99" y="403.24" width="48.44" height="6.41" rx="1.61" ry="1.61"/><rect class="cls-24" x="224.66" y="403.42" width="22.45" height="6.41" rx="1.61" ry="1.61"/><rect class="cls-24" x="254.39" y="403.42" width="22.45" height="6.41" rx="1.61" ry="1.61"/><rect class="cls-24" x="283.8" y="403.42" width="28.52" height="6.41" rx="1.61" ry="1.61"/><rect class="cls-24" x="319.59" y="391.79" width="407.73" height="74.55" rx="0.54" ry="0.54"/><rect class="cls-26" x="333.31" y="399.34" width="345.02" height="9.68" rx="1.61" ry="1.61"/><rect class="cls-17" x="333.31" y="415.89" width="322.95" height="9.68" rx="1.61" ry="1.61"/><rect class="cls-25" x="333.31" y="447.62" width="363.86" height="9.68" rx="1.61" ry="1.61"/><rect class="cls-27" x="333.31" y="432.53" width="385.93" height="9.68" rx="1.61" ry="1.61"/><ellipse class="cls-24" cx="153.95" cy="405.91" rx="2.12" ry="2.49"/><rect class="cls-24" x="168.32" y="116.31" width="3.39" height="4.41" rx="1.61" ry="1.61"/><rect class="cls-24" x="223.48" y="118.23" width="5.41" height="1.05" rx="0.52" ry="0.52"/><rect class="cls-24" x="223.48" y="122.42" width="5.41" height="1.05" rx="0.52" ry="0.52"/><rect class="cls-24" x="223.48" y="120.32" width="5.41" height="1.05" rx="0.52" ry="0.52"/><rect class="cls-24" x="164.09" y="125.87" width="64.93" height="2.44" rx="1.22" ry="1.22"/><ellipse class="cls-24" cx="164.93" cy="119.07" rx="0.85" ry="0.83"/><rect class="cls-24" x="151.92" y="104.18" width="4.44" height="5.3" rx="1.55" ry="1.55"/><rect class="cls-24" x="160.71" y="104.18" width="4.44" height="5.3" rx="1.55" ry="1.55"/><rect class="cls-24" x="169.03" y="104.18" width="4.44" height="5.3" rx="1.55" ry="1.55"/><rect class="cls-24" x="177.82" y="104.18" width="4.44" height="5.3" rx="1.55" ry="1.55"/><rect class="cls-24" x="186.14" y="104.18" width="4.44" height="5.3" rx="1.55" ry="1.55"/><ellipse class="cls-24" cx="198.07" cy="106.83" rx="2.71" ry="2.65"/><path class="cls-24" d="M206.65,105.44l-.94,1.29a1.36,1.36,0,0,0,0,1.63h0a1.36,1.36,0,0,0,1.94.21l1.22-1a1.36,1.36,0,0,0,.08-2l-.28-.27A1.36,1.36,0,0,0,206.65,105.44Z"/><polygon class="cls-24" points="214.37 104.66 214.37 109.48 218.81 109.48 214.86 104.66 214.37 104.66"/><polygon class="cls-24" points="222.26 109 226.21 104.18 226.17 104.13 222.71 108.94 222.26 109"/><polygon class="cls-24" points="231.57 104.66 232.07 107.07 230.09 107.55 230.09 109 235.52 109 235.52 108.03 233.55 107.07 234.04 104.66 231.57 104.66"/><polygon class="cls-24" points="241.82 104.18 239.35 108.03 241.33 109.48 245.28 106.11 241.82 104.18"/><path class="cls-24" d="M248.73,104.66c0,1-.49,4.81-.49,4.81h1l.49-4.81Z"/><polygon class="cls-24" points="251.2 104.66 250.21 109.48 251.2 109.48 252.19 105.14 251.2 104.66"/><polygon class="cls-24" points="258.6 104.18 258.11 105.63 256.13 105.63 256.13 106.59 257.12 106.59 256.13 109.48 258.6 108.03 259.1 109 259.59 108.52 259.1 106.59 260.58 105.63 258.6 104.18"/><rect class="cls-24" x="266" y="104.73" width="4.02" height="4.74" rx="1.08" ry="1.08"/><rect class="cls-24" x="543.25" y="105.85" width="10.73" height="3.3" rx="0.54" ry="0.54"/><rect class="cls-24" x="568.66" y="105.85" width="13.55" height="3.3" rx="0.54" ry="0.54"/><rect class="cls-24" x="595.76" y="105.85" width="19.76" height="3.3" rx="0.54" ry="0.54"/><rect class="cls-24" x="629.64" y="105.85" width="12.42" height="3.3" rx="0.54" ry="0.54"/><polyline class="cls-24" points="652.5 105.3 654.42 107.39 652.5 109.48"/><polyline class="cls-24" points="655.38 105.3 657.3 107.39 655.38 109.48"/><rect class="cls-24" x="662.39" y="104.75" width="6.21" height="4.96"/><rect class="cls-24" x="671.99" y="104.75" width="55.34" height="4.96"/><rect class="cls-24" x="249.63" y="118.5" width="1.69" height="1.65"/><rect class="cls-24" x="254.15" y="116.85" width="3.39" height="4.41" rx="1.08" ry="1.08"/><polyline class="cls-24" points="260.36 117.95 262.62 117.95 262.62 120.7 260.36 120.7 260.36 116.85 261.49 116.3"/><rect class="cls-24" x="266" y="118.5" width="18.63" height="2.2" rx="0.54" ry="0.54"/><rect class="cls-24" x="294.52" y="118.23" width="4.89" height="0.83"/><rect class="cls-24" x="294.52" y="121.56" width="4.89" height="0.83"/><rect class="cls-24" x="294.52" y="119.89" width="4.89" height="0.83"/><polygon class="cls-24" points="308.02 117.94 308.02 121.79 311.4 120.14 308.02 117.94"/><ellipse class="cls-27" cx="219.96" cy="285.76" rx="10.45" ry="10.19"/><ellipse class="cls-26" cx="168.01" cy="285.76" rx="10.45" ry="10.19"/><rect class="cls-28" x="672.95" y="137.79" width="53.58" height="8.26" rx="1.61" ry="1.61"/><rect class="cls-28" x="672.95" y="154.73" width="53.58" height="8.26" rx="1.61" ry="1.61"/><rect class="cls-28" x="672.95" y="171.66" width="53.58" height="8.26" rx="1.61" ry="1.61"/><rect class="cls-14" x="673.2" y="241.82" width="53.58" height="8.26" rx="1.61" ry="1.61"/><rect class="cls-24" x="708.48" y="376.99" width="5.92" height="3.23"/><rect class="cls-24" x="710.36" y="382.11" width="2.15" height="6.46"/><rect class="cls-28" x="696.02" y="188.95" width="28.77" height="5.51" rx="1.61" ry="1.61"/><rect class="cls-28" x="673.32" y="188.95" width="16.23" height="5.51" rx="1.61" ry="1.61"/><rect class="cls-14" x="673.2" y="208.23" width="51.59" height="19.83" rx="1.61" ry="1.61"/><polygon class="cls-24" points="160.93 419.74 160.93 424.01 163.36 421.88 160.93 419.74"/><rect class="cls-24" x="166.99" y="418.85" width="48.44" height="6.41" rx="1.61" ry="1.61"/><rect class="cls-24" x="224.66" y="419.03" width="22.45" height="6.41" rx="1.61" ry="1.61"/><rect class="cls-24" x="254.39" y="419.03" width="22.45" height="6.41" rx="1.61" ry="1.61"/><rect class="cls-24" x="283.8" y="419.03" width="28.52" height="6.41" rx="1.61" ry="1.61"/><ellipse class="cls-24" cx="153.95" cy="421.52" rx="2.12" ry="2.49"/><polygon class="cls-24" points="160.93 435.35 160.93 439.62 163.36 437.48 160.93 435.35"/><rect class="cls-24" x="167.53" y="434.46" width="47.9" height="6.41" rx="1.61" ry="1.61"/><rect class="cls-24" x="224.66" y="434.64" width="22.45" height="6.41" rx="1.61" ry="1.61"/><rect class="cls-24" x="254.39" y="434.64" width="22.45" height="6.41" rx="1.61" ry="1.61"/><rect class="cls-24" x="283.8" y="434.64" width="28.52" height="6.41" rx="1.61" ry="1.61"/><ellipse class="cls-24" cx="153.95" cy="437.13" rx="2.12" ry="2.49"/><rect class="cls-24" x="319.86" y="376.99" width="5.92" height="3.23"/><rect class="cls-24" x="345.16" y="376.99" width="5.92" height="3.23"/><rect class="cls-24" x="369.92" y="376.99" width="5.92" height="3.23"/><rect class="cls-24" x="390.37" y="376.99" width="5.92" height="3.23"/><rect class="cls-24" x="414.05" y="376.99" width="5.92" height="3.23"/><rect class="cls-24" x="437.2" y="376.99" width="5.92" height="3.23"/><rect class="cls-24" x="439.08" y="382.11" width="2.15" height="6.46"/><rect class="cls-24" x="471.11" y="376.99" width="5.92" height="3.23"/><rect class="cls-24" x="472.99" y="382.11" width="2.15" height="6.46"/><rect class="cls-24" x="505.02" y="376.99" width="5.92" height="3.23"/><rect class="cls-24" x="506.9" y="382.11" width="2.15" height="6.46"/><rect class="cls-24" x="538.93" y="376.99" width="5.92" height="3.23"/><rect class="cls-24" x="540.81" y="382.11" width="2.15" height="6.46"/><rect class="cls-24" x="572.84" y="376.99" width="5.92" height="3.23"/><rect class="cls-24" x="574.72" y="382.11" width="2.15" height="6.46"/><rect class="cls-24" x="606.75" y="376.99" width="5.92" height="3.23"/><rect class="cls-24" x="608.63" y="382.11" width="2.15" height="6.46"/><rect class="cls-24" x="640.66" y="376.99" width="5.92" height="3.23"/><rect class="cls-24" x="642.54" y="382.11" width="2.15" height="6.46"/><rect class="cls-24" x="674.57" y="376.99" width="5.92" height="3.23"/><rect class="cls-24" x="676.45" y="382.11" width="2.15" height="6.46"/><polygon class="cls-24" points="151.46 142.31 157.3 142.31 154.38 147.06 151.46 142.31"/><rect class="cls-24" x="161.54" y="142.71" width="29.67" height="4.98" rx="1.61" ry="1.61"/><polygon class="cls-24" points="158.38 163.78 158.38 169.22 162.37 166.89 158.38 163.78"/><rect class="cls-24" x="201.07" y="175.76" width="35.9" height="4.96" rx="1.61" ry="1.61"/><rect class="cls-24" x="175.77" y="175.76" width="19.75" height="4.96" rx="1.61" ry="1.61"/><rect class="cls-24" x="196.23" y="142.92" width="19.75" height="4.96" rx="1.61" ry="1.61"/><rect class="cls-24" x="220.99" y="142.92" width="15.98" height="4.96" rx="1.61" ry="1.61"/><rect class="cls-24" x="154.77" y="252.15" width="81.31" height="7.16" rx="1.61" ry="1.61"/><path class="cls-29" d="M166.35,328.7l15.45-1.92a.67.67,0,0,0,.48-.3l3.15-4.82a.67.67,0,0,1,1.16.06h0a.67.67,0,0,0,1.2,0l1.09-2.12,0,0,1-1.75a1.42,1.42,0,0,1,2.44,0l.46.78a.67.67,0,0,0,1.16,0l1.44-2.46a2.87,2.87,0,0,1,.58-.71l3.31-2.91a2.64,2.64,0,0,1,3.73.24l1,1.18a.67.67,0,0,0,1.08-.09l3.17-5.16a3.13,3.13,0,0,1,3.93-1.22l.17.08a6.55,6.55,0,0,1,3.87,5.43l.06.68a.67.67,0,0,0,1.25.29l2.21-3.67a2.22,2.22,0,0,1,4,.4,22.3,22.3,0,0,1,1.2,3.95v14.75a.67.67,0,0,1-.67.67H166.44A.67.67,0,0,1,166.35,328.7Z"/><rect class="cls-24" x="160.41" y="340.93" width="69.45" height="4.9" rx="1.08" ry="1.08"/><path class="cls-24" d="M169.73,176.48a2.31,2.31,0,0,1-.39,3.29,2.45,2.45,0,0,1-3.38-.38,2.31,2.31,0,0,1,.39-3.29A2.45,2.45,0,0,1,169.73,176.48Z"/><polygon class="cls-24" points="166.52 186.68 166.52 190.75 169.5 189.01 166.52 186.68"/><path class="cls-27" d="M179.14,187.57a1.9,1.9,0,0,1-.32,2.71A2,2,0,0,1,176,190a1.9,1.9,0,0,1,.32-2.71A2,2,0,0,1,179.14,187.57Z"/><rect class="cls-27" x="186.61" y="187.26" width="50.36" height="3.46" rx="1.61" ry="1.61"/><polygon class="cls-24" points="166.52 195.83 166.52 199.91 169.5 198.16 166.52 195.83"/><path class="cls-26" d="M179.14,196.72a1.9,1.9,0,0,1-.32,2.71,2,2,0,0,1-2.78-.32,1.9,1.9,0,0,1,.32-2.71A2,2,0,0,1,179.14,196.72Z"/><rect class="cls-26" x="186.61" y="196.41" width="50.36" height="3.46" rx="1.61" ry="1.61"/><polygon class="cls-24" points="166.52 204.98 166.52 209.06 169.5 207.31 166.52 204.98"/><path class="cls-27" d="M179.14,205.87a1.9,1.9,0,0,1-.32,2.71,2,2,0,0,1-2.78-.32,1.9,1.9,0,0,1,.32-2.71A2,2,0,0,1,179.14,205.87Z"/><rect class="cls-27" x="186.61" y="205.57" width="50.36" height="3.46" rx="1.61" ry="1.61"/><polygon class="cls-24" points="166.52 214.13 166.52 218.21 169.5 216.46 166.52 214.13"/><path class="cls-26" d="M179.14,215a1.9,1.9,0,0,1-.32,2.71,2,2,0,0,1-2.78-.32,1.9,1.9,0,0,1,.32-2.71A2,2,0,0,1,179.14,215Z"/><rect class="cls-26" x="186.61" y="214.72" width="50.36" height="3.46" rx="1.61" ry="1.61"/><polygon class="cls-24" points="166.52 223.28 166.52 227.36 169.5 225.61 166.52 223.28"/><path class="cls-29" d="M179.14,224.17a1.9,1.9,0,0,1-.32,2.71,2,2,0,0,1-2.78-.32,1.9,1.9,0,0,1,.32-2.71A2,2,0,0,1,179.14,224.17Z"/><rect class="cls-29" x="186.61" y="223.87" width="50.36" height="3.46" rx="1.61" ry="1.61"/><rect class="cls-24" x="165.61" y="163.84" width="71.35" height="5.35" rx="1.61" ry="1.61"/><polygon class="cls-24" points="158.38 153.01 158.38 158.46 162.37 156.12 158.38 153.01"/><rect class="cls-24" x="165.61" y="153.08" width="71.35" height="5.35" rx="1.61" ry="1.61"/><rect class="cls-24" x="175.87" y="117.28" width="42.52" height="3.77" rx="1.22" ry="1.22"/><rect class="cls-24" x="314.48" y="117.55" width="78.05" height="4.31" rx="1.61" ry="1.61"/><path class="cls-30" d="M599,507.64a10.19,10.19,0,0,1-.82-1.4c-1.36-2.74-5.39-11.09-5.95-14.9a2.07,2.07,0,0,0-.59-1.17,17.12,17.12,0,0,0,2.93-6.21,6.29,6.29,0,0,0,1.38.17,6,6,0,0,0,6.15-5.87,5.78,5.78,0,0,0-1.39-3.8,2.61,2.61,0,0,0,1.75-2.25c0-1.47-1.58-2.66-3.55-2.68a4.09,4.09,0,0,0-2.84,1,2.77,2.77,0,0,0-.88-.14,2,2,0,0,0-2.25,1.67,1.2,1.2,0,0,0,0,.2,2.38,2.38,0,0,0-1-.21c-1,0-1.84.57-1.85,1.29a.87.87,0,0,0,.06.32,1.32,1.32,0,0,0-1,1.21,1.23,1.23,0,0,0,.62,1.05,4.87,4.87,0,0,0,.19,4A5.53,5.53,0,0,0,592,483a22.19,22.19,0,0,1-5.34,6.08,3.8,3.8,0,0,0-2.72,1.14l-7.58,8.81.17.38q-1.5,1.51-3.14,3l.54-69.28h-.25v-.49a2,2,0,0,0-2.21-2.25l-4.2,0V429l-1-.5-4.94,0-1,.49v1.48h-.25c-6.92-.05-7.18,1.68-7.18,1.68,0,.41,0,.8,0,1.17l-248.43.17,0-2.3a2,2,0,0,0-2.21-2.24l-5.19,0v-1.73l-1-.5-4.95,0-1,.49v1.74c-6.2.06-6.44,1.67-6.44,1.67,0,1.22,0,2.24.1,3h-.12l.8,60.55c-3-3.15-6-6.59-9.14-10.39a7.14,7.14,0,0,0-7.32-.82,11.9,11.9,0,0,0-3,.15l-1.35.24a30.34,30.34,0,0,0-2.21-7.47,4.52,4.52,0,0,0,1.7-5.44l-1.61-4a4.54,4.54,0,0,0-1.39-1.87l0,0c2.06-3.31.16-4.47.16-4.47.05-1.2-1,0-1,0-.79.8-3.93,1.67-3.93,1.67-6,2.28-3.62,4.37-3.62,4.37-.62.68.33,2.63.33,2.63,1.13,3.12,1.77,3.91,2.06,4.1l.4,1a4.58,4.58,0,0,0,2.65,2.58,30.52,30.52,0,0,1,1.38,7.9l-3.27.59a7.4,7.4,0,0,0-3.84,1.3,3.41,3.41,0,0,0-1.17,1.56l-.34.88a3.75,3.75,0,0,0-.18.64,9.32,9.32,0,0,0,.91,5.1,37.12,37.12,0,0,0,6.37,7.64,43,43,0,0,1,2.83,9.14c1.06,5.57,324.94-.55,324.8,2.64-.21,4.68,23.6,6.9,18.41-.41C601.63,510.95,600,509.06,599,507.64Zm-316,3.7,0-.16a48.11,48.11,0,0,0,.32-4.82l1.43.94.05,4,0,1.73Z"/><path class="cls-31" d="M582.21,481.79c-7.62,14.24-25.53,26.07-38.53,34.15h0a1.25,1.25,0,0,1-1.35-.32,1.24,1.24,0,0,1-.27-1.47c11.37-11.44,27.85-24,34.35-36.71.87-1.69,2.56-2.21,3.9-1.22l1.11.82A3.91,3.91,0,0,1,582.21,481.79Z"/><path class="cls-32" d="M560.94,512.56l-5.36.05,0,1.44-1,.52-4.94.11-1-.47,0-1.47c-7.65.28-7.67-1.47-7.67-1.47l0-2,20.71-.2C564,511.05,560.94,512.56,560.94,512.56Z"/><path class="cls-32" d="M561.55,412.45,562,509.1l-20.51.85s-.7-95.33-.72-97.8c0,0,.23-1.74,7.15-1.8h.25v-1.48l1-.5,4.94,0,1,.49v1.48l4.2,0A2,2,0,0,1,561.55,412.45Z"/><path class="cls-31" d="M308,506.91a1.74,1.74,0,0,1-1.94.91c-10.87-2.46-42-19.53-49.25-30.92a9,9,0,0,1-1.1-4.87,3.52,3.52,0,0,1,.14-.63l.29-.86a3.28,3.28,0,0,1,1.06-1.56,7.22,7.22,0,0,1,8.72,0c15,18.32,28.57,28.48,41.81,36.59A1.34,1.34,0,0,1,308,506.91Z"/><path class="cls-32" d="M292.4,415.49l3.2,94.85-20.51.85s-3.43-93.52-3.46-96c0,0,.22-1.61,6.41-1.78l0-1.74,1-.5,4.95,0,1,.49,0,1.73,5.19,0A2,2,0,0,1,292.4,415.49Z"/><path class="cls-32" d="M290.14,514.39l-4,0,0,1.19-1,.52-4.94.11-1-.47,0-1.2c-4.69,0-4.71-1.52-4.71-1.52l0-2,16.18-.15C292.52,512.88,290.14,514.39,290.14,514.39Z"/><path class="cls-33" d="M271.67,418.16l2.87,93.9,288.19-2.23-.92-96.89Zm9.73,87.77a1.61,1.61,0,0,1-1.6,1.63l-3.2,0A1.61,1.61,0,0,1,275,506l0-4.68a1.61,1.61,0,0,1,1.6-1.63l3.2,0a1.61,1.61,0,0,1,1.63,1.6Zm3.72-77.16a1.61,1.61,0,0,1-1.6,1.63l-3.2,0a1.61,1.61,0,0,1-1.63-1.6l0-4.68a1.61,1.61,0,0,1,1.6-1.63l3.2,0a1.61,1.61,0,0,1,1.63,1.6Zm10.12,77a1.61,1.61,0,0,1-1.6,1.63l-3.2,0a1.61,1.61,0,0,1-1.63-1.6l0-4.68a1.61,1.61,0,0,1,1.6-1.63l3.2,0a1.61,1.61,0,0,1,1.63,1.6Zm6.19-77.18a1.61,1.61,0,0,1-1.6,1.63l-3.2,0a1.61,1.61,0,0,1-1.63-1.6l0-4.68a1.61,1.61,0,0,1,1.6-1.63l3.2,0a1.61,1.61,0,0,1,1.63,1.6Zm9.13,77a1.61,1.61,0,0,1-1.6,1.63l-3.2,0a1.61,1.61,0,0,1-1.63-1.6l0-4.68a1.61,1.61,0,0,1,1.6-1.63l3.2,0a1.61,1.61,0,0,1,1.63,1.6Zm7.18-77.19a1.61,1.61,0,0,1-1.6,1.63l-3.2,0a1.61,1.61,0,0,1-1.63-1.6l0-4.68a1.61,1.61,0,0,1,1.6-1.63l3.2,0a1.61,1.61,0,0,1,1.63,1.6Zm8.14,77a1.61,1.61,0,0,1-1.6,1.63l-3.2,0a1.61,1.61,0,0,1-1.63-1.6l0-4.68a1.61,1.61,0,0,1,1.6-1.63l3.2,0a1.61,1.61,0,0,1,1.63,1.6Zm6.57-75.57-3.2,0a1.61,1.61,0,0,1-1.63-1.6l0-4.68a1.61,1.61,0,0,1,1.6-1.63l3.2,0a1.61,1.61,0,0,1,1.63,1.6l0,4.68A1.61,1.61,0,0,1,332.45,429.94Zm8.76,75.42a1.61,1.61,0,0,1-1.6,1.63l-3.2,0a1.61,1.61,0,0,1-1.63-1.6l0-4.68a1.61,1.61,0,0,1,1.6-1.63l3.2,0a1.61,1.61,0,0,1,1.63,1.6Zm4.36-75.55a1.61,1.61,0,0,1-1.63-1.6l0-4.68a1.61,1.61,0,0,1,1.6-1.63l3.2,0a1.61,1.61,0,0,1,1.63,1.6l0,4.68a1.61,1.61,0,0,1-1.6,1.63Zm11,75.4a1.61,1.61,0,0,1-1.6,1.63l-3.2,0a1.61,1.61,0,0,1-1.63-1.6l0-4.68a1.61,1.61,0,0,1,1.6-1.63l3.2,0a1.61,1.61,0,0,1,1.63,1.6Zm3.72-77.16,0-4.68a1.61,1.61,0,0,1,1.6-1.63l3.2,0a1.61,1.61,0,0,1,1.63,1.6l0,4.68a1.61,1.61,0,0,1-1.6,1.63l-3.2,0A1.61,1.61,0,0,1,360.25,428.06Zm11.61,77a1.61,1.61,0,0,1-1.6,1.63l-3.2,0a1.61,1.61,0,0,1-1.63-1.6l0-4.68a1.61,1.61,0,0,1,1.6-1.63l3.2,0a1.61,1.61,0,0,1,1.63,1.6Zm4.71-77.16,0-4.68a1.61,1.61,0,0,1,1.6-1.63l3.2,0a1.61,1.61,0,0,1,1.63,1.6l0,4.68a1.61,1.61,0,0,1-1.6,1.63l-3.2,0A1.61,1.61,0,0,1,376.56,427.91Zm10.62,77a1.61,1.61,0,0,1-1.6,1.63l-3.2,0a1.61,1.61,0,0,1-1.63-1.6l0-4.68a1.61,1.61,0,0,1,1.6-1.63l3.2,0a1.61,1.61,0,0,1,1.63,1.6Zm5.69-77.67,0-4.68a1.61,1.61,0,0,1,1.6-1.63l3.2,0a1.61,1.61,0,0,1,1.63,1.6l0,4.68a1.61,1.61,0,0,1-1.6,1.63l-3.2,0A1.61,1.61,0,0,1,392.87,427.26Zm9.63,77.52a1.61,1.61,0,0,1-1.6,1.63l-3.2,0a1.61,1.61,0,0,1-1.63-1.6l0-4.68a1.61,1.61,0,0,1,1.6-1.63l3.2,0a1.61,1.61,0,0,1,1.63,1.6Zm6.68-77.68,0-4.68a1.61,1.61,0,0,1,1.6-1.63l3.2,0a1.61,1.61,0,0,1,1.63,1.6l0,4.68a1.61,1.61,0,0,1-1.6,1.63l-3.2,0A1.61,1.61,0,0,1,409.18,427.11Zm8.64,77.53a1.61,1.61,0,0,1-1.6,1.63l-3.2,0a1.61,1.61,0,0,1-1.63-1.6l0-4.68a1.61,1.61,0,0,1,1.6-1.63l3.2,0a1.61,1.61,0,0,1,1.63,1.6Zm7.66-78.18,0-4.68a1.61,1.61,0,0,1,1.6-1.63l3.2,0a1.61,1.61,0,0,1,1.63,1.6l0,4.68a1.61,1.61,0,0,1-1.6,1.63l-3.2,0A1.61,1.61,0,0,1,425.49,426.46Zm7.66,78a1.61,1.61,0,0,1-1.6,1.63l-3.2,0a1.61,1.61,0,0,1-1.63-1.6l0-4.68a1.61,1.61,0,0,1,1.6-1.63l3.2,0a1.61,1.61,0,0,1,1.63,1.6Zm15.32-.15a1.61,1.61,0,0,1-1.6,1.63l-3.2,0a1.61,1.61,0,0,1-1.63-1.6l0-4.68a1.61,1.61,0,0,1,1.6-1.63l3.2,0a1.61,1.61,0,0,1,1.63,1.6Zm-.25-78.11a1.61,1.61,0,0,1-1.6,1.63l-3.2,0a1.61,1.61,0,0,1-1.63-1.6l0-4.68a1.61,1.61,0,0,1,1.6-1.63l3.2,0a1.61,1.61,0,0,1,1.63,1.6ZM463.8,504.7a1.61,1.61,0,0,1-1.6,1.63l-3.2,0a1.61,1.61,0,0,1-1.63-1.6l0-4.68a1.61,1.61,0,0,1,1.6-1.63l3.2,0a1.61,1.61,0,0,1,1.63,1.6Zm.74-78.61a1.61,1.61,0,0,1-1.6,1.63l-3.2,0a1.61,1.61,0,0,1-1.63-1.6l0-4.68a1.61,1.61,0,0,1,1.6-1.63l3.2,0a1.61,1.61,0,0,1,1.63,1.6Zm14.59,79a1.61,1.61,0,0,1-1.6,1.63l-3.2,0a1.61,1.61,0,0,1-1.63-1.6l0-4.68a1.61,1.61,0,0,1,1.6-1.63l3.2,0a1.61,1.61,0,0,1,1.63,1.6Zm1.72-79.61a1.61,1.61,0,0,1-1.6,1.63l-3.2,0a1.61,1.61,0,0,1-1.63-1.6l0-4.68a1.61,1.61,0,0,1,1.6-1.63l3.2,0a1.61,1.61,0,0,1,1.63,1.6Zm13.6,79a1.61,1.61,0,0,1-1.6,1.63l-3.2,0a1.61,1.61,0,0,1-1.63-1.6l0-4.68a1.61,1.61,0,0,1,1.6-1.63l3.2,0a1.61,1.61,0,0,1,1.63,1.6Zm2.71-79.12a1.61,1.61,0,0,1-1.6,1.63l-3.2,0a1.61,1.61,0,0,1-1.63-1.6l0-4.68a1.61,1.61,0,0,1,1.6-1.63l3.2,0a1.61,1.61,0,0,1,1.63,1.6Zm12.61,79a1.61,1.61,0,0,1-1.6,1.63l-3.2,0a1.61,1.61,0,0,1-1.63-1.6l0-4.68a1.61,1.61,0,0,1,1.6-1.63l3.2,0a1.61,1.61,0,0,1,1.63,1.6Zm3.7-79.13a1.61,1.61,0,0,1-1.6,1.63l-3.2,0a1.61,1.61,0,0,1-1.63-1.6l0-4.68a1.61,1.61,0,0,1,1.6-1.63l3.2,0a1.61,1.61,0,0,1,1.63,1.6Zm11.62,79a1.61,1.61,0,0,1-1.6,1.63l-3.2,0a1.61,1.61,0,0,1-1.63-1.6l0-4.68a1.61,1.61,0,0,1,1.6-1.63l3.2,0a1.61,1.61,0,0,1,1.63,1.6ZM529.79,425a1.61,1.61,0,0,1-1.6,1.63l-3.2,0a1.61,1.61,0,0,1-1.63-1.6l0-4.68a1.61,1.61,0,0,1,1.6-1.63l3.2,0a1.61,1.61,0,0,1,1.63,1.6Zm10.64,79a1.61,1.61,0,0,1-1.6,1.63l-3.2,0A1.61,1.61,0,0,1,534,504l0-4.68a1.61,1.61,0,0,1,1.6-1.63l3.2,0a1.61,1.61,0,0,1,1.63,1.6Zm5.68-79.15a1.61,1.61,0,0,1-1.6,1.63l-3.2,0a1.61,1.61,0,0,1-1.63-1.6l0-4.68a1.61,1.61,0,0,1,1.6-1.63l3.2,0a1.61,1.61,0,0,1,1.63,1.6Zm9.65,79a1.61,1.61,0,0,1-1.6,1.63l-3.2,0a1.61,1.61,0,0,1-1.63-1.6l0-4.68a1.61,1.61,0,0,1,1.6-1.63l3.2,0a1.61,1.61,0,0,1,1.63,1.6Zm5.18-79.15a1.61,1.61,0,0,1-1.6,1.63l-1.71,0a1.61,1.61,0,0,1-1.63-1.6l0-4.68a1.61,1.61,0,0,1,1.6-1.63l1.71,0a1.61,1.61,0,0,1,1.63,1.6Z"/><path class="cls-26" d="M324.55,494.53l-50.42.48-1.56-60.3,51.94-.49a5.89,5.89,0,0,1,5.95,5.83l.45,48A6.43,6.43,0,0,1,324.55,494.53Z"/><rect class="cls-34" x="343.04" y="433.67" width="80.08" height="60.31" rx="7.45" ry="7.45" transform="translate(-4.38 3.65) rotate(-0.54)"/><rect class="cls-35" x="435.47" y="431.81" width="78.11" height="61.3" rx="7.45" ry="7.45" transform="translate(-4.36 4.51) rotate(-0.54)"/><path class="cls-36" d="M562.08,493.52l-29.82.28a8.06,8.06,0,0,1-8.08-8l-.44-46.1a7.76,7.76,0,0,1,7.62-7.89L561,431Z"/><path class="cls-26" d="M583.41,465.87c-1,4.2-4.27,6.86-7.53,9.73l4.29,2.12a17.52,17.52,0,0,0,5.23-10.93Z"/><ellipse class="cls-26" cx="586.39" cy="463.6" rx="5.92" ry="6.11" transform="translate(118.2 1046.34) rotate(-89.55)"/><path class="cls-37" d="M592.86,457.6c0,1.46-1.62,2.64-3.59,2.62a4.65,4.65,0,0,1-.82-.08,10.56,10.56,0,0,1-3.72,1.63,3.08,3.08,0,0,1-.64,3.87s-1.27-.48-1.33.78c0,0-.32,1.26,1.46,1.54l-1,.78s-1.74-.2-2.82-3.42a4.87,4.87,0,0,1-.19-4,1.23,1.23,0,0,1-.62-1.05,1.32,1.32,0,0,1,1-1.21.87.87,0,0,1-.06-.32c0-.72.83-1.3,1.85-1.29a2.38,2.38,0,0,1,1,.21,1.18,1.18,0,0,1,0-.2,2,2,0,0,1,2.25-1.67,2.77,2.77,0,0,1,.88.14,4.09,4.09,0,0,1,2.84-1C591.28,454.93,592.87,456.13,592.86,457.6Z"/><path class="cls-37" d="M583.06,505l26.63,8.1s19.27,7.65-5.49,39.86a1.68,1.68,0,0,1-1.42.66h0a1.8,1.8,0,0,1-1.54-2.37c1.34-4.22,4.13-13.38,4.88-18.66,0,0,4.24-19.49-29.63-7.55Z"/><path class="cls-37" d="M593.26,509c-.91,13-47.21,36.33-70.65,43h0s-1.29,0-1.62-.88a1.57,1.57,0,0,1,.5-1.59l0,0h0c19.55-10.22,34.87-20.6,45.89-32.91a13.29,13.29,0,0,1,8.12-3.93l8.38-.33C586.77,512.21,593.26,509,593.26,509Z"/><path class="cls-38" d="M581.09,475l-1.93-.46a5,5,0,0,0-6,4.29c-.51,3.36-.43,8.28,1.85,14.71,0,0,2.28,13.37-6.57,22.05,0,0,6.46,3.92,13.39,3.59,3.1-.15,5.43-1.33,8.22-3.89a11.91,11.91,0,0,0,3.54-7.18,21.81,21.81,0,0,0-4.16-15.1,10.21,10.21,0,0,1-.82-1.4c-1.36-2.74-5.39-11.09-5.95-14.9A2,2,0,0,0,581.09,475Z"/><g class="cls-39"><g class="cls-40"><g class="cls-41"><polygon class="cls-34" points="577.11 423.8 514.44 501.84 528.67 504.88 589.31 428.72 577.11 423.8"/><polygon class="cls-34" points="594.13 434.44 538.66 505.18 542.62 506.65 598.47 434.57 594.13 434.44"/></g></g></g><path class="cls-26" d="M581.1,481.08c-9.89,14.67-33.24,27.47-50,35.4a1.35,1.35,0,0,1-.92-2.31c14.62-11.57,35.32-24.71,43.57-37.48a3.65,3.65,0,0,1,4.94-1.22l1.41.83A3.38,3.38,0,0,1,581.1,481.08Z"/><path class="cls-31" d="M246.31,458.74c2.94,4.4,2.45,9.75,3.24,14.87l5-1.43a30.72,30.72,0,0,0-4.32-14.52Z"/><path class="cls-42" d="M567.51,486.07s.7,2.2,3.94,5.41a33.45,33.45,0,0,0,6.48-5.92,36.75,36.75,0,0,0,3.94-5.56s1.15-3.53-2.06-4.84c0,0-3.2-1.74-5.41.5l-7.58,8.81S567.27,485.45,567.51,486.07Z"/><path class="cls-26" d="M251.06,461.54h0a4.64,4.64,0,0,1-6-2.56l-1.61-4a4.54,4.54,0,0,1,2.6-5.91h0a4.64,4.64,0,0,1,6,2.56l1.61,4A4.54,4.54,0,0,1,251.06,461.54Z"/><path class="cls-33" d="M245.45,454.34s.94,2.89-.6,3.7c0,0-.61.34-2.24-4.15,0,0-.95-1.95-.33-2.63,0,0-2.34-2.09,3.62-4.37,0,0,3.14-.87,3.93-1.67,0,0,1.07-1.17,1,0,0,0,1.9,1.16-.16,4.47,0,0-4,2-6.27,1.83A25.56,25.56,0,0,1,245.45,454.34Z"/><path class="cls-26" d="M253,524.16c15.52.42,37.94,4.21,49.07,24.8a1.17,1.17,0,0,0,2.17-.77c-3.76-20.82-27.69-32-38.47-37.36l-14.79-5s-5.3,4.36-1,10.78C250,516.67,250.38,521.87,253,524.16Z"/><path class="cls-26" d="M268.74,513.11c-8.91,19.19-28.14,30-56.7,35.2a1.36,1.36,0,0,1-.73-2.61c22.86-9,39.51-22.83,40.71-35.35a.65.65,0,0,1,.76-.6l15.46,2.42A.67.67,0,0,1,268.74,513.11Z"/><path class="cls-8" d="M242.63,526.73s1.41,3.58,8.53,7c0,0,7.94-5.12,11.35-10.94l-12-8.21S250.57,518.62,242.63,526.73Z"/><path class="cls-14" d="M251.6,505.1a12,12,0,0,0-3.29,5.17,8.85,8.85,0,0,0,2.43,7.49,23.4,23.4,0,0,0,10.64,7s6.95.92,10.62,1.92a44.11,44.11,0,0,1,4.81,1.5s1.69-8.86,5.34-8.32c0,0-9.61-6.38-15-8.48Z"/><path class="cls-35" d="M245.1,470.18l10.41-1.89c8.3-1.51,16.49,6.17,17.67,14.78a48.54,48.54,0,0,1-4.46,29.19c-14.36,1.94-17.78-6.49-17.78-6.49s2-13.42-8.77-27.92A4.86,4.86,0,0,1,245.1,470.18Z"/><path class="cls-26" d="M293.28,513.13c-.06,1.14-1.67,1-1.67,1h0c-8.53-.72-42.94-21.6-50.41-34.6a9.32,9.32,0,0,1-.91-5.1,3.75,3.75,0,0,1,.18-.64l.34-.88a3.41,3.41,0,0,1,1.17-1.56,7.47,7.47,0,0,1,9,.41c14.73,19.82,28.41,31,41.83,40.06A1.71,1.71,0,0,1,293.28,513.13Z"/><g class="cls-43"><g class="cls-44"><g class="cls-41"><polygon class="cls-34" points="499.67 421.85 437 499.88 451.23 502.92 511.88 426.76 499.67 421.85"/><polygon class="cls-34" points="516.7 432.49 461.23 503.22 465.18 504.69 521.03 432.62 516.7 432.49"/></g></g></g><g class="cls-45"><g class="cls-41"><polygon class="cls-34" points="400.52 417.02 337.85 495.06 352.08 498.1 412.73 421.94 400.52 417.02"/><polygon class="cls-34" points="417.55 427.67 362.07 498.4 366.03 499.87 421.88 427.8 417.55 427.67"/></g></g><g class="cls-39"><g class="cls-46"><g class="cls-41"><polygon class="cls-34" points="317.69 418.21 255.01 496.24 269.25 499.29 329.89 423.12 317.69 418.21"/><polygon class="cls-34" points="334.71 428.85 279.24 499.58 283.2 501.05 339.04 428.98 334.71 428.85"/></g></g></g><path class="cls-5" d="M483.08,221.19c-3.35-13-7.73-24.89-16.65-33.27h0s-6.51-6.59-15-8.92l-.05.37c-3.43-8.67-6.47-18.78-6.1-25a2.79,2.79,0,0,0-.12-1c2.37-14.54-4.5-36.75-7.16-52.6a1.93,1.93,0,0,0-1.23-.45,1.62,1.62,0,0,0-1.19.88h0c.16,20.33,2.5,40.75-6.2,45.94l-.36.13c-.5.2-1,.42-1.45.66a7.32,7.32,0,0,1-.78.18h0c-12.35,0-35.85-3.81-44.84-29.15a1.06,1.06,0,0,0-1-.58,1.22,1.22,0,0,0-1.28,1.29c1.39,19.79,18,32.94,43.22,42.76.08,7.53,3.23,15.78,7.75,24.34l-.4-.28s-.24.39-.62,1.07h0l-.07.14-.5.92-.4.78-.26.52-.3.62a45.59,45.59,0,0,0-1.93,4.7l-.29,1.08c-3.57,11.83-1.24,23.82,5.75,36.55a1.2,1.2,0,0,0,1.53.23,1.24,1.24,0,0,0,.69-.95c-2.78-11-3.25-20.32-1.06-27.65l0,0a31.32,31.32,0,0,1,4.65-8.79l1.77-1.85,3.23-.71a14,14,0,0,1,2,4.46,4.53,4.53,0,0,0-2,5.57l.73,1.8c1,2.36,5.44,3.52,8,2.57,0,0,4.11-2.51,2.84-6.63l-.73-1.8a4.9,4.9,0,0,0-6-2.66,7.78,7.78,0,0,1-.2-4.32l2.66-.58a46.16,46.16,0,0,1,9.84,4.08c8.75,5.57,15.46,15.08,21.32,26.23a1.09,1.09,0,0,0,.53.49h0A1.1,1.1,0,0,0,483.08,221.19Z"/><g class="cls-47"><path class="cls-48" d="M433,220.29l-8.1,79s-1.84,13.74,10.89,11.18l89.39-36.61s9.76-4.5-2.56-12.23L456,222l-14.28-7.22S433.39,210,433,220.29Z"/></g><path class="cls-35" d="M420.07,197.67l-8.1,79s-1.84,13.74,10.89,11.18l89.39-36.61s9.76-4.5-2.56-12.23l-66.55-39.59-14.28-7.22S420.47,187.37,420.07,197.67Z"/><path class="cls-26" d="M437.74,196.14c-2.61.73-7-.82-7.73-3.25l-.58-1.86a4.6,4.6,0,0,1,3.35-5.72l1.69-.47a4.93,4.93,0,0,1,6.09,3.08l.58,1.86C442,194,437.74,196.14,437.74,196.14Z"/><path class="cls-49" d="M434.3,138.43c1.42,4.18-2.35,9-8.41,10.82s-12.13-.13-13.55-4.31,2.35-9,8.41-10.82S432.89,134.25,434.3,138.43Z"/><path class="cls-33" d="M436.28,141.82l-17.81-7c11-.93,15.89-26,17.6-48.14h0a1.62,1.62,0,0,1,1.26-.77,1.93,1.93,0,0,1,1.19.56C439.83,102.52,439.94,127.56,436.28,141.82Z"/><path class="cls-33" d="M422.37,135c-10.47-.23-38.46-4-46.06-33.09a1.06,1.06,0,0,0-.94-.66h0a1.22,1.22,0,0,0-1.38,1.17c-.31,20.26,15.82,35,41,47.05Z"/><path class="cls-50" d="M424.76,181.76l14.33-1.86a4.17,4.17,0,0,0,3.61-4.29,1.92,1.92,0,0,0-.08-.58c-3.53-9.88-7.4-24.6-6.26-32.44.24-1.64-1-3.14-2.55-3.82-4-1.79-6.39-1.19-8.08-.63l-.38.11-1.77.41c-6.53,1.5-11.9,3.43-10.17,9.94-.73,9.25,3.1,20,8.4,31.18A2.7,2.7,0,0,0,424.76,181.76Z"/><path class="cls-26" d="M426.43,181.89c-8.6,7.3-10.88,19.95-8.07,37.26a1.24,1.24,0,0,1-.77.89,1.2,1.2,0,0,1-1.51-.36c-7.33-16.57-7.56-31.36,1.88-45.31a.82.82,0,0,1,1.22-.15l7.27,6.51A.77.77,0,0,1,426.43,181.89Z"/><path class="cls-26" d="M432.29,188.56a17.62,17.62,0,0,0-2.12-7.74,2.51,2.51,0,0,1,1.94-3.12h0a2.5,2.5,0,0,1,3,2.56c-.85,1.81-.41,4.21.48,7.76Z"/><path class="cls-20" d="M430.25,194.17s3,2.84,9.85-1.1a7.38,7.38,0,0,1,1.66-.35.85.85,0,0,0,.82-.88c-.09-1.45-.46-4-2-4.6l-.45-.43s-1.31-4.12-6.69-2.51c0,0-4.22,1.12-4.47,3.73a5.74,5.74,0,0,0,.34,3.59A3.1,3.1,0,0,0,430.25,194.17Z"/><path class="cls-26" d="M440.4,167.61l-2.63,12.29c13.49,4.65,21.84,17.44,28.41,33a1.09,1.09,0,0,0,.49.54h0a1.1,1.1,0,0,0,1.62-1.13C465.07,193.16,459.51,176.24,440.4,167.61Z"/><path class="cls-33" d="M448,185.13s6.1-6.74,6.53-7.36c0,0-5.93-7.12-14.14-10.16L437.59,180a45.32,45.32,0,0,1,10.13,5.35Z"/><path class="cls-33" d="M413.32,187.53c.12.15,6.39,4,6.39,4a31.32,31.32,0,0,1,5.38-8.36l2.6-2.29-9-7.55a49.42,49.42,0,0,0-4.82,8.39s-1.5,4-1.67,4.94Z"/><ellipse class="cls-20" cx="449.54" cy="34.11" rx="0.79" ry="1.16"/><path class="cls-20" d="M474.88,86.87l-5.55,21.75a1.52,1.52,0,0,1-1.25.73,1.28,1.28,0,0,1-1.22-1.17h0l-.15-12.25c.44-9.74-4.21-8-4.21-8H445.81a24.72,24.72,0,0,1-5.52.47c-14.45,0-21.57-13.48-21.57-13.48-4.5-7-6.42-4-6.42-4-.79.73-.14,10.88.39,15.45,0,.21-.07,1.7-1.06,1.71a1.72,1.72,0,0,1-1.46-.79c-5.47-15-3.85-23.61-3.85-23.61,1.62-7.6,8.27-3.25,8.27-3.25L441.53,76l11.59-.37C476.9,73.32,474.88,86.87,474.88,86.87Z"/><path class="cls-25" d="M429.05,44.77l24.19,2.73a1.42,1.42,0,0,1,1.21,1.76l-9.05,35.42a6.53,6.53,0,0,1-6.48,4.91l-2.51-.06a7.32,7.32,0,0,1-7.15-7l-1.8-36.33A1.42,1.42,0,0,1,429.05,44.77Z"/><path class="cls-31" d="M443.32,37.69c-1.48,3.48-3,6.69-4.52,8.16-1.6,4,2.21,4,2.21,4,1.24.29,3.38-1.6,3.54-2.66A69.91,69.91,0,0,1,445.76,38a.52.52,0,0,0-.54-.54l-1.35-.06A.61.61,0,0,0,443.32,37.69Z"/><path class="cls-26" d="M458.22,59,439.63,90.46a1.77,1.77,0,0,1-1.77.3,1.37,1.37,0,0,1-.7-1.59h0L448.77,47l7.19.86C460.65,48.51,459.86,56.07,458.22,59Z"/><path class="cls-26" d="M436.71,88.59a1.69,1.69,0,0,1-1,1.38,1.09,1.09,0,0,1-1.3-.43L422,53.76c-.61-2.33.59-9,5.56-9.12l6,.67Z"/><path class="cls-51" d="M445.06,61.47l9.61,3.63s3.27-5.62,3.68-6.28a12.37,12.37,0,0,0,.94-7.78s-.3-3.63-5.37-3.63L448.77,47l-4,14.37Z"/><path class="cls-51" d="M425.37,61.47l9.27-2.1-1-14.06-5.89-.7s-3-.35-4.82,3.23a10.09,10.09,0,0,0-1,5.7l2.81,8.1Z"/><ellipse class="cls-20" cx="447.83" cy="31.44" rx="2.93" ry="2.86"/><ellipse class="cls-20" cx="443.68" cy="31.39" rx="1.86" ry="1.34"/><ellipse class="cls-20" cx="442.03" cy="32.28" rx="0.61" ry="0.46"/><path class="cls-26" d="M449.86,35.8c0,2.23-2.73,4.11-5.42,3.87S439.8,38,439.8,35.8s1.47-4.44,6.11-3.71C448.65,32.53,449.86,33.57,449.86,35.8Z"/><path class="cls-52" d="M436.36,95.13a.06.06,0,0,1-.06,0C436.24,95.17,436.27,95.16,436.36,95.13Z"/><g class="cls-53"><g class="cls-54"><polygon class="cls-55" points="481.03 183.22 384.83 279.52 397.21 290.08 489.56 201.88 493.28 203.69 401.38 294.56 404.85 297.13 509.51 193.08 481.03 183.22"/></g></g><g class="cls-56"><path class="cls-5" d="M765,260.19h.46v-4.3H760c-.54-6.22-.81-12.56-.86-19a15.42,15.42,0,0,0,1.28-1c-2.07-2.45-.57-18.92-.52-19.47.73-3.42.12-10.35-.88-16.46,3.14-6.1-1-9.73-2.72-10.93,0-.08-.09-.17-.13-.24a7.9,7.9,0,0,0-2.36-1.61,12.45,12.45,0,0,0-1-3s-1.72-2-1.69-3.2c0,0,.86-4.25-.86-6.5a5.69,5.69,0,0,0-2.79-2.26,2.92,2.92,0,0,0-2.92-2,2.8,2.8,0,0,0-3,2.57,2.22,2.22,0,0,0,0,.42,5.9,5.9,0,0,0-2.21,4.61,5.24,5.24,0,0,0,2.87,5.13,2.47,2.47,0,0,0-.09.47c-.06.62-.14,1.69-.17,2.69-1.44.16-2.61.37-3.3.51a1.41,1.41,0,0,0-.36.13s0-.1,0-.14a80.9,80.9,0,0,1-11.18-11h0q-1-1.1-2-2.27l-.14-.17-1.9-2.25-.26-.32L721,168.36l-.38-.47-1.77-2.2-.49-.61-1.73-2.19-.57-.73L714.34,160l-.66-.84-1.76-2.29-.63-.83-2.43-3.2a1.25,1.25,0,0,0-1-.28L700.55,137l7.52-11.17-1-1.61-20.15,12,1,1.61,11,.17,8.43,17.4q.89,2.07,1.8,4.1l.52,1.17q1.17,2.6,2.36,5.14l.47,1q1.06,2.25,2.15,4.45l.48,1q1.2,2.41,2.43,4.75l.66,1.26c.83,1.58,1.67,3.14,2.52,4.67h0c3,5.4,6.12,10.51,9.38,15.29l0,.07a2,2,0,0,0,.31.32,2.31,2.31,0,0,0,.07.57,3.31,3.31,0,0,1-.49,3.12l-.12.14c-5.74,7.93-3.8,13-3.8,13l.13.16a14.36,14.36,0,0,0-9.82,6.42h0c-4.6,5.41-7.75,15.26-.83,32.85a1.28,1.28,0,0,0,2.47-.44c.11-7,1.89-17.43,10.76-21.33A27.54,27.54,0,0,0,741,240.33a137.59,137.59,0,0,0,6.34,15.56H710.92v4.3h.74l-13.36,276,6.19.11,2.82-41.41H785.1l3.52,41.33,6.18-.26Zm-47.15,0h31.66a138.35,138.35,0,0,0,10.76,17.26,1.42,1.42,0,0,0,.5.42V278H717.05Zm-1,22.07h44.41L764,307h-48.3Zm-1.31,29.07h49l3.26,29.07H714.25Zm-1.5,33.37h54.22l3.38,30.15h-59Zm-1.55,34.45h59.63l3.56,31.76H711.07Zm-1.62,36.06h65.29l3.92,35H709.31Zm-3.39,75.36,1.62-36.07h71.46l4,36.07Z"/></g><g class="cls-57"><path class="cls-58" d="M765,260.19h.46v-4.3H760c-.54-6.22-.81-12.56-.86-19a15.42,15.42,0,0,0,1.28-1c-2.07-2.45-.57-18.92-.52-19.47.73-3.42.12-10.35-.88-16.46,3.14-6.1-1-9.73-2.72-10.93,0-.08-.09-.17-.13-.24a7.9,7.9,0,0,0-2.36-1.61,12.45,12.45,0,0,0-1-3s-1.72-2-1.69-3.2c0,0,.86-4.25-.86-6.5a5.69,5.69,0,0,0-2.79-2.26,2.92,2.92,0,0,0-2.92-2,2.8,2.8,0,0,0-3,2.57,2.22,2.22,0,0,0,0,.42,5.9,5.9,0,0,0-2.21,4.61,5.24,5.24,0,0,0,2.87,5.13,2.47,2.47,0,0,0-.09.47c-.06.62-.14,1.69-.17,2.69-1.44.16-2.61.37-3.3.51a1.41,1.41,0,0,0-.36.13s0-.1,0-.14a80.9,80.9,0,0,1-11.18-11h0q-1-1.1-2-2.27l-.14-.17-1.9-2.25-.26-.32L721,168.36l-.38-.47-1.77-2.2-.49-.61-1.73-2.19-.57-.73L714.34,160l-.66-.84-1.76-2.29-.63-.83-2.43-3.2a1.25,1.25,0,0,0-1-.28L700.55,137l7.52-11.17-1-1.61-20.15,12,1,1.61,11,.17,8.43,17.4q.89,2.07,1.8,4.1l.52,1.17q1.17,2.6,2.36,5.14l.47,1q1.06,2.25,2.15,4.45l.48,1q1.2,2.41,2.43,4.75l.66,1.26c.83,1.58,1.67,3.14,2.52,4.67h0c3,5.4,6.12,10.51,9.38,15.29l0,.07a2,2,0,0,0,.31.32,2.31,2.31,0,0,0,.07.57,3.31,3.31,0,0,1-.49,3.12l-.12.14c-5.74,7.93-3.8,13-3.8,13l.13.16a14.36,14.36,0,0,0-9.82,6.42h0c-4.6,5.41-7.75,15.26-.83,32.85a1.28,1.28,0,0,0,2.47-.44c.11-7,1.89-17.43,10.76-21.33A27.54,27.54,0,0,0,741,240.33a137.59,137.59,0,0,0,6.34,15.56H710.92v4.3h.74l-13.36,276,6.19.11,2.82-41.41H785.1l3.52,41.33,6.18-.26Zm-47.15,0h31.66a138.35,138.35,0,0,0,10.76,17.26,1.42,1.42,0,0,0,.5.42V278H717.05Zm-1,22.07h44.41L764,307h-48.3Zm-1.31,29.07h49l3.26,29.07H714.25Zm-1.5,33.37h54.22l3.38,30.15h-59Zm-1.55,34.45h59.63l3.56,31.76H711.07Zm-1.62,36.06h65.29l3.92,35H709.31Zm-3.39,75.36,1.62-36.07h71.46l4,36.07Z"/></g><rect class="cls-37" x="709.92" y="248.89" width="54.54" height="4.3"/><rect class="cls-37" x="711.54" y="270.95" width="52.38" height="4.3"/><rect class="cls-37" x="709.16" y="300.02" width="57.99" height="4.3"/><rect class="cls-37" x="710.77" y="333.39" width="57.99" height="4.3"/><rect class="cls-37" x="709.02" y="367.84" width="63.74" height="4.3"/><rect class="cls-37" x="709.02" y="403.9" width="67.08" height="4.3"/><rect class="cls-37" x="707.4" y="443.2" width="73.41" height="4.3"/><rect class="cls-37" x="704.71" y="483.57" width="82.18" height="4.3"/><polygon class="cls-37" points="704.48 536.11 698.29 536 710.79 250.34 716.98 250.45 704.48 536.11"/><polygon class="cls-37" points="794.8 535.77 788.62 536.02 757.39 249.61 763.57 249.35 794.8 535.77"/><path class="cls-37" d="M706.37,123.58l1,1.61-6.41,10.32,8.86,14.93a.94.94,0,1,1-1.61,1l-8.86-14.93-12.13.68-1-1.61Z"/><path class="cls-26" d="M725.18,208.77c-.8.19-23.57,5.85-10.52,39a1.28,1.28,0,0,0,2.47-.44c.16-9.84,3.55-26.19,25-22.31a0,0,0,0,0,0-.08l-16.95-16.18Z"/><path class="cls-26" d="M736.39,220.84a137.94,137.94,0,0,0,22.88,49.6,1.43,1.43,0,0,0,2.56-1.12c-3.81-18.86-4.42-39.24-3.18-60.48a.69.69,0,0,0-1-.64l-20.91,11.87A.69.69,0,0,0,736.39,220.84Z"/><path class="cls-37" d="M725.58,208.47s29.83,3.89,33.28.92c0,0-1.59,17,.52,19.5,0,0-16.92,15.07-34.76-6.42,0,0-7.61-8.11-9.15-7.53A14.31,14.31,0,0,1,725.58,208.47Z"/><path class="cls-37" d="M757.48,193.86l-3-12.28S762.48,185.63,757.48,193.86Z"/><path class="cls-59" d="M737.67,179.58c2.74-.54,13.15-2.22,17.45,2.21,2.06,3.07,6.08,27,2.83,29.54-3,4.13-8.64,6.77-8.78,6.84-3.87,1.94-15.24,1.68-24-9.81,0,0-1.94-5.06,3.8-13l.12-.14a3.31,3.31,0,0,0,.49-3.12c-.53-2.18,1.8-1.92,7.13-11.8A1.42,1.42,0,0,1,737.67,179.58Z"/><path class="cls-26" d="M750.18,170.77c0,3.27-2.66,6.2-5.91,5.91-4.22-.37-5.91-2.65-5.91-5.91a5.91,5.91,0,0,1,11.82,0Z"/><path class="cls-37" d="M750.89,191.1c-2.28,3.39-3.3,1.42-3.3,1.42-.31-.68-3.42-1.79-3.42-1.79-5.05-2.14-4-7.46-3.18-10.09a29.57,29.57,0,0,1,.15-4.26,2.51,2.51,0,0,1,.28-1l1.59-3.05a9.76,9.76,0,0,1-1-4.39,2.53,2.53,0,0,1-1.53-2.24,2.8,2.8,0,0,1,3-2.57,2.92,2.92,0,0,1,2.92,2,5.69,5.69,0,0,1,2.79,2.26c1.72,2.25.86,6.5.86,6.5,0,1.17,1.69,3.2,1.69,3.2C755,184,750.89,191.1,750.89,191.1Z"/><path class="cls-37" d="M736.52,186.51l0,0c-2.43,4.73-5.89,6.54-7.32,4.66l0-.07c-8.62-12.67-16.3-27.64-23.35-44.12h0a1.38,1.38,0,0,1,.75-1.37,1.15,1.15,0,0,1,1.34.16c12.43,16.5,22.76,28.81,29.42,33.75A12.84,12.84,0,0,1,736.52,186.51Z"/><g class="cls-60"><path class="cls-26" d="M719.53,184.15c-.76-8.87.73-15.62,9-15.89l-19.32-26.19-13.31,5.15Z"/></g><path class="cls-5" d="M728.7,111.95S713,113,690,121.63c-19.52,7.28-23.64,12.83-23.64,12.83s15.9-6.92,38.15,1.66C705.26,136.2,715.31,113.55,728.7,111.95Z"/><path class="cls-61" d="M728.7,111.95s-11.57-1.57-39.14,7.68c-19.75,6.63-23.22,14.83-23.22,14.83s13.49-10.88,37.89-5.58C705,129,712,114.89,728.7,111.95Z"/></g></g></g></svg>