<?xml version="1.0" encoding="utf-8"?>
<!-- Generator: Adobe Illustrator 21.0.0, SVG Export Plug-In . SVG Version: 6.00 Build 0)  -->
<svg version="1.1" id="Layer_2" xmlns="http://www.w3.org/2000/svg" xmlns:xlink="http://www.w3.org/1999/xlink" x="0px" y="0px"
	 viewBox="0 0 744 232" style="enable-background:new 0 0 744 232;" xml:space="preserve">
<style type="text/css">
	.st0{clip-path:url(#SVGID_2_);}
	.st1{fill:#CECECE;}
</style>
<g>
	<g>
		<defs>
			<rect id="SVGID_1_" y="-1" width="744" height="233"/>
		</defs>
		<clipPath id="SVGID_2_">
			<use xlink:href="#SVGID_1_"  style="overflow:visible;"/>
		</clipPath>
		<g class="st0">
			<g>
				<path class="st1" d="M-96.8,140.7H-72l43.7-104h-0.3H-72v-1.5h42.9L-44-0.4l1.3-0.5l15.1,36.1l13.6-33l-1-2.5l1.3-0.5l0.5,1.3
					l0.5-1.3l1.3,0.5l-1,2.5l13.6,33L16.3-0.9l1.3,0.5L2.7,35.2h39.9v1.5H2.2H1.9l43.7,104h23.7v1.5H46.1l10.1,24.2h22.7v1.5H56.7
					l10.6,25.2H82v1H67.8l15.7,37.4l-1.3,0.5l-15.7-37.9H38.8l15.7,37.4l-1.3,0.5l-15.7-37.9H-63.9L-79.6,232l-1.3-0.5l15.7-37.4
					H-93l-15.7,37.9l-1.3-0.5l15.7-37.4h-16.2v-1h16.7l10.6-25.2h-21.5v-1.5h22l10.1-24.2h-24.2V140.7z M-55.4,170.8L-92,192
					l-0.5,1.3h1.8l34.3-19.9L-55.4,170.8z M-54.1,168h-1.5l-34.6,19.7l-1,2.5l36.6-21.2L-54.1,168z M-61.2,168l-27.3,15.7l-1,2.5
					l31.6-18.2H-61.2z M-57.1,175.1l-31.3,18.2h3.3l27-15.9L-57.1,175.1z M-66.7,168l-19.9,11.6l-1,2.3l24.2-13.9L-66.7,168
					L-66.7,168z M-72,168l-12.9,7.3l-1,2.5L-69,168H-72z M-77.6,168l-5.6,3.3l-1,2.3l9.8-5.6H-77.6z M-58.9,179.1l-24,14.1h3
					l19.9-11.6L-58.9,179.1z M-81.9,168l-0.5,1.5l2.5-1.5H-81.9z M-43.5,142.3H-44L-79.6,163l-1.3,2.3l36.6-21.2L-43.5,142.3z
					 M-45,145.8l-35.8,20.7h3.3l31.6-18.2L-45,145.8z M-49.3,142.3l-28.8,16.4l-1,2.5l32.8-18.9H-49.3z M-60.7,183.4l-16.9,9.8h3.3
					l12.6-7.6C-61.4,184.9-60.9,184.2-60.7,183.4z M-54.8,142.3l-21.5,12.4l-1,2.3l25.7-14.6L-54.8,142.3L-54.8,142.3z M-60.4,142.3
					l-14.1,8.1l-1,2.5l18.4-10.6H-60.4z M-46.8,150.1l-28.5,16.4h3l24.5-14.1L-46.8,150.1z M-65.7,142.3l-7.1,4l-1,2.3l11.1-6.3
					H-65.7z M-71,142.3l-1,2.3l4-2.3H-71z M-62.4,187.4l-9.6,5.8h3l5.6-3.3L-62.4,187.4z M-32.9,116.8L-69.2,138l-1,2.3l36.3-21.2
					L-32.9,116.8z M-48.5,154.1L-70,166.5h3.3l17.2-9.8L-48.5,154.1z M-34.4,120.8L-69,140.7h3l30.5-17.4L-34.4,120.8z M-31.1,112.5
					l-36.3,21.2l-1,2.5l36.3-21.2L-31.1,112.5z M-29.4,108.4l-36.3,21.2l-1,2.3l36.3-21.2L-29.4,108.4z M-66.7,193.2h2l0.5-1.5
					L-66.7,193.2z M-27.6,104.1l-36.3,21.2l-1,2.5l36.3-21.2L-27.6,104.1z M-50.1,158.4l-14.4,8.1h3.3l10.1-5.8L-50.1,158.4z
					 M-36.2,125.1l-27.5,15.7h3.3l23.2-13.4L-36.2,125.1z M-25.8,100.1l-36.6,21.2l-1,2.3l36.6-21L-25.8,100.1z M37,193.2L26.4,168
					h-79.3l-10.6,25.2H37z M-24.1,95.8L-60.7,117l-1,2.5l36.6-21.2L-24.1,95.8z M-22.3,91.8L-58.9,113l-1,2.3l36.6-21L-22.3,91.8z
					 M-51.8,162.4l-7.1,4h3l3-1.5L-51.8,162.4z M-20.5,87.5l-36.6,21.2l-1,2.5L-21.5,90L-20.5,87.5z M-37.9,129.1l-20.2,11.6h3.3
					l15.9-9.1L-37.9,129.1z M-18.8,83.4l-36.6,21.2l-1,2.3l36.6-21L-18.8,83.4z M-17,79.1l-36.6,21.2l-1,2.5l36.3-21.2L-17,79.1z
					 M-15.5,75.1l-36.3,21.2l-1,2.3l36.3-21L-15.5,75.1z M-39.7,133.4l-12.9,7.3h3l8.8-5L-39.7,133.4z M-8.1,142.3h-3l-40.6,23.5
					l-0.5,0.8h2L-8.1,142.3z M-14,71.6v-0.5l-36.1,21l-1,2.5l36.3-21.2L-14,71.6z M-16.7,142.3L-50,161.5l-1,2.5l37.6-21.7H-16.7z
					 M-15.2,68.5L-48.3,88l-1,2.3l34.8-20.2L-15.2,68.5z M-22,142.3l-26.3,15.1l-1,2.3l30.3-17.4L-22,142.3L-22,142.3z M-2.6,142.3
					h-3.3L-48,166.5h3L-2.6,142.3z M-16.2,66l-30.3,17.7l-1.3,2.5l32.3-18.7L-16.2,66z M-27.6,142.3l-18.9,10.9l-1,2.5l23.2-13.4
					H-27.6z M-41.5,137.5l-5.8,3.3h3.3l1.5-0.8L-41.5,137.5z M-17.2,63.5L-45,79.7l-1,2.3l29.5-17L-17.2,63.5z M-33.1,142.3
					l-11.9,6.8l-1,2.3l16.2-9.1H-33.1z M-18.2,61l-25,14.4l-1,2.5l26.5-15.4L-18.2,61z M-38.4,142.3l-4.8,2.5l-1,2.5l8.8-5H-38.4z
					 M2.7,142.3h-3l-42.4,24.2h3.3L2.7,142.3z M-19.3,58.4l-22.2,12.9l-1,2.3L-18.8,60L-19.3,58.4z M-42,142.3l-0.5,0.8l1.8-0.8H-42
					z M15.1,140.7L-13.2,73l-28.3,67.7H15.1z M-20.5,55.9L-39.7,67l-1,2.5l21-12.1L-20.5,55.9z M-21.5,53.4L-37.9,63
					c-0.3,0.8-0.8,1.5-1,2.3L-20.7,55L-21.5,53.4z M-22.5,50.9l-13.6,7.8l-1,2.5l15.1-8.8L-22.5,50.9z M8.3,142.3H5l-42.2,24.2h3.3
					L8.3,142.3z M-23.5,48.4l-10.9,6.3l-1,2.3l12.4-7.1L-23.5,48.4z M-24.6,45.8l-8.1,4.5l-1,2.5l9.6-5.6L-24.6,45.8z M-25.8,43.3
					l-5,3l-1,2.3l6.8-3.8L-25.8,43.3z M13.8,142.3h-3.3l-42.2,24.2h3L13.8,142.3z M-26.8,40.8l-2.5,1.3l-1,2.5l4.3-2.5L-26.8,40.8z
					 M-27.6,38.5l-1,1.8l1.3-0.8L-27.6,38.5z M-22,36.7h-3.3l-1.5,0.8L-26,39L-22,36.7z M-0.1,35.2L-13.2,3.7l-13.1,31.6L-0.1,35.2
					L-0.1,35.2z M16.3,143.8l-0.8-1.5l-41.9,24.2h3.3L16.3,143.8z M-16.5,36.7h-3.3l-5.8,3.3l0.5,1.5L-16.5,36.7z M-11.2,36.7h-3
					l-10.3,5.8L-24,44L-11.2,36.7z M-5.6,36.7h-3.3L-23.5,45l0.5,1.5L-5.6,36.7z M-0.3,36.7h-3l-19.2,10.9l0.8,1.5L-0.3,36.7z
					 M-0.8,40l1-2.5l-21.7,12.6l0.8,1.5L-0.8,40z M17.3,146.3l-0.5-1.5l-37.6,21.7h3L17.3,146.3z M-2.3,44.3l1-2.5l-18.9,10.9
					l0.5,1.5L-2.3,44.3z M-4.1,48.4l1-2.5l-16.2,9.3l0.5,1.5L-4.1,48.4z M-5.9,52.6l1-2.5l-13.4,7.8l0.5,1.3L-5.9,52.6z M-7.6,56.7
					c0.3-0.8,0.8-1.8,1-2.5l-10.6,6.3l0.8,1.3L-7.6,56.7z M-9.4,61l1-2.5l-7.8,4.5l0.8,1.5L-9.4,61z M18.4,148.8l-0.5-1.5
					l-33.3,19.2h3.3L18.4,148.8z M-11.2,65l1-2.5l-4.8,3l0.5,1.5L-11.2,65z M-12.9,69.3l1-2.5l-2,1.3l0.5,1.5L-12.9,69.3z M10,59.2
					l-0.8-1.5L-12,69.8l-0.5,1.8v0.5L10,59.2z M11,61.7l-0.8-1.5L-12,73.1l0.8,1.5L11,61.7z M8.3,55.2l-18.4,10.6l-1,2.3L9,56.7
					L8.3,55.2z M12,64.3l-0.5-1.5L-11,75.7l0.8,1.5L12,64.3z M19.6,151.3l-0.8-1.5L-10,166.5h3L19.6,151.3z M13.1,66.8l-0.5-1.5
					L-9.7,78.1l0.5,1.5L13.1,66.8z M7.2,52.6l-15.7,8.8l-1,2.5l17.2-9.8L7.2,52.6z M14.3,69.3l-0.8-1.5L-8.7,80.7l0.5,1.5L14.3,69.3
					z M6.2,50.1l-12.9,7.3l-1,2.3l14.4-8.3L6.2,50.1z M15.3,71.8l-0.8-1.5L-7.6,83.2l0.8,1.5L15.3,71.8z M16.3,74.4l-0.8-1.5
					L-6.6,85.7l0.8,1.5L16.3,74.4z M5,47.6l-9.8,5.6l-1,2.5l11.6-6.8L5,47.6z M17.3,76.9l-0.5-1.5L-5.6,88.2l0.8,1.5L17.3,76.9z
					 M20.6,153.9l-0.8-1.5l-24.5,14.1h3.3L20.6,153.9z M18.4,79.4l-0.5-1.5L-4.4,90.8l0.5,1.5L18.4,79.4z M4,44.8l-7.1,4.3l-1,2.3
					l8.8-5L4,44.8z M19.6,81.9l-0.8-1.5L-3.4,93.3l0.5,1.5L19.6,81.9z M3,42.3l-4.3,2.5l-1,2.5l5.8-3.5L3,42.3z M20.6,84.4l-0.8-1.5
					L-2.3,95.8l0.8,1.5L20.6,84.4z M21.6,87l-0.5-1.5L-1.3,98.6l0.8,1.3L21.6,87z M1.9,39.8l-1.5,1l-1,2.3l3-1.8L1.9,39.8z
					 M22.6,89.5l-0.5-1.3l-22.2,12.9l0.5,1.3L22.6,89.5z M23.7,92l-0.5-1.3L0.9,103.6l0.5,1.5L23.7,92z M21.6,156.4l-0.8-1.5
					L0.9,166.5h3.3L21.6,156.4z M1.2,38.5V39l0.3-0.3L1.2,38.5z M24.9,94.8l-0.8-1.5L1.9,106.2l0.5,1.5L24.9,94.8z M25.9,97.3
					l-0.8-1.5L3,108.7l0.8,1.5L25.9,97.3z M26.9,99.8l-0.5-1.5L4,111.2l0.8,1.5L26.9,99.8z M27.9,102.4l-0.5-1.5L5.2,113.7l0.5,1.5
					L27.9,102.4z M29,104.9l-0.5-1.5L6.2,116.3l0.5,1.5L29,104.9z M22.6,158.9l-0.5-1.3l-15.7,8.8h3L22.6,158.9z M30.2,107.4
					l-0.8-1.5L7.2,118.8l0.5,1.5L30.2,107.4z M31.2,109.9l-0.8-1.5L8.3,121.3l0.8,1.5L31.2,109.9z M32.2,112.5l-0.5-1.5L9.3,123.8
					l0.8,1.5L32.2,112.5z M33.2,115l-0.5-1.5l-22.2,12.9l0.5,1.5L33.2,115z M34.3,117.5l-0.5-1.5l-22.2,12.9l0.5,1.5L34.3,117.5z
					 M23.7,161.4c-0.3-0.5-0.3-0.8-0.5-1.3l-11.4,6.3h3.3L23.7,161.4z M35.5,120l-0.8-1.5l-22.2,12.9l0.5,1.5L35.5,120z M36.5,122.6
					l-0.8-1.5L13.5,134l0.8,1.5L36.5,122.6z M37.5,125.1l-0.5-1.5l-22.5,13.1l0.8,1.3L37.5,125.1z M38.6,127.6l-0.5-1.5l-22.2,13.1
					l0.5,1.3L38.6,127.6z M17.1,142.3l0.3,1l1.8-1H17.1z M24.9,164.2l-0.8-1.5l-6.8,3.8h3L24.9,164.2z M21.4,142.3l-3.5,2l0.5,1.5
					l6.3-3.5H21.4z M39.8,130.1l-0.8-1.3l-21,11.9h3.3L39.8,130.1z M26.9,142.3l-8.1,4.5l0.8,1.5l10.3-6.1h-3V142.3z M32.2,142.3
					l-12.4,7.1l0.8,1.5l14.9-8.6H32.2z M37.8,142.3l-16.7,9.6l0.5,1.5L41,142.3H37.8z M44.6,142.3h-1.3l-21.2,12.1l0.5,1.5L45.1,143
					L44.6,142.3z M25.9,166.5l-0.8-1.3l-2.5,1.3H25.9z M45.4,144l-22.2,12.9l0.8,1.5l22.2-12.9L45.4,144z M40.8,132.7l-0.8-1.3
					l-16.4,9.3h3L40.8,132.7z M46.4,146.5l-22.2,12.9l0.8,1.5L47.2,148L46.4,146.5z M47.6,149.1L25.1,162l0.8,1.5l22.2-12.9
					L47.6,149.1z M48.6,151.6l-22.2,12.9l0.5,1.5l22.2-12.9L48.6,151.6z M27.7,168l0.3,0.5l1.3-0.5H27.7z M50.4,155.6l-0.8-1.5
					l-21.5,12.4h3.3L50.4,155.6z M31.5,168l-3,1.5l0.8,1.5l5.6-3H31.5z M41.8,135.4l-0.8-1.5l-12,6.8h3.3L41.8,135.4z M36.8,168
					l-7.3,4l0.8,1.5l9.8-5.6h-3.3V168z M42.3,168l-11.6,6.6l0.5,1.5l14.4-8.1H42.3z M47.9,168l-16.2,9.3l0.5,1.3L50.9,168H47.9z
					 M55.5,168h-2.3l-20.4,11.9l0.5,1.3l22.5-12.9L55.5,168z M51.4,158.2l-0.8-1.5l-16.9,9.8h3L51.4,158.2z M56,169.5l-22.2,12.9
					l0.8,1.5l22.2-13.1L56,169.5z M42.8,138l-0.5-1.5l-7.8,4.3h3.3L42.8,138z M57.2,172l-22.5,12.9l0.8,1.5l22.2-12.9L57.2,172z
					 M58.2,174.6L36,187.4l0.5,1.5L58.7,176L58.2,174.6z M59.2,177.1L37,190l0.5,1.5l22.2-12.9L59.2,177.1z M61,181.1l-0.8-1.5
					L38,192.5l0.3,0.8h1.8L61,181.1z M52.4,160.7l-0.5-1.5L39,166.5h3.3L52.4,160.7z M43.9,140.5l-0.5-1.5l-3.3,1.8h3L43.9,140.5z
					 M62,183.7l-0.8-1.5l-18.9,11.1h3.3L62,183.7z M53.4,163.2l-0.5-1.5l-8.3,4.8h3L53.4,163.2z M63,186.2l-0.5-1.5l-14.6,8.6h3
					L63,186.2z M54.5,165.7l-0.5-1.5l-4,2.3h3.3L54.5,165.7z M64,188.7l-0.5-1.5l-10.3,6.1h3.3L64,188.7z M65.1,191.2l-0.5-1.5
					l-5.8,3.5h3L65.1,191.2z M66.1,193.2l-0.5-1l-1.5,1H66.1z"/>
				<path class="st1" d="M205.9,102.4h-2v25.2H215v1h-11.1v15.7c0,1.3,0.3,2.3,0.3,3.5s-0.3,2-0.3,3.3v15.4h19.2v1.5h-19.2v25.2
					h19.2v1h-19.2v37.6h-1v-37.6h-25.2v37.6h-1.5v-37.6h-18.7h-6.6v37.6h-1v-37.6H112v37.6h-1.5v-37.6H85.3v37.6h-1v-37.6H62.5v-1
					h21.7V168H62.5v-1.5h21.7v-37.9H67.6v-1h16.7v-25.2H64.8v-1.5h19.4V82.2V63H64.8v-1h19.4V36.7H64.8v-1.5h19.4V0.9h1v34.3h25.2
					V0.9h1.5v34.3h18.7h19.2V0.9h1v34.3H176V0.9h1.5v34.3h25.2V0.9h1v34.3h13.9v1.5h-13.9V62h13.9v1h-13.9v37.9h2v1.5H205.9z
					 M110.5,36.7h-1.3l-24,13.6v1.8l25.2-14.6v-0.8H110.5z M103.7,36.7L85.3,47.3v1.8L107,36.7H103.7z M98.4,36.7
					c-4.3,2.5-8.8,4.8-13.1,7.3v1.8l16.2-9.1C101.5,36.7,98.4,36.7,98.4,36.7z M92.8,36.7L85.3,41v1.8l10.9-6.1H92.8z M87.3,36.7
					l-2,1v1.8l5.3-2.8H87.3z M110.5,40v-1L85.3,53.7v1.8l14.9-8.6C103.2,44.1,106.7,41.8,110.5,40z M96.9,50.1l-11.6,6.6v1.8
					l8.3-4.8C94.6,52.4,95.9,51.4,96.9,50.1z M92.1,55.9l-6.8,4v1.8l5-2.8C90.8,57.9,91.3,56.9,92.1,55.9z M85.3,63v1.8
					c1-0.5,1.8-1,2.8-1.5V63H85.3z M86.5,67.3l0.8-2.3l-2,1.3V68L86.5,67.3z M110.5,69.1v-1.8L85.3,81.9v0.3c0,0.5,0.3,1,0.3,1.5
					L110.5,69.1z M85.5,71.1c0.3-0.8,0.3-1.3,0.5-2l-0.8,0.3v1.8h0.3V71.1z M85.3,92.8v0.5h0.3C85.5,93,85.3,93,85.3,92.8z
					 M85.8,94.3l-0.5,0.3v1.8l1-0.5C86,95.3,86,94.8,85.8,94.3z M86.5,97.1l-1.3,0.8v1.8l1.8-1C86.8,98.1,86.8,97.6,86.5,97.1z
					 M85.3,100.9H88c-0.3-0.5-0.3-0.8-0.5-1.3L85.3,100.9z M89.3,103.6c-0.3-0.5-0.3-0.8-0.5-1.3h-0.3l-3.3,1.8v1.8L89.3,103.6z
					 M85.3,102.4v0.3l1-0.3H85.3z M90.8,105.9c-0.3-0.5-0.8-0.8-1-1.3l-4.5,2.5v1.8L90.8,105.9z M92.1,108.2
					c-0.3-0.5-0.5-0.8-0.8-1.3l-6.1,3.5v1.8L92.1,108.2z M93.8,110.4c-0.3-0.5-0.8-0.8-1-1.3l-7.6,4.3v1.8L93.8,110.4z M95.6,112.7
					c-0.3-0.5-0.8-0.8-1-1.3l-9.3,5.3v1.8L95.6,112.7z M97.4,114.7c-0.5-0.5-0.8-0.8-1-1.3l-11.1,6.3v1.8L97.4,114.7z M99.4,116.8
					c-0.5-0.3-0.5-0.8-1-1.3l-13.1,7.6v1.8L99.4,116.8z M101.7,118.5c-0.5-0.3-0.8-0.8-1.3-1l-15.1,8.6v1.5h1L101.7,118.5z
					 M110.5,128.6H108L85.3,142v1.8l25.2-14.6V128.6z M102.7,128.6l-17.4,10.1v1.8l20.4-11.9L102.7,128.6L102.7,128.6z M97.1,128.6
					l-11.9,7.1v1.8l15.1-8.8h-3.2V128.6z M91.8,128.6l-6.6,3.8v1.8l9.6-5.6H91.8z M86.3,128.6l-1,0.8v1.8l4.3-2.5h-3.3V128.6z
					 M110.5,130.4L85.3,145v1.8l25.2-14.6V130.4z M110.5,133.7l-25.2,14.6v1.8l25.2-14.6V133.7z M110.5,136.7l-25.2,14.6v1.8
					l25.2-14.6V136.7z M110.5,140l-25.2,14.6v1.8l25.2-14.6V140z M110.5,143l-25.2,14.6v1.8l25.2-14.6V143z M110.5,146.3l-25.2,14.6
					v1.8l25.2-14.6V146.3z M110.5,149.3L85.3,164v1.8l25.2-14.6V149.3z M109,168h-3l-20.7,11.9v1.8L109,168z M103.7,168h-3.3
					l-15.1,8.6v1.8L103.7,168z M98.1,168h-3l-9.8,5.6v1.8L98.1,168z M92.8,168h-3.3l-4.3,2.3v1.8L92.8,168z M87.3,168h-2v1L87.3,168
					z M110.5,170v-1.8l-25.2,14.6v1.8L110.5,170z M110.5,173.3v-1.8l-25.2,14.6v1.8L110.5,173.3z M110.5,176.3v-1.8l-25.2,14.6v1.8
					L110.5,176.3z M110.5,179.6v-1.8l-25.2,14.6v0.8h2L110.5,179.6z M110.2,63H107L85.8,75.4c0,0.8-0.3,1.3-0.3,2L110.2,63z
					 M110.5,66v-1.8l-25,14.4v2L110.5,66z M110.5,72.3v-1.8L85.5,85v1.8L110.5,72.3z M110.5,75.4v-1.8L85.8,88
					c0,0.5,0.3,1.3,0.3,1.8L110.5,75.4z M104.7,63h-3l-15.1,8.8c-0.3,0.8-0.3,1.3-0.5,2L104.7,63z M110.5,78.6v-1.8L86.3,91
					c0,0.5,0,1,0.3,1.5L110.5,78.6z M110.5,154.4v-1.8l-24.2,13.9h3.3L110.5,154.4z M110.5,81.7v-1.8L86.8,93.8
					c0.3,0.5,0.3,1,0.5,1.5L110.5,81.7z M99.4,63h-3.3l-8.6,5c-0.3,0.8-0.3,1.5-0.5,2.3L99.4,63z M87.3,62h1.5
					c0.3-0.3,0.3-1,0.5-1.3L87.3,62z M110.5,85v-1.8L87.8,96.3c0.3,0.5,0.3,1,0.5,1.5L110.5,85z M93.8,63h-3.3L89,64
					c-0.3,0.8-0.8,1.8-1,2.5L93.8,63z M110.5,88v-1.8l-22,12.9c0.3,0.5,0.5,0.8,0.8,1.3L110.5,88z M103.9,120.3
					c-0.5-0.3-0.8-0.8-1.3-1l-14.1,8.3h3L103.9,120.3z M110.5,182.6v-1.8l-21,12.4h3.3L110.5,182.6z M110.5,50.1v-1.8L91.3,59.5
					c-0.5,0.8-0.8,1.8-1.3,2.5h0.5L110.5,50.1z M91.6,102.4H90c0,0.3,0.5,0.3,0.5,0.5L91.6,102.4z M110.5,91.3v-1.8l-19.9,11.4h3.3
					L110.5,91.3z M97.1,102.4h-3.3l-2.8,1.5l0.8,1.5L97.1,102.4z M110.5,157.4v-1.8l-18.7,10.9h3L110.5,157.4z M102.7,102.4h-3.3
					l-7.1,4c0.3,0.5,0.8,0.8,1,1.3L102.7,102.4z M110.5,45.3l-15.7,9.1l-2.3,3l17.9-10.3L110.5,45.3L110.5,45.3z M110.5,53.4v-1.8
					L92.8,62h3.3L110.5,53.4z M108,102.4h-3.3l-10.9,6.3c0.3,0.5,0.8,0.8,1,1.3L108,102.4z M106.7,122.1c-0.5-0.3-1-0.8-1.5-1
					l-11.4,6.6h3.3L106.7,122.1z M110.5,185.9v-1.8l-15.4,9.1h3L110.5,185.9z M110.5,103.9v-1.5h-0.3l-14.6,8.3
					c0.3,0.5,0.8,0.8,1,1.3L110.5,103.9z M110.5,94.3v-1.8l-14.4,8.3h3.3L110.5,94.3z M110.5,42l-9.1,5.3c-1.8,1.5-3,3-4.5,4.5
					l13.6-8.1V42z M110.5,160.7v-1.8l-13.4,7.6h3.3L110.5,160.7z M110.5,106.9v-1.8l-13.1,7.6c0.3,0.5,0.8,0.8,1.3,1.3L110.5,106.9z
					 M110.5,56.4v-1.8L98.4,62h3L110.5,56.4z M110.5,110.2v-1.8l-11.1,6.3c0.5,0.5,0.8,1,1.3,1.3L110.5,110.2z M109.5,123.6
					c-0.5-0.3-1.3-0.8-1.8-1l-8.3,5h3.3L109.5,123.6z M110.5,189v-1.8l-10.1,6.1h3.3L110.5,189z M110.5,113.2v-1.8l-9.1,5.3
					c0.5,0.3,1,0.8,1.5,1L110.5,113.2z M110.5,97.6v-1.8l-8.8,5h3L110.5,97.6z M110.5,163.7v-1.8l-7.8,4.5h3L110.5,163.7z
					 M110.5,59.7v-1.8l-6.8,4h3.3L110.5,59.7z M110.5,116.5v-1.8l-6.6,3.8c0.5,0.3,0.8,0.8,1.3,1L110.5,116.5z M110.5,125.8V124
					l-5.6,3.5h3L110.5,125.8z M110.5,192.2v-1.8l-4.5,2.8h3L110.5,192.2z M110.5,119.5v-1.8l-4.3,2.5c0.5,0.3,1.3,0.8,1.8,1
					L110.5,119.5z M110.5,100.6v-1.8l-3.5,2h3.3L110.5,100.6z M110.5,166.5v-1.3l-2.5,1.3H110.5z M110.5,122.8V121l-1.5,0.8
					C109.5,122.1,110,122.6,110.5,122.8z M110.5,62v-1l-1.3,1H110.5z M110.5,127.6v-0.3l-0.3,0.3H110.5z M134,36.7h-3l-19,10.9v2
					L134,36.7z M124.9,37L112,44.6v1.8l16.7-9.6C127.4,36.7,126.1,36.7,124.9,37z M114.5,36.7l-2.5,1.5v1c1.3-0.5,2.3-0.8,3.5-1.3
					l2.3-1.3L114.5,36.7L114.5,36.7z M112,36.7V37l0.3-0.3H112z M138.5,37.2c-0.8-0.3-1.8-0.3-2.5-0.3l-24,13.9v1.8L138.5,37.2z
					 M142.6,38c-0.8-0.3-1.5-0.3-2.3-0.5L112,53.9v2L142.6,38z M115.5,39.3l-3.5,2v2l9.6-5.8C119.6,38,117.6,38.5,115.5,39.3z
					 M146.1,39.3c-0.8-0.3-1.3-0.5-2-0.8L112,57.2V59L146.1,39.3z M149.1,40.5c-0.5-0.3-1.3-0.5-1.8-0.8L112,60.2V62h0.3L149.1,40.5
					z M112,81.9c0,10.3,8.3,18.9,18.7,18.9c5.3,0,10.1-2.3,13.6-5.8c0.8-0.8,1.5-1.8,2-2.5c0.5-0.8,1.3-1.8,1.8-2.8l0.5-1
					c0.8-2,1.3-4.5,1.3-6.8c0-9.3-7.1-17.2-15.9-18.7c-0.5,0-0.8-0.3-1.3-0.3h-4C119.3,64,112,72.3,112,81.9z M112,63v11.9
					c2-5.3,6.1-9.8,11.4-11.9H112z M122.1,100.9h1.3h0.8c-5.6-2-10.1-6.3-12.1-11.9v11.9h0.5h3h0.3h5.3H122.1z M137.5,102.4L112,117
					v2l28.8-16.7L137.5,102.4L137.5,102.4z M131.9,102.4L112,114v1.8l23.2-13.4H131.9z M126.6,102.4l-14.6,8.3v2l17.7-10.3H126.6z
					 M121.1,102.4l-9.1,5.3v1.8l12.4-7.1C124.4,102.4,121.1,102.4,121.1,102.4z M115.8,102.4l-3.8,2v2l6.8-4H115.8z M112,102.4v0.8
					l1.5-0.8H112z M131.2,108.9L112,120.3v1.8l12.1-7.1C126.4,112.7,128.7,110.7,131.2,108.9z M121.6,117.8l-9.6,5.6
					c0.5,0.3,1.3,0.5,1.8,0.8l5.3-3C119.8,119.8,120.6,118.8,121.6,117.8z M112,124.8v0.5l0.3-0.5H112z M113.8,125.6l-1.8,1v1h1.5
					l2-1.5C114.8,125.8,114.5,125.8,113.8,125.6z M143.8,128.9l0.3-0.3h-3.3v0.3h-2.3v-0.3h-3.3v0.3H133v-0.3h-2h-0.3h-0.8v0.3h-2.3
					v-0.3h-3.3H122h-6c-2.5,5.8-4,12.4-4,19.2s1.5,12.9,4,18.7h0.8h2.3h3h0.3h5.3h0.3h5h0.3h5.3h0.3h5.3h0.3h5h0.5v-0.8
					c-7.1-3-12.1-10.1-12.1-18.2s5-15.1,12.1-18.2v-0.5h-0.5v-0.3h-3l-0.3,0.3h-2.4V128.9z M112,128.6v8.8c0.8-3,1.5-6.1,2.8-8.8
					H112z M112,157.9v8.6h1.5h1.3C113.5,163.7,112.8,160.9,112,157.9z M112,168v1.5l2.5-1.5H112z M116.3,170l-0.8-1.5l-3.5,2.3v1.8
					L116.3,170z M117.8,172.3c-0.3-0.5-0.5-0.8-0.8-1.3l-5,2.8v2L117.8,172.3z M119.3,174.6c-0.3-0.5-0.8-0.8-1-1.3l-6.3,3.8v1.8
					L119.3,174.6z M120.8,176.8c-0.3-0.5-0.8-0.8-1-1.3L112,180v2L120.8,176.8z M122.6,178.9c-0.3-0.5-0.8-0.8-1-1.3l-9.6,5.8v1.8
					L122.6,178.9z M124.6,180.9c-0.5-0.5-0.8-0.5-1-1l-11.6,6.6v2L124.6,180.9z M126.6,182.9c-0.5-0.3-0.5-0.8-1-1.3l-13.6,8.1v1.8
					L126.6,182.9z M128.9,184.7c-0.5-0.3-0.8-0.8-1.3-1l-15.7,9.1v0.5h2.5L128.9,184.7z M149.9,43.3v-1.8L114.5,62h3.3L149.9,43.3z
					 M115,124.6c0.5,0.3,1,0.3,1.5,0.5c0.3-0.8,0.5-1.3,1-2L115,124.6z M117.1,126.6c-0.3,0.3,0,0.8-0.3,1h2l0.5-0.3L117.1,126.6z
					 M120.1,168h-3.3c0.3,0.5,0.5,0.8,0.8,1.3L120.1,168z M131.4,186.4c-0.5-0.3-1-0.8-1.5-1l-13.1,7.8h3.3L131.4,186.4z M125.4,168
					h-3l-4.3,2.3l0.8,1.5L125.4,168z M149.9,104.6l-29.8,17.2c-0.8,1-1.3,2-1.8,3l31.6-18.4V104.6z M149.9,107.7l-31.3,18.2
					c0.8,0.3,1.5,0.3,2.3,0.5l29-16.7V107.7z M130.9,168h-3.3l-8.1,4.5l0.8,1.5L130.9,168z M149.9,46.6v-2L120.1,62h3.3L149.9,46.6z
					 M136.2,168h-3l-12.1,6.8c0.3,0.5,0.8,0.8,1,1.3L136.2,168z M149.9,102.9c-1.3,0.3-2.8,0.5-4,0.8l-20.7,12.1
					c-1.3,1.3-2.3,2.5-3.3,3.8l28-16.2V102.9z M149.9,111l-27.5,15.7c0.8,0.3,1.8,0.5,2.5,0.5l25-14.4V111z M134,188.2
					c-0.5-0.3-1-0.8-1.5-1l-10.1,6.1h3L134,188.2z M141.8,168h-3.3l-15.7,9.1c0.3,0.5,0.8,0.8,1,1.3L141.8,168z M147.1,168h-3
					l-19.4,11.1l1.3,1.3L147.1,168z M149.9,49.6v-1.8L125.6,62h3v-0.3L149.9,49.6z M149.9,169.5V168h-0.5l-22.7,13.1
					c0.5,0.5,0.8,0.8,1.3,1L149.9,169.5z M149.9,114l-23,13.4h3l19.9-11.4v-2H149.9z M137,189.7c-0.5-0.3-1.3-0.8-1.8-1l-7.6,4.5
					h3.3L137,189.7z M149.9,172.8v-2l-21,12.1c0.5,0.3,0.8,1,1.3,1.3L149.9,172.8z M129.4,112l11.1-6.6
					C136.5,106.9,132.7,109.4,129.4,112z M149.9,52.9v-2l-18.7,10.9c0.8,0,1.3,0.3,1.8,0.3h1.3L149.9,52.9z M149.9,175.8V174
					l-18.7,10.6c0.5,0.3,1,0.8,1.5,1L149.9,175.8z M149.9,119v-1.8l-17.7,10.1c1.3,0,2.3-0.3,3.5-0.3L149.9,119z M140,191
					c-0.5-0.3-1.3-0.5-1.8-0.8l-5,3h3L140,191z M149.9,179.1v-2l-16.2,9.3c0.5,0.3,1,0.8,1.5,1L149.9,179.1z M149.9,55.9v-1.8
					L136.5,62h3L149.9,55.9z M149.9,182.1v-1.8l-13.4,7.6c0.5,0.3,1.3,0.8,1.8,1L149.9,182.1z M137,105.7c2.8-1.3,6.1-3.3,6.1-3.3
					L137,105.7z M143.3,192.2c-0.8-0.3-1.3-0.5-2-0.8l-2.8,1.8h3.3L143.3,192.2z M149.9,122.3v-2l-11.1,6.6c1.8-0.3,3.5-0.8,5.3-1.3
					L149.9,122.3z M142.8,63h-3c-0.3,0-0.5,0.5-0.8,0.5c0.5,0.3,1.3,0.5,1.8,0.8L142.8,63z M149.9,130.6c-6.3,3-10.9,9.3-10.9,16.9
					s4.5,13.9,10.9,16.9V130.6z M149.9,185.4v-2l-10.3,6.1c0.5,0.3,1.3,0.5,1.8,0.8L149.9,185.4z M149.9,97.1v-2l-10.1,5.8h3
					L149.9,97.1z M149.9,39.3v-2.5h-8.3C144.3,37.5,147.3,38,149.9,39.3z M149.9,59.2v-2c-2.5,1.5-5.6,3.3-8.1,4.8h3.3L149.9,59.2z
					 M148.4,63h-3.3l-3.3,2c0.5,0.3,1,0.8,1.5,1C145.1,65,146.6,64,148.4,63z M149.9,188.4v-1.8l-7.1,4c0.8,0.3,1.3,0.3,2,0.5
					L149.9,188.4z M149.9,125.3v-0.5c-1.8,0.8-3.8,1.5-5.8,2l-1,0.8h3L149.9,125.3z M149.9,92l-2.3,1.3c-1,1.5-2.3,2.8-3.5,3.8
					l5.8-3.3V92z M146.6,193.2c-0.5-0.3-1.3-0.3-1.8-0.5l-0.8,0.5H146.6z M149.9,65.5v-2l-5.6,3.3c0.5,0.3,0.5,0.8,1,1.3L149.9,65.5
					z M149.9,100.1v-1.8l-4.8,2.5h3.3L149.9,100.1z M149.9,68.5v-1.8l-3.8,2c0.3,0.5,0.8,0.8,1,1.3L149.9,68.5z M149.9,191.7v-2
					l-3.5,2c0.8,0.3,1.5,0.3,2.3,0.5L149.9,191.7z M149.9,62v-1.5l-2.5,1.5H149.9z M149.9,71.8v-2l-2,1.3c0.3,0.5,0.5,0.8,0.8,1.3
					L149.9,71.8z M149.9,127.6v-1l-1.5,1H149.9z M149.9,89c-0.3,0.8-0.8,1.5-1.3,2.3l1.3-0.5V89z M149.9,74.9v-1.8l-0.8,0.3
					L149.9,74.9z M176.1,62V36.7h-25.2V40c9.6,4.5,17.4,12.4,22,22H176.1z M150.9,41.3v1.3l1.3-0.5
					C151.6,41.8,151.4,41.5,150.9,41.3z M153.4,42.5l-2.5,1.5v1.8l4-2.3C154.4,43.3,153.9,42.8,153.4,42.5z M155.9,44.3l-5,2.8v1.8
					l6.6-3.5C156.9,45.1,156.4,44.6,155.9,44.3z M158.5,46.1l-7.6,4.3v1.8l8.8-5C159.2,46.8,159,46.3,158.5,46.1z M160.7,47.8
					l-9.8,5.6v1.8l11.1-6.3C161.5,48.4,161.2,48.1,160.7,47.8z M162.7,49.9c-4,2.3-7.8,4.5-11.9,6.8v1.8l13.1-7.6
					C163.8,50.4,163.3,50.4,162.7,49.9z M164.8,51.9l-13.9,7.8v1.8l14.9-8.6C165.5,52.4,165,52.4,164.8,51.9z M167,63l-16.2,9.3v1.8
					L170.1,63H167z M161.5,63l-10.6,6.3v1.8l13.9-8.1C164.8,63,161.5,63,161.5,63z M155.9,63c-1.8,1-3.3,2-5,3v1.8l8.3-4.8
					C159.2,63,155.9,63,155.9,63z M150.9,63v1.8c1-0.5,1.8-1.3,2.8-1.8C153.7,63,150.9,63,150.9,63z M172.8,64.8l-0.8-1.5
					l-21.2,12.4v1.8L172.8,64.8z M173.9,67.3c-0.3-0.5-0.3-1-0.5-1.5l-22.5,12.9v1.8L173.9,67.3z M174.6,70.1
					c-0.3-0.5-0.3-1.3-0.5-1.8l-23.2,13.6v1.8L174.6,70.1z M175.4,72.8c0-0.5-0.3-1.3-0.5-1.8l-24,13.9v1.8L175.4,72.8z M175.9,75.6
					c0-0.5-0.3-1.3-0.3-1.8l-24.7,14.4V90L175.9,75.6z M176.1,78.6c0-0.5-0.3-1.3-0.3-1.8l-25,14.4V93L176.1,78.6z M176.1,81.7v-1.8
					l-25.2,14.6v1.8L176.1,81.7z M176.1,85v-2l-25.2,14.6v1.8L176.1,85z M175.9,88.2c0-0.8,0.3-1.3,0.3-2L151,100.8h2.8L175.9,88.2z
					 M162,102.4h-2.8l-8.3,4.8v1.8L162,102.4z M153.7,102.4l-2.8,1.5v1.8l6.1-3.3H153.7z M166.3,103.1c-0.8-0.3-1.5-0.5-2.3-0.5
					l-13.1,7.6v1.8L166.3,103.1z M170.3,104.1l-2.3-0.8l-17.2,10.1v1.8L170.3,104.1z M167.5,108.7c0.8-1,1.3-2,2-3l-18.7,10.9v1.8
					L167.5,108.7z M176.1,109.9v-1.8l-13.1,7.6c-3.5,3.3-7.6,6.3-12.1,8.3v0.5L176.1,109.9z M161.7,115.2c1.3-1.3,2.8-2.5,4-4
					l-14.9,8.6v1.8L161.7,115.2z M176.1,113.2v-1.8L150.9,126v1.5h0.8L176.1,113.2z M157.7,166.2c9.6,0,17.4-7.1,18.4-16.4v-4.5
					c-1-9.3-8.8-16.4-18.4-16.4c-2.3,0-4.8,0.5-6.8,1.3V165C152.9,165.7,155.4,166.2,157.7,166.2z M171.3,168l-20.4,11.6v1.8
					l23.5-13.4L171.3,168L171.3,168z M165.8,168l-14.9,8.6v1.8l18.2-10.3h-3.3V168z M160.5,168l-9.6,5.3v1.8l12.6-7.1H160.5z
					 M154.9,168l-4,2.3v1.8l7.3-4h-3.3V168z M150.9,168v0.8l1.8-0.8H150.9z M176.1,168.3l-25.2,14.6v1.8l25.2-14.6V168.3z
					 M176.1,171.3l-25.2,14.6v1.8l25.2-14.6V171.3z M176.1,174.6l-25.2,14.6v1.8l25.2-14.6V174.6z M176.1,177.6l-25.2,14.6v0.5
					c0.8,0,1.5,0.3,2.3,0.3l23-13.6v-1.8H176.1z M155.2,120.5l-3.3,1.8C152.9,121.8,154.2,121.3,155.2,120.5z M166.5,53.9L152.6,62
					h3.3l11.6-6.8C167.3,54.7,166.8,54.4,166.5,53.9z M176.1,116.3v-1.8l-22.2,13.1h3L176.1,116.3z M176.1,182.6v-1.8L154.9,193
					c0.8,0,1.8,0.3,2.5,0.3c0.3,0,0.5-0.3,0.8-0.3L176.1,182.6z M175.1,91.8c0.3-0.8,0.5-1.3,0.5-2l-19.7,11.1h1.5h1.8L175.1,91.8z
					 M168,56.2l-9.8,5.8h3.3l7.6-4.5C168.8,56.9,168.3,56.7,168,56.2z M176.1,119.5v-1.8l-16.9,9.8h3.3L176.1,119.5z M176.1,185.7
					v-1.8l-15.7,9.1c1.3,0,2.8-0.3,4-0.5L176.1,185.7z M174.4,95.3c0.3-0.8,0.3-1.3,0.5-2l-13.4,7.6h3.3L174.4,95.3z M176.1,160.4
					v-1.8l-3.5,2c-2.3,2.8-5.6,4.8-9.1,5.8h2.3L176.1,160.4z M169.6,58.4l-5.8,3.5h3l3.5-2.3C170.1,59.2,169.8,59,169.6,58.4z
					 M165.8,128.6h-1.5c0.3,0,0.8,0.5,1,0.5L165.8,128.6z M176.1,122.6v-1.8l-11.4,6.8h3.3L176.1,122.6z M176.1,106.9v-0.5
					c-0.5-0.3-0.5-0.5-1-0.8l-6.6,3.8c-0.8,1.3-1.8,2.5-2.8,3.5L176.1,106.9z M171.1,128.6h-3l-1.5,1c0.5,0.3,1,0.8,1.5,1
					L171.1,128.6z M172.8,99.3l0.8-2.3l-6.6,3.8h3L172.8,99.3z M176.1,163.7v-1.8l-8.1,4.5h3L176.1,163.7z M176.1,189v-1.8L168,192
					c2.5-0.5,5-1.5,7.3-2.5L176.1,189z M176.1,193.2v-2.8c-2.5,1-5,2-7.8,2.8H176.1z M169.1,62h2.5c-0.3-0.3-0.3-1-0.5-1.3L169.1,62
					z M176.1,128.9v-0.3h-2.8l-4.3,2.5c0.5,0.3,1,1,1.5,1.3L176.1,128.9z M169.6,102.6c0.5,0.3,1,0.3,1.5,0.5
					c0.3-0.3,0.3-0.5,0.5-0.8h-1.5L169.6,102.6z M173.6,105.1c-0.8-0.3-1-0.3-1.8-0.5c-0.5,1-1.3,1.8-1.8,2.8L173.6,105.1z
					 M176.1,125.8V124l-6.1,3.5h3.3L176.1,125.8z M176.1,132.2v-1.8l-4.8,2.8c0.5,0.3,1,0.5,1.3,1L176.1,132.2z M172.3,103.4
					l3.8,1.5v-2.5h-3.3L172.3,103.4z M176.1,135.2v-1.8l-2.8,1.8c0.3,0.5,0.8,0.8,1,1.3L176.1,135.2z M176.1,166.5V165l-2.8,1.5
					H176.1z M176.1,71.3V63h-2.5C174.9,65.5,175.4,68.5,176.1,71.3z M176.1,100.9v-8.1c-0.8,2.8-1.3,5.6-2.5,8.1H176.1z
					 M176.1,155.6h-0.3c-0.5,1-1,2-1.5,2.8l1.8-1V155.6z M176.1,138.5v-1.8l-1.3,0.8c0.3,0.5,0.5,0.8,0.8,1.3L176.1,138.5z
					 M176.1,127.6v-0.5l-0.5,0.5H176.1z M202.9,36.7h-25.2V62h25.2V36.7z M177.6,63v19.2v18.7h25.2V63H177.6z M202.9,127.6v-25.2
					h-25.2v3c9.6,4.5,17.4,12.6,22,22.2C199.7,127.6,202.9,127.6,202.9,127.6z M178.1,107.2l-0.5,0.3v2l2-1.3
					C179.2,107.9,178.6,107.4,178.1,107.2z M180.9,108.7l-3.3,2v1.8l4.8-2.8C181.9,109.4,181.4,108.9,180.9,108.7z M183.4,110.4
					l-5.8,3.3v1.8l7.1-4C184.2,111.2,183.9,110.7,183.4,110.4z M185.7,112.2l-8.1,4.8v1.8l9.3-5.6
					C186.5,113,186.2,112.5,185.7,112.2z M188,114l-10.3,6.1v2l11.6-6.8C188.7,114.7,188.5,114.2,188,114z M190,116l-12.4,7.3v1.8
					l13.4-7.8C190.8,116.8,190.5,116.5,190,116z M191.8,118l-14.1,8.3v1.3h1.3l14.1-8.3C192.8,118.8,192,118.5,191.8,118z
					 M195.3,128.6L177.6,139v2l20.7-12.4H195.3z M189.8,128.6l-12.1,7.3v1.8l15.4-9.1H189.8z M184.5,128.6l-6.8,4v2l9.8-6.1h-3
					V128.6z M178.9,128.6c-0.5,0.3-0.8,0.8-1.3,1v1.8l4.5-2.8H178.9z M199.9,131.1l-0.8-1.5l-21.5,12.6v1.8L199.9,131.1z
					 M200.6,133.7c-0.3-0.5-0.3-1-0.5-1.5l-22.5,13.1v1.8L200.6,133.7z M201.4,136.4c-0.3-0.5,0-1-0.3-1.5l-23.5,13.4v1.5v0.5
					L201.4,136.4z M202.1,139.2c0-0.5-0.3-1-0.3-1.5l-24.2,13.9v2L202.1,139.2z M202.6,142.3c0-0.5-0.3-1.3-0.3-1.8l-24.7,14.4v1.8
					L202.6,142.3z M202.9,145.3v-1c0-0.3-0.3-0.8-0.3-1l-25,14.6v2L202.9,145.3z M202.9,148.3v-1.8l-25.2,14.6v1.8L202.9,148.3z
					 M202.6,151.6c0-0.3,0.3-0.3,0.3-0.5v-1.5l-25.2,14.6v2L202.6,151.6z M177.6,190v3.3h25.2V168h-3.3
					C195.1,177.6,187.2,185.4,177.6,190z M193,168l-15.4,8.8v1.8l18.7-10.6H193z M187.7,168l-10.1,5.8v1.8l13.1-7.6H187.7z
					 M182.2,168l-4.5,2.5v2l7.8-4.5H182.2z M177.6,168v1.3l2.3-1.3H177.6z M196.6,170.8c0.5-0.8,1-1.5,1.5-2.5l-20.4,11.9v1.8
					L196.6,170.8z M192.8,176.1c0.8-1,1.8-2,2.5-3l-17.7,10.1v2L192.8,176.1z M184.7,184.2c2-1.5,4-3.3,5.8-5.3l-12.9,7.6v1.8
					L184.7,184.2z M202.4,154.9c0-0.8,0.3-1.3,0.3-2L179,166.5h3.3L202.4,154.9z M193.5,120.3l-12.4,7.3h3c3.5-2,6.8-4,10.3-6.1
					C194.3,121.1,193.8,120.8,193.5,120.3z M201.6,158.4c0.3-0.8,0.3-1.3,0.5-2l-17.7,10.1h3L201.6,158.4z M195.3,122.6l-8.8,5h3.3
					l6.3-3.8C195.8,123.3,195.6,123.1,195.3,122.6z M200.6,162.2c0.3-0.8,0.3-1.5,0.5-2.3l-11.4,6.6h3.3L200.6,162.2z M196.6,124.8
					l-4.5,2.8h3l2.5-1.5C197.3,125.6,196.8,125.3,196.6,124.8z M198.8,166.2c0.3-0.8,0.8-1.5,1-2.3l-4.5,2.5h3L198.8,166.2z
					 M197.3,127.6h0.8v-0.5L197.3,127.6z M202.9,136.4v-7.8h-2.8C201.1,131.1,202.1,133.9,202.9,136.4z M202.9,166.5v-7.6
					c-0.8,2.5-1.8,5-2.8,7.6H202.9z"/>
				<path class="st1" d="M403.6,36.7h-18.7V62h18.7v1h-18.7v52v51.5h19.2v1.5h-19.2v25.2h24.2v1h-24.2v1.8l6.6,6.6l-1,1l-5.6-5.8
					v34.1h-1.5v-35.3l-2-2.3h-25.7v1.5h4.5v1h-4.5v35.1h-1v-35.1h-52h-51.5v35.1h-1.5v-35.1h-1.8v-1h1.8v-1.5h-25.5l-2.3,2.3v35.3
					h-1v-34.1l-11.4,11.4l-1-1l12.4-12.1v-1.8h-14.1v-1h14.1V168h-14.1v-1.5h14.1V115V63H204v-1h16.9V36.7H204v-1.5h16.9v-1.5
					l-11.6-11.4l1-1l10.6,10.6V0.1h1v33.1l2.3,2h25.5v-1h-1.8v-1.5h1.8V0.1h1.5v32.6h51.5h52V0.1h1v32.6h4.5v1.5h-4.5v1h25.7l2-2
					V0.1h1.5v31.8l10.3-10.6l1,1l-11.4,11.4v1.5h18.7v1.5H403.6z M222.3,35.2l-0.5-0.3v0.3H222.3z M240.2,62c1.3-1.5,2.5-3,4-4.5
					l-20.7-20.7h-1.8V62H240.2z M221.8,100.4c2.5-13.9,8.6-26.8,17.2-37.4h-17.2V100.4z M249.6,100.6v-1.8L221.8,115
					c0,0.5,0.3,1.3,0.3,1.8L249.6,100.6z M239,166.5c-8.6-10.6-14.6-23.2-17.2-37.1v37.1H239z M223.6,193.2l20.7-21
					c-1.5-1.5-2.8-2.8-4-4.3h-18.4v25.2h1.7V193.2z M221.8,194.8l0.5-0.5h-0.5V194.8z M249.6,94.3v-1.8l-27.5,15.9v2L249.6,94.3z
					 M249.6,97.6v-1.8l-27.5,15.9v2L249.6,97.6z M249.6,103.9v-1.8L222.1,118v1.8L249.6,103.9z M249.6,106.9v-1.8L222.1,121
					c0,0.5,0.3,1.3,0.3,1.8L249.6,106.9z M249.6,91.3v-1.8l-27,15.7c0,0.8-0.3,1.3-0.3,2L249.6,91.3z M249.6,110.2v-1.8l-27,15.7
					v1.8L249.6,110.2z M249.6,88v-1.8l-26.5,15.4c0,0.8-0.3,1.3-0.3,2L249.6,88z M249.6,113.2v-1.8l-26.8,15.7c0,0.5,0.3,1,0.3,1.5
					L249.6,113.2z M249.6,85v-1.8l-26,14.9c-0.3,0.8,0,1.5-0.3,2.3L249.6,85z M249.6,116.5V115v-0.3l-26.3,15.1
					c0,0.5,0.3,1.3,0.3,1.8L249.6,116.5z M249.6,119.5v-1.8l-25.7,14.9c0,0.5,0.3,1.3,0.5,1.8L249.6,119.5z M249.6,81.7v-1.8
					l-25,14.6c-0.3,0.8-0.3,1.3-0.5,2L249.6,81.7z M249.6,122.8V121l-25,14.4c0.3,0.5,0.3,1.3,0.5,1.8L249.6,122.8z M249.6,78.6
					v-1.8l-24,13.9l-0.8,2.3L249.6,78.6z M225.3,36.7L245,56.4c1.5-1.5,3-2.8,4.5-4V36.7H225.3z M249.6,125.8V124l-24.2,14.1
					c0.3,0.5,0.3,1,0.5,1.5L249.6,125.8z M249.6,177.3c-1.5-1.3-3-2.5-4.5-4l-19.7,19.9h24.2V177.3z M249.6,75.4v-1.8l-22.7,13.1
					c-0.3,0.8-0.5,1.8-0.8,2.5L249.6,75.4z M249.6,129.1v-1.8L226.1,141l0.8,1.5L249.6,129.1z M249.6,132.2v-1.8l-22.5,13.1l0.8,1.5
					L249.6,132.2z M249.6,72.3v-1.8l-21,12.1c-0.3,0.8-0.8,1.8-1,2.5L249.6,72.3z M249.6,135.4v-1.8L228.1,146l0.8,1.5L249.6,135.4z
					 M249.6,69.1v-1.8l-18.9,11.1c-0.5,0.8-0.8,1.8-1.3,2.5L249.6,69.1z M249.6,138.5v-1.8l-20.2,11.9c0.3,0.5,0.3,1,0.5,1.5
					L249.6,138.5z M249.6,141.8V140l-19.2,11.1c0.3,0.5,0.5,0.8,0.8,1.3L249.6,141.8z M249.6,66v-1.8l-16.4,9.6
					c-0.5,1-1,1.5-1.5,2.5L249.6,66z M249.6,144.8V143l-17.9,10.3l0.8,1.5L249.6,144.8z M249.6,148.1v-1.8l-16.4,9.6
					c0.3,0.5,0.5,0.8,0.8,1.3L249.6,148.1z M246,63l-9.6,5.8c-0.8,1-1.3,1.8-2,2.8l14.9-8.6C249.3,63,246,63,246,63z M249.6,151.1
					v-1.8l-15.1,8.8c0.3,0.5,0.8,0.8,1,1.3L249.6,151.1z M249.6,154.4v-1.8l-13.6,7.8c0.3,0.5,0.8,0.8,1,1.3L249.6,154.4z
					 M249.6,157.4v-1.8l-11.9,7.1c0.3,0.5,0.5,0.8,0.8,1.3L249.6,157.4z M240.7,63c-1,1-2,2.5-2.8,3.5l5.8-3.5H240.7z M249.6,160.7
					v-1.8l-10.3,6.1c0.3,0.5,0.8,0.8,1,1.3L249.6,160.7z M249.6,163.7v-1.8l-7.8,4.5h3L249.6,163.7z M241.8,168l0.3,0.3l0.8-0.3
					H241.8z M247.8,60.7l-1.3-1l-3.8,2.3h3.3L247.8,60.7z M245,168l-2.3,1c0.3,0.5,1,0.8,1.3,1.3l4-2.3H245z M245,58.2
					c-0.8,0.8-1.3,1.5-2,2.3l2.8-1.8L245,58.2z M245,171.5l1.5-1.5l-1.8,1C244.8,171.3,245,171.3,245,171.5z M249.6,56.4v-1.8
					l-2.3,1.5l-1.3,1.3l0.8,0.8L249.6,56.4z M249.6,170v-1.3l-3,3.3L249.6,170z M249.6,173.3v-1.8l-2.8,1.5c0.5,0.5,0.8,1,1.3,1.3
					L249.6,173.3z M249.6,166.5v-1.3l-2.5,1.3H249.6z M249.6,59.7v-1.8l-1.8,1l1,1.3L249.6,59.7z M248.8,62l-0.3-0.3l-0.3,0.3H248.8
					z M249.6,175.8v-1.3l-0.8,0.5L249.6,175.8z M282.4,35.2c2-0.5,3.8-0.8,5.8-1h-37.1v1H282.4z M251.1,51.1
					c7.8-6.6,16.9-11.4,27-14.4h-27V51.1z M295,36.7h-3.3l-40.6,23.5V62h0.3L295,36.7z M286.4,36.7l-35.3,20.4V59l38.4-22.2
					L286.4,36.7L286.4,36.7z M282.6,36.7c-1,0.3-2.3,0.5-3.3,0.8L251,53.9v2l33.1-19.2H282.6z M251.9,64.8l-0.8-0.8v1.3L251.9,64.8z
					 M253.9,66.8l-1.3-1l-1.5,0.8v2L253.9,66.8z M255.9,68.8l-1.3-1.3l-3.5,2.3v1.8L255.9,68.8z M257.7,70.8l-1-1.3l-5.6,3.3v2
					L257.7,70.8z M259.7,72.8l-1-1.3l-7.6,4.5v1.8L259.7,72.8z M261.7,74.9l-1-1.3l-9.6,5.6v2L261.7,74.9z M263.7,76.9
					c-0.5-0.5-0.5-0.8-1-1.3l-11.6,6.8v1.8L263.7,76.9z M261.9,80.9c1-1,1.8-2,2.8-3l-0.3-0.3L251,85.4v2L261.9,80.9z M265.7,78.6
					c-9.1,9.3-14.6,22.2-14.6,36.3s5.6,26.8,14.6,36.1l36.1-36.1L265.7,78.6z M257.9,86.5c0.8-1,1.3-2,2-3l-8.8,5.3v1.8L257.9,86.5z
					 M255.4,91.3c0.5-1,0.8-2,1.3-2.8l-5.6,3.3v2L255.4,91.3z M253.4,95.6c0.3-0.8,0.8-1.8,1-2.5l-3.3,2v1.8L253.4,95.6z
					 M252.1,99.3l0.8-2.3l-1.8,1v2L252.1,99.3z M251.6,100.9l-0.5,0.5v1.8C251.3,102.4,251.3,101.6,251.6,100.9z M251.1,126.6v1.8
					l0.3-0.3C251.1,127.6,251.1,127.1,251.1,126.6z M251.6,129.4l-0.5,0.3v2l1-0.8C251.9,130.4,251.9,129.9,251.6,129.4z
					 M252.6,131.9l-1.5,1v1.8l2-1.3C252.9,132.9,252.9,132.4,252.6,131.9z M253.4,134.4l-2.3,1.5v2l3-2L253.4,134.4z M254.6,137
					l-3.5,2.3v1.8l4.3-2.5L254.6,137z M255.9,139.5l-4.8,2.8v2l5.6-3.3L255.9,139.5z M257.2,142l-6.1,3.5v1.8l6.8-4
					C257.7,142.8,257.4,142.5,257.2,142z M258.7,144.3l-7.6,4.3v2l8.3-5C259.2,145,258.9,144.8,258.7,144.3z M260.2,146.5l-9.1,5.3
					v1.8l10.1-5.8C260.9,147.3,260.4,147.1,260.2,146.5z M261.9,148.6l-10.9,6.3v2l11.9-7.1C262.7,149.3,262.2,149.1,261.9,148.6z
					 M264.7,151.8c-0.3-0.5-0.8-0.5-1-1l-12.6,7.3v1.8l13.6-7.8V151.8z M261.7,155.1l-10.6,6.1v2l6.1-3.8L261.7,155.1z M251.1,164.5
					v1.3l3-3L251.1,164.5z M270,168h-3.3l-15.7,9.1c0.5,0.3,0.8,0.8,1.3,1L270,168z M264.5,168h-3l-10.3,5.8v2L264.5,168z
					 M259.2,168h-3.3l-4.8,2.8v1.8L259.2,168z M253.6,168h-2.5v1.5L253.6,168z M278.1,193.2c-10.1-3-19.2-8.1-27-14.6v14.6H278.1z
					 M251.1,195.8h37.1c-2-0.3-3.8-1-5.8-1.5h-31.3L251.1,195.8L251.1,195.8z M251.9,52.1l22-12.6C265.7,42.5,258.4,46.8,251.9,52.1
					z M254.6,63h-2.8l1,1.3L254.6,63z M271.3,157.7c-0.5-0.3-0.8-0.8-1.3-1l-17.4,9.8h3.3L271.3,157.7z M275.3,168h-3l-18.9,10.9
					c0.5,0.3,0.8,0.8,1.3,1L275.3,168z M300.6,36.7h-3.3L253.6,62h3.3L300.6,36.7z M260.2,63h-3.3l-3.3,2l1.3,1.3L260.2,63z
					 M267.8,154.6l-9.3,5.6l-4.5,4.3l15.1-8.6C268.5,155.6,268.3,154.9,267.8,154.6z M265.5,63h-3c-2.3,1.3-4.5,2.8-6.8,4l1.3,1
					L265.5,63z M280.9,168h-3.3l-22,12.6c0.5,0.3,1,0.8,1.5,1L280.9,168z M271,63h-3.3l-10.1,6.1l1.3,1L271,63z M273.8,159.4
					c-0.5-0.3-1-0.8-1.5-1l-14.1,8.1h3L273.8,159.4z M286.2,168h-3l-25,14.4l1.5,0.8L286.2,168z M305.9,36.7h-3L259.2,62h3.3
					L305.9,36.7z M276.6,63h-3.3l-13.6,8.1l1.3,1L276.6,63z M291.7,168h-3.3l-27.5,15.9c0.5,0.3,1,0.8,1.5,1L291.7,168z
					 M265.7,152.9l-4.3,4.3l5.3-3.3C266.2,153.6,266.2,153.1,265.7,152.9z M281.9,63h-3l-17.2,10.1l1.3,1L281.9,63z M276.6,160.9
					c-0.5-0.3-1.3-0.8-1.8-1l-11.4,6.6h3.3L276.6,160.9z M297.3,168H294l-30.5,17.4c0.5,0.3,1.3,0.8,1.8,1L297.3,168z M269.8,73.3
					c4-3.3,8.6-5.8,13.4-7.8l4.3-2.5h-3.3l-20.4,12.1l1.3,1L269.8,73.3z M311.4,36.7h-3.3L264.7,62h3L311.4,36.7z M338.9,77.9
					c-9.3-9.1-22.2-14.9-36.3-14.9s-26.8,5.8-36.1,14.9l36.1,36.1L338.9,77.9z M266.5,151.8c9.3,9.1,22,14.6,36.1,14.6
					s27-5.6,36.3-14.6l-36.3-36.1L266.5,151.8z M302.6,168h-3l-33.1,18.9c0.5,0.3,1,0.8,1.5,1L302.6,168z M279.4,162.4
					c-0.5-0.3-1.3-0.5-1.8-0.8l-8.6,4.8h3L279.4,162.4z M308.1,168h-3.3l-35.6,20.4c0.5,0.3,1.5,0.5,2,0.8L308.1,168z M316.7,36.7
					h-3L270,62h3.3L316.7,36.7z M313.4,168h-3l-37.9,21.7c0.5,0.3,1,0.5,1.8,0.8L313.4,168z M282.4,163.7c-0.5-0.3-1.3-0.5-1.8-0.8
					l-6.3,3.5h3.3L282.4,163.7z M322.3,36.7H319L275.6,62h3L322.3,36.7z M319,168h-3.3l-39.9,23c0.8,0.3,1.3,0.5,2,0.8L319,168z
					 M324.6,168h-3.3l-41.9,24.2c0.8,0.3,1.3,0.3,2,0.5L324.6,168z M285.7,165c-0.8-0.3-1.3-0.3-2-0.5l-3.8,2h3.3L285.7,165z
					 M326.1,37.5c-0.8-0.3-1.3-0.3-2-0.5l-43.2,25h3.3L326.1,37.5z M329.9,168h-3l-43.7,25.2h3L329.9,168z M289.2,166.2
					c-0.8-0.3-1.3-0.5-2-0.8l-1.8,1h3L289.2,166.2z M329.6,38.8c-0.8-0.3-1.3-0.5-2-0.8l-41.1,24h3L329.6,38.8z M291.2,63h-1.5
					l-1.3,0.8C289.2,63.5,290.2,63.2,291.2,63z M335.4,168h-3.3l-43.7,25.2h3.3L335.4,168z M288.5,194.3c0.3,0,0.5,0.3,0.8,0.3
					l0.3-0.3H288.5z M291.7,194.3l-0.8,0.5c0.8,0,2,0.5,2.8,0.5l1.3-1H291.7z M291.7,35.2l1.3-0.5C291.5,35,291.7,35.2,291.7,35.2z
					 M332.9,40c-0.5-0.3-1-0.5-1.8-0.8L291.7,62h3.3L332.9,40z M295.8,34.5l-1.8,0.8h3.3l2-1C298,34.2,297,34.5,295.8,34.5z
					 M340.7,168h-3L294,193.2h3.3L340.7,168z M297.3,194.3l-1.8,1c1,0,2,0.3,3,0.3l2-1.3H297.3z M335.9,41.3
					c-0.5-0.3-1.3-0.5-1.8-0.8L297.3,62h3.3L335.9,41.3z M302.6,34.2h-1l-2,1h3l2.3-1H302.6z M346.3,168H343l-43.4,25.2h3L346.3,168
					z M302.8,194.3l-2.3,1.3c0.8,0,1.3,0.3,2,0.3c0.3,0,1-0.3,1.3-0.3l2-1.3H302.8z M338.9,42.8c-0.5-0.3-1.3-0.8-1.8-1L302.8,62h3
					L338.9,42.8z M339.7,151.1c9.1-9.3,14.9-22,14.9-36.1s-5.8-27-14.9-36.3L303.6,115L339.7,151.1z M306.9,34.2l-2,1h3.3l1.5-0.8
					C308.6,34.5,307.9,34.2,306.9,34.2z M351.8,168h-3.3l-43.7,25.2h3.3L351.8,168z M308.1,194.3l-2,1.3c1.3,0,2.3-0.3,3.5-0.3
					l1.8-1H308.1z M342,44.3c-0.5-0.3-1.3-0.8-1.8-1L308.1,62h3.3L342,44.3z M311.7,34.5l-1.3,0.8h3l0.8-0.3
					C313.4,35,312.4,34.5,311.7,34.5z M354.6,169.5V168h-0.8l-43.4,25.2h3L354.6,169.5z M313.7,194.3l-1.3,0.8
					c1.5-0.3,2.8-0.3,4.3-0.5v-0.3H313.7z M344.5,45.8c-0.5-0.3-1-0.8-1.5-1L313.7,62h3L344.5,45.8z M314.2,63l0.3,0.3l0.3-0.3
					H314.2z M314.2,166.5h1.5l1-0.5C316,166.2,315,166.2,314.2,166.5z M354.6,172.5v-1.8l-38.9,22.5h3.3L354.6,172.5z M317,63
					l-0.8,0.5c0.8,0.3,1.3,0.5,2,0.8L320,63H317z M354.6,34.2h-37.4c2,0.3,3.8,0.5,5.8,1h31.6V34.2z M323,194.3
					c-2,0.5-3.8,1.3-5.8,1.5h37.4v-1.5H323z M340.5,153.6l-4.8,2.8c-4,3.3-8.6,5.8-13.4,7.8l-4.3,2.3h3.3l20.4-11.9L340.5,153.6z
					 M347.3,47.3l-1.5-0.8L319,62h3.3L347.3,47.3z M322.3,63l-2.5,1.8c0.8,0.3,1.3,0.3,2,0.5l3.8-2.3C325.6,63,322.3,63,322.3,63z
					 M354.6,175.8v-2l-33.3,19.4h1.5c1-0.3,2.3-0.8,3.3-1L354.6,175.8z M327.8,63c-1.5,1-3.3,1.8-4.8,2.8c0.5,0.3,1.3,0.8,1.8,1
					l6.1-3.8C330.9,63,327.8,63,327.8,63z M342.5,155.6l-18.9,10.9h3l17.2-9.8L342.5,155.6z M349.8,49.1c-0.5-0.3-1-0.8-1.5-1
					L324.6,62h3.3L349.8,49.1z M333.1,63l-7.1,4.3c0.5,0.3,1.3,0.5,1.8,0.8c2.8-1.8,5.8-3.3,8.6-5h-3.3V63z M327.3,36.7
					c10.1,3,19.4,7.8,27.3,14.4V36.7H327.3z M354.6,178.6c-7.8,6.6-17.2,11.6-27.3,14.6h27.3V178.6z M338.7,63l-9.8,5.8
					c0.5,0.3,1.3,0.8,1.8,1L342,63H338.7z M344.5,157.7l-15.7,8.8h3.3l13.6-7.8L344.5,157.7z M352.1,50.9c-0.5-0.3-1-0.8-1.5-1
					L330.1,62h3L352.1,50.9z M353.8,177.3l-22.5,13.1C339.4,187.4,347.3,182.9,353.8,177.3z M344.2,63l-12.6,7.3
					c0.5,0.3,1,0.8,1.5,1l14.1-8.3C347.2,63,344.2,63,344.2,63z M349.5,63l-15.4,9.1c0.5,0.3,0.8,0.8,1.3,1L352.8,63H349.5z
					 M346.5,159.7l-12.1,6.8h3l10.3-5.8L346.5,159.7z M354.3,52.6c-0.5-0.3-0.8-0.8-1.3-1L335.4,62h3.3L354.3,52.6z M347.3,69.6
					l4.3-4.3l-15.1,8.6c0.5,0.3,0.8,1,1.3,1.3L347.3,69.6z M339.7,76.9l4.3-4.3l-5.6,3.3C338.9,76.1,339.2,76.4,339.7,76.9z
					 M348.5,161.4l-8.8,5h3.3l6.8-3.8L348.5,161.4z M354.6,71.6v-1.8l-13.9,7.8v0.3c0.3,0.3,0.8,0.5,1,1L354.6,71.6z M354.6,142.3
					l-11.1,6.3c-1,1-1.8,2.3-2.8,3.3v0.3l13.9-7.8V142.3z M354.6,55.9v-2L341,62h3L354.6,55.9z M354.6,145.5l-12.9,7.3l1,1.3
					l11.9-6.8V145.5z M354.6,74.9v-2L342.5,80c0.3,0.5,0.8,0.8,1,1.3L354.6,74.9z M354.6,148.6l-10.9,6.3l1,1.3l9.8-5.6v-2H354.6z
					 M354.6,68.5v-2l-6.3,3.8l-4.3,4.3L354.6,68.5z M354.6,77.9v-1.8l-10.3,5.8c0.3,0.5,0.8,0.8,1,1.3L354.6,77.9z M350.6,163.5
					l-5.3,3h3.3l3-1.8L350.6,163.5z M354.6,139.2l-7.1,4c-0.8,1-1.3,2-2,3l9.1-5.3V139.2z M354.6,151.8l-8.8,5l1,1.3l7.8-4.5V151.8z
					 M354.6,81.2v-2l-8.6,5c0.3,0.5,0.5,0.8,0.8,1.3L354.6,81.2z M354.6,59v-1.8l-8.3,4.8h3.3L354.6,59z M354.6,84.2v-1.8l-7.1,4
					c0.3,0.5,0.5,0.8,0.8,1.3L354.6,84.2z M354.6,154.9l-6.8,4l1,1.3l5.8-3.3V154.9z M354.6,87.5v-2l-5.8,3.3l0.8,1.5L354.6,87.5z
					 M354.6,135.9l-4.5,2.5c-0.5,1-0.8,2-1.3,2.8l5.8-3.3V135.9z M354.6,158.2l-5,2.8l1.3,1.3l3.8-2.3L354.6,158.2L354.6,158.2z
					 M354.6,90.5v-1.8l-4.5,2.5c0.3,0.5,0.5,0.8,0.8,1.3L354.6,90.5z M350.8,166.5h2.8l-1-1L350.8,166.5z M354.6,132.9l-2.5,1.3
					c-0.3,0.8-0.8,1.8-1,2.5l3.5-2V132.9z M354.6,65.3V64l-3.3,3L354.6,65.3z M354.6,93.8v-2l-3.3,2c0.3,0.5,0.3,0.8,0.5,1.3
					L354.6,93.8z M354.6,161.2l-3,1.8l1.3,1l1.8-0.8L354.6,161.2L354.6,161.2z M354.6,62v-1.8l-2.8,1.8H354.6z M354.6,96.8V95
					l-2.3,1.3c0.3,0.5,0.3,1,0.5,1.5L354.6,96.8z M354.6,129.6l-1.3,0.8l-0.8,2.3l2-1L354.6,129.6L354.6,129.6z M354.6,100.1v-2
					l-1.3,0.8c0.3,0.5,0.3,1,0.5,1.5L354.6,100.1z M353.6,165l1,0.8v-1.3L353.6,165z M354.6,126.6h-0.3c-0.3,0.8-0.3,1.3-0.5,2
					l0.8-0.3V126.6z M354.6,103.1v-1.8l-0.5,0.3c0.3,0.5,0.3,1,0.3,1.5H354.6z M355.6,36.7v15.7c1.5,1.3,3,2.5,4.5,4L380,36.7H355.6
					z M355.6,53.9v1.3l1-0.5C356.4,54.4,355.9,54.2,355.6,53.9z M357.4,55.4l-1.8,1v1.8l3-1.5C358.1,56.2,357.9,55.7,357.4,55.4z
					 M355.6,59.5V61l3.5-3.3L355.6,59.5z M360.4,63l-4.8,2.8v2l8.1-4.8C363.7,63,360.4,63,360.4,63z M355.6,63v1.5
					c0.8-0.5,1.8-1,2.5-1.5H355.6z M365.2,63.5l-9.6,5.6v1.8l10.6-6.1C365.9,64.3,365.4,64,365.2,63.5z M367,65.8l-11.4,6.3v2
					l12.1-7.1C367.5,66.5,367.2,66.3,367,65.8z M368.5,68l-12.9,7.3v1.8l13.9-7.8C369.2,68.8,368.7,68.5,368.5,68z M370,70.3
					l-14.4,8.1v2l15.4-8.8C370.7,71.1,370.2,70.8,370,70.3z M371.5,72.6l-15.9,9.1v1.8l16.7-9.6C372,73.3,371.8,73.1,371.5,72.6z
					 M373,74.9l-17.4,9.8v2l18.2-10.3L373,74.9z M374.3,77.4L355.6,88v1.8L375,78.6C374.8,78.1,374.5,77.9,374.3,77.4z M375.5,79.7
					L355.6,91v2L376,81.2C375.8,80.7,375.8,80.2,375.5,79.7z M376.6,82.2l-21,12.1v1.8l21.7-12.4L376.6,82.2z M377.6,84.7l-22,12.6
					v2l22.7-13.1L377.6,84.7z M378.6,87.2l-23,13.4v1.8l23.7-13.6L378.6,87.2z M379.6,90l-24,13.6v2l24.5-14.1
					C379.8,91,379.8,90.5,379.6,90z M380.3,92.5l-24.7,14.4v1.8l25.2-14.4C380.6,93.8,380.6,93,380.3,92.5z M381.1,95.3l-25.5,14.6
					v2l26-14.9C381.6,96.6,381.3,95.8,381.1,95.3z M381.9,98.1l-26.3,15.1v1.8l26.5-15.1C382.1,99.3,381.9,98.6,381.9,98.1z
					 M382.4,100.9l-26.8,15.4v2l27-15.7C382.6,102.1,382.4,101.4,382.4,100.9z M382.9,103.9l-27.3,15.7v1.8l27.3-15.7V103.9z
					 M383.1,106.9l-27.5,15.7v2l27.8-15.9C383.4,108.2,383.1,107.4,383.1,106.9z M383.4,109.9l-27.8,15.9v1.8l27.8-15.9V109.9z
					 M383.4,113l-27.8,15.9v2l27.8-16.2V113z M383.4,116l-27.8,16.2v1.8l27.8-15.9V116z M383.4,119.3l-27.8,15.9v2l27.8-15.9V119.3z
					 M383.1,122.6l-27.5,15.9v1.8l27.3-15.7C382.9,123.8,383.1,123.3,383.1,122.6z M382.6,125.8l-27,15.7v2l26.8-15.7
					C382.4,127.1,382.6,126.6,382.6,125.8z M382.1,129.4l-26.5,15.4v1.8l26.3-15.1C382.1,130.6,381.9,130.1,382.1,129.4z
					 M381.3,132.9l-25.7,14.9v2l25.2-14.6C381.1,134.4,381.1,133.7,381.3,132.9z M380.6,136.7l-25,14.4v1.8l24.2-13.9L380.6,136.7z
					 M379.3,140.5l-23.7,13.6v2l23-13.1C378.8,142.3,379.1,141.2,379.3,140.5z M377.8,144.5l-22.2,12.9v1.8l21.2-12.1
					C377.1,146.3,377.6,145.3,377.8,144.5z M376,148.8l-20.4,11.6v2l19.2-11.1C375.3,150.6,375.5,149.6,376,148.8z M373.8,153.1
					l-18.2,10.6v1.8l16.7-9.6C372.8,154.9,373.3,154.1,373.8,153.1z M356.6,169.5l-1,0.5v1.8l2-1L356.6,169.5z M359.4,172.3
					l-0.8-0.8l-3,1.5v2l2.5-1.5L359.4,172.3z M380.1,193.2l-19.9-19.9c-1.5,1.5-3,2.8-4.5,4v15.9H380.1z M369,160.9c0.8-1,1.3-2,2-3
					l-14.9,8.6h3.3L369,160.9z M362.7,60.7c-0.3-0.5-1-0.8-1.3-1.3l-4.3,2.5h3.3L362.7,60.7z M359.4,168l-1.8,1l1.3,1l3.8-2H359.4z
					 M360.1,58.2l-1.3,1.3l1.8-1L360.1,58.2z M360.1,171.5l2.3-2.3l-2.8,1.5L360.1,171.5z M361.2,57.4c1.5,1.5,2.8,3,4,4.5h18.2
					V36.7h-1.5L361.2,57.4z M365.2,168c-1.3,1.5-2.5,2.8-4,4.3l20.7,21h1.5V168H365.2z M364.7,166.5c1-1,2-2,2.8-3.3l-5.8,3.3H364.7
					z M363.7,62l-0.3-0.5l-0.8,0.5H363.7z M366.5,63c8.6,10.6,14.4,23.5,16.9,37.4V63H366.5z M383.4,129.4
					c-2.5,13.9-8.3,26.5-16.9,37.1h16.9V129.4z M383.4,35.2V35l-0.3,0.3L383.4,35.2L383.4,35.2z M383.1,194.3l0.3,0.5v-0.5H383.1z"
					/>
				<path class="st1" d="M588.6,36.7h-18.7V115v51.5h19.2v1.5h-19.2v25.2h24.2v1h-24.2v37.6h-1.5v-37.6h-27.8v1.5h4.5v1h-4.5v35.1
					h-1v-35.1h-52h-51.5v35.1h-1.5v-35.1h-1.8v-1h1.8v-1.5h-27.8v37.6h-1v-37.6h-14.1v-1h14.1V168h-14.1v-1.5h14.1V115V36.7h-16.9
					v-1.5h16.9V0.9h1v34.3h27.8V0.9h1.5v34.3h31.3c6.6-1.8,13.1-2.5,20.2-2.5s13.9,0.8,20.4,2.5h31.6V0.9h1v34.3h27.8V0.9h1.5v34.3
					h18.7V36.7z M434.6,37.5v-0.8h-1.3l-26.5,15.1v1.8L434.6,37.5z M431.1,36.7h-3.3l-21,11.9v2L431.1,36.7z M425.5,36.7h-3
					l-15.7,8.8v1.8L425.5,36.7z M420.2,36.7h-3.3l-10.1,5.6v2L420.2,36.7z M414.7,36.7h-3.3c-1.5,0.8-3,1.8-4.5,2.5V41L414.7,36.7z
					 M409.1,36.7h-2.3V38L409.1,36.7z M434.6,40.8V39l-27.8,15.9v2L434.6,40.8z M434.6,43.8V42l-27.8,16.2V60L434.6,43.8z
					 M434.6,47.1v-1.8l-27.8,15.9v2L434.6,47.1z M434.6,50.1v-1.8l-27.8,16.2v1.8L434.6,50.1z M431.3,55.4c1.3-1,2-2,3.3-3v-0.8
					l-27.8,15.9v2L431.3,55.4z M424.8,62.2c1-1.3,2-2.5,3.3-3.8l-21.2,12.4v1.8L424.8,62.2z M420.5,68c0.8-1,1.5-2.3,2.3-3.3
					l-15.9,9.1v2L420.5,68z M417.2,73.1c0.5-1,1.3-2,1.8-3l-12.1,7.1V79L417.2,73.1z M414.7,77.6c0.5-1,0.8-1.8,1.3-2.5l-9.1,5v2
					L414.7,77.6z M412.7,81.9c0.3-0.8,0.5-1.8,1-2.5l-6.8,4v1.8L412.7,81.9z M410.9,86.2c0.3-0.8,0.8-1.8,1-2.5l-5,2.8v2L410.9,86.2
					z M409.6,90l0.8-2.3l-3.5,2v1.8L409.6,90z M408.4,93.8c0.3-0.8,0.5-1.3,0.8-2l-2.3,1v2L408.4,93.8z M407.6,97.6
					c0.3-0.8,0.3-1.5,0.5-2.3l-1.3,0.8v1.8L407.6,97.6z M434.6,98.8L406.8,115c0,0.5,0.3,1.3,0.3,1.8l27.5-16.2L434.6,98.8
					L434.6,98.8z M406.8,100.4c0-0.5,0.5-0.8,0.5-1.3h-0.5V100.4z M424,166.5c-8.6-10.6-14.6-23.2-17.2-37.1v37.1H424z M434.6,177.3
					c-3.5-3-6.3-5.8-9.3-9.3h-18.4v25.2h27.8v-15.9H434.6z M434.6,92.5l-27.5,15.9v2l27.5-16.2V92.5z M434.6,95.8l-27.5,15.9v2
					l27.5-16.2V95.8z M434.6,102.1L407.1,118v1.8l27.5-15.9V102.1z M434.6,105.1L407.1,121c0,0.5,0.3,1.3,0.3,1.8l27.3-15.9
					L434.6,105.1L434.6,105.1z M434.6,89.5l-27,15.7c0,0.8-0.3,1.3-0.3,2l27.3-15.9V89.5z M434.6,108.4l-27,15.7v1.8l27-15.7V108.4z
					 M434.6,86.2l-26.5,15.4c0,0.8-0.3,1.3-0.3,2L434.6,88V86.2z M434.6,111.5l-26.8,15.7c0,0.5,0.3,1,0.3,1.5l26.5-15.4V111.5z
					 M434.6,83.2l-26,14.9c-0.3,0.8,0,1.5-0.3,2.3L434.6,85V83.2z M434.6,115v-0.3l-26.3,15.1c0,0.5,0.3,1.3,0.3,1.8l26-15.1V115z
					 M434.6,117.8l-25.7,14.9c0,0.5,0.3,1.3,0.5,1.8l25.2-14.9V117.8z M434.6,79.9l-25,14.6c-0.3,0.8-0.3,1.3-0.5,2l25.5-14.9V79.9z
					 M434.6,121.1l-25,14.4c0.3,0.5,0.3,1.3,0.5,1.8l24.5-14.4V121.1z M434.6,76.9l-24,13.9l-0.8,2.3l24.7-14.4L434.6,76.9
					L434.6,76.9z M434.6,124.1l-24.2,14.1c0.3,0.5,0.3,1,0.5,1.5l23.7-13.9V124.1z M434.6,73.6l-22.7,13.1c-0.3,0.8-0.5,1.8-0.8,2.5
					l23.5-13.9V73.6z M434.6,127.4L411.1,141l0.8,1.5l22.7-13.4V127.4z M434.6,130.4l-22.5,13.1l0.8,1.5l21.7-12.9V130.4z
					 M434.6,70.6l-21,12.1c-0.3,0.8-0.8,1.8-1,2.5l22-12.9V70.6z M434.6,133.7L413.2,146l0.8,1.5l20.7-12.1v-1.7H434.6z M434.6,67.3
					l-18.9,11.1c-0.5,0.8-0.8,1.8-1.3,2.5L434.6,69L434.6,67.3L434.6,67.3z M434.6,136.7l-20.2,11.9c0.3,0.5,0.3,1,0.5,1.5
					l19.7-11.6V136.7z M434.6,140l-19.2,11.1c0.3,0.5,0.5,0.8,0.8,1.3l18.4-10.6L434.6,140L434.6,140z M434.6,64.3l-16.4,9.6
					c-0.5,1-1,1.5-1.5,2.5L434.6,66V64.3z M434.6,143l-17.9,10.3l0.8,1.5l17.2-10.1V143H434.6z M434.6,146.3l-16.4,9.6
					c0.3,0.5,0.5,0.8,0.8,1.3l15.7-9.1v-1.8H434.6z M434.6,61l-13.1,7.8c-0.8,1-1.3,1.8-2,2.8l15.1-8.8V61z M434.6,149.3l-15.1,8.8
					c0.3,0.5,0.8,0.8,1,1.3l14.1-8.3V149.3z M434.6,152.6l-13.6,7.8c0.3,0.5,0.8,0.8,1,1.3l12.6-7.3V152.6z M434.6,155.6l-11.9,7.1
					c0.3,0.5,0.5,0.8,0.8,1.3l11.1-6.6V155.6z M434.6,57.9l-8.8,5c-1,1-2,2.3-2.8,3.5l11.6-6.8L434.6,57.9L434.6,57.9z M434.6,158.9
					l-10.3,6.1c0.3,0.5,0.8,0.8,1,1.3l9.3-5.6V158.9z M434.6,161.9l-7.8,4.5h3l4.8-2.8V161.9z M426.8,168l0.3,0.3l0.8-0.3H426.8z
					 M430.1,168l-2.3,1c0.3,0.5,1,0.8,1.3,1.3l4-2.3H430.1z M434.6,54.7l-2.3,1.5c-1.5,1.3-3,2.8-4.3,4.3l6.6-4L434.6,54.7
					L434.6,54.7z M434.6,170v-1.8l-4.8,2.8l1.3,1.3L434.6,170z M434.6,173.3v-1.8l-2.8,1.5c0.5,0.5,0.8,1,1.3,1.3L434.6,173.3z
					 M432.1,166.5h2.5v-1.3L432.1,166.5z M434.6,175.8v-1.3l-0.8,0.5L434.6,175.8z M507.8,36.7h-40.1c-11.9,3-22.5,8.6-31.6,16.2
					v50.5c5.3-23.7,26.3-41.4,51.5-41.4s46.7,17.7,52,41.4V52.9C530.5,45.3,519.7,39.8,507.8,36.7z M436.1,51.1
					c7.8-6.6,16.9-11.4,27-14.4h-27V51.1z M487.6,63c-28.5,0-51.5,23.5-51.5,52s23,51.5,51.5,51.5c28.5,0,52-23,52-51.5
					S516.1,63,487.6,63z M436.1,126.6v1.8l0.3-0.3C436.1,127.6,436.1,127.1,436.1,126.6z M436.6,129.4l-0.5,0.3v2l1-0.8
					C436.9,130.4,436.9,129.9,436.6,129.4z M437.6,131.9l-1.5,1v1.8l2-1.3C437.9,132.9,437.9,132.4,437.6,131.9z M438.4,134.4
					l-2.3,1.5v2l3-2L438.4,134.4z M439.7,137l-3.5,2.3v1.8l4.3-2.5L439.7,137z M440.9,139.5l-4.8,2.8v2l5.6-3.3L440.9,139.5z
					 M442.2,142l-6.1,3.5v1.8l6.8-4C442.7,142.8,442.4,142.5,442.2,142z M443.7,144.3l-7.6,4.3v2l8.3-5
					C444.2,145,444,144.8,443.7,144.3z M445.2,146.5l-9.1,5.3v1.8l10.1-5.8C446,147.3,445.5,147.1,445.2,146.5z M447,148.6
					l-10.9,6.3v2l11.9-7.1C447.7,149.3,447.2,149.1,447,148.6z M448.7,150.8l-12.6,7.3v1.8l13.6-8.1
					C449.3,151.3,449,151.3,448.7,150.8z M450.8,152.9l-14.6,8.3v2l15.7-9.3C451.3,153.6,451.3,153.4,450.8,152.9z M452.8,154.6
					l-16.7,9.8v1.8l17.9-10.3C453.5,155.6,453.3,154.9,452.8,154.6z M455.1,168h-3.3l-15.7,9.1c0.5,0.3,0.8,0.8,1.3,1L455.1,168z
					 M449.5,168h-3l-10.3,5.8v2L449.5,168z M444.2,168h-3.3l-4.8,2.8v1.8L444.2,168z M438.7,168h-2.5v1.5L438.7,168z M463.1,193.2
					c-10.1-3-19.2-8.1-27-14.6v14.6H463.1z M436.1,195.8h37.1c-2-0.3-3.8-1-5.8-1.5h-31.3L436.1,195.8L436.1,195.8z M456.3,157.7
					c-0.5-0.3-0.8-0.8-1.3-1l-17.4,9.8h3.3L456.3,157.7z M460.4,168h-3l-18.9,10.9c0.5,0.3,0.8,0.8,1.3,1L460.4,168z M465.9,168
					h-3.3l-22,12.6c0.5,0.3,1,0.8,1.5,1L465.9,168z M458.8,159.4c-0.5-0.3-1-0.8-1.5-1l-14.1,8.1h3L458.8,159.4z M471.2,168h-3
					l-25,14.4l1.5,0.8L471.2,168z M476.8,168h-3.3L446,183.9c0.5,0.3,1,0.8,1.5,1L476.8,168z M461.6,160.9c-0.5-0.3-1.3-0.8-1.8-1
					l-11.4,6.6h3.3L461.6,160.9z M482.3,168H479l-30.5,17.4c0.5,0.3,1.3,0.8,1.8,1L482.3,168z M487.6,168h-3l-33.1,18.9
					c0.5,0.3,1,0.8,1.5,1L487.6,168z M464.4,162.4c-0.5-0.3-1.3-0.5-1.8-0.8l-8.6,4.8h3L464.4,162.4z M493.2,168h-3.3l-35.6,20.4
					c0.5,0.3,1.5,0.5,2,0.8L493.2,168z M498.5,168h-3l-37.9,21.7c0.5,0.3,1,0.5,1.8,0.8L498.5,168z M467.4,163.7
					c-0.5-0.3-1.3-0.5-1.8-0.8l-6.3,3.5h3.3L467.4,163.7z M504,168h-3.3l-39.9,23c0.8,0.3,1.3,0.5,2,0.8L504,168z M509.6,168h-3.3
					l-41.9,24.2c0.8,0.3,1.3,0.3,2,0.5L509.6,168z M470.7,165c-0.8-0.3-1.3-0.3-2-0.5l-3.8,2h3.3L470.7,165z M514.9,168h-3
					l-43.7,25.2h3L514.9,168z M474.2,166.2c-0.8-0.3-1.3-0.5-2-0.8l-1.8,1h3L474.2,166.2z M487.6,34.2c-4.8,0-9.6,0.3-14.1,1H502
					C497.5,34.5,492.4,34.2,487.6,34.2z M520.4,168h-3.3l-43.7,25.2h3.3L520.4,168z M473.5,194.3c0.3,0,0.5,0.3,0.8,0.3l0.3-0.3
					H473.5z M476.8,194.3l-0.8,0.5c0.8,0,2,0.5,2.8,0.5l1.3-1H476.8z M525.7,168h-3L479,193.2h3.3L525.7,168z M482.3,194.3l-1.8,1
					c1,0,2,0.3,3,0.3l2-1.3H482.3z M531.3,168H528l-43.4,25.2h3L531.3,168z M487.9,194.3l-2.3,1.3c0.8,0,1.3,0.3,2,0.3
					c0.3,0,1-0.3,1.3-0.3l2-1.3H487.9z M536.8,168h-3.3l-43.7,25.2h3.3L536.8,168z M493.2,194.3l-2,1.3c1.3,0,2.3-0.3,3.5-0.3l1.8-1
					H493.2z M539.6,169.5V168h-0.8l-43.4,25.2h3L539.6,169.5z M498.7,194.3l-1.3,0.8c1.5-0.3,2.8-0.3,4.3-0.5v-0.3H498.7z
					 M499.2,166.5h1.5l1-0.5C501,166.2,500,166.2,499.2,166.5z M539.6,172.5v-1.8l-38.9,22.5h3.3L539.6,172.5z M508.1,194.3
					c-2,0.5-3.8,1.3-5.8,1.5h37.4v-1.5H508.1z M539.6,145.5l-18.9,10.9c-4,3.3-8.6,5.8-13.4,7.8l-4.3,2.3h3.3l33.3-19.2V145.5z
					 M539.6,175.8v-2l-33.3,19.4h1.5c1-0.3,2.3-0.8,3.3-1L539.6,175.8z M539.6,148.6l-31,17.9h3l28-15.9V148.6z M512.4,36.7
					c10.1,3,19.4,7.8,27.3,14.4V36.7H512.4z M539.6,178.6c-7.8,6.6-17.2,11.6-27.3,14.6h27.3V178.6z M539.6,151.8l-25.7,14.6h3.3
					l22.5-12.9L539.6,151.8L539.6,151.8z M538.9,177.3l-22.5,13.1C524.5,187.4,532.3,182.9,538.9,177.3z M539.6,154.9l-20.2,11.6h3
					l17.2-9.6V154.9z M539.6,158.2l-14.9,8.3h3.3l11.6-6.6L539.6,158.2L539.6,158.2z M539.6,142.3l-11.1,6.3c-1,1.3-2.3,2.8-3.5,4
					l14.6-8.3V142.3z M539.6,161.2l-9.3,5.3h3.3l6.1-3.3L539.6,161.2L539.6,161.2z M539.6,139.2l-7.1,4c-0.8,1-1.3,2-2,3l9.1-5.3
					V139.2z M539.6,135.9l-4.5,2.5c-0.5,1-0.8,2-1.3,2.8l5.8-3.3V135.9z M539.6,164.5l-3.8,2h3l0.8-0.3V164.5z M539.6,132.9
					l-2.5,1.3c-0.3,0.8-0.8,1.8-1,2.5l3.5-2V132.9z M539.6,129.6l-1.3,0.8l-0.8,2.3l2-1L539.6,129.6L539.6,129.6z M539.6,126.6h-0.3
					c-0.3,0.8-0.3,1.3-0.5,2l0.8-0.3V126.6z M564.1,36.7l-23.5,13.4v1.8l26.5-15.1L564.1,36.7L564.1,36.7z M558.6,36.7l-17.9,10.1v2
					l21.2-12.1C561.9,36.7,558.6,36.7,558.6,36.7z M553.3,36.7l-12.6,7.1v1.8l15.7-8.8L553.3,36.7L553.3,36.7z M547.7,36.7l-7.1,3.8
					v2l10.3-5.8H547.7z M542.1,36.7l-1.5,0.8v1.8l4.8-2.5L542.1,36.7L542.1,36.7z M540.6,53.9v1.3l1-0.5
					C541.4,54.4,540.9,54.2,540.6,53.9z M542.4,55.4l-1.8,1v1.8l3-1.5C543.2,56.2,542.9,55.7,542.4,55.4z M544.4,57.4l-3.8,2v2l5-3
					C545.2,57.9,544.9,57.9,544.4,57.4z M546.4,59.5l-5.8,3.3v1.8l7.1-3.8C547.4,60.2,546.7,60,546.4,59.5z M548.5,61.5l-7.8,4.3v2
					l8.8-5C549.2,62.2,548.7,62,548.5,61.5z M550.2,63.5l-9.6,5.6v1.8l10.6-6.1C551,64.3,550.5,64,550.2,63.5z M552,65.8
					c-3.8,2-7.6,4.3-11.4,6.3v2l12.1-7.1C552.5,66.5,552.2,66.3,552,65.8z M553.5,68l-12.9,7.3v1.8l13.9-7.8
					C554.3,68.8,553.8,68.5,553.5,68z M555,70.3l-14.4,8.1v2l15.4-8.8C555.8,71.1,555.3,70.8,555,70.3z M556.5,72.6l-15.9,9.1v1.8
					l16.7-9.6C557,73.3,556.8,73.1,556.5,72.6z M558,74.9l-17.4,9.8v2l18.2-10.3L558,74.9z M559.3,77.4L540.6,88v1.8L560,78.7
					C559.8,78.1,559.6,77.9,559.3,77.4z M560.6,79.7l-20,11.3v2L561,81.1C560.8,80.7,560.8,80.2,560.6,79.7z M561.6,82.2l-21,12.1
					v1.8l21.7-12.4L561.6,82.2z M562.6,84.7l-22,12.6v2l22.7-13.1L562.6,84.7z M563.6,87.2l-23,13.4v1.8l23.7-13.6L563.6,87.2z
					 M564.6,90l-24,13.6v2l24.5-14.1C564.9,91,564.9,90.5,564.6,90z M565.4,92.5l-24.7,14.4v1.8l25.2-14.4
					C565.6,93.8,565.6,93,565.4,92.5z M566.1,95.3l-25.5,14.6v2l26-14.9C566.6,96.6,566.4,95.8,566.1,95.3z M566.9,98.1l-26.3,15.1
					v1.8l26.5-15.1C567.1,99.3,566.9,98.6,566.9,98.1z M567.4,100.9l-26.8,15.4v2l27-15.7C567.6,102.1,567.4,101.4,567.4,100.9z
					 M567.9,103.9l-27.3,15.7v1.8l27.3-15.7V103.9z M568.1,106.9l-27.5,15.7v2l27.8-15.9C568.4,108.2,568.1,107.4,568.1,106.9z
					 M568.4,109.9l-27.8,15.9v1.8l27.8-15.9V109.9z M568.4,113l-27.8,15.9v2l27.8-16.2V113z M568.4,116l-27.8,16.2v1.8l27.8-15.9
					V116z M568.4,119.3l-27.8,15.9v2l27.8-15.9V119.3z M568.1,122.6l-27.5,15.9v1.8l27.3-15.7C567.9,123.8,568.1,123.3,568.1,122.6z
					 M567.6,125.8l-27,15.7v2l26.8-15.7C567.4,127.1,567.6,126.6,567.6,125.8z M567.1,129.4l-26.5,15.4v1.8l26.3-15.1
					C567.1,130.6,566.9,130.1,567.1,129.4z M566.4,132.9l-25.7,14.9v2l25.2-14.6C566.1,134.4,566.1,133.7,566.4,132.9z M565.6,136.7
					l-25,14.4v1.8l24.2-13.9L565.6,136.7z M564.4,140.5l-23.7,13.6v2l23-13.1C563.9,142.3,564.1,141.2,564.4,140.5z M562.8,144.5
					l-22.2,12.9v1.8l21.2-12.1C562.1,146.3,562.6,145.3,562.8,144.5z M561.1,148.8l-20.4,11.6v2l19.2-11.1
					C560.3,150.6,560.6,149.6,561.1,148.8z M558.8,153.1l-18.2,10.6v1.8l16.7-9.6C557.8,154.9,558.3,154.1,558.8,153.1z M550.2,168
					c-3,3.5-6.1,6.3-9.6,9.3v15.9h27.8V168H550.2z M547.7,168h-3.3l-3.8,2v1.8L547.7,168z M542.1,168h-1.5v0.8L542.1,168z
					 M543.2,173.6c1.5-1.3,3-2.8,4.3-4.3l-6.8,3.8v2L543.2,173.6z M554,160.9c0.8-1,1.3-2,2-3l-14.9,8.6h3.3L554,160.9z M568.4,39
					v-1.8l-27,15.7c0.5,0.3,0.8,0.8,1.3,1L568.4,39z M568.4,42.3v-2l-24.7,14.4c0.5,0.3,0.5,0.8,1,1.3L568.4,42.3z M568.4,45.3v-1.8
					l-22.7,13.1c0.5,0.5,0.5,0.8,1,1.3L568.4,45.3z M549.7,166.5c1-1,2-2,2.8-3.3l-5.8,3.3H549.7z M568.4,48.6v-2l-20.7,12.1
					c0.3,0.5,0.8,0.8,1,1.3L568.4,48.6z M568.4,51.6v-1.8l-18.9,10.9c0.3,0.5,0.8,0.8,1,1.3L568.4,51.6z M568.4,54.9v-2L551.2,63
					c0.3,0.5,0.8,0.8,1,1.3L568.4,54.9z M568.4,129.4c-2.5,13.9-8.3,26.5-16.9,37.1h16.9V129.4z M568.4,57.9v-1.8L553,65
					c0.3,0.5,0.8,1,1,1.5L568.4,57.9z M568.4,61.2v-2l-13.9,8.1c0.3,0.5,0.8,0.8,1,1.3L568.4,61.2z M568.4,64.3v-1.8L556,69.6
					c0.3,0.5,0.8,0.8,1,1.3L568.4,64.3z M568.4,67.5v-2l-10.9,6.3c0.3,0.5,0.8,1,1,1.5L568.4,67.5z M568.4,70.6v-1.8l-9.3,5.6
					c0.3,0.5,0.5,0.8,0.8,1.3L568.4,70.6z M568.4,73.8v-2l-8.1,4.8l0.8,1.5L568.4,73.8z M568.4,76.9v-1.8l-6.8,4
					c0.3,0.5,0.5,0.8,0.8,1.3L568.4,76.9z M568.4,80.2v-2l-5.6,3.5c0.3,0.5,0.3,0.8,0.5,1.3L568.4,80.2z M568.4,83.2v-1.8l-4.5,2.8
					c0.3,0.5,0.3,0.8,0.5,1.3L568.4,83.2z M568.4,86.5v-2l-3.5,2.3c0.3,0.5,0.3,1,0.5,1.5L568.4,86.5z M568.4,89.5v-1.8l-2.8,1.5
					c0.3,0.5,0.3,1,0.5,1.5L568.4,89.5z M568.4,92.8v-2l-1.8,1.3c0.3,0.5,0,1,0.3,1.5L568.4,92.8z M568.4,95.8V94l-1,0.8
					c0.3,0.5,0.3,1,0.3,1.5L568.4,95.8z M568.4,97.1l-0.5,0.5c0,0.5,0.5,1,0.5,1.5V97.1z"/>
				<path class="st1" d="M743.3,36.7h-13.6V62h13.6v1h-13.6v22.7h-1.5V63h-53v130.3h45.9v1h-45.9v37.6h-1v-37.6H649v37.6h-1.5v-37.6
					h-44.7v-1h44.7V63h-53v22.7h-1V63H574v-1h19.4V36.7H574v-1.5h19.4V0.4h1v34.8h53V0.4h1.5v34.8h25.2V0.4h1v34.8h53V0.4h1.5v34.8
					h13.6L743.3,36.7L743.3,36.7z M634.8,36.7L594.4,60v1.8l43.4-25L634.8,36.7L634.8,36.7z M629.2,36.7l-34.8,19.9v1.8l38.1-21.7
					C632.5,36.7,629.2,36.7,629.2,36.7z M623.7,36.7l-29.3,16.9v1.8L627,36.7H623.7z M618.4,36.7l-24,13.6v1.8l27-15.4
					C621.4,36.7,618.4,36.7,618.4,36.7z M612.8,36.7l-18.4,10.6v1.8l21.7-12.4C616.1,36.7,612.8,36.7,612.8,36.7z M607.5,36.7
					L594.4,44v1.8l16.2-9.1C610.6,36.7,607.5,36.7,607.5,36.7z M602,36.7l-7.6,4.3v1.8l10.9-6.1H602z M596.4,36.7l-2,1v1.8l5.3-2.8
					H596.4z M643.4,36.7h-3.3L596.4,62h3.3L643.4,36.7z M647.4,37.2v-0.5h-1.8L602,62h3.3L647.4,37.2z M647.4,40.5v-2L607.5,62h3
					L647.4,40.5z M647.4,43.6v-1.8L612.8,62h3.3L647.4,43.6z M647.4,46.8v-2l-29,17.2h3L647.4,46.8z M647.4,49.9v-1.8L623.7,62h3.3
					L647.4,49.9z M647.4,53.1v-2L629.2,62h3.3L647.4,53.1z M647.4,56.2v-1.8L634.8,62h3L647.4,56.2z M647.4,59.5v-2l-7.3,4.5h3.3
					L647.4,59.5z M647.4,62v-1.3l-1.8,1.3H647.4z M674.2,36.7h-1.3l-24,13.9v1.8l25.2-14.6L674.2,36.7L674.2,36.7z M667.3,36.7
					l-18.4,10.6v1.8l21.7-12.4C670.6,36.7,667.3,36.7,667.3,36.7z M661.8,36.7l-12.9,7.6v1.8l16.2-9.3L661.8,36.7L661.8,36.7z
					 M656.5,36.7l-7.6,4.3v1.8l10.6-6.1H656.5z M650.9,36.7l-2,1.3v1.8l5.3-3L650.9,36.7L650.9,36.7z M674.2,39L649,53.6v1.8
					l25.2-14.6V39z M674.2,42.3L649,56.9v1.8l25.2-14.6V42.3z M674.2,45.3L648.9,60v1.8l25.2-14.6L674.2,45.3L674.2,45.3z M673.9,63
					h-3.3l-21.7,12.9v1.8L673.9,63z M668.4,63h-3.3l-16.2,9.6v1.8L668.4,63z M662.8,63h-3l-10.9,6.6v1.8L662.8,63z M657.5,63h-3.3
					l-5.3,3.3V68L657.5,63z M652,63h-3v0.3V65C649.9,64.5,650.9,63.5,652,63z M674.2,66v-1.8L649,78.8v1.8L674.2,66z M674.2,69.3
					v-1.8L649,82.1v1.8L674.2,69.3z M674.2,72.3v-1.8L649,85.1V87L674.2,72.3z M674.2,75.6v-1.8L649,88.4v1.8L674.2,75.6z
					 M674.2,78.6v-1.8L649,91.4v1.8L674.2,78.6z M674.2,81.9v-1.8L649,94.7v1.8L674.2,81.9z M674.2,85v-1.8L649,97.8v1.8L674.2,85z
					 M674.2,88.2v-1.8L649,101v1.8L674.2,88.2z M674.2,91.3v-1.8L649,104.1v1.8L674.2,91.3z M674.2,94.5v-1.8L649,107.3v1.8
					L674.2,94.5z M674.2,97.6v-1.8L649,110.4v1.8L674.2,97.6z M674.2,100.9v-1.8L649,113.7v1.8L674.2,100.9z M674.2,103.9v-1.8
					L649,116.7v1.8L674.2,103.9z M674.2,107.2v-1.8L648.9,120v1.8L674.2,107.2z M674.2,110.2v-1.8L649,123v1.8L674.2,110.2z
					 M674.2,113.5v-1.8L649,126.3v1.8L674.2,113.5z M674.2,116.5v-1.8L649,129.3v1.8L674.2,116.5z M674.2,119.8V118L649,132.6v1.8
					L674.2,119.8z M674.2,122.8V121L649,135.6v1.8L674.2,122.8z M674.2,126.1v-1.8L648.9,139v1.8L674.2,126.1z M674.2,129.1v-1.8
					L648.9,142v1.8L674.2,129.1z M674.2,132.4v-1.8L649,145.2v1.8L674.2,132.4z M674.2,135.4v-1.8L649,148.2v1.8L674.2,135.4z
					 M674.2,138.7V137L649,151.6v1.8L674.2,138.7z M674.2,141.8V140L649,154.6v1.8L674.2,141.8z M674.2,145v-1.8L649,157.8v1.8
					L674.2,145z M674.2,148.1v-1.8L649,160.9v1.8L674.2,148.1z M674.2,151.3v-1.8L649,164.1v1.8L674.2,151.3z M674.2,154.4v-1.8
					L649,167.2v1.8L674.2,154.4z M674.2,157.7v-1.8L649,170.5v1.8L674.2,157.7z M674.2,160.7v-1.8L649,173.5v1.8L674.2,160.7z
					 M674.2,164v-1.8L649,176.8v1.8L674.2,164z M674.2,167v-1.8L649,179.8v1.8L674.2,167z M674.2,170.3v-1.8L649,183.1v1.8
					L674.2,170.3z M674.2,173.3v-1.8L649,186.1v1.8L674.2,173.3z M674.2,176.6v-1.8L649,189.4v1.8L674.2,176.6z M674.2,179.6v-1.8
					L649,192.4v0.8h2L674.2,179.6z M674.2,50.4v-1.8L650.9,62h3.3L674.2,50.4z M674.2,182.9v-1.8l-21,12.1h3L674.2,182.9z
					 M674.2,53.4v-1.8L656.5,62h3L674.2,53.4z M674.2,185.9v-1.8l-15.7,9.1h3.3L674.2,185.9z M674.2,56.7v-1.8L661.8,62h3.3
					L674.2,56.7z M674.2,189.2v-1.8l-10.1,5.8h3.3L674.2,189.2z M674.2,59.7v-1.8l-6.8,4h3.3L674.2,59.7z M674.2,192.2v-1.8
					l-4.5,2.8h3L674.2,192.2z M674.2,62v-0.8l-1.3,0.8H674.2z M716.3,36.7l-41.1,23.7V62h0.8l43.7-25.2L716.3,36.7L716.3,36.7z
					 M711,36.7l-35.8,20.4v2L714,36.7H711z M705.5,36.7l-30.3,17.4v1.8l33.6-19.2C708.8,36.7,705.5,36.7,705.5,36.7z M700.2,36.7
					l-25,14.1v2l28-16.2L700.2,36.7L700.2,36.7z M694.6,36.7l-19.4,11.1v1.8l22.7-12.9C697.9,36.7,694.6,36.7,694.6,36.7z
					 M689.1,36.7l-13.9,7.8v2l17.2-9.8H689.1z M683.8,36.7l-8.6,4.8v1.8l11.6-6.6H683.8z M678.2,36.7l-3,1.5v2l6.3-3.5H678.2z
					 M675.2,36.7V37l0.8-0.3H675.2z M721.9,36.7L678.2,62h3.3l43.4-25.2L721.9,36.7L721.9,36.7z M728.2,36.7h-1L683.8,62h3
					l41.4-24.2V36.7z M728.2,39.3L689.1,62h3.3l35.8-21L728.2,39.3L728.2,39.3z M728.2,42.3L694.6,62h3.3l30.3-17.9L728.2,42.3
					L728.2,42.3z M728.2,45.6l-28,16.4h3l25-14.6V45.6z M728.2,48.6L705.5,62h3.3l19.4-11.6V48.6z M728.2,51.9L711,62h3l14.1-8.3
					v-1.8H728.2z M728.2,54.9L716.3,62h3.3l8.6-5.3L728.2,54.9L728.2,54.9z M728.2,58.2l-6.3,3.8h3l3.3-2V58.2z M727.2,62h1v-0.8
					L727.2,62z"/>
			</g>
		</g>
	</g>
</g>
</svg>
