<?xml version="1.0" encoding="utf-8"?>
<!-- Generator: Adobe Illustrator 21.0.0, SVG Export Plug-In . SVG Version: 6.00 Build 0)  -->
<svg version="1.1" id="Layer_1" xmlns="http://www.w3.org/2000/svg" xmlns:xlink="http://www.w3.org/1999/xlink" x="0px" y="0px"
	 viewBox="0 0 963 722.7" style="enable-background:new 0 0 963 722.7;" xml:space="preserve">
<style type="text/css">
	.st0{fill:#F3F7F8;}
	.st1{fill:#838484;}
	.st2{fill:#FE830C;}
	.st3{fill:#FEB914;}
	.st4{fill:#422004;}
	.st5{fill:#504F59;}
	.st6{fill:#201F24;}
</style>
<title>ADS_v2</title>
<path class="st0" d="M26.2,0h910.6C951.3,0,963,11.7,963,26.2v670.3c0,14.5-11.7,26.2-26.2,26.2H26.2C11.7,722.7,0,711,0,696.5V26.2
	C0,11.7,11.7,0,26.2,0z"/>
<path class="st1" d="M934.1,69.3h-4l-14.9-17l-15.2,17h-3.9l17-19l-15.5-17.5h4l13.6,15.6L929,32.8h3.8l-15.6,17.4L934.1,69.3z"/>
<path class="st2" d="M220.3,458.9h512.4c8.9,0,16.1,7.2,16.1,16.1v150.2c0,8.9-7.2,16.1-16.1,16.1H220.3c-8.9,0-16.1-7.2-16.1-16.1
	V475C204.2,466.1,211.4,458.9,220.3,458.9z"/>
<path class="st3" d="M220.3,440.1h512.4c8.9,0,16.1,7.2,16.1,16.1v150.2c0,8.9-7.2,16.1-16.1,16.1H220.3c-8.9,0-16.1-7.2-16.1-16.1
	V456.2C204.2,447.3,211.4,440.1,220.3,440.1z"/>
<path class="st4" d="M331,560.1v-51.6h15.5c4.1,0,8.2,0.3,10.9,3.8c2.2,2.8,2.5,5.8,2.5,9.3c0,4.5-1,8.9-6.2,10.8v0.1
	c5.4,0.8,7.5,5.3,7.5,12c0,2.1-0.2,4.3-0.7,6.3c-2.1,6.5-5.8,9.3-12.6,9.3L331,560.1z M342.4,529.4c2.3,0,5.4,0.1,6.9-1.8
	c0.9-1.3,1-3.1,1-5.6c0-3.8-0.8-5.8-5.2-5.9h-4.5v13.3L342.4,529.4z M342.7,552.5c2,0,4,0.2,5.8-0.5c2.6-1.2,3-4.5,3-7.2
	c0-5.6-1.1-7.9-7.1-7.9h-3.7v15.6L342.7,552.5z"/>
<path class="st4" d="M368.4,542.1c0.1-13.3,0.2-21.8,13.7-21.8c13.3,0,13.3,8.5,13.4,21.8c0.1,13.5-1.9,19.2-13.4,19
	C370.3,561.3,368.3,555.5,368.4,542.1z M377.3,547.4c0,4.7,0.4,6.8,4.7,6.8c4.1,0,4.5-2.1,4.5-6.8v-12.9c0-3.6,0-7.3-4.5-7.3
	c-4.7,0-4.7,3.7-4.7,7.3V547.4z"/>
<path class="st4" d="M402.8,542.1c0.1-13.3,0.2-21.8,13.7-21.8c13.3,0,13.3,8.5,13.4,21.8c0.1,13.5-1.9,19.2-13.4,19
	C404.7,561.3,402.7,555.5,402.8,542.1z M411.7,547.4c0,4.7,0.4,6.8,4.7,6.8c4.1,0,4.5-2.1,4.5-6.8v-12.9c0-3.6,0-7.3-4.5-7.3
	c-4.7,0-4.7,3.7-4.7,7.3V547.4z"/>
<path class="st4" d="M436.8,560.1v-51.6h8.9v23.3c0,1.7-0.1,3.2-0.1,4.9h0.1l8.5-15.4h9.8l-9.8,15.6l9.5,23.2h-10l-5.6-15.8l-2.4,4
	v11.8L436.8,560.1z"/>
<path class="st4" d="M508.9,508.5h9.6v51.5h-10l-7.5-18.3c-2.7-6.7-5-13.5-6.9-20.5H494c0.3,4.3,0.8,9.5,1,14.7s0.5,10.3,0.5,14.4
	v9.7h-9.6v-51.6h10l7.5,18.8c2.7,6.7,5,13.5,6.9,20.5h0.1c-0.3-4.7-0.7-9.7-1-14.6s-0.5-9.9-0.5-14.5L508.9,508.5z"/>
<path class="st4" d="M526.8,542.1c0.1-13.3,0.2-21.8,13.7-21.8c13.3,0,13.3,8.5,13.4,21.8c0.1,13.5-1.9,19.2-13.4,19
	C528.7,561.3,526.7,555.5,526.8,542.1z M535.7,547.4c0,4.7,0.4,6.8,4.7,6.8c4.1,0,4.5-2.1,4.5-6.8v-12.9c0-3.6,0-7.3-4.5-7.3
	c-4.7,0-4.7,3.7-4.7,7.3V547.4z"/>
<path class="st4" d="M588,545.1c0.5,2.8,0.8,5.5,0.9,8.3h0.2c0-1.7,0.5-7.4,0.8-8.6l3-23.5h9l-7.9,38.8h-9.8l-3-15.7
	c-0.6-3.2-1-6.5-1.2-9.8h-0.3c-0.1,3.1-0.4,6.2-0.9,9.2l-2.8,16.2h-10l-8-38.8h9.4l3.2,23.6c0.2,1.2,0.8,6.9,0.8,8.6h0.1
	c0.1-2.8,0.4-5.6,0.9-8.3l3.7-23.9h7.3L588,545.1z"/>
<path class="st4" d="M610.3,508.5h8.9V523c0.1,4,0,7.9-0.4,11.9c-0.3,4-0.8,7.9-1,11.9H612c-0.2-4-0.7-7.9-1-11.9
	c-0.4-3.9-0.7-7.9-0.6-11.9L610.3,508.5z M610.4,560.1V551h8.9v9.1L610.4,560.1z"/>
<g>
	<g>
		<path class="st5" d="M247.6,154.3c-1.2,4-2.2,7.4-3.1,10.2c-0.8,2.8-1.5,5.3-2.1,7.4c9-1.1,15.9-2,20.8-2.5
			c4.9-0.5,8.2-0.8,10-0.8c1.6-0.1,3.1,0.1,4.6,0.6c1,0.4,1.5,1,1.5,1.8c0,1.7-2,2.8-6,3.3l-1.2,0.2c-5.3,0.9-11.6,2.3-19,4.2
			c-7.4,1.9-12.1,2.9-14,2.9c-1.7,0-3.3-0.7-4.4-2c-1.2-1.2-1.9-2.9-1.9-4.6c0-1.1,1.4-6.7,4.1-16.9c2.7-10.2,7.2-26.4,13.4-48.7
			c0.9-3.3,1.9-5.3,3-5.9c1.1-0.6,4.3-0.9,9.8-0.9c2.7,0,7.3,0.4,13.5,1.1s11.1,1.2,14.5,1.4c0.6,0,1.1,0.1,1.6,0.4
			c0.3,0.2,0.5,0.6,0.5,1c0,2.2-5.1,3.6-15.2,4.4c-7.3,0.5-13.5,1-18.4,1.7c-1.5,4.4-3.1,9.3-4.7,14.7c-1.6,5.4-3.4,11.6-5.3,18.5
			c5.3-0.6,10-1,14.1-1.2s7.6-0.4,10.6-0.4c1.6-0.1,3.3,0.1,4.8,0.6c0.9,0.3,1.5,1.2,1.5,2.1c0.1,0.9-0.2,1.8-0.7,2.6
			c-0.6,0.6-1.4,1-2.2,1c-3.3,0.2-7.4,0.5-12.2,1.1C260.8,152.3,254.8,153.1,247.6,154.3z"/>
		<path class="st5" d="M295.7,172.9c-0.4,0.5-1.1,1.4-2,2.6c-3.1,3.9-5.5,7-7.2,9.3c-0.3,0.1-0.6,0.2-0.9,0.3
			c-0.3,0.1-0.6,0.1-0.9,0.1c-0.8,0-1.6-0.3-2.2-0.8c-0.6-0.4-1-1-1-1.7c0-0.9,0.8-2.5,2.4-4.9s4.7-6.3,9.2-11.7
			c-0.8-2.9-1.4-5.4-1.9-7.6c-0.4-1.6-0.6-3.2-0.6-4.9c0-2.1,0.9-4,2.5-5.4c1.7-1.5,3.2-2.3,4.5-2.3c1.2,0,2,2,2.4,5.9
			c0.2,2.3,0.4,4.2,0.7,5.6c6.4-7.1,10.8-11.6,13.1-13.7s4.1-3,5.3-3c0.8,0,1.5,0.3,2.1,0.7c0.5,0.3,0.9,0.9,0.9,1.5
			c-0.1,0.7-0.4,1.4-1,1.8c-1,0.9-2,1.7-3.2,2.4c-2.3,2.2-4.5,4.5-6.6,6.9c-2.6,3-5.6,6.7-9.1,11.2c0.4,2.7,1.3,5.3,2.4,7.8
			c1,2,1.9,3,2.8,3c0.6,0,1.7-1,3.3-3c1.8-2.3,3.4-4.8,4.8-7.4c0.4-0.7,0.9-1.7,1.5-3c1-2.1,1.8-3.1,2.3-3.1c0.8,0.1,1.5,0.5,2,1.1
			c0.8,0.8,1.3,1.4,1.3,1.8c0,0.6-0.7,2.3-2.1,5.2c-1.4,2.8-3,5.5-4.9,8c-1.2,1.7-2.8,3.2-4.6,4.3c-1.6,0.9-3.4,1.4-5.2,1.4
			c-2.1,0.1-4.1-0.6-5.6-1.9C298.6,178.6,297.2,176.3,295.7,172.9z"/>
		<path class="st5" d="M326.8,151.1c1.5-2.4,3.3-4.6,5.4-6.7c2-2.4,5.5-2.7,7.9-0.7c0.6,0.5,1.1,1.1,1.4,1.9
			c1.5,2.5,2.2,5.4,2.1,8.3c0.1,6.7-1.7,13.2-5.2,18.9c-3.5,5.7-7.2,8.6-11.2,8.6c-1.5,0-3-0.4-4.3-1.2c-1.2-0.7-2.2-1.8-2.7-3.1
			c-1.8,7.7-3.1,14.1-4.1,19.1c-0.7,3.2-1.2,6.4-1.5,9.6c0,0.5,0.2,1.1,0.5,1.5c0.2,0.2,0.4,0.5,0.5,0.8c0,0.7-0.3,1.3-0.8,1.7
			c-0.5,0.5-1.2,0.7-1.8,0.7c-1.3,0.1-2.5-0.3-3.6-1c-0.9-0.7-1.3-1.8-1.2-3c0-2.1,1-7.8,2.9-17s4.4-19.5,7.4-30.9
			c0.4-1.5,1-3.5,1.7-6.1c3.3-12.2,5.9-18.4,7.8-18.4c0.8,0,1.5,0.3,2.1,0.7c0.6,0.4,1,1.1,1,1.8c-0.4,1.9-0.9,3.8-1.6,5.6
			C328.4,145.5,327.5,148.5,326.8,151.1z M321.9,172.3c0.1,1.1,0.6,2.1,1.4,2.9c0.7,0.7,1.7,1.1,2.7,1.1c1.7,0,3.2-0.8,4.3-2.1
			c1.7-2.1,3-4.5,3.9-7c1-2.4,1.8-4.9,2.5-7.5c0.5-2.1,0.8-4.3,0.9-6.5c0-1-0.1-2-0.5-2.9c-0.2-0.6-0.8-1-1.4-1
			c-1.5,0-3.6,2.2-6.5,6.7C326,161.1,323.6,166.6,321.9,172.3L321.9,172.3z"/>
		<path class="st5" d="M352,165.9c-0.4,0.1-0.6,0.1-0.8,0.1l-0.5,0.1c-0.8,0-1.5-0.5-1.9-1.1c-0.5-0.7-0.8-1.6-0.8-2.4
			c0-0.6,0.7-1,2.1-1.2c1.4-0.2,2.6-0.8,3.6-1.8c2.4-9,4.9-17.8,7.6-26.4c2.7-8.6,5.6-16.9,8.6-24.9c0-0.2-0.1-0.3-0.1-0.5
			c0-0.2,0-0.5,0-0.7c0-1,0.7-2,2.1-3c1.2-0.9,2.6-1.4,4.1-1.5c1.7,0,3.5,0.9,5.3,2.6c1.8,1.7,2.7,3.3,2.7,4.8
			c0,3.6-2.3,10.6-6.9,21c-5.1,11.1-11.1,21.7-17.9,31.9c-0.2,1.4-0.4,2.7-0.5,3.8c-0.1,1-0.2,2.1-0.2,3.1c-0.1,2,0.1,4,0.8,5.8
			c0.4,1.1,1.4,1.7,2.5,1.7c1.1,0,2.3-0.7,3.7-2.1c1.9-2.1,3.6-4.4,5-6.8c0.8-1.2,1.6-2.7,2.5-4.5c0.9-1.7,1.5-2.6,1.9-2.6
			c0.6,0.1,1.2,0.4,1.7,0.9c0.7,0.6,1.1,1.1,1.1,1.5c0,0.1,0,0.3-0.1,0.4c-0.1,0.2-0.2,0.4-0.3,0.6c-2.4,4.7-4.2,7.9-5.3,9.8
			c-1,1.6-2.2,3.1-3.4,4.5c-1.1,1.1-2.4,2-3.8,2.8c-1.2,0.6-2.6,0.9-3.9,0.9c-2.3,0-4.3-1.1-6.2-3.4c-1.8-2.1-2.8-4.8-2.8-7.5
			c0-1,0-2,0.1-2.9C351.7,167.6,351.8,166.7,352,165.9z M360.2,154.9c4.8-9,9.1-18.2,12.9-27.7c3.3-8.6,5-14.1,5-16.6
			c0-0.4-0.1-0.7-0.3-1c-0.2-0.2-0.5-0.4-0.8-0.4c-0.3,0-0.5,0.1-0.8,0.2l-0.3,0.1c-3.4,8.8-6.5,16.9-9.1,24.5
			C364.2,141.6,362,148.6,360.2,154.9L360.2,154.9z"/>
		<path class="st5" d="M389,170.2c-1.7,3.3-3.9,6.2-6.7,8.6c-1.9,1.8-4.5,2.9-7.1,3c-1.8,0-3.5-0.7-4.6-2.1
			c-1.2-1.5-1.8-3.5-1.8-5.4c0.1-3.2,0.6-6.4,1.7-9.5c1.2-3.7,2.9-7.2,4.9-10.6c1.7-3.3,4-6.3,6.8-8.9c2.4-2.2,4.7-3.3,6.8-3.3
			c1.1,0,2.1,0.3,3.1,0.9c1.1,0.7,2.1,1.7,2.8,2.8c0.7-0.2,1.3-0.4,2-0.5c0.5-0.1,0.9-0.1,1.4-0.1c1.3,0,2.5,0.3,3.6,1
			c0.8,0.5,1.4,1.3,1.4,2.3c-0.3,1.5-0.9,2.9-1.7,4.2c-0.9,1.8-1.7,3.4-2.2,4.5c-1.4,3.1-2.6,6.2-3.7,9.4c-0.7,1.9-1.2,3.9-1.4,6
			c0,0.4,0.1,0.9,0.3,1.3c0.2,0.3,0.5,0.4,0.9,0.4c0.6,0,1.5-0.6,2.6-1.9s3-3.8,5.7-7.6c0.5-0.7,1.1-1.5,1.7-2.6s1.2-1.6,1.5-1.7
			c0.5,0,0.9,0.3,1.4,1c0.4,0.5,0.6,1.1,0.7,1.8c0,0.7-0.7,2.1-2,4.4c-1.5,2.5-3.1,4.9-4.9,7.1c-1.1,1.6-2.5,2.9-4,4.1
			c-1.1,0.8-2.4,1.2-3.8,1.2c-1.6,0.1-3.2-0.6-4.2-1.9c-1.1-1.6-1.6-3.5-1.5-5.5c0-0.6,0-1.2,0-1.5
			C388.9,170.8,388.9,170.5,389,170.2z M393,150.8c0-0.5-0.2-1-0.5-1.4c-0.4-0.4-0.8-0.5-1.4-0.5c-1.4,0-3,0.9-4.8,2.8
			c-2.1,2.4-4,5-5.4,7.9c-1.6,3-3,6-4.1,9.2c-0.8,2.1-1.4,4.3-1.5,6.5c0,0.4,0.1,0.8,0.3,1.2c0.2,0.2,0.5,0.3,0.7,0.2
			c0.8,0,2-0.7,3.5-2.1c1.7-1.7,3.3-3.6,4.6-5.6c2.4-3.5,4.4-7.2,6.1-11.1C392.2,154,393,151.7,393,150.8z"/>
		<path class="st5" d="M412.5,180.8c-2.1,0-4.1-1-5.2-2.8c-1.4-2.3-2.1-4.9-1.9-7.5c0.1-4.3,0.7-8.6,1.8-12.8
			c1.2-4.8,2.5-8.1,3.7-9.8c0.6-0.8,1.4-1.5,2.3-1.8c1.1-0.5,2.3-0.7,3.6-0.7c0.6,0,1.2,0.1,1.8,0.5c0.4,0.4,0.7,0.9,0.6,1.5
			c-0.2,0.9-0.5,1.8-0.9,2.6l-0.9,2.5l-0.8,2.3c-3.5,9.5-5.2,15.5-5.2,17.9c-0.1,0.7,0.1,1.5,0.5,2.1c0.4,0.5,1,0.7,1.6,0.7
			c1.1,0,2.6-1,4.6-3.1c2.3-2.4,4.3-5.1,6-8c0.2-0.5,0.6-1.1,1-2c0.7-1.3,1.2-2,1.6-2c0.6,0,1.1,0.3,1.5,0.7c0.5,0.4,0.8,1,0.8,1.7
			c-0.6,1.4-1.3,2.8-2.1,4l-1.7,2.8c-1.7,3.2-3.9,6.1-6.5,8.6C417,179.8,414.8,180.7,412.5,180.8z M417.3,142.1
			c-1.1,0-2.2-0.3-3.1-1c-0.8-0.7-1.3-1.7-1.2-2.7c0-1.6,1-3,2.4-3.8c1.5-1,3.2-1.5,5-1.5c0.9-0.1,1.8,0.2,2.5,0.8
			c0.6,0.6,0.9,1.5,0.8,2.3c-0.1,1.6-0.8,3-2,4C420.5,141.4,418.9,142.1,417.3,142.1L417.3,142.1z"/>
		<path class="st5" d="M442.7,158.2c-2.1,3.5-4.6,7.8-7.3,13.1c-3.3,6.3-5.8,9.5-7.5,9.5c-1.4,0.1-2.8-0.4-3.8-1.4
			c-1-1.1-1.6-2.5-1.5-4c0-2,0.7-5.8,2-11.1c1.3-5.2,3-10.3,5.1-15.3c0.4-1.2,1.1-2.4,2-3.3c0.7-0.6,1.7-0.9,2.6-0.8
			c0.9,0,1.8,0.3,2.6,0.8c0.7,0.4,1.2,1.1,1.2,1.9c-0.2,0.7-0.5,1.3-0.8,1.9c-3.5,7.2-5.9,14.8-7.2,22.6c3.9-7.7,8.1-15.2,12.7-22.5
			c3-4.5,5.4-6.8,7-6.8c1.3,0,2.6,0.5,3.7,1.4c1,0.7,1.7,1.8,1.7,3.1c-0.1,0.8-0.5,1.6-1.2,2c-0.4,0.4-0.8,0.7-1.3,1
			c-0.5,0.9-0.9,1.7-1.2,2.7c-0.6,1.5-1.2,3.3-1.8,5.4c-0.9,2.9-1.6,5.8-2.1,8.5c-0.4,2-0.7,4-0.8,6c0,0.7,0.1,1.4,0.3,2
			c0.1,0.4,0.5,0.8,1,0.7c1.3,0,3.8-3.1,7.5-9.4c0.7-1.1,1.2-2,1.5-2.6c0.1-0.2,0.3-0.5,0.5-1c0.4-0.9,1-1.4,1.7-1.4
			c0.6,0.1,1.2,0.4,1.6,0.9c0.7,0.6,1,1.1,1,1.5c0,0.8-1,3-2.9,6.5c-1.7,3.2-3.8,6.2-6.4,8.8c-0.7,0.8-1.6,1.4-2.5,1.9
			c-0.8,0.4-1.7,0.6-2.6,0.6c-2,0.1-3.8-0.9-4.9-2.6c-1.3-2.2-1.9-4.7-1.8-7.2c0-1.8,0.2-3.7,0.5-5.5
			C441.6,163.8,442,161.2,442.7,158.2z"/>
		<path class="st5" d="M462.9,164c-0.3,1.1-0.5,2.1-0.6,3.2c-0.1,1.2-0.2,2.3-0.2,3.5c-0.1,1.8,0.3,3.6,1,5.3
			c0.5,1.1,1.6,1.8,2.8,1.8c2.3,0,5-1.4,8.1-4.3c3.3-3.1,6.1-6.8,8.2-10.9c0.2-0.4,0.5-0.9,0.9-1.7c0.8-1.7,1.5-2.5,1.9-2.5
			c0.5,0,1,0.3,1.3,0.7c0.4,0.5,0.6,1.1,0.6,1.7c-0.2,1.4-0.7,2.8-1.5,4c-1.1,2.1-2.4,4.1-3.9,6c-2.4,3.2-5.2,6.1-8.5,8.4
			c-2.5,1.7-5.4,2.5-8.4,2.5c-3.2,0-5.5-0.9-7.1-2.7s-2.4-4.6-2.4-8.2c0.2-4.7,1.1-9.4,2.7-13.8c1.7-5,4-9.8,7-14.2
			c0.8-1.2,1.8-2.2,2.9-3c0.9-0.6,2-1,3.1-1c0.5,0,1.1,0.1,1.6,0.3c0.6,0.3,1.3,0.6,1.8,1l2.2,0.6c2.5,0.7,3.7,2.1,3.7,4.4
			c0,5.1-1.5,10-4.4,14.2c-2.9,4.3-5.9,6.5-9,6.5c-0.7,0-1.3-0.2-1.9-0.5C464.1,165,463.4,164.5,462.9,164z M467.3,161.8
			c1.3,0,2.7-1.5,4-4.5c1.3-2.8,2-5.8,2-8.8c0-0.5-0.2-0.9-0.5-1.3c-0.2-0.4-0.6-0.6-1.1-0.6c-1.1,0-2.6,1.5-4.3,4.4
			c-1.7,2.9-2.6,5.3-2.6,7.1c-0.1,1,0.2,1.9,0.6,2.7C465.9,161.4,466.6,161.8,467.3,161.8L467.3,161.8z"/>
		<path class="st5" d="M487.7,146.8c-0.6-0.4-1.2-0.8-1.7-1.4c-0.3-0.4-0.5-0.9-0.5-1.4c0.1-1.6,0.9-3,2.2-3.9
			c1.3-1.2,3.1-1.9,4.9-1.9c0.8,0,1.6,0.2,2.2,0.8c0.6,0.5,0.9,1.1,0.9,1.9c0,0.5-0.1,0.9-0.1,1.4c-0.1,0.6-0.3,1.2-0.5,2l4.2,1.2
			c0.3-0.5,0.6-1,1-1.4c0.5-0.5,1-1,1.6-1.4c0.3-0.1,0.7-0.2,1-0.3c0.2-0.1,0.4-0.1,0.7-0.1c1.1,0,2.1,0.4,3,1
			c0.8,0.4,1.4,1.3,1.5,2.2c0,0.6-0.2,1.3-0.6,1.8c-0.6,0.8-1.2,1.4-2,2c-2.4,3.9-4.4,8-5.9,12.3c-1.2,3.3-1.9,6.9-2,10.4
			c0,0.8,0.1,1.7,0.5,2.4c0.3,0.7,0.7,1,1.2,1c1.3,0,2.7-1,4.4-3c2.1-2.6,3.8-5.5,5.2-8.5c0.2-0.4,0.5-1,0.8-1.7
			c0.8-1.8,1.5-2.8,2.1-2.8c0.6,0,1.1,0.3,1.5,0.7c0.4,0.4,0.7,0.9,0.7,1.5c-0.1,1.1-0.5,2.2-1,3.1c-0.9,1.8-1.8,3.5-2.9,5.2
			c-2.7,4.1-4.9,6.9-6.6,8.4c-1.6,1.4-3.6,2.2-5.7,2.2c-2.1,0.1-4-0.7-5.5-2.2c-1.4-1.7-2.1-3.8-2-6c0.1-3,0.5-5.9,1.3-8.8
			c1-3.9,2.3-7.8,3.9-11.5l-3.4-1c-1.5,4.4-3.3,8.6-5.4,12.6c-1.5,2.5-2.8,3.8-4,3.8c-0.5,0-0.9-0.2-1.2-0.5
			c-0.3-0.4-0.5-0.9-0.5-1.4c0.2-0.7,0.5-1.4,0.9-2.1C484.3,158.3,486.2,152.6,487.7,146.8z"/>
		<path class="st5" d="M561.3,172.1c6.7-14,13.5-26.8,20.3-38.5c5.6-9.9,11.9-19.4,18.7-28.5c0.3-0.4,0.7-1,1.2-1.7
			c1.9-2.6,3.9-3.9,5.8-3.9c0.9,0,1.7,0.1,2.5,0.3c0.6,0.2,0.8,0.5,0.8,1c0,1.2-1.1,3.3-3.4,6.2c-1.6,2-2.8,3.7-3.6,5
			c-4.8,7.3-10.6,16.9-17.4,28.8s-13.8,24.7-20.9,38.5c-1.2,0.8-2.5,1.4-3.8,1.8c-1.6,0.5-3.3,0.7-4.9,0.7c-1.8,0.2-3.4-0.9-4.1-2.5
			c-0.7-1.7-1.1-5.6-1.1-11.9v-6.1c0-7.9,0.5-15.8,1.3-23.6c0.9-8.2,2.4-17.6,4.4-28.2c0.2-1.2,0.7-2.3,1.5-3.3
			c0.6-0.7,1.5-1.1,2.5-1.1c1.6,0.2,3,0.8,4.3,1.7c1.8,1.1,2.8,2.2,2.8,3.3c-0.3,1.9-0.7,3.8-1.2,5.6c-3.9,14.9-5.9,30.2-6,45.6
			c0,1.9,0,3.7,0.1,5.5C561.1,168.6,561.2,170.4,561.3,172.1z"/>
		<path class="st5" d="M595,180.8c-2.1,0-4.1-1-5.2-2.8c-1.4-2.3-2.1-4.9-1.9-7.5c0.1-4.3,0.7-8.6,1.8-12.8c1.2-4.8,2.5-8.1,3.7-9.8
			c0.6-0.8,1.4-1.5,2.3-1.8c1.1-0.5,2.3-0.7,3.6-0.7c0.6,0,1.2,0.1,1.8,0.5c0.4,0.4,0.7,0.9,0.6,1.5c-0.2,0.9-0.5,1.8-0.9,2.6
			l-0.8,2.4l-0.8,2.3c-3.5,9.5-5.2,15.5-5.2,17.9c-0.1,0.7,0.1,1.5,0.5,2.1c0.4,0.5,1,0.7,1.6,0.7c1.1,0,2.6-1,4.6-3.1
			c2.3-2.4,4.3-5.1,6-8c0.2-0.5,0.6-1.1,1-2c0.7-1.3,1.2-2,1.6-2c0.6,0,1.1,0.3,1.5,0.7c0.5,0.4,0.8,1,0.8,1.7
			c-0.6,1.4-1.3,2.8-2.2,4l-1.7,2.8c-1.7,3.2-3.9,6.1-6.5,8.6C599.6,179.8,597.3,180.7,595,180.8z M599.8,142.1
			c-1.1,0-2.2-0.3-3.1-1c-0.8-0.7-1.2-1.7-1.2-2.7c0-1.6,1-3,2.4-3.8c1.5-1,3.2-1.5,5-1.5c0.9-0.1,1.8,0.2,2.5,0.8
			c0.6,0.6,0.9,1.5,0.8,2.3c-0.1,1.6-0.8,3-2,4C603.1,141.4,601.5,142.1,599.8,142.1L599.8,142.1z"/>
		<path class="st5" d="M623.3,173.2c-1.5,3.3-3.5,6.3-6,8.9c-2.2,2.2-4.1,3.3-5.9,3.4c-2,0-3.6-1-5-3c-1.5-2.2-2.2-4.9-2.1-7.5
			c0.2-4.6,1.3-9.1,3.4-13.2c2.2-4.8,5.2-9.2,8.9-13c0.8-0.8,1.8-1.6,2.8-2.2c0.7-0.4,1.5-0.7,2.4-0.7c1.1,0,2.2,0.3,3.1,0.9
			c1.3,0.7,2.5,1.6,3.6,2.6c1.4-4.1,3.2-9.3,5.4-15.8c4.1-12,7-18,8.8-18c1.2-0.1,2.3,0.2,3.3,0.8c0.8,0.4,1.3,1.2,1.3,2.1
			c0,0.8-0.8,2.8-2.3,6c-1.1,2.3-1.9,4.1-2.5,5.5c-3.7,8.4-6.8,16.9-9.4,25.7c-2.4,8-3.5,13.7-3.5,17.2c0,0.6,0.1,1.3,0.3,1.9
			c0.2,0.4,0.6,0.7,1,0.6c0.7,0,1.5-0.6,2.6-1.7c1.7-1.9,3.2-4,4.5-6.2c0.5-0.8,0.9-1.6,1.3-2.4c0.7-1.3,1.2-1.9,1.7-1.9
			c0.3,0,0.6,0.1,0.9,0.3c0.2,0.2,0.4,0.5,0.4,0.8c-0.1,0.9-0.4,1.7-0.7,2.5c-0.5,1.2-1.2,2.6-2.2,4.5c-1.3,2.8-3,5.3-5.1,7.5
			c-1.3,1.4-3.1,2.2-5,2.3c-1.7,0.1-3.2-0.7-4.2-2.1C624,177.2,623.4,175.2,623.3,173.2z M627.6,152.4c-0.4-0.5-0.8-0.9-1.3-1.2
			c-0.4-0.2-0.8-0.4-1.3-0.4c-1,0-2.1,0.7-3.4,2c-1.8,2-3.3,4.1-4.7,6.3c-2,3-3.6,6.3-4.8,9.6c-1,2.7-1.6,5.6-1.8,8.5
			c0,0.7,0.2,1.4,0.6,1.9c0.3,0.5,0.8,0.8,1.4,0.8c1.8,0,4.1-2.6,7-7.7C622.8,165.9,625.5,159.3,627.6,152.4z"/>
		<path class="st5" d="M645.2,164c-0.3,1.1-0.5,2.1-0.6,3.2c-0.1,1.2-0.2,2.3-0.2,3.5c-0.1,1.8,0.3,3.6,1,5.3
			c0.5,1.1,1.6,1.8,2.8,1.8c2.3,0,5-1.4,8.1-4.3c3.3-3.1,6.1-6.8,8.2-10.9c0.2-0.4,0.5-0.9,0.9-1.7c0.8-1.7,1.5-2.5,1.9-2.5
			c0.5,0,1,0.3,1.3,0.7c0.4,0.5,0.6,1.1,0.6,1.7c-0.2,1.4-0.7,2.8-1.5,4c-1.1,2.1-2.4,4.1-3.9,6c-2.4,3.2-5.2,6.1-8.5,8.4
			c-2.5,1.7-5.4,2.5-8.4,2.5c-3.2,0-5.5-0.9-7.1-2.7s-2.4-4.6-2.4-8.2c0.1-4.7,1-9.4,2.7-13.8c1.7-5,4-9.8,7-14.2
			c0.8-1.2,1.8-2.2,2.9-3c0.9-0.6,2-1,3.1-1c0.5,0,1.1,0.1,1.6,0.3c0.6,0.3,1.3,0.6,1.8,1l2.2,0.6c2.5,0.7,3.7,2.1,3.7,4.4
			c0,5-1.5,10-4.3,14.1c-2.9,4.3-5.9,6.5-9,6.5c-0.7,0-1.3-0.2-1.9-0.5C646.4,164.9,645.7,164.5,645.2,164z M649.6,161.8
			c1.3,0,2.7-1.5,4-4.5c1.3-2.8,2-5.8,2-8.8c0-0.5-0.2-0.9-0.5-1.3c-0.2-0.4-0.6-0.6-1.1-0.6c-1.1,0-2.6,1.5-4.3,4.4
			c-1.7,2.9-2.6,5.3-2.6,7.1c-0.1,1,0.2,1.9,0.6,2.7C648.2,161.4,648.9,161.8,649.6,161.8z"/>
		<path class="st5" d="M680.9,148.1l0.3-0.1c0.7-0.1,1.3-0.2,2-0.2c1.8,0,3.5,1.1,4.3,2.7c1.2,2.2,1.8,4.7,1.7,7.2
			c2.4-0.8,4.5-2.3,6-4.4c1.8-2.2,3-3.4,3.5-3.4c0.5,0,1.1,0.1,1.5,0.5c0.4,0.3,0.6,0.8,0.5,1.3c0,0.7-0.2,1.4-0.5,2
			c-0.5,0.8-1.1,1.5-1.7,2.2c-1.3,2-2.9,3.8-4.8,5.3c-1.5,1.2-3.3,2.1-5.3,2.4c-1.8,6.4-4.1,11.2-7,14.6s-6.2,5-9.9,5
			c-2.5,0.1-4.9-0.9-6.7-2.7c-1.7-2.1-2.6-4.7-2.5-7.5c0.1-3.4,0.8-6.7,2-9.9c1.4-3.9,3.2-7.6,5.4-11.1c1-1.7,2.3-3.2,3.8-4.5
			c1-0.9,2.4-1.5,3.8-1.5c0.8,0,1.5,0.2,2.2,0.5C680,146.9,680.5,147.5,680.9,148.1z M669.5,173.7c-0.1,1,0.1,2,0.6,2.9
			c0.4,0.7,1.2,1,2,1c2.2,0,4.5-2.4,7-7.2c2.4-4.2,3.7-9,3.8-13.8c0.1-0.9-0.2-1.8-0.6-2.6c-0.3-0.6-1-0.9-1.7-0.9
			c-2,0-4.4,2.4-7.1,7.1C671,164.2,669.7,168.9,669.5,173.7L669.5,173.7z"/>
		<path class="st5" d="M702,180.8c-1.5,0.1-2.9-0.3-4.2-1c-1-0.6-1.5-1.7-1.5-2.9c0.1-2.4,1.2-4.6,3-6.1c2-1.9,3.9-2.8,5.7-2.8
			c1.1-0.1,2.1,0.4,2.7,1.3c0.7,1.1,1.1,2.4,1,3.7c0,2-0.7,3.9-2,5.5C705.6,179.9,703.9,180.8,702,180.8z M711.3,158.6
			c-0.1,1.8-0.4,3.1-1,3.7c-0.9,0.8-2,1.1-3.2,1c-0.9,0.1-1.7-0.1-2.5-0.5c-0.5-0.3-0.9-0.8-0.8-1.4c0-3.1,1.3-10,4-20.8
			c2.8-11.2,6.2-22.1,10.2-32.9l0.3-0.6c2.5-6.5,5.1-9.7,7.8-9.7c1.3,0,2.5,0.4,3.5,1.3c0.9,0.6,1.4,1.6,1.5,2.6
			c0,0.4-0.1,0.7-0.3,1.1c-0.3,0.7-0.7,1.3-1.2,1.9c-1.6,4.3-4,11.3-7.2,21.1S715.4,146.3,711.3,158.6L711.3,158.6z"/>
	</g>
	<g>
		<g>
			<path class="st6" d="M420.3,315.1c-16.8-11.1-29.7-18.5-29.7-42.2c0-15.1,8.2-29.3,29.2-31.9v-10.8h11.7V241
				c18.7,2.2,27.4,12,28,23.7c0.2,3.6,0.9,7.2,0.7,10.8h-19.9c0-9.3-1.4-15.1-9.4-17.3v34.1c17.8,9.1,31.9,21.9,32.1,39.6
				c0.3,23.7-8.7,35.3-31.4,38.6v18.7h-11.7V371c-24-2.1-32.1-18.9-30.9-41.2h20.6c0.2,11.1-0.5,20.6,10.8,23.5V315.1z M420.3,258.2
				c-6,0.9-9.1,6.5-9.1,12.9c0,8.6,4.5,12.9,9.1,17.8V258.2z M430.8,353.3c5.8-1.7,10.3-6.7,10.3-16.1c0-8.6-6-15.8-10.3-18.5V353.3
				z"/>
			<path class="st6" d="M547.4,318.5c0,41-11.7,52-37,52c-18.9,0-32.4-8.6-31.7-29h22.3c0.2,4.3,0.7,10.6,10.5,10.1
				c13.5,0,12.2-16.3,12.5-24v-8.2c-3.9,4.1-7.7,8.6-18.9,8.6c-20.4,0-29.2-13.9-29.2-40.3c0-32.2,7.9-48.9,35.7-48.9
				c28.6,0,36.2,18.7,35.8,48.9V318.5z M511,257.6c-12.5,0.2-11.1,11.8-11.1,28.3c0,9.3-1.2,23.1,11.7,23.1
				c11.8,0,11.8-12.5,11.8-23.1C523.5,270,523.9,256.4,511,257.6z"/>
			<path class="st6" d="M562,308.7l3.3-67.4h61.9v18.9h-43.4l-1.5,27.4c5.8-5.7,10.6-7.2,18.7-7.2c28.1,0,32.1,24,32.1,44.4
				c0,29.2-8.4,45.6-35.5,45.6c-29.2,0-36.9-13.4-36.7-43h22.5c0.3,9.3-1,23.5,12,24.2c14.2,0.9,13.4-14.2,13.7-26.9
				c0.9-20.6-5-25.4-13.7-25.4c-6,0-11.3,3.9-12,9.4H562z"/>
			<path class="st6" d="M648.4,275.6c0-27.3,13-36.9,34.8-36.9c21.6,0,34.6,9.6,34.6,36.9v57.8c0,27.3-13,37-34.8,37
				c-21.6,0-34.6-9.8-34.6-37V275.6z M672.4,333.4c-0.7,14.4,4.3,18.2,10.5,18.2c6.3,0,11.7-3.8,11-18.2v-57.8
				c0.7-14.2-4.6-18-11-18c-6.2,0-11.1,3.8-10.5,18V333.4z"/>
		</g>
	</g>
	<g>
		<path class="st5" d="M248.8,302l-10,57.4h-9.2l10-57.4h-7.5l1.6-9.3h7.5l2-11.5c1.8-10.1,7.8-14.7,16.8-14.7
			c1.4,0,2.7,0.1,4.1,0.3l-1.8,10.1c-1.1-0.1-2.6-0.3-3.7-0.3c-4,0-5.9,2.4-6.8,7.8l-1.4,8.3h9.2L258,302H248.8z"/>
		<path class="st5" d="M290.7,290.8c17.5,0,22.3,18,19.3,35.2c-3,17.2-14.1,35.2-31.6,35.2c-17.5,0-22.3-18-19.3-35.2
			C262.2,308.8,273.3,290.8,290.7,290.8z M280.1,351.5c13.2,0,18.8-16.6,20.3-25.5c1.6-8.9,1.7-25.5-11.5-25.5
			c-13.2,0-18.8,16.6-20.3,25.5C267.1,334.9,267,351.5,280.1,351.5z"/>
		<path class="st5" d="M325.1,359.4h-9.2l11.6-66.7h8.7l-1.9,11.1h0.2c5-7.8,10.7-13,17.6-13c1.2,0,1.7,0.1,2.3,0.4l-2,11.6H349
			c-8.6,0-15.4,8.2-17.1,17.9L325.1,359.4z"/>
	</g>
</g>
</svg>
