<?xml version="1.0" encoding="utf-8"?>
<!-- Generator: Adobe Illustrator 21.0.0, SVG Export Plug-In . SVG Version: 6.00 Build 0)  -->
<svg version="1.1" id="Layer_1" xmlns="http://www.w3.org/2000/svg" xmlns:xlink="http://www.w3.org/1999/xlink" x="0px" y="0px"
	 viewBox="0 0 1309.8 159" style="enable-background:new 0 0 1309.8 159;" xml:space="preserve">
<style type="text/css">
	.st0{fill:#E6EFEF;}
	.st1{fill:#FE830C;}
	.st2{fill:#FEB914;}
	.st3{fill:#422004;}
	.st4{fill:#504F59;}
	.st5{fill:#201F24;}
</style>
<title>ADS_v2</title>
<path class="st0" d="M1309.8,159H0V19.5C0,8.7,8.7,0,19.5,0c0,0,0,0,0,0h1270.9c10.7,0,19.4,8.7,19.4,19.5V159z"/>
<path class="st1" d="M949.8,38.8h268.7c4.7,0,8.4,3.8,8.4,8.4V126c0,4.7-3.8,8.4-8.4,8.4H949.8c-4.7,0-8.4-3.8-8.4-8.4V47.3
	C941.4,42.6,945.2,38.8,949.8,38.8z"/>
<path class="st2" d="M949.8,29h268.7c4.7,0,8.4,3.8,8.4,8.4v78.8c0,4.7-3.8,8.4-8.4,8.4H949.8c-4.7,0-8.4-3.8-8.4-8.4V37.4
	C941.4,32.7,945.2,29,949.8,29z"/>
<path class="st3" d="M1007.9,91.9v-27h8.1c2.2,0,4.3,0.1,5.7,2c1,1.4,1.5,3.1,1.3,4.9c0,2.3-0.5,4.7-3.2,5.7v0.1
	c2.8,0.4,3.9,2.8,3.9,6.3c0,1.1-0.1,2.2-0.4,3.3c-1.1,3.4-3,4.9-6.6,4.9L1007.9,91.9z M1013.9,75.8c1.2,0,2.8,0.1,3.6-0.9
	c0.5-0.9,0.6-1.9,0.5-2.9c0-2-0.4-3-2.7-3.1h-2.3v7L1013.9,75.8z M1014,87.9c1,0.1,2,0,3-0.3c1.4-0.6,1.5-2.4,1.5-3.8
	c0-2.9-0.6-4.2-3.7-4.2h-2v8.2L1014,87.9z"/>
<path class="st3" d="M1027.5,82.4c0-7,0.1-11.4,7.2-11.4s7,4.5,7,11.4s-1,10.1-7,10C1028.5,92.5,1027.5,89.5,1027.5,82.4z
	 M1032.2,85.3c0,2.5,0.2,3.6,2.5,3.6s2.3-1.1,2.3-3.6v-6.8c0-1.9,0-3.9-2.3-3.9s-2.5,1.9-2.5,3.9V85.3z"/>
<path class="st3" d="M1045.5,82.4c0-7,0.1-11.4,7.2-11.4s7,4.5,7,11.4s-1,10.1-7,10C1046.5,92.5,1045.5,89.5,1045.5,82.4z
	 M1050.2,85.3c0,2.5,0.2,3.6,2.5,3.6s2.3-1.1,2.3-3.6v-6.8c0-1.9,0-3.9-2.3-3.9s-2.5,1.9-2.5,3.9V85.3z"/>
<path class="st3" d="M1063.4,91.9v-27h4.6v12.2c0,0.9,0,1.7-0.1,2.6h0.1l4.4-8.1h5.1l-5.1,8.2l5,12.2h-5.2l-2.9-8.3l-1.3,2.1v6.2
	H1063.4z"/>
<path class="st3" d="M1101.2,64.8h5v27h-5.3l-3.9-9.6c-1.4-3.5-2.6-7.1-3.6-10.7h-0.1c0.2,2.2,0.4,5,0.5,7.7s0.3,5.4,0.3,7.6v5.1h-5
	v-27h5.2l3.9,9.8c1.4,3.5,2.6,7.1,3.6,10.7h0.1c-0.2-2.4-0.4-5.1-0.5-7.7s-0.3-5.2-0.3-7.6L1101.2,64.8z"/>
<path class="st3" d="M1110.6,82.4c0-7,0.1-11.4,7.2-11.4s7,4.5,7,11.4s-1,10.1-7,10C1111.6,92.5,1110.5,89.5,1110.6,82.4z
	 M1115.3,85.3c0,2.5,0.2,3.6,2.5,3.6s2.3-1.1,2.3-3.6v-6.8c0-1.9,0-3.9-2.3-3.9s-2.5,1.9-2.5,3.9V85.3z"/>
<path class="st3" d="M1142.7,84c0.2,1.4,0.4,2.9,0.5,4.4h0.1c0-0.9,0.3-3.9,0.4-4.5l1.6-12.3h4.7l-4.1,20.3h-5.1l-1.6-8.2
	c-0.3-1.7-0.5-3.4-0.6-5.1h-0.1c-0.1,1.6-0.2,3.2-0.5,4.8l-1.4,8.5h-5.2l-4.2-20.3h4.9l1.7,12.4c0.1,0.6,0.4,3.6,0.4,4.5h0.1
	c0.1-1.5,0.2-2.9,0.5-4.4l1.9-12.5h3.9L1142.7,84z"/>
<path class="st3" d="M1154.3,64.8h4.7v7.6c0.1,2.1,0,4.2-0.2,6.2c-0.2,2.1-0.4,4.1-0.5,6.2h-3.1c-0.1-2.1-0.4-4.1-0.5-6.2
	c-0.2-2.1-0.3-4.2-0.3-6.2L1154.3,64.8z M1154.3,91.8v-4.7h4.7v4.8L1154.3,91.8z"/>
<g>
	<path class="st4" d="M68.2,86.3c-1.1,3.5-2,6.6-2.7,9c-0.7,2.5-1.3,4.7-1.9,6.6c8-1,14.1-1.8,18.4-2.2c4.3-0.5,7.3-0.7,8.9-0.7
		c1.4-0.1,2.8,0.1,4.1,0.5c0.9,0.3,1.4,0.9,1.4,1.6c0,1.5-1.8,2.5-5.3,2.9l-1.1,0.2c-4.7,0.8-10.3,2-16.8,3.7
		c-6.5,1.7-10.7,2.6-12.4,2.6c-1.5,0-2.9-0.7-3.9-1.8c-1.1-1.1-1.7-2.5-1.7-4.1c0-0.9,1.2-5.9,3.6-14.9c2.4-9,6.4-23.4,11.9-43.1
		c0.8-3,1.7-4.7,2.7-5.2c0.9-0.5,3.8-0.8,8.7-0.8c2.4,0,6.4,0.3,12,0.9c5.6,0.6,9.9,1.1,12.9,1.3c0.5,0,1,0.1,1.4,0.4
		c0.3,0.2,0.5,0.5,0.5,0.9c0,1.9-4.5,3.2-13.4,3.9c-6.5,0.4-11.9,0.9-16.3,1.5c-1.3,3.9-2.7,8.2-4.2,13c-1.4,4.8-3,10.3-4.7,16.4
		c4.7-0.5,8.9-0.9,12.5-1.1c3.6-0.2,6.7-0.3,9.4-0.3c1.4-0.1,2.9,0.1,4.3,0.6c0.8,0.3,1.3,1,1.3,1.9c0.1,0.8-0.2,1.6-0.6,2.3
		c-0.5,0.6-1.2,0.9-2,0.9c-3,0.1-6.6,0.5-10.8,1C79.8,84.6,74.5,85.3,68.2,86.3z"/>
	<path class="st4" d="M110.8,102.8c-0.4,0.5-1,1.2-1.8,2.3c-2.8,3.5-4.9,6.2-6.4,8.3c-0.2,0.1-0.5,0.2-0.8,0.2
		c-0.2,0.1-0.5,0.1-0.8,0.1c-0.7,0-1.4-0.2-1.9-0.7c-0.5-0.3-0.8-0.9-0.9-1.5c0-0.8,0.7-2.2,2.1-4.3s4.1-5.5,8.1-10.4
		c-0.7-2.5-1.3-4.8-1.7-6.7c-0.3-1.4-0.5-2.9-0.6-4.3c0-1.8,0.8-3.6,2.2-4.8c1.5-1.4,2.8-2,4-2c1.1,0,1.8,1.7,2.1,5.2
		c0.2,2.1,0.4,3.7,0.6,5c5.7-6.3,9.6-10.3,11.6-12.1c2-1.8,3.6-2.7,4.7-2.7c0.7,0,1.3,0.2,1.9,0.7c0.5,0.3,0.8,0.8,0.8,1.4
		c-0.1,0.6-0.4,1.2-0.9,1.6c-0.9,0.8-1.8,1.5-2.8,2.1c-2.1,1.9-4,3.9-5.8,6.1c-2.3,2.6-5,6-8.1,9.9c0.4,2.4,1.1,4.7,2.1,6.9
		c0.9,1.8,1.7,2.7,2.4,2.7c0.5,0,1.5-0.9,2.9-2.6c1.6-2,3-4.2,4.2-6.5c0.4-0.6,0.8-1.5,1.4-2.6c0.9-1.8,1.6-2.8,2-2.8
		c0.7,0.1,1.3,0.5,1.8,1c0.7,0.7,1.1,1.2,1.1,1.6c0,0.5-0.6,2-1.9,4.6c-1.2,2.5-2.7,4.9-4.3,7.1c-1.1,1.5-2.5,2.8-4.1,3.8
		c-1.4,0.8-3,1.3-4.6,1.3c-1.8,0.1-3.6-0.5-5-1.7C113.3,107.9,112.1,105.8,110.8,102.8z"/>
	<path class="st4" d="M138.4,83.5c1.4-2.1,3-4.1,4.8-5.9c1.8-2.1,4.9-2.4,7-0.6c0.5,0.5,1,1,1.3,1.6c1.3,2.2,2,4.7,1.9,7.3
		c0.1,5.9-1.5,11.7-4.6,16.8c-3.1,5.1-6.4,7.6-9.9,7.6c-1.4,0-2.7-0.4-3.8-1.1c-1.1-0.6-1.9-1.6-2.4-2.7c-1.6,6.8-2.8,12.5-3.7,17
		c-0.6,2.8-1.1,5.7-1.3,8.5c0,0.5,0.2,0.9,0.5,1.3c0.2,0.2,0.4,0.4,0.5,0.7c0,0.6-0.3,1.1-0.7,1.5c-0.4,0.4-1,0.6-1.6,0.6
		c-1.1,0.1-2.2-0.2-3.2-0.9c-0.8-0.6-1.2-1.6-1.1-2.6c0-1.8,0.9-6.9,2.6-15.1c1.7-8.2,3.9-17.3,6.6-27.3c0.4-1.3,0.9-3.1,1.5-5.4
		c2.9-10.8,5.2-16.3,6.9-16.3c0.7,0,1.4,0.2,1.9,0.7c0.5,0.3,0.9,0.9,0.9,1.6c-0.3,1.7-0.8,3.4-1.4,5
		C139.8,78.6,139,81.2,138.4,83.5z M134,102.3c0.1,1,0.5,1.9,1.2,2.5c0.6,0.6,1.5,1,2.4,1c1.5,0,2.9-0.7,3.8-1.8
		c1.5-1.9,2.6-4,3.5-6.2c0.9-2.1,1.6-4.4,2.2-6.6c0.5-1.9,0.7-3.8,0.8-5.7c0-0.9-0.1-1.8-0.5-2.6c-0.2-0.5-0.7-0.9-1.2-0.9
		c-1.3,0-3.2,2-5.7,5.9C137.7,92.4,135.5,97.2,134,102.3L134,102.3z"/>
	<path class="st4" d="M160.6,96.6c-0.3,0.1-0.6,0.1-0.7,0.1l-0.5,0.1c-0.7,0-1.3-0.4-1.7-1c-0.4-0.6-0.7-1.4-0.7-2.1
		c0-0.5,0.6-0.9,1.9-1.1c1.2-0.2,2.3-0.7,3.2-1.6c2.1-8,4.3-15.8,6.7-23.4c2.4-7.6,4.9-14.9,7.6-22.1c0-0.1-0.1-0.3-0.1-0.4
		c0-0.2,0-0.4,0-0.7c0-0.9,0.6-1.8,1.9-2.7c1-0.8,2.3-1.3,3.6-1.3c1.5,0,3.1,0.8,4.7,2.3c1.6,1.5,2.4,2.9,2.4,4.2
		c0,3.2-2,9.4-6.1,18.6c-4.5,9.8-9.8,19.3-15.9,28.2c-0.2,1.2-0.4,2.4-0.5,3.3c-0.1,0.9-0.2,1.8-0.2,2.7c-0.1,1.7,0.1,3.5,0.7,5.2
		c0.3,0.9,1.2,1.5,2.2,1.5c1,0,2.1-0.6,3.3-1.9c1.7-1.9,3.2-3.9,4.4-6c0.7-1.1,1.4-2.4,2.3-3.9c0.8-1.5,1.4-2.3,1.7-2.3
		c0.6,0.1,1.1,0.4,1.5,0.8c0.6,0.5,0.9,1,0.9,1.3c0,0.1,0,0.2-0.1,0.3c-0.1,0.2-0.2,0.4-0.2,0.5c-2.1,4.1-3.7,7-4.7,8.6
		c-0.9,1.4-1.9,2.7-3,4c-1,1-2.1,1.8-3.3,2.4c-1.1,0.5-2.3,0.8-3.5,0.8c-2,0-3.8-1-5.5-3c-1.6-1.9-2.5-4.2-2.5-6.7
		c0-0.9,0-1.8,0.1-2.6C160.5,98.2,160.5,97.4,160.6,96.6z M167.9,86.9c4.3-8,8.1-16.1,11.4-24.5c3-7.6,4.4-12.5,4.4-14.7
		c0-0.3-0.1-0.6-0.3-0.9c-0.2-0.2-0.4-0.3-0.7-0.3c-0.2,0-0.5,0.1-0.7,0.2l-0.3,0.1c-3,7.8-5.7,15-8,21.7
		C171.4,75.1,169.5,81.3,167.9,86.9L167.9,86.9z"/>
	<path class="st4" d="M193.5,100.4c-1.5,2.9-3.5,5.5-5.9,7.6c-1.7,1.6-4,2.5-6.3,2.7c-1.6,0-3.1-0.7-4-1.9c-1.1-1.4-1.6-3.1-1.6-4.8
		c0-2.9,0.5-5.7,1.5-8.4c1.1-3.3,2.6-6.4,4.3-9.4c1.5-2.9,3.6-5.6,6-7.9c2.2-1.9,4.2-2.9,6-2.9c1,0,1.9,0.3,2.7,0.8
		c1,0.6,1.8,1.5,2.5,2.4c0.6-0.2,1.2-0.3,1.8-0.4c0.4-0.1,0.8-0.1,1.2-0.1c1.1,0,2.3,0.3,3.2,0.9c0.7,0.4,1.2,1.2,1.2,2
		c-0.3,1.3-0.8,2.6-1.5,3.8c-0.8,1.6-1.5,3-2,4c-1.2,2.7-2.3,5.5-3.3,8.3c-0.6,1.7-1,3.5-1.2,5.3c0,0.4,0,0.8,0.2,1.1
		c0.2,0.2,0.5,0.4,0.8,0.3c0.5,0,1.3-0.6,2.3-1.7s2.7-3.3,5.1-6.7c0.4-0.6,0.9-1.4,1.5-2.3c0.6-0.9,1-1.4,1.4-1.5
		c0.4,0,0.8,0.3,1.2,0.9c0.4,0.5,0.6,1,0.6,1.6c0,0.6-0.6,1.9-1.8,3.9c-1.3,2.2-2.7,4.3-4.3,6.3c-1,1.4-2.2,2.6-3.5,3.6
		c-1,0.7-2.2,1.1-3.3,1.1c-1.4,0.1-2.8-0.6-3.7-1.7c-1-1.4-1.4-3.1-1.3-4.9c0-0.6,0-1,0-1.4C193.4,101,193.4,100.7,193.5,100.4z
		 M197,83.2c0-0.4-0.1-0.9-0.4-1.2c-0.3-0.3-0.7-0.5-1.2-0.5c-1.2,0-2.6,0.8-4.2,2.5c-1.9,2.1-3.5,4.4-4.8,7
		c-1.4,2.6-2.6,5.3-3.6,8.1c-0.7,1.8-1.2,3.8-1.4,5.8c0,0.4,0.1,0.7,0.2,1.1c0.2,0.2,0.4,0.2,0.6,0.2c0.7,0,1.8-0.6,3.1-1.9
		c1.5-1.5,2.9-3.2,4-5c2.1-3.1,3.9-6.4,5.4-9.8C196.3,86.1,197,84,197,83.2z"/>
	<path class="st4" d="M214.3,109.8c-1.9,0-3.6-0.9-4.6-2.4c-1.2-2-1.8-4.3-1.7-6.7c0.1-3.8,0.6-7.6,1.6-11.3
		c1.1-4.2,2.2-7.1,3.3-8.7c0.5-0.7,1.2-1.3,2.1-1.6c1-0.4,2.1-0.6,3.2-0.6c0.6,0,1.1,0.1,1.6,0.5c0.4,0.3,0.6,0.8,0.6,1.3
		c-0.2,0.8-0.4,1.6-0.8,2.3l-0.8,2.2l-0.7,2c-3.1,8.4-4.6,13.7-4.6,15.9c-0.1,0.7,0.1,1.3,0.5,1.9c0.4,0.4,0.9,0.6,1.4,0.6
		c0.9,0,2.3-0.9,4.1-2.7c2-2.1,3.8-4.5,5.3-7.1c0.2-0.4,0.5-1,0.9-1.8c0.6-1.2,1.1-1.8,1.4-1.8c0.5,0,1,0.3,1.3,0.6
		c0.4,0.4,0.7,0.9,0.7,1.5c-0.5,1.3-1.1,2.5-1.9,3.6l-1.5,2.5c-1.5,2.8-3.5,5.4-5.8,7.6C218.2,108.9,216.3,109.7,214.3,109.8z
		 M218.5,75.5c-1,0-2-0.3-2.7-0.9c-0.7-0.6-1.1-1.5-1.1-2.4c0-1.4,0.9-2.7,2.1-3.3c1.3-0.9,2.9-1.3,4.4-1.3c0.8-0.1,1.6,0.2,2.2,0.7
		c0.5,0.6,0.8,1.3,0.7,2.1c0,1.4-0.7,2.7-1.8,3.5C221.4,74.9,220,75.5,218.5,75.5L218.5,75.5z"/>
	<path class="st4" d="M241,89.8c-1.9,3.1-4,6.9-6.5,11.6c-3,5.6-5.2,8.4-6.7,8.4c-1.3,0.1-2.5-0.4-3.4-1.2c-0.9-0.9-1.4-2.2-1.3-3.5
		c0-1.8,0.6-5.1,1.8-9.8c1.1-4.6,2.6-9.2,4.5-13.5c0.4-1.1,1-2.1,1.8-2.9c0.7-0.5,1.5-0.8,2.3-0.7c0.8,0,1.6,0.3,2.3,0.7
		c0.6,0.4,1,1,1.1,1.7c-0.2,0.6-0.4,1.1-0.7,1.7c-3.1,6.3-5.2,13.1-6.4,20c3.4-6.8,7.2-13.5,11.3-19.9c2.7-4,4.8-6,6.2-6
		c1.2,0,2.3,0.4,3.3,1.2c0.9,0.6,1.5,1.6,1.5,2.7c-0.1,0.7-0.5,1.4-1.1,1.8c-0.4,0.3-0.7,0.6-1.1,0.9c-0.4,0.8-0.8,1.5-1,2.4
		c-0.5,1.3-1.1,2.9-1.6,4.8c-0.8,2.6-1.4,5.1-1.9,7.5c-0.4,1.7-0.6,3.5-0.7,5.3c0,0.6,0.1,1.2,0.3,1.8c0.1,0.4,0.5,0.7,0.9,0.7
		c1.2,0,3.4-2.8,6.6-8.3c0.6-1,1-1.8,1.4-2.3c0.1-0.2,0.3-0.5,0.4-0.9c0.4-0.8,0.9-1.2,1.5-1.2c0.6,0.1,1.1,0.4,1.4,0.8
		c0.6,0.5,0.9,1,0.9,1.3c0,0.7-0.8,2.6-2.5,5.7c-1.5,2.8-3.4,5.5-5.6,7.8c-0.7,0.7-1.4,1.2-2.2,1.7c-0.7,0.4-1.5,0.6-2.3,0.6
		c-1.7,0.1-3.4-0.8-4.3-2.3c-1.1-1.9-1.7-4.2-1.6-6.4c0-1.6,0.2-3.2,0.4-4.8C240,94.8,240.4,92.5,241,89.8z"/>
	<path class="st4" d="M258.9,94.9c-0.3,0.9-0.4,1.9-0.6,2.9c-0.1,1-0.2,2-0.2,3.1c-0.1,1.6,0.2,3.2,0.9,4.7c0.4,1,1.4,1.6,2.5,1.6
		c2,0,4.4-1.3,7.2-3.8c3-2.8,5.4-6,7.3-9.6c0.2-0.3,0.4-0.8,0.8-1.5c0.7-1.5,1.3-2.2,1.7-2.2c0.5,0,0.9,0.3,1.1,0.6
		c0.4,0.4,0.6,0.9,0.5,1.5c-0.2,1.3-0.6,2.5-1.3,3.6c-1,1.9-2.2,3.6-3.5,5.3c-2.1,2.9-4.6,5.4-7.5,7.4c-2.2,1.5-4.8,2.3-7.5,2.3
		c-2.8,0-4.9-0.8-6.3-2.4s-2.1-4-2.1-7.3c0.1-4.2,1-8.3,2.4-12.2c1.5-4.5,3.6-8.7,6.2-12.6c0.7-1,1.6-1.9,2.6-2.7
		c0.8-0.6,1.8-0.9,2.7-0.9c0.5,0,1,0.1,1.4,0.3c0.6,0.2,1.1,0.5,1.6,0.9l2,0.5c2.2,0.6,3.3,1.9,3.3,3.9c0,4.5-1.3,8.9-3.9,12.6
		c-2.6,3.8-5.2,5.7-8,5.7c-0.6,0-1.2-0.1-1.7-0.4C260,95.8,259.4,95.4,258.9,94.9z M262.8,93c1.2,0,2.4-1.3,3.5-4
		c1.1-2.5,1.7-5.1,1.8-7.8c0-0.4-0.1-0.8-0.4-1.2c-0.2-0.3-0.6-0.5-1-0.5c-1,0-2.3,1.3-3.8,3.9c-1.5,2.6-2.3,4.7-2.3,6.3
		c0,0.8,0.2,1.7,0.6,2.4C261.6,92.7,262.2,93,262.8,93L262.8,93z"/>
	<path class="st4" d="M280.9,79.7c-0.6-0.3-1-0.7-1.5-1.2c-0.3-0.4-0.4-0.8-0.4-1.2c0.1-1.4,0.8-2.6,2-3.4c1.2-1.1,2.7-1.7,4.3-1.7
		c0.7,0,1.4,0.2,2,0.7c0.5,0.4,0.8,1,0.8,1.7c0,0.4-0.1,0.8-0.1,1.2c-0.1,0.5-0.2,1.1-0.4,1.8l3.7,1.1c0.2-0.4,0.5-0.9,0.9-1.2
		c0.4-0.5,0.9-0.9,1.4-1.3c0.3-0.1,0.6-0.2,0.9-0.2c0.2,0,0.4-0.1,0.6-0.1c0.9,0,1.9,0.3,2.6,0.9c0.7,0.4,1.2,1.1,1.3,2
		c0,0.6-0.2,1.1-0.5,1.6c-0.5,0.7-1.1,1.3-1.8,1.8c-2.1,3.4-3.9,7.1-5.2,10.9c-1.1,3-1.7,6.1-1.8,9.2c0,0.7,0.1,1.5,0.4,2.1
		c0.3,0.6,0.7,0.9,1.1,0.9c1.1,0,2.4-0.9,3.9-2.6c1.8-2.3,3.4-4.8,4.6-7.5c0.2-0.4,0.4-0.9,0.7-1.5c0.7-1.6,1.3-2.4,1.9-2.4
		c0.5,0,1,0.2,1.4,0.6c0.4,0.3,0.6,0.8,0.7,1.3c-0.1,1-0.4,1.9-0.9,2.8c-0.8,1.6-1.6,3.1-2.6,4.6c-2.4,3.7-4.3,6.1-5.8,7.4
		c-1.4,1.2-3.2,1.9-5,2c-1.8,0.1-3.6-0.6-4.8-1.9c-1.2-1.5-1.9-3.4-1.8-5.3c0.1-2.6,0.4-5.3,1.1-7.8c0.9-3.5,2.1-6.9,3.5-10.2
		l-3-0.9c-1.3,3.9-2.9,7.6-4.8,11.2c-1.3,2.3-2.5,3.4-3.6,3.4c-0.4,0-0.8-0.1-1.1-0.4c-0.3-0.3-0.4-0.8-0.4-1.2
		c0.2-0.6,0.4-1.3,0.8-1.9C277.9,89.9,279.6,84.9,280.9,79.7z"/>
	<path class="st4" d="M346.1,102.1c5.9-12.4,11.9-23.7,18-34.1c5-8.8,10.5-17.2,16.6-25.3c0.3-0.4,0.6-0.9,1.1-1.5
		c1.7-2.3,3.4-3.5,5.2-3.5c0.8,0,1.5,0.1,2.3,0.3c0.5,0.2,0.7,0.5,0.7,0.9c0,1.1-1,2.9-3,5.5c-1.4,1.8-2.4,3.2-3.2,4.4
		c-4.3,6.5-9.4,14.9-15.4,25.5c-6,10.5-12.2,21.9-18.5,34.1c-1,0.7-2.2,1.3-3.4,1.6c-1.4,0.4-2.9,0.6-4.4,0.7
		c-1.6,0.1-3-0.8-3.6-2.2c-0.6-1.5-0.9-5-0.9-10.5v-5.4c0-7,0.4-14,1.2-20.9c0.8-7.3,2.1-15.6,3.9-25c0.2-1.1,0.6-2.1,1.3-2.9
		c0.6-0.6,1.3-1,2.2-0.9c1.4,0.2,2.7,0.7,3.8,1.5c1.6,1,2.4,2,2.4,2.9c-0.2,1.7-0.6,3.3-1.1,5c-3.5,13.2-5.2,26.8-5.3,40.4
		c0,1.7,0,3.3,0.1,4.9C345.9,99,346,100.6,346.1,102.1z"/>
	<path class="st4" d="M376,109.8c-1.9,0-3.6-0.9-4.6-2.4c-1.2-2-1.8-4.3-1.7-6.7c0.1-3.8,0.6-7.6,1.6-11.3c1.1-4.2,2.2-7.1,3.3-8.7
		c0.5-0.7,1.2-1.3,2.1-1.6c1-0.4,2.1-0.6,3.2-0.6c0.6,0,1.1,0.1,1.6,0.5c0.4,0.3,0.6,0.8,0.6,1.3c-0.2,0.8-0.4,1.6-0.8,2.3l-0.7,2.1
		l-0.7,2c-3.1,8.4-4.6,13.7-4.6,15.9c-0.1,0.7,0.1,1.3,0.5,1.9c0.4,0.4,0.9,0.6,1.4,0.6c0.9,0,2.3-0.9,4.1-2.7
		c2-2.1,3.8-4.5,5.3-7.1c0.2-0.4,0.5-1,0.9-1.8c0.6-1.2,1.1-1.8,1.4-1.8c0.5,0,1,0.3,1.3,0.6c0.4,0.4,0.7,0.9,0.7,1.5
		c-0.5,1.3-1.1,2.5-1.9,3.6l-1.5,2.5c-1.5,2.8-3.5,5.4-5.8,7.6C380,108.9,378,109.7,376,109.8z M380.2,75.5c-1,0-2-0.3-2.7-0.9
		c-0.7-0.6-1.1-1.5-1-2.4c0-1.4,0.9-2.7,2.1-3.3c1.3-0.9,2.9-1.3,4.4-1.3c0.8-0.1,1.6,0.2,2.2,0.7c0.5,0.6,0.8,1.3,0.7,2.1
		c0,1.4-0.7,2.7-1.8,3.5C383.1,74.9,381.7,75.5,380.2,75.5L380.2,75.5z"/>
	<path class="st4" d="M401.1,103c-1.3,2.9-3.1,5.6-5.3,7.9c-1.9,2-3.7,3-5.2,3c-1.7,0-3.2-0.9-4.4-2.7c-1.3-2-1.9-4.3-1.9-6.7
		c0.1-4.1,1.2-8,3-11.7c2-4.3,4.6-8.1,7.9-11.5c0.7-0.7,1.6-1.4,2.4-1.9c0.6-0.4,1.4-0.6,2.1-0.6c1,0,1.9,0.3,2.7,0.8
		c1.2,0.6,2.2,1.4,3.2,2.3c1.3-3.6,2.9-8.3,4.8-14c3.6-10.6,6.2-15.9,7.8-15.9c1-0.1,2,0.2,2.9,0.7c0.7,0.4,1.1,1,1.2,1.8
		c0,0.7-0.7,2.5-2,5.3c-0.9,2-1.7,3.6-2.2,4.9c-3.2,7.4-6,15-8.3,22.7c-2.1,7.1-3.1,12.2-3.1,15.2c0,0.6,0.1,1.1,0.3,1.7
		c0.1,0.4,0.5,0.6,0.9,0.6c0.6,0,1.4-0.5,2.3-1.5c1.5-1.7,2.8-3.5,4-5.5c0.4-0.7,0.8-1.4,1.2-2.1c0.6-1.1,1.1-1.7,1.5-1.7
		c0.3,0,0.6,0.1,0.8,0.3c0.2,0.2,0.3,0.4,0.3,0.7c-0.1,0.8-0.3,1.5-0.7,2.2c-0.4,1-1.1,2.3-1.9,3.9c-1.2,2.4-2.7,4.7-4.5,6.7
		c-1.1,1.2-2.7,2-4.4,2c-1.5,0-2.9-0.6-3.7-1.8C401.6,106.7,401.1,104.9,401.1,103z M404.8,84.6c-0.3-0.4-0.7-0.8-1.1-1.1
		c-0.3-0.2-0.7-0.3-1.1-0.3c-0.9,0-1.9,0.6-3,1.8c-1.6,1.7-3,3.6-4.2,5.6c-1.7,2.7-3.2,5.5-4.2,8.5c-0.9,2.4-1.5,4.9-1.6,7.5
		c0,0.6,0.2,1.2,0.5,1.7c0.3,0.4,0.7,0.7,1.2,0.7c1.6,0,3.6-2.3,6.2-6.8C400.6,96.7,403,90.7,404.8,84.6z"/>
	<path class="st4" d="M420.4,94.9c-0.3,0.9-0.4,1.9-0.6,2.9c-0.1,1-0.2,2-0.2,3.1c-0.1,1.6,0.2,3.2,0.9,4.7c0.4,1,1.4,1.6,2.5,1.6
		c2,0,4.4-1.3,7.2-3.8c3-2.8,5.4-6,7.3-9.6c0.2-0.3,0.4-0.8,0.8-1.5c0.7-1.5,1.3-2.2,1.7-2.2c0.5,0,0.9,0.3,1.1,0.6
		c0.4,0.4,0.6,0.9,0.5,1.5c-0.2,1.3-0.6,2.5-1.3,3.6c-1,1.9-2.2,3.6-3.5,5.3c-2.1,2.9-4.6,5.4-7.5,7.4c-2.2,1.5-4.8,2.3-7.5,2.3
		c-2.8,0-4.9-0.8-6.3-2.4c-1.4-1.6-2.1-4-2.1-7.3c0.1-4.2,0.9-8.3,2.4-12.2c1.5-4.5,3.6-8.7,6.2-12.6c0.7-1,1.6-1.9,2.6-2.7
		c0.8-0.6,1.8-0.9,2.7-0.9c0.5,0,1,0.1,1.4,0.3c0.6,0.2,1.1,0.5,1.6,0.9l2,0.5c2.2,0.6,3.3,1.9,3.3,3.9c0,4.5-1.3,8.8-3.9,12.5
		c-2.6,3.8-5.2,5.7-8,5.7c-0.6,0-1.2-0.1-1.7-0.4C421.5,95.8,420.9,95.4,420.4,94.9z M424.3,93c1.2,0,2.4-1.3,3.5-4
		c1.1-2.5,1.7-5.1,1.8-7.8c0-0.4-0.1-0.8-0.4-1.2c-0.2-0.3-0.6-0.5-1-0.5c-1,0-2.3,1.3-3.8,3.9c-1.5,2.6-2.3,4.7-2.3,6.3
		c0,0.8,0.2,1.7,0.6,2.4C423.1,92.7,423.7,93,424.3,93z"/>
	<path class="st4" d="M452,80.9l0.2-0.1c0.6-0.1,1.2-0.2,1.8-0.2c1.6,0,3.1,1,3.8,2.4c1.1,1.9,1.6,4.1,1.5,6.4
		c2.1-0.7,4-2.1,5.3-3.9c1.6-2,2.6-3,3.1-3c0.5,0,0.9,0.1,1.3,0.4c0.3,0.3,0.5,0.7,0.5,1.1c0,0.6-0.2,1.2-0.5,1.8
		c-0.4,0.7-0.9,1.4-1.5,2c-1.2,1.8-2.6,3.3-4.2,4.7c-1.4,1.1-3,1.8-4.7,2.1c-1.6,5.7-3.7,10-6.2,12.9c-2.5,3-5.5,4.4-8.8,4.4
		c-2.2,0.1-4.4-0.8-5.9-2.4c-1.6-1.8-2.3-4.2-2.2-6.6c0.1-3,0.7-6,1.8-8.8c1.2-3.4,2.8-6.7,4.8-9.8c0.9-1.5,2-2.9,3.3-4
		c0.9-0.8,2.1-1.3,3.3-1.3c0.7,0,1.3,0.2,1.9,0.5C451.3,79.8,451.7,80.3,452,80.9z M442,103.5c-0.1,0.9,0.1,1.8,0.6,2.6
		c0.4,0.6,1.1,0.9,1.8,0.9c1.9,0,4-2.1,6.2-6.4c2.1-3.7,3.2-7.9,3.3-12.2c0-0.8-0.1-1.6-0.5-2.3c-0.3-0.5-0.9-0.8-1.5-0.8
		c-1.8,0-3.9,2.1-6.3,6.3C443.3,95.1,442.1,99.3,442,103.5L442,103.5z"/>
	<path class="st4" d="M470.8,109.8c-1.3,0.1-2.6-0.2-3.7-0.9c-0.8-0.6-1.3-1.5-1.3-2.5c0.1-2.1,1-4,2.6-5.4c1.7-1.7,3.4-2.5,5.1-2.5
		c0.9,0,1.9,0.4,2.4,1.1c0.6,1,0.9,2.1,0.9,3.3c0,1.8-0.6,3.5-1.8,4.8C474,109,472.4,109.8,470.8,109.8z M479,90.2
		c-0.1,1.6-0.4,2.7-0.9,3.3c-0.8,0.7-1.8,1-2.8,0.9c-0.8,0-1.6-0.1-2.3-0.4c-0.5-0.2-0.8-0.7-0.7-1.3c0-2.8,1.2-8.9,3.5-18.4
		c2.4-9.9,5.5-19.6,9-29.1l0.2-0.5c2.2-5.7,4.5-8.6,6.9-8.6c1.1,0,2.2,0.4,3.1,1.1c0.8,0.5,1.2,1.4,1.3,2.3c0,0.3-0.1,0.7-0.3,0.9
		c-0.3,0.6-0.7,1.2-1,1.7c-1.4,3.8-3.5,10-6.4,18.7C485.8,69.5,482.6,79.3,479,90.2L479,90.2z"/>
</g>
<g>
	<g>
		<path class="st5" d="M633.5,90c-13.1-8.7-23.2-14.5-23.2-33c0-11.8,6.4-22.9,22.8-24.9v-8.4h9.1v8.4c14.6,1.7,21.4,9.4,21.8,18.5
			c0.1,2.8,0.7,5.6,0.5,8.4H649c0-7.2-1.1-11.8-7.4-13.5v26.7c13.9,7.1,24.9,17.2,25.1,31c0.3,18.5-6.8,27.6-24.5,30.2v14.6h-9.1
			v-14.2c-18.8-1.6-25.1-14.7-24.1-32.2H625c0.1,8.7-0.4,16.1,8.4,18.4V90z M633.5,45.5c-4.7,0.7-7.1,5.1-7.1,10.1
			c0,6.7,3.5,10.1,7.1,13.9V45.5z M641.7,119.9c4.6-1.3,8-5.2,8-12.6c0-6.7-4.7-12.3-8-14.5V119.9z"/>
		<path class="st5" d="M732.8,92.7c0,32-9.1,40.6-28.9,40.6c-14.7,0-25.3-6.7-24.8-22.6h17.4c0.1,3.4,0.5,8.3,8.2,7.9
			c10.6,0,9.5-12.7,9.8-18.8v-6.4c-3.1,3.2-6,6.7-14.7,6.7c-15.9,0-22.8-10.9-22.8-31.5c0-25.2,6.2-38.2,27.9-38.2
			c22.4,0,28.3,14.6,28,38.2V92.7z M704.4,45.1c-9.8,0.1-8.7,9.2-8.7,22.1c0,7.2-0.9,18.1,9.1,18.1c9.2,0,9.2-9.8,9.2-18.1
			C714.2,54.7,714.4,44.2,704.4,45.1z"/>
		<path class="st5" d="M744.2,85l2.5-52.7h48.4v14.7h-33.9L760,68.5c4.6-4.4,8.3-5.6,14.6-5.6c22,0,25.1,18.8,25.1,34.7
			c0,22.8-6.6,35.6-27.7,35.6c-22.8,0-28.8-10.5-28.7-33.6h17.6c0.3,7.2-0.8,18.4,9.4,18.9c11.1,0.7,10.5-11.1,10.7-21
			c0.7-16.1-3.9-19.8-10.7-19.8c-4.7,0-8.8,3.1-9.4,7.4H744.2z"/>
		<path class="st5" d="M811.7,59.2c0-21.3,10.2-28.8,27.2-28.8c16.9,0,27.1,7.5,27.1,28.8v45.2c0,21.3-10.2,28.9-27.2,28.9
			c-16.9,0-27.1-7.6-27.1-28.9V59.2z M830.5,104.3c-0.5,11.3,3.4,14.2,8.2,14.2c5,0,9.1-2.9,8.6-14.2V59.2
			c0.5-11.1-3.6-14.1-8.6-14.1c-4.8,0-8.7,2.9-8.2,14.1V104.3z"/>
	</g>
</g>
<g>
	<path class="st4" d="M522.8,76.5l-6.1,34.8h-5.6l6.1-34.8h-4.6l1-5.6h4.6l1.2-7c1.1-6.1,4.7-8.9,10.2-8.9c0.8,0,1.6,0.1,2.5,0.2
		l-1.1,6.1c-0.7-0.1-1.6-0.2-2.3-0.2c-2.4,0-3.6,1.5-4.1,4.7l-0.9,5h5.6l-1,5.6H522.8z"/>
	<path class="st4" d="M548.2,69.7c10.6,0,13.5,10.9,11.7,21.3s-8.5,21.3-19.1,21.3c-10.6,0-13.5-10.9-11.7-21.3
		S537.6,69.7,548.2,69.7z M541.8,106.5c8,0,11.4-10,12.3-15.5c0.9-5.4,1-15.5-6.9-15.5c-8,0-11.4,10-12.3,15.5
		S533.8,106.5,541.8,106.5z"/>
	<path class="st4" d="M569,111.3h-5.6l7-40.4h5.3l-1.2,6.7h0.1c3-4.7,6.5-7.9,10.7-7.9c0.7,0,1,0.1,1.4,0.2l-1.2,7h-2.1
		c-5.2,0-9.4,4.9-10.4,10.8L569,111.3z"/>
</g>
</svg>
