<?xml version="1.0" encoding="utf-8"?>
<!-- Generator: Adobe Illustrator 21.0.0, SVG Export Plug-In . SVG Version: 6.00 Build 0)  -->
<svg version="1.1" id="Layer_1" xmlns="http://www.w3.org/2000/svg" xmlns:xlink="http://www.w3.org/1999/xlink" x="0px" y="0px"
	 viewBox="0 0 1309.8 313.6" style="enable-background:new 0 0 1309.8 313.6;" xml:space="preserve">
<style type="text/css">
	.st0{fill:#E6EFEF;}
	.st1{fill:#FE830C;}
	.st2{fill:#FEB914;}
	.st3{fill:#422004;}
	.st4{fill:#504F59;}
	.st5{fill:#201F24;}
</style>
<path class="st0" d="M1309.8,313.6H0V19.5C0,8.7,8.7,0,19.5,0l0,0h1270.9c10.7,0,19.4,8.7,19.4,19.5V313.6z"/>
<g>
	<g>
		<path class="st1" d="M641.1,63.6h574.3c10,0,18,8.1,18,18V250c0,10-8.1,18-18,18H641.1c-10,0-18-8.1-18-18V81.6
			C623,71.7,631.1,63.6,641.1,63.6z"/>
		<path class="st2" d="M641.1,42.6h574.3c10,0,18,8.1,18,18V229c0,10-8.1,18-18,18H641.1c-10,0-18-8.1-18-18V60.6
			C623,50.6,631.1,42.6,641.1,42.6z"/>
		<path class="st3" d="M765.2,177v-57.7h17.3c4.6,0,9.2,0.3,12.2,4.3c2.2,3,3.2,6.7,2.8,10.4c0,5-1.1,9.9-6.9,12.1v0.1
			c6.1,0.9,8.4,5.9,8.4,13.4c0.1,2.4-0.2,4.8-0.8,7.1c-2.3,7.3-6.4,10.4-14.2,10.4L765.2,177z M778,142.6c2.6,0,6,0.1,7.7-2
			c1-1.9,1.4-4.1,1.2-6.2c0-4.3-0.9-6.4-5.9-6.6h-5v15L778,142.6z M778.3,168.6c2.2,0.2,4.3,0,6.4-0.6c2.9-1.3,3.3-5.1,3.3-8
			c0-6.2-1.2-8.9-7.9-8.9h-4.2v17.5H778.3z"/>
		<path class="st3" d="M807.1,156.9c0-15,0.2-24.4,15.3-24.4s15,9.6,15,24.4c0,14.9-2.1,21.6-15,21.4
			C809.2,178.4,807,172,807.1,156.9z M817.1,162.9c0,5.3,0.5,7.6,5.3,7.6s5-2.3,5-7.6v-14.5c0-4.1,0-8.3-5-8.3s-5.3,4.2-5.3,8.3
			V162.9z"/>
		<path class="st3" d="M845.6,156.9c0-15,0.2-24.4,15.3-24.4s15,9.6,15,24.4c0,14.9-2.1,21.6-15,21.4
			C847.7,178.4,845.5,172,845.6,156.9z M855.6,162.9c0,5.3,0.5,7.6,5.3,7.6s5-2.3,5-7.6v-14.5c0-4.1,0-8.3-5-8.3s-5.3,4.2-5.3,8.3
			V162.9z"/>
		<path class="st3" d="M883.7,177v-57.7h9.9v26.1c0,1.9,0,3.6-0.1,5.5h0.1l9.5-17.3H914l-10.9,17.5l10.7,26h-11.2l-6.2-17.7
			l-2.7,4.4V177H883.7z"/>
		<path class="st3" d="M964.5,119.3h10.7V177H964l-8.3-20.5c-3-7.5-5.6-15.2-7.7-23h-0.1c0.4,4.8,0.9,10.7,1.2,16.5
			s0.5,11.6,0.5,16.2V177h-10.7v-57.7H950l8.4,21c3,7.5,5.6,15.2,7.7,23h0.1c-0.4-5.2-0.8-10.9-1.1-16.4s-0.5-11.1-0.5-16.2
			L964.5,119.3z"/>
		<path class="st3" d="M984.6,156.9c0-15,0.2-24.4,15.3-24.4s15,9.6,15,24.4c0,14.9-2.1,21.6-15,21.4
			C986.8,178.4,984.6,172,984.6,156.9z M994.7,162.9c0,5.3,0.5,7.6,5.3,7.6s5-2.3,5-7.6v-14.5c0-4.1,0-8.3-5-8.3s-5.3,4.2-5.3,8.3
			V162.9z"/>
		<path class="st3" d="M1053.3,160.2c0.5,3.1,0.9,6.2,1,9.3h0.2c0-1.9,0.6-8.3,0.9-9.6l3.3-26.4h10.1L1060,177h-11l-3.3-17.6
			c-0.6-3.6-1.1-7.3-1.3-10.9h-0.3c-0.1,3.5-0.5,6.9-1,10.3L1040,177h-11.2l-8.9-43.5h10.5l3.5,26.5c0.2,1.3,0.9,7.7,0.9,9.6h0.1
			c0.1-3.1,0.5-6.2,1-9.3l4.2-26.8h8.3L1053.3,160.2z"/>
		<path class="st3" d="M1078.2,119.3h9.9v16.2c0.2,4.5,0,8.9-0.5,13.3c-0.4,4.5-0.9,8.9-1.2,13.3h-6.5c-0.2-4.5-0.8-8.9-1.2-13.3
			c-0.5-4.4-0.7-8.9-0.7-13.3L1078.2,119.3z M1078.2,177v-10.1h10V177H1078.2z"/>
	</g>
	<g>
		<g>
			<path class="st4" d="M76.3,91.4c-1.2,4-2.2,7.4-3.1,10.2c-0.8,2.8-1.5,5.3-2.1,7.4c9-1.1,15.9-2,20.8-2.5c4.9-0.5,8.2-0.8,10-0.8
				c1.6-0.1,3.1,0.1,4.6,0.6c1,0.4,1.5,1,1.5,1.8c0,1.7-2,2.8-6,3.3l-1.2,0.2c-5.3,0.9-11.6,2.3-19,4.2c-7.4,1.9-12.1,2.9-14,2.9
				c-1.7,0-3.3-0.7-4.4-2c-1.2-1.2-1.9-2.9-1.9-4.6c0-1.1,1.4-6.7,4.1-16.9C68.3,85,72.7,68.8,79,46.6c0.9-3.3,1.9-5.3,3-5.9
				c1.1-0.6,4.3-0.9,9.8-0.9c2.7,0,7.3,0.4,13.5,1.1s11.1,1.2,14.5,1.4c0.6,0,1.1,0.1,1.6,0.4c0.3,0.2,0.5,0.6,0.5,1
				c0,2.2-5.1,3.6-15.2,4.4c-7.3,0.5-13.5,1-18.4,1.7c-1.5,4.4-3.1,9.3-4.7,14.7S80.4,76.1,78.5,83c5.3-0.6,10-1,14.1-1.2
				s7.6-0.4,10.6-0.4c1.6-0.1,3.3,0.1,4.8,0.6c0.9,0.3,1.5,1.2,1.5,2.1c0.1,0.9-0.2,1.8-0.7,2.6c-0.6,0.6-1.4,1-2.2,1
				c-3.3,0.2-7.4,0.5-12.2,1.1C89.4,89.4,83.4,90.2,76.3,91.4z"/>
			<path class="st4" d="M124.4,110c-0.4,0.5-1.1,1.4-2,2.6c-3.1,3.9-5.5,7-7.2,9.3c-0.3,0.1-0.6,0.2-0.9,0.3
				c-0.3,0.1-0.6,0.1-0.9,0.1c-0.8,0-1.6-0.3-2.2-0.8c-0.6-0.4-1-1-1-1.7c0-0.9,0.8-2.5,2.4-4.9s4.7-6.3,9.2-11.7
				c-0.8-2.9-1.4-5.4-1.9-7.6c-0.4-1.6-0.6-3.2-0.6-4.9c0-2.1,0.9-4,2.5-5.4c1.7-1.5,3.2-2.3,4.5-2.3c1.2,0,2,2,2.4,5.9
				c0.2,2.3,0.4,4.2,0.7,5.6c6.4-7.1,10.8-11.6,13.1-13.7s4.1-3,5.3-3c0.8,0,1.5,0.3,2.1,0.7c0.5,0.3,0.9,0.9,0.9,1.5
				c-0.1,0.7-0.4,1.4-1,1.8c-1,0.9-2,1.7-3.2,2.4c-2.3,2.2-4.5,4.5-6.6,6.9c-2.6,3-5.6,6.7-9.1,11.2c0.4,2.7,1.3,5.3,2.4,7.8
				c1,2,1.9,3,2.8,3c0.6,0,1.7-1,3.3-3c1.8-2.3,3.4-4.8,4.8-7.4c0.4-0.7,0.9-1.7,1.5-3c1-2.1,1.8-3.1,2.3-3.1c0.8,0.1,1.5,0.5,2,1.1
				c0.8,0.8,1.3,1.4,1.3,1.8c0,0.6-0.7,2.3-2.1,5.2c-1.4,2.8-3,5.5-4.9,8c-1.2,1.7-2.8,3.2-4.6,4.3c-1.6,0.9-3.4,1.4-5.2,1.4
				c-2.1,0.1-4.1-0.6-5.6-1.9C127.3,115.7,125.8,113.4,124.4,110z"/>
			<path class="st4" d="M155.5,88.2c1.5-2.4,3.3-4.6,5.4-6.7c2-2.4,5.5-2.7,7.9-0.7c0.6,0.5,1.1,1.1,1.4,1.9
				c1.5,2.5,2.2,5.4,2.1,8.3c0.1,6.7-1.7,13.2-5.2,18.9c-3.5,5.7-7.2,8.6-11.2,8.6c-1.5,0-3-0.4-4.3-1.2c-1.2-0.7-2.2-1.8-2.7-3.1
				c-1.8,7.7-3.1,14.1-4.1,19.1c-0.7,3.2-1.2,6.4-1.5,9.6c0,0.5,0.2,1.1,0.5,1.5c0.2,0.2,0.4,0.5,0.5,0.8c0,0.7-0.3,1.3-0.8,1.7
				c-0.5,0.5-1.2,0.7-1.8,0.7c-1.3,0.1-2.5-0.3-3.6-1c-0.9-0.7-1.3-1.8-1.2-3c0-2.1,1-7.8,2.9-17s4.4-19.5,7.4-30.9
				c0.4-1.5,1-3.5,1.7-6.1c3.3-12.2,5.9-18.4,7.8-18.4c0.8,0,1.5,0.3,2.1,0.7c0.6,0.4,1,1.1,1,1.8c-0.4,1.9-0.9,3.8-1.6,5.6
				C157.1,82.7,156.2,85.6,155.5,88.2z M150.6,109.4c0.1,1.1,0.6,2.1,1.4,2.9c0.7,0.7,1.7,1.1,2.7,1.1c1.7,0,3.2-0.8,4.3-2.1
				c1.7-2.1,3-4.5,3.9-7c1-2.4,1.8-4.9,2.5-7.5c0.5-2.1,0.8-4.3,0.9-6.5c0-1-0.1-2-0.5-2.9c-0.2-0.6-0.8-1-1.4-1
				c-1.5,0-3.6,2.2-6.5,6.7C154.7,98.2,152.3,103.7,150.6,109.4L150.6,109.4z"/>
			<path class="st4" d="M180.6,103c-0.4,0.1-0.6,0.1-0.8,0.1l-0.5,0.1c-0.8,0-1.5-0.5-1.9-1.1c-0.5-0.7-0.8-1.6-0.8-2.4
				c0-0.6,0.7-1,2.1-1.2c1.4-0.2,2.6-0.8,3.6-1.8c2.4-9,4.9-17.8,7.6-26.4c2.7-8.6,5.6-16.9,8.6-24.9c0-0.2-0.1-0.3-0.1-0.5
				c0-0.2,0-0.5,0-0.7c0-1,0.7-2,2.1-3c1.2-0.9,2.6-1.4,4.1-1.5c1.7,0,3.5,0.9,5.3,2.6c1.8,1.7,2.7,3.3,2.7,4.8
				c0,3.6-2.3,10.6-6.9,21c-5.1,11.1-11.1,21.7-17.9,31.9c-0.2,1.4-0.4,2.7-0.5,3.8c-0.1,1-0.2,2.1-0.2,3.1c-0.1,2,0.1,4,0.8,5.8
				c0.4,1.1,1.4,1.7,2.5,1.7c1.1,0,2.3-0.7,3.7-2.1c1.9-2.1,3.6-4.4,5-6.8c0.8-1.2,1.6-2.7,2.5-4.5c0.9-1.7,1.5-2.6,1.9-2.6
				c0.6,0.1,1.2,0.4,1.7,0.9c0.7,0.6,1.1,1.1,1.1,1.5c0,0.1,0,0.3-0.1,0.4c-0.1,0.2-0.2,0.4-0.3,0.6c-2.4,4.7-4.2,7.9-5.3,9.8
				c-1,1.6-2.2,3.1-3.4,4.5c-1.1,1.1-2.4,2-3.8,2.8c-1.2,0.6-2.6,0.9-3.9,0.9c-2.3,0-4.3-1.1-6.2-3.4c-1.8-2.1-2.8-4.8-2.8-7.5
				c0-1,0-2,0.1-2.9C180.4,104.8,180.5,103.9,180.6,103z M188.9,92c4.8-9,9.1-18.2,12.9-27.7c3.3-8.6,5-14.1,5-16.6
				c0-0.4-0.1-0.7-0.3-1c-0.2-0.2-0.5-0.4-0.8-0.4c-0.3,0-0.5,0.1-0.8,0.2l-0.3,0.1c-3.4,8.8-6.5,16.9-9.1,24.5
				C192.8,78.7,190.6,85.7,188.9,92L188.9,92z"/>
			<path class="st4" d="M217.7,107.3c-1.7,3.3-3.9,6.2-6.7,8.6c-1.9,1.8-4.5,2.9-7.1,3c-1.8,0-3.5-0.7-4.6-2.1
				c-1.2-1.5-1.8-3.5-1.8-5.4c0.1-3.2,0.6-6.4,1.7-9.5c1.2-3.7,2.9-7.2,4.9-10.6c1.7-3.3,4-6.3,6.8-8.9c2.4-2.2,4.7-3.3,6.8-3.3
				c1.1,0,2.1,0.3,3.1,0.9c1.1,0.7,2.1,1.7,2.8,2.8c0.7-0.2,1.3-0.4,2-0.5c0.5-0.1,0.9-0.1,1.4-0.1c1.3,0,2.5,0.3,3.6,1
				c0.8,0.5,1.4,1.3,1.4,2.3c-0.3,1.5-0.9,2.9-1.7,4.2c-0.9,1.8-1.7,3.4-2.2,4.5c-1.4,3.1-2.6,6.2-3.7,9.4c-0.7,1.9-1.2,3.9-1.4,6
				c0,0.4,0.1,0.9,0.3,1.3c0.2,0.3,0.5,0.4,0.9,0.4c0.6,0,1.5-0.6,2.6-1.9s3-3.8,5.7-7.6c0.5-0.7,1.1-1.5,1.7-2.6s1.2-1.6,1.5-1.7
				c0.5,0,0.9,0.3,1.4,1c0.4,0.5,0.6,1.1,0.7,1.8c0,0.7-0.7,2.1-2,4.4c-1.5,2.5-3.1,4.9-4.9,7.1c-1.1,1.6-2.5,2.9-4,4.1
				c-1.1,0.8-2.4,1.2-3.8,1.2c-1.6,0.1-3.2-0.6-4.2-1.9c-1.1-1.6-1.6-3.5-1.5-5.5c0-0.6,0-1.2,0-1.5
				C217.6,107.9,217.6,107.6,217.7,107.3z M221.7,87.9c0-0.5-0.2-1-0.5-1.4c-0.4-0.4-0.8-0.5-1.4-0.5c-1.4,0-3,0.9-4.8,2.8
				c-2.1,2.4-4,5-5.4,7.9c-1.6,3-3,6-4.1,9.2c-0.8,2.1-1.4,4.3-1.5,6.5c0,0.4,0.1,0.8,0.3,1.2c0.2,0.2,0.5,0.3,0.7,0.2
				c0.8,0,2-0.7,3.5-2.1c1.7-1.7,3.3-3.6,4.6-5.6c2.4-3.5,4.4-7.2,6.1-11.1C220.8,91.1,221.7,88.8,221.7,87.9z"/>
			<path class="st4" d="M241.2,117.9c-2.1,0-4.1-1-5.2-2.8c-1.4-2.3-2.1-4.9-1.9-7.5c0.1-4.3,0.7-8.6,1.8-12.8
				c1.2-4.8,2.5-8.1,3.7-9.8c0.6-0.8,1.4-1.5,2.3-1.8c1.1-0.5,2.3-0.7,3.6-0.7c0.6,0,1.2,0.1,1.8,0.5c0.4,0.4,0.7,0.9,0.6,1.5
				c-0.2,0.9-0.5,1.8-0.9,2.6l-0.9,2.5l-0.8,2.3c-3.5,9.5-5.2,15.5-5.2,17.9c-0.1,0.7,0.1,1.5,0.5,2.1c0.4,0.5,1,0.7,1.6,0.7
				c1.1,0,2.6-1,4.6-3.1c2.3-2.4,4.3-5.1,6-8c0.2-0.5,0.6-1.1,1-2c0.7-1.3,1.2-2,1.6-2c0.6,0,1.1,0.3,1.5,0.7c0.5,0.4,0.8,1,0.8,1.7
				c-0.6,1.4-1.3,2.8-2.1,4l-1.7,2.8c-1.7,3.2-3.9,6.1-6.5,8.6C245.7,116.9,243.5,117.8,241.2,117.9z M245.9,79.2
				c-1.1,0-2.2-0.3-3.1-1c-0.8-0.7-1.3-1.7-1.2-2.7c0-1.6,1-3,2.4-3.8c1.5-1,3.2-1.5,5-1.5c0.9-0.1,1.8,0.2,2.5,0.8
				c0.6,0.6,0.9,1.5,0.8,2.3c-0.1,1.6-0.8,3-2,4C249.2,78.5,247.6,79.2,245.9,79.2L245.9,79.2z"/>
			<path class="st4" d="M271.4,95.3c-2.1,3.5-4.6,7.8-7.3,13.1c-3.3,6.3-5.8,9.5-7.5,9.5c-1.4,0.1-2.8-0.4-3.8-1.4
				c-1-1.1-1.6-2.5-1.5-4c0-2,0.7-5.8,2-11.1c1.3-5.2,3-10.3,5.1-15.3c0.4-1.2,1.1-2.4,2-3.3c0.7-0.6,1.7-0.9,2.6-0.8
				c0.9,0,1.8,0.3,2.6,0.8c0.7,0.4,1.2,1.1,1.2,1.9c-0.2,0.7-0.5,1.3-0.8,1.9c-3.5,7.2-5.9,14.8-7.2,22.6
				c3.9-7.7,8.1-15.2,12.7-22.5c3-4.5,5.4-6.8,7-6.8c1.3,0,2.6,0.5,3.7,1.4c1,0.7,1.7,1.8,1.7,3.1c-0.1,0.8-0.5,1.6-1.2,2
				c-0.4,0.4-0.8,0.7-1.3,1c-0.5,0.9-0.9,1.7-1.2,2.7c-0.6,1.5-1.2,3.3-1.8,5.4c-0.9,2.9-1.6,5.8-2.1,8.5c-0.4,2-0.7,4-0.8,6
				c0,0.7,0.1,1.4,0.3,2c0.1,0.4,0.5,0.8,1,0.7c1.3,0,3.8-3.1,7.5-9.4c0.7-1.1,1.2-2,1.5-2.6c0.1-0.2,0.3-0.5,0.5-1
				c0.4-0.9,1-1.4,1.7-1.4c0.6,0.1,1.2,0.4,1.6,0.9c0.7,0.6,1,1.1,1,1.5c0,0.8-1,3-2.9,6.5c-1.7,3.2-3.8,6.2-6.4,8.8
				c-0.7,0.8-1.6,1.4-2.5,1.9c-0.8,0.4-1.7,0.6-2.6,0.6c-2,0.1-3.8-0.9-4.9-2.6c-1.3-2.2-1.9-4.7-1.8-7.2c0-1.8,0.2-3.7,0.5-5.5
				C270.3,100.9,270.7,98.3,271.4,95.3z"/>
			<path class="st4" d="M291.6,101.1c-0.3,1.1-0.5,2.1-0.6,3.2c-0.1,1.2-0.2,2.3-0.2,3.5c-0.1,1.8,0.3,3.6,1,5.3
				c0.5,1.1,1.6,1.8,2.8,1.8c2.3,0,5-1.4,8.1-4.3c3.3-3.1,6.1-6.8,8.2-10.9c0.2-0.4,0.5-0.9,0.9-1.7c0.8-1.7,1.5-2.5,1.9-2.5
				c0.5,0,1,0.3,1.3,0.7c0.4,0.5,0.6,1.1,0.6,1.7c-0.2,1.4-0.7,2.8-1.5,4c-1.1,2.1-2.4,4.1-3.9,6c-2.4,3.2-5.2,6.1-8.5,8.4
				c-2.5,1.7-5.4,2.5-8.4,2.5c-3.2,0-5.5-0.9-7.1-2.7s-2.4-4.6-2.4-8.2c0.2-4.7,1.1-9.4,2.7-13.8c1.7-5,4-9.8,7-14.2
				c0.8-1.2,1.8-2.2,2.9-3c0.9-0.6,2-1,3.1-1c0.5,0,1.1,0.1,1.6,0.3c0.6,0.3,1.3,0.6,1.8,1l2.2,0.6c2.5,0.7,3.7,2.1,3.7,4.4
				c0,5.1-1.5,10-4.4,14.2c-2.9,4.3-5.9,6.5-9,6.5c-0.7,0-1.3-0.2-1.9-0.5C292.8,102.1,292.1,101.6,291.6,101.1z M296,98.9
				c1.3,0,2.7-1.5,4-4.5c1.3-2.8,2-5.8,2-8.8c0-0.5-0.2-0.9-0.5-1.3c-0.2-0.4-0.6-0.6-1.1-0.6c-1.1,0-2.6,1.5-4.3,4.4
				c-1.7,2.9-2.6,5.3-2.6,7.1c-0.1,1,0.2,1.9,0.6,2.7C294.6,98.5,295.2,98.9,296,98.9L296,98.9z"/>
			<path class="st4" d="M316.4,83.9c-0.6-0.4-1.2-0.8-1.7-1.4c-0.3-0.4-0.5-0.9-0.5-1.4c0.1-1.6,0.9-3,2.2-3.9
				c1.3-1.2,3.1-1.9,4.9-1.9c0.8,0,1.6,0.2,2.2,0.8c0.6,0.5,0.9,1.1,0.9,1.9c0,0.5-0.1,0.9-0.1,1.4c-0.1,0.6-0.3,1.2-0.5,2l4.2,1.2
				c0.3-0.5,0.6-1,1-1.4c0.5-0.5,1-1,1.6-1.4c0.3-0.1,0.7-0.2,1-0.3c0.2-0.1,0.4-0.1,0.7-0.1c1.1,0,2.1,0.4,3,1
				c0.8,0.4,1.4,1.3,1.5,2.2c0,0.6-0.2,1.3-0.6,1.8c-0.6,0.8-1.2,1.4-2,2c-2.4,3.9-4.4,8-5.9,12.3c-1.2,3.3-1.9,6.9-2,10.4
				c0,0.8,0.1,1.7,0.5,2.4c0.3,0.7,0.7,1,1.2,1c1.3,0,2.7-1,4.4-3c2.1-2.6,3.8-5.5,5.2-8.5c0.2-0.4,0.5-1,0.8-1.7
				c0.8-1.8,1.5-2.8,2.1-2.8c0.6,0,1.1,0.3,1.5,0.7c0.4,0.4,0.7,0.9,0.7,1.5c-0.1,1.1-0.5,2.2-1,3.1c-0.9,1.8-1.8,3.5-2.9,5.2
				c-2.7,4.1-4.9,6.9-6.6,8.4c-1.6,1.4-3.6,2.2-5.7,2.2c-2.1,0.1-4-0.7-5.5-2.2c-1.4-1.7-2.1-3.8-2-6c0.1-3,0.5-5.9,1.3-8.8
				c1-3.9,2.3-7.8,3.9-11.5l-3.4-1c-1.5,4.4-3.3,8.6-5.4,12.6c-1.5,2.5-2.8,3.8-4,3.8c-0.5,0-0.9-0.2-1.2-0.5
				c-0.3-0.4-0.5-0.9-0.5-1.4c0.2-0.7,0.5-1.4,0.9-2.1C313,95.4,314.9,89.8,316.4,83.9z"/>
			<path class="st4" d="M390,109.2c6.7-14,13.5-26.8,20.3-38.5c5.6-9.9,11.9-19.4,18.7-28.5c0.3-0.4,0.7-1,1.2-1.7
				c1.9-2.6,3.9-3.9,5.8-3.9c0.9,0,1.7,0.1,2.5,0.3c0.6,0.2,0.8,0.5,0.8,1c0,1.2-1.1,3.3-3.4,6.2c-1.6,2-2.8,3.7-3.6,5
				c-4.8,7.3-10.6,16.9-17.4,28.8s-13.8,24.7-20.9,38.5c-1.2,0.8-2.5,1.4-3.8,1.8c-1.6,0.5-3.3,0.7-4.9,0.7
				c-1.8,0.2-3.4-0.9-4.1-2.5c-0.7-1.7-1.1-5.6-1.1-11.9v-6.1c0-7.9,0.5-15.8,1.3-23.6c0.9-8.2,2.4-17.6,4.4-28.2
				c0.2-1.2,0.7-2.3,1.5-3.3c0.6-0.7,1.5-1.1,2.5-1.1c1.6,0.2,3,0.8,4.3,1.7c1.8,1.1,2.8,2.2,2.8,3.3c-0.3,1.9-0.7,3.8-1.2,5.6
				c-3.9,14.9-5.9,30.2-6,45.6c0,1.9,0,3.7,0.1,5.5C389.8,105.7,389.9,107.5,390,109.2z"/>
			<path class="st4" d="M423.7,117.9c-2.1,0-4.1-1-5.2-2.8c-1.4-2.3-2.1-4.9-1.9-7.5c0.1-4.3,0.7-8.6,1.8-12.8
				c1.2-4.8,2.5-8.1,3.7-9.8c0.6-0.8,1.4-1.5,2.3-1.8c1.1-0.5,2.3-0.7,3.6-0.7c0.6,0,1.2,0.1,1.8,0.5c0.4,0.4,0.7,0.9,0.6,1.5
				c-0.2,0.9-0.5,1.8-0.9,2.6l-0.8,2.4l-0.8,2.3c-3.5,9.5-5.2,15.5-5.2,17.9c-0.1,0.7,0.1,1.5,0.5,2.1c0.4,0.5,1,0.7,1.6,0.7
				c1.1,0,2.6-1,4.6-3.1c2.3-2.4,4.3-5.1,6-8c0.2-0.5,0.6-1.1,1-2c0.7-1.3,1.2-2,1.6-2c0.6,0,1.1,0.3,1.5,0.7c0.5,0.4,0.8,1,0.8,1.7
				c-0.6,1.4-1.3,2.8-2.2,4l-1.7,2.8c-1.7,3.2-3.9,6.1-6.5,8.6C428.3,116.9,426,117.8,423.7,117.9z M428.5,79.2
				c-1.1,0-2.2-0.3-3.1-1c-0.8-0.7-1.2-1.7-1.2-2.7c0-1.6,1-3,2.4-3.8c1.5-1,3.2-1.5,5-1.5c0.9-0.1,1.8,0.2,2.5,0.8
				c0.6,0.6,0.9,1.5,0.8,2.3c-0.1,1.6-0.8,3-2,4C431.8,78.5,430.2,79.2,428.5,79.2L428.5,79.2z"/>
			<path class="st4" d="M452,110.3c-1.5,3.3-3.5,6.3-6,8.9c-2.2,2.2-4.1,3.3-5.9,3.4c-2,0-3.6-1-5-3c-1.5-2.2-2.2-4.9-2.1-7.5
				c0.2-4.6,1.3-9.1,3.4-13.2c2.2-4.8,5.2-9.2,8.9-13c0.8-0.8,1.8-1.6,2.8-2.2c0.7-0.4,1.5-0.7,2.4-0.7c1.1,0,2.2,0.3,3.1,0.9
				c1.3,0.7,2.5,1.6,3.6,2.6c1.4-4.1,3.2-9.3,5.4-15.8c4.1-12,7-18,8.8-18c1.2-0.1,2.3,0.2,3.3,0.8c0.8,0.4,1.3,1.2,1.3,2.1
				c0,0.8-0.8,2.8-2.3,6c-1.1,2.3-1.9,4.1-2.5,5.5c-3.7,8.4-6.8,16.9-9.4,25.7c-2.4,8-3.5,13.7-3.5,17.2c0,0.6,0.1,1.3,0.3,1.9
				c0.2,0.4,0.6,0.7,1,0.6c0.7,0,1.5-0.6,2.6-1.7c1.7-1.9,3.2-4,4.5-6.2c0.5-0.8,0.9-1.6,1.3-2.4c0.7-1.3,1.2-1.9,1.7-1.9
				c0.3,0,0.6,0.1,0.9,0.3c0.2,0.2,0.4,0.5,0.4,0.8c-0.1,0.9-0.4,1.7-0.7,2.5c-0.5,1.2-1.2,2.6-2.2,4.5c-1.3,2.8-3,5.3-5.1,7.5
				c-1.3,1.4-3.1,2.2-5,2.3c-1.7,0.1-3.2-0.7-4.2-2.1C452.7,114.4,452,112.3,452,110.3z M456.3,89.5c-0.4-0.5-0.8-0.9-1.3-1.2
				c-0.4-0.2-0.8-0.4-1.3-0.4c-1,0-2.1,0.7-3.4,2c-1.8,2-3.3,4.1-4.7,6.3c-2,3-3.6,6.3-4.8,9.6c-1,2.7-1.6,5.6-1.8,8.5
				c0,0.7,0.2,1.4,0.6,1.9c0.3,0.5,0.8,0.8,1.4,0.8c1.8,0,4.1-2.6,7-7.7C451.5,103,454.2,96.4,456.3,89.5z"/>
			<path class="st4" d="M473.9,101.1c-0.3,1.1-0.5,2.1-0.6,3.2c-0.1,1.2-0.2,2.3-0.2,3.5c-0.1,1.8,0.3,3.6,1,5.3
				c0.5,1.1,1.6,1.8,2.8,1.8c2.3,0,5-1.4,8.1-4.3c3.3-3.1,6.1-6.8,8.2-10.9c0.2-0.4,0.5-0.9,0.9-1.7c0.8-1.7,1.5-2.5,1.9-2.5
				c0.5,0,1,0.3,1.3,0.7c0.4,0.5,0.6,1.1,0.6,1.7c-0.2,1.4-0.7,2.8-1.5,4c-1.1,2.1-2.4,4.1-3.9,6c-2.4,3.2-5.2,6.1-8.5,8.4
				c-2.5,1.7-5.4,2.5-8.4,2.5c-3.2,0-5.5-0.9-7.1-2.7s-2.4-4.6-2.4-8.2c0.1-4.7,1-9.4,2.7-13.8c1.7-5,4-9.8,7-14.2
				c0.8-1.2,1.8-2.2,2.9-3c0.9-0.6,2-1,3.1-1c0.5,0,1.1,0.1,1.6,0.3c0.6,0.3,1.3,0.6,1.8,1l2.2,0.6c2.5,0.7,3.7,2.1,3.7,4.4
				c0,5-1.5,10-4.3,14.1c-2.9,4.3-5.9,6.5-9,6.5c-0.7,0-1.3-0.2-1.9-0.5C475.1,102.1,474.4,101.6,473.9,101.1z M478.3,98.9
				c1.3,0,2.7-1.5,4-4.5c1.3-2.8,2-5.8,2-8.8c0-0.5-0.2-0.9-0.5-1.3c-0.2-0.4-0.6-0.6-1.1-0.6c-1.1,0-2.6,1.5-4.3,4.4
				c-1.7,2.9-2.6,5.3-2.6,7.1c-0.1,1,0.2,1.9,0.6,2.7C476.9,98.5,477.6,98.9,478.3,98.9z"/>
			<path class="st4" d="M509.5,85.2l0.3-0.1c0.7-0.1,1.3-0.2,2-0.2c1.8,0,3.5,1.1,4.3,2.7c1.2,2.2,1.8,4.7,1.7,7.2
				c2.4-0.8,4.5-2.3,6-4.4c1.8-2.2,3-3.4,3.5-3.4c0.5,0,1.1,0.1,1.5,0.5c0.4,0.3,0.6,0.8,0.5,1.3c0,0.7-0.2,1.4-0.5,2
				c-0.5,0.8-1.1,1.5-1.7,2.2c-1.3,2-2.9,3.8-4.8,5.3c-1.5,1.2-3.3,2.1-5.3,2.4c-1.8,6.4-4.1,11.2-7,14.6s-6.2,5-9.9,5
				c-2.5,0.1-4.9-0.9-6.7-2.7c-1.7-2.1-2.6-4.7-2.5-7.5c0.1-3.4,0.8-6.7,2-9.9c1.4-3.9,3.2-7.6,5.4-11.1c1-1.7,2.3-3.2,3.8-4.5
				c1-0.9,2.4-1.5,3.8-1.5c0.8,0,1.5,0.2,2.2,0.5C508.7,84,509.2,84.6,509.5,85.2z M498.2,110.8c-0.1,1,0.1,2,0.6,2.9
				c0.4,0.7,1.2,1,2,1c2.2,0,4.5-2.4,7-7.2c2.4-4.2,3.7-9,3.8-13.8c0.1-0.9-0.2-1.8-0.6-2.6c-0.3-0.6-1-0.9-1.7-0.9
				c-2,0-4.4,2.4-7.1,7.1C499.7,101.3,498.3,106,498.2,110.8L498.2,110.8z"/>
			<path class="st4" d="M530.7,117.9c-1.5,0.1-2.9-0.3-4.2-1c-1-0.6-1.5-1.7-1.5-2.9c0.1-2.4,1.2-4.6,3-6.1c2-1.9,3.9-2.8,5.7-2.8
				c1.1-0.1,2.1,0.4,2.7,1.3c0.7,1.1,1.1,2.4,1,3.7c0,2-0.7,3.9-2,5.5C534.3,117,532.5,117.9,530.7,117.9z M540,95.7
				c-0.1,1.8-0.4,3.1-1,3.7c-0.9,0.8-2,1.1-3.2,1c-0.9,0.1-1.7-0.1-2.5-0.5c-0.5-0.3-0.9-0.8-0.8-1.4c0-3.1,1.3-10,4-20.8
				c2.8-11.2,6.2-22.1,10.2-32.9l0.3-0.6c2.5-6.5,5.1-9.7,7.8-9.7c1.3,0,2.5,0.4,3.5,1.3c0.9,0.6,1.4,1.6,1.5,2.6
				c0,0.4-0.1,0.7-0.3,1.1c-0.3,0.7-0.7,1.3-1.2,1.9c-1.6,4.3-4,11.3-7.2,21.1C547.7,72.4,544,83.4,540,95.7L540,95.7z"/>
		</g>
		<g>
			<g>
				<path class="st5" d="M249,219.4c-16.8-11.1-29.7-18.5-29.7-42.2c0-15.1,8.2-29.3,29.2-31.9v-10.8h11.7v10.8
					c18.7,2.2,27.4,12,28,23.7c0.2,3.6,0.9,7.2,0.7,10.8h-19.9c0-9.3-1.4-15.1-9.4-17.3v34.1c17.8,9.1,31.9,21.9,32.1,39.6
					c0.3,23.7-8.7,35.3-31.4,38.6v18.7h-11.7v-18.2c-24-2.1-32.1-18.9-30.9-41.2h20.6c0.2,11.1-0.5,20.6,10.8,23.5V219.4z
					 M249,162.5c-6,0.9-9.1,6.5-9.1,12.9c0,8.6,4.5,12.9,9.1,17.8V162.5z M259.4,257.7c5.8-1.7,10.3-6.7,10.3-16.1
					c0-8.6-6-15.8-10.3-18.5V257.7z"/>
				<path class="st5" d="M376.1,222.9c0,41-11.7,52-37,52c-18.9,0-32.4-8.6-31.7-29h22.3c0.2,4.3,0.7,10.6,10.5,10.1
					c13.5,0,12.2-16.3,12.5-24v-8.2c-3.9,4.1-7.7,8.6-18.9,8.6c-20.4,0-29.2-13.9-29.2-40.3c0-32.2,7.9-48.9,35.7-48.9
					c28.6,0,36.2,18.7,35.8,48.9V222.9z M339.7,162c-12.5,0.2-11.1,11.8-11.1,28.3c0,9.3-1.2,23.2,11.7,23.2
					c11.8,0,11.8-12.5,11.8-23.2C352.2,174.3,352.6,160.8,339.7,162z"/>
				<path class="st5" d="M390.6,213.1l3.3-67.4h61.9v18.9h-43.4l-1.5,27.4c5.8-5.7,10.6-7.2,18.7-7.2c28.1,0,32.1,24,32.1,44.4
					c0,29.2-8.4,45.6-35.5,45.6c-29.2,0-36.9-13.4-36.7-43h22.5c0.3,9.3-1,23.5,12,24.2c14.2,0.9,13.4-14.2,13.7-26.9
					c0.9-20.6-5-25.4-13.7-25.4c-6,0-11.3,3.9-12,9.4H390.6z"/>
				<path class="st5" d="M477.1,180c0-27.3,13-36.9,34.8-36.9c21.6,0,34.6,9.6,34.6,36.9v57.8c0,27.3-13,37-34.8,37
					c-21.6,0-34.6-9.8-34.6-37V180z M501.1,237.8c-0.7,14.4,4.3,18.2,10.5,18.2c6.3,0,11.7-3.8,11-18.2V180c0.7-14.2-4.6-18-11-18
					c-6.2,0-11.1,3.8-10.5,18V237.8z"/>
			</g>
		</g>
		<g>
			<path class="st4" d="M84,203.2L75.7,251H68l8.3-47.8h-6.3l1.4-7.7h6.3l1.7-9.6c1.5-8.4,6.5-12.2,14-12.2c1.1,0,2.2,0.1,3.4,0.2
				l-1.5,8.4c-0.9-0.1-2.1-0.2-3.1-0.2c-3.3,0-4.9,2-5.7,6.5l-1.2,6.9H93l-1.4,7.7H84z"/>
			<path class="st4" d="M118.9,193.9c14.5,0,18.5,15,16,29.3s-11.7,29.3-26.3,29.3c-14.5,0-18.5-15-16-29.3S104.3,193.9,118.9,193.9
				z M110.1,244.4c11,0,15.6-13.8,16.9-21.2c1.3-7.4,1.4-21.2-9.5-21.2s-15.6,13.8-16.9,21.2S99.1,244.4,110.1,244.4z"/>
			<path class="st4" d="M147.5,251h-7.7l9.7-55.5h7.2l-1.6,9.2h0.2c4.2-6.5,8.9-10.8,14.7-10.8c1,0,1.4,0.1,1.9,0.3l-1.7,9.7h-2.9
				c-7.1,0-12.8,6.8-14.3,14.9L147.5,251z"/>
		</g>
	</g>
</g>
</svg>
