<svg xmlns="http://www.w3.org/2000/svg" xmlns:xlink="http://www.w3.org/1999/xlink" viewBox="0 0 560 560"><defs><style>.cls-1{fill:none;}.cls-2{fill:#58726f;}.cls-3,.cls-4{fill:#575761;}.cls-12,.cls-19,.cls-4{opacity:0.2;}.cls-5{fill:#f7f4f3;}.cls-6{clip-path:url(#clip-path);}.cls-7{fill:#f8ffff;opacity:0.4;}.cls-8{fill:#e2bba1;}.cls-9{fill:#ecc8af;}.cls-10{fill:#ffc776;}.cls-11{fill:#444;}.cls-13,.cls-19{fill:#626268;}.cls-14{fill:#648381;}.cls-15{fill:#dcfffd;}.cls-15,.cls-16{opacity:0.8;}.cls-16,.cls-23{fill:#fff;}.cls-17{opacity:0.46;}.cls-18{fill:#3a8585;}.cls-20{fill:#eabb9b;}.cls-21{fill:#e5eadf;}.cls-22{fill:#56c1be;}.cls-24{clip-path:url(#clip-path-2);}.cls-25{clip-path:url(#clip-path-3);}.cls-26{fill:#cacaaa;}</style><clipPath id="clip-path"><path class="cls-1" d="M274.19,323c0-8,.06-35,26.52-18.12,0,0,63.76,35.81,65.88,36.92,3.87,1.81,12.32,11.28-8.28,21L296,394.56S277,407.24,274.77,381C274.77,381,274.25,337.48,274.19,323Z"/></clipPath><clipPath id="clip-path-2"><path class="cls-1" d="M329.14,434.9a1.12,1.12,0,0,0,1.25,1c.85-.11,1.74-.24,2.66-.39,12.81-2.14,31.45-9.18,49.77-30.21a7.61,7.61,0,0,0,1.64-5.87,8.17,8.17,0,0,0-.83-2.75c-1.81-3.44-5.9-4.46-8.52-1.38-9.35,11-26,28.61-42.52,36.5q-1.15.55-2.3,1a1.85,1.85,0,0,0-1.14,1.47,2.28,2.28,0,0,0,0,.52Z"/></clipPath><clipPath id="clip-path-3"><path class="cls-1" d="M-1205.3,306.37h0a5.54,5.54,0,0,0,8.6.57l37.69-40.3a1.39,1.39,0,0,0-1.79-2.11l-43.36,33.6A6,6,0,0,0-1205.3,306.37Z"/></clipPath></defs><title>Benefit Icons_v4</title><g id="Improves_Presentation" data-name="Improves Presentation"><path class="cls-2" d="M534.38,477.49l-.3,0c-16.51-1.58-26.18-13.35-26.58-32.32-.88-8.61,5.45-21.56,14.17-39.41,12.62-25.82,29.91-61.19,24.79-88.82-2.89-15.59-8.49-26-16.65-31a22,22,0,0,0-16.16-2.63l-3-10A32.37,32.37,0,0,1,535.25,277c10.81,6.57,18,19.35,21.5,38,5.75,31-12.42,68.18-25.68,95.31-6.8,13.92-13.84,28.31-13.16,33.84l0,.56c.22,13.76,6,21.27,17.13,22.34l.53.05Z"/><rect class="cls-3" x="503.73" y="264.52" width="19.15" height="27.86" transform="translate(-3.52 6.58) rotate(-0.73)"/><rect class="cls-4" x="503.73" y="264.61" width="5.22" height="27.86" transform="translate(-3.5 6.45) rotate(-0.73)"/><rect class="cls-3" x="521.14" y="264.41" width="1.74" height="27.86" transform="translate(-3.49 6.65) rotate(-0.73)"/><path class="cls-5" d="M146.84,227.26H490.93a26.9,26.9,0,0,1,26.9,26.9V481.93a0,0,0,0,1,0,0H119.94a0,0,0,0,1,0,0V254.16a26.9,26.9,0,0,1,26.9-26.9Z" transform="matrix(1, 0, 0, 1, -0.42, 0.38)"/><rect class="cls-3" x="120.07" y="451.33" width="397.9" height="30.61" transform="matrix(1, 0, 0, 1, -0.55, 0.38)"/><path class="cls-5" d="M137.34,464.07c0-1.18,0-4.93,3.81-2.4l9.44,6.32s1.9,1.66-1.16,2.86l-9.11,3.64s-2.85,1.85-3.08-2C137.23,472.51,137.29,466.19,137.34,464.07Z"/><path class="cls-5" d="M165,473.42c0,1.3-.65,2.58-1.68,2.58h-.53c-1,0-1.86-1.28-1.87-2.58V462a2.11,2.11,0,0,1,1.86-2.32h.53c1,0,1.69,1,1.69,2.31Z"/><path class="cls-5" d="M171.09,473.41c0,1.3-.36,2.58-1.39,2.58h-.53a2.61,2.61,0,0,1-2.16-2.58V462a2.34,2.34,0,0,1,2.15-2.32h.53c1,0,1.4,1,1.4,2.31Z"/><path class="cls-5" d="M495.52,466.48c0,1.66-.41,3-2.19,3l-292.49.34a3.12,3.12,0,0,1-3.23-3v-.12a3.12,3.12,0,0,1,3.23-3l292.49-.34c1.78,0,2.2,1.34,2.2,3Z"/><circle class="cls-5" cx="205.57" cy="466.65" r="9.07" transform="translate(-0.55 0.24) rotate(-0.07)"/><circle class="cls-3" cx="205.69" cy="466.52" r="5.12" transform="translate(-0.55 0.24) rotate(-0.07)"/><path class="cls-3" d="M274.19,323c0-8,.06-35,26.52-18.12,0,0,63.76,35.81,65.88,36.92,3.87,1.81,12.54,12.38-8.28,21L296,394.56S277,407.24,274.77,381C274.77,381,274.25,337.48,274.19,323Z"/><g class="cls-6"><path class="cls-7" d="M267.82,355c.07,6.55,2.27,12.82,2.32,17.78l75.05-49-18-8.35Z"/><path class="cls-7" d="M349.59,328.54,272,379.67c0,.85,0,1.33,0,1.33a41.23,41.23,0,0,0,.67,4.76L355,331.88Z"/></g><path class="cls-8" d="M71.34,401c-18.93,36.38-60.75,31.29-60.75,31.29-2.94-.28-2.16-3.1.09-3.2,25.79,4.57,51.22-35.79,51.22-35.79Z"/><path class="cls-9" d="M79.74,384s7.25,24.66,3.41,82.23c-.13,1.84-1.9,1.9-2.09.07-1.85-17.77-5.74-50.4-10.5-62.69-4.44-9.7-6.61-9.68-7.47-21.59Z"/><path class="cls-10" d="M87.82,386.09s4.26,6,1,31.92c0,0-25.75,2.48-45.56-11.61,0,0,10-9.83,14.67-27.73Z"/><path class="cls-8" d="M82,333.26h0c-2.17,2.05-1.45,4.55,1.52,5.27,0,0,13.8,7.17,22.88,9.18s22,1.93,22,1.93c1.43.34,1-1.81-.27-2.31,0,0-13.82-2.91-22-6.14s-16.3-9.55-16.3-9.55A8.16,8.16,0,0,0,82,333.26Z"/><path class="cls-8" d="M84.9,323s.42,1.75-1,5.68l3.39,1.42a17.58,17.58,0,0,0,1.12-6.49Z"/><path class="cls-9" d="M79.42,319.78c.17.37.35.72.54,1.06h0c1,1.28,2.93,3.48,3.13,3.7l0,0A5.74,5.74,0,0,0,88,325.9a3.71,3.71,0,0,0,.93-.37c3-1.66,3.61-6.92,1.38-11.76a11.67,11.67,0,0,0-2.35-3.46c-2-2-4.35-2.33-6.45-1.17C78.49,310.79,77.18,314.94,79.42,319.78Z"/><path class="cls-3" d="M90.28,334.39c-2.1-4.81-8.21-6.65-8.21-6.65-2.42-.64-4.88-.46-7,6.71a129.54,129.54,0,0,1-6.3,19.92c-3.11,7.78-7.24,14.23-10.95,24.65,5.91,4.13,20.17,9,30,7.07-2.42-6.23-4.53-12.77.09-26C93.62,346.81,93,338.93,90.28,334.39Z"/><path class="cls-11" d="M86.65,311.91a13,13,0,0,1-.22,5.4,2.08,2.08,0,0,0,.05,1.12,26.38,26.38,0,0,1,1.39,6.94,1.83,1.83,0,0,1-1,1.79c-2.13.89-7,2.46-9.86-.41a1.77,1.77,0,0,1-.46-1.09c-.24-2.69-1-12.91,1.54-15.66,0,0,4-4.57,7.61-1.93a2.51,2.51,0,0,1,1,2.89A1.89,1.89,0,0,0,86.65,311.91Z"/><path class="cls-2" d="M94,473l-7.87-6.87c.39-.45,39.34-45.84,33.12-94.2-1.77-13.77-5.93-25.12-10.33-37.14-5.67-15.49-11.53-31.5-12.58-53.63l10.44-.49c1,20.53,6.55,35.78,11.95,50.53,4.41,12,9,24.47,10.88,39.4C136.43,423.68,95.73,471,94,473Z"/><path class="cls-9" d="M82.4,338.46h0a5.32,5.32,0,0,0,8.5-2.31s12.52-10,17.37-22.83,1.18-22.16,1.18-22.16c-1.19-1.68-1.4-1.53-2.3,0,0,0,0,12.13-5.07,21S80.4,329.26,80.4,329.26A7.35,7.35,0,0,0,82.4,338.46Z"/><g class="cls-12"><ellipse class="cls-13" cx="513.52" cy="487.17" rx="37" ry="3.73"/></g><g class="cls-12"><ellipse class="cls-13" cx="88.44" cy="492.2" rx="56.37" ry="3.73"/></g><rect class="cls-3" x="93.43" y="256.16" width="22.49" height="33.08" transform="matrix(0.28, -0.96, 0.96, 0.28, -186.48, 296.25)"/><path class="cls-3" d="M118.13,284.82a91.5,91.5,0,0,1-15.93-2.7A110.27,110.27,0,0,1,85.95,277l6.34-21.58L124,264.73Z"/><path class="cls-4" d="M520.27,465.56l-1.6-2.22a31.9,31.9,0,0,0,5.77,1.45c2.93.41,17,.77,17,.77"/><path class="cls-4" d="M504.05,476.2s21,.09,30.14-1.33,9.29-3.48,9.29-3.48.13,2.72-.6,4c-.36,1.15-1,1-1,1"/><path class="cls-14" d="M139.8,490.78c-29.31,0-49.53-3-50.52-3.13l1.55-10.33A388.83,388.83,0,0,0,155,480.06c14.61-.53,21.57-18.38,28.95-37.27,9.69-24.82,20.68-53,52.62-47.63l-1.72,10.3c-22-3.66-30.23,13.09-41.17,41.12-8.28,21.2-16.83,43.13-38.3,43.91C150,490.7,144.75,490.78,139.8,490.78Z"/><path class="cls-2" d="M500.48,486.93c-47.31,0-58.32-15.55-69-30.61a87.58,87.58,0,0,0-10.29-12.75C404.19,427,366.71,422,366.33,422l1.32-10.36c1.68.21,41.32,5.43,60.84,24.45A97.09,97.09,0,0,1,440,450.28c10.43,14.72,19.44,27.44,66.73,26.11l.29,10.44Q503.65,486.93,500.48,486.93Z"/><path class="cls-15" d="M261.86,285.71c-23.64-13.42-30.92-37.17-33-53.42,24.71-21.83,40.52-52.57,41.28-86.65C271.6,79.51,216,25.94,145.86,26S17.71,79.71,16.23,145.85,70.37,265.56,140.48,265.5a134.57,134.57,0,0,0,56.77-12.56C220.31,281.46,297.5,305.94,261.86,285.71Z"/><path class="cls-16" d="M114.24,249.1S53.8,233.68,37.07,177.94,59.13,75.21,59.13,75.21s-20.6,44.07-3.48,98.08S114.24,249.1,114.24,249.1Z"/><path class="cls-16" d="M158.17,47.07c10.9-10.42,49.69,7,61.92,23.73s11.53,38.28,6.64,44.59S147.28,57.49,158.17,47.07Z"/><g class="cls-17"><polygon class="cls-18" points="107.98 136.84 86.16 142.82 105.72 214.19 105.95 215.02 127.78 209.04 108.21 137.68 107.98 136.84"/><path class="cls-18" d="M201.45,165.33a10.44,10.44,0,0,0-.28-19.77,10.44,10.44,0,0,0-6-20l-1.15.32a10.45,10.45,0,0,0-10.63-16.95l-35.88,9.84c4.19-38.16-12.76-43.21-14.87-43.68A4.34,4.34,0,0,0,132,75a8.66,8.66,0,0,0-11.34,9.39l2.38,18-12.69,35.08,1.14.16-1.34.37,17.72,64.65.23.84,15.11-4.14h0l4.46-1.22,7.3-2h0l43.66-12a10.43,10.43,0,0,0,2.85-18.87Z"/></g><path class="cls-14" d="M45.22,495.93H127c1.68,0,3-2.08,3-4.65v-1.52c0-2.57-1.36-4.66-3-4.66H45.22c-1.68,0-3,2.08-3,4.66v1.52C42.18,493.85,43.54,495.93,45.22,495.93Z"/><path class="cls-14" d="M47.39,485.28h77.19c1.68,0,3-2.08,3-4.65v-1.52c0-2.57-1.36-4.65-3-4.65H47.39c-1.68,0-3,2.08-3,4.65v1.52C44.35,483.2,45.71,485.28,47.39,485.28Z"/><path class="cls-14" d="M50.58,475h70.8c1.68,0,3-2.08,3-4.65v-1.52c0-2.57-1.36-4.66-3-4.66H50.58c-1.68,0-3,2.08-3,4.66v1.52C47.54,472.91,48.9,475,50.58,475Z"/><path class="cls-19" d="M121.39,483.38c6.09-1.2,6.23-3.52,6.23-3.52a7.8,7.8,0,0,1-.65,3.64c-.82,1.59-1.6,1.61-1.6,1.61H46.59S115.29,484.58,121.39,483.38Z"/><path class="cls-19" d="M118.36,472.78c6.13-1.2,6.06-3.58,6.06-3.58a6.21,6.21,0,0,1-.45,3.54c-.82,1.59-1.17,1.71-1.17,1.71l-73.64-.32S112.23,474,118.36,472.78Z"/><path class="cls-9" d="M298.4,401.91a157,157,0,0,1-29.28-26l-5.41-6.31-.35-.42a5,5,0,0,0-2-1.12l-.05,0c-.13,0-.27-.08-.4-.11a3.6,3.6,0,0,0-2.18.17,3.41,3.41,0,0,0-1,.59l-.15.11,0,.07c-.08.07-.16.13-.23.22a2.39,2.39,0,0,0-.48,1.35l-.06.75a3.39,3.39,0,0,0,0,.55c0,.09,0,.2,0,.32v.05c0,.16.07.35.11.54a9,9,0,0,0,.62,1.9,8.21,8.21,0,0,0,.77,1.47l.15.21a29.12,29.12,0,0,0,6.37,6.9h0c10.76,9.77,28.57,20.43,33.16,20.73h0s1.09.09.92-.88A2,2,0,0,0,298.4,401.91Z"/><path class="cls-20" d="M257.6,359.16a24.07,24.07,0,0,1-2.6,7.58l4.14,1.8a18.16,18.16,0,0,0,2.63-7.27Z"/><path class="cls-9" d="M256,351.07c-1.61,5.75.47,11.48,4.67,12.81s8.9-2.26,10.51-8-.47-11.48-4.66-12.8S257.57,345.32,256,351.07Z"/><path class="cls-11" d="M260.76,349.77s-.44,3.69-2.63,5.2c0,0-1.45-1.39-2-.35,0,0-1.06,2.08.65,2.94l-.24,2.71-1.78-4.38-1.26-4.56s-1-5.08,2.06-5.48c0,0,7.28-8.72,15.43.63,0,0,2.06,3,.7,4.27C271.72,350.75,269.83,353.06,260.76,349.77Z"/><path class="cls-11" d="M231.36,415.12s1.71,26.8-22.84,80.63c-.44,1.56,1.25,3.74,2.75,1,14.83-14.34,35.38-64.18,35.38-64.18s5.41,54,1.13,66.59c.58,1.49,2.24.32,2.24.32C258.53,483.93,263,417.3,263,417.3Z"/><rect class="cls-21" x="273.92" y="397.09" width="26.12" height="22.64" transform="translate(-163.17 624.09) rotate(-80.51)"/><path class="cls-3" d="M257,365.84h0c-4.63-1.23-9.33.85-10.92,4.84-4.74,18.75-11.11,35-19.28,48.42L262,428l7.83-44.27C271.17,376,265.6,368.11,257,365.84Z"/><rect class="cls-18" x="233.05" y="378.63" width="42.11" height="47.37" transform="translate(-183.1 590.14) rotate(-80.97)"/><path class="cls-9" d="M259.88,420.27C256.35,417.75,251,415,244,401.55c-4.24-9.74,1.62-29.89,2.14-30.83a3.85,3.85,0,0,1,.37-.55l.57-.7a2.89,2.89,0,0,1,1.45-1c2.65-.69,5.67,1.18,6.57,4.26-2.43,12.12-6.76,17.4-5.45,25.35,2.29,7.74,5.55,14.69,12.62,19.81C263.21,421,259.88,420.27,259.88,420.27Z"/><rect class="cls-3" x="283.5" y="401.44" width="5.22" height="3.48" transform="translate(-160.04 616.18) rotate(-80.16)"/><rect class="cls-3" x="282.17" y="411.96" width="5.26" height="3.51" transform="translate(-171.5 623.63) rotate(-80.16)"/><path class="cls-19" d="M255.59,496a69.56,69.56,0,0,0-8.87.5c-6.47-.37-15.06-.5-18.95-.5-1.17,0-2.31,0-3.38.1a97.11,97.11,0,0,0-13-.76c-9.91,0-17.95,1.1-17.95,2.44s8,2.44,17.95,2.44c2.56,0,5-.07,7.2-.21a42,42,0,0,0,9.18.87c4.28,0,12.49.66,19.05-.24,2,.18,6.19-1.13,8.77-1.13,7,0,12.7-.79,12.7-1.76S262.61,496,255.59,496Z"/><path class="cls-19" d="M443.36,497.89c0-1.86-14.21-3.36-31.72-3.36-14.21,0-26.25,1-30.28,2.37-1.88-.08-3.92-.12-6.07-.12-7.28,0-13.46.48-15.66,1.14l-2.84,0c-10.59,0-19.16,1-19.16,2.24s8.58,2.24,19.16,2.24,19.16-1,19.16-2.24c3.55,0,6.81-.15,9.43-.35a191.65,191.65,0,0,0,26.25,1.47C429.15,501.26,443.36,499.75,443.36,497.89Z"/><rect class="cls-18" x="327.7" y="390.84" width="42.22" height="47.01" transform="translate(-112.62 697.94) rotate(-81.48)"/><polygon class="cls-22" points="367 416.81 348.06 413.93 348.85 408.76 344.35 408.08 344.7 405.75 341.13 405.21 340.87 406.94 340.86 406.94 340.35 410.35 343.92 410.89 344.09 409.8 346.86 410.22 346.34 413.66 335.41 412 335.89 408.86 330.14 411.09 334.97 414.92 335.15 413.72 366.73 418.53 367 416.81"/><path class="cls-22" d="M350.46,421.34l-4.72-.72a2.23,2.23,0,0,0-.25-.54,2.1,2.1,0,0,0-1.38-.85,2.19,2.19,0,0,0-2.48,1.92,2.22,2.22,0,0,0,1.8,2.57l.32,0a2.12,2.12,0,0,0,1.25-.41,2.28,2.28,0,0,0,.7-1l5.37.82h.13a.87.87,0,0,0,.86-.74l.92-6-1.72-.26Z"/><path class="cls-11" d="M382.54,445.52s-44.91,8.75-40,30.35l9.11,21.64a1.17,1.17,0,0,1-1.49,1.78c-11.31-6.85-24.56-28.61-21.45-41.47,4.38-18.15,41.62-22.62,41.62-22.62Z"/><path class="cls-11" d="M354.14,446.78c20.17,15.26,47.35,38.57,76.43,51a1.3,1.3,0,0,0,1.19-2.29c-22.93-17.06-42.52-41.94-55-56.64a1.23,1.23,0,0,0-1.28-.4l-21,6A1.33,1.33,0,0,0,354.14,446.78Z"/><path class="cls-9" d="M381.7,387.48a11.51,11.51,0,0,0-.7,4.3l-3.21-1.11a19.33,19.33,0,0,1,.89-4.36c-3.12-1.38-4.54-5.58-2.87-10.82,1.73-5.45,5.3-9.44,9.11-8.61s5.88,7,4.65,12.63C385,385.37,383.79,387.2,381.7,387.48Z"/><path class="cls-11" d="M385.18,375.62s-1,2.94,1.56,3.75c0,0,2.79-.53.89,2.15a1.09,1.09,0,0,1-1.28.53s-2,1.71-1.67,3.21,5.74-4.27,6.54-7.75c0,0,1.86-4.55.55-5.9,0,0,2.92-5.62-6.33-6.18,0,0-8-1.09-8.63-2.7,0,0-.25,6.61.81,8.26a6.35,6.35,0,0,1,1.45-1S385.54,371.07,385.18,375.62Z"/><path class="cls-23" d="M382.85,444.11c-11.39,3.84-25.41-1-29.23-6.76-.61-11.53,7.23-27.13,17.39-43.84a6.27,6.27,0,0,1,8.15-3.49l5.12,2.31c6.87,3.6,6.6,6.84,5.92,9.82C384.22,416.48,381.46,435.36,382.85,444.11Z"/><path class="cls-10" d="M329.14,434.9a1.12,1.12,0,0,0,1.25,1c.85-.11,1.74-.24,2.66-.39,12.81-2.14,31.45-9.18,49.77-30.21a7.61,7.61,0,0,0,1.64-5.87,8.17,8.17,0,0,0-.83-2.75c-1.81-3.44-5.9-4.46-8.52-1.38-9.35,11-26,28.61-42.52,36.5q-1.15.55-2.3,1a1.85,1.85,0,0,0-1.14,1.47,2.28,2.28,0,0,0,0,.52Z"/><g class="cls-24"><polygon class="cls-9" points="352.52 395.16 387.9 440.2 302.6 494.96 278.94 455.33 352.52 395.16"/></g><path class="cls-14" d="M497.66,487.22h47.57c1,0,1.77-2.08,1.77-4.65V481c0-2.57-.79-4.66-1.77-4.66H497.66c-1,0-1.77,2.08-1.77,4.66v1.52C495.89,485.13,496.68,487.22,497.66,487.22Z"/><path class="cls-14" d="M499.78,476.39h42.13c.86,0,1.57-2.08,1.57-4.65v-1.52c0-2.57-.7-4.66-1.57-4.66H499.78c-.87,0-1.57,2.08-1.57,4.66v1.52C498.21,474.3,498.91,476.39,499.78,476.39Z"/><path class="cls-14" d="M501.11,481.61h39.34c.81,0,1.46-2.08,1.46-4.65v-1.52c0-2.57-.66-4.66-1.46-4.66H501.11c-.81,0-1.46,2.08-1.46,4.66V477C499.65,479.53,500.3,481.61,501.11,481.61Z"/><g class="cls-25"><path class="cls-9" d="M393.25,270h0a5.92,5.92,0,0,1-9,.57L345,230.24a1.41,1.41,0,0,1,1.86-2.11l45.18,33.6A5.87,5.87,0,0,1,393.25,270Z"/><path class="cls-26" d="M384.83,255s-5.13.85-7.7,9.37l9.41,8.52,7.7-.85.86-7.67-4.28-4.26Z"/></g></g></svg>