<svg xmlns="http://www.w3.org/2000/svg" xmlns:xlink="http://www.w3.org/1999/xlink" viewBox="0 0 560 560"><defs><style>.cls-1{fill:none;}.cls-2{fill:#ecc8af;}.cls-3{fill:#edccb7;}.cls-4{opacity:0.5;}.cls-5{fill:#c5f4ff;}.cls-6{fill:#3a8585;}.cls-7{fill:#5accc9;}.cls-8{fill:#070707;}.cls-9{fill:#383838;}.cls-10{fill:#444;}.cls-11{fill:#e4fde1;}.cls-12{fill:#ffc776;}.cls-13{fill:#f2f2f2;}.cls-14{fill:#575761;}.cls-15{font-size:32.1px;font-family:MyriadPro-Regular, Myriad Pro;}.cls-15,.cls-26{fill:#8a8a99;}.cls-16{letter-spacing:0.01em;}.cls-17{letter-spacing:0em;}.cls-18{letter-spacing:-0.01em;}.cls-19{clip-path:url(#clip-path);}.cls-20{fill:#dbaa6a;}.cls-21,.cls-29{fill:#f7f4f3;}.cls-22{clip-path:url(#clip-path-2);}.cls-23{fill:#333;}.cls-24{clip-path:url(#clip-path-3);}.cls-25{clip-path:url(#clip-path-5);}.cls-27{fill:#ffb95c;}.cls-28{fill:#fff;opacity:0.19;}.cls-29{opacity:0.53;}.cls-30{clip-path:url(#clip-path-6);}.cls-31{fill:#4c4c54;}.cls-32{fill:#bababa;opacity:0.31;}</style><clipPath id="clip-path"><path class="cls-1" d="M95.26,443.85a1.08,1.08,0,0,1,1.82.64l1,7.5a.56.56,0,0,1-.14.7c-7.19,5.76-20.85,10.07-36.64,13.91a.57.57,0,0,1-.38-1.06C74.62,458.87,88.39,450.55,95.26,443.85Z"/></clipPath><clipPath id="clip-path-2"><path class="cls-2" d="M104,443.13c.36,4.89,1.67,8.13,4.24,9.23a.76.76,0,0,0,.84-.18,164.56,164.56,0,0,0,30.47-44,.76.76,0,0,0-1.29-.77c-12.92,16.88-26.36,31-33.85,35A.76.76,0,0,0,104,443.13Z"/></clipPath><clipPath id="clip-path-3"><path class="cls-1" d="M427,537.62c1.46,9.4,3.21,14.32,4.22,9.14a13.25,13.25,0,0,0,.05-2.36q0-2.89.15-5.64c.73-17.65,3.82-30.61,8.16-38.6,4.94,12.13,13.64,28.05,20.68,40.26,2.08,3.62,4,6.91,5.68,9.68.92,1.55,3,.11,2.29-1.64a73.72,73.72,0,0,1-3-9.16c-4.69-18.17-6.75-55.43-6.76-55.59-.72-9.51,2-23.46,7.07-40.3.81-2.71-.93-5.54-3.49-5.67l-17.62-.86h0c-7.52,3.53-17.92,42.67-19.32,52.82C423,504.74,425,525.16,427,537.62Z"/></clipPath><clipPath id="clip-path-5"><circle class="cls-1" cx="221.75" cy="346.65" r="98.91" transform="translate(-28.43 19.93) rotate(-4.84)"/></clipPath><clipPath id="clip-path-6"><path class="cls-1" d="M474.06,465.23l-100.54-51a19.18,19.18,0,0,0-20.14,1.38c.08.33.14.67.2,1,2.59,7.52-.71,17.31-10.06,18.87a19.21,19.21,0,0,0,10.79,16.66l100.54,51c9.39,4.76,20.55,1.58,24.95-7.08l3.31-6.54C487.49,480.87,483.44,470,474.06,465.23Z"/></clipPath></defs><title>Benefit Icons_v4</title><g id="Enhances_SEO" data-name="Enhances SEO"><path class="cls-3" d="M442,27.27c-9.57,6.55-22.12,6.41-38.52,2.44-1.63-.4-2.57,2-1,2.65,15.3,6.36,19.91,8.59,41,3,2-.28,4.3-1.53,4.7-2.84,2.17-4.77-1.17-6.35-3.75-6A8,8,0,0,0,442,27.27Z"/><g class="cls-4"><path class="cls-5" d="M435.89,399.52a439.59,439.59,0,0,1-80,18.57,313.43,313.43,0,0,1-27.5,61,244.84,244.84,0,0,1-13.81,20.8q18.84-1,37.09-3.23C387.1,474.6,416.42,440.72,435.89,399.52Z"/><path class="cls-5" d="M521.06,223c-12.57,15.69-31,30.08-54.76,42.42.29,5.28.45,10.59.45,16a282.86,282.86,0,0,1-21.62,109.33c27.35-10.12,51.91-22.8,72.77-37.48A286,286,0,0,0,521.06,223Z"/><path class="cls-5" d="M506.38,367a341.27,341.27,0,0,1-64.13,30.31c-18.32,40.6-45.94,74.54-79.51,97.89a480.79,480.79,0,0,0,68.12-14.91,243.64,243.64,0,0,0,69.94-80.2A265.55,265.55,0,0,0,515.72,361C512.68,363,509.57,365.05,506.38,367Z"/><path class="cls-5" d="M352.65,501.8a190.78,190.78,0,0,1-51.27,22,94.43,94.43,0,0,0,22.16.81c34.76-4.94,65.5-17,93.88-35.06A494.92,494.92,0,0,1,352.65,501.8Z"/><path class="cls-5" d="M294.88,523.24c14.83-3.68,32.22-12.86,45.7-20.08q-14.88,1.47-30.06,2.11C306.48,510.38,299.16,518.79,294.88,523.24Z"/><path class="cls-5" d="M235.78,503.3c13.4,7.15,29.72,15.58,44.45,19.24-4.27-4.43-10.59-12.13-14.62-17.23Q250.56,504.71,235.78,503.3Z"/><path class="cls-5" d="M274.71,523.76a190.72,190.72,0,0,1-51-21.77,495.47,495.47,0,0,1-66.27-12.48,241,241,0,0,0,95.38,35.28C266.39,525.81,268.37,524.46,274.71,523.76Z"/><path class="cls-5" d="M134.08,397.84A342.17,342.17,0,0,1,68.5,367c-2.67-1.64-5.27-3.31-7.83-5a262.25,262.25,0,0,0,23.1,54.41A243.81,243.81,0,0,0,144,480.3a481.36,481.36,0,0,0,69.64,15.13C180.1,472.17,152.46,438.33,134.08,397.84Z"/><path class="cls-5" d="M247.67,479.12a313.33,313.33,0,0,1-27.45-60.86A441.08,441.08,0,0,1,140.43,400c19.53,41.1,48.87,74.87,84.27,96.87q18.11,2.17,36.83,3.09A244.74,244.74,0,0,1,247.67,479.12Z"/><path class="cls-5" d="M109.35,281.39c0-5.15.15-10.27.42-15.35l-.67-.34c-23.39-12.09-41.67-26.17-54.31-41.52a286,286,0,0,0,3.68,130.08c20.91,14.5,45.44,27,72.72,37A282.78,282.78,0,0,1,109.35,281.39Z"/><path class="cls-5" d="M199.25,282.55a449.9,449.9,0,0,1,11-99.92c-24.69-3.58-47.38-8.89-66.84-15.76-1.42-.5-2.8-1-4.17-1.52a274.59,274.59,0,0,0-24.4,97.51c24,11.94,52.71,21.41,84.53,27.63Q199.26,286.52,199.25,282.55Z"/><path class="cls-5" d="M284.86,114.29a424.32,424.32,0,0,1-45.59-2.7A350.93,350.93,0,0,0,216,178.22a540.51,540.51,0,0,0,68.85,4.58Z"/><path class="cls-5" d="M182.61,93.54c20.44-20.78,44.3-37,70.44-47.43q-9.27.71-17.75,1.78a241,241,0,0,0-71.14,28,7.51,7.51,0,0,0-.11,1.08C164.05,82.65,170.66,88.45,182.61,93.54Z"/><path class="cls-5" d="M297.56,45a220.41,220.41,0,0,1,30.86,41q5.76,9.69,10.88,20.15c20.16-2.5,36.81-6.38,49-11-23.63-23.47-51.76-40.81-82.64-49.94Q301.61,45.08,297.56,45Z"/><path class="cls-5" d="M211.41,177.6A354.08,354.08,0,0,1,234.46,111c-19.65-2.53-37.39-6.46-50.74-11.63a241.76,241.76,0,0,0-42.3,61.3q1.81.67,3.67,1.33C164.36,168.82,186.88,174.07,211.41,177.6Z"/><path class="cls-5" d="M284.86,188a545,545,0,0,1-70-4.7,443.65,443.65,0,0,0-11,99.29c0,2.95,0,5.88.09,8.81a463,463,0,0,0,81,7.4Z"/><path class="cls-5" d="M361.23,183.1A543.85,543.85,0,0,1,290,188v110.8a462.45,462.45,0,0,0,82.17-7.62c.05-2.85.09-5.72.09-8.59A443.59,443.59,0,0,0,361.23,183.1Z"/><path class="cls-5" d="M284.86,521.37V505.74q-6.6,0-13.17-.22C275.94,510.67,280.33,516.93,284.86,521.37Z"/><path class="cls-5" d="M341.56,110.86a353.85,353.85,0,0,1,23.09,66.58c24.07-3.53,46.18-8.72,65.14-15.43,1.6-.56,3.16-1.14,4.69-1.72A241.55,241.55,0,0,0,392,99C378.85,104.27,361.18,108.27,341.56,110.86Z"/><path class="cls-5" d="M290,522.54c5-4.77,9.77-11.43,14.4-17q-7.17.22-14.4.25Z"/><path class="cls-5" d="M247.67,86a220.38,220.38,0,0,1,30.88-41q-4,.07-7.92.21c-31.08,9.15-59.38,26.63-83.12,50.31,12.29,4.52,29,8.34,49.21,10.78Q241.87,95.75,247.67,86Z"/><path class="cls-5" d="M290,44.9v64.23a428.44,428.44,0,0,0,44.42-2.44C322.23,82,307.51,61.06,291,44.91Z"/><path class="cls-5" d="M284.86,45.18c-16.48,16.15-31.12,37.07-43.28,61.63a430.51,430.51,0,0,0,43.28,2.31Z"/><path class="cls-5" d="M225.32,418.92c10.75,31.6,25.13,59.24,42.16,81.3q8.64.32,17.38.36V422.72A502.41,502.41,0,0,1,225.32,418.92Z"/><path class="cls-5" d="M110.11,260.46a279.11,279.11,0,0,1,24.57-96.87c-18.23-7.28-32-15.72-40.83-24.89A242.22,242.22,0,0,0,64,190.3a272.45,272.45,0,0,0-7.82,27.37C68.44,233.78,86.91,248.3,110.11,260.46Z"/><path class="cls-5" d="M415.81,79c-1.14,6.92-8.1,13-19,18A247,247,0,0,1,439,158.52c17.47-7.08,30.65-15.28,38.8-24A243.77,243.77,0,0,0,415.81,79Z"/><path class="cls-5" d="M431.51,166.87c-19.15,6.77-41.43,12-65.66,15.6a449.83,449.83,0,0,1,11,100.08q0,3.86-.07,7.7c31.85-6.32,60.54-15.91,84.48-28A274.44,274.44,0,0,0,436.7,165C435,165.6,433.28,166.24,431.51,166.87Z"/><path class="cls-5" d="M461.56,267.84c-24.82,12.26-53.64,21.61-84.9,27.72-1.13,41.41-7.63,81.18-18.94,117A433.07,433.07,0,0,0,438.89,393a277.53,277.53,0,0,0,23-111.58Q461.88,274.57,461.56,267.84Z"/><path class="cls-5" d="M199.44,295.78c-31.24-6-60.06-15.24-84.94-27.38q-.29,6.45-.29,13a277.45,277.45,0,0,0,23.22,112.07,434.34,434.34,0,0,0,81,19.32C207.11,376.94,200.59,337.18,199.44,295.78Z"/><path class="cls-5" d="M136.89,158.92a247.28,247.28,0,0,1,42-61.55c-11.4-5.11-18.69-11.28-19.86-18.37a243.77,243.77,0,0,0-62,55.52C105.39,143.41,118.92,151.75,136.89,158.92Z"/><path class="cls-5" d="M393.11,93.18c11.41-5,17.71-10.67,17.71-16.19a7.49,7.49,0,0,0-.11-1.08,241,241,0,0,0-71.14-28q-7.78-1-16.24-1.66C349.21,56.58,372.83,72.66,393.11,93.18Z"/><path class="cls-5" d="M284.86,303.91A469.44,469.44,0,0,1,204,296.64c1.27,42.13,8.18,81.78,19.49,116.82a493,493,0,0,0,61.35,4.11Z"/><path class="cls-5" d="M441.22,163.18a279,279,0,0,1,24.71,96.67c23.24-12.35,41.65-27.09,53.66-43.43q-1.13-4.8-2.42-9.52A241.86,241.86,0,0,0,481,138.7C472.37,147.7,458.94,156,441.22,163.18Z"/><path class="cls-5" d="M290,500.59q9.38,0,18.63-.42c17-22.1,31.42-49.77,42.17-81.42a502,502,0,0,1-60.8,4Z"/><path class="cls-5" d="M290,303.91V417.57a492.66,492.66,0,0,0,62.61-4.28c11.29-35.06,18.19-74.72,19.44-116.86A468.84,468.84,0,0,1,290,303.91Z"/><path class="cls-5" d="M290,114.29V182.8a539.34,539.34,0,0,0,70-4.74,350.7,350.7,0,0,0-23.29-66.61A423.37,423.37,0,0,1,290,114.29Z"/></g><path class="cls-6" d="M214.34,300.24s-22.74-67.68,10.24-71.94c0,0-18,11.59,15.82,61.68Z"/><path class="cls-2" d="M428.05,53.31S444.3,63.29,446.5,82s-1.23,23.07-1.23,23.07-1.82,2.34-2.68-.1,1.59-32.74-21.38-42.64C421.21,62.32,416.2,49.19,428.05,53.31Z"/><path class="cls-6" d="M307.89,250.52s3.91-.81-7.21-16.11L270,193.72s-11.4-23.81,6.73-26.88a39,39,0,0,0,2.89,19.28c4.31,10.22,9.14,15,12,19S311.76,231,311.76,231s14.12,19.61,5.09,20.36S307.89,250.52,307.89,250.52Z"/><path class="cls-7" d="M213.9,232.67a18.44,18.44,0,0,1,16.88-3.3l18.77,6.39,46.22,18.09s19.76,4.46,23.62-4c0,0-3.27,1.83-13.15-.2-6.79-1.39-34.85-13.44-52.83-20-8.19-3-12.46-5-13.93-5.15S226.79,221.84,213.9,232.67Z"/><path class="cls-6" d="M395.32,194s10.13-.42-40-48.2c0,0-45.56-42.31-24-68.38,0,0,25.12-35.13,92.13-55.08l3.65,8.2s-62.26,20.86-84.62,53.57c0,0-16.71,13.32,16.42,48.8l33.38,35.56s25.84,23.17,12,30.62Z"/><path class="cls-7" d="M267,174.9s1.1-10,19-9.09a179.75,179.75,0,0,1,29.5,5.11c19.61,5.13,43.38,13.92,52.33,16.36,16.21,4.43,25.8,9.05,40.42,5.49,0,0,.68,9.56-15.68,9.3a67.78,67.78,0,0,1-16.06-2.3s-56-16.5-63.68-19.21c-5-1.76-26.57-7.06-38.51-8.13C267.91,171.85,267,174.9,267,174.9Z"/><path class="cls-8" d="M383.34,554.48a.11.11,0,0,0,.09-.05C383.3,554.46,383.26,554.47,383.34,554.48Z"/><path class="cls-9" d="M380.7,558a.11.11,0,0,0,.09-.06C380.66,558,380.63,558,380.7,558Z"/><path class="cls-3" d="M454.2,23.71c-2.3,2.48-5,2.82-6.46,3.47-.39.31.25,2.43.37,2.83h0a1.15,1.15,0,0,0,1.27.51A23.65,23.65,0,0,0,456,26.46c1.19-.53,1-1.17.42-2.05l-.15-.22A1.47,1.47,0,0,0,454.2,23.71Z"/><path class="cls-2" d="M464.65,25.17c-1.72,2.74-4.38,4.89-8.1,1.84-2.53-2.07-3.61-5.35-1.89-8.09a5.89,5.89,0,0,1,10,6.25Z"/><path class="cls-10" d="M461.57,19a4,4,0,0,1-2.45,5.28s-.2-1.67-1.19-1.47a1.48,1.48,0,0,0-.28,2.46L456,26.4s-4.24-3-1-8a5.7,5.7,0,0,1,5.48-2.16,5.94,5.94,0,0,1,4.72,3.83,5.23,5.23,0,0,1,.34,2.47S464.19,22.57,461.57,19Z"/><ellipse class="cls-10" cx="455.49" cy="16.95" rx="4.62" ry="3.34" transform="translate(199.55 394.12) rotate(-57.97)"/><ellipse class="cls-10" cx="452.86" cy="21.49" rx="4" ry="2.41" transform="translate(194.42 393.98) rotate(-57.96)"/><path class="cls-2" d="M411.9,71.61c-5.57,7.39-16.41,5.05-16.41,5.05L371.1,70.21a1.14,1.14,0,0,1-.49-1.25,1.57,1.57,0,0,1,1.12-1.06c14.8,2,22.49.93,22.49.93,8.32-1.15,10.48-5.33,10.68-5.75l0-.07,5.78-11.41c.17-.47,3.09-.25,3.51,0L417.58,54a.76.76,0,0,1,.33.72A39.5,39.5,0,0,1,411.9,71.61Z"/><ellipse class="cls-10" cx="451.26" cy="18.89" rx="1.82" ry="1.54" transform="translate(195.9 391.43) rotate(-57.97)"/><path class="cls-11" d="M412.36,47.93s-8.58,9.86-11.69,10.95c0,0,3.16,10.51,14.7,10.62,0,0,7.57,1.57,15.82-7.74,0,0,.92-1.84,4.35-2.11-2.62-3.76-5.72-7-9.89-8.88Z"/><ellipse class="cls-10" cx="448.68" cy="23.11" rx="3.95" ry="1.73" transform="matrix(0.53, -0.85, 0.85, 0.53, 191.14, 391.25)"/><path class="cls-12" d="M446.18,41.13s-1.61,4.05-6.94,2.46a1.07,1.07,0,0,1-.32-.22c-4.82,2.85-8.19,5.88-10.24,9.16-3.39,2.07-8.76,3.73-11.15,1.75l-6.23-5.18C421,36.55,432.1,27.6,446.05,26.62c2.35-.16,3.05-1.24,4.28.62l.73,4C447.78,32.33,446.18,41.13,446.18,41.13Z"/><path class="cls-13" d="M338.74,311.78,196,375.56a28.25,28.25,0,0,1-37.34-14.2h0A28.25,28.25,0,0,1,172.87,324L315.6,260.24a28.25,28.25,0,0,1,37.34,14.2h0A28.25,28.25,0,0,1,338.74,311.78Z"/><path class="cls-6" d="M184.48,379.9a30.11,30.11,0,0,1-12.38-57.58l142.73-63.78a30.11,30.11,0,0,1,24.66,54.94h0L196.77,377.26A30,30,0,0,1,184.48,379.9ZM327.16,259.61a26.32,26.32,0,0,0-10.8,2.33L173.63,325.72a26.39,26.39,0,0,0,21.62,48.15L338,310.08h0a26.4,26.4,0,0,0-10.82-50.48Z"/><path class="cls-14" d="M316.19,310.07l5.2-11.94a2.22,2.22,0,0,0-.28-2.29l2.29-4.77a11.94,11.94,0,1,0-2.23-1.3l-2.43,5.06v0a2.22,2.22,0,0,0-1.85,1.36l-5.2,11.94a2.12,2.12,0,0,0,1,2.83l.78.34A2.12,2.12,0,0,0,316.19,310.07Zm12.69-20.43a9.47,9.47,0,1,1,8.78-10.12A9.48,9.48,0,0,1,328.88,289.64Z"/><text class="cls-15" transform="matrix(0.91, -0.41, 0.41, 0.91, 186.91, 360.08)"><tspan class="cls-16">S</tspan><tspan class="cls-17" x="16.02" y="0">ea</tspan><tspan class="cls-18" x="47.57" y="0">r</tspan><tspan x="57.74" y="0">ch</tspan></text><polygon class="cls-6" points="409.29 4.12 433.67 45.69 452.82 10.45 409.29 4.12"/><path class="cls-2" d="M444.18,27c-8.46,7.94-20.89,9.71-37.7,8.28-1.67-.14-2.23,2.37-.6,2.77,16.09,4,21,5.45,41-3.33,1.92-.58,4-2.17,4.21-3.53,1.42-5-2.12-6.09-4.63-5.39A8,8,0,0,0,444.18,27Z"/><path class="cls-2" d="M99.1,440.81a8.72,8.72,0,0,1-.08,3.3l2.55-.37a14.73,14.73,0,0,0-.05-3.38c2.52-.59,4.17-3.52,3.67-7.66-.52-4.3-2.61-7.78-5.57-7.7s-5.25,3.66-5.13,8C97.08,438,97.59,440.31,99.1,440.81Z"/><path class="cls-10" d="M104.21,477.65c-2.07,19-7,45.95-11.33,66.57A1,1,0,0,1,91,544c-.54-21.31-1.16-49.18-3.12-68.77l15.47,1.3A1,1,0,0,1,104.21,477.65Z"/><path class="cls-10" d="M102.38,479.4c-13.68,12.84-31.86,32.11-52.52,43.7a1,1,0,0,1-1.12-1.53c15.59-14.39,27.91-34.08,35.84-45.8a.94.94,0,0,1,.93-.41l16.35,2.4A1,1,0,0,1,102.38,479.4Z"/><path class="cls-2" d="M95.26,443.85a1.08,1.08,0,0,1,1.82.64l1,7.5a.56.56,0,0,1-.14.7c-7.19,5.76-20.85,10.07-36.64,13.91a.57.57,0,0,1-.38-1.06C74.62,458.87,88.39,450.55,95.26,443.85Z"/><g class="cls-19"><path class="cls-20" d="M87.93,449.65a11.18,11.18,0,0,0,2.22,8.13L99,452.6l-2.22-10.34Z"/></g><path class="cls-21" d="M82,476.37c5.87,7,16.88,9.32,21.6,7.12,4.93-7.23,6-20.42,6-35.25a4.75,4.75,0,0,0-3.91-5.46l-4.23-.52c-5.87-.37-7,1.83-7.7,4C92,457.93,86.32,471.25,82,476.37Z"/><path class="cls-2" d="M104,443.13c.36,4.89,1.67,8.13,4.24,9.23a.76.76,0,0,0,.84-.18,164.56,164.56,0,0,0,30.47-44,.76.76,0,0,0-1.29-.77c-12.92,16.88-26.36,31-33.85,35A.76.76,0,0,0,104,443.13Z"/><g class="cls-22"><path class="cls-20" d="M116,446a10.36,10.36,0,0,1-6.65-7.39l-5.91,3.69s0,9.61,5.91,11.08Z"/></g><path class="cls-10" d="M104.41,428.17s.51,3.29-1.26,5.31a16.77,16.77,0,0,1-1.27,6.07l-3.79.51c-.2.35-4.3-4.63-4.55-7.59a4.4,4.4,0,0,1,.5-2.78s-.5-6.07,7.84-5.06a5.89,5.89,0,0,0,2.78-.25A2.91,2.91,0,0,1,104.41,428.17Z"/><path class="cls-3" d="M394.07,465a1.17,1.17,0,0,0,1,1.3q1.16.15,2.43.26c15.91,1.33,29-1,48.94-17.18a7.2,7.2,0,0,0,2.37-5.25,8.8,8.8,0,0,0-.31-2.83c-1.06-3.73-4.54-5.68-7.35-3.35-10,8.34-27.55,21.29-43.48,24.94-.74.17-1.47.32-2.21.45a1.58,1.58,0,0,0-1.25,1.14,2.87,2.87,0,0,0-.09.5Z"/><path class="cls-23" d="M427,537.62c1.46,9.4,3.21,14.32,4.22,9.14a13.27,13.27,0,0,0,.05-2.36c0-1.92.07-3.81.15-5.64.73-17.65,3.82-30.61,8.16-38.6,4.94,12.13,13.64,28.05,20.68,40.27,2.08,3.62,4,6.9,5.68,9.68.92,1.54,3,.11,2.29-1.64a73,73,0,0,1-3-9.16c-4.69-18.17-6.75-55.43-6.76-55.59s0-.23,0-.34c-.63-9.5,2.13-23.32,7.09-40,.81-2.72-.93-5.55-3.49-5.67l-17.62-.85h0c-6.21,2.92-14.37,30.1-17.83,45.2-.73,3.2-1.25,5.85-1.49,7.62C423,504.74,425,525.16,427,537.62Z"/><g class="cls-24"><path class="cls-2" d="M471.68,519.35c-21.6,5.59-41.8,6.06-59.28-3.35l-3.75,58.23,73.16-5Z"/></g><path class="cls-21" d="M426.61,482.11a98.87,98.87,0,0,1,31.85,1.27c-.63-9.5,2.13-23.32,7.09-40,.81-2.72-.93-5.55-3.49-5.67l-17.62-.85h0C438.23,439.82,430.06,467,426.61,482.11Z"/><path class="cls-1" d="M427,537.62c1.46,9.4,3.21,14.32,4.22,9.14a13.27,13.27,0,0,0,.05-2.36c0-1.92.07-3.81.15-5.64.73-17.65,3.82-30.61,8.16-38.6,4.94,12.13,13.64,28.05,20.68,40.27,2.08,3.62,4,6.9,5.68,9.68.92,1.54,3,.11,2.29-1.64a73,73,0,0,1-3-9.16c-4.69-18.17-6.75-55.43-6.76-55.59s0-.23,0-.34c-.63-9.5,2.13-23.32,7.09-40,.81-2.72-.93-5.55-3.49-5.67l-17.62-.85h0c-6.21,2.92-14.37,30.1-17.83,45.2-.73,3.2-1.25,5.85-1.49,7.62C423,504.74,425,525.16,427,537.62Z"/><g class="cls-24"><path class="cls-1" d="M471.68,519.35c-22.27,8.23-42,6.85-59.28-3.35l-3.75,58.23,73.16-5Z"/></g><g class="cls-25"><path class="cls-13" d="M345.85,316.58c-45.19,43.36-96.65,81.78-153.62,98.84-17.35,4.5-40.77-13.2-51.31-35.95h0c-10.52-22.73-8.54-51.65,5.92-62.57,49.35-34,109.61-52.68,172.13-57.28,19.24-.25,38.44,8,42.47,16.11h0C365.47,283.88,358.83,302.32,345.85,316.58Z"/><path class="cls-6" d="M193,418.87c-18.52,3.81-43.06-15.06-53.95-38.55a75,75,0,0,1-6.69-37.71c1.08-12.73,5.41-23.59,13-28.95,49.09-34.6,109.64-52.62,172.73-56,20.71.25,41.23,9.14,45.25,17.22s-3,27.8-16.61,43.49h0c-44.61,44.65-95.77,83.73-153,100.25ZM320.56,261.47l-.68.06c-62,5.86-121.94,25.16-171.54,58.61-6.7,4.54-10.62,13.81-11.59,24.95a66.6,66.6,0,0,0,6.05,33.54c10,21.57,31.8,38,47.94,33.55,56.73-17.6,108.48-55.35,154.25-97.43h0c12.3-12.86,18.56-30.1,14.58-38.2S338.12,261.13,320.56,261.47Z"/><path class="cls-14" d="M322.08,319.5c1.36-5.82,2.84-11.34,4.47-16.52a3.11,3.11,0,0,0-.49-2.88q1.12-3,2.31-5.9a11.47,11.47,0,0,0,6.37.87c7.16-1.2,12.36-8.18,12.37-14s-5.9-10-13.91-10.83-14.33,3.89-13.48,11.73a15.63,15.63,0,0,0,6,10.64q-1.27,3-2.47,6.24v0a2.38,2.38,0,0,0-2,1.75c-1.64,5.16-3.14,10.66-4.52,16.46a3.6,3.6,0,0,0,1.54,4l.92.42C320.43,322.06,321.7,321.13,322.08,319.5Zm12.41-27.16c-5.76.83-11.29-4.17-11.88-10.22s4.36-10,10.65-9.52,11.1,4,11.17,8.81S340.26,291.53,334.49,292.33Z"/><path class="cls-26" d="M175.32,378.31a8.42,8.42,0,0,0,6.35.2c3-1.3,3.45-4.79,1.64-8.71-1.68-3.62-3.83-5.13-7.74-5.67-4.64-.47-8.32-2.54-10.77-7.84-2.7-5.84-2-11.77,2.21-14.13a7.11,7.11,0,0,1,5.66-.74l1.12,4.51a6.47,6.47,0,0,0-5,.39c-3,1.62-2.64,5.33-1.44,7.92,1.65,3.55,3.78,4.6,7.77,5.14,4.89.64,8.28,2.9,10.93,8.63,2.79,6,2.63,12.42-2.71,14.68a9.28,9.28,0,0,1-6.88,0Z"/><path class="cls-26" d="M190.6,362.85c3.28,6.92,7.14,8.61,10.08,7.22a7.63,7.63,0,0,0,3.78-3.62l2.22,3.48a9.36,9.36,0,0,1-4.55,4.33c-5,2.32-10.61-2.06-14.53-10.54s-4.21-16.61.41-19c5.19-2.67,10.4,4.86,12.83,10.14.49,1.06.81,1.92,1,2.47Q196.23,360.12,190.6,362.85Zm6.83-7.89c-1.5-3.33-4.67-8.07-7.93-6.41-2.93,1.49-2,6.93-.57,10.61Z"/><path class="cls-26" d="M220.72,364.47l-1.91-3.5-.1,0c.15,2.71-.65,5.6-2.95,6.74-3.26,1.61-6.82-1.67-8.74-5.82-3.21-6.93-1.52-12.44,4.74-15.5l-.27-.59c-1.1-2.38-3.45-6.47-6.74-4.82a6.73,6.73,0,0,0-3.19,4.23l-2.25-3.11a8.25,8.25,0,0,1,4.1-5.2c4.92-2.46,8.91,2.94,11.57,8.7l5,10.74c1.15,2.49,2.34,4.89,3.45,6.75ZM213.5,350c-3.25,1.48-6.41,4.3-3.82,9.87,1.57,3.38,3.57,4.37,5.07,3.62,2.1-1,2.33-4.09,1.66-6.76a10.3,10.3,0,0,0-.6-1.75Z"/><path class="cls-26" d="M218.7,341.14c-1.56-3.37-2.94-6.26-4.27-8.87L217,331l2.7,5.57.13-.07c-1-4.21-.38-7.49,1.6-8.45a2.15,2.15,0,0,1,.92-.23l2.26,4.87a2.92,2.92,0,0,0-1.09.32c-2.08,1-2.27,4.52-.87,8.62.26.74.58,1.6,1,2.49l7.05,15.23-2.88,1.5Z"/><path class="cls-26" d="M249.23,348.15a8.8,8.8,0,0,1-3.84,4.11c-4.81,2.63-10.64-1.51-14.66-10.19s-3.56-16.75,1.79-19.27a7.41,7.41,0,0,1,4.79-.52l1.13,4.23a5.26,5.26,0,0,0-4.05.34c-3.74,1.8-3.54,7.58-.81,13.48,3,6.54,7.28,9.31,10.46,7.61a6.85,6.85,0,0,0,2.93-3.29Z"/><path class="cls-26" d="M234.38,306.94l3-1.3,7.91,17.06.07,0a9.28,9.28,0,0,1,.51-4.5,5,5,0,0,1,2.41-2.81c2.22-1,6.79-.41,11,8.68l7.3,15.71-2.88,1.63-7.11-15.31c-2-4.3-4.67-7.47-7.48-6.15-1.93.91-2.41,3.89-1.69,6.86a10.77,10.77,0,0,0,.9,2.47L256,345.71l-2.89,1.6Z"/></g><rect class="cls-12" x="320.67" y="383.8" width="22.27" height="64.84" transform="translate(-193.06 504.85) rotate(-61.02)"/><path class="cls-27" d="M300.79,409a20.83,20.83,0,0,0,4-5.92l47.19,26.52a7.24,7.24,0,0,1-.64,4.48c-.65,1-1.59,1.76-3.66,1.79Z"/><circle class="cls-28" cx="221.75" cy="346.65" r="98.91" transform="translate(-4.33 2.81) rotate(-0.72)"/><path class="cls-29" d="M219.58,256.22,151.87,403.28l11.86,14.09,73.62-160,26.46,7.27L183.33,430l9,4.9,82.88-167.32,7.66,3.31L200.78,441.38l5,2.24,80.74-168.55,5.05-4.44S239.56,237,219.58,256.22Z"/><path class="cls-12" d="M223.36,449.21A102.89,102.89,0,1,1,324.94,345,103,103,0,0,1,223.36,449.21ZM221,262.51a83.83,83.83,0,1,0,84.87,82.77A83.92,83.92,0,0,0,221,262.51Z"/><path class="cls-27" d="M223.16,433.64a87.32,87.32,0,1,1,86.21-88.4A87.41,87.41,0,0,1,223.16,433.64ZM221,264.38a82,82,0,1,0,83,80.92A82,82,0,0,0,221,264.38Z"/><path class="cls-14" d="M474.06,465.23l-100.54-51a19.18,19.18,0,0,0-20.14,1.38c.08.33.14.67.2,1,2.59,7.52-.71,17.31-10.06,18.87a19.21,19.21,0,0,0,10.79,16.66l100.54,51c9.39,4.76,20.55,1.58,24.95-7.08l3.31-6.54C487.49,480.87,483.44,470,474.06,465.23Z"/><g class="cls-30"><polygon class="cls-31" points="349.78 428.75 488.21 499.16 473.16 522.7 392.15 492.92 321.9 444.67 349.78 428.75"/></g><path class="cls-3" d="M463.54,429.77c-3.78,3.55-6.18,7-5.72,10.7-.9.2-1.56-.3-2.08-1.22.18-3.69,2.48-7.23,5.72-10.7Z"/><path class="cls-2" d="M409.55,466.2a1.09,1.09,0,0,0,.88,1.31c.79.1,1.62.19,2.47.26,12,1,30.24-1.36,51.44-17.26a7.77,7.77,0,0,0,2.81-5.28,8.52,8.52,0,0,0-.12-2.84c-.83-3.75-4.26-5.71-7.3-3.37-10.88,8.38-29.79,21.4-46.39,25.07-.77.17-1.54.32-2.29.45a1.78,1.78,0,0,0-1.36,1.15,3.41,3.41,0,0,0-.12.5Z"/><path class="cls-2" d="M457.42,431l1.1.86a3.19,3.19,0,0,0,4.74-.93l4-6.36a1.62,1.62,0,0,0-.33-2.08l-5.62-4.39a1.25,1.25,0,0,0-1.86.37l-3.19,5.09A5.78,5.78,0,0,0,457.42,431Z"/><path class="cls-10" d="M465.56,419.43s-4.23,6.49-1,10.35a15.09,15.09,0,0,0,2.9-5.55C468.57,420.55,465.56,419.43,465.56,419.43Z"/><path class="cls-10" d="M460.38,417.43l-2.56,4S458.25,417.85,460.38,417.43Z"/><path class="cls-10" d="M465.1,420.81s-7.27-.85-4.62-5,5.27-1.61,5.27-1.61-2.54.18-1.38,1.42S468.48,419.47,465.1,420.81Z"/><ellipse class="cls-32" cx="75.55" cy="544.98" rx="37.7" ry="1.31"/><ellipse class="cls-32" cx="445.12" cy="550.76" rx="37.7" ry="1.31"/></g></svg>