<svg xmlns="http://www.w3.org/2000/svg" xmlns:xlink="http://www.w3.org/1999/xlink" viewBox="0 0 560 560"><defs><style>.cls-1{fill:none;}.cls-2{fill:#575761;}.cls-3{isolation:isolate;}.cls-27,.cls-4{fill:#ffbb61;}.cls-5{clip-path:url(#clip-path);}.cls-6{fill:#ffa539;}.cls-7{fill:#fff0b3;}.cls-28,.cls-7{mix-blend-mode:soft-light;}.cls-13,.cls-8{fill:#fff;}.cls-8{opacity:0.6;mix-blend-mode:overlay;}.cls-9{clip-path:url(#clip-path-3);}.cls-10{clip-path:url(#clip-path-5);}.cls-11{clip-path:url(#clip-path-7);}.cls-12{clip-path:url(#clip-path-9);}.cls-14{fill:#ffc0a1;}.cls-15,.cls-44{fill:#070707;}.cls-15{opacity:0.1;}.cls-16{fill:#ffceb3;}.cls-17{fill:#ffe7d9;}.cls-18{fill:#ffdfca;}.cls-19{fill:#c6957f;}.cls-20{fill:#d8d8d8;mix-blend-mode:multiply;}.cls-21{fill:#edccb7;}.cls-22{fill:#f3dece;}.cls-23{fill:#444;}.cls-24{fill:#ffc776;}.cls-25{clip-path:url(#clip-path-11);}.cls-26{fill:#ffd364;}.cls-27{opacity:0.85;}.cls-29{clip-path:url(#clip-path-12);}.cls-30{fill:#bababa;opacity:0.31;}.cls-31{fill:#648381;}.cls-32{fill:#494951;}.cls-33{clip-path:url(#clip-path-13);}.cls-34{fill:#f7f4f3;}.cls-35{clip-path:url(#clip-path-14);}.cls-36{clip-path:url(#clip-path-16);}.cls-37{clip-path:url(#clip-path-18);}.cls-38{clip-path:url(#clip-path-20);}.cls-39{clip-path:url(#clip-path-22);}.cls-40{clip-path:url(#clip-path-24);}.cls-41{clip-path:url(#clip-path-26);}.cls-42{clip-path:url(#clip-path-27);}.cls-43{fill:#844215;}.cls-45{clip-path:url(#clip-path-28);}.cls-46{clip-path:url(#clip-path-30);}.cls-47{clip-path:url(#clip-path-32);}.cls-48{clip-path:url(#clip-path-34);}.cls-49{clip-path:url(#clip-path-36);}.cls-50{clip-path:url(#clip-path-38);}.cls-51{clip-path:url(#clip-path-40);}.cls-52{clip-path:url(#clip-path-42);}.cls-53{clip-path:url(#clip-path-44);}.cls-54{clip-path:url(#clip-path-46);}.cls-55{clip-path:url(#clip-path-48);}.cls-56{clip-path:url(#clip-path-50);}.cls-57{clip-path:url(#clip-path-52);}.cls-58{clip-path:url(#clip-path-53);}.cls-59{clip-path:url(#clip-path-54);}.cls-60{clip-path:url(#clip-path-56);}.cls-61{clip-path:url(#clip-path-58);}.cls-62{clip-path:url(#clip-path-60);}.cls-63{clip-path:url(#clip-path-62);}</style><clipPath id="clip-path"><rect class="cls-1" x="439.63" y="401.72" width="84.05" height="13.15" rx="0.62" ry="0.62"/></clipPath><clipPath id="clip-path-3"><rect class="cls-1" x="445.18" y="414.86" width="84.05" height="13.15" rx="0.62" ry="0.62"/></clipPath><clipPath id="clip-path-5"><rect class="cls-1" x="439.63" y="428.01" width="84.05" height="13.15" rx="0.62" ry="0.62"/></clipPath><clipPath id="clip-path-7"><rect class="cls-1" x="443.79" y="441.15" width="84.05" height="13.15" rx="0.62" ry="0.62"/></clipPath><clipPath id="clip-path-9"><rect class="cls-1" x="441.02" y="454.3" width="84.05" height="13.15" rx="0.62" ry="0.62"/></clipPath><clipPath id="clip-path-11"><path class="cls-1" d="M246.79,137.23s27.63-2.33,49.11-1.46c13.87.56,31.35-55.29,31.35-55.29l-52-25.78-42.89,2.86-7.47,22.92Z"/></clipPath><clipPath id="clip-path-12"><path class="cls-1" d="M318,84.8c-3.31-12.35-53.25-19.47-70.17-17.26-18.33,2,3.91,68.47,24.37,85.26C281.88,147.09,320.85,95.5,318,84.8Z"/></clipPath><clipPath id="clip-path-13"><path class="cls-2" d="M555.86,431.55c-6.51,3.59-22.17,6.82-33.92,7.53A71.09,71.09,0,0,1,498.73,436c-9.46-3-17.74-10.13-23.26-19.67,0,0-7.14-12.39-7.34-12.84-11.92-26.42.74-28.42.74-28.42,9.42-2.27,14.45,3.11,23,20.74,3.08,6.31,4.73,9.35,7.36,12.64a41.9,41.9,0,0,0,8.86,8.24c8.27,5.72,25,14.68,46,12.3C556.67,428.71,558.16,430.28,555.86,431.55Z"/></clipPath><clipPath id="clip-path-14"><rect class="cls-1" x="309.29" y="411.41" width="84.05" height="13.15" rx="0.62" ry="0.62"/></clipPath><clipPath id="clip-path-16"><rect class="cls-1" x="316.94" y="376.5" width="84.05" height="13.15" rx="0.62" ry="0.62" transform="translate(-83.69 100.84) rotate(-14.34)"/></clipPath><clipPath id="clip-path-18"><rect class="cls-1" x="324.86" y="388.4" width="84.05" height="13.15" rx="0.62" ry="0.62" transform="translate(-80.42 94.1) rotate(-13.18)"/></clipPath><clipPath id="clip-path-20"><rect class="cls-1" x="303.74" y="424.55" width="84.05" height="13.15" rx="0.62" ry="0.62"/></clipPath><clipPath id="clip-path-22"><rect class="cls-1" x="307.9" y="437.7" width="84.05" height="13.15" rx="0.62" ry="0.62"/></clipPath><clipPath id="clip-path-24"><rect class="cls-1" x="305.13" y="450.85" width="84.05" height="13.15" rx="0.62" ry="0.62"/></clipPath><clipPath id="clip-path-26"><path class="cls-1" d="M107.29,242.11c-.6.62.71-.44.16.18-3.92,4.39-6.49,8.87-5.85,12.87,1.75,10.79,22.17,20.2,32.2,24.7s39.74,17.57,48,11.29c1.88-1.42,3.06-3.91,3.76-7C169.32,288.1,97.69,257.82,107.29,242.11Z"/></clipPath><clipPath id="clip-path-27"><path class="cls-1" d="M169.21,203.8c-10.22-4.37-54.46,30.83-61.5,37.95C96.28,256.21,159.28,287,185.6,284.13,188.33,273.21,179.4,208.15,169.21,203.8Z"/></clipPath><clipPath id="clip-path-28"><rect class="cls-1" x="23.17" y="317.87" width="84.05" height="13.15" rx="0.62" ry="0.62" transform="translate(15.37 -2.71) rotate(2.7)"/></clipPath><clipPath id="clip-path-30"><rect class="cls-1" x="9.13" y="331.53" width="84.05" height="13.15" rx="0.62" ry="0.62" transform="translate(9.18 -1.26) rotate(1.55)"/></clipPath><clipPath id="clip-path-32"><rect class="cls-1" x="25.22" y="345.7" width="84.05" height="13.15" rx="0.62" ry="0.62"/></clipPath><clipPath id="clip-path-34"><rect class="cls-1" x="3.47" y="358.84" width="84.05" height="13.15" rx="0.62" ry="0.62"/></clipPath><clipPath id="clip-path-36"><rect class="cls-1" x="17.61" y="371.99" width="84.05" height="13.15" rx="0.62" ry="0.62"/></clipPath><clipPath id="clip-path-38"><rect class="cls-1" x="3.72" y="385.14" width="84.05" height="13.15" rx="0.62" ry="0.62"/></clipPath><clipPath id="clip-path-40"><rect class="cls-1" x="14.84" y="398.28" width="84.05" height="13.15" rx="0.62" ry="0.62"/></clipPath><clipPath id="clip-path-42"><rect class="cls-1" x="16.22" y="411.43" width="84.05" height="13.15" rx="0.62" ry="0.62"/></clipPath><clipPath id="clip-path-44"><rect class="cls-1" x="16.22" y="424.58" width="84.05" height="13.15" rx="0.62" ry="0.62"/></clipPath><clipPath id="clip-path-46"><rect class="cls-1" x="24.56" y="437.72" width="84.05" height="13.15" rx="0.62" ry="0.62"/></clipPath><clipPath id="clip-path-48"><rect class="cls-1" x="21.78" y="450.87" width="84.05" height="13.15" rx="0.62" ry="0.62"/></clipPath><clipPath id="clip-path-50"><rect class="cls-1" x="24.56" y="464.01" width="84.05" height="13.15" rx="0.62" ry="0.62"/></clipPath><clipPath id="clip-path-52"><path class="cls-1" d="M104.5,345.66c-.86.07.83.14,0,.24-5.84.71-10.73,2.38-12.89,5.8-5.81,9.25,3.31,29.81,7.87,39.81s18.24,39.44,28.61,40.19c2.35.17,4.88-.91,7.46-2.79C120.71,421.16,86.91,351.12,104.5,345.66Z"/></clipPath><clipPath id="clip-path-53"><path class="cls-1" d="M176.29,357.78c-4.79-10-61.26-12.81-71.24-12.11-18.14,3.31,8.87,68,30.5,83.26C144.82,422.53,181.07,367.78,176.29,357.78Z"/></clipPath><clipPath id="clip-path-54"><rect class="cls-1" x="106.49" y="426.77" width="84.05" height="13.15" rx="0.62" ry="0.62"/></clipPath><clipPath id="clip-path-56"><rect class="cls-1" x="109.27" y="439.92" width="84.05" height="13.15" rx="0.62" ry="0.62"/></clipPath><clipPath id="clip-path-58"><rect class="cls-1" x="103.71" y="453.07" width="84.05" height="13.15" rx="0.62" ry="0.62"/></clipPath><clipPath id="clip-path-60"><rect class="cls-1" x="109.27" y="466.21" width="84.05" height="13.15" rx="0.62" ry="0.62"/></clipPath><clipPath id="clip-path-62"><rect class="cls-1" x="168.09" y="438.43" width="84.05" height="13.15" rx="0.62" ry="0.62" transform="translate(404.54 -7.08) rotate(48.55)"/></clipPath></defs><title>Benefit Icons_v4</title><g class="cls-3"><g id="Budget_Friendly" data-name="Budget Friendly"><g id="baboy"><rect class="cls-4" x="439.63" y="401.72" width="84.05" height="13.15" rx="0.62" ry="0.62"/><g class="cls-5"><rect class="cls-6" x="439.63" y="413.02" width="84.05" height="2.77"/></g><rect class="cls-7" x="445.89" y="401.72" width="46.51" height="11.31"/><rect class="cls-8" x="445.89" y="401.72" width="7.58" height="11.31"/><g class="cls-5"><rect class="cls-7" x="518.02" y="399.88" width="5.82" height="13.15"/></g><rect class="cls-4" x="445.18" y="414.86" width="84.05" height="13.15" rx="0.62" ry="0.62"/><g class="cls-9"><rect class="cls-6" x="445.18" y="426.17" width="84.05" height="2.77"/></g><rect class="cls-7" x="450.9" y="414.86" width="46.51" height="11.31"/><rect class="cls-8" x="451.44" y="414.86" width="7.58" height="11.31"/><g class="cls-9"><rect class="cls-7" x="523.58" y="413.02" width="5.82" height="13.15"/></g><rect class="cls-4" x="439.63" y="428.01" width="84.05" height="13.15" rx="0.62" ry="0.62"/><g class="cls-10"><rect class="cls-6" x="439.63" y="439.31" width="84.05" height="2.77"/></g><rect class="cls-7" x="445.89" y="428.01" width="46.51" height="11.31"/><rect class="cls-8" x="445.89" y="428.01" width="7.58" height="11.31"/><g class="cls-10"><rect class="cls-7" x="518.02" y="426.17" width="5.82" height="13.15"/></g><rect class="cls-4" x="443.79" y="441.15" width="84.05" height="13.15" rx="0.62" ry="0.62"/><g class="cls-11"><rect class="cls-6" x="443.79" y="452.46" width="84.05" height="2.77"/></g><rect class="cls-7" x="449.65" y="441.15" width="46.51" height="11.31"/><rect class="cls-8" x="450.05" y="441.15" width="7.58" height="11.31"/><g class="cls-11"><rect class="cls-7" x="522.19" y="439.31" width="5.82" height="13.15"/></g><rect class="cls-4" x="441.02" y="454.3" width="84.05" height="13.15" rx="0.62" ry="0.62"/><g class="cls-12"><rect class="cls-6" x="441.02" y="465.61" width="84.05" height="2.77"/></g><rect class="cls-7" x="447.14" y="454.3" width="46.51" height="11.31"/><rect class="cls-8" x="447.28" y="454.3" width="7.58" height="11.31"/><g class="cls-12"><rect class="cls-7" x="519.41" y="452.46" width="5.82" height="13.15"/></g><polygon class="cls-13" points="534.67 411.82 519.3 409.14 513.83 423.75 516.51 408.38 501.9 402.92 517.26 405.59 522.73 390.98 520.06 406.35 534.67 411.82"/><polygon class="cls-13" points="476.64 448.49 467.73 446.94 464.56 455.41 466.11 446.5 457.64 443.33 466.55 444.88 469.72 436.41 468.17 445.32 476.64 448.49"/><path class="cls-14" d="M46.14,217s7.86,13.86,2.71,35.12C47.71,262,40.06,262.72,37.91,263c-2.82.32-12.6.6-12-10.2s24.54-8.87,32.34,13.53c0,0,4.65-9.69,4.46-18.54s-43-28.2-47,5.6c0,11.2,9.05,23.65,30.43,18,15-3.94,15.89-22.09,14.57-31.24C57.71,219.36,46.14,217,46.14,217Z"/><path class="cls-15" d="M56.8,262.74s1.59,3.79,1.66,4.07,5-13.38,5-13.38L63,248.16l-.35-.57a4.86,4.86,0,0,0-1.4-2.93S60.48,256.06,56.8,262.74Z"/><path class="cls-15" d="M49.74,237.1s-.74,14.36-1,15c0,0-2.3-1.74-2.6-1.93,0,0,2.93-12.88,2.43-13.52Z"/><path class="cls-16" d="M451.73,167.35s29.74-20.48,47.49,10.81l-32.82,4.26Z"/><path class="cls-17" d="M461.83,177.73s19.16-23.48,34.57-4c4,5.06,9.33,13.73-2.67,40.53Z"/><path class="cls-16" d="M376.07,462.83c3.4.31,16,1.43,25.32,1.55,7.73.09,17.77-1.5,22.88-2.41l.27-26.62s-41.13,6.56-45.69,2.1-1.17,5.16-1.17,5.16Z"/><path class="cls-14" d="M376.07,462.83l-.05.64s35.43,15.74,48.22.36l0-1.86c-5.11.92-15.15,2.51-22.88,2.41C392.11,464.26,379.47,463.14,376.07,462.83Z"/><path class="cls-16" d="M191.88,468.87c3.42-.07,16.1-.37,25.33-1.3,7.69-.77,17.49-3.48,22.46-5L237,436.14s-40.14,11.12-45.16,7.2-.59,5.26-.59,5.26Z"/><path class="cls-14" d="M191.88,468.87l0,.64s37,11.67,48-5l-.19-1.85c-5,1.48-14.77,4.19-22.46,5C208,468.5,195.3,468.81,191.88,468.87Z"/><path class="cls-18" d="M511.12,335.83c-3.58,5.17-1.79,9.81.8,13.11a139.56,139.56,0,0,0,13.81-60.21c0-98.18-105.07-177.78-234.68-177.78S56.38,190.54,56.38,288.73,161.44,466.51,291.06,466.51c100.49,0,186.21-47.85,219.67-115.1C500.4,345.38,511.12,335.83,511.12,335.83Z"/><path class="cls-19" d="M213.81,134.35c6.59-1.65,47.14-11.06,95.34-6.13a2,2,0,0,1,1.72,2.61l-.36,1.15c-.83,2.66-3.32,4.77-6.08,4.42-15.81-2-66.53-.37-90.53,5.53a2.46,2.46,0,0,1-2.82-3.41l1.21-2.67A2.29,2.29,0,0,1,213.81,134.35Z"/><path class="cls-18" d="M359,472.68c4.57-.84,15.45-2.93,23.5-5.06s18.29-6.94,22.47-9l-6.68-24S360.58,452.4,355,449.39s.31,5.28.31,5.28Z"/><path class="cls-16" d="M359,472.68l.51,2.49s38.41,5.26,46.42-13.08l-1-3.45c-4.18,2-14.37,6.83-22.47,9S363.54,471.84,359,472.68Z"/><path class="cls-18" d="M142.45,451.32c4.09,2.22,13.86,7.43,21.46,10.83s18.58,6.1,23.12,7.13l9.87-22.85s-40.46-9.88-42.93-15.76-3.08,4.3-3.08,4.3Z"/><path class="cls-16" d="M142.45,451.32l-1.17,2.26s26.58,28.23,44.33,19l1.42-3.29c-4.54-1-15.47-3.72-23.12-7.13S146.54,453.54,142.45,451.32Z"/><path class="cls-16" d="M367.33,157.75s-35.74-13.32-30.4,70.78c0,0-1.2,9.5,24.2,5.82C361.13,234.35,366.53,159.46,367.33,157.75Z"/><path class="cls-17" d="M417.33,188.55s-30-37.6-55.2-30.8c-17.2,4.8-3.8,70.2-1,76.61C361.13,234.36,368.79,218.16,417.33,188.55Z"/><circle class="cls-19" cx="438.53" cy="240.26" r="8.7"/><ellipse class="cls-19" cx="501.11" cy="236.31" rx="4.68" ry="7.6" transform="translate(-26.2 66.31) rotate(-7.38)"/><path class="cls-19" d="M511.12,335.83s-10.72,9.55-.4,15.57c.41-.82.81-1.64,1.2-2.46C509.33,345.64,507.54,341,511.12,335.83Z"/><path class="cls-19" d="M436.57,342.53s18.95.29,19.55-15.38C456.12,327.15,460.75,351,436.57,342.53Z"/><path class="cls-19" d="M507.15,344.35s-32.49,17.85-53.42-5.12l-2.82,1.42s18,31.6,56.36,6.49Z"/><ellipse class="cls-16" cx="490" cy="291.76" rx="41.07" ry="38.4"/><ellipse class="cls-19" cx="480.53" cy="290.76" rx="14.6" ry="6.8" transform="translate(128.07 728.05) rotate(-82.31)"/><ellipse class="cls-19" cx="512.08" cy="290.54" rx="13.28" ry="6.18" transform="translate(203.74 792.11) rotate(-87.99)"/><path class="cls-16" d="M434.21,277.88s15.84-24.84,52.6-19.4l7.76-4.68s-37.44-12.36-64.85,22.83c0,0-1.45,4.3.09,4.8S434.21,277.88,434.21,277.88Z"/><path class="cls-20" d="M388.82,134.4c0,1.45-13,4.18-25.66,4.51-10.25.27-19-.27-21.9-1.27-1.35.1-2.83.17-4.37.21-5.25.14-9.73-.12-11.32-.6l-2,.07c-7.64.2-13.85-.43-13.87-1.39s6.14-1.91,13.78-2.11,13.85.42,13.87,1.38c2.57-.06,4.92,0,6.81.09A128.56,128.56,0,0,1,363,133.67C375.66,133.34,388.79,132.95,388.82,134.4Z"/><path class="cls-21" d="M334.8,65.49c.6,3.15,2.59,4.79,3.44,6,.15.45-1.42,1.83-1.72,2.09h0a1.09,1.09,0,0,1-1.28-.23A22.4,22.4,0,0,1,332,66.78c-.68-1-.26-1.46.69-1.86l.23-.1A1.39,1.39,0,0,1,334.8,65.49Z"/><path class="cls-22" d="M325.69,61.4c0,3.06,1.06,6.13,5.58,5.55,3.07-.39,5.59-2.48,5.59-5.54a5.58,5.58,0,0,0-11.17,0Z"/><path class="cls-23" d="M331.27,58a3.77,3.77,0,0,0-.69,5.47s1-1.24,1.7-.58a1.4,1.4,0,0,1-1,2.11l.78,1.78s4.93-.31,4.81-5.93a5.4,5.4,0,0,0-3.31-4.49,5.63,5.63,0,0,0-5.71.7,4.94,4.94,0,0,0-1.52,1.81S327.36,59.54,331.27,58Z"/><path class="cls-22" d="M349.65,126c3.35,8.1,13.85,8.54,13.85,8.54l23.91-.12a1.08,1.08,0,0,0,.74-1,1.48,1.48,0,0,0-.78-1.24c-14-1.71-20.85-4.5-20.85-4.5-7.36-3-8.34-7.38-8.43-7.81a.57.57,0,0,1,0-.07l-2.59-11.84c0-.47-2.78-1-3.23-.81l-3.66,1.41a.72.72,0,0,0-.48.58A37.42,37.42,0,0,0,349.65,126Z"/><path class="cls-22" d="M343.62,101.57l-12.71-1.29h-.05c-.91-.19-27.9-5.36-17.91,35.19a1.08,1.08,0,0,0,2.13-.18c.73-9.44,2.94-25.68,9.42-25.37a171.16,171.16,0,0,1,19.9,1.27.57.57,0,0,0,.55-.25c.76-1.16,3.18-5.55-1-9.24A.57.57,0,0,0,343.62,101.57Z"/><path class="cls-2" d="M356.2,106s1.92,12.24,3.87,14.68c0,0-8.21,10.51-17.14,1.12,0,0-6.53-6.17-8.46-17.8,0,0-.5-3.38-2-3.57l11.63,1.15Z"/><path class="cls-21" d="M332.62,74.25c-5.39,10.24-17.49,15.51-33.27,18a1.36,1.36,0,0,0,.08,2.69c13.72,1.38,25.61-1.48,42-14.12a.47.47,0,0,0,.15-.52c-1.68-4.8-4.29-7.51-8.66-6.32A.46.46,0,0,0,332.62,74.25Z"/><path class="cls-24" d="M332.73,81.64a6.7,6.7,0,0,0-.26,1.87c0,3,1.94,5.46,4.34,5.47l.37,0c2.43,4.72,3.61,8.85,3.61,12.52.22,6.37,14.32,8.8,15.68,6-1.51-15-2.85-19.62-11.81-31.31-1.35-1.77-5.85-7.22-7.78-6.35l-4,4.21C333.6,77.84,333.6,78.54,332.73,81.64Z"/><g class="cls-25"><path class="cls-26" d="M318,84.8C311.76,71.85,263.87,65,247.8,67.54c-18.33,2,3.91,68.47,24.37,85.26C286.81,150.85,323.27,95.83,318,84.8Z"/><path class="cls-27" d="M313.09,87c-3.58-9-48.52-15.47-60.61-14.1-16.07,1.67,13.9,75.33,23.47,70.31C283.57,138.85,316.66,96,313.09,87Z"/><g class="cls-28"><g class="cls-29"><polygon class="cls-8" points="288.28 67.78 261.24 150.09 253.4 140.1 281.17 64.82 288.28 67.78"/><polygon class="cls-8" points="269.69 157.03 299.11 68.57 291.73 68.03 264.53 155.03 269.69 157.03"/></g></g></g><path class="cls-22" d="M332.66,78.05c-1.53,8-13.31,17.4-27.13,24.41a1.36,1.36,0,0,0,.9,2.54c13-2.78,23.21-8.79,34.46-24.55.88-1.23,1-3.49,0-4.58C338.51,73.43,334.16,73.75,332.66,78.05Z"/><ellipse class="cls-23" cx="325.51" cy="57.42" rx="2.16" ry="1.56"/><ellipse class="cls-23" cx="327.3" cy="56.01" rx="3.08" ry="2.3"/><ellipse class="cls-23" cx="331.21" cy="55.08" rx="3.08" ry="2.16"/><ellipse class="cls-23" cx="334.86" cy="55.95" rx="2.47" ry="3.03"/><ellipse class="cls-23" cx="336.44" cy="58.31" rx="2.84" ry="2.78"/><ellipse class="cls-23" cx="338.08" cy="60.53" rx="1.61" ry="1.17"/><ellipse class="cls-23" cx="337.36" cy="61.95" rx="1.93" ry="1.05"/><ellipse class="cls-23" cx="336.87" cy="63.87" rx="1.93" ry="1.39"/><ellipse class="cls-23" cx="335.48" cy="65.53" rx="1.88" ry="1.23"/><ellipse class="cls-23" cx="329.82" cy="59.23" rx="2.57" ry="1.67"/><ellipse class="cls-23" cx="323.87" cy="55.72" rx="1.39" ry="1.02"/><ellipse class="cls-23" cx="328.41" cy="53.51" rx="1.15" ry="1.19"/><ellipse class="cls-23" cx="333.45" cy="53.32" rx="1.06" ry="1"/><ellipse class="cls-23" cx="336.92" cy="55.23" rx="0.98" ry="1.52"/><circle class="cls-23" cx="324.62" cy="54.58" r="1.27"/><ellipse class="cls-23" cx="326.29" cy="53.51" rx="1.38" ry="1.19"/><ellipse class="cls-23" cx="330.34" cy="52.9" rx="1.52" ry="1.41"/><ellipse class="cls-23" cx="332.3" cy="52.32" rx="1.03" ry="1.26"/><circle class="cls-23" cx="334.97" cy="52.29" r="1.63"/><ellipse class="cls-23" cx="336.91" cy="53.35" rx="0.96" ry="1.55"/><ellipse class="cls-23" cx="338.3" cy="53.4" rx="1.38" ry="1.48"/><ellipse class="cls-23" cx="338.55" cy="55.46" rx="1.95" ry="1.54"/><ellipse class="cls-23" cx="339.38" cy="57.46" rx="1.12" ry="0.72"/><ellipse class="cls-23" cx="339.44" cy="59.22" rx="1.36" ry="1.04"/><path class="cls-30" d="M513.86,484.21c0,1.59-52.07,2.87-116.29,2.87s-116.3-1.28-116.3-2.87,52.07-2.87,116.3-2.87S513.86,482.62,513.86,484.21Z"/><path class="cls-21" d="M476.31,387.77h0a5.55,5.55,0,0,1-4.39,1.55l-.78-.11c-21.57-1.76-35.16-11.15-46.86-22.2-.83-.78.09-2.25,1.07-1.71,11.67,6.4,27,11.63,49.46,14.61C478.07,380.82,478.94,385.37,476.31,387.77Z"/><path class="cls-31" d="M455.64,387.79s4.49-6.07,2-10.09l11.1,4.2a6.57,6.57,0,0,1,.59,6.32s-1.47,3.11-3.84,2.62Z"/><path class="cls-21" d="M469.66,368.49a28.16,28.16,0,0,0,1.44,8l-3.79,1a21.4,21.4,0,0,1-1.5-7.68Z"/><path class="cls-22" d="M472.2,361.51c.78,6-1.65,11.27-5.45,11.8s-7.5-3.89-8.28-9.87"/><path class="cls-32" d="M477.17,417.12l26.95,67.2c.67,1.65,2.47,1.06,2.13-.69-4-20.29-9-58.6-2-69.39Z"/><path class="cls-2" d="M555.86,431.55c-6.51,3.59-22.17,6.82-33.92,7.53A71.09,71.09,0,0,1,498.73,436c-9.46-3-17.74-10.13-23.26-19.67,0,0-7.14-12.39-7.34-12.84-11.92-26.42.74-28.42.74-28.42,9.42-2.27,14.45,3.11,23,20.74,3.08,6.31,4.73,9.35,7.36,12.64a41.9,41.9,0,0,0,8.86,8.24c8.27,5.72,25,14.68,46,12.3C556.67,428.71,558.16,430.28,555.86,431.55Z"/><g class="cls-33"><path class="cls-34" d="M495.87,347.69l-63.53,14.73L465,425.65c24.34-2,31.1-8.27,40.75-22Z"/></g><path class="cls-22" d="M475.12,386.51h0a5.1,5.1,0,0,1-4.4,1l-.79-.2c-21.63-4.37-35.26-15.39-47-27.83-.83-.88.09-2.23,1.07-1.58,11.7,7.79,27.08,14.87,49.61,20.56C476.88,379.78,477.75,384.42,475.12,386.51Z"/><path class="cls-31" d="M462.45,385.78s3.57-6.38.34-10.21l12.08,3.37a6.86,6.86,0,0,1,1.68,6.26s-1,3.22-3.49,2.9Z"/><path class="cls-23" d="M470,369.21c1.39-.83,0-3,0-3-1.17-1-1.39.85-1.39.85a5.23,5.23,0,0,1-1.08-2.56,1.44,1.44,0,0,1-2.09.48.72.72,0,0,1-1,.12l0,0c-.44.73-1.48.76-2.31.07a2.69,2.69,0,0,1-.4-.42,1.32,1.32,0,0,1-1.51-.18,1.8,1.8,0,0,1-.54-.78,2.13,2.13,0,0,1-1-.48,2.17,2.17,0,0,1-.71-2.6,2.15,2.15,0,0,1-.21-2.67,1.68,1.68,0,0,1,1.66-.92,1.12,1.12,0,0,1,.15-.58,1,1,0,0,1,1.21-.33h0l.07,0s0,0,0,0a.87.87,0,0,1,.12-.5.7.7,0,0,1,.57-.34.79.79,0,0,1,0-.66c.17-.29.58-.33,1-.12l0,0a1.33,1.33,0,0,1,1.37-.74l0-.08a.65.65,0,0,1,1-.16.93.93,0,0,1,.16.19,1.64,1.64,0,0,1,1.43.19l0,0c.44-.74,1.61-.65,2.61.19a2.8,2.8,0,0,1,1.14,2.55c5.54,1.35,2.79,7.18,2.79,7.18-.38.64-2.14,6.78-2.27,7.16Z"/><path class="cls-34" d="M408.52,464.17V369.84a3.8,3.8,0,0,1-1.44-1.84c-.8-2.26.73-4.87,3.41-5.82l8.2-2.9c2.69-1,5.51.11,6.31,2.37s-.73,4.87-3.41,5.82l-8.2,2.9-.25.07v93.73h.93v6.25h-130v-6.25Z"/><ellipse class="cls-34" cx="409.72" cy="478.1" rx="6.53" ry="6.55"/><ellipse class="cls-34" cx="290.59" cy="478.1" rx="6.53" ry="6.55"/><rect class="cls-4" x="309.29" y="411.41" width="84.05" height="13.15" rx="0.62" ry="0.62"/><g class="cls-35"><rect class="cls-6" x="309.29" y="422.71" width="84.05" height="2.77"/></g><rect class="cls-7" x="315.01" y="411.41" width="46.51" height="11.31"/><rect class="cls-8" x="315.55" y="411.41" width="7.58" height="11.31"/><g class="cls-35"><rect class="cls-7" x="387.69" y="409.57" width="5.82" height="13.15"/></g><rect class="cls-4" x="316.94" y="376.5" width="84.05" height="13.15" rx="0.62" ry="0.62" transform="translate(-83.69 100.84) rotate(-14.34)"/><g class="cls-36"><rect class="cls-6" x="318.46" y="387.61" width="84.05" height="2.77" transform="translate(-85.11 101.4) rotate(-14.34)"/></g><rect class="cls-7" x="322.84" y="379.76" width="46.51" height="11.31" transform="translate(-84.67 97.73) rotate(-14.34)"/><rect class="cls-8" x="323.97" y="384.44" width="7.58" height="11.31" transform="translate(-86.41 93.33) rotate(-14.34)"/><g class="cls-36"><rect class="cls-7" x="393.66" y="364.98" width="5.82" height="13.15" transform="translate(-79.67 109.8) rotate(-14.34)"/></g><rect class="cls-4" x="324.86" y="388.4" width="84.05" height="13.15" rx="0.62" ry="0.62" transform="translate(-80.42 94.1) rotate(-13.18)"/><g class="cls-37"><rect class="cls-6" x="326.26" y="399.55" width="84.05" height="2.77" transform="translate(-81.74 94.57) rotate(-13.18)"/></g><rect class="cls-7" x="330.71" y="391.4" width="46.51" height="11.31" transform="translate(-81.23 91.2) rotate(-13.18)"/><rect class="cls-8" x="331.75" y="395.72" width="7.58" height="11.31" transform="translate(-82.7 87.12) rotate(-13.18)"/><g class="cls-37"><rect class="cls-7" x="401.8" y="377.65" width="5.82" height="13.15" transform="translate(-76.97 102.44) rotate(-13.18)"/></g><rect class="cls-4" x="303.74" y="424.55" width="84.05" height="13.15" rx="0.62" ry="0.62"/><g class="cls-38"><rect class="cls-6" x="303.74" y="435.86" width="84.05" height="2.77"/></g><rect class="cls-7" x="310" y="424.55" width="46.51" height="11.31"/><rect class="cls-8" x="310" y="424.55" width="7.58" height="11.31"/><g class="cls-38"><rect class="cls-7" x="382.13" y="422.71" width="5.82" height="13.15"/></g><rect class="cls-4" x="307.9" y="437.7" width="84.05" height="13.15" rx="0.62" ry="0.62"/><g class="cls-39"><rect class="cls-6" x="307.9" y="449.01" width="84.05" height="2.77"/></g><rect class="cls-7" x="313.76" y="437.7" width="46.51" height="11.31"/><rect class="cls-8" x="314.16" y="437.7" width="7.58" height="11.31"/><g class="cls-39"><rect class="cls-7" x="386.3" y="435.86" width="5.82" height="13.15"/></g><rect class="cls-4" x="305.13" y="450.85" width="84.05" height="13.15" rx="0.62" ry="0.62"/><g class="cls-40"><rect class="cls-6" x="305.13" y="462.15" width="84.05" height="2.77"/></g><rect class="cls-7" x="311.25" y="450.85" width="46.51" height="11.31"/><rect class="cls-8" x="311.39" y="450.85" width="7.58" height="11.31"/><g class="cls-40"><rect class="cls-7" x="383.52" y="449.01" width="5.82" height="13.15"/></g><polygon class="cls-13" points="344.63 419.81 329.26 417.13 323.79 431.75 326.46 416.38 311.86 410.91 327.22 413.58 332.69 398.97 330.01 414.34 344.63 419.81"/><polygon class="cls-13" points="372.54 381.12 363.63 379.57 360.45 388.04 362.01 379.13 353.54 375.96 362.45 377.51 365.62 369.04 364.07 377.95 372.54 381.12"/><path class="cls-21" d="M89,219.62l-.29-.11h0c-.08,0-2.44-.6-2.82,1.6,0,0-1.17,5.24,1.17,8.6h0c6.24,12.74,17.15,17.48,30.48,19.4a1.1,1.1,0,0,0,.63-.09l.48-.23C106.28,243.29,96.95,234,90.53,221A5.1,5.1,0,0,0,89,219.62Z"/><path class="cls-26" d="M169.21,203.8c-10.22-4.37-54.46,30.83-61.5,37.95C96.28,256.21,159.28,287,185.6,284.13,188.33,273.21,179.4,208.15,169.21,203.8Z"/><path class="cls-27" d="M167.39,208.86c-8.89-3.72-45,23.76-52.55,33.34-10.08,12.63,63.46,42.89,66.59,32.55C183.64,266.22,176.26,212.57,167.39,208.86Z"/><path class="cls-4" d="M107.29,242.11c-.6.62.71-.44.16.18-3.92,4.39-6.49,8.87-5.85,12.87,1.75,10.79,22.17,20.2,32.2,24.7s39.74,17.57,48,11.29c1.88-1.42,3.06-3.91,3.76-7C169.32,288.1,97.69,257.82,107.29,242.11Z"/><g class="cls-41"><polygon class="cls-7" points="143.44 291.52 151 273 112.34 247.74 101.31 266.62 143.44 291.52"/><polygon class="cls-8" points="109.31 270.33 120.07 252.91 111.89 247.25 100.75 266.04 109.31 270.33"/><polygon class="cls-7" points="186.57 298.39 193.99 280.52 176.51 279.45 170.85 297.1 186.57 298.39"/></g><g class="cls-28"><g class="cls-42"><polygon class="cls-8" points="136.26 213.05 176.01 290.03 163.39 288.62 129.16 216.04 136.26 213.05"/><polygon class="cls-8" points="186.88 288.87 144.42 205.88 138.85 210.77 181.84 291.15 186.88 288.87"/></g></g><path class="cls-21" d="M84,253.42a.48.48,0,0,0-.37.22c-1,1.51-6.75,11.54,3.74,28.39,6.53,11-.26,26.59-4.13,34.31a1.54,1.54,0,0,0,2.59,1.55c4-4,7.36-9.24,11.86-20.47l0-.06c3.64-13.71,1.52-40.59,1.19-44.52a.49.49,0,0,0-.53-.45Z"/><path class="cls-22" d="M103.08,244.39c12.4,17.71,10.58,45.14,1.58,73.54a1.5,1.5,0,0,1-2.93-.46c.1-25.52-4.62-46-15.36-62.62a.44.44,0,0,1,.13-.61l16-10A.44.44,0,0,1,103.08,244.39Z"/><path class="cls-43" d="M82.43,256.49c0,5.93,6,10.73,13.32,10.73s12.37-4.94,12.37-10.87-5-10.59-12.37-10.59Z"/><path class="cls-21" d="M96.14,204.14h.79a2.39,2.39,0,0,1,2.39,2.39v13.93a2.4,2.4,0,0,1-2.4,2.4h-.78a2.4,2.4,0,0,1-2.4-2.4V206.54A2.4,2.4,0,0,1,96.14,204.14Z" transform="translate(193.07 427) rotate(180)"/><ellipse class="cls-22" cx="97.38" cy="202.63" rx="7.12" ry="7.12"/><path class="cls-23" d="M104.72,247.25s-3-4.19-14.18-.64l-.15,0a18.61,18.61,0,0,1-2,.87c-2.26,1.29-5.72,4.25-6.76,10.63,0,.14,0,.28-.08.42-.23,1-1.2,6,.86,13a34.43,34.43,0,0,0,2.69,6.59c7.36,2.26,16.39,1.42,26.77-1.93A78,78,0,0,0,111,265a50,50,0,0,0-3.4-12.41S106.08,248.61,104.72,247.25Z"/><path class="cls-31" d="M105.54,248.34a9.52,9.52,0,0,1-1.74-3.9c-.62-6.66,1.15-15.65,3.85-25.49a26.1,26.1,0,0,0-19.93,0c-3,8.77-1.36,19.22,2.87,26.94,0,.05.55.54-2.17,1.63,1.38.85,6.93,2,10.06,2C103.5,249.56,105.54,248.34,105.54,248.34Z"/><path class="cls-23" d="M89.41,214a3.29,3.29,0,0,0-.31,1.43,2.9,2.9,0,0,0,1.2,2.47,2.16,2.16,0,0,0,0,.44,2.18,2.18,0,0,0,4.36,0c0-.06,0-.11,0-.16,1.79-.17,3.21-2,3.21-4.2a4.74,4.74,0,0,0-.86-2.77h-.08a.44.44,0,0,0,0-.09l.07.09h.13a2.47,2.47,0,0,0,2.47-2.47,2.39,2.39,0,0,0-.2-1,7.23,7.23,0,0,0,3.1-6c0-.18,0-.35,0-.53a4,4,0,0,0,.89-2.53,4.6,4.6,0,0,0-4.8-4.36,5.09,5.09,0,0,0-1.89.36,5.64,5.64,0,0,0-.87-.07,6.91,6.91,0,0,0-6.69,7.12,7.36,7.36,0,0,0,1.28,4.18,5,5,0,0,0-2.44,4.39A5.14,5.14,0,0,0,89.41,214Z"/><path class="cls-44" d="M96.87,211.19H97l-.07-.09A.44.44,0,0,1,96.87,211.19Z"/><path class="cls-44" d="M96.87,211.19H97l-.07-.09A.44.44,0,0,1,96.87,211.19Z"/><path class="cls-22" d="M108.54,220c5.42,12.49,15.84,22.62,26.36,30a1.27,1.27,0,0,1-1.17,2.23c-11.25-4.24-22.6-11.11-29.79-20a10.25,10.25,0,0,1-.59-12.2h0a3.29,3.29,0,0,1,4.37-1.1A2.77,2.77,0,0,1,108.54,220Z"/><polygon class="cls-13" points="173.66 210 164.75 208.45 161.58 216.92 163.13 208.01 154.66 204.84 163.57 206.39 166.74 197.92 165.19 206.83 173.66 210"/><polygon class="cls-13" points="270.16 84.62 255.88 82.13 250.8 95.71 253.29 81.43 239.71 76.34 253.99 78.83 259.07 65.25 256.58 79.54 270.16 84.62"/><rect class="cls-4" x="23.17" y="317.87" width="84.05" height="13.15" rx="0.62" ry="0.62" transform="translate(15.37 -2.71) rotate(2.7)"/><g class="cls-45"><rect class="cls-6" x="22.88" y="329.17" width="84.05" height="2.77" transform="translate(15.66 -2.69) rotate(2.7)"/></g><rect class="cls-7" x="28.95" y="317.26" width="46.51" height="11.31" transform="translate(15.29 -2.1) rotate(2.7)"/><rect class="cls-8" x="29.51" y="316.36" width="7.58" height="11.31" transform="translate(15.22 -1.21) rotate(2.7)"/><g class="cls-45"><rect class="cls-7" x="101.61" y="317.89" width="5.82" height="13.15" transform="matrix(1, 0.05, -0.05, 1, 15.42, -4.57)"/></g><rect class="cls-4" x="9.13" y="331.53" width="84.05" height="13.15" rx="0.62" ry="0.62" transform="translate(9.18 -1.26) rotate(1.55)"/><g class="cls-46"><rect class="cls-6" x="8.97" y="342.83" width="84.05" height="2.77" transform="translate(9.34 -1.26) rotate(1.55)"/></g><rect class="cls-7" x="14.88" y="331.17" width="46.51" height="11.31" transform="translate(9.14 -0.91) rotate(1.55)"/><rect class="cls-8" x="15.43" y="330.66" width="7.58" height="11.31" transform="translate(9.12 -0.4) rotate(1.55)"/><g class="cls-46"><rect class="cls-7" x="87.56" y="330.75" width="5.82" height="13.15" transform="translate(9.17 -2.33) rotate(1.55)"/></g><rect class="cls-4" x="25.22" y="345.7" width="84.05" height="13.15" rx="0.62" ry="0.62"/><g class="cls-47"><rect class="cls-6" x="25.22" y="357.01" width="84.05" height="2.77"/></g><rect class="cls-7" x="30.94" y="345.7" width="46.51" height="11.31"/><rect class="cls-8" x="31.48" y="345.7" width="7.58" height="11.31"/><g class="cls-47"><rect class="cls-7" x="103.61" y="343.86" width="5.82" height="13.15"/></g><rect class="cls-4" x="3.47" y="358.84" width="84.05" height="13.15" rx="0.62" ry="0.62"/><g class="cls-48"><rect class="cls-6" x="3.47" y="370.15" width="84.05" height="2.77"/></g><rect class="cls-7" x="9.19" y="358.84" width="46.51" height="11.31"/><rect class="cls-8" x="9.73" y="358.84" width="7.58" height="11.31"/><g class="cls-48"><rect class="cls-7" x="81.87" y="357.01" width="5.82" height="13.15"/></g><rect class="cls-4" x="17.61" y="371.99" width="84.05" height="13.15" rx="0.62" ry="0.62"/><g class="cls-49"><rect class="cls-6" x="17.61" y="383.3" width="84.05" height="2.77"/></g><rect class="cls-7" x="23.33" y="371.99" width="46.51" height="11.31"/><rect class="cls-8" x="23.87" y="371.99" width="7.58" height="11.31"/><g class="cls-49"><rect class="cls-7" x="96.01" y="370.15" width="5.82" height="13.15"/></g><rect class="cls-4" x="3.72" y="385.14" width="84.05" height="13.15" rx="0.62" ry="0.62"/><g class="cls-50"><rect class="cls-6" x="3.72" y="396.44" width="84.05" height="2.77"/></g><rect class="cls-7" x="9.44" y="385.14" width="46.51" height="11.31"/><rect class="cls-8" x="9.98" y="385.14" width="7.58" height="11.31"/><g class="cls-50"><rect class="cls-7" x="82.12" y="383.3" width="5.82" height="13.15"/></g><rect class="cls-4" x="14.84" y="398.28" width="84.05" height="13.15" rx="0.62" ry="0.62"/><g class="cls-51"><rect class="cls-6" x="14.84" y="409.59" width="84.05" height="2.77"/></g><rect class="cls-7" x="20.55" y="398.28" width="46.51" height="11.31"/><rect class="cls-8" x="21.1" y="398.28" width="7.58" height="11.31"/><g class="cls-51"><rect class="cls-7" x="93.23" y="396.44" width="5.82" height="13.15"/></g><rect class="cls-4" x="16.22" y="411.43" width="84.05" height="13.15" rx="0.62" ry="0.62"/><g class="cls-52"><rect class="cls-6" x="16.22" y="422.74" width="84.05" height="2.77"/></g><rect class="cls-7" x="21.94" y="411.43" width="46.51" height="11.31"/><rect class="cls-8" x="22.49" y="411.43" width="7.58" height="11.31"/><g class="cls-52"><rect class="cls-7" x="94.62" y="409.59" width="5.82" height="13.15"/></g><rect class="cls-4" x="16.22" y="424.58" width="84.05" height="13.15" rx="0.62" ry="0.62"/><g class="cls-53"><rect class="cls-6" x="16.22" y="435.88" width="84.05" height="2.77"/></g><rect class="cls-7" x="21.94" y="424.58" width="46.51" height="11.31"/><rect class="cls-8" x="22.49" y="424.58" width="7.58" height="11.31"/><g class="cls-53"><rect class="cls-7" x="94.62" y="422.74" width="5.82" height="13.15"/></g><rect class="cls-4" x="24.56" y="437.72" width="84.05" height="13.15" rx="0.62" ry="0.62"/><g class="cls-54"><rect class="cls-6" x="24.56" y="449.03" width="84.05" height="2.77"/></g><rect class="cls-7" x="30.28" y="437.72" width="46.51" height="11.31"/><rect class="cls-8" x="30.82" y="437.72" width="7.58" height="11.31"/><g class="cls-54"><rect class="cls-7" x="102.96" y="435.88" width="5.82" height="13.15"/></g><rect class="cls-4" x="21.78" y="450.87" width="84.05" height="13.15" rx="0.62" ry="0.62"/><g class="cls-55"><rect class="cls-6" x="21.78" y="462.17" width="84.05" height="2.77"/></g><rect class="cls-7" x="27.5" y="450.87" width="46.51" height="11.31"/><rect class="cls-8" x="28.04" y="450.87" width="7.58" height="11.31"/><g class="cls-55"><rect class="cls-7" x="100.18" y="449.03" width="5.82" height="13.15"/></g><rect class="cls-4" x="24.56" y="464.01" width="84.05" height="13.15" rx="0.62" ry="0.62"/><g class="cls-56"><rect class="cls-6" x="24.56" y="475.32" width="84.05" height="2.77"/></g><rect class="cls-7" x="30.28" y="464.01" width="46.51" height="11.31"/><rect class="cls-8" x="30.82" y="464.01" width="7.58" height="11.31"/><g class="cls-56"><rect class="cls-7" x="102.96" y="462.17" width="5.82" height="13.15"/></g><polygon class="cls-13" points="55.97 363.06 40.6 360.39 35.13 375 37.81 359.63 23.2 354.16 38.57 356.84 44.04 342.23 41.36 357.6 55.97 363.06"/><polygon class="cls-13" points="76.03 453.48 60.66 450.8 55.19 465.41 57.87 450.05 43.26 444.58 58.62 447.25 64.09 432.64 61.42 448.01 76.03 453.48"/><path class="cls-26" d="M176.29,357.78c-4.79-10-61.26-12.81-71.24-12.11-18.14,3.31,8.87,68,30.5,83.26C144.82,422.53,181.07,367.78,176.29,357.78Z"/><path class="cls-27" d="M171.59,360.37c-4.22-8.67-49.52-11.9-61.48-9.66-15.91,2.83,19.33,74.12,28.51,68.42C145.91,414.18,175.8,369,171.59,360.37Z"/><path class="cls-4" d="M104.5,345.66c-.86.07.83.14,0,.24-5.84.71-10.73,2.38-12.89,5.8-5.81,9.25,3.31,29.81,7.87,39.81s18.24,39.44,28.61,40.19c2.35.17,4.88-.91,7.46-2.79C120.71,421.16,86.91,351.12,104.5,345.66Z"/><g class="cls-57"><polygon class="cls-7" points="99.01 406.63 116.92 397.72 104.57 353.23 83.82 360.12 99.01 406.63"/><polygon class="cls-8" points="87.38 368.19 106.97 362.21 104.55 352.56 83.78 359.32 87.38 368.19"/><polygon class="cls-7" points="126.87 440.28 144.24 431.76 131.82 419.41 115.91 428.93 126.87 440.28"/></g><g class="cls-28"><g class="cls-58"><polygon class="cls-8" points="145.44 342.97 124.45 427.02 115.91 417.63 138.13 340.53 145.44 342.97"/><polygon class="cls-8" points="133.38 433.33 156.3 342.97 148.9 342.97 128.09 431.71 133.38 433.33"/></g></g><polygon class="cls-13" points="131.75 355.7 116.38 353.02 110.92 367.63 113.59 352.27 98.98 346.8 114.35 349.48 119.82 334.87 117.14 350.23 131.75 355.7"/><rect class="cls-4" x="106.49" y="426.77" width="84.05" height="13.15" rx="0.62" ry="0.62"/><g class="cls-59"><rect class="cls-6" x="106.49" y="438.08" width="84.05" height="2.77"/></g><rect class="cls-7" x="112.48" y="426.77" width="46.51" height="11.31"/><rect class="cls-8" x="112.75" y="426.77" width="7.58" height="11.31"/><g class="cls-59"><rect class="cls-7" x="184.89" y="424.94" width="5.82" height="13.15"/></g><rect class="cls-4" x="109.27" y="439.92" width="84.05" height="13.15" rx="0.62" ry="0.62"/><g class="cls-60"><rect class="cls-6" x="109.27" y="451.23" width="84.05" height="2.77"/></g><rect class="cls-7" x="114.99" y="439.92" width="46.51" height="11.31"/><rect class="cls-8" x="115.53" y="439.92" width="7.58" height="11.31"/><g class="cls-60"><rect class="cls-7" x="187.66" y="438.08" width="5.82" height="13.15"/></g><rect class="cls-4" x="103.71" y="453.07" width="84.05" height="13.15" rx="0.62" ry="0.62"/><g class="cls-61"><rect class="cls-6" x="103.71" y="464.37" width="84.05" height="2.77"/></g><rect class="cls-7" x="109.97" y="453.07" width="46.51" height="11.31"/><rect class="cls-8" x="109.97" y="453.07" width="7.58" height="11.31"/><g class="cls-61"><rect class="cls-7" x="182.11" y="451.23" width="5.82" height="13.15"/></g><rect class="cls-4" x="109.27" y="466.21" width="84.05" height="13.15" rx="0.62" ry="0.62"/><g class="cls-62"><rect class="cls-6" x="109.27" y="477.52" width="84.05" height="2.77"/></g><rect class="cls-7" x="114.99" y="466.21" width="46.51" height="11.31"/><rect class="cls-8" x="115.53" y="466.21" width="7.58" height="11.31"/><g class="cls-62"><rect class="cls-7" x="187.66" y="464.37" width="5.82" height="13.15"/></g><polygon class="cls-13" points="128.82 449.99 119.91 448.43 116.74 456.91 118.29 448 109.82 444.82 118.73 446.38 121.9 437.9 120.35 446.82 128.82 449.99"/><rect class="cls-4" x="168.09" y="438.43" width="84.05" height="13.15" rx="0.62" ry="0.62" transform="translate(404.54 -7.08) rotate(48.55)"/><g class="cls-63"><rect class="cls-6" x="163.5" y="447.67" width="84.05" height="2.77" transform="translate(406.03 -2.27) rotate(48.55)"/></g><rect class="cls-7" x="179.09" y="429.16" width="46.51" height="11.31" transform="translate(394.28 -4.7) rotate(48.55)"/><rect class="cls-8" x="185.85" y="414.77" width="7.58" height="11.31" transform="translate(379.2 -0.04) rotate(48.55)"/><g class="cls-63"><rect class="cls-7" x="234.59" y="466.65" width="5.82" height="13.15" transform="translate(434.94 -18.06) rotate(48.55)"/></g><polygon class="cls-13" points="206.93 429.03 191.56 426.35 186.09 440.96 188.77 425.59 174.16 420.12 189.53 422.8 195 408.19 192.32 423.56 206.93 429.03"/></g></g></g></svg>