<svg xmlns="http://www.w3.org/2000/svg" xmlns:xlink="http://www.w3.org/1999/xlink" viewBox="0 0 560 560"><defs><style>.cls-1{fill:none;}.cls-2{fill:#f6f4f2;}.cls-3{isolation:isolate;}.cls-4{fill:#d3ddcc;}.cls-5{fill:#fff;}.cls-6{clip-path:url(#clip-path);}.cls-7{fill:#e9ba9a;}.cls-8{fill:#dcdad9;}.cls-9{fill:#333;}.cls-10{clip-path:url(#clip-path-2);}.cls-11{fill:#ffc776;}.cls-12{fill:#d2a57f;}.cls-13{fill:#e5f1dd;}.cls-14{clip-path:url(#clip-path-3);}.cls-15{fill:#ebc7af;}.cls-16{fill:#444445;}.cls-17{fill:#e1baa0;}.cls-18{fill:#575761;}.cls-19{fill:#e4fde1;}.cls-20{clip-path:url(#clip-path-4);}.cls-21{opacity:0.8;mix-blend-mode:multiply;}.cls-22{fill:#3a8585;}.cls-23{clip-path:url(#clip-path-5);}.cls-24{fill:#daaa6a;}.cls-25{clip-path:url(#clip-path-6);}.cls-26{clip-path:url(#clip-path-7);}</style><clipPath id="clip-path"><path id="_Clipping_Path_" data-name="&lt;Clipping Path&gt;" class="cls-1" d="M69.25,179.37c11.93-19.7,25.07-32.1,38.52-42.64a1.26,1.26,0,0,1,1.79,1.76c-11.4,15.11-22.06,30.83-29.29,49.37a7,7,0,0,1-11.12,1.05h0A7,7,0,0,1,69.25,179.37Z"/></clipPath><clipPath id="clip-path-2"><path id="_Clipping_Path_2" data-name="&lt;Clipping Path&gt;" class="cls-2" d="M5.78,250.46c7.92,1.32,25.31-.3,37.83-3A86.67,86.67,0,0,0,67,238a41.11,41.11,0,0,0,18.31-24.19s3.66-13.09,3.74-13.54c4.36-26.95-9.51-25.09-9.51-25.09-10.56.69-14.18,6.92-17.74,25.08-1.28,6.5-2.07,9.68-3.82,13.36a39.71,39.71,0,0,1-6.74,9.87A79.09,79.09,0,0,1,6.85,247.69C4.06,248.16,3,250,5.78,250.46Z"/></clipPath><clipPath id="clip-path-3"><path id="_Clipping_Path_3" data-name="&lt;Clipping Path&gt;" class="cls-1" d="M78.18,179.72c9.54-10.54,19.66-27.19,29.87-44.83a1.19,1.19,0,0,1,2.19.87c-4.66,19.56-10.35,38.27-20.85,53a7.17,7.17,0,0,1-8.2,2.61l-.08,0A7.17,7.17,0,0,1,78.18,179.72Z"/></clipPath><clipPath id="clip-path-4"><path class="cls-1" d="M473.24,374l-39.17,14.44a3.47,3.47,0,0,1-.64-1.08,4.82,4.82,0,0,1,.9-4.32c3.72-3.5,5.21-7.58,4-10.93-2.05-5.57-11-7.41-20-4.1s-14.62,10.54-12.57,16.11c1.23,3.34,5,5.47,10.12,5.74a4.82,4.82,0,0,1,3.49,2.7,3.47,3.47,0,0,1,.21,1.23l-39.17,14.44,14.8,40.16.51.06a5.32,5.32,0,0,0,2.53-.27,6.49,6.49,0,0,0,3.77-4.73l0-.09v-.09c.2-4.45,1.93-7.7,4.63-8.7,2.2-.81,4.84-.11,7.44,2a24.09,24.09,0,0,1,7.78,21.1c-.62,3.27-2.17,5.52-4.37,6.33-2.7,1-6.13-.35-9.17-3.61l-.14-.12a6.49,6.49,0,0,0-5.93-1.15,5.31,5.31,0,0,0-2.1,1.44l-.34.38,14.8,40.16,92.87-34.23-14.64-39.71-.78.29.1-.8a5.42,5.42,0,0,0-2.53.27,6.48,6.48,0,0,0-3.77,4.72l0,.09v.09c-.2,4.45-1.93,7.7-4.63,8.7-4.69,1.73-10.95-3.46-13.94-11.57A22.16,22.16,0,0,1,466,417.43c.62-3.27,2.17-5.52,4.37-6.33,2.7-1,6.13.35,9.17,3.61l.14.12A6.48,6.48,0,0,0,485.6,416a5.31,5.31,0,0,0,2.1-1.44l-.58-.53.76-.3Z"/></clipPath><clipPath id="clip-path-5"><path id="_Clipping_Path_4" data-name="&lt;Clipping Path&gt;" class="cls-1" d="M387,73.86l-7.06-4.68a8.3,8.3,0,0,0-7.31-.92l-27.54,9.59a.93.93,0,0,0,.4,1.81l29.07-3.09,7.29,5a4.62,4.62,0,0,0,6.36-1.13h0A4.62,4.62,0,0,0,387,73.86Z"/></clipPath><clipPath id="clip-path-6"><path id="_Clipping_Path_5" data-name="&lt;Clipping Path&gt;" class="cls-1" d="M394.24,83.22h0a4.72,4.72,0,0,1,4.26,4.09c2.07,19.51-5.84,39.11-21.58,58.8-.92,1.15-2.76.26-2.13-1,8.88-18,13.79-36.55,12.68-56.11C387.29,85.61,390.66,82.75,394.24,83.22Z"/></clipPath><clipPath id="clip-path-7"><path class="cls-1" d="M498,115.48c-3.56,0-6.88,2.8-8.88,7.51-1.42,2-3.27,2.75-5,2.11V83.36H441.86v.83l-.72-.37a5.3,5.3,0,0,0-.62,2.47,6.49,6.49,0,0,0,3.13,5.17l.16.09c4.11,1.72,6.56,4.47,6.56,7.36,0,5-7,9.08-15.67,9.08S419,103.9,419,98.9c0-2.88,2.45-5.63,6.56-7.36l.16-.09a6.49,6.49,0,0,0,3.13-5.17,5.3,5.3,0,0,0-.62-2.47l-.71.37v-.83H345a3.48,3.48,0,0,1-.23-1.23,4.83,4.83,0,0,1,2.34-3.74c4.7-2,7.51-5.31,7.51-8.88,0-5.94-7.79-10.77-17.37-10.77s-17.37,4.83-17.37,10.77c0,3.56,2.8,6.88,7.51,8.88a4.83,4.83,0,0,1,2.34,3.74,3.48,3.48,0,0,1-.23,1.23H247.8v.83l-.72-.37a5.3,5.3,0,0,0-.62,2.47,6.49,6.49,0,0,0,3.13,5.17l.16.09c4.11,1.72,6.56,4.47,6.56,7.36,0,5-7,9.08-15.67,9.08S225,103.9,225,98.9c0-2.88,2.45-5.63,6.56-7.36l.16-.09a6.49,6.49,0,0,0,3.13-5.17,5.3,5.3,0,0,0-.62-2.47l-.71.37v-.83H191.14V125.1c-1.7.64-3.55-.13-5-2.11-2-4.7-5.31-7.51-8.88-7.51-5.94,0-10.77,7.79-10.77,17.37s4.83,17.37,10.77,17.37c3.57,0,6.88-2.8,8.88-7.51,1.42-2,3.27-2.75,5-2.11v40H150.51v.83l-.72-.37a5.3,5.3,0,0,0-.62,2.47,6.49,6.49,0,0,0,3.13,5.17l.16.09c4.11,1.72,6.56,4.47,6.56,7.36,0,5-7,9.08-15.67,9.08s-15.67-4.07-15.67-9.08c0-2.88,2.45-5.63,6.56-7.36l.16-.09a6.48,6.48,0,0,0,3.13-5.17,5.3,5.3,0,0,0-.62-2.47l-.71.37v-.83H93.85v41.74c-1.71.64-3.55-.13-5-2.11-2-4.7-5.32-7.51-8.88-7.51-5.94,0-10.77,7.79-10.77,17.37S74.06,247.5,80,247.5c3.56,0,6.88-2.8,8.88-7.51,1.42-2,3.26-2.75,5-2.11v41.74h0v40.32l.45.24a5.55,5.55,0,0,0,6.83-1.52,8.09,8.09,0,0,0,.81-1l.08-.15c1.72-4.1,4.47-6.55,7.36-6.55,5,0,9.09,7,9.09,15.67a22.19,22.19,0,0,1-2.67,11c-1.71,3-4,4.66-6.42,4.66-2.89,0-5.64-2.45-7.36-6.55l-.09-.16c-2-2.88-5.07-3.84-7.63-2.5l-.45.24v42.8h.35v39.95a3.48,3.48,0,0,1-1.23.23A4.88,4.88,0,0,1,89.24,414c-2-4.7-5.31-7.51-8.88-7.51-5.94,0-10.77,7.79-10.77,17.37s4.83,17.37,10.77,17.37c3.57,0,6.88-2.8,8.88-7.51A4.88,4.88,0,0,1,93,431.34a3.48,3.48,0,0,1,1.23.23V473.3H290.44v-.16h40.43l.24-.45a5.31,5.31,0,0,0,.62-2.47,6.49,6.49,0,0,0-3.13-5.17l-.16-.09c-4.11-1.73-6.56-4.47-6.56-7.36,0-5,7-9.08,15.67-9.08s15.67,4.07,15.67,9.08c0,2.88-2.45,5.63-6.56,7.36l-.16.09a6.49,6.49,0,0,0-3.13,5.17,5.3,5.3,0,0,0,.62,2.47l.24.46h42.8V431.4c1.71-.64,3.55.13,5,2.11,2,4.7,5.31,7.51,8.88,7.51,5.94,0,10.77-7.79,10.77-17.37s-4.83-17.37-10.77-17.37c-3.56,0-6.88,2.8-8.88,7.51-1.42,2-3.26,2.75-5,2.11v-39h41l.24-.45a5.31,5.31,0,0,0,.62-2.47,6.49,6.49,0,0,0-3.13-5.17l-.16-.09c-4.11-1.72-6.56-4.47-6.56-7.36,0-5,7-9.08,15.67-9.08s15.67,4.07,15.67,9.08c0,2.88-2.45,5.63-6.56,7.36l-.16.09a6.49,6.49,0,0,0-3.13,5.17,5.3,5.3,0,0,0,.62,2.47l.24.46h42.8v-99h0V237.28h-.83l.37-.72c-2.59-1.35-5.59-.4-7.64,2.51l-.09.16c-1.72,4.11-4.47,6.56-7.36,6.56-5,0-9.08-7-9.08-15.67s4.07-15.67,9.08-15.67c2.88,0,5.63,2.45,7.36,6.56l.09.16c2,2.91,5,3.85,7.64,2.51l-.37-.71h.83V140.6c1.7-.64,3.54.13,5,2.11,2,4.7,5.32,7.51,8.88,7.51,5.94,0,10.77-7.79,10.77-17.37S504,115.48,498,115.48Z"/></clipPath></defs><title>Benefit Icons_v4</title><g class="cls-3"><g id="Improves_Presentation" data-name="Improves Presentation"><path class="cls-4" d="M167,453.16h0v-6.24h0v-.19h0l0-6.25-8.45,0,0-5.84h-3.35v-.31h0V433h5.08v-1.56h0v-1.56h0v-2.7h0v-1.56h0v-1.56h0v-6.24h0v-.19h0l0-6.25h-1.67v-2.3h0v-.19h0l0-6.25-8.45,0v-4.91H146.7v-5.21h0v-.19h0l0-6.25H143.3v-2.92H141.6v-.73h0V381h0v-1H142v-1.56h0V377h3.39v-1.56h0v-1.56h0v-6.24h0v-.19h0l0-6.25H142v-.31h0v-1.56h0v-2.7h1.7v-1.56h0v-.69l10.15,0v-1.56h0v-1.56h0V345h0v-.19h0l0-6.25h-3.38V335.7l-17.31,0v-.4h0v-.19h0l0-6.25-7.58,0v-1.34h0V326h0v-1l19,0v-1.56h0v-1.56h0v-6.24h0v-.19h0l0-6.25h-6.31v-1.23h0v-.19h0l0-6.25-9.29,0v-5.11L95,296.5l18.52-4.25-.35-1.52h0l-.35-1.52h0l-1.4-6.09h0l0-.18h0l-1.4-6.09-41.22,9.45-14,3.22L13.53,299l.35,1.52h0l.35,1.52h0l2.84,12.36,9.49-2.18v1.38h0v1.34H23.16v1.56h0V318h0v2.7h0v1.56h0v1.56h0l0,12.68h1.68v2.91h4.21l0,8.4h6.74v.28h0l0,12.68h3.76l0,9.06-8.89,0v1.56h0v1.35h0V373h0v1.35h0v1.56h0l0,12.68,8.45,0v4.91h3.35v.31h0v1.35h0v.21h0v1.35h0v1.56h0v2.7h0v1.56h0V404h0l0,12.68,11.83,0v4.92h1.66v.31h0v1.34H52.77v1.56h0v1.56h0v2.7h0v1.56h0v1.56h0l0,12.68h1.68v2.91h1.66v.31h0v1.34H52.77V451h0v1.56h0l0,12.68,32.52-.07.15.08a.77.77,0,0,0-.54.82c0,.66,0,1.88,16.61,1.88h.76c4.43,0,8.6-.14,11.74-.36,5.06-.36,5.62-.78,5.62-1.59a.75.75,0,0,0-.47-.78l.19-.12,32.41-.07v-1.56h0V462.1h3.39v-1.56h0v-1.35h0V459h0v-1.35h0V456.3l11.85,0v-1.56h0ZM28.24,311.81V312h-.93Z"/><path id="_Path_" data-name="&lt;Path&gt;" class="cls-5" d="M69.25,179.37c11.93-19.7,25.07-32.1,38.52-42.64a1.26,1.26,0,0,1,1.79,1.76c-11.4,15.11-22.06,30.83-29.29,49.37a7,7,0,0,1-11.12,1.05h0A7,7,0,0,1,69.25,179.37Z"/><g id="_Clip_Group_" data-name="&lt;Clip Group&gt;"><g class="cls-6"><path id="_Path_2" data-name="&lt;Path&gt;" class="cls-7" d="M97.39,180.32c-4.8-11.58-17.05-19.72-35.33-23.56l39-31.8,26,11.62Z"/></g></g><path id="_Path_3" data-name="&lt;Path&gt;" class="cls-8" d="M82.9,216.83l-7.56,67.57a1.22,1.22,0,1,1-2.44,0c-2.07-19.21-8.56-54.76-19.24-62.36Z"/><path id="_Path_4" data-name="&lt;Path&gt;" class="cls-9" d="M5.78,250.46c7.92,1.32,25.31-.3,37.83-3A86.67,86.67,0,0,0,67,238a41.11,41.11,0,0,0,18.31-24.19s3.66-13.09,3.74-13.54c4.36-26.95-9.51-25.09-9.51-25.09-10.56.69-14.18,6.92-17.74,25.08-1.28,6.5-2.07,9.68-3.82,13.36a39.71,39.71,0,0,1-6.74,9.87A79.09,79.09,0,0,1,6.85,247.69C4.06,248.16,3,250,5.78,250.46Z"/><g id="_Clip_Group_2" data-name="&lt;Clip Group&gt;"><path id="_Clipping_Path_6" data-name="&lt;Clipping Path&gt;" class="cls-2" d="M5.78,250.46c7.92,1.32,25.31-.3,37.83-3A86.67,86.67,0,0,0,67,238a41.11,41.11,0,0,0,18.31-24.19s3.66-13.09,3.74-13.54c4.36-26.95-9.51-25.09-9.51-25.09-10.56.69-14.18,6.92-17.74,25.08-1.28,6.5-2.07,9.68-3.82,13.36a39.71,39.71,0,0,1-6.74,9.87A79.09,79.09,0,0,1,6.85,247.69C4.06,248.16,3,250,5.78,250.46Z"/><g class="cls-10"><path id="_Path_5" data-name="&lt;Path&gt;" class="cls-11" d="M99.15,219.1C73,224.28,64,220.66,49.73,211.25l-6.91-52.69,71-5.12Z"/></g></g><path id="_Path_6" data-name="&lt;Path&gt;" class="cls-12" d="M79.27,178.57l-.21.06a1.94,1.94,0,0,1-2.39-1.33c1.59-2.83-1.56-7.27-3.19-11.19a1.94,1.94,0,0,1,1.33-2.39l.21-.06A1.94,1.94,0,0,1,77.42,165c1.6,4.64,3.48,9.75,3.19,11.19A1.94,1.94,0,0,1,79.27,178.57Z"/><path id="_Path_7" data-name="&lt;Path&gt;" class="cls-13" d="M153.17,152.51a4.53,4.53,0,0,0,.41,2.1,5.62,5.62,0,0,0,4.41,2.88c4.63-.19,8.43,1.3,9.86,4.36,2.33,4.95-2.47,12.12-10.73,16a25.56,25.56,0,0,1-7.47,2.26c-5.45.72-10.09-.76-11.7-4.2-1.43-3.05-.15-6.93,2.94-10.38a5.65,5.65,0,0,0,.6-5.24,4.55,4.55,0,0,0-1.36-1.65l-37.5,17.65-41.42-88,37.5-17.65a4.54,4.54,0,0,0-.41-2.1,5.65,5.65,0,0,0-4.41-2.88c-4.63.21-8.43-1.3-9.86-4.34-2.33-5,2.47-12.14,10.73-16s16.84-3,19.17,1.94c1.43,3.05.15,6.93-2.94,10.38a5.65,5.65,0,0,0-.6,5.24,4.49,4.49,0,0,0,1.36,1.66l37.5-17.65,17.65,37.5a4.49,4.49,0,0,1-1.66,1.36,5.71,5.71,0,0,1-5.24-.6c-3.43-3.11-7.32-4.37-10.38-2.94-4.95,2.33-5.82,10.91-1.94,19.17s11.05,13.06,16,10.73c3.05-1.43,4.55-5.23,4.34-9.86a5.66,5.66,0,0,1,2.88-4.41,4.61,4.61,0,0,1,2.11-.42l18.65,37.32Z"/><path class="cls-5" d="M147,181.13c-4.72,0-8.37-1.76-9.83-4.86s-.38-7.41,3-11.23a4.89,4.89,0,0,0,.53-4.38,3.55,3.55,0,0,0-.73-1l-37.77,17.77L60.1,87.85,97.86,70.08a3.53,3.53,0,0,0-.32-1.21,4.86,4.86,0,0,0-3.7-2.39c-5.05.21-9.05-1.6-10.57-4.83-1.26-2.68-.74-6,1.45-9.25a25.77,25.77,0,0,1,21.92-10.32c3.93.4,6.79,2.09,8,4.77,1.51,3.22.38,7.41-3,11.23a4.88,4.88,0,0,0-.53,4.38,3.56,3.56,0,0,0,.73,1l37.77-17.77,18.23,38.73-.31.41a5.35,5.35,0,0,1-2,1.62,6.53,6.53,0,0,1-6-.63l-.15-.11c-3.29-3-6.82-4-9.45-2.8-4.52,2.13-5.21,10.23-1.54,18s10.36,12.45,14.9,10.32c2.61-1.22,4.05-4.61,3.86-9.06v-.09l0-.09a6.48,6.48,0,0,1,3.35-5,5.39,5.39,0,0,1,2.5-.5h.51l19.26,38.55L154,153a3.48,3.48,0,0,0,.32,1.2,4.77,4.77,0,0,0,3.71,2.4c5.11-.19,9.06,1.62,10.57,4.85a8.06,8.06,0,0,1,.08,6.25C167.18,172,163,176,157.49,178.61a26.24,26.24,0,0,1-7.71,2.33A21,21,0,0,1,147,181.13Zm-6.78-23.47.41.31a5.41,5.41,0,0,1,1.61,2c.83,1.75.61,3.83-.63,6l-.11.15c-3,3.32-4,6.85-2.8,9.45,1.41,3,5.55,4.42,10.83,3.72a24.92,24.92,0,0,0,7.22-2.18c5-2.36,9-6.16,10.34-9.91a6.42,6.42,0,0,0,0-5c-1.22-2.61-4.61-4.05-9.07-3.87h-.09l-.09,0a6.43,6.43,0,0,1-5-3.36,5.34,5.34,0,0,1-.49-2.47V152l38.2-17.68-18-36.06a3.62,3.62,0,0,0-1.24.32,4.82,4.82,0,0,0-2.39,3.7c.2,5.11-1.6,9.06-4.83,10.57-5.38,2.53-13.07-2.47-17.14-11.13s-3-17.77,2.35-20.3c3.24-1.52,7.44-.39,11.23,3a4.87,4.87,0,0,0,4.38.53,3.49,3.49,0,0,0,1-.73L148.85,48l-37.2,17.51-.41-.31a5.33,5.33,0,0,1-1.61-2c-.83-1.75-.61-3.83.63-6l.11-.15c3-3.32,4-6.85,2.8-9.45-1-2.12-3.37-3.47-6.69-3.8a24.1,24.1,0,0,0-20.35,9.58c-1.85,2.77-2.32,5.46-1.33,7.59C86,63.54,89.45,65,93.86,64.79H94l.09,0a6.48,6.48,0,0,1,5,3.35,5.43,5.43,0,0,1,.5,2.48v.52L62.35,88.66,103,175.17Z"/><path id="_Path_8" data-name="&lt;Path&gt;" class="cls-5" d="M78.18,179.72c9.54-10.54,19.66-27.19,29.87-44.83a1.19,1.19,0,0,1,2.19.87c-4.66,19.56-10.35,38.27-20.85,53a7.17,7.17,0,0,1-8.2,2.61l-.08,0A7.17,7.17,0,0,1,78.18,179.72Z"/><g id="_Clip_Group_3" data-name="&lt;Clip Group&gt;"><g class="cls-14"><path id="_Path_9" data-name="&lt;Path&gt;" class="cls-15" d="M79.69,171.69c6.55,12.49,11.16,11.21,28.77,16l28.61-60.45L96.56,107.61Z"/></g></g><path id="_Path_10" data-name="&lt;Path&gt;" class="cls-15" d="M77.05,161.6a6.24,6.24,0,0,1,5,7.4c-.8,3.77-4.74,6.94-7.95,6.26S69,171,69.79,167.19,73.84,160.92,77.05,161.6Z"/><circle id="_Ellipse_" data-name="&lt;Ellipse&gt;" class="cls-16" cx="67.63" cy="163.1" r="5.82" transform="translate(-107.16 138.1) rotate(-59.34)"/><circle id="_Ellipse_2" data-name="&lt;Ellipse&gt;" class="cls-16" cx="65.01" cy="172.47" r="6.97" transform="translate(-116.5 140.45) rotate(-59.34)"/><circle id="_Ellipse_3" data-name="&lt;Ellipse&gt;" class="cls-16" cx="66.19" cy="160.7" r="6.65" transform="matrix(0.51, -0.86, 0.86, 0.51, -105.8, 135.69)"/><path id="_Path_11" data-name="&lt;Path&gt;" class="cls-16" d="M73.05,171s4.22,2,3.33,4.08c0,0-.81.79-3.6-.19S73.05,171,73.05,171Z"/><rect id="_Rectangle_" data-name="&lt;Rectangle&gt;" class="cls-11" x="64.59" y="167" width="14.98" height="1.57" rx="0.67" ry="0.67" transform="translate(-107.02 203.43) rotate(-78.01)"/><rect id="_Rectangle_2" data-name="&lt;Rectangle&gt;" class="cls-11" x="66.12" y="167.32" width="14.98" height="1.57" rx="0.67" ry="0.67" transform="translate(-106.12 205.19) rotate(-78.01)"/><circle id="_Ellipse_4" data-name="&lt;Ellipse&gt;" class="cls-16" cx="61.34" cy="168.72" r="10.24" transform="matrix(0.51, -0.86, 0.86, 0.51, -115.07, 135.45)"/><path id="_Path_12" data-name="&lt;Path&gt;" class="cls-13" d="M150.9,375.17h0a4.46,4.46,0,0,0-.52,2.06,5.66,5.66,0,0,0,2.77,4.48c4.27,1.79,7.08,4.77,7.08,8.14,0,5.48-7.4,9.92-16.52,9.92s-16.52-4.44-16.52-9.92c0-3.37,2.8-6.34,7.08-8.14a5.66,5.66,0,0,0,2.77-4.48,4.46,4.46,0,0,0-.53-2.08H95.05v41.44a4.46,4.46,0,0,1-2.08.53,5.66,5.66,0,0,1-4.48-2.77c-1.79-4.27-4.77-7.08-8.14-7.08-5.48,0-9.92,7.4-9.92,16.52s4.44,16.52,9.92,16.52c3.37,0,6.34-2.8,8.14-7.08A5.67,5.67,0,0,1,93,430.49a4.46,4.46,0,0,1,2.08.53v41.44h97.29V431a4.46,4.46,0,0,1,2.08-.53,5.66,5.66,0,0,1,4.48,2.77c1.79,4.27,4.77,7.08,8.14,7.08,5.48,0,9.92-7.4,9.92-16.52s-4.44-16.52-9.92-16.52c-3.37,0-6.34,2.8-8.14,7.08a5.66,5.66,0,0,1-4.48,2.77,4.46,4.46,0,0,1-2.08-.53V375.17H150.9Z"/><path class="cls-5" d="M193.19,473.3h-99V431.56a3.48,3.48,0,0,0-1.23-.23,4.88,4.88,0,0,0-3.74,2.34c-2,4.7-5.31,7.51-8.88,7.51-5.94,0-10.77-7.79-10.77-17.37s4.83-17.37,10.77-17.37c3.56,0,6.88,2.8,8.88,7.51A4.88,4.88,0,0,0,93,416.29a3.48,3.48,0,0,0,1.23-.23V374.32H137l.24.46a5.32,5.32,0,0,1,.62,2.47,6.49,6.49,0,0,1-3.13,5.17l-.16.09c-4.11,1.72-6.56,4.47-6.56,7.36,0,5,7,9.08,15.67,9.08s15.67-4.07,15.67-9.08c0-2.88-2.45-5.63-6.56-7.36l-.16-.09a6.49,6.49,0,0,1-3.13-5.18,5.28,5.28,0,0,1,.58-2.39l.19-.28.25-.25h42.64v41.74c1.71.64,3.54-.13,5-2.11,2-4.7,5.32-7.51,8.88-7.51,5.94,0,10.77,7.79,10.77,17.37S213,441.18,207,441.18c-3.56,0-6.88-2.8-8.88-7.51-1.42-2-3.26-2.75-5-2.11ZM95.9,471.61h95.6V430.5l.45-.24c2.59-1.35,5.59-.4,7.64,2.5l.09.16c1.72,4.11,4.47,6.56,7.36,6.56,5,0,9.08-7,9.08-15.67S212,408.14,207,408.14c-2.88,0-5.63,2.45-7.36,6.56l-.09.16c-2,2.91-5.05,3.85-7.64,2.5l-.45-.24V376h-40a3.5,3.5,0,0,0-.23,1.23,4.88,4.88,0,0,0,2.34,3.74c4.7,2,7.51,5.31,7.51,8.88,0,5.94-7.79,10.77-17.37,10.77s-17.37-4.83-17.37-10.77c0-3.57,2.8-6.88,7.51-8.88a4.83,4.83,0,0,0,2.34-3.74A3.49,3.49,0,0,0,136,376H95.9v41.11l-.45.24c-2.59,1.35-5.59.4-7.64-2.51l-.09-.16c-1.72-4.11-4.47-6.56-7.36-6.56-5,0-9.08,7-9.08,15.67s4.07,15.67,9.08,15.67c2.88,0,5.63-2.45,7.36-6.56l.09-.16c2-2.91,5-3.85,7.64-2.5l.45.24Z"/><path id="_Path_13" data-name="&lt;Path&gt;" class="cls-13" d="M206.68,213.62c-3.37,0-6.34,2.8-8.14,7.08a5.66,5.66,0,0,1-4.48,2.77,4.46,4.46,0,0,1-2.08-.53V181.49H150.54a4.46,4.46,0,0,0-.53,2.08,5.66,5.66,0,0,0,2.77,4.48c4.27,1.79,7.08,4.77,7.08,8.14,0,5.48-7.4,9.92-16.52,9.92s-16.52-4.44-16.52-9.92c0-3.37,2.8-6.34,7.08-8.14a5.66,5.66,0,0,0,2.77-4.48,4.46,4.46,0,0,0-.53-2.08H94.7v41.44a4.46,4.46,0,0,1-2.08.53,5.66,5.66,0,0,1-4.48-2.77c-1.79-4.27-4.77-7.08-8.14-7.08-5.48,0-9.92,7.4-9.92,16.52s4.44,16.52,9.92,16.52c3.37,0,6.34-2.8,8.14-7.08a5.66,5.66,0,0,1,4.48-2.77,4.46,4.46,0,0,1,2.08.53v41.44h41.44a4.46,4.46,0,0,0,.53-2.08,5.66,5.66,0,0,0-2.77-4.48c-4.27-1.79-7.08-4.77-7.08-8.14,0-5.48,7.4-9.92,16.52-9.92s16.52,4.44,16.52,9.92c0,3.37-2.8,6.34-7.08,8.14A5.66,5.66,0,0,0,150,276.7a4.46,4.46,0,0,0,.53,2.08H192V237.34a4.46,4.46,0,0,1,2.08-.53,5.66,5.66,0,0,1,4.48,2.77c1.79,4.27,4.77,7.08,8.14,7.08,5.48,0,9.92-7.4,9.92-16.52S212.16,213.62,206.68,213.62Z"/><path class="cls-5" d="M192.83,279.63H150l-.24-.46a5.32,5.32,0,0,1-.62-2.47,6.49,6.49,0,0,1,3.13-5.17l.16-.09c4.11-1.72,6.56-4.47,6.56-7.36,0-5-7-9.08-15.67-9.08s-15.67,4.07-15.67,9.08c0,2.88,2.45,5.63,6.56,7.36l.16.09a6.49,6.49,0,0,1,3.13,5.17,5.31,5.31,0,0,1-.62,2.47l-.24.45H93.85V237.88c-1.7-.64-3.54.13-5,2.11-2,4.7-5.32,7.51-8.88,7.51-5.94,0-10.77-7.79-10.77-17.37S74.06,212.77,80,212.77c3.56,0,6.88,2.8,8.88,7.51,1.42,2,3.27,2.75,5,2.11V180.65h42.33v.83l.71-.37a5.3,5.3,0,0,1,.62,2.47,6.49,6.49,0,0,1-3.13,5.17l-.16.09c-4.11,1.72-6.56,4.47-6.56,7.36,0,5,7,9.08,15.67,9.08S159,201.19,159,196.19c0-2.88-2.45-5.63-6.56-7.36l-.16-.09a6.49,6.49,0,0,1-3.13-5.17,5.31,5.31,0,0,1,.62-2.47l.72.37v-.83h42.32v41.74a3.5,3.5,0,0,0,1.23.23,4.88,4.88,0,0,0,3.74-2.34c2-4.7,5.31-7.51,8.88-7.51,5.94,0,10.77,7.79,10.77,17.37s-4.83,17.37-10.77,17.37c-3.57,0-6.88-2.8-8.88-7.51a4.88,4.88,0,0,0-3.74-2.34,3.5,3.5,0,0,0-1.23.23Zm-41.74-1.69h40.05V236.83l.45-.24c2.59-1.35,5.59-.4,7.64,2.5l.09.16c1.72,4.11,4.47,6.56,7.36,6.56,5,0,9.08-7,9.08-15.67s-4.07-15.67-9.08-15.67c-2.88,0-5.63,2.45-7.36,6.56l-.09.16c-2,2.91-5,3.85-7.64,2.5l-.45-.24V182.34H151.09a3.49,3.49,0,0,0-.23,1.23,4.83,4.83,0,0,0,2.34,3.74c4.7,2,7.51,5.31,7.51,8.88,0,5.94-7.79,10.77-17.37,10.77S126,202.13,126,196.19c0-3.57,2.8-6.88,7.51-8.88a4.83,4.83,0,0,0,2.34-3.74,3.48,3.48,0,0,0-.23-1.23H95.54v41.11l-.45.24c-2.58,1.35-5.59.4-7.64-2.5l-.09-.16c-1.72-4.11-4.47-6.56-7.36-6.56-5,0-9.08,7-9.08,15.67S75,245.81,80,245.81c2.88,0,5.63-2.45,7.36-6.56l.09-.16c2.05-2.91,5.06-3.85,7.64-2.5l.45.24v41.11h40.05a3.49,3.49,0,0,0,.23-1.23,4.83,4.83,0,0,0-2.34-3.74c-4.7-2-7.51-5.32-7.51-8.88,0-5.94,7.79-10.77,17.37-10.77s17.37,4.83,17.37,10.77c0,3.56-2.8,6.88-7.51,8.88a4.83,4.83,0,0,0-2.34,3.74A3.5,3.5,0,0,0,151.09,277.94Z"/><path id="_Path_14" data-name="&lt;Path&gt;" class="cls-13" d="M304,310.11c-3.37,0-6.34,2.8-8.14,7.08a5.66,5.66,0,0,1-4.48,2.77,4.46,4.46,0,0,1-2.08-.53V278H247.83a4.46,4.46,0,0,0-.53,2.08,5.66,5.66,0,0,0,2.77,4.48c4.27,1.79,7.08,4.77,7.08,8.14,0,5.48-7.4,9.92-16.52,9.92s-16.52-4.44-16.52-9.92c0-3.37,2.8-6.34,7.08-8.14a5.66,5.66,0,0,0,2.77-4.48,4.46,4.46,0,0,0-.53-2.08H192v41.44a4.46,4.46,0,0,1-2.08.53,5.66,5.66,0,0,1-4.48-2.77c-1.79-4.27-4.77-7.08-8.14-7.08-5.48,0-9.92,7.4-9.92,16.52s4.44,16.52,9.92,16.52c3.37,0,6.34-2.8,8.14-7.08a5.66,5.66,0,0,1,4.48-2.77,4.46,4.46,0,0,1,2.08.53v41.44h41.44a4.46,4.46,0,0,0,.53-2.08,5.66,5.66,0,0,0-2.77-4.48c-4.27-1.79-7.08-4.77-7.08-8.14,0-5.48,7.4-9.92,16.52-9.92s16.52,4.44,16.52,9.92c0,3.37-2.8,6.34-7.08,8.14a5.66,5.66,0,0,0-2.77,4.48,4.46,4.46,0,0,0,.53,2.08h41.44V333.83a4.46,4.46,0,0,1,2.08-.53,5.66,5.66,0,0,1,4.48,2.77c1.79,4.27,4.77,7.08,8.14,7.08,5.48,0,9.92-7.4,9.92-16.52S309.45,310.11,304,310.11Z"/><path class="cls-5" d="M290.12,376.12h-42.8l-.24-.45a5.3,5.3,0,0,1-.62-2.47,6.49,6.49,0,0,1,3.13-5.17l.16-.09c4.11-1.72,6.56-4.47,6.56-7.36,0-5-7-9.08-15.67-9.08S225,355.57,225,360.58c0,2.88,2.45,5.63,6.56,7.36l.16.09a6.49,6.49,0,0,1,3.13,5.17,5.3,5.3,0,0,1-.62,2.47l-.24.45h-42.8V334.38c-1.7-.64-3.54.13-5,2.11-2,4.7-5.31,7.51-8.88,7.51-5.94,0-10.77-7.79-10.77-17.37s4.83-17.37,10.77-17.37c3.57,0,6.88,2.8,8.88,7.51,1.42,2,3.27,2.75,5,2.11V277.14h42.33V278l.71-.37a5.3,5.3,0,0,1,.62,2.47,6.49,6.49,0,0,1-3.13,5.17l-.16.09c-4.11,1.72-6.56,4.47-6.56,7.36,0,5,7,9.08,15.68,9.08s15.67-4.07,15.67-9.08c0-2.88-2.45-5.63-6.56-7.36l-.16-.09a6.49,6.49,0,0,1-3.13-5.17,5.3,5.3,0,0,1,.62-2.47l.72.37v-.83h42.32v41.74c1.71.64,3.55-.13,5-2.11,2-4.7,5.31-7.51,8.88-7.51,5.94,0,10.77,7.79,10.77,17.37S309.91,344,304,344c-3.57,0-6.88-2.8-8.88-7.51-1.42-2-3.26-2.75-5-2.11Zm-41.74-1.69h40V333.32l.45-.24c2.59-1.35,5.59-.4,7.64,2.5l.09.16c1.72,4.11,4.47,6.56,7.36,6.56,5,0,9.08-7,9.08-15.67S309,311,304,311c-2.88,0-5.63,2.45-7.36,6.56l-.09.16c-2,2.91-5.05,3.85-7.64,2.5l-.45-.24V278.83h-40a3.48,3.48,0,0,0-.23,1.23,4.88,4.88,0,0,0,2.34,3.74c4.7,2,7.51,5.31,7.51,8.88,0,5.94-7.79,10.77-17.37,10.77s-17.37-4.83-17.37-10.77c0-3.57,2.8-6.88,7.51-8.88a4.88,4.88,0,0,0,2.34-3.74,3.48,3.48,0,0,0-.23-1.23h-40v41.11l-.45.24c-2.59,1.35-5.59.4-7.64-2.5l-.09-.16c-1.72-4.11-4.47-6.56-7.36-6.56-5,0-9.08,7-9.08,15.67s4.07,15.67,9.08,15.67c2.89,0,5.63-2.45,7.36-6.56l.09-.16c2-2.91,5-3.85,7.64-2.5l.45.24v41.11h40a3.48,3.48,0,0,0,.23-1.23,4.88,4.88,0,0,0-2.34-3.74c-4.7-2-7.51-5.31-7.51-8.88,0-5.94,7.79-10.77,17.37-10.77S258,354.64,258,360.58c0,3.57-2.8,6.88-7.51,8.88a4.88,4.88,0,0,0-2.34,3.74A3.48,3.48,0,0,0,248.38,374.43Z"/><path id="_Path_15" data-name="&lt;Path&gt;" class="cls-13" d="M353.76,390c0-3.37-2.8-6.34-7.08-8.14a5.66,5.66,0,0,1-2.77-4.48,4.46,4.46,0,0,1,.53-2.08h41.44V333.8h0v0a4.46,4.46,0,0,0-2.08-.53,5.66,5.66,0,0,0-4.48,2.77c-1.79,4.27-4.77,7.08-8.14,7.08-5.48,0-9.92-7.4-9.92-16.52s4.44-16.52,9.92-16.52c3.37,0,6.34,2.8,8.14,7.08a5.66,5.66,0,0,0,4.48,2.77,4.46,4.46,0,0,0,2.08-.53v0h0V278H344.45a4.46,4.46,0,0,1-.53-2.08,5.66,5.66,0,0,1,2.77-4.48c4.27-1.79,7.08-4.77,7.08-8.14,0-5.48-7.4-9.92-16.52-9.92s-16.52,4.44-16.52,9.92c0,3.37,2.8,6.34,7.08,8.14a5.66,5.66,0,0,1,2.77,4.48A4.46,4.46,0,0,1,330,278H288.6v41.44a4.46,4.46,0,0,0,2.08.53,5.66,5.66,0,0,0,4.48-2.77c1.79-4.27,4.77-7.08,8.14-7.08,5.48,0,9.92,7.4,9.92,16.52s-4.44,16.52-9.92,16.52c-3.37,0-6.34-2.8-8.14-7.08a5.66,5.66,0,0,0-4.48-2.77,4.46,4.46,0,0,0-2.08.53v41.44H330a4.46,4.46,0,0,1,.53,2.08,5.66,5.66,0,0,1-2.77,4.48c-4.27,1.79-7.08,4.77-7.08,8.14,0,5.48,7.4,9.92,16.52,9.92S353.76,395.45,353.76,390Z"/><path class="cls-5" d="M337.24,400.74c-9.58,0-17.37-4.83-17.37-10.77,0-3.57,2.8-6.88,7.51-8.88a4.83,4.83,0,0,0,2.34-3.74,3.49,3.49,0,0,0-.23-1.23H287.75v-42.8l.45-.24c2.58-1.35,5.59-.4,7.64,2.5l.09.16c1.72,4.11,4.47,6.56,7.36,6.56,5,0,9.08-7,9.08-15.67S308.3,311,303.29,311c-2.88,0-5.63,2.45-7.36,6.56l-.09.16c-2,2.91-5.06,3.85-7.64,2.5l-.45-.24v-42.8h41.74a3.49,3.49,0,0,0,.23-1.23,4.83,4.83,0,0,0-2.34-3.74c-4.7-2-7.51-5.32-7.51-8.88,0-5.94,7.79-10.77,17.37-10.77s17.37,4.83,17.37,10.77c0,3.56-2.8,6.88-7.51,8.88a4.83,4.83,0,0,0-2.34,3.74,3.5,3.5,0,0,0,.23,1.23h41.74v42.33h-.83l.37.71c-2.59,1.35-5.59.4-7.64-2.5l-.09-.16c-1.72-4.11-4.47-6.56-7.36-6.56-5,0-9.08,7-9.08,15.67s4.07,15.67,9.08,15.67c2.88,0,5.63-2.45,7.36-6.56l.09-.16c2-2.91,5.05-3.85,7.64-2.5l-.37.72h.83v42.32H345a3.5,3.5,0,0,0-.23,1.23,4.83,4.83,0,0,0,2.34,3.74c4.7,2,7.51,5.31,7.51,8.88C354.61,395.9,346.82,400.74,337.24,400.74Zm-47.8-26.31h41.11l.24.45a5.31,5.31,0,0,1,.62,2.47,6.49,6.49,0,0,1-3.13,5.17l-.16.09c-4.11,1.72-6.56,4.47-6.56,7.36,0,5,7,9.08,15.67,9.08S352.92,395,352.92,390c0-2.88-2.45-5.63-6.56-7.36l-.16-.09a6.49,6.49,0,0,1-3.13-5.17,5.32,5.32,0,0,1,.62-2.47l.24-.46H385v-40c-1.71-.64-3.55.13-5,2.11-2,4.7-5.32,7.51-8.88,7.51-5.94,0-10.77-7.79-10.77-17.37s4.83-17.37,10.77-17.37c3.56,0,6.88,2.8,8.88,7.51,1.42,2,3.26,2.75,5,2.11v-40H343.93l-.24-.46a5.32,5.32,0,0,1-.62-2.47,6.49,6.49,0,0,1,3.13-5.17l.16-.09c4.11-1.73,6.56-4.47,6.56-7.36,0-5-7-9.08-15.67-9.08s-15.67,4.07-15.67,9.08c0,2.88,2.45,5.63,6.56,7.36l.16.09a6.49,6.49,0,0,1,3.13,5.17,5.31,5.31,0,0,1-.62,2.47l-.24.45H289.45v40c1.7.64,3.54-.13,5-2.11,2-4.7,5.32-7.51,8.88-7.51,5.94,0,10.77,7.79,10.77,17.37S309.23,344,303.29,344c-3.56,0-6.88-2.8-8.88-7.51-1.42-2-3.27-2.75-5-2.11Z"/><path id="_Path_16" data-name="&lt;Path&gt;" class="cls-13" d="M353.76,196.19c0-3.37-2.8-6.34-7.08-8.14a5.66,5.66,0,0,1-2.77-4.48,4.46,4.46,0,0,1,.53-2.08h41.44V140h0v0a4.46,4.46,0,0,0-2.08-.53,5.66,5.66,0,0,0-4.48,2.77c-1.79,4.27-4.77,7.08-8.14,7.08-5.48,0-9.92-7.4-9.92-16.52s4.44-16.52,9.92-16.52c3.37,0,6.34,2.8,8.14,7.08a5.66,5.66,0,0,0,4.48,2.77,4.46,4.46,0,0,0,2.08-.53v0h0V84.2H344.45a4.46,4.46,0,0,1-.53-2.08,5.66,5.66,0,0,1,2.77-4.48c4.27-1.79,7.08-4.77,7.08-8.14,0-5.48-7.4-9.92-16.52-9.92S320.72,64,320.72,69.51c0,3.37,2.8,6.34,7.08,8.14a5.66,5.66,0,0,1,2.77,4.48A4.46,4.46,0,0,1,330,84.2H288.6v41.44a4.46,4.46,0,0,0,2.08.53,5.66,5.66,0,0,0,4.48-2.77c1.79-4.27,4.77-7.08,8.14-7.08,5.48,0,9.92,7.4,9.92,16.52s-4.44,16.52-9.92,16.52c-3.37,0-6.34-2.8-8.14-7.08a5.66,5.66,0,0,0-4.48-2.77,4.46,4.46,0,0,0-2.08.53v41.44H330a4.46,4.46,0,0,1,.53,2.08,5.66,5.66,0,0,1-2.77,4.48c-4.27,1.79-7.08,4.77-7.08,8.14,0,5.48,7.4,9.92,16.52,9.92S353.76,201.67,353.76,196.19Z"/><path class="cls-5" d="M337.24,207c-9.58,0-17.37-4.83-17.37-10.77,0-3.57,2.8-6.88,7.51-8.88a4.83,4.83,0,0,0,2.34-3.74,3.48,3.48,0,0,0-.23-1.23H287.75v-42.8l.45-.24c2.58-1.35,5.59-.4,7.64,2.5l.09.16c1.72,4.11,4.47,6.56,7.36,6.56,5,0,9.08-7,9.08-15.67s-4.07-15.67-9.08-15.67c-2.88,0-5.63,2.45-7.36,6.56l-.09.16c-2,2.91-5.06,3.86-7.64,2.5l-.45-.24V83.36h41.74a3.48,3.48,0,0,0,.23-1.23,4.83,4.83,0,0,0-2.34-3.74c-4.7-2-7.51-5.31-7.51-8.88,0-5.94,7.79-10.77,17.37-10.77s17.37,4.83,17.37,10.77c0,3.56-2.8,6.88-7.51,8.88a4.83,4.83,0,0,0-2.34,3.74,3.5,3.5,0,0,0,.23,1.23h41.74v42.33h-.83l.37.71c-2.59,1.35-5.59.4-7.64-2.5l-.09-.16c-1.72-4.11-4.47-6.56-7.36-6.56-5,0-9.08,7-9.08,15.67s4.07,15.67,9.08,15.67c2.88,0,5.63-2.45,7.36-6.56l.09-.16c2-2.91,5-3.85,7.64-2.5l-.37.72h.83v42.32H345a3.49,3.49,0,0,0-.23,1.23,4.83,4.83,0,0,0,2.34,3.74c4.7,2,7.51,5.31,7.51,8.88C354.61,202.13,346.82,207,337.24,207Zm-47.8-26.31h41.11l.24.45a5.3,5.3,0,0,1,.62,2.47,6.49,6.49,0,0,1-3.13,5.17l-.16.09c-4.11,1.72-6.56,4.47-6.56,7.36,0,5,7,9.08,15.67,9.08s15.67-4.07,15.67-9.08c0-2.88-2.45-5.63-6.56-7.36l-.16-.09a6.49,6.49,0,0,1-3.13-5.17,5.31,5.31,0,0,1,.62-2.47l.24-.46H385v-40c-1.71-.64-3.55.13-5,2.11-2,4.7-5.32,7.51-8.88,7.51-5.94,0-10.77-7.79-10.77-17.37s4.83-17.37,10.77-17.37c3.56,0,6.88,2.8,8.88,7.51,1.42,2,3.26,2.75,5,2.11v-40H343.93l-.24-.46a5.32,5.32,0,0,1-.62-2.47A6.49,6.49,0,0,1,346.2,77l.16-.09c4.11-1.72,6.56-4.47,6.56-7.36,0-5-7-9.08-15.67-9.08s-15.67,4.07-15.67,9.08c0,2.88,2.45,5.63,6.56,7.36l.16.09a6.49,6.49,0,0,1,3.13,5.17,5.3,5.3,0,0,1-.62,2.47l-.24.46H289.45V125.1c1.7.64,3.54-.13,5-2.11,2-4.7,5.32-7.51,8.88-7.51,5.94,0,10.77,7.79,10.77,17.37s-4.83,17.37-10.77,17.37c-3.56,0-6.88-2.8-8.88-7.51-1.42-2-3.27-2.75-5-2.11Z"/><path id="_Path_17" data-name="&lt;Path&gt;" class="cls-13" d="M400.58,213.62c-3.37,0-6.34,2.8-8.14,7.08a5.66,5.66,0,0,1-4.48,2.77,4.46,4.46,0,0,1-2.08-.53V181.49H344.45a4.46,4.46,0,0,0-.53,2.08,5.66,5.66,0,0,0,2.77,4.48c4.27,1.79,7.08,4.77,7.08,8.14,0,5.48-7.4,9.92-16.52,9.92s-16.52-4.44-16.52-9.92c0-3.37,2.8-6.34,7.08-8.14a5.66,5.66,0,0,0,2.77-4.48,4.46,4.46,0,0,0-.53-2.08H288.6v41.44a4.46,4.46,0,0,1-2.08.53,5.66,5.66,0,0,1-4.48-2.77c-1.79-4.27-4.77-7.08-8.14-7.08-5.48,0-9.92,7.4-9.92,16.52s4.44,16.52,9.92,16.52c3.37,0,6.34-2.8,8.14-7.08a5.66,5.66,0,0,1,4.48-2.77,4.46,4.46,0,0,1,2.08.53v41.44H330a4.46,4.46,0,0,0,.53-2.08,5.66,5.66,0,0,0-2.77-4.48c-4.27-1.79-7.08-4.77-7.08-8.14,0-5.48,7.4-9.92,16.52-9.92s16.52,4.44,16.52,9.92c0,3.37-2.8,6.34-7.08,8.14a5.66,5.66,0,0,0-2.77,4.48,4.46,4.46,0,0,0,.53,2.08h41.44V237.34a4.46,4.46,0,0,1,2.08-.53,5.66,5.66,0,0,1,4.48,2.77c1.79,4.27,4.77,7.08,8.14,7.08,5.48,0,9.92-7.4,9.92-16.52S406.06,213.62,400.58,213.62Z"/><path class="cls-5" d="M386.73,279.63h-42.8l-.24-.46a5.32,5.32,0,0,1-.62-2.47,6.49,6.49,0,0,1,3.13-5.17l.16-.09c4.11-1.72,6.56-4.47,6.56-7.36,0-5-7-9.08-15.67-9.08s-15.67,4.07-15.67,9.08c0,2.88,2.45,5.63,6.56,7.36l.16.09a6.49,6.49,0,0,1,3.13,5.17,5.31,5.31,0,0,1-.62,2.47l-.24.45h-42.8V237.89c-1.7-.63-3.54.13-5,2.11-2,4.7-5.32,7.51-8.88,7.51-5.94,0-10.77-7.79-10.77-17.37s4.83-17.37,10.77-17.37c3.56,0,6.88,2.8,8.88,7.51,1.42,2,3.27,2.74,5,2.11V180.65h42.33v.83l.71-.37a5.3,5.3,0,0,1,.62,2.47,6.49,6.49,0,0,1-3.13,5.17l-.16.09c-4.11,1.72-6.56,4.47-6.56,7.36,0,5,7,9.08,15.67,9.08s15.67-4.07,15.67-9.08c0-2.88-2.45-5.63-6.56-7.36l-.16-.09a6.49,6.49,0,0,1-3.13-5.17,5.31,5.31,0,0,1,.62-2.47l.72.37v-.83h42.32v41.74a3.5,3.5,0,0,0,1.23.23,4.88,4.88,0,0,0,3.74-2.34c2-4.7,5.31-7.51,8.88-7.51,5.94,0,10.77,7.79,10.77,17.37s-4.83,17.37-10.77,17.37c-3.57,0-6.88-2.8-8.88-7.51a4.88,4.88,0,0,0-3.74-2.34,3.5,3.5,0,0,0-1.23.23ZM345,277.94H385V236.83l.45-.24c2.59-1.35,5.59-.4,7.64,2.5l.09.16c1.72,4.11,4.47,6.56,7.36,6.56,5,0,9.08-7,9.08-15.67s-4.07-15.67-9.08-15.67c-2.88,0-5.63,2.45-7.36,6.56l-.09.16c-2,2.91-5,3.85-7.64,2.5l-.45-.24V182.34H345a3.49,3.49,0,0,0-.23,1.23,4.83,4.83,0,0,0,2.34,3.74c4.7,2,7.51,5.31,7.51,8.88,0,5.94-7.79,10.77-17.37,10.77s-17.37-4.83-17.37-10.77c0-3.57,2.8-6.88,7.51-8.88a4.83,4.83,0,0,0,2.34-3.74,3.48,3.48,0,0,0-.23-1.23h-40v41.11l-.45.24c-2.59,1.35-5.59.4-7.64-2.5l-.09-.16c-1.72-4.11-4.47-6.56-7.36-6.56-5,0-9.08,7-9.08,15.67s4.07,15.67,9.08,15.67c2.88,0,5.63-2.45,7.36-6.56l.09-.16c2-2.91,5-3.85,7.64-2.5l.45.24v41.11h40a3.49,3.49,0,0,0,.23-1.23,4.83,4.83,0,0,0-2.34-3.74c-4.7-2-7.51-5.32-7.51-8.88,0-5.94,7.79-10.77,17.37-10.77s17.37,4.83,17.37,10.77c0,3.56-2.8,6.88-7.51,8.88a4.83,4.83,0,0,0-2.34,3.74A3.5,3.5,0,0,0,345,277.94Z"/><path id="_Path_18" data-name="&lt;Path&gt;" class="cls-13" d="M498,116.33c-3.37,0-6.34,2.8-8.14,7.08a5.66,5.66,0,0,1-4.48,2.77,4.46,4.46,0,0,1-2.08-.53V84.2H441.89a4.46,4.46,0,0,0-.53,2.08,5.66,5.66,0,0,0,2.77,4.48c4.27,1.79,7.08,4.77,7.08,8.14,0,5.48-7.4,9.92-16.52,9.92s-16.52-4.44-16.52-9.92c0-3.37,2.8-6.34,7.08-8.14A5.66,5.66,0,0,0,428,86.28a4.46,4.46,0,0,0-.53-2.08H386v41.44a4.46,4.46,0,0,1-2.08.53,5.66,5.66,0,0,1-4.48-2.77c-1.79-4.27-4.77-7.08-8.14-7.08-5.48,0-9.92,7.4-9.92,16.52s4.44,16.52,9.92,16.52c3.37,0,6.34-2.8,8.14-7.08a5.66,5.66,0,0,1,4.48-2.77A4.46,4.46,0,0,1,386,140v41.44h41.44a4.46,4.46,0,0,0,.53-2.08,5.66,5.66,0,0,0-2.77-4.48c-4.27-1.79-7.08-4.77-7.08-8.14,0-5.48,7.4-9.92,16.52-9.92s16.52,4.44,16.52,9.92c0,3.37-2.8,6.34-7.08,8.14a5.66,5.66,0,0,0-2.77,4.48,4.46,4.46,0,0,0,.53,2.08h41.44V140a4.46,4.46,0,0,1,2.08-.53,5.66,5.66,0,0,1,4.48,2.77c1.79,4.27,4.77,7.08,8.14,7.08,5.48,0,9.92-7.4,9.92-16.52S503.51,116.33,498,116.33Z"/><path class="cls-5" d="M484.18,182.34h-42.8l-.24-.46a5.3,5.3,0,0,1-.62-2.47,6.49,6.49,0,0,1,3.13-5.17l.16-.09c4.11-1.72,6.56-4.47,6.56-7.36,0-5-7-9.08-15.67-9.08S419,161.79,419,166.8c0,2.88,2.45,5.63,6.56,7.36l.16.09a6.49,6.49,0,0,1,3.13,5.17,5.32,5.32,0,0,1-.62,2.47l-.24.46H385.2V140.6a3.5,3.5,0,0,0-1.23-.23,4.88,4.88,0,0,0-3.74,2.34c-2,4.7-5.31,7.51-8.88,7.51-5.94,0-10.77-7.79-10.77-17.37s4.83-17.37,10.77-17.37c3.57,0,6.88,2.8,8.88,7.51a4.88,4.88,0,0,0,3.74,2.34,3.5,3.5,0,0,0,1.23-.23V83.36h42.33v.83l.71-.37a5.32,5.32,0,0,1,.62,2.47,6.49,6.49,0,0,1-3.13,5.17l-.16.09C421.47,93.27,419,96,419,98.9c0,5,7,9.08,15.67,9.08s15.67-4.07,15.67-9.08c0-2.88-2.45-5.63-6.56-7.36l-.16-.09a6.49,6.49,0,0,1-3.13-5.17,5.3,5.3,0,0,1,.62-2.47l.72.37v-.83h42.32V125.1c1.72.64,3.55-.13,5-2.11,2-4.7,5.32-7.51,8.88-7.51,5.94,0,10.77,7.79,10.77,17.37S504,150.21,498,150.21c-3.56,0-6.88-2.8-8.88-7.51-1.42-2-3.26-2.74-5-2.11Zm-41.74-1.69h40V139.54l.46-.24c2.59-1.35,5.59-.4,7.64,2.5l.09.16c1.72,4.11,4.47,6.56,7.36,6.56,5,0,9.08-7,9.08-15.67S503,117.17,498,117.17c-2.88,0-5.63,2.45-7.36,6.56l-.09.16c-2,2.91-5,3.86-7.64,2.5l-.46-.24V85.05h-40a3.48,3.48,0,0,0-.23,1.23A4.83,4.83,0,0,0,444.55,90c4.7,2,7.51,5.31,7.51,8.88,0,5.94-7.79,10.77-17.37,10.77s-17.37-4.83-17.37-10.77c0-3.57,2.8-6.88,7.51-8.88a4.83,4.83,0,0,0,2.34-3.74,3.5,3.5,0,0,0-.23-1.23H386.89v41.11l-.46.24c-2.59,1.35-5.59.4-7.64-2.5l-.09-.16c-1.72-4.11-4.47-6.56-7.36-6.56-5,0-9.08,7-9.08,15.67s4.07,15.67,9.08,15.67c2.88,0,5.63-2.45,7.36-6.56l.09-.16c2-2.9,5-3.85,7.64-2.5l.46.24v41.11h40.05a3.5,3.5,0,0,0,.23-1.23,4.83,4.83,0,0,0-2.34-3.74c-4.7-2-7.51-5.31-7.51-8.88,0-5.94,7.79-10.77,17.37-10.77s17.37,4.83,17.37,10.77c0,3.56-2.8,6.88-7.51,8.88a4.83,4.83,0,0,0-2.34,3.74A3.49,3.49,0,0,0,442.44,180.65Z"/><path id="_Path_19" data-name="&lt;Path&gt;" class="cls-13" d="M451.21,293.46c0-3.37-2.8-6.34-7.08-8.14a5.66,5.66,0,0,1-2.77-4.48,4.46,4.46,0,0,1,.53-2.08h41.44V237.28h0v0a4.46,4.46,0,0,0-2.08-.53,5.66,5.66,0,0,0-4.48,2.77c-1.79,4.27-4.77,7.08-8.14,7.08-5.48,0-9.92-7.4-9.92-16.52s4.44-16.52,9.92-16.52c3.37,0,6.34,2.8,8.14,7.08a5.66,5.66,0,0,0,4.48,2.77,4.46,4.46,0,0,0,2.08-.53v0h0V181.47H441.89a4.46,4.46,0,0,1-.53-2.08,5.66,5.66,0,0,1,2.77-4.48c4.27-1.79,7.08-4.77,7.08-8.14,0-5.48-7.4-9.92-16.52-9.92s-16.52,4.44-16.52,9.92c0,3.37,2.8,6.34,7.08,8.14A5.66,5.66,0,0,1,428,179.4a4.46,4.46,0,0,1-.53,2.08H386v41.44a4.46,4.46,0,0,0,2.08.53,5.66,5.66,0,0,0,4.48-2.77c1.79-4.27,4.77-7.08,8.14-7.08,5.48,0,9.92,7.4,9.92,16.52s-4.44,16.52-9.92,16.52c-3.37,0-6.34-2.8-8.14-7.08a5.66,5.66,0,0,0-4.48-2.77,4.46,4.46,0,0,0-2.08.53v41.44h41.44a4.46,4.46,0,0,1,.53,2.08,5.66,5.66,0,0,1-2.77,4.48c-4.27,1.79-7.08,4.77-7.08,8.14,0,5.48,7.4,9.92,16.52,9.92S451.21,298.94,451.21,293.46Z"/><path class="cls-5" d="M434.69,304.23c-9.58,0-17.37-4.83-17.37-10.77,0-3.56,2.8-6.88,7.51-8.88a4.83,4.83,0,0,0,2.34-3.74,3.49,3.49,0,0,0-.23-1.23H385.2V236.8l.46-.24c2.59-1.35,5.59-.4,7.64,2.51l.09.16c1.72,4.11,4.47,6.56,7.36,6.56,5,0,9.08-7,9.08-15.67s-4.07-15.67-9.08-15.67c-2.88,0-5.63,2.45-7.36,6.56l-.09.16c-2,2.91-5,3.86-7.64,2.51l-.46-.24v-42.8h41.74a3.5,3.5,0,0,0,.23-1.23,4.83,4.83,0,0,0-2.34-3.74c-4.7-2-7.51-5.31-7.51-8.88,0-5.94,7.79-10.77,17.37-10.77s17.37,4.83,17.37,10.77c0,3.57-2.8,6.88-7.51,8.88a4.83,4.83,0,0,0-2.34,3.74,3.49,3.49,0,0,0,.23,1.23h41.74V223h-.83l.37.71c-2.59,1.35-5.59.4-7.64-2.51L476,221c-1.72-4.11-4.47-6.56-7.36-6.56-5,0-9.08,7-9.08,15.67s4.07,15.67,9.08,15.67c2.88,0,5.63-2.45,7.36-6.56l.09-.16c2-2.91,5-3.86,7.64-2.51l-.37.72h.83v42.32H442.44a3.47,3.47,0,0,0-.23,1.23,4.83,4.83,0,0,0,2.34,3.74c4.7,2,7.51,5.32,7.51,8.88C452.06,299.39,444.27,304.23,434.69,304.23Zm-47.8-26.31H428l.24.46a5.3,5.3,0,0,1,.62,2.47,6.49,6.49,0,0,1-3.13,5.17l-.16.09c-4.11,1.73-6.56,4.47-6.56,7.36,0,5,7,9.08,15.67,9.08s15.67-4.07,15.67-9.08c0-2.88-2.45-5.63-6.56-7.36l-.16-.09a6.49,6.49,0,0,1-3.13-5.17,5.29,5.29,0,0,1,.62-2.47l.24-.45h41.11V237.87c-1.7-.63-3.54.13-5,2.11-2,4.7-5.32,7.51-8.88,7.51-5.94,0-10.77-7.79-10.77-17.37s4.83-17.37,10.77-17.37c3.56,0,6.88,2.8,8.88,7.51,1.42,2,3.26,2.75,5,2.11v-40H441.38l-.24-.46a5.3,5.3,0,0,1-.62-2.47,6.49,6.49,0,0,1,3.13-5.17l.16-.09c4.11-1.72,6.56-4.47,6.56-7.36,0-5-7-9.08-15.67-9.08S419,161.77,419,166.78c0,2.88,2.45,5.63,6.56,7.36l.16.09a6.49,6.49,0,0,1,3.13,5.17,5.32,5.32,0,0,1-.62,2.47l-.24.46H386.89v40c1.72.64,3.55-.13,5-2.11,2-4.7,5.31-7.51,8.88-7.51,5.94,0,10.77,7.79,10.77,17.37s-4.83,17.37-10.77,17.37c-3.57,0-6.88-2.8-8.88-7.51-1.42-2-3.25-2.75-5-2.11Z"/><path id="_Path_20" data-name="&lt;Path&gt;" class="cls-13" d="M257.15,293.48c0-3.37-2.8-6.34-7.08-8.14a5.66,5.66,0,0,1-2.77-4.48,4.46,4.46,0,0,1,.53-2.08h41.44V237.3h0v0a4.46,4.46,0,0,0-2.08-.53,5.66,5.66,0,0,0-4.48,2.77c-1.79,4.27-4.77,7.08-8.14,7.08-5.48,0-9.92-7.4-9.92-16.52s4.44-16.52,9.92-16.52c3.37,0,6.34,2.8,8.14,7.08a5.66,5.66,0,0,0,4.48,2.77,4.46,4.46,0,0,0,2.08-.53v0h0V181.49H247.83a4.46,4.46,0,0,1-.53-2.08,5.66,5.66,0,0,1,2.77-4.48c4.27-1.79,7.08-4.77,7.08-8.14,0-5.48-7.4-9.92-16.52-9.92s-16.52,4.44-16.52,9.92c0,3.37,2.8,6.34,7.08,8.14a5.66,5.66,0,0,1,2.77,4.48,4.46,4.46,0,0,1-.53,2.08H192v41.44a4.46,4.46,0,0,0,2.08.53,5.66,5.66,0,0,0,4.48-2.77c1.79-4.27,4.77-7.08,8.14-7.08,5.48,0,9.92,7.4,9.92,16.52s-4.44,16.52-9.92,16.52c-3.37,0-6.34-2.8-8.14-7.08a5.66,5.66,0,0,0-4.48-2.77,4.46,4.46,0,0,0-2.08.53v41.44h41.44a4.46,4.46,0,0,1,.53,2.08,5.66,5.66,0,0,1-2.77,4.48c-4.27,1.79-7.08,4.77-7.08,8.14,0,5.48,7.4,9.92,16.52,9.92S257.15,299,257.15,293.48Z"/><path class="cls-5" d="M240.63,304.25c-9.58,0-17.37-4.83-17.37-10.77,0-3.56,2.8-6.88,7.51-8.88a4.83,4.83,0,0,0,2.34-3.74,3.47,3.47,0,0,0-.23-1.23H191.14v-42.8l.46-.24c2.6-1.35,5.59-.4,7.64,2.51l.09.16c1.72,4.11,4.47,6.56,7.36,6.56,5,0,9.08-7,9.08-15.67s-4.07-15.67-9.08-15.67c-2.88,0-5.63,2.45-7.36,6.56l-.09.16c-2,2.91-5,3.86-7.64,2.51l-.46-.24v-42.8h41.74a3.49,3.49,0,0,0,.23-1.23,4.83,4.83,0,0,0-2.34-3.74c-4.7-2-7.51-5.31-7.51-8.88,0-5.94,7.79-10.77,17.37-10.77S258,160.86,258,166.8c0,3.57-2.8,6.88-7.51,8.88a4.83,4.83,0,0,0-2.34,3.74,3.49,3.49,0,0,0,.23,1.23h41.74V223h-.83l.37.71c-2.59,1.35-5.59.4-7.64-2.51l-.09-.16c-1.72-4.11-4.47-6.56-7.36-6.56-5,0-9.08,7-9.08,15.67s4.07,15.67,9.08,15.67c2.88,0,5.63-2.45,7.36-6.56l.09-.16c2-2.9,5-3.86,7.64-2.51l-.37.72h.83v42.32H248.38a3.47,3.47,0,0,0-.23,1.23,4.83,4.83,0,0,0,2.34,3.74c4.7,2,7.51,5.32,7.51,8.88C258,299.41,250.21,304.25,240.63,304.25Zm-47.8-26.31h41.11l.24.45a5.29,5.29,0,0,1,.62,2.47,6.49,6.49,0,0,1-3.13,5.17l-.16.09c-4.11,1.72-6.56,4.47-6.56,7.36,0,5,7,9.08,15.68,9.08s15.67-4.07,15.67-9.08c0-2.88-2.45-5.63-6.56-7.36l-.16-.09a6.49,6.49,0,0,1-3.13-5.17,5.29,5.29,0,0,1,.62-2.47l.24-.45h41.11V237.89a3.5,3.5,0,0,0-1.23-.23,4.88,4.88,0,0,0-3.74,2.34c-2,4.7-5.31,7.51-8.88,7.51-5.94,0-10.77-7.79-10.77-17.37s4.83-17.37,10.77-17.37c3.57,0,6.88,2.8,8.88,7.51a4.88,4.88,0,0,0,3.74,2.34,3.5,3.5,0,0,0,1.23-.23v-40H247.32l-.24-.46a5.3,5.3,0,0,1-.62-2.47,6.49,6.49,0,0,1,3.13-5.17l.16-.09c4.11-1.72,6.56-4.47,6.56-7.36,0-5-7-9.08-15.67-9.08S225,161.79,225,166.8c0,2.88,2.45,5.63,6.56,7.36l.16.09a6.49,6.49,0,0,1,3.13,5.17,5.3,5.3,0,0,1-.62,2.47l-.24.46H192.83v40a3.5,3.5,0,0,0,1.23.23,4.88,4.88,0,0,0,3.74-2.34c2-4.7,5.31-7.51,8.88-7.51,5.94,0,10.77,7.79,10.77,17.37s-4.83,17.37-10.77,17.37c-3.57,0-6.88-2.8-8.88-7.51a4.88,4.88,0,0,0-3.74-2.34,3.5,3.5,0,0,0-1.23.23Z"/><path id="_Path_21" data-name="&lt;Path&gt;" class="cls-13" d="M304,116.33c-3.37,0-6.34,2.8-8.14,7.08a5.66,5.66,0,0,1-4.48,2.77,4.46,4.46,0,0,1-2.08-.53V84.2H247.83a4.46,4.46,0,0,0-.53,2.08,5.66,5.66,0,0,0,2.77,4.48c4.27,1.79,7.08,4.77,7.08,8.14,0,5.48-7.4,9.92-16.52,9.92s-16.52-4.44-16.52-9.92c0-3.37,2.8-6.34,7.08-8.14A5.66,5.66,0,0,0,234,86.28a4.46,4.46,0,0,0-.53-2.08H192v41.44a4.46,4.46,0,0,1-2.08.53,5.66,5.66,0,0,1-4.48-2.77c-1.79-4.27-4.77-7.08-8.14-7.08-5.48,0-9.92,7.4-9.92,16.52s4.44,16.52,9.92,16.52c3.37,0,6.34-2.8,8.14-7.08a5.66,5.66,0,0,1,4.48-2.77A4.46,4.46,0,0,1,192,140v41.44h41.44a4.46,4.46,0,0,0,.53-2.08,5.66,5.66,0,0,0-2.77-4.48c-4.27-1.79-7.08-4.77-7.08-8.14,0-5.48,7.4-9.92,16.52-9.92s16.52,4.44,16.52,9.92c0,3.37-2.8,6.34-7.08,8.14a5.66,5.66,0,0,0-2.77,4.48,4.46,4.46,0,0,0,.53,2.08h41.44V140a4.46,4.46,0,0,1,2.08-.53,5.66,5.66,0,0,1,4.48,2.77c1.79,4.27,4.77,7.08,8.14,7.08,5.48,0,9.92-7.4,9.92-16.52S309.45,116.33,304,116.33Z"/><path class="cls-5" d="M290.12,182.34h-42.8l-.24-.46a5.3,5.3,0,0,1-.62-2.47,6.49,6.49,0,0,1,3.13-5.17l.16-.09c4.11-1.72,6.56-4.47,6.56-7.36,0-5-7-9.08-15.67-9.08S225,161.79,225,166.8c0,2.88,2.45,5.63,6.56,7.36l.16.09a6.49,6.49,0,0,1,3.13,5.17,5.3,5.3,0,0,1-.62,2.47l-.24.46h-42.8V140.6c-1.7-.63-3.54.13-5,2.11-2,4.7-5.31,7.51-8.88,7.51-5.94,0-10.77-7.79-10.77-17.37s4.83-17.37,10.77-17.37c3.57,0,6.88,2.8,8.88,7.51,1.42,2,3.26,2.75,5,2.11V83.36h42.33v.83l.71-.37a5.3,5.3,0,0,1,.62,2.47,6.49,6.49,0,0,1-3.13,5.17l-.16.09C227.41,93.27,225,96,225,98.9c0,5,7,9.08,15.68,9.08s15.67-4.07,15.67-9.08c0-2.88-2.45-5.63-6.56-7.36l-.16-.09a6.49,6.49,0,0,1-3.13-5.17,5.3,5.3,0,0,1,.62-2.47l.72.37v-.83h42.32V125.1c1.72.64,3.55-.13,5-2.11,2-4.7,5.31-7.51,8.88-7.51,5.94,0,10.77,7.79,10.77,17.37s-4.83,17.37-10.77,17.37c-3.57,0-6.88-2.8-8.88-7.51-1.42-2-3.26-2.74-5-2.11Zm-41.74-1.69h40V139.54l.46-.24c2.59-1.35,5.59-.4,7.64,2.5l.09.16c1.72,4.11,4.47,6.56,7.36,6.56,5,0,9.08-7,9.08-15.67S309,117.17,304,117.17c-2.88,0-5.63,2.45-7.36,6.56l-.09.16c-2,2.91-5,3.86-7.64,2.5l-.46-.24V85.05h-40a3.48,3.48,0,0,0-.23,1.23A4.83,4.83,0,0,0,250.49,90c4.7,2,7.51,5.31,7.51,8.88,0,5.94-7.79,10.77-17.37,10.77s-17.37-4.83-17.37-10.77c0-3.57,2.8-6.88,7.51-8.88a4.83,4.83,0,0,0,2.34-3.74,3.48,3.48,0,0,0-.23-1.23h-40v41.11l-.46.24c-2.6,1.35-5.59.4-7.64-2.5l-.09-.16c-1.72-4.11-4.47-6.56-7.36-6.56-5,0-9.08,7-9.08,15.67s4.07,15.67,9.08,15.67c2.88,0,5.63-2.45,7.36-6.56l.09-.16c2-2.91,5-3.85,7.64-2.5l.46.24v41.11h40a3.49,3.49,0,0,0,.23-1.23,4.83,4.83,0,0,0-2.34-3.74c-4.7-2-7.51-5.31-7.51-8.88,0-5.94,7.79-10.77,17.37-10.77S258,160.86,258,166.8c0,3.57-2.8,6.88-7.51,8.88a4.83,4.83,0,0,0-2.34,3.74A3.49,3.49,0,0,0,248.38,180.65Z"/><path id="_Path_22" data-name="&lt;Path&gt;" class="cls-13" d="M400.9,407.14c-3.37,0-6.34,2.8-8.14,7.08a5.66,5.66,0,0,1-4.48,2.77,4.46,4.46,0,0,1-2.08-.53V375H344.76a4.46,4.46,0,0,0-.53,2.08,5.66,5.66,0,0,0,2.77,4.48c4.27,1.79,7.08,4.77,7.08,8.14,0,5.48-7.4,9.92-16.52,9.92S321,395.19,321,389.71c0-3.37,2.8-6.34,7.08-8.14a5.66,5.66,0,0,0,2.77-4.48,4.46,4.46,0,0,0-.53-2.08H288.92v41.44a4.46,4.46,0,0,1-2.08.53,5.66,5.66,0,0,1-4.48-2.77c-1.79-4.27-4.77-7.08-8.14-7.08-5.48,0-9.92,7.4-9.92,16.52s4.44,16.52,9.92,16.52c3.37,0,6.34-2.8,8.14-7.08a5.66,5.66,0,0,1,4.48-2.77,4.46,4.46,0,0,1,2.08.53V472.3h41.44a4.46,4.46,0,0,0,.53-2.08,5.66,5.66,0,0,0-2.77-4.48c-4.27-1.79-7.08-4.77-7.08-8.14,0-5.48,7.4-9.92,16.52-9.92s16.52,4.44,16.52,9.92c0,3.37-2.8,6.34-7.08,8.14a5.66,5.66,0,0,0-2.77,4.48,4.46,4.46,0,0,0,.53,2.08h41.44V430.86a4.46,4.46,0,0,1,2.08-.53,5.66,5.66,0,0,1,4.48,2.77c1.79,4.27,4.77,7.08,8.14,7.08,5.48,0,9.92-7.4,9.92-16.52S406.38,407.14,400.9,407.14Z"/><path class="cls-5" d="M387.05,473.15h-42.8l-.24-.46a5.32,5.32,0,0,1-.62-2.47,6.49,6.49,0,0,1,3.13-5.17l.16-.09c4.11-1.72,6.56-4.47,6.56-7.36,0-5-7-9.08-15.67-9.08s-15.67,4.07-15.67,9.08c0,2.88,2.45,5.63,6.56,7.36l.16.09a6.49,6.49,0,0,1,3.13,5.17,5.31,5.31,0,0,1-.62,2.47l-.24.45h-42.8V431.4c-1.7-.64-3.54.13-5,2.11-2,4.7-5.32,7.51-8.88,7.51-5.94,0-10.77-7.79-10.77-17.37s4.83-17.37,10.77-17.37c3.56,0,6.88,2.8,8.88,7.51,1.42,2,3.27,2.75,5,2.11V374.16H330.4V375l.71-.37a5.31,5.31,0,0,1,.62,2.47,6.49,6.49,0,0,1-3.13,5.17l-.16.09c-4.11,1.73-6.56,4.47-6.56,7.36,0,5,7,9.08,15.67,9.08s15.67-4.07,15.67-9.08c0-2.88-2.45-5.63-6.56-7.36l-.16-.09a6.49,6.49,0,0,1-3.13-5.17,5.32,5.32,0,0,1,.62-2.47l.72.37v-.83h42.32v41.74c1.7.64,3.55-.13,5-2.11,2-4.7,5.31-7.51,8.88-7.51,5.94,0,10.77,7.79,10.77,17.37S406.84,441,400.9,441c-3.57,0-6.88-2.8-8.88-7.51a4.88,4.88,0,0,0-3.74-2.34,3.48,3.48,0,0,0-1.23.23Zm-41.74-1.69h40.05V430.34l.45-.24c2.59-1.35,5.59-.4,7.64,2.5l.09.16c1.72,4.11,4.47,6.56,7.36,6.56,5,0,9.08-7,9.08-15.67S405.91,408,400.9,408c-2.88,0-5.63,2.45-7.36,6.56l-.09.16c-2,2.91-5,3.86-7.64,2.51l-.45-.24V375.86H345.31a3.5,3.5,0,0,0-.23,1.23,4.83,4.83,0,0,0,2.34,3.74c4.7,2,7.51,5.32,7.51,8.88,0,5.94-7.79,10.77-17.37,10.77s-17.37-4.83-17.37-10.77c0-3.56,2.8-6.88,7.51-8.88a4.83,4.83,0,0,0,2.34-3.74,3.49,3.49,0,0,0-.23-1.23H289.76V417l-.45.24c-2.58,1.35-5.59.4-7.64-2.51l-.09-.16c-1.73-4.11-4.47-6.56-7.36-6.56-5,0-9.08,7-9.08,15.67s4.07,15.67,9.08,15.67c2.88,0,5.63-2.45,7.36-6.56l.09-.16c2.05-2.91,5.06-3.85,7.64-2.5l.45.24v41.11h40.05a3.49,3.49,0,0,0,.23-1.23,4.83,4.83,0,0,0-2.34-3.74c-4.7-2-7.51-5.32-7.51-8.88,0-5.94,7.79-10.77,17.37-10.77s17.37,4.83,17.37,10.77c0,3.56-2.8,6.88-7.51,8.88a4.83,4.83,0,0,0-2.34,3.74A3.5,3.5,0,0,0,345.31,471.45Z"/><path id="_Path_23" data-name="&lt;Path&gt;" class="cls-13" d="M192,278v41.46a4.47,4.47,0,0,1-2,.52h-.1a5.66,5.66,0,0,1-4.48-2.78c-1.79-4.28-4.77-7.07-8.14-7.07-5.48,0-9.93,7.39-9.93,16.51a27,27,0,0,0,.47,5.06c.12.58.24,1.15.41,1.69,1.54,5.75,5,9.76,9.05,9.76,2.84,0,5.41-2,7.21-5.19a16.17,16.17,0,0,0,.93-1.88,5.64,5.64,0,0,1,4.48-2.76,4.45,4.45,0,0,1,2.06.52v41.44H150.54a2.85,2.85,0,0,0-.22.52,4.05,4.05,0,0,0-.3,1.56,4.15,4.15,0,0,0,0,.46.52.52,0,0,0,0,.17,5.94,5.94,0,0,0,2.72,3.84c4.21,1.78,7,4.7,7.07,8V390c0,5.48-7.39,9.93-16.51,9.93-8.77,0-15.92-4.09-16.5-9.27,0-.22,0-.44,0-.66,0-3.37,2.81-6.35,7.07-8.14a5.62,5.62,0,0,0,2.78-4.47v0a4,4,0,0,0-.3-1.54,2.87,2.87,0,0,0-.22-.52H94.7V333.83a4.45,4.45,0,0,1,2.06-.52,5.64,5.64,0,0,1,4.48,2.76c1.79,4.28,4.77,7.07,8.14,7.07,2.83,0,5.36-1.95,7.16-5.09a23,23,0,0,0,2.78-11.42c0-9.12-4.45-16.51-9.93-16.51-3.37,0-6.35,2.79-8.14,7.07a7.65,7.65,0,0,1-.73.9A5.08,5.08,0,0,1,96.77,320a4.45,4.45,0,0,1-2.06-.52V278h41.44a4.45,4.45,0,0,0,.52-2.06,1.26,1.26,0,0,0,0-.36s0,0,0,0a5.78,5.78,0,0,0-2.74-4.09c-4.26-1.79-7.07-4.77-7.07-8.14,0-.17,0-.34,0-.51v0c.46-5.25,7.67-9.41,16.51-9.41s16,4.16,16.5,9.41v0c0,.17,0,.34,0,.51,0,3.37-2.81,6.35-7.07,8.14a5.78,5.78,0,0,0-2.74,4.09s0,0,0,0a1.27,1.27,0,0,0,0,.36,4.45,4.45,0,0,0,.52,2.06Z"/><path class="cls-5" d="M143.35,400.74c-9.25,0-16.7-4.31-17.34-10,0-.27,0-.51,0-.76,0-3.56,2.8-6.88,7.51-8.88a4.78,4.78,0,0,0,2.34-3.72,3.12,3.12,0,0,0-.24-1.23H93.86v-42.8l.45-.24c2.56-1.34,5.61-.39,7.63,2.5l.09.16c1.72,4.1,4.47,6.55,7.36,6.55,2.43,0,4.71-1.66,6.42-4.66a22.19,22.19,0,0,0,2.66-11c0-8.64-4.07-15.67-9.09-15.67-2.89,0-5.64,2.45-7.36,6.55l-.08.15a8.51,8.51,0,0,1-.81,1,5.54,5.54,0,0,1-6.83,1.53l-.45-.24V277.13h41.74a3.49,3.49,0,0,0,.22-1.22l-.13-.48.07-.1a5.2,5.2,0,0,0-2.28-3.17c-4.7-2-7.5-5.32-7.5-8.88,0-.2,0-.39,0-.59.5-5.72,8.12-10.19,17.36-10.19s16.85,4.47,17.34,10.18c0,.2,0,.4,0,.6,0,3.56-2.8,6.88-7.5,8.88a5.28,5.28,0,0,0-2.27,3.08l.06.06-.13.57a3.82,3.82,0,0,0,.22,1.25h41.74v42.81l-.45.24a5.35,5.35,0,0,1-2.33.62,6.52,6.52,0,0,1-5.3-3.14l-.09-.16c-1.72-4.1-4.47-6.55-7.36-6.55-5,0-9.09,7-9.09,15.67a25.93,25.93,0,0,0,.46,4.9,16.37,16.37,0,0,0,.38,1.6c1.5,5.58,4.73,9.17,8.25,9.17,2.41,0,4.77-1.74,6.47-4.76a15.21,15.21,0,0,0,.88-1.79l.09-.16c2-2.88,5.07-3.84,7.63-2.5l.45.24v42.8H151.1a3.07,3.07,0,0,0-.21,1.6,5.05,5.05,0,0,0,2.31,3.36c4.63,2,7.44,5.24,7.51,8.75C160.71,395.9,152.92,400.74,143.35,400.74Zm-47.8-26.31h41.12l.23.47a3.73,3.73,0,0,1,.28.68,4.57,4.57,0,0,1,.33,1.76,6.44,6.44,0,0,1-3.14,5.18l-.16.09c-4.1,1.73-6.55,4.48-6.55,7.36,0,.2,0,.4,0,.6.53,4.75,7.4,8.49,15.65,8.49C152,399,159,395,159,390c-.06-2.94-2.51-5.65-6.56-7.36l-.16-.09a6.76,6.76,0,0,1-3.07-4.35,1.36,1.36,0,0,1,0-.35,3.19,3.19,0,0,1,0-.46,4.87,4.87,0,0,1,.37-1.88,3.15,3.15,0,0,1,.24-.58l.23-.47h41.12v-40a3.54,3.54,0,0,0-1.22-.22,4.85,4.85,0,0,0-3.74,2.32,17.68,17.68,0,0,1-.94,1.89c-2,3.57-4.9,5.62-7.94,5.62-4.31,0-8.18-4.08-9.87-10.39-.17-.54-.29-1.14-.42-1.74a27.83,27.83,0,0,1-.49-5.23c0-9.57,4.84-17.36,10.78-17.36,3.57,0,6.89,2.8,8.88,7.5a4.88,4.88,0,0,0,3.74,2.34,3.73,3.73,0,0,0,1.22-.23V278.82H150l-.24-.45a5.31,5.31,0,0,1-.62-2.46v0l-.29-.29.36-.42a6.72,6.72,0,0,1,3.07-4.43l.16-.09c4.1-1.73,6.55-4.48,6.55-7.36a4.08,4.08,0,0,0,0-.43c-.41-4.79-7.44-8.66-15.66-8.66s-15.25,3.79-15.67,8.64c0,.17,0,.31,0,.45,0,2.88,2.45,5.63,6.55,7.36l.16.09a6.71,6.71,0,0,1,3.06,4.42l.36.4-.29.31v.05a5.31,5.31,0,0,1-.62,2.46l-.24.45H95.55v40.06a3.5,3.5,0,0,0,1.22.23,4.33,4.33,0,0,0,3.13-1.6,7.33,7.33,0,0,0,.61-.74c2-4.7,5.31-7.51,8.89-7.51,5.94,0,10.78,7.79,10.78,17.36a23.87,23.87,0,0,1-2.89,11.85c-2,3.55-4.83,5.51-7.89,5.51-3.57,0-6.89-2.8-8.88-7.5a4.86,4.86,0,0,0-3.74-2.33,3.55,3.55,0,0,0-1.22.22Z"/><path id="_Path_24" data-name="&lt;Path&gt;" class="cls-13" d="M248.15,472.46h41.44V431h0v0a4.46,4.46,0,0,0-2.08-.53,5.66,5.66,0,0,0-4.48,2.77c-1.79,4.27-4.77,7.08-8.14,7.08-5.48,0-9.92-7.4-9.92-16.52s4.44-16.52,9.92-16.52c3.37,0,6.34,2.8,8.14,7.08a5.66,5.66,0,0,0,4.48,2.77,4.46,4.46,0,0,0,2.08-.53v0h0V375.17H248.15a4.46,4.46,0,0,1-.53-2.08,5.66,5.66,0,0,1,2.77-4.48c4.27-1.79,7.08-4.77,7.08-8.14,0-5.48-7.4-9.92-16.52-9.92s-16.52,4.44-16.52,9.92c0,3.37,2.8,6.34,7.08,8.14a5.66,5.66,0,0,1,2.77,4.48,4.46,4.46,0,0,1-.53,2.08H192.3v41.44a4.46,4.46,0,0,0,2.08.53,5.66,5.66,0,0,0,4.48-2.77c1.79-4.27,4.77-7.08,8.14-7.08,5.48,0,9.92,7.4,9.92,16.52s-4.44,16.52-9.92,16.52c-3.37,0-6.34-2.8-8.14-7.08a5.66,5.66,0,0,0-4.48-2.77,4.46,4.46,0,0,0-2.08.53v41.44h55.85Z"/><path class="cls-5" d="M290.44,473.3h-99V430.5l.45-.24c2.59-1.35,5.59-.4,7.64,2.5l.09.16c1.72,4.11,4.47,6.56,7.36,6.56,5,0,9.08-7,9.08-15.67S212,408.14,207,408.14c-2.88,0-5.63,2.45-7.36,6.56l-.09.16c-2,2.91-5,3.85-7.64,2.5l-.45-.24v-42.8H233.2a3.49,3.49,0,0,0,.23-1.23,4.83,4.83,0,0,0-2.34-3.74c-4.7-2-7.51-5.32-7.51-8.88,0-5.94,7.79-10.77,17.37-10.77s17.37,4.83,17.37,10.77c0,3.56-2.8,6.88-7.51,8.88a4.83,4.83,0,0,0-2.34,3.74,3.49,3.49,0,0,0,.23,1.23h41.74v42.33h-.83l.37.71c-2.59,1.35-5.59.4-7.64-2.5l-.09-.16c-1.72-4.11-4.47-6.56-7.36-6.56-5,0-9.08,7-9.08,15.67s4.07,15.67,9.08,15.67c2.88,0,5.63-2.45,7.36-6.56l.09-.16c2-2.91,5-3.85,7.64-2.5l-.37.72h.83Zm-97.29-1.69h95.6v-40c-1.71-.64-3.54.13-5,2.11-2,4.7-5.31,7.51-8.88,7.51-5.94,0-10.77-7.79-10.77-17.37s4.83-17.37,10.77-17.37c3.57,0,6.88,2.8,8.88,7.51,1.42,2,3.26,2.75,5,2.11V376H247.64l-.24-.45a5.31,5.31,0,0,1-.62-2.47,6.49,6.49,0,0,1,3.13-5.17l.16-.09c4.11-1.72,6.56-4.47,6.56-7.36,0-5-7-9.08-15.67-9.08s-15.67,4.07-15.67,9.08c0,2.88,2.45,5.63,6.56,7.36l.16.09a6.49,6.49,0,0,1,3.13,5.17,5.31,5.31,0,0,1-.62,2.47l-.24.45H193.15v40a3.48,3.48,0,0,0,1.23.23,4.88,4.88,0,0,0,3.74-2.34c2-4.7,5.31-7.51,8.88-7.51,5.94,0,10.77,7.79,10.77,17.37s-4.83,17.37-10.77,17.37c-3.57,0-6.88-2.8-8.88-7.51a4.88,4.88,0,0,0-3.74-2.34,3.48,3.48,0,0,0-1.23.23Z"/><path id="_Path_25" data-name="&lt;Path&gt;" class="cls-13" d="M483.36,320.22V278.78H441.91a4.46,4.46,0,0,0-.53,2.08,5.66,5.66,0,0,0,2.77,4.48c4.27,1.79,7.08,4.77,7.08,8.14,0,5.48-7.4,9.92-16.52,9.92s-16.52-4.44-16.52-9.92c0-3.37,2.8-6.34,7.08-8.14a5.66,5.66,0,0,0,2.77-4.48,4.46,4.46,0,0,0-.53-2.08H386.07v41.44a4.46,4.46,0,0,1-2.08.53,5.66,5.66,0,0,1-4.48-2.77c-1.79-4.27-4.77-7.08-8.14-7.08-5.48,0-9.92,7.4-9.92,16.52s4.44,16.52,9.92,16.52c3.37,0,6.34-2.8,8.14-7.08A5.66,5.66,0,0,1,384,334.1a4.46,4.46,0,0,1,2.08.53v41.44h41.44A4.46,4.46,0,0,0,428,374a5.66,5.66,0,0,0-2.77-4.48c-4.27-1.79-7.08-4.77-7.08-8.14,0-5.48,7.4-9.92,16.52-9.92s16.52,4.44,16.52,9.92c0,3.37-2.8,6.34-7.08,8.14a5.66,5.66,0,0,0-2.77,4.48,4.46,4.46,0,0,0,.53,2.08h41.44V320.22Z"/><path class="cls-5" d="M484.2,376.92H441.4l-.24-.46a5.32,5.32,0,0,1-.62-2.47,6.49,6.49,0,0,1,3.13-5.17l.16-.09c4.11-1.72,6.56-4.47,6.56-7.36,0-5-7-9.08-15.67-9.08S419,356.37,419,361.37c0,2.88,2.45,5.63,6.56,7.36l.16.09a6.49,6.49,0,0,1,3.13,5.17,5.31,5.31,0,0,1-.62,2.47l-.24.45h-42.8V335.17c-1.72-.64-3.55.13-5,2.11-2,4.7-5.32,7.51-8.88,7.51-5.94,0-10.77-7.79-10.77-17.37s4.83-17.37,10.77-17.37c3.56,0,6.88,2.8,8.88,7.51,1.42,2,3.27,2.75,5,2.11V277.94h42.33v.83l.71-.37a5.29,5.29,0,0,1,.62,2.47,6.48,6.48,0,0,1-3.13,5.17l-.16.09c-4.11,1.73-6.56,4.47-6.56,7.36,0,5,7,9.08,15.67,9.08s15.67-4.07,15.67-9.08c0-2.88-2.45-5.63-6.56-7.36l-.16-.09a6.49,6.49,0,0,1-3.13-5.17,5.3,5.3,0,0,1,.62-2.47l.72.37v-.83H484.2Zm-41.74-1.69h40.05v-95.6H442.46a3.49,3.49,0,0,0-.23,1.23,4.82,4.82,0,0,0,2.34,3.74c4.7,2,7.51,5.32,7.51,8.88,0,5.94-7.79,10.77-17.37,10.77s-17.37-4.83-17.37-10.77c0-3.56,2.8-6.88,7.51-8.88a4.82,4.82,0,0,0,2.34-3.74,3.47,3.47,0,0,0-.23-1.23h-40v41.11l-.45.24c-2.59,1.35-5.59.4-7.64-2.5l-.09-.16c-1.72-4.11-4.47-6.56-7.36-6.56-5,0-9.08,7-9.08,15.67s4.07,15.67,9.08,15.67c2.88,0,5.63-2.45,7.36-6.56l.09-.16c2-2.91,5-3.86,7.64-2.51l.46.24v41.11h40a3.49,3.49,0,0,0,.23-1.23,4.83,4.83,0,0,0-2.34-3.74c-4.7-2-7.51-5.31-7.51-8.88,0-5.94,7.79-10.77,17.37-10.77s17.37,4.83,17.37,10.77c0,3.57-2.8,6.88-7.51,8.88a4.83,4.83,0,0,0-2.34,3.74A3.5,3.5,0,0,0,442.46,375.22Z"/><path id="_Path_26" data-name="&lt;Path&gt;" class="cls-17" d="M479.22,366.85h0a5.41,5.41,0,0,1-2.44,6.66c-12.44,10.38-27.48,18.67-43.95,25.83a1.25,1.25,0,0,1-1.15-2.21c14.61-10,28.1-20.65,39.47-32.54l.16-.14A5.11,5.11,0,0,1,479.22,366.85Z"/><path id="_Path_27" data-name="&lt;Path&gt;" class="cls-18" d="M554.13,476.5c-10.89-9.25-25.79-22.39-29.08-27.73-4.71-8-8.7-21-11.28-30.74-9.44,15.79-17.25,44.48-20.22,58.75-.19.92-1.79.81-1.77-.14.39-25.41,6.77-73.13,9.75-78.08.18-.3,13.09-3.08,13.09-3.08l6.06-14.21c.56-1.33,2.17-.62,3,.56,8.29,11.83,7.88,40.1,13.48,61.27a1.68,1.68,0,0,0,.12.35c3.55,7.7,12.52,20.75,19.5,30.45A1.87,1.87,0,0,1,554.13,476.5Z"/><path id="_Path_28" data-name="&lt;Path&gt;" class="cls-19" d="M468.31,366.54s-2,5.16,5.17,7.7c6.64,1.6,23.8,11.37,26.4,23.29,0,0,14.76,6.77,28.76-6,0,0-.8-17.83-25.46-30.58-9.37-5-20.81-5.81-22.47-5.4C477.39,356.36,468.49,365.78,468.31,366.54Z"/><path id="_Path_29" data-name="&lt;Path&gt;" class="cls-17" d="M472.25,357.38a7.73,7.73,0,0,0,2,2.4.87.87,0,0,1,.35.57c.17,1.14.43,4.49-2.5,3.89a.87.87,0,0,1-.27-.11,5.81,5.81,0,0,1-2.79-3.54.87.87,0,0,1,.13-.59l1.59-2.61A.84.84,0,0,1,472.25,357.38Z"/><path id="_Path_30" data-name="&lt;Path&gt;" class="cls-13" d="M467.5,480.7l38.89-14.33L492,427.45h0v0a4.46,4.46,0,0,0-2.13.22,5.66,5.66,0,0,0-3.25,4.15c-.21,4.63-2,8.29-5.19,9.45-5.14,1.9-11.87-3.51-15-12.07s-1.54-17,3.6-18.93c3.16-1.17,6.92.44,10.08,3.83a5.66,5.66,0,0,0,5.16,1,4.46,4.46,0,0,0,1.77-1.21v0h0l-14.35-38.92-38.89,14.33a4.46,4.46,0,0,1-1.21-1.77,5.66,5.66,0,0,1,1-5.16c3.39-3.16,5-6.92,3.83-10.08-1.9-5.14-10.37-6.75-18.93-3.6s-14,9.88-12.07,15c1.17,3.16,4.82,5,9.45,5.19a5.66,5.66,0,0,1,4.15,3.25,4.46,4.46,0,0,1,.22,2.13l-38.89,14.33,14.33,38.89a4.46,4.46,0,0,0,2.13-.22,5.66,5.66,0,0,0,3.25-4.15c.21-4.63,2-8.29,5.19-9.45,5.14-1.9,11.87,3.51,15,12.07s1.54,17-3.6,18.93c-3.16,1.17-6.92-.44-10.08-3.83a5.66,5.66,0,0,0-5.16-1,4.46,4.46,0,0,0-1.77,1.21L415.1,500,454,485.68Z"/><path class="cls-5" d="M414.6,501.1l-14.8-40.16.34-.38a5.31,5.31,0,0,1,2.1-1.44,6.49,6.49,0,0,1,5.93,1.15l.14.12c3,3.26,6.47,4.6,9.17,3.61,2.2-.81,3.75-3.06,4.37-6.33a24.09,24.09,0,0,0-7.78-21.1c-2.6-2.08-5.24-2.79-7.44-2-2.71,1-4.44,4.25-4.63,8.7v.09l0,.09a6.49,6.49,0,0,1-3.77,4.73,5.32,5.32,0,0,1-2.53.27l-.51-.06-14.8-40.16,39.17-14.44a3.48,3.48,0,0,0-.21-1.23,4.83,4.83,0,0,0-3.49-2.7c-5.12-.26-8.88-2.39-10.12-5.74-2.05-5.57,3.59-12.8,12.57-16.11s18-1.47,20,4.1c1.23,3.34-.25,7.43-4,10.93a4.82,4.82,0,0,0-.9,4.32,3.48,3.48,0,0,0,.64,1.08L473.24,374l14.64,39.72-.76.3.58.53a5.31,5.31,0,0,1-2.1,1.44,6.48,6.48,0,0,1-5.93-1.14l-.14-.12c-3-3.26-6.46-4.61-9.17-3.61-2.2.81-3.75,3.06-4.37,6.33a22.15,22.15,0,0,0,1.27,11.52c3,8.11,9.24,13.3,13.94,11.57,2.71-1,4.44-4.25,4.63-8.7v-.09l0-.09a6.48,6.48,0,0,1,3.77-4.72,5.42,5.42,0,0,1,2.53-.27l-.1.8.78-.29,14.64,39.71Zm-12.85-39.75,13.85,37.58,89.7-33.06-13.85-37.58a3.5,3.5,0,0,0-1.23.21,4.83,4.83,0,0,0-2.7,3.49c-.25,5.1-2.39,8.88-5.73,10.12-5.57,2.05-12.8-3.58-16.11-12.57a23.86,23.86,0,0,1-1.35-12.42c.74-3.88,2.67-6.58,5.45-7.6,3.35-1.23,7.42.26,10.93,4a4.87,4.87,0,0,0,4.32.9,3.52,3.52,0,0,0,1.08-.64l-13.85-37.58-38.57,14.22-.38-.34a5.31,5.31,0,0,1-1.44-2.1A6.48,6.48,0,0,1,433,382l.12-.14c3.26-3,4.61-6.47,3.61-9.17-1.73-4.69-9.73-6.09-17.85-3.1s-13.3,9.24-11.57,13.94c1,2.71,4.26,4.43,8.7,4.64h.09l.09,0a6.48,6.48,0,0,1,4.72,3.77,5.29,5.29,0,0,1,.27,2.53l-.06.51-38.57,14.22,13.85,37.58a3.51,3.51,0,0,0,1.23-.21,4.89,4.89,0,0,0,2.7-3.49c.25-5.1,2.39-8.88,5.73-10.11,2.78-1,6-.23,9.08,2.25A25.76,25.76,0,0,1,423.52,458c-.74,3.88-2.67,6.58-5.45,7.6-3.35,1.23-7.43-.25-10.93-4a4.89,4.89,0,0,0-4.32-.9A3.49,3.49,0,0,0,401.75,461.35Z"/><g class="cls-20"><g class="cls-21"><path class="cls-22" d="M192,461.09c7.27-2.79,14.25-10.64,17.39-16.29l.51-1-31.12-13.07L174.63,440a16.19,16.19,0,0,0,8.2,21.13c2.59,1.24,5.6,1.24,8.94,0Z"/><path class="cls-22" d="M358.24,212.71a52.91,52.91,0,0,1-1,40.63L342.79,286a52.92,52.92,0,0,1-29.56,28.09l-.14.05a53.46,53.46,0,0,1-20.6,3.56L367,350.18l19.31-43.61a75.71,75.71,0,0,0-28-93.87Z"/><path class="cls-22" d="M281.1,476.68a15.92,15.92,0,0,0,20.61,9.16l0,0a16.2,16.2,0,0,0,3.56-1.93l-25.1-10.55A16.27,16.27,0,0,0,281.1,476.68Z"/><path class="cls-22" d="M368.92,355.23l-1.76-.77-1.76-.77-89.77-39.13s0-.07,0-.11c-1.06-.39-2.11-.8-3.15-1.27A52.8,52.8,0,0,1,260.73,306l-20.48,46.25A19.83,19.83,0,0,1,204,336.23l24.48-55.29.52-1.18-5.26-2.29-24.31-10.6a77.56,77.56,0,0,0-101.8,40h0a77.57,77.57,0,0,0,40,101.8l36.9,16.08v0l2.26.95.85.36.92.4,1.76.77,0,0,95.58,40.14,1.77.74.63.27,1.82.77L308.39,481l1.25.52c.2.09.4.15.6.23a15.85,15.85,0,0,0,11.5,0l.13-.05a16,16,0,0,0,1.75-28.94c-.39-.21-.79-.41-1.2-.59l-.54-.23-77.17-33.64c.78-1.06,1.57-2.12,2.31-3.18l76.41,33.31,1.76.77L327,450l16.16,7a15.88,15.88,0,0,0,12.1.26l.13-.05a16,16,0,0,0,.55-29.53l-16-7-1.76-.77-1.76-.77-73.4-32c.52-1.18,1-2.35,1.52-3.52l73.44,32,1.76.77,1.76.77,16,7h0l23.85,10.39a16,16,0,0,0,12.78-29.33l-33.88-14.77L354.42,388l-1.76-.77-1.76-.77-77.25-33.67q.36-2,.66-3.9l78.15,34.06,1.76.77,1.76.77,5.75,2.51,10,4.37a15.66,15.66,0,0,0,12.23.2,16,16,0,0,0,.55-29.53Z"/><path class="cls-22" d="M216.73,316.9l-9.24,20.88a16.09,16.09,0,0,0,2.73,17.15,15.67,15.67,0,0,0,5.42,4,16,16,0,0,0,21.1-8.15l20.49-46.28,2.09-4.72,2,1.75a49.21,49.21,0,0,0,50.43,9.1l.13-.05a49.11,49.11,0,0,0,27.43-26.06l14.48-32.7a49.11,49.11,0,0,0,.85-37.83q-.9-2.34-2-4.55c-.51-1-1.07-2-1.64-3-.77-.37-1.54-.76-2.34-1.11h0A77.63,77.63,0,0,0,255.23,230l-6.87,15.52v0L232.5,281.29l-.53,1.2-12.32,27.82Z"/><path class="cls-22" d="M273.25,311.44l.12.05-.18-.08.05,0Z"/><path class="cls-22" d="M210.84,444.19h0L211,444Z"/><path class="cls-22" d="M239.56,470.6a16,16,0,0,0,20.93,19.84h0a15.89,15.89,0,0,0,8.89-8.43l4.93-11.13-29.52-12.4Z"/><path class="cls-22" d="M240.58,456.69l-27.14-11.4c-.23.47-.46.94-.73,1.42l-15.89,31.71a16,16,0,0,0,29.29,12.87l10.51-23.74Z"/></g></g><path id="_Path_31" data-name="&lt;Path&gt;" class="cls-15" d="M460.91,358.42c-1.68-4.9-.17-9.3,3.31-10.61s9.08.66,9.28,5.87c.08,2.13,0,4.42.52,6a10.64,10.64,0,0,1-3.78,5.21C468.31,366.54,462.77,363.6,460.91,358.42Z"/><path id="_Path_32" data-name="&lt;Path&gt;" class="cls-15" d="M482.62,357.35h0c-2.95.56-6,3.66-7.09,7.11l-4.91,16.06c-1,3.9-13.93,20.74-22.82,32-1.42,1.8-.15,3.48,1.51,2,8.16-7.24,19.71-18.07,28-28.19,2.61-3.67,6.65-15.07,9.21-22.76C487.82,359.62,486,356.71,482.62,357.35Z"/><path id="_Path_33" data-name="&lt;Path&gt;" class="cls-16" d="M472.53,358.68c1.11-1.34-.92-2.65-.92-2.65-1.47-.35-1.1,1.36-1.1,1.36a4.28,4.28,0,0,1-1.9-1.8,1.76,1.76,0,0,1-1.93,1.34.88.88,0,0,1-.94.53v0a1.8,1.8,0,0,1-2.28,1.07,2.19,2.19,0,0,1-.53-.2,1.58,1.58,0,0,1-2.35.05,2.36,2.36,0,0,1-1.12,0,11.38,11.38,0,0,1-2.61-4.26,2,2,0,0,1,1.35-1.53,1,1,0,0,1,0-.57,1.19,1.19,0,0,1,1.1-.82h.08s0,0,0,0a.79.79,0,0,1,0-.49.86.86,0,0,1,.46-.55.66.66,0,0,1-.19-.59.88.88,0,0,1,.94-.53v0a1.61,1.61,0,0,1,1.12-1.26.3.3,0,0,1,0-.09.79.79,0,0,1,.95-.58.77.77,0,0,1,.22.09,2,2,0,0,1,1.48-.46v0c.2-.84,1.39-1.28,2.66-1a2.33,2.33,0,0,1,2,1.76c5.95-1.23,5.09,5.13,5.09,5.13-.18.73.05,6.94,0,7.33Z"/><path id="_Path_34" data-name="&lt;Path&gt;" class="cls-15" d="M394.24,83.22h0a4.72,4.72,0,0,1,4.26,4.09c2.07,19.51-5.84,39.11-21.58,58.8-.92,1.15-2.76.26-2.13-1,8.88-18,13.79-36.55,12.68-56.11C387.29,85.61,390.66,82.75,394.24,83.22Z"/><path id="_Path_35" data-name="&lt;Path&gt;" class="cls-16" d="M425.22,64.4c9.49,2.38,24.24,7,24.24,7l31.39,6L436.5,83.28l-20.27-5.83Z"/><path id="_Path_36" data-name="&lt;Path&gt;" class="cls-15" d="M387,73.86l-7.06-4.68a8.3,8.3,0,0,0-7.31-.92l-27.54,9.59a.93.93,0,0,0,.4,1.81l29.07-3.09,7.29,5a4.62,4.62,0,0,0,6.36-1.13h0A4.62,4.62,0,0,0,387,73.86Z"/><g id="_Clip_Group_4" data-name="&lt;Clip Group&gt;"><g class="cls-23"><path id="_Path_37" data-name="&lt;Path&gt;" class="cls-24" d="M377.71,79.6s5.48-4.47,5.7-8.5l6,3.9.14,6.2-5.84,2.3Z"/></g></g><path id="_Path_38" data-name="&lt;Path&gt;" class="cls-16" d="M418.91,82.23l13.77,24.3a10.11,10.11,0,0,0,7.5,5l31.32,4.05a1.42,1.42,0,0,0,.62-2.77l-25.32-8.08A10.09,10.09,0,0,1,440,97.21C437.86,87,432.76,66.44,425.61,65,416,63.1,418.91,82.23,418.91,82.23Z"/><path id="_Path_39" data-name="&lt;Path&gt;" class="cls-2" d="M421.45,85.29c-3.51,1.61-9.8-2-15.68,0-2.11.88-4,1.76-5.65,2.6a12.45,12.45,0,0,1-16.05-4.36l-2.88-4.43c5.34-9.1,16-12.71,24.38-14.33,2-.4,3.61-.64,4.55-.76l.18,0c.26,0,.5,0,.75,0a41,41,0,0,1,14.17.46,2,2,0,0,1,1.5,1.44C430,77.38,421.45,85.29,421.45,85.29Z"/><path id="_Path_40" data-name="&lt;Path&gt;" class="cls-15" d="M385.1,80.76a5.38,5.38,0,0,0,1.58.57.88.88,0,0,1,.68.54c.41,1.06,1.08,3.42-1.2,3.42h-2Z"/><ellipse id="_Ellipse_5" data-name="&lt;Ellipse&gt;" class="cls-15" cx="376.85" cy="82.84" rx="7.35" ry="9.31" transform="matrix(0.29, -0.96, 0.96, 0.29, 186.58, 418.51)"/><path id="_Path_41" data-name="&lt;Path&gt;" class="cls-16" d="M376.36,81.37s-2,8.82-9.8,7.84c0,0,2-2.94,1-5.88a6.14,6.14,0,0,1,5.88-7.84s1.35-7,10.48,3.37l1.35,1.72S383.22,85.29,376.36,81.37Z"/><g id="_Clip_Group_5" data-name="&lt;Clip Group&gt;"><g class="cls-25"><path id="_Path_42" data-name="&lt;Path&gt;" class="cls-24" d="M386.52,99.12s9.38-3.46,13,.93l-.34-14.83a7.79,7.79,0,0,0-7.39-2.81s-3.87.61-4.39,3.66Z"/></g></g><g class="cls-26"><g class="cls-21"><path class="cls-22" d="M189.53,356.52c7.79,0,17.12-4.84,22.07-9l.83-.76L188,323.42l-7.19,7.23a16.19,16.19,0,0,0,.1,22.66c2,2.08,4.79,3.16,8.35,3.2Z"/><path class="cls-22" d="M433.64,184a52.91,52.91,0,0,1-15.44,37.59L393,247a52.92,52.92,0,0,1-37.65,15.65h-.15a53.46,53.46,0,0,1-20.51-4l57.93,56.95,33.63-33.82A75.71,75.71,0,0,0,433.64,184Z"/><path class="cls-22" d="M267.18,403a15.92,15.92,0,0,0,16,15.93h0a16.2,16.2,0,0,0,4-.53l-19.67-18.83A16.27,16.27,0,0,0,267.18,403Z"/><path class="cls-22" d="M392.63,321l-1.37-1.35-1.37-1.35-69.83-68.65,0-.11c-.85-.74-1.69-1.51-2.49-2.31a52.8,52.8,0,0,1-8.41-10.88l-35.67,35.86a19.83,19.83,0,0,1-28.13-28L288,201.33l.91-.92-4.09-4L266,177.81a77.56,77.56,0,0,0-109.37.93h0a77.57,77.57,0,0,0,.93,109.37l28.7,28.22,0,0,1.77,1.69.66.64.71.7,1.37,1.35,0,0,74.9,71.68,1.39,1.33.5.48,1.43,1.37,22.16,21.21,1,.94c.15.15.32.28.48.43a15.85,15.85,0,0,0,10.73,4.14h.14a16,16,0,0,0,12-26.4c-.29-.34-.59-.67-.91-1l-.42-.41-60-59c1.11-.71,2.22-1.42,3.3-2.14l59.44,58.44,1.37,1.35,1.37,1.35,12.57,12.36a15.88,15.88,0,0,0,11.21,4.57h.14A16,16,0,0,0,354.54,384L342.1,371.77l-1.37-1.35-1.37-1.35-57.1-56.14c.91-.91,1.81-1.83,2.68-2.75l57.13,56.16,1.37,1.35,1.37,1.35,12.42,12.21h0l18.55,18.24a16,16,0,0,0,22.43-22.81l-26.35-25.91-4.49-4.41L366,345l-1.37-1.35-60.09-59.08q1-1.71,2-3.41l60.79,59.77,1.37,1.35,1.37,1.35,4.48,4.4,7.8,7.67a15.66,15.66,0,0,0,11.35,4.57,16,16,0,0,0,11.08-27.38Z"/><path class="cls-22" d="M264.22,230.72l-16.1,16.19a16.09,16.09,0,0,0-3.59,17,15.67,15.67,0,0,0,3.65,5.63,16,16,0,0,0,22.62-.06l35.69-35.89,3.64-3.66,1.21,2.33a49.21,49.21,0,0,0,43.84,26.54h.14a49.11,49.11,0,0,0,34.94-14.52l25.21-25.35a49.11,49.11,0,0,0,14.33-35q0-2.51-.26-5c-.11-1.13-.28-2.26-.47-3.37-.59-.63-1.17-1.26-1.79-1.87h0a77.63,77.63,0,0,0-96-10.4l-12,12,0,0-27.59,27.75-.93.93-21.45,21.57Z"/><path class="cls-22" d="M319,245.84l.1.09-.14-.14,0,0Z"/><path class="cls-22" d="M213.19,347.49h0l.18-.17Z"/><path class="cls-22" d="M230.56,382.42a16,16,0,0,0,12.45,26h0a15.89,15.89,0,0,0,11.31-4.69l8.58-8.63L239.81,373Z"/><path class="cls-22" d="M236.48,369.79l-21.26-20.36c-.38.36-.77.71-1.19,1.07l-26.18,23.93a16,16,0,0,0,22.75,22.5l18.31-18.41Z"/></g></g></g></g></svg>