<svg id="Layer_1" data-name="Layer 1" xmlns="http://www.w3.org/2000/svg" viewBox="0 0 430 187"><defs><style>.cls-1{fill:#78bb9b;}.cls-2{fill:#3a8483;}</style></defs><title>GS-Buttons</title><polygon class="cls-1" points="0 0 0 13.24 64.82 94.62 70 88 0 0"/><path class="cls-2" d="M418,.25H0L70,88.12,0,176H418a12.15,12.15,0,0,0,12-12.11V12.36A12.15,12.15,0,0,0,418,.25Z"/><path class="cls-1" d="M418,176H0v11H417.88a12,12,0,0,0,3.54-.53A12.17,12.17,0,0,0,430,175.63c0-.25,0-.5,0-.75v-11A12.15,12.15,0,0,1,418,176Z"/></svg>