<svg xmlns="http://www.w3.org/2000/svg" xmlns:xlink="http://www.w3.org/1999/xlink" viewBox="0 0 560 560"><defs><style>.cls-1{fill:none;}.cls-18,.cls-2,.cls-8{fill:#070707;}.cls-2{opacity:0.1;}.cls-3{fill:#f7f4f3;}.cls-4{fill:#e2e2ed;}.cls-5{fill:#797981;}.cls-6{fill:#ecc8af;}.cls-7{fill:#ffc776;}.cls-8{opacity:0.17;}.cls-9{fill:#cacaaa;}.cls-10{fill:#fff;}.cls-11{fill:#575761;}.cls-12{fill:#3a8585;}.cls-13{fill:#564d4a;}.cls-14{fill:#e2bba1;}.cls-15{clip-path:url(#clip-path);}.cls-16{clip-path:url(#clip-path-2);}.cls-17{fill:#444;}.cls-19{fill:#edccb7;}.cls-20{fill:#5d5d5d;}.cls-21{fill:#f8ffff;opacity:0.4;}</style><clipPath id="clip-path"><path class="cls-1" d="M74.73,306.29h0c2.37,2.28,5.2,1.52,6-1.59l12-48.34c.37-1.49-1.35-2.94-1.9-1.6L72.77,298A8.12,8.12,0,0,0,74.73,306.29Z"/></clipPath><clipPath id="clip-path-2"><path class="cls-1" d="M83.22,306.37h0a5.54,5.54,0,0,0,8.6.57l37.69-40.3a1.39,1.39,0,0,0-1.79-2.11l-43.36,33.6A6,6,0,0,0,83.22,306.37Z"/></clipPath></defs><title>Benefit Icons_v4</title><g id="Improves_Presentation" data-name="Improves Presentation"><path class="cls-2" d="M532.88,414.52,507.52,64.45,497.08,97,484.81,435.51s1.71.95,4.43,2.17l-461-15.93-.37,10.75L524,449.64l.37-10.75-1.17,0c7-3.79,6.34-3,8.67-7.74C534.59,425.58,532.88,414.52,532.88,414.52Z"/><path class="cls-3" d="M513.6,432.17c19.21,2.64-448.74-5.43-473.33-6.45s0-361.27,0-361.27H513.6S494.39,429.54,513.6,432.17Z"/><path class="cls-4" d="M310.87,458a1.92,1.92,0,0,1-2.1,1.2l-.76-.1c-1.05-.14-1.79-1.12-1.7-1.72l4-29c.08-.6,1-1,2.05-.82l.76.1c1.05.14,1.84.75,1.75,1.34Z"/><rect class="cls-4" x="170.89" y="84.43" width="12.29" height="338.28"/><rect class="cls-5" x="170.89" y="296.5" width="12.29" height="99.89"/><rect class="cls-6" x="51.03" y="84.43" width="109.11" height="87.6"/><rect class="cls-7" x="43.34" y="314.94" width="109.11" height="87.6"/><rect class="cls-8" x="47.78" y="194.79" width="109.11" height="87.6" transform="translate(-72.66 46.82) rotate(-19.17)"/><rect class="cls-9" x="38.9" y="192.29" width="109.11" height="87.6" transform="translate(-72.33 43.77) rotate(-19.17)"/><rect class="cls-10" x="190.87" y="98.26" width="299.67" height="279.69"/><rect class="cls-11" x="190.87" y="361.05" width="299.67" height="23.05"/><path class="cls-3" d="M203.88,370.48c0-.89,0-3.72,2.87-1.8l7.1,4.77s1.43,1.25-.88,2.16l-6.87,2.74s-2.15,1.39-2.32-1.5C203.79,376.84,203.84,372.08,203.88,370.48Z"/><path class="cls-3" d="M224.68,377.55c0,1-.49,1.94-1.27,1.94H223c-.77,0-1.4-1-1.4-1.94v-8.61a1.59,1.59,0,0,1,1.4-1.74h.4c.78,0,1.27.77,1.27,1.74Z"/><path class="cls-3" d="M229.29,377.55c0,1-.27,1.94-1.05,1.94h-.4a2,2,0,0,1-1.62-1.94v-8.61a1.76,1.76,0,0,1,1.62-1.74h.4c.78,0,1.05.77,1.05,1.74Z"/><path class="cls-3" d="M473.64,372.62c0,1.25-.31,2.26-1.65,2.26H251.7a2.35,2.35,0,0,1-2.43-2.26v-.09a2.35,2.35,0,0,1,2.43-2.26H472c1.34,0,1.65,1,1.65,2.26Z"/><circle class="cls-3" cx="267.03" cy="372.49" r="6.83"/><circle class="cls-12" cx="267.12" cy="372.39" r="3.85"/><rect class="cls-4" x="29.51" y="22.96" width="496.38" height="41.49"/><path class="cls-11" d="M64.86,42.17A3.84,3.84,0,0,1,61,46H50.26a3.84,3.84,0,0,1-3.84-3.84h0a3.84,3.84,0,0,1,3.84-3.84H61a3.84,3.84,0,0,1,3.84,3.84Z"/><path class="cls-11" d="M507.45,42.17A3.84,3.84,0,0,1,503.61,46H492.85A3.84,3.84,0,0,1,489,42.17h0a3.84,3.84,0,0,1,3.84-3.84h10.76a3.84,3.84,0,0,1,3.84,3.84Z"/><rect class="cls-9" x="427.54" y="4.51" width="7.68" height="23.05" rx="3.82" ry="3.82"/><path class="cls-13" d="M433.68,142c0,.44-.37.8-1.54.8h0c-1.17,0-1.54-.36-1.54-.8V19.33c0-.44.36-.8,1.54-.8h0c1.17,0,1.54.36,1.54.8Z"/><rect class="cls-13" x="424.46" y="18.35" width="13.83" height="3.07" rx="1.25" ry="1.25"/><rect class="cls-13" x="424.46" y="15.27" width="13.83" height="3.07" rx="1.25" ry="1.25"/><rect class="cls-11" x="269.34" y="181.13" width="10.76" height="496.38" transform="translate(-163.84 689.05) rotate(-88.02)"/><path class="cls-2" d="M500.54,218.11c-8.62-6.6-19.86-15.57-25-21.33a1.45,1.45,0,0,1-.2-.27c-8.1-13.13-14.19-30.92-21.33-42,.12-.19.23-.36.35-.55,0,0-5.39-15.29-30.19-19.87-9.45-1.86-19.62.44-21,1.23s-3.2,3.66-4.82,6.5a9.45,9.45,0,0,0,.1-1l.08,0c-.1-.34-1.93-5.67-2-6.36,0,0-.93-5.75-5.78-3.12a2.11,2.11,0,0,0-2.16-1c-1.18.07-2.1.77-2.05,1.55v0a1.8,1.8,0,0,0-1.17.79.7.7,0,0,0-.89.73.24.24,0,0,0,0,.08,1.46,1.46,0,0,0-.64,1.39v0c-.41.12-.69.4-.67.71a.6.6,0,0,0,.32.47.77.77,0,0,0-.26.6.72.72,0,0,0,.17.41l0,0-.06,0h0a1.08,1.08,0,0,0-.74,1,.91.91,0,0,0,.19.49,1.84,1.84,0,0,0-.77,1.69,10.35,10.35,0,0,0,3.39,3,2.13,2.13,0,0,0,1-.29,1.44,1.44,0,0,0,.5.16c2.59,3.24,6.88,4.45,8.83,3.56a5.45,5.45,0,0,0-.48,1.29,4.8,4.8,0,0,0,1.8,3.83l-6.63,7.43c-2.45,3-20.32,12.84-32.49,19.35-1.94,1-1.54,2.92.48,2.25,9.92-3.33,24.19-8.53,35.37-14.28a46.53,46.53,0,0,0,6.72-5.62c.06,3.88-7.06,23-12,35.84-.8,2.05.74,3.22,1.82,1.39,5.36-9,12.8-22.23,17.53-33.88a53.75,53.75,0,0,0,1.58-10.16c7.66,1.6,17.62,5.58,21.47,12.47a16.14,16.14,0,0,0,2.22.08,2.33,2.33,0,0,0-.52.38c-1.28,5.09,5.75,48.24,12.1,70.43.24.83,1.65.51,1.58-.34-1.18-13.18-2-40.18,2.09-56.39,4.82,7.82,11.71,18,17.91,23.74,4.27,3.78,20.68,11.27,32.58,16.44A1.7,1.7,0,0,0,500.54,218.11Z"/><path class="cls-8" d="M97.58,306.89l33.14-38.56c1-1.2-.39-3-1.58-2L92,297.63l-1.52-.12c.46-.16.88-.31,1.22-.45a1.59,1.59,0,0,0,1-1.61c0-.32-.07-.65-.12-1,2.11-1.7,3-5.32,2.06-9.07A9.79,9.79,0,0,0,93,282l-1.64-.65,2-23c.12-1.43-1.4-2.44-1.7-1.12l-4.94,22.42a9,9,0,0,0-4.2,2.48c-2.4,2.5-1.33,11.5-1,13.86a1.5,1.5,0,0,0,.49,1l0,0c-1.8.31-3.35,1.76-4,6.84a104,104,0,0,1-2.77,18.27c-1.71,7.24-20.06,28.91-21.91,38.53,1.05.45,2.76,1.08,4.89,1.81-2.55,6-3.66,17.7-3.66,17.7s8.64-6.81,13.89-14.52c3.74,1.06,7.76,2.09,11.67,2.92,3,13.06,4.47,37.63,5.07,51.71.07,1.62,1.8,1.69,2,.08,3.22-21.82,4-38.35,3.87-50.09a20.81,20.81,0,0,0,7.74-.5c-3.37-5.05-6.49-33.32-4.24-45.54A79.2,79.2,0,0,0,97.58,306.89Z"/><path class="cls-14" d="M74.73,306.29h0c2.37,2.28,5.2,1.52,6-1.59l12-48.34c.37-1.49-1.35-2.94-1.9-1.6L72.77,298A8.12,8.12,0,0,0,74.73,306.29Z"/><g class="cls-15"><path class="cls-7" d="M83.1,296.54s-4.1-6-7.39-6L71.61,300s0,6.82,4.93,7.67S80.64,306.77,83.1,296.54Z"/></g><path class="cls-6" d="M86.22,282a9.77,9.77,0,0,1,1.57,3.41c1.2,4.58-.42,9-3.63,9.93L78,293.06l.73-11.24,3.64-1.34Z"/><path class="cls-14" d="M60,350c-1.91,3.39-6.46,18.63-15.33,30.38-5.74,7.61-11.43,10-20.68,18.4-.92,1.26.05,1.47,1.72,1.58,0,0,15.86-4.12,25.41-15.16,5.21-6,11.57-17.54,17.87-26l2.5-3.66a1.32,1.32,0,0,0-.56-1.95l-9.22-4.15A1.32,1.32,0,0,0,60,350Z"/><path class="cls-6" d="M84.9,347.28s3.63,21.84-.75,72.61c-.14,1.62-3.16,1.66-3.33,0-1.62-15.71-.58-44.54-5.11-55.43-4.24-8.61-6.36-8.61-7.07-19.13Z"/><path class="cls-4" d="M90.49,298.06,76.89,297c-2.45-.2-4.79.33-5.61,6.88a104,104,0,0,1-2.77,18.27c-1.71,7.24-20.06,28.91-21.91,38.53C53,363.35,83,372.87,92.13,369.75c-3.37-5.05-6.49-33.32-4.24-45.54C91.2,311.82,91.12,304.51,90.49,298.06Z"/><g class="cls-16"><path class="cls-9" d="M91.31,291.43s4.93.85,7.39,9.38l-9,8.52-7.39-.85-.82-7.67,4.1-4.26Z"/><path class="cls-6" d="M83.22,306.37h0a5.54,5.54,0,0,0,8.6.57l37.69-40.3a1.39,1.39,0,0,0-1.79-2.11l-43.36,33.6A6,6,0,0,0,83.22,306.37Z"/><path class="cls-7" d="M91.31,291.43s4.93.85,7.39,9.38l-9,8.52-7.39-.85-.82-7.67,4.1-4.26Z"/></g><path class="cls-17" d="M84.22,283.6a10.33,10.33,0,0,1,0,4.77,1.67,1.67,0,0,0,.09,1,21.34,21.34,0,0,1,1.59,6.08,1.59,1.59,0,0,1-1,1.61c-2.05.85-6.75,2.37-9.66-.08a1.51,1.51,0,0,1-.49-1c-.33-2.36-1.39-11.35,1-13.85,0,0,3.81-4.14,7.38-1.92a2.15,2.15,0,0,1,1.07,2.52A1.48,1.48,0,0,0,84.22,283.6Z"/><path class="cls-18" d="M379.1,157.15l0,0,0-.06Z"/><path class="cls-6" d="M374.12,160.32l-.05,0,0-.06Z"/><path class="cls-11" d="M314.14,479.48h-.74c-.18,0-17.86-.55-20.86-4.83h0c-1.83-2.61.69-6.31,1.52-7.52,2.64-3.87,10.84-12.69,15.53-11.54s9.15,13.19,9.64,14.55c2,5.53,1.44,6.94.78,7.82S318.08,479.48,314.14,479.48Zm1.87-3.55Zm-19.46-3.81c2.68,1.6,15.06,3.1,19.34,2.73-.78-3.87-5.24-13.48-7.36-14.75C305.7,460.5,297.25,469.05,296.55,472.13ZM317,474.66Zm-20.74-2.76"/><path class="cls-17" d="M296.86,511.68S335,503,354.17,553.31c1.13,4.73-2.46,4.14-3.51,2.15,0,0-17.58-25-33.91-23.8-2.07.15-14.11,3.14-16.52-1.25Z"/><path class="cls-17" d="M298.21,524.72s22.41-45.05,59-39.59a1.8,1.8,0,0,1,.51,3.41s-29.27-.15-41.11,40.72Z"/><path class="cls-19" d="M279.17,495.64h0a4,4,0,0,1,1.35-6c6.71-3.5,13.85-5.57,17.39-9.75,4.26-5,4.12-5.14,7.26-10.5.89-1.25,2-1,1.74,1.24-.26,5.91-3.91,11.11-7.67,14.55a111.71,111.71,0,0,1-14.78,11.37A3.93,3.93,0,0,1,279.17,495.64Z"/><path class="cls-20" d="M275.39,492.56l1.18-1.35A8.12,8.12,0,0,1,287,489.63c7.53,4.87,14.32,11.71,21.83,19.07,0,0,6.22,12.74-8.94,23.59-8.71-20.71-14.9-28.2-23.46-34.16C275,497.14,274.21,493.91,275.39,492.56Z"/><path class="cls-19" d="M277.72,483c1.87,2.88,2.71,3,2.34,7,1.39,1.72,2.57,2.54,3.23,1.16.76-2.82,0-3.95-.7-8.15Z"/><path class="cls-6" d="M280.44,475.14c5.62,3.68,4.34,7.19,2.06,9.81s-6.92,2.49-10.35-.3-4.34-7.19-2.05-9.81S276.73,472.71,280.44,475.14Z"/><path class="cls-17" d="M273.11,480.45s2.19,1.38,1.21,3.36c0,0-1.82,1.2.69,1.92a.75.75,0,0,0,1-.36s2,0,2.69,1.2-5.51.36-7.88-1.5c0,0-3.54-2-3.56-3.61,0,0-4.71-2.1.07-7.63,0,0,3.78-5.17,3.25-6.61,0,0,3.79,4.24,4.12,5.94a4.41,4.41,0,0,0-1.36.13S270.39,477.63,273.11,480.45Z"/><path class="cls-6" d="M275.16,496.5h0a4,4,0,0,1,2.75-5.47c7.36-1.78,14.78-2.06,19.23-5.26,5.35-3.85,8.37-9.32,12.71-13.76,1.17-1,2.15-.45,1.39,1.63-1.67,5.67-7.67,15.6-12.16,18s-11.76,4.51-19,7A3.93,3.93,0,0,1,275.16,496.5Z"/><path class="cls-14" d="M398.46,151.68h0a4.91,4.91,0,0,1-2.24,6c-11.33,9.38-25,16.86-40,23.3a1.14,1.14,0,0,1-1-2c13.31-9,25.59-18.65,36-29.41l.15-.13A4.65,4.65,0,0,1,398.46,151.68Z"/><path class="cls-11" d="M493.79,223.17c-11.9-5.17-28.32-12.66-32.58-16.44C455,201,448.13,190.81,443.31,183c-4,16.21-3.27,43.21-2.09,56.39.08.85-1.34,1.17-1.58.34-6.36-22.19-13.39-65.34-12.1-70.43.08-.31,10.57-6.12,10.57-6.12l1.52-14c.14-1.31,1.72-1.11,2.75-.31,10.32,8.1,17.41,32.78,27.86,49.7a1.45,1.45,0,0,0,.2.27c5.12,5.76,16.35,14.74,25,21.33A1.7,1.7,0,0,1,493.79,223.17Z"/><path class="cls-9" d="M389.61,151.28s-.4,5,6.53,5.33c6.19-.36,23.68,3.61,29.08,13.28,0,0,14.61,2,23.41-12.79,0,0-5.39-15.29-30.19-19.87-9.45-1.86-19.62.44-21,1.23C394.82,140,389.57,150.57,389.61,151.28Z"/><path class="cls-2" d="M302.58,198c-2.83-9.62-12.1-42,25.5-31l93.64,27.48s19.35,10.48-2.63,28.06l-65.4,53.68s-18.42,21.82-30.23-8.87C323.45,267.35,307.7,215.34,302.58,198Z"/><path class="cls-12" d="M295.29,184.61c-2.83-9.62-12.1-42,25.5-31l93.64,27.48s19.35,10.48-2.63,28.06l-65.4,53.68S328,284.7,316.16,254C316.16,254,300.41,202,295.29,184.61Z"/><path class="cls-21" d="M306.15,220.86c2.36,7.83,4.64,15.38,6.43,21.31l64.42-72-20.14-5.91Z"/><path class="cls-21" d="M388.68,173.58l-73,78.83.48,1.59a51.49,51.49,0,0,0,2.46,5.47l77.07-83.83Z"/><path class="cls-14" d="M390.62,142.28a7,7,0,0,0,2.4,1.55.79.79,0,0,1,.46.4c.45.94,1.56,3.79-1.15,4a.75.75,0,0,1-.26,0,5.27,5.27,0,0,1-3.36-2.35.79.79,0,0,1,0-.55l.7-2.69A.76.76,0,0,1,390.62,142.28Z"/><path class="cls-6" d="M381,146.18c-2.75-3.81-2.6-8,.08-10.1s8.07-1.82,9.61,2.65c.63,1.83,1.12,3.85,2,5.1a9.67,9.67,0,0,1-1.92,5.52C389.61,151.28,384,150.18,381,146.18Z"/><path class="cls-6" d="M399.63,139.53h0c-2.41,1.27-4.28,4.77-4.28,8l0,15.25c.14,3.66-6.64,21.7-11.4,33.83-.76,1.94.78,3.07,1.84,1.35,5.18-8.44,12.37-20.9,16.89-31.87,1.31-3.88,1.81-14.85,2-22.21C404.74,140.13,402.4,138.07,399.63,139.53Z"/><path class="cls-17" d="M391.21,143.34c.61-1.46-1.5-2.06-1.5-2.06-1.37.08-.6,1.47-.6,1.47a3.89,3.89,0,0,1-2.13-1.06,1.59,1.59,0,0,1-1.32,1.67c0,.31-.27.6-.67.71v0a1.64,1.64,0,0,1-1.7,1.53,2,2,0,0,1-.52,0,1.43,1.43,0,0,1-1.22.85,1.45,1.45,0,0,1-.8-.19,2.13,2.13,0,0,1-1,.29,10.36,10.36,0,0,1-3.39-3,1.84,1.84,0,0,1,.77-1.69.9.9,0,0,1-.19-.49,1.08,1.08,0,0,1,.74-1h0l.06,0,0,0a.72.72,0,0,1-.17-.41.78.78,0,0,1,.26-.6.6.6,0,0,1-.32-.47c0-.31.27-.6.67-.71v0a1.46,1.46,0,0,1,.64-1.39.29.29,0,0,1,0-.08.7.7,0,0,1,.89-.73,1.8,1.8,0,0,1,1.17-.79v0c0-.78.87-1.48,2.05-1.55a2.11,2.11,0,0,1,2.16,1c4.85-2.63,5.78,3.12,5.78,3.12,0,.68,1.88,6,2,6.36Z"/><path class="cls-13" d="M434,141.64a46.13,46.13,0,0,1-5.42,13.17c-2.11,3.55-8,9.53-8,9.53s-3.48.47-2.89-1.37,9.37-8.45,12.89-20.66C430.61,142.31,432.63,138.2,434,141.64Z"/></g></svg>