<svg xmlns="http://www.w3.org/2000/svg" xmlns:xlink="http://www.w3.org/1999/xlink" viewBox="0 0 560 560"><defs><style>.cls-1{fill:none;}.cls-2{fill:#575761;}.cls-3{isolation:isolate;}.cls-4{fill:#ffd364;}.cls-30,.cls-5{fill:#ffbb61;}.cls-5{opacity:0.85;}.cls-6{opacity:0.5;}.cls-7{clip-path:url(#clip-path);}.cls-40,.cls-8{fill:#fff;}.cls-8{opacity:0.6;mix-blend-mode:overlay;}.cls-9{fill:#f7f4f3;}.cls-10{fill:#3a8585;}.cls-11{fill:#398484;}.cls-12{clip-path:url(#clip-path-2);}.cls-13{fill:#f8ffff;opacity:0.4;}.cls-14{fill:#b7d0d2;}.cls-15{fill:#e9ba9a;}.cls-16{fill:#ebc7af;}.cls-17{fill:#444445;}.cls-18{clip-path:url(#clip-path-3);}.cls-19{fill:#575762;}.cls-20{fill:#dff1f4;}.cls-21{fill:#3d3d44;}.cls-22{fill:#e2e2ed;}.cls-23{clip-path:url(#clip-path-4);}.cls-24{clip-path:url(#clip-path-5);}.cls-25{fill:#8aa9ae;}.cls-26{fill:#bedce1;}.cls-27{fill:#729a9f;}.cls-28{fill:#e4fde1;}.cls-29{fill:#080808;}.cls-31{clip-path:url(#clip-path-6);}.cls-32{fill:#ffa539;}.cls-33{fill:#fff0b3;mix-blend-mode:soft-light;}.cls-34{clip-path:url(#clip-path-8);}.cls-35{clip-path:url(#clip-path-10);}.cls-36{clip-path:url(#clip-path-12);}.cls-37{clip-path:url(#clip-path-14);}.cls-38{clip-path:url(#clip-path-16);}.cls-39{clip-path:url(#clip-path-18);}.cls-41{clip-path:url(#clip-path-20);}.cls-42{clip-path:url(#clip-path-22);}.cls-43{clip-path:url(#clip-path-24);}.cls-44{clip-path:url(#clip-path-26);}.cls-45{clip-path:url(#clip-path-28);}.cls-46{clip-path:url(#clip-path-30);}</style><clipPath id="clip-path"><circle class="cls-1" cx="384.07" cy="205.3" r="66.8" transform="translate(-48.26 152.88) rotate(-21.21)"/></clipPath><clipPath id="clip-path-2"><path class="cls-1" d="M118.83,182.75c-1.09-5.43-4.61-23.69,15.53-15.79,0,0,47.91,15.76,49.49,16.23,2.86.71,9.84,6-2.81,15.31l-37.91,29.79s-11.19,11.11-16.2-6.35C126.93,221.94,120.8,192.56,118.83,182.75Z"/></clipPath><clipPath id="clip-path-3"><path id="_Clipping_Path_" data-name="&lt;Clipping Path&gt;" class="cls-2" d="M148.7,278.76a1.39,1.39,0,0,1-.18,1.32l-.38.52c-8.67,11.32-24.37,26.12-50.9,34.7a6.08,6.08,0,1,1-3.67-11.59c13.76-4.26,36.67-12.67,51.9-25.11a5.18,5.18,0,0,1,1.38-.95h0a2.54,2.54,0,0,1,1.41.58A1.22,1.22,0,0,1,148.7,278.76Z"/></clipPath><clipPath id="clip-path-4"><path id="_Clipping_Path_2" data-name="&lt;Clipping Path&gt;" class="cls-1" d="M522,320.43q1.9,4.33,3.58,8.76c7.11,18.62,11.61,38.54,14.55,59.28a7.15,7.15,0,0,0,9,5,6.91,6.91,0,0,0,1.47-.65,7.07,7.07,0,0,0,2.77-9c-6.43-20.88-14.58-40.12-24.81-57.4q-2-3.4-4.13-6.7C523.54,317.74,521.46,318.39,522,320.43Z"/></clipPath><clipPath id="clip-path-5"><path id="_Clipping_Path_3" data-name="&lt;Clipping Path&gt;" class="cls-1" d="M478,389.65a1.39,1.39,0,0,0,.88,1l.6.22c13.42,4.71,34.6,8.47,61.42,1.13a6.07,6.07,0,1,0-3.27-11.68c-13.81,4-37.52,9.47-57,7.41a5.18,5.18,0,0,0-1.67,0h0a2.53,2.53,0,0,0-.86,1.25A1.22,1.22,0,0,0,478,389.65Z"/></clipPath><clipPath id="clip-path-6"><rect class="cls-1" x="241.36" y="424.58" width="110.4" height="17.27" rx="0.81" ry="0.81"/></clipPath><clipPath id="clip-path-8"><rect class="cls-1" x="265.14" y="441.85" width="110.4" height="17.27" rx="0.81" ry="0.81"/></clipPath><clipPath id="clip-path-10"><rect class="cls-1" x="248.72" y="459.12" width="110.4" height="17.27" rx="0.81" ry="0.81"/></clipPath><clipPath id="clip-path-12"><rect class="cls-1" x="258.84" y="476.38" width="110.4" height="17.27" rx="0.81" ry="0.81"/></clipPath><clipPath id="clip-path-14"><rect class="cls-1" x="270.14" y="371.42" width="110.4" height="17.27" rx="0.81" ry="0.81" transform="translate(42.57 -32.65) rotate(6.15)"/></clipPath><clipPath id="clip-path-16"><rect class="cls-1" x="230.01" y="387.86" width="110.4" height="17.27" rx="0.81" ry="0.81" transform="translate(19.05 -13.03) rotate(2.71)"/></clipPath><clipPath id="clip-path-18"><rect class="cls-1" x="262.83" y="407.32" width="110.4" height="17.27" rx="0.81" ry="0.81"/></clipPath><clipPath id="clip-path-20"><rect class="cls-1" x="66.02" y="424.01" width="110.4" height="17.27" rx="0.81" ry="0.81"/></clipPath><clipPath id="clip-path-22"><rect class="cls-1" x="69.67" y="441.28" width="110.4" height="17.27" rx="0.81" ry="0.81"/></clipPath><clipPath id="clip-path-24"><rect class="cls-1" x="62.37" y="458.55" width="110.4" height="17.27" rx="0.81" ry="0.81"/></clipPath><clipPath id="clip-path-26"><rect class="cls-1" x="69.67" y="475.81" width="110.4" height="17.27" rx="0.81" ry="0.81"/></clipPath><clipPath id="clip-path-28"><rect class="cls-1" x="146.93" y="439.32" width="110.4" height="17.27" rx="0.81" ry="0.81" transform="translate(404.05 -0.1) rotate(48.55)"/></clipPath><clipPath id="clip-path-30"><circle class="cls-1" cx="461.71" cy="323.82" r="66.8"/></clipPath></defs><title>Benefit Icons_v4</title><g class="cls-3"><g id="Improves_Presentation" data-name="Improves Presentation"><circle class="cls-4" cx="384.07" cy="205.3" r="66.8" transform="translate(-48.26 152.88) rotate(-21.21)"/><circle class="cls-5" cx="384.07" cy="205.3" r="55.6" transform="translate(-48.26 152.88) rotate(-21.21)"/><g class="cls-6"><g class="cls-7"><polygon class="cls-8" points="420.64 123.15 313.14 264.91 334.15 273.67 440.38 129.77 420.64 123.15"/><polygon class="cls-8" points="443.62 137.88 336.12 279.64 347.07 285.17 453.29 141.27 443.62 137.88"/></g></g><path id="_Path_" data-name="&lt;Path&gt;" class="cls-2" d="M96,233.33q-.86,4.66-1.49,9.38C91.81,262.51,92,283,93.88,303.9a7.16,7.16,0,0,1-7.6,6.9,6.93,6.93,0,0,1-1.58-.3,7.08,7.08,0,0,1-4.77-8.16c1.48-21.86,5-42.51,11-61.72q1.18-3.78,2.5-7.49C93.86,231,96,231.21,96,233.33Z"/><path class="cls-9" d="M34.63,110.39h237.3a18.55,18.55,0,0,1,18.55,18.55V286a0,0,0,0,1,0,0H16.08a0,0,0,0,1,0,0V128.94a18.55,18.55,0,0,1,18.55-18.55Z" transform="translate(-35.52 33.48) rotate(-11.18)"/><rect class="cls-10" x="31.06" y="263.45" width="274.4" height="21.11" transform="translate(-49.93 37.82) rotate(-11.18)"/><path class="cls-9" d="M45,296.42c-.14-.8-.64-3.34,2.26-2.13l7.23,3s1.51.87-.41,2.09l-5.68,3.68s-1.68,1.63-2.35-.94C46,302.14,45.22,297.86,45,296.42Z"/><path class="cls-9" d="M64.91,299.07c.17.88-.1,1.83-.8,2l-.36.07c-.7.14-1.43-.62-1.61-1.5l-1.53-7.73a1.46,1.46,0,0,1,1-1.82l.36-.07c.7-.14,1.28.46,1.45,1.34Z"/><path class="cls-9" d="M69.05,298.25c.17.88.1,1.79-.6,1.93l-.36.07a1.8,1.8,0,0,1-1.8-1.46l-1.53-7.73a1.61,1.61,0,0,1,1.15-1.85l.36-.07c.7-.14,1.08.5,1.25,1.38Z"/><path class="cls-9" d="M287.68,250.45c.22,1.12.12,2.08-1.08,2.32L88.71,291.88a2.15,2.15,0,0,1-2.59-1.6l0-.08a2.15,2.15,0,0,1,1.78-2.46l197.88-39.1c1.21-.24,1.67.62,1.89,1.74Z"/><circle class="cls-9" cx="91.49" cy="289.1" r="6.25" transform="translate(-54.31 23.22) rotate(-11.18)"/><circle class="cls-11" cx="91.56" cy="288.99" r="3.53" transform="translate(-54.29 23.23) rotate(-11.18)"/><path class="cls-10" d="M118.83,182.75c-1.09-5.43-4.61-23.69,15.53-15.79,0,0,47.91,15.76,49.49,16.23,2.86.71,10.13,6.71-2.81,15.31l-37.91,29.79s-11.19,11.11-16.2-6.35C126.93,221.94,120.8,192.56,118.83,182.75Z"/><g class="cls-12"><path class="cls-13" d="M118.77,205.27c.92,4.42,3.24,8.38,3.93,11.72L167,173.83l-13.29-3.26Z"/><path class="cls-13" d="M170.59,176.5,124.9,221.4l.19.9a28.44,28.44,0,0,0,1.09,3.13L174.72,178Z"/></g><path id="_Path_2" data-name="&lt;Path&gt;" class="cls-14" d="M78.59,360.13c-7.92-18.25-9.93-36.48-1.4-53.41a11.88,11.88,0,0,1,9.91-6.52h0A11.87,11.87,0,0,1,99.4,314.58c-1.95,8.9-1.35,17.07,1.36,25.95a12,12,0,0,1-7.79,15Z"/><path id="_Path_3" data-name="&lt;Path&gt;" class="cls-15" d="M90.74,300.68a25,25,0,0,1,8.77-10.51,1,1,0,0,1,.91-.09h0a1,1,0,0,1,.2,1.67c-3,2.17-5.45,5.77-7.67,10a1.23,1.23,0,0,1-1.87.38h0A1.23,1.23,0,0,1,90.74,300.68Z"/><rect id="_Rectangle_" data-name="&lt;Rectangle&gt;" class="cls-16" x="94.95" y="282.25" width="6.88" height="10.68" rx="2.96" ry="2.96" transform="translate(-89.75 48.86) rotate(-19.35)"/><path class="cls-17" d="M102.52,277.07a6.59,6.59,0,0,0-1.83-2.73,5.05,5.05,0,1,0-9,4.53c0,.11,0,.21,0,.32h0a3.37,3.37,0,0,0,1.22,6.54A7,7,0,0,0,95,288.46s2.88-1,3.15-3.49a5.05,5.05,0,0,0,1.11-.25C102.21,283.7,103.64,280.28,102.52,277.07Z"/><g id="_Clip_Group_" data-name="&lt;Clip Group&gt;"><path id="_Clipping_Path_4" data-name="&lt;Clipping Path&gt;" class="cls-2" d="M148.7,278.76a1.39,1.39,0,0,1-.18,1.32l-.38.52c-8.67,11.32-24.37,26.12-50.9,34.7a6.08,6.08,0,1,1-3.67-11.59c13.76-4.26,36.67-12.67,51.9-25.11a5.18,5.18,0,0,1,1.38-.95h0a2.54,2.54,0,0,1,1.41.58A1.22,1.22,0,0,1,148.7,278.76Z"/><g class="cls-18"><path id="_Path_4" data-name="&lt;Path&gt;" class="cls-16" d="M128.57,279.51c8.83,3.66,14.34,8.61,14.73,15.53L161,276.54l-16.09-13.22Z"/></g></g><path id="_Path_5" data-name="&lt;Path&gt;" class="cls-19" d="M76.45,353.52l-16.3,60.22A1.78,1.78,0,0,0,63.46,415L97.05,348.9a1.78,1.78,0,0,0-2.17-2.5L77.6,352.3A1.78,1.78,0,0,0,76.45,353.52Z"/><path id="_Path_6" data-name="&lt;Path&gt;" class="cls-19" d="M90.66,361.08c5.18-6.74,14.57-11.46,34.93,32.84a1.8,1.8,0,0,0,1.34,1.06,1.21,1.21,0,0,0,.53,0,1.09,1.09,0,0,0,.29-.14,1.32,1.32,0,0,0,.49-1.45c-2-7.15-4.43-16.24-7.64-27.09-7.17-24.27-18.26-22.18-21.72-21.59-.12,0-4.47,1.75-4.54,1.85l-5.81,11.85C87.92,359.2,90.06,361.88,90.66,361.08Z"/><path class="cls-2" d="M397,282.49V128.64H370.65a74.89,74.89,0,0,1-61.54-32.21L267.2,36l-.09.2V36H165a5.82,5.82,0,0,0-5.82,5.82V369.31a5.82,5.82,0,0,0,5.82,5.82H267.11V375l41.8-60.27a74.89,74.89,0,0,1,61.54-32.21Z"/><path class="cls-9" d="M254.56,155.12a50.18,50.18,0,1,0,50.18,50.18A50.18,50.18,0,0,0,254.56,155.12Z"/><path class="cls-9" d="M254.56,158.43a46.87,46.87,0,1,0,46.87,46.87A46.87,46.87,0,0,0,254.56,158.43Z"/><path class="cls-2" d="M254.56,158.43a46.87,46.87,0,1,0,46.87,46.87A46.87,46.87,0,0,0,254.56,158.43Zm3.66,55.35a3.48,3.48,0,0,1-6.93,0c0-.1,0-.2,0-.31a3.5,3.5,0,1,1,7,0C258.25,213.57,258.23,213.67,258.22,213.78Zm35.35-21.33c.14.41.27.82.41,1.23a40.87,40.87,0,0,1,1.7,8.81h-6.93v5.62h7c0-.72.06-1.45.06-2.18,0,.73,0,1.45-.06,2.18s-.07,1.18-.13,1.76c-.12,1.32-.32,2.63-.56,3.91H260.94l19.34-18L256.77,208a5.83,5.83,0,0,0-7.85,5.48c0,.1,0,.21,0,.31H214.06c-.25-1.28-.44-2.58-.56-3.91-.06-.58-.11-1.17-.13-1.76h7.4v-5.62h-7.31a40.67,40.67,0,0,1,1.81-9.14c.2-.63.41-1.25.65-1.86l6.45,2.79.1,0,2.24-5.16-6.46-2.81c-.16.29-.3.59-.45.88.15-.29.29-.59.45-.88a41.08,41.08,0,0,1,4.4-6.55c.39-.48.79-1,1.23-1.42h0q.62-.7,1.28-1.37-.66.67-1.28,1.37h0l4.87,4.87,4-4-4.81-4.81c-.32.27-.62.55-.93.83.31-.28.62-.56.93-.83a40.6,40.6,0,0,1,8.14-5.39q.65-.34,1.32-.63l2.42,6.21,3.88-1.52,1.37-.53-2.41-6.17h0a41.12,41.12,0,0,1,8.44-1.61c.29,0,.58-.05.88-.06.87-.06,1.75-.09,2.63-.09-.88,0-1.75,0-2.63.09v6.54h5.62v-6.51l-.88-.06.88.06A40.51,40.51,0,0,1,268.19,167l.11,0h0l-2.59,6,5.06,2.19.1,0,2.59-6,0,0,0,0a41.12,41.12,0,0,1,8,5.39l-4.64,4.64,4,4,4.67-4.67m0,0h0l.41.47a41.34,41.34,0,0,1,5.5,8.22h0l-6.21,2.55.49,1.2,1.63,4,6.29-2.57"/><polygon class="cls-20" points="431 478.54 545.36 478.54 428.89 373.88 134.76 373.88 134.76 394.81 96.61 394.81 96.61 415.95 58.47 415.95 58.47 436.65 20.34 436.65 20.34 478.54 58.48 478.54 58.48 478.55 170.91 478.55 170.91 478.54 431 478.54 431 478.54"/><path id="_Path_7" data-name="&lt;Path&gt;" class="cls-21" d="M519.21,432.38S510,382.29,491,398.84L471.87,416a1.11,1.11,0,0,1-1.67-1.41c6.12-10.12,24.79-34.76,36.71-31.58,16.82,4.49,21.6,38.55,21.6,38.55Z"/><path id="_Path_8" data-name="&lt;Path&gt;" class="cls-22" d="M522,320.43q1.9,4.33,3.58,8.76c7.11,18.62,11.61,38.54,14.55,59.28a7.15,7.15,0,0,0,9,5,6.91,6.91,0,0,0,1.47-.65,7.07,7.07,0,0,0,2.77-9c-6.43-20.88-14.58-40.12-24.81-57.4q-2-3.4-4.13-6.7C523.54,317.74,521.46,318.39,522,320.43Z"/><g id="_Clip_Group_2" data-name="&lt;Clip Group&gt;"><g class="cls-23"><path id="_Path_9" data-name="&lt;Path&gt;" class="cls-16" d="M536.48,327c-10.7-3.33-13.45-3-17.4,6.87l-6.47-19.44,15.88-4.93Z"/></g></g><path id="_Path_10" data-name="&lt;Path&gt;" class="cls-21" d="M532.4,435.91s-7.13,10,5.68,27.37c4.58,6.2,8,10.89,10.58,14.36a1.45,1.45,0,0,1-2.11,2c-13.48-11.39-37.48-35.4-25.82-53.76Z"/><path id="_Path_11" data-name="&lt;Path&gt;" class="cls-10" d="M532.4,435.91c14-14,22.53-30.23,20.8-49.06a11.85,11.85,0,0,0-6.81-9.67h0A11.84,11.84,0,0,0,529.71,386c-1.44,9-5,16.34-10.73,23.59a12,12,0,0,0,1.77,16.74Z"/><path id="_Path_12" data-name="&lt;Path&gt;" class="cls-15" d="M542.82,376.3a24.88,24.88,0,0,0-4.3-13,1,1,0,0,0-.81-.41h0a1,1,0,0,0-.8,1.48c2,3.11,2.95,7.35,3.46,12.11a1.23,1.23,0,0,0,1.6,1h0A1.23,1.23,0,0,0,542.82,376.3Z"/><rect id="_Rectangle_2" data-name="&lt;Rectangle&gt;" class="cls-16" x="537.08" y="356.03" width="6.87" height="10.65" rx="2.95" ry="2.95" transform="translate(713.39 988.12) rotate(-139.18)"/><g id="_Group_" data-name="&lt;Group&gt;"><path id="_Path_13" data-name="&lt;Path&gt;" class="cls-22" d="M478,389.65a1.39,1.39,0,0,0,.88,1l.6.22c13.42,4.71,34.6,8.47,61.42,1.13a6.07,6.07,0,1,0-3.27-11.68c-13.81,4-37.52,9.47-57,7.41a5.18,5.18,0,0,0-1.67,0h0a2.53,2.53,0,0,0-.86,1.25A1.22,1.22,0,0,0,478,389.65Z"/></g><g id="_Clip_Group_3" data-name="&lt;Clip Group&gt;"><g class="cls-24"><path id="_Path_14" data-name="&lt;Path&gt;" class="cls-16" d="M495.21,379.28c-5.37,7.88-7.26,15-3.8,21l-24.85-5.79,6.2-19.82Z"/></g></g><path id="_Path_15" data-name="&lt;Path&gt;" class="cls-21" d="M542,361.67s-2.22,2.83-.85,4.35c0,0,.54.63,4.18-3.7,0,0,1.84-1.77,1.44-2.78,0,0,3.45-1.36-2.23-6.32,0,0-3.13-2.25-3.68-3.46,0,0-.71-1.73-1.14-.38,0,0-2.58.51-1.65,5,0,0,3.6,3.85,6.22,4.58A30.21,30.21,0,0,0,542,361.67Z"/><path id="_Path_16" data-name="&lt;Path&gt;" class="cls-16" d="M355.54,262.44l.33-.12h0c.09,0,2.72-.68,3.15,1.79,0,0,1.31,5.85-1.3,9.61h0c-7,14.23-19.17,19.53-34.06,21.68a1.23,1.23,0,0,1-.7-.11l-.54-.26c13.85-6.15,24.28-16.56,31.45-31A5.68,5.68,0,0,1,355.54,262.44Z"/><path id="_Path_17" data-name="&lt;Path&gt;" class="cls-25" d="M300.4,306.92l5.25-.91.45,5.94L302,314.68a4.87,4.87,0,0,0,2.73-3.65,4.4,4.4,0,0,0-2.24-3.75A4.18,4.18,0,0,0,300.4,306.92Z"/><path id="_Path_18" data-name="&lt;Path&gt;" class="cls-26" d="M272,272.66s28.18,17.81,32.27,31.52c0,0,3.64,7.76-2.27,10.51L326,310.31a2.36,2.36,0,0,0,1.64-1.17c2.2-3.92,9.2-19.19-3.31-36.48,0,0-5-4.11-6.36-4.57C317.92,268.09,290.65,265.81,272,272.66Z"/><path id="_Path_19" data-name="&lt;Path&gt;" class="cls-27" d="M304.74,310.8c0,2.14-2.41,4.34-4.54,4.34a3.5,3.5,0,0,1-3.64-3.65c0-2.14,2.18-4.57,4.32-4.57A3.87,3.87,0,0,1,304.74,310.8Z"/><path id="_Path_20" data-name="&lt;Path&gt;" class="cls-15" d="M361,300.44a.55.55,0,0,1,.42.24c1.12,1.69,7.54,12.89-4.18,31.72-7.3,12.27.29,29.71,4.61,38.33.58,1.15-1.16,3.46-2.89,1.73-4.45-4.43-8.22-10.32-13.25-22.87l0-.07c-4.07-15.32-1.7-45.35-1.33-49.73a.55.55,0,0,1,.59-.5Z"/><path id="_Path_21" data-name="&lt;Path&gt;" class="cls-16" d="M339.84,289.89C326,309.67,328,340.32,338.08,372.05a1.68,1.68,0,0,0,3.28-.52c-.12-28.51,5.16-51.36,17.17-70a.49.49,0,0,0-.15-.68L340.5,289.76A.49.49,0,0,0,339.84,289.89Z"/><rect id="_Rectangle_3" data-name="&lt;Rectangle&gt;" class="cls-15" x="343.99" y="245.01" width="6.21" height="20.82" rx="2.67" ry="2.67"/><ellipse id="_Ellipse_" data-name="&lt;Ellipse&gt;" class="cls-16" cx="346.16" cy="243.32" rx="7.93" ry="7.92"/><path id="_Path_22" data-name="&lt;Path&gt;" class="cls-2" d="M338,293.08s3.32-4.68,15.85-.72a1,1,0,0,1,.17,0,20.28,20.28,0,0,0,2.22,1c2.52,1.44,6.4,4.75,7.55,11.88,0,.16.06.31.09.47.26,1.1,1.34,6.66-1,14.52a38.66,38.66,0,0,1-3,7.36s-2.16-8-26.17-3.11l-3.76.95A87.3,87.3,0,0,1,331,313a55.78,55.78,0,0,1,3.8-13.86S336.48,294.6,338,293.08Z"/><path id="_Path_23" data-name="&lt;Path&gt;" class="cls-28" d="M337.08,294.16a10.54,10.54,0,0,0,1.94-4.34c.69-7.4-1.27-17.4-4.28-28.34q11.54-4.39,22.17,0c3.33,9.76,1.52,21.37-3.19,30,0,.06-.6.6,2.42,1.81-1.54.94-7.71,2.27-11.19,2.27C339.35,295.52,337.08,294.16,337.08,294.16Z"/><g id="_Group_2" data-name="&lt;Group&gt;"><path id="_Path_24" data-name="&lt;Path&gt;" class="cls-17" d="M355,256a3.63,3.63,0,0,1,.35,1.59,3.22,3.22,0,0,1-1.34,2.74,2.37,2.37,0,0,1,.05.49,2.43,2.43,0,0,1-4.85,0c0-.06,0-.12,0-.18-2-.19-3.57-2.21-3.57-4.67a5.27,5.27,0,0,1,1-3.08h.09a.67.67,0,0,1,0-.1l-.08.1h-.14a2.75,2.75,0,0,1-2.75-2.75A2.66,2.66,0,0,1,344,249a8,8,0,0,1-3.45-6.68c0-.2,0-.39,0-.58a4.5,4.5,0,0,1-1-2.81,5.11,5.11,0,0,1,5.34-4.85,5.68,5.68,0,0,1,2.1.4,6.18,6.18,0,0,1,1-.07,7.69,7.69,0,0,1,7.44,7.92A8.19,8.19,0,0,1,354,247a5.57,5.57,0,0,1,2.72,4.88A5.71,5.71,0,0,1,355,256Z"/><path id="_Path_25" data-name="&lt;Path&gt;" class="cls-29" d="M346.72,252.85h-.09l.08-.1A.67.67,0,0,0,346.72,252.85Z"/><path id="_Path_26" data-name="&lt;Path&gt;" class="cls-29" d="M346.72,252.85h-.09l.08-.1A.67.67,0,0,0,346.72,252.85Z"/></g><path id="_Path_27" data-name="&lt;Path&gt;" class="cls-16" d="M333.74,262.63c-6.06,14-17.7,25.28-29.47,33.55a1.42,1.42,0,0,0,1.31,2.49c12.57-4.73,25.25-12.41,33.29-22.31a11.45,11.45,0,0,0,.66-13.63h0a3.68,3.68,0,0,0-4.89-1.22A3.09,3.09,0,0,0,333.74,262.63Z"/><rect class="cls-30" x="241.36" y="424.58" width="110.4" height="17.27" rx="0.81" ry="0.81"/><g class="cls-31"><rect class="cls-32" x="241.36" y="439.43" width="110.4" height="3.64"/></g><rect class="cls-33" x="249.23" y="424.58" width="61.09" height="14.85"/><rect class="cls-8" x="249.58" y="424.58" width="9.96" height="14.85"/><g class="cls-31"><rect class="cls-33" x="344.33" y="422.16" width="7.64" height="17.27"/></g><rect class="cls-30" x="265.14" y="441.85" width="110.4" height="17.27" rx="0.81" ry="0.81"/><g class="cls-34"><rect class="cls-32" x="265.14" y="456.7" width="110.4" height="3.64"/></g><rect class="cls-33" x="272.65" y="441.85" width="61.09" height="14.85"/><rect class="cls-8" x="273.36" y="441.85" width="9.96" height="14.85"/><g class="cls-34"><rect class="cls-33" x="368.11" y="439.43" width="7.64" height="17.27"/></g><rect class="cls-30" x="248.72" y="459.12" width="110.4" height="17.27" rx="0.81" ry="0.81"/><g class="cls-35"><rect class="cls-32" x="248.72" y="473.97" width="110.4" height="3.64"/></g><rect class="cls-33" x="256.94" y="459.12" width="61.09" height="14.85"/><rect class="cls-8" x="256.94" y="459.12" width="9.96" height="14.85"/><g class="cls-35"><rect class="cls-33" x="351.69" y="456.7" width="7.64" height="17.27"/></g><rect class="cls-30" x="258.84" y="476.38" width="110.4" height="17.27" rx="0.81" ry="0.81"/><g class="cls-36"><rect class="cls-32" x="258.84" y="491.23" width="110.4" height="3.64"/></g><rect class="cls-33" x="266.35" y="476.38" width="61.09" height="14.85"/><rect class="cls-8" x="267.06" y="476.38" width="9.96" height="14.85"/><g class="cls-36"><rect class="cls-33" x="361.81" y="473.97" width="7.64" height="17.27"/></g><rect class="cls-30" x="270.14" y="371.42" width="110.4" height="17.27" rx="0.81" ry="0.81" transform="translate(42.57 -32.65) rotate(6.15)"/><g class="cls-37"><rect class="cls-32" x="269.28" y="386.23" width="110.4" height="3.64" transform="translate(43.42 -32.51) rotate(6.15)"/></g><rect class="cls-33" x="277.88" y="369.59" width="61.09" height="14.85" transform="translate(42.14 -30.86) rotate(6.15)"/><rect class="cls-8" x="278.73" y="366.93" width="9.96" height="14.85" transform="translate(41.72 -28.23) rotate(6.15)"/><g class="cls-37"><rect class="cls-33" x="373.07" y="374.55" width="7.64" height="17.27" transform="translate(43.2 -38.15) rotate(6.15)"/></g><rect class="cls-30" x="230.01" y="387.86" width="110.4" height="17.27" rx="0.81" ry="0.81" transform="translate(19.05 -13.03) rotate(2.71)"/><g class="cls-38"><rect class="cls-32" x="229.63" y="402.7" width="110.4" height="3.64" transform="translate(19.43 -13) rotate(2.71)"/></g><rect class="cls-33" x="238.3" y="387.08" width="61.09" height="14.85" transform="translate(18.94 -12.26) rotate(2.71)"/><rect class="cls-8" x="238.33" y="385.87" width="9.96" height="14.85" transform="translate(18.85 -11.06) rotate(2.71)"/><g class="cls-38"><rect class="cls-33" x="333.03" y="387.88" width="7.64" height="17.27" transform="translate(19.11 -15.47) rotate(2.71)"/></g><rect class="cls-30" x="262.83" y="407.32" width="110.4" height="17.27" rx="0.81" ry="0.81"/><g class="cls-39"><rect class="cls-32" x="262.83" y="422.17" width="110.4" height="3.64"/></g><rect class="cls-33" x="270.35" y="407.32" width="61.09" height="14.85"/><rect class="cls-8" x="271.06" y="407.32" width="9.96" height="14.85"/><g class="cls-39"><rect class="cls-33" x="365.8" y="404.9" width="7.64" height="17.27"/></g><polygon class="cls-40" points="295.7 373.63 284 371.59 279.83 382.71 281.87 371.01 270.74 366.84 282.45 368.88 286.61 357.75 284.57 369.46 295.7 373.63"/><polygon class="cls-40" points="294.14 456.26 282.43 454.22 278.27 465.35 280.31 453.64 269.18 449.47 280.88 451.51 285.05 440.38 283.01 452.09 294.14 456.26"/><rect class="cls-30" x="66.02" y="424.01" width="110.4" height="17.27" rx="0.81" ry="0.81"/><g class="cls-41"><rect class="cls-32" x="66.02" y="438.86" width="110.4" height="3.64"/></g><rect class="cls-33" x="73.89" y="424.01" width="61.09" height="14.85"/><rect class="cls-8" x="74.24" y="424.01" width="9.96" height="14.85"/><g class="cls-41"><rect class="cls-33" x="168.99" y="421.59" width="7.64" height="17.27"/></g><rect class="cls-30" x="69.67" y="441.28" width="110.4" height="17.27" rx="0.81" ry="0.81"/><g class="cls-42"><rect class="cls-32" x="69.67" y="456.13" width="110.4" height="3.64"/></g><rect class="cls-33" x="77.18" y="441.28" width="61.09" height="14.85"/><rect class="cls-8" x="77.89" y="441.28" width="9.96" height="14.85"/><g class="cls-42"><rect class="cls-33" x="172.64" y="438.86" width="7.64" height="17.27"/></g><rect class="cls-30" x="62.37" y="458.55" width="110.4" height="17.27" rx="0.81" ry="0.81"/><g class="cls-43"><rect class="cls-32" x="62.37" y="473.4" width="110.4" height="3.64"/></g><rect class="cls-33" x="70.59" y="458.55" width="61.09" height="14.85"/><rect class="cls-8" x="70.59" y="458.55" width="9.96" height="14.85"/><g class="cls-43"><rect class="cls-33" x="165.34" y="456.13" width="7.64" height="17.27"/></g><rect class="cls-30" x="69.67" y="475.81" width="110.4" height="17.27" rx="0.81" ry="0.81"/><g class="cls-44"><rect class="cls-32" x="69.67" y="490.66" width="110.4" height="3.64"/></g><rect class="cls-33" x="77.18" y="475.81" width="61.09" height="14.85"/><rect class="cls-8" x="77.89" y="475.81" width="9.96" height="14.85"/><g class="cls-44"><rect class="cls-33" x="172.64" y="473.4" width="7.64" height="17.27"/></g><polygon class="cls-40" points="95.35 454.5 83.65 452.46 79.48 463.59 81.52 451.88 70.39 447.72 82.1 449.76 86.26 438.63 84.22 450.33 95.35 454.5"/><rect class="cls-30" x="146.93" y="439.32" width="110.4" height="17.27" rx="0.81" ry="0.81" transform="translate(404.05 -0.1) rotate(48.55)"/><g class="cls-45"><rect class="cls-32" x="140.9" y="451.45" width="110.4" height="3.64" transform="translate(406 6.22) rotate(48.55)"/></g><rect class="cls-33" x="161.38" y="427.14" width="61.09" height="14.85" transform="translate(390.57 3.03) rotate(48.55)"/><rect class="cls-8" x="170.25" y="408.25" width="9.96" height="14.85" transform="translate(370.77 9.15) rotate(48.55)"/><g class="cls-45"><rect class="cls-33" x="234.28" y="476.38" width="7.64" height="17.27" transform="translate(443.99 -14.52) rotate(48.55)"/></g><polygon class="cls-40" points="197.94 426.97 177.76 423.45 170.57 442.64 174.09 422.46 154.9 415.27 175.09 418.79 182.27 399.6 178.75 419.79 197.94 426.97"/><circle class="cls-4" cx="461.71" cy="323.82" r="66.8"/><circle class="cls-5" cx="461.71" cy="323.82" r="55.6"/><g class="cls-6"><g class="cls-46"><polygon class="cls-8" points="525.52 260.48 374.01 353.74 390.43 369.5 541.52 273.79 525.52 260.48"/><polygon class="cls-8" points="541.61 282.52 390.1 375.78 398.31 384.89 549.4 289.18 541.61 282.52"/></g></g><polygon class="cls-40" points="534.27 290.95 513.08 287.26 505.54 307.41 509.23 286.22 489.09 278.68 510.28 282.37 517.82 262.23 514.13 283.42 534.27 290.95"/><polygon class="cls-40" points="429.99 146.96 435.51 159.46 448.82 156.34 436.32 161.86 439.44 175.17 433.92 162.66 420.61 165.79 433.11 160.26 429.99 146.96"/></g></g></svg>