<svg id="Layer_1" data-name="Layer 1" xmlns="http://www.w3.org/2000/svg" xmlns:xlink="http://www.w3.org/1999/xlink" viewBox="0 0 2028.73 523.33"><defs><style>.cls-1,.cls-2{fill:#fff;}.cls-1{filter:url(#luminosity-invert-noclip);}.cls-3{fill:#848484;}.cls-4{fill:#79bd9a;}.cls-5{fill:#3b8685;}.cls-6{mask:url(#mask);}.cls-7{fill:#448c83;}.cls-8{fill:#397f7c;}.cls-9{fill:#377772;}</style><filter id="luminosity-invert-noclip" x="191.58" y="28.5" width="311.84" height="326.36" filterUnits="userSpaceOnUse" color-interpolation-filters="sRGB"><feColorMatrix values="-1 0 0 0 1 0 -1 0 0 1 0 0 -1 0 1 0 0 0 1 0" result="invert"/><feFlood flood-color="#fff" result="bg"/><feBlend in="invert" in2="bg"/></filter><mask id="mask" x="191.58" y="28.5" width="311.84" height="326.36" maskUnits="userSpaceOnUse"><path class="cls-1" d="M191.67,41.47,224,300.84a11.51,11.51,0,0,0,9.48,9.92L490,354.69a11.51,11.51,0,0,0,13.13-14.07l-57.6-236.75a11.51,11.51,0,0,0-8-8.34L206.31,29A11.53,11.53,0,0,0,191.67,41.47ZM236.4,258.92,212.15,64.11a13.71,13.71,0,0,1,17.4-14.86l190.68,54.91a22.85,22.85,0,0,1,15.88,16.55l48.39,198.8a11.51,11.51,0,0,1-13.12,14.07L275.73,300.09A47.76,47.76,0,0,1,236.4,258.92Z"/></mask></defs><title>MM-LOGO2018-FINAL</title><rect class="cls-2" width="2028.73" height="523.33"/><path class="cls-3" d="M648.24,399.14q0,2-2.55,2H643.9q-2.55,0-2.55-2V397q-5.76,4.78-15.57,4.78-10.38,0-16.32-5.44a18.36,18.36,0,0,1,.19-26.52q6.32-5.58,16.42-5.58,9.53,0,15.28,4.78v-2.57a1.83,1.83,0,0,1,.75-1.43,2.73,2.73,0,0,1,1.79-.62h1.79q2.55,0,2.55,2.06Zm-6.89-16q0-6.24-3.77-9.7-4-3.82-11.79-3.82-7.17,0-11.23,4a14.13,14.13,0,0,0-.38,18.81,2,2,0,0,1,.47.29q4,3.82,11.13,3.82t11.37-3.78A12.43,12.43,0,0,0,641.35,383.13Z"/><path class="cls-3" d="M740.69,399.14a1.73,1.73,0,0,1-.75,1.4,2.83,2.83,0,0,1-1.79.59h-1.7q-2.45,0-2.45-2V378a7,7,0,0,0-3.11-6.17,14.47,14.47,0,0,0-8.3-2.13q-6.32,0-9.86,3.12a10.48,10.48,0,0,0-3.54,8.26v18.07a1.73,1.73,0,0,1-.76,1.4,2.83,2.83,0,0,1-1.79.59h-1.79q-2.55,0-2.55-2v-32a1.83,1.83,0,0,1,.75-1.43,2.73,2.73,0,0,1,1.79-.62h1.79a2.69,2.69,0,0,1,1.74.66,1.85,1.85,0,0,1,.8,1.4v.88q.57-.37,1.79-1.1a.75.75,0,0,1,.47-.15,23.7,23.7,0,0,1,11.13-2.42q7.73,0,12.64,3.16l-.09-.07a11.06,11.06,0,0,1,5.57,9.84Z"/><path class="cls-3" d="M799.37,358l-.38.59a2.91,2.91,0,0,1-2.83,1.84q-2.83,0-2.83-2.2v-5.29a3,3,0,0,1,2.83-2.28q1.7,0,3.21,2.13Zm0,41.06a1.82,1.82,0,0,1-.85,1.4,2.88,2.88,0,0,1-1.79.66h-.85q-2.55,0-2.55-2.06V366.16q0-2.06,2.55-2.06h.85a2.92,2.92,0,0,1,1.84.62,1.8,1.8,0,0,1,.8,1.43Z"/><path class="cls-3" d="M921.07,399.14a1.68,1.68,0,0,1-.85,1.4,3.24,3.24,0,0,1-1.89.59h-1.79q-2.64,0-2.64-2V378q0-8.3-10-8.3a14.77,14.77,0,0,0-8.87,2.46,7.86,7.86,0,0,0-3.4,6.72v20.27q0,2-2.74,2h-1.79q-2.64,0-2.64-2V378q0-8.3-10.19-8.3-5.85,0-9.25,3.53a11,11,0,0,0-2.92,7.86v18.07q0,2-2.64,2h-1.79q-2.64,0-2.64-2v-32q0-2.06,2.64-2.06h1.79a2.92,2.92,0,0,1,1.84.62,1.8,1.8,0,0,1,.8,1.43v.73a15,15,0,0,0,1.32-.73,22.84,22.84,0,0,1,11.79-2.79q9.15,0,13.49,5.07,4.9-5.07,15.09-5.07,17.26,0,17.26,12.93Z"/><path class="cls-3" d="M1016.55,399.14q0,2-2.55,2h-1.79q-2.55,0-2.55-2V397q-5.76,4.78-15.57,4.78-10.38,0-16.32-5.44a18.36,18.36,0,0,1,.19-26.52q6.32-5.58,16.42-5.58,9.53,0,15.28,4.78v-2.57a1.83,1.83,0,0,1,.75-1.43,2.73,2.73,0,0,1,1.79-.62H1014q2.55,0,2.55,2.06Zm-6.89-16q0-6.24-3.77-9.7-4-3.82-11.79-3.82-7.17,0-11.23,4a14.13,14.13,0,0,0-.38,18.81,2,2,0,0,1,.47.29q4,3.82,11.13,3.82t11.37-3.78A12.43,12.43,0,0,0,1009.66,383.13Z"/><path class="cls-3" d="M1088.24,369.61a2,2,0,0,1-.71,1.47,2.34,2.34,0,0,1-1.65.66h-5v27.33a1.91,1.91,0,0,1-.71,1.4,2.35,2.35,0,0,1-1.65.66h-1.32a2.54,2.54,0,0,1-1.74-.62,1.87,1.87,0,0,1-.71-1.43l-.09-27.33h-4.91a2.34,2.34,0,0,1-1.65-.66,2,2,0,0,1-.71-1.47v-1.25q0-2.06,2.36-2.06h4.91v-8.23q0-2.06,2.36-2.06h1.51a2.35,2.35,0,0,1,1.65.66,1.92,1.92,0,0,1,.71,1.4v8.23h5q2.36,0,2.36,2.06Z"/><path class="cls-3" d="M1144,358l-.38.59a2.91,2.91,0,0,1-2.83,1.84q-2.83,0-2.83-2.2v-5.29a3,3,0,0,1,2.83-2.28q1.7,0,3.21,2.13Zm0,41.06a1.82,1.82,0,0,1-.85,1.4,2.88,2.88,0,0,1-1.79.66h-.85q-2.55,0-2.55-2.06V366.16q0-2.06,2.55-2.06h.85a2.92,2.92,0,0,1,1.84.62,1.8,1.8,0,0,1,.8,1.43Z"/><path class="cls-3" d="M1243,383.05a16.75,16.75,0,0,1-6.23,13.59q-6.23,5.14-16.89,5.14T1203,396.5a17.79,17.79,0,0,1,.33-27q6.37-5.25,16.75-5.25t16.79,5.36A16.57,16.57,0,0,1,1243,383.05Zm-6.89,0a12.38,12.38,0,0,0-4.15-9.81q-4.15-3.64-12-3.64-7.64,0-11.84,3.64a12.31,12.31,0,0,0-4.2,9.81,12.47,12.47,0,0,0,4.2,9.77q4.2,3.75,11.84,3.75t12.08-3.82A12.31,12.31,0,0,0,1236.08,383.05Z"/><path class="cls-3" d="M1332.31,399.14a1.73,1.73,0,0,1-.75,1.4,2.83,2.83,0,0,1-1.79.59h-1.7q-2.45,0-2.45-2V378a7,7,0,0,0-3.11-6.17,14.47,14.47,0,0,0-8.3-2.13q-6.32,0-9.86,3.12a10.48,10.48,0,0,0-3.54,8.26v18.07a1.73,1.73,0,0,1-.76,1.4,2.83,2.83,0,0,1-1.79.59h-1.79q-2.55,0-2.55-2v-32a1.83,1.83,0,0,1,.75-1.43,2.73,2.73,0,0,1,1.79-.62h1.79a2.69,2.69,0,0,1,1.74.66,1.85,1.85,0,0,1,.8,1.4v.88q.57-.37,1.79-1.1a.75.75,0,0,1,.47-.15,23.7,23.7,0,0,1,11.13-2.42q7.73,0,12.64,3.16l-.09-.07a11.06,11.06,0,0,1,5.57,9.84Z"/><path class="cls-3" d="M1504.1,391.14q0,5.66-5.47,8.45-4.62,2.35-12.17,2.35-19.53,0-19.53-13.88a1.73,1.73,0,0,1,.75-1.4,2.83,2.83,0,0,1,1.79-.59h1.89q2.55,0,2.55,2,0,8.52,12.64,8.52a19.34,19.34,0,0,0,7-1.1q3.68-1.47,3.68-4.33,0-3.38-7.17-4.78-.28,0-4.62-.66l-3.49-.44q-13.21-1.76-13.21-10.06,0-5.36,5.38-8.45a22,22,0,0,1,11-2.57q18.77,0,18.77,12.41,0,2.06-2.55,2.06h-2q-2.55,0-2.55-2.06,0-7-11.42-7a15.22,15.22,0,0,0-6.51,1.32q-3.3,1.54-3.3,4.26,0,3.16,7,4.26h-.28a3.49,3.49,0,0,1,1,.15l-.19-.07q2.64.44,7.92,1.25Q1504.1,382.54,1504.1,391.14Z"/><path class="cls-3" d="M1574.67,369.61a2,2,0,0,1-.71,1.47,2.34,2.34,0,0,1-1.65.66h-5v27.33a1.91,1.91,0,0,1-.71,1.4,2.35,2.35,0,0,1-1.65.66h-1.32a2.54,2.54,0,0,1-1.74-.62,1.87,1.87,0,0,1-.71-1.43l-.09-27.33h-4.91a2.34,2.34,0,0,1-1.65-.66,2,2,0,0,1-.71-1.47v-1.25q0-2.06,2.36-2.06h4.91v-8.23q0-2.06,2.36-2.06H1565a2.35,2.35,0,0,1,1.65.66,1.92,1.92,0,0,1,.71,1.4v8.23h5q2.36,0,2.36,2.06Z"/><path class="cls-3" d="M1663.73,399.14a1.73,1.73,0,0,1-.75,1.4,2.83,2.83,0,0,1-1.79.59h-1.7q-2.45,0-2.45-2v-1q-5.28,3.67-13.4,3.67-8.59,0-13.3-3.45a11.65,11.65,0,0,1-5-10.14V367.26a1.93,1.93,0,0,1,.75-1.47,2.63,2.63,0,0,1,1.79-.66h1.79a2.63,2.63,0,0,1,1.79.66,1.94,1.94,0,0,1,.76,1.47v20.86q0,8.45,11.42,8.45,6.7,0,10.19-3.53a11.42,11.42,0,0,0,3.21-8.52V367.26q0-2.13,2.45-2.13h1.7a2.63,2.63,0,0,1,1.79.66,1.93,1.93,0,0,1,.75,1.47Z"/><path class="cls-3" d="M1759.3,399.07q0,2.06-2.55,2.06H1755q-2.55,0-2.55-2.06v-2.13q-5.85,5-15.57,5-10.38,0-16.7-6.1a19.29,19.29,0,0,1,.47-26.81q6-5.8,16.51-5.8,9.34,0,15.28,4.92V353.3q0-2,2.55-2h1.79q2.55,0,2.55,2Zm-6.89-16.38q0-6.24-3.68-10-4.06-4-11.89-4-7.36,0-11.42,4.26a13.7,13.7,0,0,0-3.58,9.77,13.55,13.55,0,0,0,3.49,9.62,1.59,1.59,0,0,1,.38.22q4,4,11.13,4t11.6-4.19A12.8,12.8,0,0,0,1752.41,382.69Z"/><path class="cls-3" d="M1818.45,358l-.38.59a2.91,2.91,0,0,1-2.83,1.84q-2.83,0-2.83-2.2v-5.29a3,3,0,0,1,2.83-2.28q1.7,0,3.21,2.13Zm0,41.06a1.82,1.82,0,0,1-.85,1.4,2.88,2.88,0,0,1-1.79.66H1815q-2.55,0-2.55-2.06V366.16q0-2.06,2.55-2.06h.85a2.92,2.92,0,0,1,1.84.62,1.8,1.8,0,0,1,.8,1.43Z"/><path class="cls-3" d="M1917.41,383.05a16.75,16.75,0,0,1-6.23,13.59q-6.23,5.14-16.89,5.14t-16.89-5.29a17.79,17.79,0,0,1,.33-27q6.37-5.25,16.75-5.25t16.79,5.36A16.57,16.57,0,0,1,1917.41,383.05Zm-6.89,0a12.38,12.38,0,0,0-4.15-9.81q-4.15-3.64-12-3.64-7.64,0-11.84,3.64a12.31,12.31,0,0,0-4.2,9.81,12.47,12.47,0,0,0,4.2,9.77q4.2,3.75,11.84,3.75t12.08-3.82A12.31,12.31,0,0,0,1910.53,383.05Z"/><path class="cls-4" d="M1905.35,172.16a67.29,67.29,0,1,0,45.48,116.73v8.86h21.8v-58.3A67.36,67.36,0,0,0,1905.35,172.16Zm0,112.77a45.48,45.48,0,1,1,45.48-45.48A45.53,45.53,0,0,1,1905.35,284.93Z"/><path class="cls-4" d="M1772.28,190a67.26,67.26,0,1,0,21.8,49.55V150.4h-21.8Zm-45.48,95a45.48,45.48,0,1,1,45.48-45.48A45.54,45.54,0,0,1,1726.8,285Z"/><path class="cls-5" d="M988.18,189.9a67.26,67.26,0,1,0,21.8,49.54V150.33h-21.8Zm-45.48,95a45.48,45.48,0,1,1,45.48-45.48A45.54,45.54,0,0,1,942.7,284.93Z"/><path class="cls-5" d="M1231.43,172.16a67.29,67.29,0,1,0,67.29,67.29A67.36,67.36,0,0,0,1231.43,172.16Zm0,112.77a45.48,45.48,0,1,1,45.48-45.48A45.54,45.54,0,0,1,1231.43,284.93Z"/><path class="cls-5" d="M797,171.88a67.29,67.29,0,1,0,67.29,67.29A67.36,67.36,0,0,0,797,171.88Zm0,112.77a45.48,45.48,0,1,1,45.48-45.48A45.53,45.53,0,0,1,797,284.65Z"/><path class="cls-5" d="M671.24,172.17A48,48,0,0,0,634,189.84a48.1,48.1,0,0,0-85.35,30.46v77.44h21.8V220.3a26.32,26.32,0,0,1,52.65,0v77.44h21.8V220.3a26.32,26.32,0,0,1,52.65,0v77.44h21.8V220.3A48.18,48.18,0,0,0,671.24,172.17Z"/><path class="cls-4" d="M1454.5,172.17a48,48,0,0,0-37.23,17.67,48.1,48.1,0,0,0-85.35,30.46v77.44h21.8V220.3a26.32,26.32,0,0,1,52.65,0v77.44h21.8V220.3a26.32,26.32,0,0,1,52.65,0v77.44h21.8V220.3A48.18,48.18,0,0,0,1454.5,172.17Z"/><rect class="cls-4" x="1805.23" y="181.15" width="21.8" height="116.59"/><rect class="cls-4" x="1805.21" y="150.4" width="21.8" height="21.8"/><path class="cls-4" d="M1581.11,172.13a67.61,67.61,0,1,0,58.65,101.14h-27.68A45.6,45.6,0,0,1,1537,251.36h110.69a67.29,67.29,0,0,0-66.54-79.24Zm0,21.91a45.69,45.69,0,0,1,44.5,35.42h-89A45.69,45.69,0,0,1,1581.11,194Z"/><path class="cls-5" d="M1086.45,172.13a67.61,67.61,0,1,0,58.65,101.14h-27.68a45.6,45.6,0,0,1-75.13-21.91H1153a67.29,67.29,0,0,0-66.54-79.24Zm0,21.91a45.69,45.69,0,0,1,44.5,35.42h-89A45.69,45.69,0,0,1,1086.45,194Z"/><g class="cls-6"><rect class="cls-7" x="291.06" y="227.33" width="26.67" height="82.96"/><polygon class="cls-8" points="207.87 41.28 220.51 224.27 298.79 239.08 435.21 106.04 207.87 41.28"/><polygon class="cls-7" points="220.1 221.45 298.37 236.26 309.36 310.3 233.38 296.29 220.1 221.45"/><polygon class="cls-9" points="435.98 101.37 298.37 236.31 309.36 310.3 493.6 339.11 435.98 101.37"/></g><path class="cls-2" d="M320.74,235.37l79.54-36.06c3.93-1.78,4.42-7.24.85-9.44L310,133.65c-3.75-2.31-8.61,1-8.05,5.44l11.54,92.28A5.07,5.07,0,0,0,320.74,235.37Z"/><path class="cls-5" d="M477.74,352.42l-220.58-37.5a47.76,47.76,0,0,0-41.56,13.4l-21.1,20.62,62.25,9.7a7.75,7.75,0,0,1,3.86,13.54h0a14.07,14.07,0,0,1-11.27,3.23l-70.91-10.76-47.49,46.42,60.2,8a6.5,6.5,0,0,1,3.4,11.36,20.44,20.44,0,0,1-16,4.82l-63.78-8.37L86.43,454.59l224.5,27.15a47.76,47.76,0,0,0,33.73-9l47.41-34.9-42.74-5.78A6.75,6.75,0,0,1,346,420.19h0a20.31,20.31,0,0,1,15.69-4.4l50.74,7.13,69.92-51.47A10.61,10.61,0,0,0,477.74,352.42Z"/><path class="cls-4" d="M220.56,273.69,193,52.22a11.53,11.53,0,0,0-20.63-5.55l-54.47,71.67,5.4,48a16.59,16.59,0,0,1-3.76,12.5h0a7.52,7.52,0,0,1-13.24-4l-3.87-36.12L66,186.69a48.39,48.39,0,0,0-9.72,33.19l18.1,224.39,27.92-27.21-5.9-63.13a18.32,18.32,0,0,1,4.66-14h0A7.12,7.12,0,0,1,113.38,344l5.31,57,48.91-47.68L160,282.15a14.69,14.69,0,0,1,3.7-11.4A7.62,7.62,0,0,1,177,275l6.88,62.5,21.78-21.23A50.75,50.75,0,0,0,220.56,273.69Z"/></svg>