<?xml version="1.0" encoding="utf-8"?>
<!-- Generator: Adobe Illustrator 21.0.0, SVG Export Plug-In . SVG Version: 6.00 Build 0)  -->
<svg version="1.1" baseProfile="basic" id="COLORED"
	 xmlns="http://www.w3.org/2000/svg" xmlns:xlink="http://www.w3.org/1999/xlink" x="0px" y="0px" viewBox="0 0 526.3 147.3"
	 xml:space="preserve">
<style type="text/css">
	.st0{fill:#78BC9A;}
	.st1{fill:#3B8584;}
	.st2{fill:#848484;}
	.st3{filter:url(#Adobe_OpacityMaskFilter);}
	.st4{fill:#FFFFFF;}
	.st5{mask:url(#SVGID_1_);}
	.st6{fill:#39807C;}
	.st7{fill:#448B82;}
	.st8{fill:#387873;}
</style>
<g id="Layer_6">
	<g>
		<g>
			<g>
				<g>
					<path class="st0" d="M493,48.1c-9.4,0-17.1,7.7-17.1,17.1s7.7,17.1,17.1,17.1c4.5,0,8.5-1.7,11.6-4.5v3.9h5.5V65.3
						C510.2,55.8,502.5,48.1,493,48.1z M493,76.8c-6.4,0-11.6-5.2-11.6-11.6s5.2-11.6,11.6-11.6c6.4,0,11.6,5.2,11.6,11.6
						S499.4,76.8,493,76.8z"/>
					<path class="st0" d="M459.2,52.7c-3-2.8-7.1-4.5-11.6-4.5c-9.4,0-17.1,7.7-17.1,17.1s7.7,17.1,17.1,17.1s17.1-7.7,17.1-17.1
						v-22h-5.5V52.7z M447.6,76.8c-6.4,0-11.6-5.2-11.6-11.6c0-6.4,5.2-11.6,11.6-11.6s11.6,5.2,11.6,11.6
						C459.2,71.7,454,76.8,447.6,76.8z"/>
					<path class="st1" d="M259.2,52.7c-3-2.8-7.1-4.5-11.6-4.5c-9.4,0-17.1,7.7-17.1,17.1s7.7,17.1,17.1,17.1s17.1-7.7,17.1-17.1
						v-22h-5.5V52.7z M247.6,76.8c-6.4,0-11.6-5.2-11.6-11.6s5.2-11.6,11.6-11.6s11.6,5.2,11.6,11.6S254,76.8,247.6,76.8z"/>
					<path class="st1" d="M321.8,48.1c-9.4,0-17.1,7.7-17.1,17.1s7.7,17.1,17.1,17.1c9.4,0,17.1-7.7,17.1-17.1
						S331.2,48.1,321.8,48.1z M321.8,76.8c-6.4,0-11.6-5.2-11.6-11.6s5.2-11.6,11.6-11.6s11.6,5.2,11.6,11.6S328.2,76.8,321.8,76.8z
						"/>
					<path class="st1" d="M210.6,48.1c-9.4,0-17.1,7.7-17.1,17.1c0,9.4,7.7,17.1,17.1,17.1c9.4,0,17.1-7.7,17.1-17.1
						C227.7,55.8,220,48.1,210.6,48.1z M210.6,76.8c-6.4,0-11.6-5.2-11.6-11.6s5.2-11.6,11.6-11.6c6.4,0,11.6,5.2,11.6,11.6
						S217,76.8,210.6,76.8z"/>
					<path class="st1" d="M178.5,48.1c-3.8,0-7.2,1.8-9.5,4.5c-2.2-2.7-5.7-4.5-9.5-4.5c-6.7,0-12.2,5.5-12.2,12.2v21.4h5.5V60.4
						c0-3.7,3-6.7,6.7-6.7c3.7,0,6.7,3,6.7,6.7v21.4h5.5V60.4c0-3.7,3-6.7,6.7-6.7c3.7,0,6.7,3,6.7,6.7v21.4h5.5V60.4
						C190.7,53.6,185.2,48.1,178.5,48.1z"/>
					<path class="st0" d="M378.4,48.1c-3.8,0-7.2,1.8-9.5,4.5c-2.2-2.7-5.7-4.5-9.5-4.5c-6.7,0-12.2,5.5-12.2,12.2v21.4h5.5V60.4
						c0-3.7,3-6.7,6.7-6.7c3.7,0,6.7,3,6.7,6.7v21.4h5.5V60.4c0-3.7,3-6.7,6.7-6.7s6.7,3,6.7,6.7v21.4h5.5V60.4
						C390.6,53.6,385.1,48.1,378.4,48.1z"/>
					<rect x="467.5" y="50.9" class="st0" width="5.5" height="30.9"/>
					<rect x="467.5" y="43.3" class="st0" width="5.5" height="5.5"/>
					<path class="st0" d="M410.6,48.1c-9.5,0-17.2,7.7-17.2,17.2s7.7,17.2,17.2,17.2c6.4,0,12-3.5,14.9-8.7h-7
						c-2.1,1.9-4.8,3.1-7.9,3.1c-5.4,0-9.9-3.7-11.2-8.7h22.5l0,0h5.7c0.2-1,0.3-1.9,0.3-3C427.8,55.8,420.1,48.1,410.6,48.1z
						 M410.6,53.7c5.5,0,10.1,3.9,11.3,9h-22.6C400.5,57.6,405.1,53.7,410.6,53.7z"/>
					<path class="st1" d="M284.7,48.1c-9.5,0-17.2,7.7-17.2,17.2s7.7,17.2,17.2,17.2c6.4,0,12-3.5,14.9-8.7h-7
						c-2.1,1.9-4.8,3.1-7.9,3.1c-5.4,0-9.9-3.7-11.2-8.7h22.5l0,0h5.7c0.2-1,0.3-1.9,0.3-3C301.9,55.8,294.2,48.1,284.7,48.1z
						 M284.7,53.7c5.5,0,10.1,3.9,11.3,9h-22.6C274.6,57.6,279.2,53.7,284.7,53.7z"/>
				</g>
				<g>
					<path class="st2" d="M169.3,108.5c0,0.4-0.2,0.6-0.6,0.6h-0.4c-0.4,0-0.6-0.2-0.6-0.6v-0.7c-1,1-2.3,1.5-3.9,1.5
						c-1.7,0-3.1-0.6-4.1-1.7c-0.9-1.1-1.4-2.5-1.4-4.2c0-1.7,0.5-3.2,1.4-4.3c1-1.2,2.4-1.8,4.1-1.8c1.6,0,2.9,0.5,3.8,1.5V98
						c0-0.2,0.1-0.3,0.2-0.5c0.1-0.1,0.3-0.2,0.4-0.2h0.4c0.4,0,0.6,0.2,0.6,0.7V108.5z M167.6,103.3c0-1.3-0.3-2.4-0.9-3.1
						c-0.7-0.8-1.6-1.2-2.9-1.2c-1.2,0-2.1,0.4-2.8,1.3c-0.6,0.8-0.9,1.8-0.9,3c0,1.2,0.3,2.2,0.8,3c0,0,0.1,0,0.1,0.1
						c0.7,0.8,1.6,1.2,2.8,1.2c1.2,0,2.1-0.4,2.8-1.2C167.3,105.6,167.6,104.6,167.6,103.3z"/>
					<path class="st2" d="M192.7,108.5c0,0.2-0.1,0.3-0.2,0.4c-0.1,0.1-0.3,0.2-0.4,0.2h-0.4c-0.4,0-0.6-0.2-0.6-0.6v-6.8
						c0-0.9-0.3-1.5-0.8-2c-0.5-0.5-1.2-0.7-2.1-0.7c-1.1,0-1.9,0.3-2.5,1c-0.6,0.7-0.9,1.5-0.9,2.6v5.8c0,0.2-0.1,0.3-0.2,0.4
						c-0.1,0.1-0.3,0.2-0.4,0.2h-0.4c-0.4,0-0.6-0.2-0.6-0.6V98.2c0-0.2,0.1-0.3,0.2-0.5c0.1-0.1,0.3-0.2,0.4-0.2h0.4
						c0.2,0,0.3,0.1,0.4,0.2c0.1,0.1,0.2,0.3,0.2,0.4v0.3c0.1-0.1,0.2-0.2,0.4-0.4c0,0,0.1,0,0.1,0c0.8-0.5,1.7-0.8,2.8-0.8
						c1.3,0,2.3,0.3,3.2,1l0,0c0.9,0.8,1.4,1.8,1.4,3.2V108.5z"/>
					<path class="st2" d="M207.9,95.3l-0.1,0.2c-0.1,0.4-0.4,0.6-0.7,0.6c-0.5,0-0.7-0.2-0.7-0.7v-1.7c0.1-0.5,0.4-0.7,0.7-0.7
						c0.3,0,0.5,0.2,0.8,0.7V95.3z M207.9,108.4c0,0.2-0.1,0.3-0.2,0.4c-0.1,0.1-0.3,0.2-0.4,0.2H207c-0.4,0-0.6-0.2-0.6-0.7V97.9
						c0-0.4,0.2-0.7,0.6-0.7h0.2c0.2,0,0.3,0.1,0.5,0.2c0.1,0.1,0.2,0.3,0.2,0.5V108.4z"/>
					<path class="st2" d="M238.1,108.5c0,0.2-0.1,0.3-0.2,0.4c-0.1,0.1-0.3,0.2-0.5,0.2H237c-0.4,0-0.7-0.2-0.7-0.6v-6.8
						c0-1.8-0.8-2.7-2.5-2.7c-0.9,0-1.6,0.3-2.2,0.8c-0.6,0.5-0.8,1.2-0.8,2.2v6.5c0,0.4-0.2,0.6-0.7,0.6h-0.4
						c-0.4,0-0.7-0.2-0.7-0.6v-6.8c0-1.8-0.8-2.7-2.5-2.7c-1,0-1.7,0.4-2.3,1.1c-0.5,0.7-0.7,1.5-0.7,2.5v5.8c0,0.4-0.2,0.6-0.7,0.6
						h-0.4c-0.4,0-0.7-0.2-0.7-0.6V98.2c0-0.4,0.2-0.7,0.7-0.7h0.4c0.2,0,0.3,0.1,0.5,0.2c0.1,0.1,0.2,0.3,0.2,0.5v0.2
						c0.1,0,0.2-0.1,0.3-0.2c0.8-0.6,1.8-0.9,2.9-0.9c1.5,0,2.6,0.5,3.4,1.6c0.8-1.1,2.1-1.6,3.8-1.6c2.9,0,4.3,1.4,4.3,4.1V108.5z"
						/>
					<path class="st2" d="M262.9,108.5c0,0.4-0.2,0.6-0.6,0.6h-0.4c-0.4,0-0.6-0.2-0.6-0.6v-0.7c-1,1-2.3,1.5-3.9,1.5
						c-1.7,0-3.1-0.6-4.1-1.7c-0.9-1.1-1.4-2.5-1.4-4.2c0-1.7,0.5-3.2,1.4-4.3c1-1.2,2.4-1.8,4.1-1.8c1.6,0,2.9,0.5,3.8,1.5V98
						c0-0.2,0.1-0.3,0.2-0.5c0.1-0.1,0.3-0.2,0.4-0.2h0.4c0.4,0,0.6,0.2,0.6,0.7V108.5z M261.2,103.3c0-1.3-0.3-2.4-0.9-3.1
						c-0.7-0.8-1.6-1.2-2.9-1.2c-1.2,0-2.1,0.4-2.8,1.3c-0.6,0.8-0.9,1.8-0.9,3c0,1.2,0.3,2.2,0.8,3c0,0,0.1,0,0.1,0.1
						c0.7,0.8,1.6,1.2,2.8,1.2c1.2,0,2.1-0.4,2.8-1.2S261.2,104.6,261.2,103.3z"/>
					<path class="st2" d="M281.8,99c0,0.2-0.1,0.3-0.2,0.5c-0.1,0.1-0.3,0.2-0.4,0.2H280v8.7c0,0.2-0.1,0.3-0.2,0.4
						c-0.1,0.1-0.3,0.2-0.4,0.2h-0.3c-0.2,0-0.3-0.1-0.4-0.2c-0.1-0.1-0.2-0.3-0.2-0.5l0-8.7h-1.2c-0.2,0-0.3-0.1-0.4-0.2
						c-0.1-0.1-0.2-0.3-0.2-0.5v-0.4c0-0.4,0.2-0.7,0.6-0.7h1.2v-2.6c0-0.4,0.2-0.7,0.6-0.7h0.4c0.2,0,0.3,0.1,0.4,0.2
						c0.1,0.1,0.2,0.3,0.2,0.4v2.6h1.2c0.4,0,0.6,0.2,0.6,0.7V99z"/>
					<path class="st2" d="M297.1,95.3l-0.1,0.2c-0.1,0.4-0.4,0.6-0.7,0.6c-0.5,0-0.7-0.2-0.7-0.7v-1.7c0.1-0.5,0.4-0.7,0.7-0.7
						c0.3,0,0.5,0.2,0.8,0.7V95.3z M297.1,108.4c0,0.2-0.1,0.3-0.2,0.4c-0.1,0.1-0.3,0.2-0.4,0.2h-0.2c-0.4,0-0.6-0.2-0.6-0.7V97.9
						c0-0.4,0.2-0.7,0.6-0.7h0.2c0.2,0,0.3,0.1,0.5,0.2c0.1,0.1,0.2,0.3,0.2,0.5V108.4z"/>
					<path class="st2" d="M322.3,103.3c0,1.8-0.5,3.3-1.6,4.4c-1,1.1-2.4,1.6-4.2,1.6c-1.8,0-3.2-0.6-4.2-1.7
						c-1-1.1-1.5-2.5-1.5-4.3c0-1.8,0.5-3.2,1.6-4.3c1.1-1.1,2.4-1.7,4.2-1.7c1.7,0,3.1,0.6,4.2,1.7
						C321.8,100.1,322.3,101.5,322.3,103.3z M320.6,103.3c0-1.3-0.3-2.4-1-3.1c-0.7-0.8-1.7-1.2-3-1.2c-1.3,0-2.3,0.4-3,1.2
						s-1,1.8-1,3.1c0,1.3,0.3,2.3,1,3.1s1.7,1.2,3,1.2c1.3,0,2.3-0.4,3-1.2C320.3,105.6,320.6,104.6,320.6,103.3z"/>
					<path class="st2" d="M345.6,108.5c0,0.2-0.1,0.3-0.2,0.4c-0.1,0.1-0.3,0.2-0.4,0.2h-0.4c-0.4,0-0.6-0.2-0.6-0.6v-6.8
						c0-0.9-0.3-1.5-0.8-2c-0.5-0.5-1.2-0.7-2.1-0.7c-1.1,0-1.9,0.3-2.5,1c-0.6,0.7-0.9,1.5-0.9,2.6v5.8c0,0.2-0.1,0.3-0.2,0.4
						c-0.1,0.1-0.3,0.2-0.4,0.2h-0.4c-0.4,0-0.6-0.2-0.6-0.6V98.2c0-0.2,0.1-0.3,0.2-0.5c0.1-0.1,0.3-0.2,0.4-0.2h0.4
						c0.2,0,0.3,0.1,0.4,0.2c0.1,0.1,0.2,0.3,0.2,0.4v0.3c0.1-0.1,0.2-0.2,0.4-0.4c0,0,0.1,0,0.1,0c0.8-0.5,1.7-0.8,2.8-0.8
						c1.3,0,2.3,0.3,3.2,1l0,0c0.9,0.8,1.4,1.8,1.4,3.2V108.5z"/>
					<path class="st2" d="M387.9,105.8c0,1.2-0.5,2.1-1.4,2.7c-0.8,0.5-1.8,0.8-3,0.8c-3.2,0-4.9-1.5-4.9-4.4c0-0.2,0.1-0.3,0.2-0.4
						c0.1-0.1,0.3-0.2,0.4-0.2h0.5c0.4,0,0.6,0.2,0.6,0.6c0,1.8,1.1,2.7,3.2,2.7c0.7,0,1.3-0.1,1.7-0.4c0.6-0.3,0.9-0.8,0.9-1.4
						c0-0.7-0.6-1.2-1.8-1.5c0,0-0.4-0.1-1.2-0.2c-0.2,0-0.5-0.1-0.9-0.1c-2.2-0.4-3.3-1.4-3.3-3.2c0-1.1,0.4-2,1.3-2.7
						c0.8-0.5,1.7-0.8,2.8-0.8c3.1,0,4.7,1.3,4.7,4c0,0.4-0.2,0.7-0.6,0.7h-0.5c-0.4,0-0.6-0.2-0.6-0.7c0-1.5-0.9-2.2-2.8-2.2
						c-0.6,0-1.2,0.1-1.6,0.4c-0.5,0.3-0.8,0.8-0.8,1.4c0,0.7,0.6,1.1,1.7,1.4h-0.1c0.1,0,0.2,0,0.3,0l0,0c0.4,0.1,1.1,0.2,2,0.4
						C386.8,102.9,387.9,104,387.9,105.8z"/>
					<path class="st2" d="M406.8,99c0,0.2-0.1,0.3-0.2,0.5c-0.1,0.1-0.3,0.2-0.4,0.2H405v8.7c0,0.2-0.1,0.3-0.2,0.4
						c-0.1,0.1-0.3,0.2-0.4,0.2h-0.3c-0.2,0-0.3-0.1-0.4-0.2c-0.1-0.1-0.2-0.3-0.2-0.5l0-8.7h-1.2c-0.2,0-0.3-0.1-0.4-0.2
						c-0.1-0.1-0.2-0.3-0.2-0.5v-0.4c0-0.4,0.2-0.7,0.6-0.7h1.2v-2.6c0-0.4,0.2-0.7,0.6-0.7h0.4c0.2,0,0.3,0.1,0.4,0.2
						c0.1,0.1,0.2,0.3,0.2,0.4v2.6h1.2c0.4,0,0.6,0.2,0.6,0.7V99z"/>
					<path class="st2" d="M430.1,108.4c0,0.2-0.1,0.3-0.2,0.4c-0.1,0.1-0.3,0.2-0.4,0.2h-0.4c-0.4,0-0.6-0.2-0.6-0.6v-0.3
						c-0.9,0.8-2,1.2-3.3,1.2c-1.4,0-2.5-0.4-3.3-1.1c-0.8-0.8-1.2-1.8-1.2-3.2v-6.7c0-0.2,0.1-0.3,0.2-0.5c0.1-0.1,0.3-0.2,0.4-0.2
						h0.4c0.2,0,0.3,0.1,0.4,0.2c0.1,0.1,0.2,0.3,0.2,0.5v6.7c0,1.8,0.9,2.7,2.8,2.7c1.1,0,2-0.4,2.5-1.1c0.5-0.7,0.8-1.6,0.8-2.7
						v-5.5c0-0.5,0.2-0.7,0.6-0.7h0.4c0.2,0,0.3,0.1,0.4,0.2c0.1,0.1,0.2,0.3,0.2,0.5V108.4z"/>
					<path class="st2" d="M454.9,108.4c0,0.4-0.2,0.7-0.6,0.7h-0.4c-0.4,0-0.6-0.2-0.6-0.7v-0.7c-1,1.1-2.3,1.6-3.9,1.6
						c-1.7,0-3.1-0.7-4.2-2c-0.9-1.1-1.3-2.5-1.3-4.2c0-1.8,0.5-3.2,1.4-4.4c1-1.2,2.4-1.9,4.1-1.9c1.6,0,2.8,0.5,3.8,1.6v-4.8
						c0-0.4,0.2-0.6,0.6-0.6h0.4c0.4,0,0.6,0.2,0.6,0.6V108.4z M453.2,103.1c0-1.3-0.3-2.4-0.9-3.2c-0.7-0.9-1.7-1.3-3-1.3
						c-1.2,0-2.2,0.5-2.8,1.4c-0.6,0.8-0.9,1.9-0.9,3.1c0,1.3,0.3,2.3,0.9,3.1c0,0,0.1,0,0.1,0.1c0.7,0.8,1.6,1.3,2.8,1.3
						c1.2,0,2.2-0.4,2.9-1.3C452.9,105.4,453.2,104.4,453.2,103.1z"/>
					<path class="st2" d="M470.2,95.2l-0.1,0.2c-0.1,0.4-0.4,0.6-0.7,0.6c-0.5,0-0.7-0.2-0.7-0.7v-1.7c0.1-0.5,0.4-0.7,0.7-0.7
						c0.3,0,0.5,0.2,0.8,0.7V95.2z M470.2,108.4c0,0.2-0.1,0.3-0.2,0.4c-0.1,0.1-0.3,0.2-0.4,0.2h-0.2c-0.4,0-0.6-0.2-0.6-0.7V97.8
						c0-0.4,0.2-0.7,0.6-0.7h0.2c0.2,0,0.3,0.1,0.5,0.2c0.1,0.1,0.2,0.3,0.2,0.5V108.4z"/>
					<path class="st2" d="M495.4,103.3c0,1.8-0.5,3.3-1.6,4.4c-1,1.1-2.4,1.6-4.2,1.6c-1.8,0-3.2-0.6-4.2-1.7
						c-1-1.1-1.5-2.5-1.5-4.3c0-1.8,0.5-3.2,1.6-4.3c1.1-1.1,2.4-1.7,4.2-1.7c1.7,0,3.1,0.6,4.2,1.7
						C494.9,100,495.4,101.5,495.4,103.3z M493.7,103.3c0-1.3-0.3-2.4-1-3.1c-0.7-0.8-1.7-1.2-3-1.2c-1.3,0-2.3,0.4-3,1.2
						c-0.7,0.8-1,1.8-1,3.1c0,1.3,0.3,2.3,1,3.1s1.7,1.2,3,1.2c1.3,0,2.3-0.4,3-1.2C493.3,105.6,493.7,104.6,493.7,103.3z"/>
				</g>
			</g>
			<g>
				<defs>
					<filter id="Adobe_OpacityMaskFilter" filterUnits="userSpaceOnUse" x="57.7" y="16.3" width="74.4" height="77.5">
						
							<feColorMatrix  type="matrix" values="-1 0 0 0 1  0 -1 0 0 1  0 0 -1 0 1  0 0 0 1 0" color-interpolation-filters="sRGB" result="source"/>
						<feFlood  style="flood-color:white;flood-opacity:1" result="back"/>
						<feBlend  in="source" in2="back" mode="normal"/>
					</filter>
				</defs>
				<mask maskUnits="userSpaceOnUse" x="57.7" y="16.3" width="74.4" height="77.5" id="SVGID_1_">
					<g class="st3">
						<path class="st4" d="M53.5,16.3l8.4,67.5c0.2,1.3,1.2,2.4,2.5,2.6l66.8,11.4c2.1,0.4,3.9-1.6,3.4-3.7l-15-61.6
							c-0.3-1-1-1.9-2.1-2.2L57.3,13.1C55.2,12.5,53.2,14.2,53.5,16.3z M65.1,73l-6.3-50.7c-0.3-2.5,2.1-4.6,4.5-3.9L113,32.7
							c2.1,0.6,3.6,2.2,4.1,4.3l12.6,51.8c0.5,2.1-1.3,4-3.4,3.7l-50.9-8.7C70,82.8,65.8,78.4,65.1,73z"/>
					</g>
				</mask>
				<g class="st5">
					<g>
						<polygon class="st6" points="57.7,16.3 61,63.9 81.4,67.8 116.9,33.2 						"/>
						<polygon class="st7" points="60.9,63.2 81.3,67.1 84.1,86.3 64.4,82.7 						"/>
						<polygon class="st8" points="117.1,31.9 81.3,67.1 84.1,86.3 132.1,93.8 						"/>
					</g>
				</g>
				<path class="st4" d="M87.1,66.8l20.7-9.4c1-0.5,1.1-1.9,0.2-2.5L84.3,40.3c-1-0.6-2.2,0.3-2.1,1.4l3,24
					C85.3,66.7,86.3,67.2,87.1,66.8z"/>
				<path class="st1" d="M128,97.3l-57.4-9.8c-4-0.7-8,0.6-10.8,3.5l-5.5,5.4l16.2,2.5c1.7,0.3,2.3,2.4,1,3.5l0,0
					c-0.8,0.7-1.9,1-2.9,0.8l-18.5-2.8l-12.4,12.1l15.7,2.1c1.4,0.2,2,2,0.9,3c-1.1,1-2.7,1.5-4.2,1.3l-16.6-2.2l-7.4,7.2l58.5,7.1
					c3.1,0.4,6.3-0.5,8.8-2.3l12.3-9.1L94.6,118c-1.5-0.2-2.1-2.1-0.9-3.1v0c1.1-0.9,2.6-1.4,4.1-1.1l13.2,1.9l18.2-13.4
					C131.1,100.8,130.4,97.7,128,97.3z"/>
				<path class="st0" d="M61,76.8l-7.2-57.7c-0.3-2.7-3.7-3.6-5.4-1.4L34.3,36.4l1.4,12.5c0.1,1.2-0.2,2.3-1,3.3h0
					c-1.1,1.3-3.3,0.7-3.4-1l-1-9.4l-9.5,12.5c-1.9,2.5-2.8,5.5-2.5,8.6c1.2,14.8,4.7,58.4,4.7,58.4l7.3-7.1l-1.5-16.4
					C28.6,96.4,29,95,29.9,94v0c1.1-1.2,3.1-0.5,3.2,1.1l1.4,14.8l12.7-12.4l-2-18.5c-0.1-1.1,0.2-2.2,1-3c1.1-1.3,3.3-0.6,3.4,1.1
					l1.8,16.3l5.7-5.5C60.1,85,61.5,80.9,61,76.8z"/>
			</g>
		</g>
	</g>
</g>
<g id="Layer_5">
</g>
<g id="Layer_4">
</g>
<g id="Layer_4_copy">
</g>
</svg>
