<svg id="Layer_1" data-name="Layer 1" xmlns="http://www.w3.org/2000/svg" viewBox="0 0 1309.75 159.04"><defs><style>.cls-1{fill:#e6efef;}.cls-2{fill:#504f59;}.cls-3{fill:#201f24;}.cls-4{fill:#fe830c;}.cls-5{fill:#feb914;}.cls-6{fill:#422004;}</style></defs><title>ADS_v2</title><path class="cls-1" d="M1309.75,159H0V19.45A19.45,19.45,0,0,1,19.45,0H1290.3a19.45,19.45,0,0,1,19.45,19.45Z"/><path class="cls-2" d="M463.15,98q-1.63,5.27-2.72,9t-1.85,6.58q12-1.52,18.4-2.2t8.89-.68a12.15,12.15,0,0,1,4.08.52q1.36.52,1.36,1.6,0,2.23-5.27,2.94l-1.09.16q-7,1.14-16.85,3.7t-12.39,2.55a5.32,5.32,0,0,1-3.89-1.74,5.63,5.63,0,0,1-1.71-4.08q0-1.41,3.61-14.92t11.88-43.08q1.25-4.46,2.66-5.22t8.7-.76q3.64,0,12,1t12.86,1.28a2.7,2.7,0,0,1,1.39.38,1.07,1.07,0,0,1,.46.92q0,2.88-13.43,3.86-9.79.65-16.25,1.47-2,5.82-4.16,13t-4.65,16.36q7.12-.76,12.45-1.09t9.35-.33a11.65,11.65,0,0,1,4.27.57,1.94,1.94,0,0,1,1.33,1.88,3.66,3.66,0,0,1-.62,2.31,2.67,2.67,0,0,1-2,.9q-4.4.22-10.82,1T463.15,98Z"/><path class="cls-2" d="M505.77,114.54q-.54.71-1.79,2.28-4.13,5.22-6.36,8.26a7,7,0,0,1-.76.24,3.17,3.17,0,0,1-.76.08,2.92,2.92,0,0,1-1.93-.71,2,2,0,0,1-.84-1.52q0-1.2,2.15-4.32t8.13-10.36q-1.09-3.8-1.66-6.74a25.29,25.29,0,0,1-.57-4.29,7.45,7.45,0,0,1,6.2-6.79q1.63,0,2.12,5.22.27,3.1.6,5,8.53-9.4,11.58-12.1t4.68-2.69a2.88,2.88,0,0,1,1.85.65,1.8,1.8,0,0,1,.82,1.36,2.46,2.46,0,0,1-.84,1.63,17.35,17.35,0,0,1-2.85,2.17A68.17,68.17,0,0,0,519.66,98q-3.45,4-8.07,9.95a27.37,27.37,0,0,0,2.12,6.93q1.3,2.64,2.45,2.64.82,0,2.91-2.61a44,44,0,0,0,4.21-6.52q.54-1,1.36-2.61,1.36-2.77,2-2.77a3.14,3.14,0,0,1,1.77,1q1.11,1,1.11,1.6,0,.76-1.9,4.59a45.54,45.54,0,0,1-4.35,7.09,14.11,14.11,0,0,1-4.08,3.83,9,9,0,0,1-4.62,1.28,7.19,7.19,0,0,1-5-1.71A17.93,17.93,0,0,1,505.77,114.54Z"/><path class="cls-2" d="M533.33,95.25a35.72,35.72,0,0,1,4.76-5.9,5,5,0,0,1,8.29,1,13.06,13.06,0,0,1,1.85,7.31,31.47,31.47,0,0,1-4.62,16.74Q539,122,533.66,122a7.18,7.18,0,0,1-3.83-1.09,5.68,5.68,0,0,1-2.42-2.72q-2.34,10.22-3.67,17a61.7,61.7,0,0,0-1.33,8.54,2,2,0,0,0,.49,1.3,2.52,2.52,0,0,1,.49.71,1.93,1.93,0,0,1-.71,1.49,2.39,2.39,0,0,1-1.63.63,5,5,0,0,1-3.15-.87,3.14,3.14,0,0,1-1.09-2.61q0-2.77,2.58-15.09t6.55-27.32q.54-2,1.47-5.44,4.35-16.25,6.9-16.25a3.1,3.1,0,0,1,1.9.65,1.92,1.92,0,0,1,.87,1.58,30,30,0,0,1-1.41,5Q534.25,91.71,533.33,95.25ZM529,114a4,4,0,0,0,1.22,2.53,3.41,3.41,0,0,0,2.42,1,5,5,0,0,0,3.78-1.82,21.92,21.92,0,0,0,3.45-6.22,44.68,44.68,0,0,0,2.17-6.6,24.91,24.91,0,0,0,.76-5.74,6.08,6.08,0,0,0-.44-2.58,1.36,1.36,0,0,0-1.25-.9q-2,0-5.71,5.93A61.19,61.19,0,0,0,529,114Z"/><path class="cls-2" d="M555.56,108.29c-.33.07-.56.12-.71.14l-.49.08a2,2,0,0,1-1.66-1,3.77,3.77,0,0,1-.68-2.15q0-.82,1.85-1.09a5.48,5.48,0,0,0,3.15-1.58q3.15-12,6.74-23.38t7.61-22.07a3.54,3.54,0,0,1-.08-.43,5.61,5.61,0,0,1,0-.65q0-1.36,1.88-2.66a6.36,6.36,0,0,1,3.61-1.3,6.81,6.81,0,0,1,4.65,2.31q2.36,2.31,2.36,4.21,0,4.84-6.14,18.56a194.36,194.36,0,0,1-15.82,28.24q-.33,1.85-.49,3.34a25.56,25.56,0,0,0-.16,2.75,13.86,13.86,0,0,0,.68,5.16,2.28,2.28,0,0,0,2.2,1.52,4.92,4.92,0,0,0,3.26-1.85,37.88,37.88,0,0,0,4.4-6q1-1.63,2.26-3.94t1.66-2.31a2.76,2.76,0,0,1,1.5.79q1,.79,1,1.33a1,1,0,0,1-.08.33,5.81,5.81,0,0,1-.25.54q-3.15,6.2-4.73,8.64a26.11,26.11,0,0,1-3,4,12.93,12.93,0,0,1-3.34,2.45,8,8,0,0,1-3.45.76q-3,0-5.46-3a10.22,10.22,0,0,1-2.47-6.69q0-1.36.08-2.58T555.56,108.29Zm7.28-9.68A234.89,234.89,0,0,0,574.26,74.1q4.46-11.42,4.46-14.68a1.41,1.41,0,0,0-.27-.92.88.88,0,0,0-.71-.33,3.29,3.29,0,0,0-.71.16l-.27.05q-4.57,11.63-8,21.69T562.85,98.62Z"/><path class="cls-2" d="M588.34,112.1a26.51,26.51,0,0,1-5.93,7.64,9.9,9.9,0,0,1-6.31,2.69,5,5,0,0,1-4-1.88,7.3,7.3,0,0,1-1.55-4.81,27.19,27.19,0,0,1,1.47-8.37A46.6,46.6,0,0,1,576.33,98a29.8,29.8,0,0,1,6-7.88q3.23-2.88,6-2.88a5.14,5.14,0,0,1,2.72.76,9.31,9.31,0,0,1,2.5,2.45A15,15,0,0,1,595.3,90a7.62,7.62,0,0,1,1.25-.11,5.63,5.63,0,0,1,3.21.84,2.43,2.43,0,0,1,1.25,2,13.16,13.16,0,0,1-1.47,3.75q-1.25,2.45-2,4a77.5,77.5,0,0,0-3.26,8.32,20.68,20.68,0,0,0-1.2,5.27,2.17,2.17,0,0,0,.22,1.14.85.85,0,0,0,.76.33q.82,0,2.31-1.66t5.08-6.71q.65-.92,1.52-2.28t1.36-1.47q.6,0,1.2.87a2.87,2.87,0,0,1,.6,1.58q0,.87-1.74,3.89a57.67,57.67,0,0,1-4.29,6.33,16,16,0,0,1-3.56,3.62,6,6,0,0,1-3.34,1.06,4.37,4.37,0,0,1-3.7-1.71,7.9,7.9,0,0,1-1.3-4.87q0-.87,0-1.36A7.31,7.31,0,0,1,588.34,112.1Zm3.53-17.18a1.72,1.72,0,0,0-.43-1.22,1.57,1.57,0,0,0-1.2-.46q-1.85,0-4.24,2.5a32,32,0,0,0-4.78,7,60.57,60.57,0,0,0-3.64,8.13,19.25,19.25,0,0,0-1.36,5.79,2.17,2.17,0,0,0,.25,1.06.63.63,0,0,0,.63.19q1.09,0,3.07-1.9a30,30,0,0,0,4-5,64.83,64.83,0,0,0,5.44-9.81Q591.88,96.12,591.88,94.92Z"/><path class="cls-2" d="M609.16,121.5a5.34,5.34,0,0,1-4.59-2.45,11.49,11.49,0,0,1-1.71-6.69,46.12,46.12,0,0,1,1.63-11.31q1.63-6.36,3.26-8.7a4.35,4.35,0,0,1,2.07-1.63,8,8,0,0,1,3.15-.6,2.39,2.39,0,0,1,1.55.46,1.61,1.61,0,0,1,.57,1.33,12.12,12.12,0,0,1-.76,2.28l-.82,2.17-.71,2q-4.62,12.61-4.62,15.87a3,3,0,0,0,.46,1.85,1.7,1.7,0,0,0,1.44.6q1.41,0,4.08-2.72a38,38,0,0,0,5.27-7.07q.33-.6.92-1.74.92-1.79,1.41-1.79a2,2,0,0,1,1.33.63,2,2,0,0,1,.68,1.49,19.19,19.19,0,0,1-1.9,3.59l-1.47,2.5a31.09,31.09,0,0,1-5.76,7.64A8.3,8.3,0,0,1,609.16,121.5Zm4.24-34.25a4.07,4.07,0,0,1-2.72-.87,3,3,0,0,1-1-2.39,3.89,3.89,0,0,1,2.12-3.34,8.16,8.16,0,0,1,4.4-1.33,3.06,3.06,0,0,1,2.2.71,2.74,2.74,0,0,1,.73,2.07,4.75,4.75,0,0,1-1.77,3.56A5.73,5.73,0,0,1,613.4,87.26Z"/><path class="cls-2" d="M635.91,101.5q-2.83,4.62-6.47,11.58-4.46,8.43-6.69,8.43a4.61,4.61,0,0,1-3.37-1.28,4.68,4.68,0,0,1-1.3-3.51,49.34,49.34,0,0,1,1.77-9.84,90.54,90.54,0,0,1,4.48-13.54,8,8,0,0,1,1.77-2.94,3.49,3.49,0,0,1,2.31-.71,4,4,0,0,1,2.31.73,2.08,2.08,0,0,1,1.06,1.71,8.49,8.49,0,0,1-.71,1.69,74.25,74.25,0,0,0-6.42,20,224.18,224.18,0,0,1,11.28-19.92q4-6,6.17-6a5.19,5.19,0,0,1,3.26,1.2,3.43,3.43,0,0,1,1.52,2.72,2.39,2.39,0,0,1-1.09,1.79,12.1,12.1,0,0,1-1.14.87,15.38,15.38,0,0,0-1,2.36q-.76,2-1.63,4.76-1.14,3.91-1.85,7.53a31,31,0,0,0-.71,5.35,4.38,4.38,0,0,0,.3,1.79.93.93,0,0,0,.84.65q1.74,0,6.63-8.32.87-1.52,1.36-2.34a9.29,9.29,0,0,0,.44-.87q.54-1.25,1.47-1.25a2.55,2.55,0,0,1,1.44.79q.9.79.9,1.33,0,1.09-2.53,5.71a34.87,34.87,0,0,1-5.63,7.77,8.65,8.65,0,0,1-2.23,1.66,5.18,5.18,0,0,1-2.34.57,4.94,4.94,0,0,1-4.32-2.28,11.34,11.34,0,0,1-1.55-6.41,36.54,36.54,0,0,1,.41-4.84Q635,105.52,635.91,101.5Z"/><path class="cls-2" d="M653.79,106.61a22.11,22.11,0,0,0-.57,2.85,23.47,23.47,0,0,0-.19,3.07,10.38,10.38,0,0,0,.84,4.7,2.67,2.67,0,0,0,2.47,1.6q3,0,7.2-3.81a35.47,35.47,0,0,0,7.26-9.62q.27-.49.76-1.47,1.09-2.23,1.68-2.23a1.54,1.54,0,0,1,1.14.63,2.21,2.21,0,0,1,.54,1.5,9.37,9.37,0,0,1-1.3,3.59,36.76,36.76,0,0,1-3.48,5.33,32.47,32.47,0,0,1-7.53,7.42,13.58,13.58,0,0,1-7.47,2.26q-4.19,0-6.28-2.42t-2.09-7.26a39.09,39.09,0,0,1,2.42-12.23,51.76,51.76,0,0,1,6.17-12.61A9.83,9.83,0,0,1,658,85.24a4.94,4.94,0,0,1,2.75-.92,3.93,3.93,0,0,1,1.41.27,9.29,9.29,0,0,1,1.63.87l2,.54q3.26.87,3.26,3.91a22,22,0,0,1-3.86,12.56q-3.86,5.71-8,5.71a3.9,3.9,0,0,1-1.71-.41A5.91,5.91,0,0,1,653.79,106.61Zm3.91-1.9q1.79,0,3.56-4A19.14,19.14,0,0,0,663,92.91a1.84,1.84,0,0,0-.41-1.17,1.19,1.19,0,0,0-1-.52q-1.52,0-3.81,3.89t-2.28,6.28a4.47,4.47,0,0,0,.57,2.42A1.76,1.76,0,0,0,657.71,104.71Z"/><path class="cls-2" d="M675.76,91.44a6,6,0,0,1-1.47-1.2,1.94,1.94,0,0,1-.43-1.25,4.67,4.67,0,0,1,2-3.42,6.44,6.44,0,0,1,4.29-1.69,2.93,2.93,0,0,1,2,.68,2.11,2.11,0,0,1,.79,1.66,7.38,7.38,0,0,1-.14,1.25q-.14.76-.41,1.74L686,90.3a6.37,6.37,0,0,1,.9-1.22,12.25,12.25,0,0,1,1.39-1.28,8.2,8.2,0,0,1,.87-.24,3,3,0,0,1,.6-.08,4.49,4.49,0,0,1,2.61.92,2.52,2.52,0,0,1,1.3,2,2.68,2.68,0,0,1-.54,1.58,9.14,9.14,0,0,1-1.79,1.74,57.11,57.11,0,0,0-5.25,10.93,28.92,28.92,0,0,0-1.77,9.24,4.65,4.65,0,0,0,.43,2.15q.43.84,1.09.84,1.68,0,3.89-2.61a37.18,37.18,0,0,0,4.59-7.5q.27-.54.71-1.47,1.09-2.45,1.85-2.45a2,2,0,0,1,1.36.6,1.76,1.76,0,0,1,.65,1.3,7.91,7.91,0,0,1-.92,2.77,45.67,45.67,0,0,1-2.56,4.57q-3.42,5.55-5.73,7.5a7.63,7.63,0,0,1-5,2,6.18,6.18,0,0,1-4.84-1.93,7.62,7.62,0,0,1-1.74-5.3,32.49,32.49,0,0,1,1.11-7.8,78.68,78.68,0,0,1,3.45-10.19l-3-.92a75.52,75.52,0,0,1-4.78,11.2q-2,3.37-3.59,3.37a1.39,1.39,0,0,1-1.06-.43,1.68,1.68,0,0,1-.41-1.2,10.23,10.23,0,0,1,.76-1.85A86.45,86.45,0,0,0,675.76,91.44Z"/><path class="cls-2" d="M741,113.84q8.92-18.54,18-34.06a240.88,240.88,0,0,1,16.55-25.25q.38-.54,1.09-1.47,2.55-3.48,5.16-3.48a7,7,0,0,1,2.26.27q.73.27.73.87,0,1.63-3,5.49-2.07,2.66-3.21,4.4-6.41,9.68-15.44,25.47T744.52,120.2a10.45,10.45,0,0,1-3.4,1.58,15.35,15.35,0,0,1-4.38.65,3.57,3.57,0,0,1-3.62-2.23q-1-2.23-1-10.49v-5.44a191.42,191.42,0,0,1,1.2-20.93q1.19-10.87,3.91-25a6.28,6.28,0,0,1,1.3-2.91,2.82,2.82,0,0,1,2.17-1,8.16,8.16,0,0,1,3.81,1.52Q747,57.57,747,58.93a30.68,30.68,0,0,1-1.09,4.95,162.94,162.94,0,0,0-5.27,40.39q0,2.5.08,4.87T741,113.84Z"/><path class="cls-2" d="M770.83,121.5a5.34,5.34,0,0,1-4.59-2.45,11.49,11.49,0,0,1-1.71-6.69,46.12,46.12,0,0,1,1.63-11.31q1.63-6.36,3.26-8.7a4.35,4.35,0,0,1,2.07-1.63,8,8,0,0,1,3.15-.6,2.39,2.39,0,0,1,1.55.46,1.61,1.61,0,0,1,.57,1.33,12.12,12.12,0,0,1-.76,2.28l-.82,2.17-.71,2q-4.62,12.61-4.62,15.87a3,3,0,0,0,.46,1.85,1.7,1.7,0,0,0,1.44.6q1.41,0,4.08-2.72a38,38,0,0,0,5.27-7.07q.33-.6.92-1.74.92-1.79,1.41-1.79a2,2,0,0,1,1.33.63,2,2,0,0,1,.68,1.49,19.19,19.19,0,0,1-1.9,3.59l-1.47,2.5a31.09,31.09,0,0,1-5.76,7.64A8.3,8.3,0,0,1,770.83,121.5Zm4.24-34.25a4.07,4.07,0,0,1-2.72-.87,3,3,0,0,1-1-2.39,3.89,3.89,0,0,1,2.12-3.34,8.16,8.16,0,0,1,4.4-1.33A3.06,3.06,0,0,1,780,80a2.74,2.74,0,0,1,.73,2.07A4.75,4.75,0,0,1,779,85.65,5.73,5.73,0,0,1,775.07,87.26Z"/><path class="cls-2" d="M795.89,114.76a30,30,0,0,1-5.27,7.91q-2.88,3-5.22,3a5.34,5.34,0,0,1-4.46-2.69,11.49,11.49,0,0,1-1.85-6.66,28.11,28.11,0,0,1,3-11.66A41.6,41.6,0,0,1,790,93.13a13.15,13.15,0,0,1,2.45-1.93,4.25,4.25,0,0,1,2.12-.62,6,6,0,0,1,2.75.79,16.08,16.08,0,0,1,3.18,2.31q1.9-5.38,4.78-14,5.38-15.93,7.77-15.93a5.48,5.48,0,0,1,3,.73,2.13,2.13,0,0,1,1.17,1.82q0,1.09-2,5.33-1.41,3-2.23,4.89a198.14,198.14,0,0,0-8.34,22.72q-3.13,10.66-3.13,15.22a3.65,3.65,0,0,0,.3,1.66.92.92,0,0,0,.84.57q.92,0,2.31-1.5a46.46,46.46,0,0,0,4-5.46,20.25,20.25,0,0,0,1.2-2.12Q811,106,811.6,106a1.09,1.09,0,0,1,.76.3.9.9,0,0,1,.33.68,6.78,6.78,0,0,1-.65,2.2q-.65,1.55-1.9,3.94a27.21,27.21,0,0,1-4.51,6.69,6.26,6.26,0,0,1-4.4,2A4.44,4.44,0,0,1,797.5,120,9.46,9.46,0,0,1,795.89,114.76Zm3.75-18.43a4.5,4.5,0,0,0-1.14-1.09,2.19,2.19,0,0,0-1.14-.33,4.6,4.6,0,0,0-3,1.74,38.69,38.69,0,0,0-4.19,5.6,40.6,40.6,0,0,0-4.21,8.54,23.33,23.33,0,0,0-1.55,7.5A2.79,2.79,0,0,0,785,120a1.55,1.55,0,0,0,1.25.73q2.34,0,6.17-6.79A94.43,94.43,0,0,0,799.65,96.33Z"/><path class="cls-2" d="M815.25,106.61a22.11,22.11,0,0,0-.57,2.85,23.47,23.47,0,0,0-.19,3.07,10.38,10.38,0,0,0,.84,4.7,2.67,2.67,0,0,0,2.47,1.6q3,0,7.2-3.81a35.47,35.47,0,0,0,7.26-9.62q.27-.49.76-1.47,1.09-2.23,1.68-2.23a1.54,1.54,0,0,1,1.14.63,2.21,2.21,0,0,1,.54,1.5,9.37,9.37,0,0,1-1.3,3.59,36.76,36.76,0,0,1-3.48,5.33,32.47,32.47,0,0,1-7.53,7.42,13.58,13.58,0,0,1-7.47,2.26q-4.19,0-6.28-2.42t-2.09-7.26a39.09,39.09,0,0,1,2.42-12.23,51.76,51.76,0,0,1,6.17-12.61,9.83,9.83,0,0,1,2.58-2.66,4.94,4.94,0,0,1,2.75-.92,3.93,3.93,0,0,1,1.41.27,9.29,9.29,0,0,1,1.63.87l2,.54q3.26.87,3.26,3.91a22,22,0,0,1-3.86,12.56q-3.86,5.71-8,5.71a3.9,3.9,0,0,1-1.71-.41A5.91,5.91,0,0,1,815.25,106.61Zm3.91-1.9q1.79,0,3.56-4a19.14,19.14,0,0,0,1.77-7.83,1.84,1.84,0,0,0-.41-1.17,1.19,1.19,0,0,0-1-.52q-1.52,0-3.81,3.89T817,101.39a4.47,4.47,0,0,0,.57,2.42A1.76,1.76,0,0,0,819.16,104.71Z"/><path class="cls-2" d="M846.83,92.58l.22-.05a11.43,11.43,0,0,1,1.74-.16,4.36,4.36,0,0,1,3.81,2.39,12.4,12.4,0,0,1,1.52,6.36,10.88,10.88,0,0,0,5.27-3.86q2.39-3,3.1-3a2,2,0,0,1,1.3.41,1.37,1.37,0,0,1,.49,1.11,3.52,3.52,0,0,1-.49,1.74,10.29,10.29,0,0,1-1.52,2,20.13,20.13,0,0,1-4.24,4.65,10.72,10.72,0,0,1-4.67,2.15q-2.39,8.48-6.2,12.91t-8.75,4.43a7.59,7.59,0,0,1-5.9-2.42,9.44,9.44,0,0,1-2.2-6.6,27.42,27.42,0,0,1,1.79-8.78A46.83,46.83,0,0,1,836.88,96a16.21,16.21,0,0,1,3.34-4,5.33,5.33,0,0,1,3.34-1.33,3.77,3.77,0,0,1,1.93.49A3.47,3.47,0,0,1,846.83,92.58ZM836.77,115.2a4.66,4.66,0,0,0,.57,2.58,2,2,0,0,0,1.77.84q2.88,0,6.22-6.36A26.28,26.28,0,0,0,848.68,100a4.09,4.09,0,0,0-.54-2.28,1.68,1.68,0,0,0-1.47-.82q-2.72,0-6.31,6.28A24.23,24.23,0,0,0,836.77,115.2Z"/><path class="cls-2" d="M865.59,121.5a6.47,6.47,0,0,1-3.7-.9,2.89,2.89,0,0,1-1.3-2.53,7.4,7.4,0,0,1,2.61-5.38q2.61-2.5,5.06-2.5a2.82,2.82,0,0,1,2.42,1.14,5.42,5.42,0,0,1,.84,3.26,7.21,7.21,0,0,1-1.77,4.84A5.32,5.32,0,0,1,865.59,121.5Zm8.26-19.62a5.47,5.47,0,0,1-.9,3.32,3.67,3.67,0,0,1-2.8.87,4.81,4.81,0,0,1-2.26-.41,1.36,1.36,0,0,1-.73-1.28q0-4.13,3.51-18.4a261.51,261.51,0,0,1,9.05-29.11l.22-.54q3.26-8.59,6.9-8.59a4.52,4.52,0,0,1,3.07,1.11,3.13,3.13,0,0,1,1.28,2.31,2.32,2.32,0,0,1-.27,1,15.64,15.64,0,0,1-1,1.71q-2.07,5.66-6.42,18.67T873.85,101.88Z"/><path class="cls-3" d="M133.41,118.78h-5.94V107.91h-.19c-2,7.89-8.27,12-16,12C90.6,119.89,89,99.28,89,82.93s2.88-35.75,23-35.75c13.28,0,20.89,8.64,20.71,21.64H125c-.09-8.54-3.71-14.49-12.54-14.67C97.2,53.87,97,71.32,97,83.21c0,10.59-.56,29.07,13.19,29.72,14.3.65,15.6-12.44,15.51-23.49H110.2v-7h23.22Z"/><path class="cls-3" d="M175.2,101c.46,10.12-4.74,18.57-15.6,18.57-9.75,0-16.72-6.5-16.72-27.3,0-10.87,2.88-27.12,16.53-27.12,16.72,0,15.79,15.79,16.16,27.86H150.5c.19,7-1,20.34,9.29,20.34,7.06,0,9-6.5,8.54-12.35ZM168,87c-.28-6,.09-15.6-8.45-15.6s-8.73,9.47-9,15.6Z"/><path class="cls-3" d="M193.49,66.59h8.64v6.22h-8.54V108c0,1.76-.65,4,3.44,4h4.92v6.22h-8.08c-4.37.09-7.62-.65-7.62-8.45v-37H179.1V66.59h7.15v-14h7.24Z"/><path class="cls-3" d="M232.22,118.22V48.57h36.87V58.79H245.22V76.43H267.6V86.65H245.22v31.57Z"/><path class="cls-3" d="M291,88.23v30H278V48.57h24.61c11.24,0,19.78,3.9,19.78,16.72,0,7.61-2,15.6-10.68,16.81v.19c7.71,1,10,5.94,10,12.63,0,2.88-.37,20,2.79,22v1.3h-14.3c-1.58-4.46-1.3-13-1.39-17.64-.09-4.27,0-10.12-4.46-11.42-3.53-1-7.34-.93-11.05-.93ZM291,78h10.22c4.27-.28,7.61-3.06,7.61-10,0-7.8-3.25-9.1-8.17-9.19H291Z"/><path class="cls-3" d="M334.55,118.22V48.57h36.59V58.79H347.55V76.34h21.73V86.55H347.55V108h23.59v10.22Z"/><path class="cls-3" d="M381,118.22V48.57h36.59V58.79H394V76.34h21.73V86.55H394V108h23.59v10.22Z"/><rect class="cls-4" x="941.41" y="38.81" width="285.55" height="95.65" rx="8.44" ry="8.44"/><rect class="cls-5" x="941.41" y="28.97" width="285.55" height="95.65" rx="8.44" ry="8.44"/><path class="cls-6" d="M1007.9,91.88v-27H1016c2.16,0,4.29.14,5.73,2a7.25,7.25,0,0,1,1.33,4.87c0,2.34-.5,4.65-3.24,5.66v.07c2.85.4,3.93,2.78,3.93,6.27a12.82,12.82,0,0,1-.36,3.32c-1.08,3.42-3,4.87-6.63,4.87Zm6-16.11c1.23,0,2.81.07,3.6-.94a5.16,5.16,0,0,0,.54-2.92c0-2-.43-3-2.74-3.1h-2.34v7Zm.14,12.15a7.62,7.62,0,0,0,3-.29c1.37-.61,1.55-2.38,1.55-3.75,0-2.92-.58-4.15-3.71-4.15h-1.95v8.18Z"/><path class="cls-6" d="M1027.51,82.44c0-7,.11-11.42,7.17-11.42s7,4.47,7,11.42-1,10.09-7,10C1028.51,92.53,1027.47,89.5,1027.51,82.44Zm4.69,2.81c0,2.49.22,3.57,2.49,3.57s2.34-1.08,2.34-3.57V78.47c0-1.91,0-3.86-2.34-3.86s-2.49,1.95-2.49,3.86Z"/><path class="cls-6" d="M1045.52,82.44c0-7,.11-11.42,7.17-11.42s7,4.47,7,11.42-1,10.09-7,10C1046.53,92.53,1045.49,89.5,1045.52,82.44Zm4.69,2.81c0,2.49.22,3.57,2.49,3.57s2.34-1.08,2.34-3.57V78.47c0-1.91,0-3.86-2.34-3.86s-2.49,1.95-2.49,3.86Z"/><path class="cls-6" d="M1063.36,91.88v-27H1068V77.07c0,.87,0,1.69-.07,2.56h.07l4.43-8.07h5.12l-5.12,8.18,5,12.15h-5.23l-2.92-8.29L1068,85.68v6.2Z"/><path class="cls-6" d="M1101.16,64.85h5v27h-5.26L1097,82.26a90.83,90.83,0,0,1-3.6-10.74h-.07c.18,2.23.4,5,.54,7.71s.25,5.41.25,7.57v5.08h-5v-27h5.23l3.93,9.84a90.6,90.6,0,0,1,3.6,10.74h.07c-.18-2.45-.36-5.08-.5-7.68s-.25-5.19-.25-7.6Z"/><path class="cls-6" d="M1110.57,82.44c0-7,.11-11.42,7.17-11.42s7,4.47,7,11.42-1,10.09-7,10C1111.58,92.53,1110.53,89.5,1110.57,82.44Zm4.69,2.81c0,2.49.22,3.57,2.49,3.57s2.34-1.08,2.34-3.57V78.47c0-1.91,0-3.86-2.34-3.86s-2.49,1.95-2.49,3.86Z"/><path class="cls-6" d="M1142.68,84a35,35,0,0,1,.47,4.36h.11c0-.9.29-3.89.4-4.5l1.55-12.33h4.72l-4.11,20.33h-5.12l-1.55-8.22a48.26,48.26,0,0,1-.61-5.12h-.14a43.08,43.08,0,0,1-.47,4.83l-1.44,8.51h-5.23l-4.18-20.33H1132l1.66,12.4c.11.61.4,3.6.4,4.51h.07a35,35,0,0,1,.47-4.36l1.95-12.54h3.86Z"/><path class="cls-6" d="M1154.35,64.85H1159v7.57a45.31,45.31,0,0,1-.22,6.24c-.18,2.09-.4,4.14-.54,6.23h-3.06c-.11-2.09-.36-4.14-.54-6.23a51.87,51.87,0,0,1-.32-6.24Zm0,27V87.12h4.69v4.76Z"/></svg>