<?xml version="1.0" encoding="utf-8"?>
<!-- Generator: Adobe Illustrator 21.0.0, SVG Export Plug-In . SVG Version: 6.00 Build 0)  -->
<svg version="1.1" id="Layer_1" xmlns="http://www.w3.org/2000/svg" xmlns:xlink="http://www.w3.org/1999/xlink" x="0px" y="0px"
	 viewBox="0 0 1309.8 313.6" style="enable-background:new 0 0 1309.8 313.6;" xml:space="preserve">
<style type="text/css">
	.st0{fill:#E6EFEF;}
	.st1{fill:#FE830C;}
	.st2{fill:#FEB914;}
	.st3{fill:#422004;}
	.st4{fill:#504F59;}
	.st5{fill:#201F24;}
</style>
<path class="st0" d="M1309.8,313.6H0V19.5C0,8.7,8.7,0,19.5,0c0,0,0,0,0,0h1270.9c10.7,0,19.4,8.7,19.4,19.5V313.6z"/>
<g>
	<g>
		<path class="st1" d="M641.1,63.6h574.3c10,0,18,8.1,18,18V250c0,10-8.1,18-18,18H641.1c-10,0-18-8.1-18-18V81.6
			C623,71.7,631.1,63.6,641.1,63.6z"/>
		<path class="st2" d="M641.1,42.6h574.3c10,0,18,8.1,18,18V229c0,10-8.1,18-18,18H641.1c-10,0-18-8.1-18-18V60.6
			C623,50.6,631.1,42.6,641.1,42.6z"/>
		<path class="st3" d="M765.2,177v-57.7h17.3c4.6,0,9.2,0.3,12.2,4.3c2.2,3,3.2,6.7,2.8,10.4c0,5-1.1,9.9-6.9,12.1v0.1
			c6.1,0.9,8.4,5.9,8.4,13.4c0.1,2.4-0.2,4.8-0.8,7.1c-2.3,7.3-6.4,10.4-14.2,10.4L765.2,177z M778,142.6c2.6,0,6,0.1,7.7-2
			c1-1.9,1.4-4.1,1.2-6.2c0-4.3-0.9-6.4-5.9-6.6h-5v15L778,142.6z M778.3,168.6c2.2,0.2,4.3,0,6.4-0.6c2.9-1.3,3.3-5.1,3.3-8
			c0-6.2-1.2-8.9-7.9-8.9h-4.2v17.5L778.3,168.6z"/>
		<path class="st3" d="M807.1,156.9c0-15,0.2-24.4,15.3-24.4s15,9.6,15,24.4c0,14.9-2.1,21.6-15,21.4
			C809.2,178.4,807,172,807.1,156.9z M817.1,162.9c0,5.3,0.5,7.6,5.3,7.6s5-2.3,5-7.6v-14.5c0-4.1,0-8.3-5-8.3c-5,0-5.3,4.2-5.3,8.3
			V162.9z"/>
		<path class="st3" d="M845.6,156.9c0-15,0.2-24.4,15.3-24.4s15,9.6,15,24.4c0,14.9-2.1,21.6-15,21.4
			C847.7,178.4,845.5,172,845.6,156.9z M855.6,162.9c0,5.3,0.5,7.6,5.3,7.6s5-2.3,5-7.6v-14.5c0-4.1,0-8.3-5-8.3s-5.3,4.2-5.3,8.3
			V162.9z"/>
		<path class="st3" d="M883.7,177v-57.7h9.9v26.1c0,1.9,0,3.6-0.1,5.5h0.1l9.5-17.3H914l-10.9,17.5l10.7,26h-11.2l-6.2-17.7
			l-2.7,4.4V177H883.7z"/>
		<path class="st3" d="M964.5,119.3h10.7V177H964l-8.3-20.5c-3-7.5-5.6-15.2-7.7-23h-0.1c0.4,4.8,0.9,10.7,1.2,16.5
			c0.3,5.8,0.5,11.6,0.5,16.2V177h-10.7v-57.7H950l8.4,21c3,7.5,5.6,15.2,7.7,23h0.1c-0.4-5.2-0.8-10.9-1.1-16.4s-0.5-11.1-0.5-16.2
			L964.5,119.3z"/>
		<path class="st3" d="M984.6,156.9c0-15,0.2-24.4,15.3-24.4s15,9.6,15,24.4c0,14.9-2.1,21.6-15,21.4
			C986.8,178.4,984.6,172,984.6,156.9z M994.7,162.9c0,5.3,0.5,7.6,5.3,7.6s5-2.3,5-7.6v-14.5c0-4.1,0-8.3-5-8.3
			c-5,0-5.3,4.2-5.3,8.3V162.9z"/>
		<path class="st3" d="M1053.3,160.2c0.5,3.1,0.9,6.2,1,9.3h0.2c0-1.9,0.6-8.3,0.9-9.6l3.3-26.4h10.1L1060,177H1049l-3.3-17.6
			c-0.6-3.6-1.1-7.3-1.3-10.9h-0.3c-0.1,3.5-0.5,6.9-1,10.3L1040,177h-11.2l-8.9-43.5h10.5l3.5,26.5c0.2,1.3,0.9,7.7,0.9,9.6h0.1
			c0.1-3.1,0.5-6.2,1-9.3l4.2-26.8h8.3L1053.3,160.2z"/>
		<path class="st3" d="M1078.2,119.3h9.9v16.2c0.2,4.5,0,8.9-0.5,13.3c-0.4,4.5-0.9,8.9-1.2,13.3h-6.5c-0.2-4.5-0.8-8.9-1.2-13.3
			c-0.5-4.4-0.7-8.9-0.7-13.3L1078.2,119.3z M1078.2,177v-10.1h10V177L1078.2,177z"/>
	</g>
	<g>
		<path class="st4" d="M96.7,224.4c-1.1,3.6-2,6.7-2.8,9.2c-0.7,2.5-1.4,4.7-1.9,6.7c8.1-1,14.4-1.8,18.7-2.2c4.4-0.5,7.4-0.7,9-0.7
			c1.4-0.1,2.8,0.1,4.1,0.5c0.9,0.3,1.4,0.9,1.4,1.6c0,1.5-1.8,2.5-5.4,3l-1.1,0.2c-4.8,0.8-10.5,2-17.1,3.8
			C95,248.1,90.8,249,89,249c-1.5,0-2.9-0.7-4-1.8c-1.1-1.1-1.7-2.6-1.7-4.1c0-1,1.2-6,3.7-15.2c2.5-9.2,6.5-23.8,12.1-43.8
			c0.8-3,1.7-4.8,2.7-5.3c1-0.5,3.9-0.8,8.8-0.8c2.5,0,6.5,0.3,12.2,1c5.7,0.6,10,1.1,13.1,1.3c0.5,0,1,0.1,1.4,0.4
			c0.3,0.2,0.5,0.5,0.5,0.9c0,2-4.6,3.3-13.7,3.9c-6.6,0.4-12.1,0.9-16.5,1.5c-1.4,3.9-2.8,8.4-4.2,13.3c-1.5,4.9-3,10.5-4.7,16.7
			c4.8-0.5,9-0.9,12.7-1.1c3.6-0.2,6.8-0.3,9.5-0.3c1.5-0.1,2.9,0.1,4.3,0.6c0.8,0.3,1.4,1,1.4,1.9c0.1,0.8-0.2,1.7-0.6,2.4
			c-0.5,0.6-1.2,0.9-2,0.9c-3,0.2-6.7,0.5-11,1C108.5,222.6,103.1,223.3,96.7,224.4z"/>
		<path class="st4" d="M140,241.2c-0.4,0.5-1,1.3-1.8,2.3c-2.8,3.5-5,6.3-6.5,8.4c-0.3,0.1-0.5,0.2-0.8,0.3
			c-0.3,0.1-0.5,0.1-0.8,0.1c-0.7,0-1.4-0.3-2-0.7c-0.5-0.3-0.9-0.9-0.9-1.5c0-0.8,0.7-2.3,2.2-4.4s4.2-5.6,8.3-10.5
			c-0.7-2.6-1.3-4.9-1.7-6.9c-0.3-1.4-0.5-2.9-0.6-4.4c0-1.9,0.8-3.6,2.2-4.8c1.5-1.4,2.9-2.1,4.1-2.1c1.1,0,1.8,1.8,2.2,5.3
			c0.2,2.1,0.4,3.8,0.6,5.1c5.8-6.4,9.7-10.5,11.8-12.3c2.1-1.8,3.7-2.7,4.8-2.7c0.7,0,1.4,0.2,1.9,0.7c0.5,0.3,0.8,0.8,0.8,1.4
			c-0.1,0.6-0.4,1.2-0.9,1.7c-0.9,0.8-1.8,1.5-2.8,2.2c-2.1,1.9-4.1,4-5.9,6.2c-2.3,2.7-5.1,6.1-8.2,10.1c0.4,2.4,1.1,4.8,2.2,7.1
			c0.9,1.8,1.7,2.7,2.5,2.7c0.6,0,1.5-0.9,3-2.7c1.6-2.1,3.1-4.3,4.3-6.6c0.4-0.7,0.8-1.5,1.4-2.7c0.9-1.9,1.6-2.8,2-2.8
			c0.7,0.1,1.3,0.5,1.8,1c0.8,0.7,1.1,1.2,1.1,1.6c0,0.5-0.6,2.1-1.9,4.7c-1.3,2.5-2.7,4.9-4.4,7.2c-1.1,1.6-2.5,2.9-4.1,3.9
			c-1.4,0.9-3,1.3-4.7,1.3c-1.9,0.1-3.7-0.5-5.1-1.7C142.6,246.3,141.3,244.2,140,241.2z"/>
		<path class="st4" d="M168.1,221.5c1.4-2.2,3-4.2,4.8-6c1.8-2.1,5-2.4,7.1-0.6c0.5,0.5,1,1,1.3,1.7c1.3,2.2,2,4.8,1.9,7.4
			c0.1,6-1.6,11.9-4.7,17c-3.1,5.1-6.5,7.7-10.1,7.7c-1.4,0-2.7-0.4-3.9-1.1c-1.1-0.6-2-1.6-2.5-2.8c-1.6,6.9-2.8,12.7-3.7,17.3
			c-0.7,2.9-1.1,5.8-1.4,8.7c0,0.5,0.2,1,0.5,1.3c0.2,0.2,0.4,0.5,0.5,0.7c0,0.6-0.3,1.1-0.7,1.5c-0.5,0.4-1,0.6-1.7,0.6
			c-1.1,0.1-2.3-0.2-3.2-0.9c-0.8-0.7-1.2-1.6-1.1-2.7c0-1.9,0.9-7,2.6-15.3c1.8-8.3,4-17.6,6.7-27.8c0.4-1.3,0.9-3.2,1.5-5.5
			c2.9-11,5.3-16.5,7-16.5c0.7,0,1.4,0.2,1.9,0.7c0.5,0.4,0.9,1,0.9,1.6c-0.3,1.7-0.8,3.4-1.4,5.1
			C169.5,216.5,168.7,219.1,168.1,221.5z M163.7,240.6c0.1,1,0.5,1.9,1.2,2.6c0.7,0.7,1.5,1,2.5,1c1.5,0,2.9-0.7,3.8-1.9
			c1.5-1.9,2.7-4,3.5-6.3c0.9-2.2,1.7-4.4,2.2-6.7c0.5-1.9,0.7-3.9,0.8-5.8c0-0.9-0.1-1.8-0.5-2.6c-0.2-0.5-0.7-0.9-1.3-0.9
			c-1.3,0-3.3,2-5.8,6C167.4,230.6,165.2,235.5,163.7,240.6L163.7,240.6z"/>
		<path class="st4" d="M190.7,234.8c-0.3,0.1-0.6,0.1-0.7,0.1l-0.5,0.1c-0.7,0-1.3-0.4-1.7-1c-0.4-0.6-0.7-1.4-0.7-2.2
			c0-0.6,0.6-0.9,1.9-1.1c1.2-0.2,2.3-0.7,3.2-1.6c2.1-8.2,4.4-16.1,6.9-23.8c2.4-7.7,5-15.2,7.7-22.5c0-0.1-0.1-0.3-0.1-0.4
			c0-0.2,0-0.4,0-0.7c0-0.9,0.6-1.8,1.9-2.7c1.1-0.8,2.3-1.3,3.7-1.3c1.5,0,3.1,0.8,4.7,2.4c1.6,1.6,2.4,3,2.4,4.3
			c0,3.3-2.1,9.6-6.3,18.9c-4.6,10-10,19.6-16.1,28.7c-0.2,1.3-0.4,2.4-0.5,3.4c-0.1,0.9-0.2,1.9-0.2,2.8c-0.1,1.8,0.1,3.6,0.7,5.3
			c0.3,0.9,1.2,1.6,2.2,1.5c1,0,2.1-0.6,3.3-1.9c1.7-1.9,3.2-3.9,4.5-6.1c0.7-1.1,1.5-2.4,2.3-4c0.8-1.6,1.4-2.4,1.7-2.4
			c0.6,0.1,1.1,0.4,1.5,0.8c0.6,0.5,1,1,1,1.4c0,0.1,0,0.2-0.1,0.3c-0.1,0.2-0.2,0.4-0.3,0.5c-2.1,4.2-3.7,7.1-4.8,8.8
			c-0.9,1.4-1.9,2.8-3.1,4c-1,1-2.1,1.8-3.4,2.5c-1.1,0.5-2.3,0.8-3.5,0.8c-2,0-3.9-1-5.6-3c-1.6-1.9-2.5-4.3-2.5-6.8
			c0-0.9,0-1.8,0.1-2.6C190.5,236.4,190.6,235.6,190.7,234.8z M198.1,225c4.3-8.1,8.2-16.4,11.6-25c3-7.7,4.5-12.7,4.5-14.9
			c0-0.3-0.1-0.6-0.3-0.9c-0.2-0.2-0.4-0.3-0.7-0.3c-0.2,0-0.5,0.1-0.7,0.2l-0.3,0.1c-3.1,7.9-5.8,15.3-8.2,22.1
			C201.7,212.9,199.7,219.2,198.1,225L198.1,225z"/>
		<path class="st4" d="M224.1,238.7c-1.5,2.9-3.6,5.6-6,7.8c-1.7,1.6-4,2.6-6.4,2.7c-1.6,0-3.1-0.7-4.1-1.9
			c-1.1-1.4-1.6-3.1-1.6-4.9c0-2.9,0.6-5.8,1.5-8.5c1.1-3.3,2.6-6.5,4.4-9.5c1.6-3,3.6-5.7,6.1-8c2.2-2,4.2-2.9,6.1-2.9
			c1,0,1.9,0.3,2.8,0.8c1,0.7,1.9,1.5,2.5,2.5c0.6-0.2,1.2-0.3,1.8-0.4c0.4-0.1,0.8-0.1,1.3-0.1c1.2,0,2.3,0.3,3.3,0.9
			c0.8,0.4,1.2,1.2,1.3,2.1c-0.3,1.3-0.8,2.6-1.5,3.8c-0.8,1.7-1.5,3-2,4.1c-1.3,2.8-2.4,5.6-3.3,8.5c-0.6,1.7-1.1,3.6-1.2,5.4
			c0,0.4,0,0.8,0.2,1.2c0.2,0.2,0.5,0.4,0.8,0.3c0.6,0,1.3-0.6,2.4-1.7c1-1.1,2.7-3.4,5.2-6.8c0.4-0.6,1-1.4,1.5-2.3
			c0.6-0.9,1-1.4,1.4-1.5c0.4,0,0.8,0.3,1.2,0.9c0.4,0.5,0.6,1,0.6,1.6c0,0.6-0.6,1.9-1.8,4c-1.3,2.2-2.8,4.4-4.4,6.4
			c-1,1.4-2.2,2.7-3.6,3.7c-1,0.7-2.2,1.1-3.4,1.1c-1.5,0.1-2.9-0.6-3.8-1.7c-1-1.5-1.4-3.2-1.3-4.9c0-0.6,0-1.1,0-1.4
			C224,239.3,224,239,224.1,238.7z M227.7,221.2c0-0.5-0.1-0.9-0.4-1.2c-0.3-0.3-0.8-0.5-1.2-0.5c-1.3,0-2.7,0.8-4.3,2.5
			c-1.9,2.1-3.6,4.5-4.9,7.1c-1.4,2.7-2.7,5.4-3.7,8.3c-0.8,1.9-1.2,3.9-1.4,5.9c0,0.4,0.1,0.7,0.3,1.1c0.2,0.2,0.4,0.2,0.6,0.2
			c0.7,0,1.8-0.6,3.1-1.9c1.6-1.5,2.9-3.3,4.1-5.1c2.1-3.2,4-6.5,5.5-10C227,224.1,227.7,222,227.7,221.2z"/>
		<path class="st4" d="M245.3,248.2c-1.9,0-3.7-0.9-4.7-2.5c-1.3-2-1.9-4.4-1.7-6.8c0.1-3.9,0.6-7.8,1.7-11.5
			c1.1-4.3,2.2-7.3,3.3-8.8c0.5-0.8,1.2-1.3,2.1-1.7c1-0.4,2.1-0.6,3.2-0.6c0.6,0,1.1,0.1,1.6,0.5c0.4,0.3,0.6,0.8,0.6,1.4
			c-0.2,0.8-0.4,1.6-0.8,2.3l-0.8,2.2l-0.7,2c-3.1,8.6-4.7,13.9-4.7,16.1c-0.1,0.7,0.1,1.3,0.5,1.9c0.4,0.4,0.9,0.7,1.5,0.6
			c1,0,2.3-0.9,4.1-2.8c2.1-2.2,3.9-4.6,5.4-7.2c0.2-0.4,0.5-1,0.9-1.8c0.6-1.2,1.1-1.8,1.4-1.8c0.5,0,1,0.3,1.4,0.6
			c0.4,0.4,0.7,0.9,0.7,1.5c-0.5,1.3-1.2,2.5-1.9,3.6l-1.5,2.5c-1.5,2.9-3.5,5.5-5.9,7.8C249.3,247.4,247.3,248.2,245.3,248.2z
			 M249.6,213.4c-1,0-2-0.3-2.8-0.9c-0.7-0.6-1.1-1.5-1.1-2.5c0-1.4,0.9-2.7,2.2-3.4c1.3-0.9,2.9-1.3,4.5-1.4
			c0.8-0.1,1.6,0.2,2.2,0.7c0.5,0.6,0.8,1.3,0.7,2.1c0,1.4-0.7,2.7-1.8,3.6C252.5,212.8,251.1,213.4,249.6,213.4L249.6,213.4z"/>
		<path class="st4" d="M272.5,227.9c-1.9,3.1-4.1,7.1-6.6,11.8c-3,5.7-5.3,8.6-6.8,8.6c-1.3,0.1-2.5-0.4-3.5-1.3
			c-0.9-1-1.4-2.3-1.3-3.6c0-1.8,0.6-5.2,1.8-10c1.2-4.7,2.7-9.3,4.6-13.8c0.4-1.1,1-2.1,1.8-3c0.7-0.5,1.5-0.8,2.4-0.7
			c0.8,0,1.7,0.3,2.4,0.7c0.6,0.4,1,1,1.1,1.7c-0.2,0.6-0.4,1.2-0.7,1.7c-3.1,6.4-5.3,13.3-6.5,20.4c3.5-6.9,7.3-13.7,11.5-20.3
			c2.7-4.1,4.8-6.1,6.3-6.1c1.2,0,2.4,0.4,3.3,1.2c0.9,0.6,1.5,1.6,1.5,2.8c-0.1,0.7-0.5,1.4-1.1,1.8c-0.4,0.3-0.8,0.6-1.2,0.9
			c-0.4,0.8-0.8,1.6-1.1,2.4c-0.5,1.3-1.1,3-1.7,4.8c-0.8,2.7-1.4,5.2-1.9,7.7c-0.4,1.8-0.6,3.6-0.7,5.4c0,0.6,0.1,1.2,0.3,1.8
			c0.1,0.4,0.5,0.7,0.9,0.7c1.2,0,3.5-2.8,6.7-8.5c0.6-1,1.1-1.8,1.4-2.4c0.1-0.2,0.3-0.5,0.4-0.9c0.4-0.8,0.9-1.3,1.5-1.3
			c0.6,0.1,1.1,0.4,1.5,0.8c0.6,0.5,0.9,1,0.9,1.4c0,0.7-0.9,2.7-2.6,5.8c-1.5,2.9-3.5,5.6-5.7,7.9c-0.7,0.7-1.4,1.2-2.3,1.7
			c-0.7,0.4-1.6,0.6-2.4,0.6c-1.8,0.1-3.4-0.8-4.4-2.3c-1.2-2-1.7-4.2-1.6-6.5c0-1.6,0.2-3.3,0.4-4.9
			C271.5,233,271.9,230.6,272.5,227.9z"/>
		<path class="st4" d="M290.7,233.1c-0.3,1-0.4,1.9-0.6,2.9c-0.1,1-0.2,2.1-0.2,3.1c-0.1,1.6,0.2,3.3,0.9,4.8c0.4,1,1.4,1.6,2.5,1.6
			c2.1,0,4.5-1.3,7.3-3.9c3-2.8,5.5-6.1,7.4-9.8c0.2-0.3,0.4-0.8,0.8-1.5c0.7-1.5,1.3-2.3,1.7-2.3c0.5,0,0.9,0.3,1.2,0.6
			c0.4,0.4,0.6,1,0.5,1.5c-0.2,1.3-0.6,2.5-1.3,3.6c-1,1.9-2.2,3.7-3.5,5.4c-2.1,2.9-4.7,5.5-7.7,7.6c-2.3,1.5-4.9,2.3-7.6,2.3
			c-2.8,0-5-0.8-6.4-2.5c-1.4-1.6-2.1-4.1-2.1-7.4c0.1-4.3,1-8.5,2.5-12.4c1.5-4.5,3.6-8.9,6.3-12.8c0.7-1.1,1.6-2,2.6-2.7
			c0.8-0.6,1.8-0.9,2.8-0.9c0.5,0,1,0.1,1.4,0.3c0.6,0.2,1.1,0.5,1.7,0.9l2,0.5c2.2,0.6,3.3,1.9,3.3,4c0,4.6-1.3,9-3.9,12.8
			c-2.6,3.9-5.3,5.8-8.1,5.8c-0.6,0-1.2-0.1-1.7-0.4C291.8,234,291.2,233.6,290.7,233.1z M294.7,231.2c1.2,0,2.4-1.3,3.6-4
			c1.2-2.5,1.8-5.2,1.8-8c0-0.4-0.1-0.9-0.4-1.2c-0.2-0.3-0.6-0.5-1-0.5c-1,0-2.3,1.3-3.9,4c-1.5,2.6-2.3,4.8-2.3,6.4
			c0,0.9,0.2,1.7,0.6,2.5C293.4,230.8,294,231.2,294.7,231.2L294.7,231.2z"/>
		<path class="st4" d="M313,217.7c-0.6-0.3-1.1-0.7-1.5-1.2c-0.3-0.4-0.4-0.8-0.4-1.3c0.1-1.4,0.8-2.7,2-3.5
			c1.2-1.1,2.8-1.7,4.4-1.7c0.7,0,1.5,0.2,2,0.7c0.5,0.4,0.8,1,0.8,1.7c0,0.4-0.1,0.9-0.1,1.3c-0.1,0.5-0.2,1.1-0.4,1.8l3.8,1.1
			c0.2-0.4,0.6-0.9,0.9-1.2c0.4-0.5,0.9-0.9,1.4-1.3c0.3-0.1,0.6-0.2,0.9-0.3c0.2,0,0.4-0.1,0.6-0.1c1,0,1.9,0.3,2.7,0.9
			c0.7,0.4,1.2,1.1,1.3,2c0,0.6-0.2,1.1-0.5,1.6c-0.5,0.7-1.1,1.3-1.8,1.8c-2.2,3.5-4,7.2-5.3,11.1c-1.1,3-1.7,6.2-1.8,9.4
			c0,0.8,0.1,1.5,0.4,2.2c0.3,0.6,0.7,0.9,1.1,0.9c1.1,0,2.5-0.9,4-2.7c1.9-2.4,3.4-4.9,4.7-7.6c0.2-0.4,0.4-0.9,0.7-1.5
			c0.7-1.7,1.4-2.5,1.9-2.5c0.5,0,1,0.2,1.4,0.6c0.4,0.3,0.6,0.8,0.7,1.3c-0.1,1-0.4,1.9-0.9,2.8c-0.8,1.6-1.6,3.2-2.6,4.6
			c-2.4,3.7-4.4,6.2-5.9,7.6c-1.4,1.3-3.2,2-5.1,2c-1.8,0.1-3.6-0.6-4.9-2c-1.3-1.5-1.9-3.4-1.8-5.4c0.1-2.7,0.4-5.3,1.1-7.9
			c0.9-3.5,2.1-7,3.5-10.4l-3-0.9c-1.3,3.9-2.9,7.7-4.9,11.4c-1.3,2.3-2.5,3.4-3.6,3.4c-0.4,0-0.8-0.1-1.1-0.4
			c-0.3-0.3-0.4-0.8-0.4-1.2c0.2-0.7,0.5-1.3,0.8-1.9C310,228,311.7,222.9,313,217.7z"/>
		<path class="st4" d="M379.4,240.4c6-12.6,12.1-24.1,18.3-34.7c5.1-8.9,10.7-17.5,16.8-25.7c0.3-0.4,0.6-0.9,1.1-1.5
			c1.7-2.4,3.5-3.5,5.3-3.5c0.8,0,1.6,0.1,2.3,0.3c0.5,0.2,0.7,0.5,0.7,0.9c0,1.1-1,3-3.1,5.6c-1.4,1.8-2.5,3.3-3.3,4.5
			c-4.3,6.6-9.6,15.2-15.7,25.9c-6.1,10.7-12.4,22.3-18.9,34.7c-1,0.7-2.2,1.3-3.5,1.6c-1.4,0.4-2.9,0.7-4.5,0.7
			c-1.6,0.1-3.1-0.8-3.7-2.3c-0.6-1.5-1-5.1-1-10.7v-5.5c0-7.1,0.4-14.2,1.2-21.3c0.8-7.4,2.1-15.8,4-25.4c0.2-1.1,0.6-2.1,1.3-3
			c0.6-0.6,1.4-1,2.2-1c1.4,0.2,2.7,0.7,3.9,1.5c1.7,1,2.5,2,2.5,2.9c-0.2,1.7-0.6,3.4-1.1,5c-3.5,13.4-5.3,27.2-5.4,41.1
			c0,1.7,0,3.3,0.1,4.9C379.2,237.3,379.3,238.9,379.4,240.4z"/>
		<path class="st4" d="M409.7,248.2c-1.9,0-3.7-0.9-4.7-2.5c-1.3-2-1.9-4.4-1.7-6.8c0.1-3.9,0.6-7.8,1.7-11.5
			c1.1-4.3,2.2-7.3,3.3-8.8c0.5-0.8,1.2-1.3,2.1-1.7c1-0.4,2.1-0.6,3.2-0.6c0.6,0,1.1,0.1,1.6,0.5c0.4,0.3,0.6,0.8,0.6,1.4
			c-0.2,0.8-0.4,1.6-0.8,2.3l-0.7,2.2l-0.7,2c-3.1,8.6-4.7,13.9-4.7,16.1c-0.1,0.7,0.1,1.3,0.5,1.9c0.4,0.4,0.9,0.7,1.5,0.6
			c1,0,2.3-0.9,4.1-2.8c2.1-2.2,3.9-4.6,5.4-7.2c0.2-0.4,0.5-1,0.9-1.8c0.6-1.2,1.1-1.8,1.4-1.8c0.5,0,1,0.3,1.4,0.6
			c0.4,0.4,0.7,0.9,0.7,1.5c-0.5,1.3-1.2,2.5-1.9,3.6l-1.5,2.5c-1.5,2.9-3.5,5.5-5.9,7.8C413.9,247.4,411.8,248.2,409.7,248.2z
			 M414,213.4c-1,0-2-0.3-2.8-0.9c-0.7-0.6-1.1-1.5-1.1-2.4c0-1.4,0.9-2.7,2.2-3.4c1.3-0.9,2.9-1.3,4.5-1.4c0.8-0.1,1.6,0.2,2.2,0.7
			c0.5,0.6,0.8,1.3,0.7,2.1c0,1.4-0.7,2.7-1.8,3.6C417,212.8,415.6,213.4,414,213.4L414,213.4z"/>
		<path class="st4" d="M435.3,241.4c-1.4,3-3.2,5.7-5.4,8c-2,2-3.7,3-5.3,3c-1.8,0-3.3-0.9-4.5-2.7c-1.3-2-2-4.4-1.9-6.8
			c0.1-4.1,1.2-8.2,3-11.9c2-4.3,4.7-8.3,8-11.7c0.7-0.8,1.6-1.4,2.5-2c0.6-0.4,1.4-0.6,2.2-0.6c1,0,1.9,0.3,2.8,0.8
			c1.2,0.6,2.3,1.4,3.3,2.4c1.3-3.7,2.9-8.4,4.9-14.2c3.7-10.8,6.3-16.2,7.9-16.2c1-0.1,2.1,0.2,3,0.7c0.7,0.4,1.2,1.1,1.2,1.9
			c0,0.7-0.7,2.5-2,5.4c-1,2-1.7,3.7-2.3,5c-3.3,7.5-6.1,15.2-8.5,23.1c-2.1,7.2-3.2,12.4-3.2,15.5c0,0.6,0.1,1.2,0.3,1.7
			c0.1,0.4,0.5,0.6,0.9,0.6c0.6,0,1.4-0.5,2.4-1.5c1.5-1.8,2.8-3.6,4.1-5.6c0.4-0.7,0.9-1.4,1.2-2.2c0.6-1.1,1.1-1.7,1.5-1.7
			c0.3,0,0.6,0.1,0.8,0.3c0.2,0.2,0.3,0.4,0.3,0.7c-0.1,0.8-0.3,1.5-0.7,2.2c-0.4,1.1-1.1,2.4-1.9,4c-1.2,2.5-2.7,4.8-4.6,6.8
			c-1.2,1.3-2.8,2-4.5,2c-1.5,0-2.9-0.6-3.8-1.9C435.9,245.1,435.3,243.3,435.3,241.4z M439.1,222.6c-0.3-0.4-0.7-0.8-1.2-1.1
			c-0.3-0.2-0.8-0.3-1.2-0.3c-0.9,0-1.9,0.6-3,1.8c-1.6,1.8-3,3.7-4.3,5.7c-1.8,2.7-3.2,5.6-4.3,8.7c-0.9,2.4-1.5,5-1.6,7.6
			c0,0.6,0.2,1.2,0.5,1.7c0.3,0.4,0.7,0.7,1.3,0.7c1.6,0,3.7-2.3,6.3-6.9C434.8,234.9,437.2,228.9,439.1,222.6z"/>
		<path class="st4" d="M455,233.1c-0.3,1-0.4,1.9-0.6,2.9c-0.1,1-0.2,2.1-0.2,3.1c-0.1,1.6,0.2,3.3,0.9,4.8c0.4,1,1.4,1.6,2.5,1.6
			c2.1,0,4.5-1.3,7.3-3.9c3-2.8,5.5-6.1,7.4-9.8c0.2-0.3,0.4-0.8,0.8-1.5c0.7-1.5,1.3-2.3,1.7-2.3c0.5,0,0.9,0.3,1.2,0.6
			c0.4,0.4,0.6,1,0.5,1.5c-0.2,1.3-0.6,2.5-1.3,3.6c-1,1.9-2.2,3.7-3.5,5.4c-2.1,2.9-4.7,5.5-7.7,7.6c-2.3,1.5-4.9,2.3-7.6,2.3
			c-2.8,0-5-0.8-6.4-2.5c-1.4-1.6-2.1-4.1-2.1-7.4c0.1-4.2,0.9-8.4,2.4-12.4c1.5-4.5,3.6-8.9,6.3-12.8c0.7-1.1,1.6-2,2.6-2.7
			c0.8-0.6,1.8-0.9,2.8-0.9c0.5,0,1,0.1,1.4,0.3c0.6,0.2,1.1,0.5,1.7,0.9l2,0.5c2.2,0.6,3.3,1.9,3.3,4c0,4.5-1.4,9-3.9,12.7
			c-2.6,3.9-5.3,5.8-8.1,5.8c-0.6,0-1.2-0.1-1.7-0.4C456,234,455.5,233.6,455,233.1z M458.9,231.2c1.2,0,2.4-1.3,3.6-4
			c1.2-2.5,1.8-5.2,1.8-8c0-0.4-0.1-0.9-0.4-1.2c-0.2-0.3-0.6-0.5-1-0.5c-1,0-2.3,1.3-3.9,4c-1.5,2.6-2.3,4.8-2.3,6.4
			c0,0.9,0.2,1.7,0.6,2.5C457.7,230.8,458.3,231.2,458.9,231.2z"/>
		<path class="st4" d="M487.1,218.8l0.2-0.1c0.6-0.1,1.2-0.2,1.8-0.2c1.6,0,3.1,1,3.9,2.4c1.1,2,1.6,4.2,1.5,6.5
			c2.2-0.7,4.1-2.1,5.4-3.9c1.6-2,2.7-3,3.2-3c0.5,0,0.9,0.1,1.3,0.4c0.3,0.3,0.5,0.7,0.5,1.1c0,0.6-0.2,1.3-0.5,1.8
			c-0.4,0.7-1,1.4-1.5,2c-1.2,1.8-2.6,3.4-4.3,4.7c-1.4,1.1-3,1.9-4.8,2.2c-1.6,5.8-3.7,10.1-6.3,13.1c-2.6,3-5.6,4.5-8.9,4.5
			c-2.3,0.1-4.5-0.8-6-2.5c-1.6-1.9-2.4-4.3-2.2-6.7c0.1-3.1,0.7-6.1,1.8-8.9c1.2-3.5,2.9-6.9,4.9-10c0.9-1.5,2.1-2.9,3.4-4.1
			c0.9-0.8,2.1-1.3,3.4-1.4c0.7,0,1.4,0.2,2,0.5C486.4,217.8,486.8,218.2,487.1,218.8z M476.9,241.8c-0.1,0.9,0.1,1.8,0.6,2.6
			c0.4,0.6,1.1,0.9,1.8,0.9c2,0,4.1-2.2,6.3-6.5c2.1-3.8,3.3-8.1,3.4-12.4c0-0.8-0.1-1.6-0.5-2.3c-0.3-0.5-0.9-0.8-1.5-0.8
			c-1.8,0-4,2.1-6.4,6.4C478.3,233.3,477,237.5,476.9,241.8L476.9,241.8z"/>
		<path class="st4" d="M506.1,248.2c-1.3,0.1-2.6-0.2-3.8-0.9c-0.9-0.6-1.4-1.5-1.3-2.6c0.1-2.1,1-4.1,2.7-5.5
			c1.8-1.7,3.5-2.5,5.1-2.5c1,0,1.9,0.4,2.5,1.2c0.6,1,1,2.1,0.9,3.3c0,1.8-0.6,3.6-1.8,4.9C509.4,247.5,507.8,248.3,506.1,248.2z
			 M514.6,228.3c-0.1,1.7-0.4,2.8-0.9,3.4c-0.8,0.7-1.8,1-2.8,0.9c-0.8,0-1.6-0.1-2.3-0.4c-0.5-0.2-0.8-0.8-0.7-1.3
			c0-2.8,1.2-9,3.6-18.7c2.5-10,5.6-19.9,9.2-29.6l0.2-0.5c2.2-5.8,4.6-8.7,7-8.7c1.1,0,2.3,0.4,3.1,1.1c0.8,0.6,1.3,1.4,1.3,2.4
			c0,0.3-0.1,0.7-0.3,1c-0.3,0.6-0.7,1.2-1.1,1.7c-1.4,3.8-3.6,10.2-6.5,19C521.5,207.2,518.2,217.2,514.6,228.3L514.6,228.3z"/>
		<path class="st5" d="M143.1,147.6H135v-14.9h-0.3c-2.8,10.8-11.3,16.4-21.9,16.4c-28.4,0-30.5-28.2-30.5-50.6s3.9-49,31.5-49
			c18.2,0,28.6,11.8,28.4,29.6h-10.7c-0.1-11.7-5.1-19.8-17.2-20.1c-20.9-0.4-21.1,23.5-21.1,39.8c0,14.5-0.8,39.8,18,40.7
			c19.6,0.9,21.4-17,21.2-32.2h-21.2v-9.5h31.8V147.6z"/>
		<path class="st5" d="M200.3,123.3c0.6,13.9-6.5,25.4-21.4,25.4c-13.4,0-22.9-8.9-22.9-37.4c0-14.9,3.9-37.1,22.6-37.1
			c22.9,0,21.6,21.6,22.1,38.2h-34.3c0.3,9.5-1.4,27.9,12.7,27.9c9.7,0,12.3-8.9,11.7-16.9L200.3,123.3z M190.4,104.1
			c-0.4-8.3,0.1-21.4-11.6-21.4c-11.7,0-12,13-12.3,21.4H190.4z"/>
		<path class="st5" d="M225.4,76.2h11.8v8.5h-11.7v48.2c0,2.4-0.9,5.5,4.7,5.5h6.7v8.5h-11c-6,0.1-10.4-0.9-10.4-11.6V84.7h-9.8
			v-8.5h9.8V56.9h9.9L225.4,76.2z"/>
		<path class="st5" d="M278.4,146.9V51.4h50.5v14h-32.6v24.2h30.6v14h-30.6v43.3L278.4,146.9z"/>
		<path class="st5" d="M359,105.8v41.1h-17.8V51.4h33.7c15.4,0,27.1,5.3,27.1,22.9c0,10.4-2.7,21.4-14.6,23v0.3
			c10.6,1.4,13.7,8.1,13.7,17.3c0,3.9-0.5,27.3,3.8,30.2v1.8h-19.6c-2.2-6.1-1.8-17.8-1.9-24.2c-0.1-5.8,0-13.9-6.1-15.6
			c-4.8-1.4-10-1.3-15.1-1.3L359,105.8z M359,91.8h14c5.8-0.4,10.4-4.2,10.4-13.7c0-10.7-4.5-12.5-11.2-12.6H359V91.8z"/>
		<path class="st5" d="M418.6,146.9V51.4h50.1v14h-32.3v24h29.7v14h-29.7v29.4h32.3v14L418.6,146.9z"/>
		<path class="st5" d="M482.2,146.9V51.4h50.1v14H500v24h29.7v14H500v29.4h32.3v14L482.2,146.9z"/>
	</g>
</g>
</svg>
