<svg id="Layer_1" data-name="Layer 1" xmlns="http://www.w3.org/2000/svg" viewBox="0 0 963 722.68"><defs><style>.cls-1{fill:#f3f7f8;}.cls-2{fill:#838484;}.cls-3{fill:#504f59;}.cls-4{fill:#201f24;}.cls-5{fill:#fe830c;}.cls-6{fill:#feb914;}.cls-7{fill:#422004;}</style></defs><title>ADS_v2</title><rect class="cls-1" width="963" height="722.68" rx="26.19" ry="26.19"/><path class="cls-2" d="M934.08,69.25h-4l-14.89-17L900,69.25h-3.89l17-19L897.65,32.76h4l13.61,15.63L929,32.76h3.76L917.19,50.18Z"/><path class="cls-3" d="M243.59,290.89q-1.84,6-3.07,10.19t-2.09,7.43q13.5-1.72,20.78-2.49t10-.77a13.72,13.72,0,0,1,4.6.58q1.53.58,1.54,1.81,0,2.52-6,3.32l-1.23.18q-7.92,1.29-19,4.17t-14,2.88a6,6,0,0,1-4.39-2,6.35,6.35,0,0,1-1.93-4.6q0-1.6,4.08-16.85t13.41-48.65q1.41-5,3-5.89t9.82-.86q4.11,0,13.54,1.07t14.52,1.44a3,3,0,0,1,1.57.43,1.2,1.2,0,0,1,.52,1q0,3.25-15.16,4.36-11,.74-18.35,1.66-2.27,6.57-4.7,14.73t-5.25,18.48q8-.86,14.06-1.23t10.56-.37a13.16,13.16,0,0,1,4.82.64,2.19,2.19,0,0,1,1.5,2.12,4.13,4.13,0,0,1-.71,2.61,3,3,0,0,1-2.24,1q-5,.25-12.22,1.08T243.59,290.89Z"/><path class="cls-3" d="M291.72,309.55q-.62.8-2,2.58-4.67,5.89-7.18,9.33a8.07,8.07,0,0,1-.86.28,3.57,3.57,0,0,1-.86.09,3.3,3.3,0,0,1-2.18-.8,2.26,2.26,0,0,1-1-1.72q0-1.35,2.42-4.88t9.18-11.69q-1.23-4.3-1.87-7.61a28.59,28.59,0,0,1-.64-4.85,7.11,7.11,0,0,1,2.49-5.37q2.49-2.3,4.51-2.3,1.84,0,2.39,5.89.31,3.5.67,5.65,9.64-10.62,13.08-13.66t5.28-3a3.26,3.26,0,0,1,2.09.74,2,2,0,0,1,.92,1.54,2.78,2.78,0,0,1-1,1.84A19.59,19.59,0,0,1,314,284a76.93,76.93,0,0,0-6.6,6.88q-3.9,4.48-9.12,11.23a31,31,0,0,0,2.39,7.83q1.47,3,2.76,3,.92,0,3.28-2.95a49.62,49.62,0,0,0,4.76-7.37q.61-1.1,1.53-2.95,1.53-3.13,2.27-3.13a3.54,3.54,0,0,1,2,1.14q1.26,1.14,1.26,1.81,0,.86-2.15,5.19a51.5,51.5,0,0,1-4.91,8,16,16,0,0,1-4.6,4.33,10.14,10.14,0,0,1-5.22,1.44,8.12,8.12,0,0,1-5.65-1.93Q293.87,314.58,291.72,309.55Z"/><path class="cls-3" d="M322.84,287.76a40.29,40.29,0,0,1,5.37-6.66,5.62,5.62,0,0,1,9.36,1.17,14.75,14.75,0,0,1,2.09,8.26,35.53,35.53,0,0,1-5.22,18.91Q329.23,318,323.21,318a8.11,8.11,0,0,1-4.33-1.23,6.42,6.42,0,0,1-2.73-3.07q-2.64,11.54-4.14,19.15a69.73,69.73,0,0,0-1.5,9.64,2.28,2.28,0,0,0,.55,1.47,2.86,2.86,0,0,1,.55.8,2.18,2.18,0,0,1-.8,1.69,2.7,2.7,0,0,1-1.84.71,5.6,5.6,0,0,1-3.56-1,3.55,3.55,0,0,1-1.23-2.95q0-3.13,2.92-17t7.4-30.85q.61-2.21,1.66-6.14,4.91-18.35,7.8-18.35a3.5,3.5,0,0,1,2.15.74,2.17,2.17,0,0,1,1,1.78,33.83,33.83,0,0,1-1.6,5.62Q323.89,283.77,322.84,287.76Zm-4.91,21.18a4.46,4.46,0,0,0,1.38,2.86,3.86,3.86,0,0,0,2.73,1.13,5.64,5.64,0,0,0,4.27-2.06,24.73,24.73,0,0,0,3.9-7,50.4,50.4,0,0,0,2.46-7.46,28.09,28.09,0,0,0,.86-6.48A6.88,6.88,0,0,0,333,287a1.54,1.54,0,0,0-1.41-1q-2.21,0-6.45,6.69A69.16,69.16,0,0,0,317.93,308.93Z"/><path class="cls-3" d="M347.95,302.49c-.37.08-.63.13-.8.15l-.55.09a2.23,2.23,0,0,1-1.87-1.14,4.25,4.25,0,0,1-.77-2.42q0-.92,2.09-1.23a6.18,6.18,0,0,0,3.56-1.78q3.56-13.57,7.61-26.4t8.59-24.92a3.91,3.91,0,0,1-.09-.49,6.2,6.2,0,0,1,0-.74q0-1.53,2.12-3a7.19,7.19,0,0,1,4.08-1.47q2.58,0,5.25,2.61t2.67,4.76q0,5.46-6.94,21A219.44,219.44,0,0,1,355,299.36q-.37,2.09-.55,3.78a28.71,28.71,0,0,0-.18,3.1,15.65,15.65,0,0,0,.77,5.83,2.58,2.58,0,0,0,2.49,1.72q1.66,0,3.68-2.09a42.72,42.72,0,0,0,5-6.81q1.17-1.84,2.55-4.45t1.87-2.61a3.12,3.12,0,0,1,1.69.89q1.07.89,1.07,1.5a1.15,1.15,0,0,1-.09.37,6.54,6.54,0,0,1-.28.61q-3.56,7-5.34,9.76a29.59,29.59,0,0,1-3.44,4.48,14.63,14.63,0,0,1-3.78,2.76,9,9,0,0,1-3.9.86q-3.38,0-6.17-3.38a11.54,11.54,0,0,1-2.79-7.55q0-1.53.09-2.92T347.95,302.49Zm8.23-10.93a265.19,265.19,0,0,0,12.89-27.69q5-12.89,5-16.57a1.59,1.59,0,0,0-.31-1,1,1,0,0,0-.8-.37,3.74,3.74,0,0,0-.8.18l-.31.06q-5.16,13.14-9.08,24.49T356.18,291.56Z"/><path class="cls-3" d="M385,306.79a29.9,29.9,0,0,1-6.69,8.63,11.18,11.18,0,0,1-7.12,3,5.65,5.65,0,0,1-4.57-2.12,8.25,8.25,0,0,1-1.75-5.43,30.69,30.69,0,0,1,1.66-9.45,52.59,52.59,0,0,1,4.91-10.56,33.64,33.64,0,0,1,6.78-8.9q3.65-3.25,6.78-3.25a5.81,5.81,0,0,1,3.07.86,10.5,10.5,0,0,1,2.82,2.76,17,17,0,0,1,2-.49,8.67,8.67,0,0,1,1.41-.12,6.35,6.35,0,0,1,3.62,1,2.75,2.75,0,0,1,1.41,2.3,14.88,14.88,0,0,1-1.66,4.24q-1.41,2.76-2.21,4.54a87.63,87.63,0,0,0-3.68,9.39,23.37,23.37,0,0,0-1.35,6,2.45,2.45,0,0,0,.25,1.29,1,1,0,0,0,.86.37q.92,0,2.61-1.87t5.74-7.58q.74-1,1.72-2.58t1.53-1.66q.68,0,1.35,1a3.24,3.24,0,0,1,.68,1.78q0,1-2,4.39a65,65,0,0,1-4.85,7.15,18,18,0,0,1-4,4.08,6.75,6.75,0,0,1-3.78,1.2,4.94,4.94,0,0,1-4.17-1.93,8.92,8.92,0,0,1-1.47-5.49c0-.65,0-1.17,0-1.54A8.42,8.42,0,0,1,385,306.79Zm4-19.4a1.94,1.94,0,0,0-.49-1.38,1.77,1.77,0,0,0-1.35-.52q-2.09,0-4.79,2.82a36.09,36.09,0,0,0-5.4,7.86,68.36,68.36,0,0,0-4.11,9.18,21.76,21.76,0,0,0-1.53,6.54,2.46,2.46,0,0,0,.28,1.2.72.72,0,0,0,.71.21q1.23,0,3.47-2.15a33.84,33.84,0,0,0,4.57-5.65,73.08,73.08,0,0,0,6.14-11.08Q389,288.74,389,287.39Z"/><path class="cls-3" d="M408.48,317.41a6,6,0,0,1-5.19-2.76,13,13,0,0,1-1.93-7.55,52.12,52.12,0,0,1,1.84-12.77q1.84-7.18,3.68-9.82a4.91,4.91,0,0,1,2.33-1.84,9.07,9.07,0,0,1,3.56-.67,2.71,2.71,0,0,1,1.75.52,1.82,1.82,0,0,1,.64,1.5,13.73,13.73,0,0,1-.86,2.58l-.92,2.46-.8,2.27q-5.22,14.24-5.22,17.92a3.4,3.4,0,0,0,.52,2.09,1.92,1.92,0,0,0,1.63.68q1.6,0,4.6-3.07a43,43,0,0,0,6-8q.37-.68,1-2,1-2,1.6-2a2.26,2.26,0,0,1,1.5.71,2.22,2.22,0,0,1,.77,1.69,21.62,21.62,0,0,1-2.15,4.05l-1.66,2.82a35.15,35.15,0,0,1-6.51,8.63A9.38,9.38,0,0,1,408.48,317.41Zm4.79-38.67a4.6,4.6,0,0,1-3.07-1A3.34,3.34,0,0,1,409,275a4.4,4.4,0,0,1,2.39-3.78,9.22,9.22,0,0,1,5-1.5,3.46,3.46,0,0,1,2.49.8,3.09,3.09,0,0,1,.83,2.33,5.36,5.36,0,0,1-2,4A6.47,6.47,0,0,1,413.27,278.73Z"/><path class="cls-3" d="M438.68,294.82q-3.19,5.22-7.3,13.08-5,9.52-7.55,9.51A5.21,5.21,0,0,1,420,316a5.28,5.28,0,0,1-1.47-4q0-3.07,2-11.11a102.2,102.2,0,0,1,5.06-15.29,9,9,0,0,1,2-3.32,3.94,3.94,0,0,1,2.61-.8,4.49,4.49,0,0,1,2.61.83,2.36,2.36,0,0,1,1.2,1.93,9.56,9.56,0,0,1-.8,1.9A83.82,83.82,0,0,0,426,308.75a252.91,252.91,0,0,1,12.74-22.5q4.57-6.78,7-6.78a5.86,5.86,0,0,1,3.68,1.35,3.88,3.88,0,0,1,1.72,3.07,2.69,2.69,0,0,1-1.23,2,14,14,0,0,1-1.29,1,17.39,17.39,0,0,0-1.17,2.67q-.86,2.24-1.84,5.37-1.29,4.42-2.09,8.5a35.07,35.07,0,0,0-.8,6,5,5,0,0,0,.34,2,1,1,0,0,0,1,.74q2,0,7.49-9.39,1-1.72,1.54-2.64.18-.31.49-1,.61-1.41,1.66-1.41a2.88,2.88,0,0,1,1.63.89q1,.89,1,1.5,0,1.23-2.85,6.45a39.43,39.43,0,0,1-6.35,8.78,9.8,9.8,0,0,1-2.52,1.87,5.84,5.84,0,0,1-2.64.64,5.57,5.57,0,0,1-4.88-2.58,12.81,12.81,0,0,1-1.75-7.24,41.24,41.24,0,0,1,.46-5.46Q437.7,299.36,438.68,294.82Z"/><path class="cls-3" d="M458.88,300.59a24.81,24.81,0,0,0-.64,3.22,26.29,26.29,0,0,0-.21,3.47,11.72,11.72,0,0,0,1,5.31,3,3,0,0,0,2.79,1.81q3.44,0,8.13-4.3a40.08,40.08,0,0,0,8.2-10.87q.31-.55.86-1.66,1.23-2.52,1.9-2.52a1.74,1.74,0,0,1,1.29.71,2.49,2.49,0,0,1,.61,1.69,10.58,10.58,0,0,1-1.47,4.05,41.61,41.61,0,0,1-3.93,6,36.66,36.66,0,0,1-8.5,8.38,15.33,15.33,0,0,1-8.44,2.55q-4.73,0-7.09-2.73t-2.36-8.2a44.16,44.16,0,0,1,2.73-13.81,58.43,58.43,0,0,1,7-14.24,11.1,11.1,0,0,1,2.92-3,5.57,5.57,0,0,1,3.1-1,4.43,4.43,0,0,1,1.6.31,10.38,10.38,0,0,1,1.84,1l2.21.61q3.68,1,3.68,4.42a24.78,24.78,0,0,1-4.36,14.18q-4.36,6.45-9,6.45a4.4,4.4,0,0,1-1.93-.46A6.65,6.65,0,0,1,458.88,300.59Zm4.42-2.15q2,0,4-4.48a21.63,21.63,0,0,0,2-8.84,2.08,2.08,0,0,0-.46-1.32,1.35,1.35,0,0,0-1.08-.58q-1.72,0-4.3,4.39t-2.58,7.09a5,5,0,0,0,.64,2.73A2,2,0,0,0,463.3,298.44Z"/><path class="cls-3" d="M483.68,283.46a6.76,6.76,0,0,1-1.66-1.35,2.19,2.19,0,0,1-.49-1.41,5.27,5.27,0,0,1,2.21-3.87,7.28,7.28,0,0,1,4.85-1.9,3.31,3.31,0,0,1,2.24.77,2.38,2.38,0,0,1,.89,1.87,8.44,8.44,0,0,1-.15,1.41q-.15.86-.46,2l4.17,1.23a7.18,7.18,0,0,1,1-1.38,13.8,13.8,0,0,1,1.57-1.44,9.28,9.28,0,0,1,1-.28,3.41,3.41,0,0,1,.67-.09,5.08,5.08,0,0,1,2.95,1,2.85,2.85,0,0,1,1.47,2.21,3,3,0,0,1-.61,1.78,10.37,10.37,0,0,1-2,2,64.56,64.56,0,0,0-5.92,12.34,32.68,32.68,0,0,0-2,10.44,5.26,5.26,0,0,0,.49,2.42q.49,1,1.23,1,1.9,0,4.39-2.95a42.06,42.06,0,0,0,5.19-8.47q.31-.61.8-1.66,1.23-2.76,2.09-2.76a2.26,2.26,0,0,1,1.54.68,2,2,0,0,1,.74,1.47,8.92,8.92,0,0,1-1,3.13,51.64,51.64,0,0,1-2.88,5.16Q502,313,499.42,315.2a8.61,8.61,0,0,1-5.68,2.21,7,7,0,0,1-5.46-2.18,8.61,8.61,0,0,1-2-6,36.67,36.67,0,0,1,1.26-8.81,88.7,88.7,0,0,1,3.9-11.51l-3.38-1a85.29,85.29,0,0,1-5.4,12.65q-2.21,3.81-4.05,3.81a1.56,1.56,0,0,1-1.2-.49,1.9,1.9,0,0,1-.46-1.35,11.52,11.52,0,0,1,.86-2.09A97.67,97.67,0,0,0,483.68,283.46Z"/><path class="cls-3" d="M557.34,308.75q10.07-20.93,20.29-38.46a271.92,271.92,0,0,1,18.69-28.51q.43-.61,1.23-1.66,2.88-3.93,5.83-3.93a7.85,7.85,0,0,1,2.55.31q.83.31.83,1,0,1.84-3.44,6.2-2.33,3-3.62,5-7.24,10.93-17.43,28.76t-20.93,38.52a11.8,11.8,0,0,1-3.84,1.78,17.36,17.36,0,0,1-4.94.74,4,4,0,0,1-4.08-2.52q-1.07-2.52-1.07-11.85v-6.14a216.31,216.31,0,0,1,1.35-23.63q1.35-12.28,4.42-28.18a7.11,7.11,0,0,1,1.47-3.28,3.19,3.19,0,0,1,2.46-1.07,9.21,9.21,0,0,1,4.3,1.72q2.76,1.72,2.76,3.25a34.57,34.57,0,0,1-1.23,5.59,184,184,0,0,0-6,45.61q0,2.83.09,5.49T557.34,308.75Z"/><path class="cls-3" d="M591,317.41a6,6,0,0,1-5.19-2.76,13,13,0,0,1-1.93-7.55,52.12,52.12,0,0,1,1.84-12.77q1.84-7.18,3.68-9.82a4.91,4.91,0,0,1,2.33-1.84,9.07,9.07,0,0,1,3.56-.67,2.71,2.71,0,0,1,1.75.52,1.82,1.82,0,0,1,.64,1.5,13.73,13.73,0,0,1-.86,2.58L596,289l-.8,2.27q-5.22,14.24-5.22,17.92a3.4,3.4,0,0,0,.52,2.09,1.92,1.92,0,0,0,1.63.68q1.6,0,4.6-3.07a43,43,0,0,0,6-8q.37-.68,1-2,1-2,1.6-2a2.26,2.26,0,0,1,1.5.71,2.22,2.22,0,0,1,.77,1.69,21.62,21.62,0,0,1-2.15,4.05l-1.66,2.82a35.15,35.15,0,0,1-6.51,8.63A9.38,9.38,0,0,1,591,317.41Zm4.79-38.67a4.6,4.6,0,0,1-3.07-1,3.34,3.34,0,0,1-1.17-2.7,4.4,4.4,0,0,1,2.39-3.78,9.22,9.22,0,0,1,5-1.5,3.46,3.46,0,0,1,2.49.8,3.09,3.09,0,0,1,.83,2.33,5.36,5.36,0,0,1-2,4A6.47,6.47,0,0,1,595.83,278.73Z"/><path class="cls-3" d="M619.34,309.79a33.93,33.93,0,0,1-6,8.93q-3.25,3.34-5.89,3.35-2.95,0-5-3a13,13,0,0,1-2.09-7.52,31.74,31.74,0,0,1,3.38-13.17,47,47,0,0,1,8.9-13,14.88,14.88,0,0,1,2.76-2.18,4.79,4.79,0,0,1,2.39-.71,6.74,6.74,0,0,1,3.1.89A18.12,18.12,0,0,1,624.5,286q2.15-6.08,5.4-15.78,6.08-18,8.78-18A6.18,6.18,0,0,1,642,253a2.41,2.41,0,0,1,1.32,2.06q0,1.23-2.27,6-1.6,3.38-2.52,5.52a223.7,223.7,0,0,0-9.42,25.66q-3.53,12-3.53,17.19a4.12,4.12,0,0,0,.34,1.87,1,1,0,0,0,1,.65q1,0,2.61-1.69a52.38,52.38,0,0,0,4.51-6.17,22.69,22.69,0,0,0,1.35-2.39q1-1.9,1.72-1.9a1.23,1.23,0,0,1,.86.34,1,1,0,0,1,.37.77,7.66,7.66,0,0,1-.74,2.49q-.74,1.75-2.15,4.45a30.74,30.74,0,0,1-5.09,7.55,7.07,7.07,0,0,1-5,2.27,5,5,0,0,1-4.21-2.06A10.69,10.69,0,0,1,619.34,309.79ZM623.58,289a5.06,5.06,0,0,0-1.29-1.23,2.47,2.47,0,0,0-1.29-.37q-1.47,0-3.38,2a43.81,43.81,0,0,0-4.73,6.32,45.78,45.78,0,0,0-4.76,9.64,26.31,26.31,0,0,0-1.75,8.47,3.16,3.16,0,0,0,.61,1.93,1.75,1.75,0,0,0,1.41.83q2.64,0,7-7.67A106.64,106.64,0,0,0,623.58,289Z"/><path class="cls-3" d="M641.2,300.59a24.81,24.81,0,0,0-.64,3.22,26.29,26.29,0,0,0-.21,3.47,11.72,11.72,0,0,0,1,5.31,3,3,0,0,0,2.79,1.81q3.44,0,8.13-4.3a40.08,40.08,0,0,0,8.2-10.87q.31-.55.86-1.66,1.23-2.52,1.9-2.52a1.74,1.74,0,0,1,1.29.71,2.49,2.49,0,0,1,.61,1.69,10.58,10.58,0,0,1-1.47,4.05,41.61,41.61,0,0,1-3.93,6,36.66,36.66,0,0,1-8.5,8.38,15.33,15.33,0,0,1-8.44,2.55q-4.73,0-7.09-2.73t-2.36-8.2A44.16,44.16,0,0,1,636,293.71a58.43,58.43,0,0,1,7-14.24,11.1,11.1,0,0,1,2.92-3,5.57,5.57,0,0,1,3.1-1,4.43,4.43,0,0,1,1.6.31,10.38,10.38,0,0,1,1.84,1l2.21.61q3.68,1,3.68,4.42A24.78,24.78,0,0,1,654,295.92q-4.36,6.45-9,6.45a4.4,4.4,0,0,1-1.93-.46A6.65,6.65,0,0,1,641.2,300.59Zm4.42-2.15q2,0,4-4.48a21.63,21.63,0,0,0,2-8.84,2.08,2.08,0,0,0-.46-1.32,1.35,1.35,0,0,0-1.08-.58q-1.72,0-4.3,4.39t-2.58,7.09a5,5,0,0,0,.64,2.73A2,2,0,0,0,645.62,298.44Z"/><path class="cls-3" d="M676.86,284.75l.25-.06a12.92,12.92,0,0,1,2-.18,4.92,4.92,0,0,1,4.3,2.7,14,14,0,0,1,1.72,7.18,12.28,12.28,0,0,0,6-4.36q2.7-3.37,3.5-3.38a2.22,2.22,0,0,1,1.47.46,1.55,1.55,0,0,1,.55,1.26,4,4,0,0,1-.55,2,11.64,11.64,0,0,1-1.72,2.21,22.76,22.76,0,0,1-4.79,5.25,12.1,12.1,0,0,1-5.28,2.42q-2.7,9.58-7,14.58t-9.88,5a8.57,8.57,0,0,1-6.66-2.73,10.67,10.67,0,0,1-2.49-7.46,31,31,0,0,1,2-9.91,52.9,52.9,0,0,1,5.4-11.08,18.33,18.33,0,0,1,3.78-4.51,6,6,0,0,1,3.78-1.5,4.26,4.26,0,0,1,2.18.55A3.92,3.92,0,0,1,676.86,284.75Zm-11.36,25.54a5.26,5.26,0,0,0,.64,2.92,2.24,2.24,0,0,0,2,1q3.25,0,7-7.18a29.68,29.68,0,0,0,3.78-13.81,4.62,4.62,0,0,0-.61-2.58,1.9,1.9,0,0,0-1.66-.92q-3.07,0-7.12,7.09A27.36,27.36,0,0,0,665.51,310.28Z"/><path class="cls-3" d="M698,317.41a7.31,7.31,0,0,1-4.17-1,3.26,3.26,0,0,1-1.47-2.85,8.36,8.36,0,0,1,2.95-6.08q2.95-2.82,5.71-2.82a3.19,3.19,0,0,1,2.73,1.29,6.13,6.13,0,0,1,1,3.68,8.15,8.15,0,0,1-2,5.46A6,6,0,0,1,698,317.41Zm9.33-22.16q-.12,2.76-1,3.74a4.14,4.14,0,0,1-3.16,1,5.42,5.42,0,0,1-2.55-.46,1.54,1.54,0,0,1-.83-1.44q0-4.66,4-20.78A295.48,295.48,0,0,1,714,244.42l.25-.61q3.68-9.7,7.8-9.7a5.1,5.1,0,0,1,3.47,1.26A3.53,3.53,0,0,1,727,238a2.62,2.62,0,0,1-.31,1.07,17.75,17.75,0,0,1-1.17,1.93q-2.33,6.39-7.24,21.09T707.37,295.25Z"/><path class="cls-4" d="M295.09,205.77h-9V189.25h-.28c-3.11,12-12.56,18.21-24.28,18.21-31.48,0-33.88-31.34-33.88-56.19s4.38-54.35,35-54.35c20.19,0,31.76,13.13,31.48,32.89H282.25c-.14-13-5.65-22-19.06-22.31-23.15-.42-23.43,26.12-23.43,44.19,0,16.09-.85,44.19,20,45.18,21.74,1,23.72-18.92,23.58-35.72H259.8V150.57h35.29Z"/><path class="cls-4" d="M358.62,178.8c.71,15.39-7.2,28.23-23.72,28.23-14.82,0-25.41-9.88-25.41-41.51,0-16.52,4.38-41.22,25.13-41.22,25.41,0,24,24,24.56,42.35H321.07c.28,10.59-1.55,30.92,14.12,30.92,10.73,0,13.69-9.88,13-18.78Zm-11-21.32c-.42-9.18.14-23.72-12.85-23.72s-13.27,14.4-13.69,23.72Z"/><path class="cls-4" d="M386.43,126.43h13.13v9.46h-13v53.5c0,2.68-1,6.07,5.22,6.07h7.48v9.46H387c-6.63.14-11.58-1-11.58-12.85V135.89H364.55v-9.46h10.87V105.11h11Z"/><path class="cls-4" d="M445.3,204.92V99h56v15.53H465.07v26.82h34v15.53h-34v48Z"/><path class="cls-4" d="M534.66,159.32v45.6H514.9V99h37.41c17.08,0,30.07,5.93,30.07,25.41,0,11.58-3,23.72-16.24,25.55v.28c11.72,1.55,15.25,9,15.25,19.2,0,4.38-.56,30.35,4.24,33.46v2H563.89c-2.4-6.78-2-19.76-2.12-26.82-.14-6.49,0-15.39-6.78-17.36-5.37-1.55-11.15-1.41-16.8-1.41Zm0-15.53h15.53c6.49-.42,11.58-4.66,11.58-15.25,0-11.86-4.94-13.83-12.42-14H534.66Z"/><path class="cls-4" d="M600.87,204.92V99H656.5v15.53H620.64v26.68h33v15.53h-33v32.61H656.5v15.53Z"/><path class="cls-4" d="M671.46,204.92V99h55.62v15.53H691.23v26.68h33v15.53h-33v32.61h35.86v15.53Z"/><rect class="cls-5" x="204.2" y="458.86" width="544.6" height="182.43" rx="16.1" ry="16.1"/><rect class="cls-6" x="204.2" y="440.08" width="544.6" height="182.43" rx="16.1" ry="16.1"/><path class="cls-7" d="M331,560.07V508.52h15.53c4.12,0,8.18.27,10.93,3.78,2.2,2.82,2.54,5.77,2.54,9.28,0,4.47-1,8.87-6.19,10.79v.14c5.43.76,7.49,5.29,7.49,12a24.43,24.43,0,0,1-.69,6.32c-2.06,6.53-5.77,9.28-12.65,9.28Zm11.41-30.72c2.34,0,5.36.14,6.87-1.79.89-1.31,1-3.09,1-5.57,0-3.85-.83-5.77-5.22-5.91h-4.47v13.26Zm.27,23.16c2,0,4.05.21,5.77-.55,2.61-1.17,3-4.54,3-7.15,0-5.57-1.1-7.9-7.08-7.9h-3.71v15.6Z"/><path class="cls-7" d="M368.4,542.06c.07-13.26.21-21.79,13.68-21.79,13.26,0,13.33,8.52,13.4,21.79.07,13.47-1.86,19.24-13.4,19C370.32,561.3,368.33,555.53,368.4,542.06Zm8.93,5.36c0,4.74.41,6.8,4.74,6.8,4.12,0,4.47-2.06,4.47-6.8V534.5c0-3.64,0-7.35-4.47-7.35-4.74,0-4.74,3.71-4.74,7.35Z"/><path class="cls-7" d="M402.76,542.06c.07-13.26.21-21.79,13.68-21.79,13.26,0,13.33,8.52,13.4,21.79.07,13.47-1.86,19.24-13.4,19C404.68,561.3,402.69,555.53,402.76,542.06Zm8.93,5.36c0,4.74.41,6.8,4.74,6.8,4.12,0,4.47-2.06,4.47-6.8V534.5c0-3.64,0-7.35-4.47-7.35-4.74,0-4.74,3.71-4.74,7.35Z"/><path class="cls-7" d="M436.78,560.07V508.52h8.93v23.3c0,1.65-.07,3.23-.14,4.88h.14l8.45-15.39h9.76l-9.76,15.6,9.48,23.16h-10l-5.57-15.81-2.41,4v11.82Z"/><path class="cls-7" d="M508.87,508.52h9.62v51.54h-10L501,541.72a173.27,173.27,0,0,1-6.87-20.48H494c.34,4.26.76,9.48,1,14.71s.48,10.31.48,14.43v9.69h-9.62V508.52h10l7.49,18.76a173,173,0,0,1,6.87,20.48h.14c-.34-4.67-.69-9.69-1-14.64s-.48-9.9-.48-14.5Z"/><path class="cls-7" d="M526.81,542.06c.07-13.26.21-21.79,13.68-21.79,13.26,0,13.33,8.52,13.4,21.79.07,13.47-1.86,19.24-13.4,19C528.73,561.3,526.74,555.53,526.81,542.06Zm8.93,5.36c0,4.74.41,6.8,4.74,6.8,4.12,0,4.47-2.06,4.47-6.8V534.5c0-3.64,0-7.35-4.47-7.35-4.74,0-4.74,3.71-4.74,7.35Z"/><path class="cls-7" d="M588,545.08a66.66,66.66,0,0,1,.89,8.32h.21c0-1.72.55-7.42.76-8.59l3-23.5h9L594,560.07h-9.76l-3-15.67a92.23,92.23,0,0,1-1.17-9.76h-.27a81.86,81.86,0,0,1-.89,9.21l-2.75,16.22h-10l-8-38.76h9.42l3.16,23.64c.21,1.17.76,6.87.76,8.59h.14a66.85,66.85,0,0,1,.89-8.32l3.71-23.92h7.35Z"/><path class="cls-7" d="M610.31,508.52h8.93V523a86.33,86.33,0,0,1-.41,11.89c-.34,4-.76,7.9-1,11.89H612c-.21-4-.69-7.9-1-11.89a99.08,99.08,0,0,1-.62-11.89Zm.07,51.54V551h8.93v9.07Z"/></svg>